
<svg width="1888" height="2699" viewBox="0 0 1888 2699" fill="none" xmlns="http://www.w3.org/2000/svg">
	<text id="werknemers_2020_totaal" fill="#074953" font-family="Roboto" font-size="57" font-weight="500" x="79" y="458">0</text>
	<text id="beroepsbevolking_2020_totaal" fill="#074953" font-family="Roboto" font-size="57" x="1136" y="458">0</text>

	<rect id="werknemers_2020_totaal_rect" x="54" y="572" width="735" height="64" fill="#F4F4F4"></rect>
	<rect id="werknemers_2020_vrouwen_rect" x="54" y="572" width="0" height="64" fill="#A8D0D6"></rect>
	<text id="werknemers_2020_vrouwen" fill="#A8D0D6" font-family="Roboto" font-size="39" x="150" y="619">0</text>
	<text id="werknemers_2020_vrouwen_percentage" fill="#A8D0D6" font-family="Roboto" font-size="39" x="280" y="619">(0%)</text>


	<rect id="directie_totaal_rect" x="516" y="1529" width="1221" height="45" fill="#ECEDED"></rect>
	<rect id="directie_1" x="516" y="1529" width="0" height="45" fill="#A8D0D6"></rect>
	<rect id="directie_2" x="516" y="1529" width="0" height="45" fill="#074953"></rect>
	<text id="percentage_directie_1" fill="#258999" font-family="Roboto" font-size="30" x="516" y="1561"></text>
	<text id="percentage_directie_2" fill="#258999" font-family="Roboto" font-size="30" x="516" y="1561"></text>
	<text id="percentage_directie_3" fill="#414143" font-family="Roboto" font-size="24" x="1766" y="1561"></text>

	<rect id="ontwikkelen_totaal_rect" x="516" y="1592" width="1221" height="45" fill="#ECEDED"></rect>
	<rect id="ontwikkelen_1" x="516" y="1592" width="0" height="45" fill="#A8D0D6"></rect>
	<rect id="ontwikkelen_2" x="516" y="1592" width="0" height="45" fill="#074953"></rect>
	<text id="percentage_ontwikkelen_1" fill="#258999" font-family="Roboto" font-size="30" x="516" y="1624"></text>
	<text id="percentage_ontwikkelen_2" fill="#258999" font-family="Roboto" font-size="30" x="516" y="1624"></text>
	<text id="percentage_ontwikkelen_3" fill="#414143" font-family="Roboto" font-size="24" x="1766" y="1624"></text>

	<rect id="plannen_en_werkvoorbereiding_totaal_rect" x="516" y="1655" width="1221" height="45" fill="#ECEDED"></rect>
	<rect id="plannen_en_werkvoorbereiding_1" x="516" y="1655" width="0" height="45" fill="#A8D0D6"></rect>
	<rect id="plannen_en_werkvoorbereiding_2" x="516" y="1655" width="0" height="45" fill="#074953"></rect>
	<text id="percentage_plannen_en_werkvoorbereiding_1" fill="#258999" font-family="Roboto" font-size="30" x="516" y="1687"></text>
	<text id="percentage_plannen_en_werkvoorbereiding_2" fill="#258999" font-family="Roboto" font-size="30" x="516" y="1687"></text>
	<text id="percentage_plannen_en_werkvoorbereiding_3" fill="#414143" font-family="Roboto" font-size="24" x="1766" y="1687"></text>

	<rect id="tekenen_totaal_rect" x="516" y="1718" width="1221" height="45" fill="#ECEDED"></rect>
	<rect id="tekenen_1" x="516" y="1718" width="0" height="45" fill="#A8D0D6"></rect>
	<rect id="tekenen_2" x="516" y="1718" width="0" height="45" fill="#074953"></rect>
	<text id="percentage_tekenen_1" fill="#258999" font-family="Roboto" font-size="30" x="516" y="1750"></text>
	<text id="percentage_tekenen_2" fill="#258999" font-family="Roboto" font-size="30" x="516" y="1750"></text>
	<text id="percentage_tekenen_3" fill="#414143" font-family="Roboto" font-size="24" x="1766" y="1750"></text>

	<rect id="technisch_voorbereidend_overig_totaal_rect" x="516" y="1781" width="1221" height="45" fill="#ECEDED"></rect>
	<rect id="technisch_voorbereidend_overig_1" x="516" y="1781" width="0" height="45" fill="#A8D0D6"></rect>
	<rect id="technisch_voorbereidend_overig_2" x="516" y="1781" width="0" height="45" fill="#074953"></rect>
	<text id="percentage_technisch_voorbereidend_overig_1" fill="#258999" font-family="Roboto" font-size="30" x="516" y="1813"></text>
	<text id="percentage_technisch_voorbereidend_overig_2" fill="#258999" font-family="Roboto" font-size="30" x="516" y="1813"></text>
	<text id="percentage_technisch_voorbereidend_overig_3" fill="#414143" font-family="Roboto" font-size="24" x="1766" y="1813"></text>

	<rect id="monteren_installeren_totaal_rect" x="516" y="1844" width="1221" height="45" fill="#ECEDED"></rect>
	<rect id="monteren_installeren_1" x="516" y="1844" width="0" height="45" fill="#A8D0D6"></rect>
	<rect id="monteren_installeren_2" x="516" y="1844" width="0" height="45" fill="#074953"></rect>
	<text id="percentage_monteren_installeren_1" fill="#258999" font-family="Roboto" font-size="30" x="516" y="1876"></text>
	<text id="percentage_monteren_installeren_2" fill="#258999" font-family="Roboto" font-size="30" x="516" y="1876"></text>
	<text id="percentage_monteren_installeren_3" fill="#414143" font-family="Roboto" font-size="24" x="1766" y="1876"></text>

	<rect id="leidinggevend_monteren_installeren_totaal_rect" x="516" y="1907" width="1221" height="45" fill="#ECEDED"></rect>
	<rect id="leidinggevend_monteren_installeren_1" x="516" y="1907" width="0" height="45" fill="#A8D0D6"></rect>
	<rect id="leidinggevend_monteren_installeren_2" x="516" y="1907" width="0" height="45" fill="#074953"></rect>
	<text id="percentage_leidinggevend_monteren_installeren_1" fill="#258999" font-family="Roboto" font-size="30" x="516" y="1939"></text>
	<text id="percentage_leidinggevend_monteren_installeren_2" fill="#258999" font-family="Roboto" font-size="30" x="516" y="1939"></text>
	<text id="percentage_leidinggevend_monteren_installeren_3" fill="#414143" font-family="Roboto" font-size="24" x="1766" y="1939"></text>

	<rect id="voorbewerken_totaal_rect" x="516" y="1970" width="1221" height="45" fill="#ECEDED"></rect>
	<rect id="voorbewerken_1" x="516" y="1970" width="0" height="45" fill="#A8D0D6"></rect>
	<rect id="voorbewerken_2" x="516" y="1970" width="0" height="45" fill="#074953"></rect>
	<text id="percentage_voorbewerken_1" fill="#258999" font-family="Roboto" font-size="30" x="516" y="2002"></text>
	<text id="percentage_voorbewerken_2" fill="#258999" font-family="Roboto" font-size="30" x="516" y="2002"></text>
	<text id="percentage_voorbewerken_3" fill="#414143" font-family="Roboto" font-size="24" x="1766" y="2002"></text>

	<rect id="staf_administratief_financieel_totaal_rect" x="516" y="2033" width="1221" height="45" fill="#ECEDED"></rect>
	<rect id="staf_administratief_financieel_1" x="516" y="2033" width="0" height="45" fill="#A8D0D6"></rect>
	<rect id="staf_administratief_financieel_2" x="516" y="2033" width="0" height="45" fill="#074953"></rect>
	<text id="percentage_staf_administratief_financieel_1" fill="#258999" font-family="Roboto" font-size="30" x="516" y="2065"></text>
	<text id="percentage_staf_administratief_financieel_2" fill="#258999" font-family="Roboto" font-size="30" x="516" y="2065"></text>
	<text id="percentage_staf_administratief_financieel_3" fill="#414143" font-family="Roboto" font-size="24" x="1766" y="2065"></text>

	<rect id="staf_personeelsfunctionaris_totaal_rect" x="516" y="2096" width="1221" height="45" fill="#ECEDED"></rect>
	<rect id="staf_personeelsfunctionaris_1" x="516" y="2096" width="0" height="45" fill="#A8D0D6"></rect>
	<rect id="staf_personeelsfunctionaris_2" x="516" y="2096" width="0" height="45" fill="#074953"></rect>
	<text id="percentage_staf_personeelsfunctionaris_1" fill="#258999" font-family="Roboto" font-size="30" x="516" y="2128"></text>
	<text id="percentage_staf_personeelsfunctionaris_2" fill="#258999" font-family="Roboto" font-size="30" x="516" y="2128"></text>
	<text id="percentage_staf_personeelsfunctionaris_3" fill="#414143" font-family="Roboto" font-size="24" x="1766" y="2128"></text>

	<rect id="staf_verkopen_totaal_rect" x="516" y="2159" width="1221" height="45" fill="#ECEDED"></rect>
	<rect id="staf_verkopen_1" x="516" y="2159" width="0" height="45" fill="#A8D0D6"></rect>
	<rect id="staf_verkopen_2" x="516" y="2159" width="0" height="45" fill="#074953"></rect>
	<text id="percentage_staf_verkopen_1" fill="#258999" font-family="Roboto" font-size="30" x="516" y="2191"></text>
	<text id="percentage_staf_verkopen_2" fill="#258999" font-family="Roboto" font-size="30" x="516" y="2191"></text>
	<text id="percentage_staf_verkopen_3" fill="#414143" font-family="Roboto" font-size="24" x="1766" y="2191"></text>

	<rect id="staf_afdelingschef_totaal_rect" x="516" y="2222" width="1221" height="45" fill="#ECEDED"></rect>
	<rect id="staf_afdelingschef_1" x="516" y="2222" width="0" height="45" fill="#A8D0D6"></rect>
	<rect id="staf_afdelingschef_2" x="516" y="2222" width="0" height="45" fill="#074953"></rect>
	<text id="percentage_staf_afdelingschef_1" fill="#258999" font-family="Roboto" font-size="30" x="516" y="2254"></text>
	<text id="percentage_staf_afdelingschef_2" fill="#258999" font-family="Roboto" font-size="30" x="516" y="2254"></text>
	<text id="percentage_staf_afdelingschef_3" fill="#414143" font-family="Roboto" font-size="24" x="1766" y="2254"></text>

	<rect id="staf_bedrijfsleiding_totaal_rect" x="516" y="2285" width="1221" height="45" fill="#ECEDED"></rect>
	<rect id="staf_bedrijfsleiding_1" x="516" y="2285" width="0" height="45" fill="#A8D0D6"></rect>
	<rect id="staf_bedrijfsleiding_2" x="516" y="2285" width="0" height="45" fill="#074953"></rect>
	<text id="percentage_staf_bedrijfsleiding_1" fill="#258999" font-family="Roboto" font-size="30" x="516" y="2317"></text>
	<text id="percentage_staf_bedrijfsleiding_2" fill="#258999" font-family="Roboto" font-size="30" x="516" y="2317"></text>
	<text id="percentage_staf_bedrijfsleiding_3" fill="#414143" font-family="Roboto" font-size="24" x="1766" y="2317"></text>

	<rect id="staf_overig_totaal_rect" x="516" y="2348" width="1221" height="45" fill="#ECEDED"></rect>
	<rect id="staf_overig_1" x="516" y="2348" width="0" height="45" fill="#A8D0D6"></rect>
	<rect id="staf_overig_2" x="516" y="2348" width="0" height="45" fill="#074953"></rect>
	<text id="percentage_staf_overig_1" fill="#258999" font-family="Roboto" font-size="30" x="516" y="2380"></text>
	<text id="percentage_staf_overig_2" fill="#258999" font-family="Roboto" font-size="30" x="516" y="2380"></text>
	<text id="percentage_staf_overig_3" fill="#414143" font-family="Roboto" font-size="24" x="1766" y="2380"></text>

	<rect id="overig_technisch_uitvoerend_totaal_rect" x="516" y="2411" width="1221" height="45" fill="#ECEDED"></rect>
	<rect id="overig_technisch_uitvoerend_1" x="516" y="2411" width="0" height="45" fill="#A8D0D6"></rect>
	<rect id="overig_technisch_uitvoerend_2" x="516" y="2411" width="0" height="45" fill="#074953"></rect>
	<text id="percentage_overig_technisch_uitvoerend_1" fill="#258999" font-family="Roboto" font-size="30" x="516" y="2443"></text>
	<text id="percentage_overig_technisch_uitvoerend_2" fill="#258999" font-family="Roboto" font-size="30" x="516" y="2443"></text>
	<text id="percentage_overig_technisch_uitvoerend_3" fill="#414143" font-family="Roboto" font-size="24" x="1766" y="2443"></text>

	<rect id="overig_totaal_rect" x="516" y="2474" width="1221" height="45" fill="#ECEDED"></rect>
	<rect id="overig_1" x="516" y="2474" width="0" height="45" fill="#A8D0D6"></rect>
	<rect id="overig_2" x="516" y="2474" width="0" height="45" fill="#074953"></rect>
	<text id="percentage_overig_1" fill="#258999" font-family="Roboto" font-size="30" x="516" y="2506"></text>
	<text id="percentage_overig_2" fill="#258999" font-family="Roboto" font-size="30" x="516" y="2506"></text>
	<text id="percentage_overig_3" fill="#414143" font-family="Roboto" font-size="24" x="1766" y="2506"></text>

	<rect id="alle_functies_totaal_rect" x="516" y="2537" width="1221" height="45" fill="#ECEDED"></rect>
	<rect id="alle_functies_1" x="516" y="2537" width="0" height="45" fill="#A8D0D6"></rect>
	<rect id="alle_functies_2" x="516" y="2537" width="0" height="45" fill="#074953"></rect>
	<text id="percentage_alle_functies_1" fill="#258999" font-family="Roboto" font-size="30" x="516" y="2569"></text>
	<text id="percentage_alle_functies_2" fill="#258999" font-family="Roboto" font-size="30" x="516" y="2569"></text>
	<text id="percentage_alle_functies_3" fill="#414143" font-family="Roboto" font-size="24" x="1766" y="2569"></text>

	<g id="titel" style=" cursor: pointer;">
		<text fill="#A8D0D6" font-family="Roboto" font-size="42" font-weight="bold" x="68" y="1494">
			<tspan id="geslacht" onClick="ververs('afkomst')"><tspan>Vrouw</tspan> <tspan fill="#414143">vs. Man</tspan></tspan>
			<tspan id="afkomst" onClick="ververs('leeftijd')"><tspan fill="#074953">Westerse migratieachtergrond</tspan> <tspan fill="#258999">vs. Niet-westerse migratieachtergrond</tspan> <tspan fill="#414143">vs. autochtoon</tspan></tspan>
			<tspan id="leeftijd" onClick="ververs('geslacht')"><tspan fill="#919494">55+</tspan> <tspan fill="#414143">vs. 55-</tspan></tspan>
		</text>
	</g>

	<path id="vrouw-silhouet" fill="#414143" d="M450.88 1522.43C452.76 1524.8 453.698 1527.56 453.698 1530.7C453.698 1531.72 453.479 1532.52 453.035 1533.11C454.877 1535.08 456.204 1537.67 457.015 1540.89L457.236 1541.1C457.384 1541.61 457.418 1542.49 457.346 1543.73C458.525 1545.71 459.114 1546.87 459.114 1547.24C459.114 1547.53 459.04 1547.75 458.892 1547.9V1548.88L459.334 1549.43C460.66 1550.52 462.097 1551.07 463.645 1551.07C465.487 1551.07 466.924 1552.31 467.955 1554.8C470.976 1564.95 472.928 1572.65 473.813 1577.91C473.887 1578.57 474.255 1579.81 474.918 1581.63C475.434 1583.17 475.691 1584.41 475.691 1585.36C475.691 1589.08 474.622 1590.94 472.485 1590.94C469.538 1590.94 465.744 1589.48 461.102 1586.56L460.108 1587.55C461.801 1589.67 462.87 1591.16 463.314 1592.04C464.787 1596.79 465.966 1600.99 466.849 1604.64C467.659 1605.73 468.028 1606.65 467.954 1607.38C467.363 1607.82 466.884 1608.11 466.518 1608.25C466.884 1609.13 467.181 1609.79 467.401 1610.23C467.401 1610.52 467.254 1610.92 466.959 1611.43C466.665 1611.94 466.518 1612.34 466.518 1612.64C466.518 1615.05 465.965 1618.55 464.86 1623.15C463.753 1627.97 463.127 1631.51 462.98 1633.78C462.98 1634.36 462.833 1635.25 462.539 1636.46C462.244 1637.67 462.097 1638.56 462.097 1639.14C462.097 1641.92 461.876 1643.53 461.433 1643.96V1647.03C461.433 1647.83 461.545 1648.93 461.767 1650.32C461.986 1651.7 462.098 1652.73 462.098 1653.39C462.098 1656.74 461.839 1659.7 461.323 1662.26L461.877 1662.15L462.54 1662.37C461.433 1668.87 459.481 1674.82 456.681 1680.22C456.829 1680.66 456.203 1682.16 454.804 1684.71C454.509 1687.2 454.323 1688.51 454.251 1688.66C454.178 1688.8 453.845 1689.19 453.256 1689.81C452.667 1690.43 452.373 1690.99 452.373 1691.5C452.373 1692.46 452.594 1693.26 453.035 1693.91C452.299 1695.01 451.931 1695.89 451.931 1696.54C451.931 1697.06 452.465 1698.48 453.533 1700.82C454.6 1703.15 455.135 1704.91 455.135 1706.07C455.135 1707.1 453.182 1707.61 449.276 1707.61C445.816 1707.61 444.084 1706.15 444.084 1703.23C444.084 1702.42 444.25 1701.16 444.581 1699.45C444.912 1697.73 445.078 1696.58 445.078 1696V1693.48C444.415 1694.06 443.937 1694.61 443.64 1695.12C444.009 1695.7 444.194 1696.25 444.194 1696.76C444.194 1697.2 444.009 1697.86 443.64 1698.74C443.272 1699.61 443.089 1700.31 443.089 1700.82C443.089 1699.72 443.126 1700.89 443.199 1704.32L442.536 1704.76C442.536 1706.37 441.614 1707.17 439.773 1707.17C434.984 1707.17 432.664 1706.33 432.81 1704.65V1704.32C432.958 1704.25 433.067 1704.14 433.142 1703.99C434.984 1699.91 436.052 1696.55 436.346 1693.92C436.863 1693.19 437.121 1692.64 437.121 1692.27C437.121 1692.05 436.864 1691.54 436.346 1690.74C436.641 1690.01 436.9 1689.46 437.121 1689.1C437.121 1688.59 436.936 1687.78 436.567 1686.69C436.199 1685.59 436.016 1684.75 436.016 1684.17C436.016 1683.88 436.144 1683.4 436.401 1682.75C436.658 1682.09 436.79 1681.58 436.79 1681.21C436.79 1680.77 436.642 1680.1 436.346 1679.18C436.052 1678.27 435.904 1677.59 435.904 1677.16L436.127 1662.04L436.79 1661.71L437.121 1661.28L437.231 1660.51C437.157 1660.07 437.194 1659.58 437.341 1659.03C437.488 1658.48 437.563 1658.06 437.563 1657.77C437.563 1657.26 437.451 1656.71 437.231 1656.13C437.599 1654.45 437.784 1653.79 437.784 1654.15V1653.61L438.115 1652.73C438.263 1652.58 438.372 1652.36 438.449 1652.07L438.336 1651.09C438.706 1650.94 438.964 1650.58 439.112 1649.99C438.373 1647.07 438.005 1645.24 438.005 1644.51C436.459 1642.4 435.206 1637.65 434.247 1630.27C433.068 1621.51 432.257 1616.43 431.817 1615.05L430.49 1614.72C430.196 1614.35 430.049 1609.5 430.049 1600.15C430.049 1595.77 430.6 1592.88 431.707 1591.5C431.338 1590.69 431.376 1589.49 431.817 1587.88C432.48 1585.91 432.811 1584.63 432.811 1584.05C432.811 1583.68 432.737 1583.03 432.589 1582.08C430.159 1584.56 428.426 1585.8 427.396 1585.8C426.144 1585.8 424.965 1584.82 423.859 1582.84C422.829 1581.16 422.313 1579.67 422.313 1578.35C422.313 1577.33 422.754 1575.76 423.638 1573.64C424.67 1571.23 425.261 1569.55 425.408 1568.6C425.924 1565.9 426.365 1562.8 426.735 1559.29C426.954 1556.81 427.176 1554.29 427.397 1551.73C427.988 1549.25 429.606 1547.53 432.258 1546.59C434.248 1546.59 435.649 1546.33 436.46 1545.82C437.786 1543.41 438.816 1541.73 439.554 1540.78C437.418 1537.27 436.348 1535.27 436.348 1534.76L436.46 1533.66L436.238 1533.22C435.944 1533.07 435.76 1532.96 435.685 1532.89C435.76 1532.6 435.76 1532.42 435.685 1532.34C435.022 1531.1 434.691 1529.24 434.691 1526.76C434.691 1523.98 436.568 1521.57 440.327 1519.53C441.506 1519.6 442.317 1519.49 442.758 1519.2H443.531C446.553 1518.98 449.003 1520.05 450.88 1522.43Z" />
	<path id="55plus-silhouet" fill="#414143" d="M484.65 1708.03C484.64 1707.67 484.5 1707.38 484.144 1707.24C484.144 1707.24 483.345 1705.01 482.675 1704.63C481.676 1704.09 478.722 1704.35 478.685 1704.33C478.469 1704.11 473.596 1703.55 470.722 1701.01C470.805 1699.77 472.224 1698.55 471.155 1697.82C470.739 1697.53 467.994 1689.1 468.188 1688.11C468.411 1687 467.178 1685.13 466.682 1684.22C466.299 1683.55 466.043 1683.16 465.716 1682.84C467.039 1681.77 466.139 1680.34 465.783 1678.83C465.11 1675.97 466.762 1650.7 466.372 1647.81C466.026 1645.21 460.038 1625.36 459.165 1623.47C458.269 1621.5 456.164 1615.52 455.338 1614.82C455.328 1614.72 455.325 1614.61 455.328 1614.51C455.355 1613.81 455.698 1613.05 455.861 1612.33C456.234 1610.65 457 1606.76 457.134 1606.27C459.781 1596.74 459.338 1586.13 457.926 1579.51C457.593 1577.96 456.114 1576.26 455.795 1574.72C455.612 1573.84 455.508 1573.02 455.328 1572.24C454.796 1569.94 453.154 1568.26 452.264 1566.16C451.978 1565.48 451.682 1564.75 451.398 1564.03C451.102 1563.28 450.632 1562.5 450.533 1561.85C450.473 1561.45 450.622 1561.03 450.533 1560.67C450.453 1560.34 450.183 1559.94 450 1559.61C449.793 1559.23 449.44 1558.85 449.4 1558.54C449.354 1558.18 449.583 1557.65 449.667 1557.19C449.846 1556.16 449.903 1555.24 449.667 1554.29C450.869 1553.56 452.514 1553.12 453.796 1552.41C454.466 1552.03 455.105 1551.21 455.728 1551.17C456.108 1551.14 456.371 1551.16 456.761 1551.16C457.996 1551.16 459.119 1550.5 459.092 1549.39C459.079 1548.84 458.769 1548.96 458.792 1548.33C458.819 1547.61 459.505 1547.51 459.791 1546.92C459.918 1546.71 459.522 1546.45 459.525 1546.15C459.945 1545.94 460.404 1546.08 460.591 1545.68C460.837 1545.14 460.331 1544.18 460.724 1543.67C461.477 1543.45 462.033 1543.94 462.656 1543.73C463.948 1543.28 462.682 1541.18 462.389 1540.54C462.193 1540.12 461.913 1539.51 461.656 1538.95C461.417 1538.41 460.9 1537.67 460.99 1537.24C461.047 1536.96 461.11 1536.9 461.243 1536.65C461.33 1536.49 461.493 1536.29 461.443 1536.06C461.313 1535.47 461.074 1535.45 460.857 1534.93C460.614 1534.35 460.824 1533.59 460.791 1532.99C460.757 1532.35 460.714 1531.68 460.457 1531.21L457.793 1527.38C454.416 1523.77 445.54 1525 442.946 1526.32C442.446 1526.57 440.594 1527.99 440.218 1528.32C438.483 1529.86 437.52 1532.27 437.021 1534.82C436.608 1536.93 436.608 1539.18 437.287 1541.02C437.494 1541.58 437.963 1542.15 438.02 1542.73C438.063 1543.18 437.807 1544.57 437.687 1544.85C437.494 1545.3 437.044 1545.57 436.688 1545.98C436.385 1546.32 435.955 1547 435.622 1547.1C435.239 1547.21 434.796 1547.13 434.423 1547.16C434.017 1547.18 433.867 1547.2 433.224 1547.22C432.441 1547.71 432.168 1548.55 431.758 1549.34C431.422 1550 430.869 1551.14 430.293 1551.53C429.93 1551.77 429.417 1551.91 429.027 1552.12C426.05 1553.73 424.288 1555.76 422.503 1558.49C421.101 1560.64 419.805 1563.12 418.843 1565.69C418.5 1566.61 418.12 1567.52 418.043 1568.47C417.847 1570.89 418.373 1572.04 418.52 1574.13C418.646 1575.94 418.693 1577.87 418.763 1579.74C418.836 1581.62 419.013 1583.45 419.162 1585.17C419.316 1586.95 419.515 1588.65 420.095 1590.07C420.694 1591.54 422.113 1593.01 422.103 1594.62C422.09 1596.41 421.187 1598.15 420.971 1600.05C420.741 1602.06 420.658 1604.24 420.771 1606.37C420.921 1609.15 421.034 1612.05 421.244 1614.8C421.121 1614.79 421.094 1615.51 421.107 1615.93C421.141 1617.14 421.344 1618.34 421.384 1619.56C421.424 1619.59 421.464 1619.64 421.507 1619.7C421.507 1619.7 421.507 1619.75 421.51 1619.77C421.577 1620.48 421.834 1621.01 422.14 1621.49C423.116 1625.28 424.182 1633.27 424.861 1634.52C423.898 1637.2 423.036 1643.75 423.739 1644.34C423.369 1646.41 422.203 1648.87 422.02 1651.19C421.86 1653.15 422.107 1677.84 421.347 1679.71C420.198 1682.52 418.716 1687.26 418.906 1688.16C418.929 1688.26 418.493 1688.69 418.64 1688.79C418.473 1689.4 418.626 1689.53 418.846 1690.47C418.883 1690.6 418.903 1690.71 418.923 1690.81C418.923 1690.81 418.28 1692.15 418.536 1692.6C418.536 1692.6 418.693 1693.9 418.573 1694.34C418.476 1694.7 418.44 1702.3 418.829 1702.65C418.776 1702.85 419.023 1704.2 418.859 1704.21C418.656 1705.8 417.977 1707.09 419.545 1708.24C421.024 1709.32 422.873 1709.69 424.658 1710.04C426.087 1710.31 426.856 1710.79 427.852 1709.64C428.008 1709.46 428.148 1709.28 428.288 1709.09C429.76 1709.61 430.982 1710.59 432.435 1711.13C434.906 1712.04 437.667 1711.98 440.265 1712.38C442.043 1712.65 449.56 1709.99 449.56 1709.99C449.67 1709.55 449.893 1708.78 449.733 1708.35C449.77 1707.99 449.67 1707.69 449.334 1707.52L449.157 1707.45C449.277 1706.52 448.821 1705.22 448.205 1704.78C447.279 1704.14 444.311 1704.1 444.278 1704.07C444.105 1703.85 439.902 1702.92 437.287 1700.49C437.903 1699.49 438.313 1692.37 438.636 1690.73C439.335 1687.2 439.842 1683.71 440.288 1680.13C440.594 1677.68 440.844 1651.36 442.013 1648.84C442.3 1648.78 442.573 1648.72 442.839 1648.68C442.986 1649.36 443.129 1650.01 443.325 1650.52C444.288 1653.08 444.904 1678.11 445.79 1680.69C446.949 1684.09 446.929 1687.5 448.897 1690.73C450 1692.55 449.523 1694.72 451.382 1696.95C451.165 1697.72 451.398 1698.22 451.788 1699.27C451.841 1699.39 452.081 1700.93 452.398 1701.36C452.398 1701.36 452.717 1702.63 452.651 1703.09C452.601 1703.44 452.534 1703.68 452.534 1704.18C452.508 1704.74 453.17 1706.51 453.17 1706.51C453.4 1706.45 453.603 1707 453.44 1707.02C453.44 1708.62 452.927 1709.97 454.636 1710.95C456.241 1711.88 458.126 1712.06 459.945 1712.23C461.397 1712.36 462.223 1712.75 463.065 1711.52C463.198 1711.32 463.312 1711.13 463.428 1710.93C464.957 1711.29 466.296 1712.14 467.808 1712.54C470.382 1713.2 473.117 1712.86 475.748 1713C477.55 1713.09 484.71 1710.89 484.694 1709.71L484.684 1709.69C484.744 1709.23 484.867 1708.44 484.65 1708.03Z" />
	<path id="allochtoon-silhouet" fill="#414143" d="M420.395 1702.63C421.291 1701.5 421.073 1700.37 421.073 1700.37C421.073 1700.37 426.652 1666.4 426.793 1662.7C426.934 1659.01 428.987 1656.05 428.987 1653.21C428.987 1651.55 429.85 1643.19 430.568 1636.53C429.927 1633.86 429.199 1631.08 428.86 1630.46C428.212 1629.27 429.021 1627.11 428.132 1626.2C426.354 1624.34 424.374 1623.47 425.968 1620.27C426.736 1618.73 428.618 1620.45 428.94 1621.28C428.967 1621.35 429.001 1621.39 429.038 1621.43C429.055 1621.45 429.071 1621.46 429.088 1621.47C429.118 1621.49 429.149 1621.5 429.179 1621.5C429.195 1621.51 429.219 1621.51 429.239 1621.51C429.273 1621.5 429.31 1621.5 429.35 1621.48C429.37 1621.48 429.39 1621.47 429.41 1621.46C429.45 1621.44 429.487 1621.42 429.531 1621.39C429.554 1621.38 429.575 1621.36 429.601 1621.34C429.632 1621.32 429.665 1621.3 429.695 1621.27C429.732 1621.24 429.766 1621.21 429.803 1621.18C429.809 1621.17 429.813 1621.16 429.82 1621.16C429.987 1620.99 430.138 1620.81 430.232 1620.7C430.541 1620.33 431.155 1621.26 431.477 1620.59L431.594 1611.81C431.594 1611.81 427.753 1610.41 425.965 1606.15C424.183 1601.88 423.227 1601.75 421.174 1599.34C419.11 1596.93 418.838 1593.81 418.838 1587.72C418.838 1581.61 421.995 1573.39 422.405 1570.42C422.811 1567.44 425.542 1560.91 427.055 1559.14C428.561 1557.36 439.737 1554.11 439.737 1554.11C439.737 1554.11 440.666 1551.78 441.653 1551.32C442.646 1550.86 442.955 1550.22 444.256 1549.02C445.565 1547.81 447.903 1548.15 447.903 1548.15C447.903 1548.15 447.887 1547.66 447.793 1547.29C447.776 1547.22 447.769 1547.17 447.746 1547.12C447.702 1547.01 447.638 1546.91 447.554 1546.88C447.216 1546.73 445.91 1543.9 445.364 1542.41C444.817 1540.92 444.474 1537.66 444.743 1534.12C445.015 1530.58 448.095 1526.59 455.194 1525.21C462.29 1523.84 466.397 1529.64 466.397 1529.64C466.397 1529.64 465.934 1529.7 466.568 1530.21C467.202 1530.73 467.427 1531.88 467.306 1531.63C467.202 1531.42 466.655 1530.97 466.501 1530.86C466.588 1530.92 466.752 1531.11 467.014 1531.66C467.393 1532.44 466.467 1534.31 466.574 1533.78C466.675 1533.25 466.125 1532.51 466.125 1532.51C466.125 1532.51 466.128 1532.53 466.138 1532.59C466.145 1532.61 466.145 1532.64 466.148 1532.66C466.155 1532.7 466.162 1532.75 466.165 1532.8C466.189 1533.06 466.209 1533.55 466.121 1534.49C465.987 1536.05 466.225 1535.35 466.534 1536.58C466.843 1537.82 466.974 1538.46 466.464 1539.34C465.944 1540.23 465.407 1540.95 465.679 1541.36C465.947 1541.79 466.397 1542.07 466.574 1543.14C466.745 1544.21 465.715 1543.88 465.544 1544.31C465.37 1544.72 465.544 1545.55 465.507 1546.12C465.481 1546.68 464.685 1546.86 465.061 1547C465.44 1547.14 465.44 1547.46 465.236 1547.67C465.031 1547.88 464.518 1549.58 464.585 1551.11C464.591 1551.39 464.551 1551.63 464.481 1551.81C464.467 1551.85 464.454 1551.89 464.444 1551.91C464.367 1552.08 464.273 1552.22 464.159 1552.31C464.152 1552.33 464.145 1552.33 464.135 1552.34C464.122 1552.35 464.118 1552.35 464.108 1552.36C463.894 1552.53 463.669 1552.62 463.518 1552.65H463.515C463.488 1552.65 463.494 1552.65 463.471 1552.65C463.4 1552.66 463.353 1552.67 463.353 1552.67C463.353 1552.67 464.031 1553.58 464.518 1554.22C464.997 1554.86 466.816 1557.34 466.816 1557.34C466.816 1557.34 466.9 1557.15 468.544 1557.93C470.188 1558.71 474.308 1561.19 475.539 1562.04C476.77 1562.88 479.723 1570.4 480.27 1573.45C480.817 1576.5 481.776 1578.76 483.219 1581.38C484.662 1584.01 484.588 1584.99 484.524 1586.2C484.454 1587.41 484.729 1589.46 484.729 1591.87C484.729 1594.29 483.494 1596.34 483.494 1596.34C483.494 1596.34 483.84 1597.83 484.111 1599.6C484.39 1601.37 483.632 1604.14 482.81 1605.2C481.988 1606.26 482.81 1606.12 483.014 1607.61C483.222 1609.1 483.635 1609.52 482.602 1610.08C481.575 1610.66 480.894 1612.29 479.998 1613.35C479.106 1614.41 477.941 1614.48 477.049 1614.76C476.16 1615.05 475.472 1615.83 474.65 1617.67C473.821 1619.51 475.271 1628.38 474.717 1628.94C474.174 1629.51 473.033 1629.24 473.033 1629.24C473.033 1629.24 473.305 1637.19 472.892 1640.59C472.483 1643.99 468.752 1696.61 468.752 1696.61C468.752 1696.61 470.466 1699.03 472.046 1700.8C473.62 1702.57 474.1 1705.26 473.758 1706.39C472.764 1709.67 466.319 1709.03 464.085 1707.81C462.79 1707.1 462.374 1705.26 461.619 1703.84C460.871 1702.43 459.15 1702 457.915 1700.94C456.684 1699.87 456.982 1697.15 456.982 1697.15L454.513 1693.61C454.513 1693.61 454.006 1665.48 454.006 1656.97C454.006 1648.47 452.084 1635.72 452.084 1635.72C449.574 1637.47 446.139 1655.47 443.398 1670.36C440.653 1685.24 434.322 1700.59 434.322 1700.59L432.057 1701.3C432.057 1701.3 431.99 1703.35 431.923 1704.34C431.859 1705.33 430.279 1705.97 430.071 1706.47C429.866 1706.96 429.866 1709.23 429.524 1710.44C429.179 1711.64 428.082 1712.14 425.827 1712.7C423.562 1713.28 419.305 1712.99 418.822 1712.07C418.345 1711.15 418.073 1709.31 418.003 1707.74C417.922 1706.18 419.503 1703.77 420.395 1702.63Z" />
	<path id="man-silhouet" fill="#414143" d="M1616.45 2550.7C1617.32 2549.6 1617.11 2548.49 1617.11 2548.49C1617.11 2548.49 1622.54 2515.39 1622.68 2511.79C1622.82 2508.2 1624.82 2505.31 1624.82 2502.55C1624.82 2500.93 1625.66 2492.78 1626.36 2486.3C1625.74 2483.7 1625.03 2480.99 1624.7 2480.39C1624.07 2479.23 1624.85 2477.12 1623.99 2476.23C1622.25 2474.42 1620.32 2473.57 1621.88 2470.46C1622.63 2468.96 1624.46 2470.63 1624.78 2471.44C1624.8 2471.51 1624.83 2471.55 1624.87 2471.59C1624.88 2471.61 1624.9 2471.62 1624.92 2471.63C1624.95 2471.64 1624.98 2471.66 1625.01 2471.66C1625.03 2471.66 1625.05 2471.66 1625.07 2471.66C1625.1 2471.66 1625.14 2471.65 1625.17 2471.64C1625.19 2471.63 1625.21 2471.63 1625.23 2471.62C1625.27 2471.6 1625.31 2471.58 1625.35 2471.55C1625.37 2471.53 1625.4 2471.52 1625.42 2471.5C1625.45 2471.48 1625.48 2471.45 1625.51 2471.43C1625.55 2471.4 1625.58 2471.37 1625.62 2471.34C1625.62 2471.33 1625.63 2471.33 1625.63 2471.32C1625.8 2471.16 1625.94 2470.99 1626.04 2470.87C1626.34 2470.52 1626.94 2471.42 1627.25 2470.77L1627.36 2462.22C1627.36 2462.22 1623.62 2460.85 1621.88 2456.7C1620.15 2452.55 1619.21 2452.41 1617.21 2450.07C1615.2 2447.72 1614.94 2444.67 1614.94 2438.74C1614.94 2432.79 1618.01 2424.79 1618.41 2421.9C1618.8 2418.99 1621.47 2412.63 1622.94 2410.9C1624.41 2409.16 1635.29 2406 1635.29 2406C1635.29 2406 1636.2 2403.73 1637.16 2403.28C1638.13 2402.84 1638.43 2402.21 1639.69 2401.04C1640.97 2399.87 1643.25 2400.19 1643.25 2400.19C1643.25 2400.19 1643.23 2399.72 1643.14 2399.36C1643.13 2399.29 1643.12 2399.24 1643.1 2399.19C1643.06 2399.08 1642.99 2398.99 1642.91 2398.96C1642.58 2398.82 1641.31 2396.05 1640.78 2394.6C1640.24 2393.16 1639.91 2389.98 1640.17 2386.53C1640.44 2383.08 1643.44 2379.2 1650.36 2377.85C1657.27 2376.51 1661.27 2382.17 1661.27 2382.17C1661.27 2382.17 1660.82 2382.22 1661.44 2382.71C1662.05 2383.22 1662.27 2384.34 1662.16 2384.1C1662.05 2383.89 1661.52 2383.46 1661.37 2383.35C1661.46 2383.42 1661.62 2383.6 1661.87 2384.13C1662.24 2384.89 1661.34 2386.72 1661.44 2386.2C1661.54 2385.68 1661.01 2384.96 1661.01 2384.96C1661.01 2384.96 1661.01 2384.98 1661.02 2385.04C1661.03 2385.05 1661.03 2385.08 1661.03 2385.1C1661.04 2385.14 1661.04 2385.19 1661.05 2385.25C1661.07 2385.5 1661.09 2385.98 1661.01 2386.89C1660.88 2388.41 1661.11 2387.73 1661.41 2388.93C1661.71 2390.13 1661.84 2390.76 1661.34 2391.61C1660.83 2392.48 1660.31 2393.18 1660.57 2393.58C1660.83 2394 1661.27 2394.27 1661.45 2395.31C1661.61 2396.35 1660.61 2396.03 1660.44 2396.45C1660.27 2396.86 1660.44 2397.66 1660.41 2398.21C1660.38 2398.76 1659.6 2398.93 1659.97 2399.07C1660.34 2399.21 1660.34 2399.52 1660.14 2399.73C1659.94 2399.93 1659.44 2401.59 1659.51 2403.08C1659.51 2403.35 1659.47 2403.58 1659.41 2403.76C1659.39 2403.79 1659.38 2403.84 1659.37 2403.86C1659.3 2404.03 1659.2 2404.16 1659.09 2404.25C1659.09 2404.26 1659.08 2404.27 1659.07 2404.28C1659.06 2404.29 1659.05 2404.29 1659.04 2404.3C1658.84 2404.46 1658.62 2404.55 1658.47 2404.57H1658.46C1658.44 2404.58 1658.45 2404.57 1658.42 2404.58C1658.35 2404.59 1658.31 2404.59 1658.31 2404.59C1658.31 2404.59 1658.97 2405.49 1659.44 2406.1C1659.91 2406.73 1661.68 2409.14 1661.68 2409.14C1661.68 2409.14 1661.76 2408.96 1663.36 2409.73C1664.96 2410.49 1668.98 2412.9 1670.18 2413.73C1671.38 2414.55 1674.25 2421.87 1674.79 2424.84C1675.32 2427.81 1676.26 2430.02 1677.66 2432.58C1679.07 2435.13 1678.99 2436.1 1678.93 2437.27C1678.86 2438.45 1679.13 2440.44 1679.13 2442.79C1679.13 2445.15 1677.93 2447.15 1677.93 2447.15C1677.93 2447.15 1678.26 2448.59 1678.53 2450.32C1678.8 2452.05 1678.06 2454.75 1677.26 2455.78C1676.46 2456.81 1677.26 2456.68 1677.46 2458.12C1677.66 2459.58 1678.06 2459.98 1677.06 2460.53C1676.06 2461.09 1675.39 2462.68 1674.52 2463.71C1673.65 2464.74 1672.52 2464.81 1671.65 2465.1C1670.78 2465.38 1670.11 2466.14 1669.31 2467.93C1668.5 2469.72 1669.91 2478.36 1669.37 2478.9C1668.84 2479.46 1667.73 2479.2 1667.73 2479.2C1667.73 2479.2 1668 2486.94 1667.6 2490.26C1667.2 2493.57 1663.56 2544.84 1663.56 2544.84C1663.56 2544.84 1665.24 2547.19 1666.77 2548.91C1668.31 2550.64 1668.77 2553.27 1668.44 2554.37C1667.48 2557.56 1661.19 2556.93 1659.02 2555.75C1657.75 2555.06 1657.35 2553.27 1656.61 2551.88C1655.88 2550.5 1654.21 2550.08 1653.01 2549.05C1651.81 2548.01 1652.1 2545.37 1652.1 2545.37L1649.69 2541.91C1649.69 2541.91 1649.2 2514.51 1649.2 2506.22C1649.2 2497.94 1647.32 2485.51 1647.32 2485.51C1644.88 2487.21 1641.53 2504.76 1638.86 2519.26C1636.19 2533.76 1630.02 2548.71 1630.02 2548.71L1627.81 2549.4C1627.81 2549.4 1627.75 2551.4 1627.68 2552.37C1627.62 2553.33 1626.08 2553.94 1625.88 2554.43C1625.68 2554.91 1625.68 2557.13 1625.34 2558.3C1625.01 2559.47 1623.94 2559.96 1621.74 2560.5C1619.54 2561.06 1615.39 2560.78 1614.92 2559.88C1614.45 2558.99 1614.19 2557.2 1614.12 2555.67C1614.04 2554.16 1615.58 2551.81 1616.45 2550.7Z" />
</svg>