
<svg width="1888" height="2699" viewBox="0 0 1888 2699" fill="none" xmlns="http://www.w3.org/2000/svg">
<g id="factsheet_diversiteit">
<rect id="achtergrond" width="1888" height="2699" fill="white"/>
<g id="grafiek">
<g id="lijnen_grafiek">
<path id="Vector" d="M517 2582.3V1519" stroke="#D9DBDB" stroke-miterlimit="10"/>
<path id="Vector_2" d="M761 2582.41V1519" stroke="#D9DBDB" stroke-miterlimit="10"/>
<path id="Vector_3" d="M1006 2582.4V1519" stroke="#D9DBDB" stroke-miterlimit="10"/>
<path id="Vector_4" d="M1250 2582.4V1519" stroke="#D9DBDB" stroke-miterlimit="10"/>
<path id="Vector_5" d="M1494 2582.41V1519" stroke="#D9DBDB" stroke-miterlimit="10"/>
<path id="Vector_6" d="M1738 2582.4V1519" stroke="#D9DBDB" stroke-miterlimit="10"/>
</g>
<g id="percentages_grafiek">
<text id="0%" transform="scale(0.911 1)" fill="#909294" xml:space="preserve" style="white-space: pre" font-family="Roboto" font-size="27.8981" letter-spacing="0em"><tspan x="498.321" y="2612.51">0%</tspan></text>
<text id="20%" transform="scale(0.911 1)" fill="#909294" xml:space="preserve" style="white-space: pre" font-family="Roboto" font-size="27.8981" letter-spacing="0em"><tspan x="733.359" y="2612.51">20%</tspan></text>
<text id="40%" transform="scale(0.911 1)" fill="#909294" xml:space="preserve" style="white-space: pre" font-family="Roboto" font-size="27.8981" letter-spacing="0em"><tspan x="986.773" y="2612.51">40%</tspan></text>
<text id="60%" transform="scale(0.911 1)" fill="#909294" xml:space="preserve" style="white-space: pre" font-family="Roboto" font-size="27.8981" letter-spacing="0em"><tspan x="1226.19" y="2612.51">60%</tspan></text>
<text id="80%" transform="scale(0.911 1)" fill="#909294" xml:space="preserve" style="white-space: pre" font-family="Roboto" font-size="27.8981" letter-spacing="0em"><tspan x="1466.61" y="2612.51">80%</tspan></text>
<text id="100%" transform="scale(0.911 1)" fill="#909294" xml:space="preserve" style="white-space: pre" font-family="Roboto" font-size="27.8981" letter-spacing="0em"><tspan x="1703.64" y="2612.51">100%</tspan></text>
</g>
<text id="ALLE FUNCTIES" fill="#414143" xml:space="preserve" style="white-space: pre" font-family="Roboto" font-size="24" letter-spacing="0em"><tspan x="70.0019" y="2558.78">ALLE FUNCTIES</tspan></text>
<text id="staf-verkopen" fill="#414143" xml:space="preserve" style="white-space: pre" font-family="Roboto" font-size="24" letter-spacing="0em"><tspan x="70.0019" y="2181.32">staf-verkopen</tspan></text>
<text id="staf-personeelsfunctionaris" fill="#414143" xml:space="preserve" style="white-space: pre" font-family="Roboto" font-size="24" letter-spacing="0em"><tspan x="70.0019" y="2117.3">staf-personeelsfunctionaris</tspan></text>
<text id="staf-administratief/financieel" fill="#414143" xml:space="preserve" style="white-space: pre" font-family="Roboto" font-size="24" letter-spacing="0em"><tspan x="70.0019" y="2053.73">staf-administratief/financieel</tspan></text>
<text id="voorbewerken" fill="#414143" xml:space="preserve" style="white-space: pre" font-family="Roboto" font-size="24" letter-spacing="0em"><tspan x="70.0019" y="1992.33">voorbewerken</tspan></text>
<text id="leidinggevend monteren/installeren" fill="#414143" xml:space="preserve" style="white-space: pre" font-family="Roboto" font-size="24" letter-spacing="0em"><tspan x="70.0019" y="1929.65">leidinggevend monteren/installeren</tspan></text>
<text id="monteren/installeren" fill="#414143" xml:space="preserve" style="white-space: pre" font-family="Roboto" font-size="24" letter-spacing="0em"><tspan x="70.0019" y="1870.46">monteren/installeren</tspan></text>
<text id="tekenen" fill="#414143" xml:space="preserve" style="white-space: pre" font-family="Roboto" font-size="24" letter-spacing="0em"><tspan x="70" y="1744.02">tekenen</tspan></text>
<text id="plannen en werkvoorbereiding" fill="#414143" xml:space="preserve" style="white-space: pre" font-family="Roboto" font-size="24" letter-spacing="0em"><tspan x="70.0019" y="1680.11">plannen en werkvoorbereiding</tspan></text>
<text id="ontwikkelen" fill="#414143" xml:space="preserve" style="white-space: pre" font-family="Roboto" font-size="24" letter-spacing="0em"><tspan x="70.0019" y="1617.79">ontwikkelen</tspan></text>
<text id="directie" fill="#414143" xml:space="preserve" style="white-space: pre" font-family="Roboto" font-size="24" letter-spacing="0em"><tspan x="70.0019" y="1560.11">directie</tspan></text>
<text id="technisch voorbereidend - overig" fill="#414143" xml:space="preserve" style="white-space: pre" font-family="Roboto" font-size="24" letter-spacing="0em"><tspan x="70.0019" y="1808.61">technisch voorbereidend - overig</tspan></text>
<text id="overig" fill="#414143" xml:space="preserve" style="white-space: pre" font-family="Roboto" font-size="24" letter-spacing="0em"><tspan x="70.0019" y="2494.32">overig</tspan></text>
<text id="overig technisch uitvoerend" fill="#414143" xml:space="preserve" style="white-space: pre" font-family="Roboto" font-size="24" letter-spacing="0em"><tspan x="70.0019" y="2430.3">overig technisch uitvoerend</tspan></text>
<text id="staf-overig" fill="#414143" xml:space="preserve" style="white-space: pre" font-family="Roboto" font-size="24" letter-spacing="0em"><tspan x="70.0019" y="2366.73">staf-overig</tspan></text>
<text id="staf-bedrijfsleiding" fill="#414143" xml:space="preserve" style="white-space: pre" font-family="Roboto" font-size="24" letter-spacing="0em"><tspan x="70.0019" y="2305.33">staf-bedrijfsleiding</tspan></text>
<text id="staf-afdelingschef" fill="#414143" xml:space="preserve" style="white-space: pre" font-family="Roboto" font-size="24" letter-spacing="0em"><tspan x="70.0019" y="2242.65">staf-afdelingschef</tspan></text>

</g>

<g id="beroepsbevolking_55plus">
<g id="beroepsbevolking_55plus_2015">
<path id="vlak_2015" d="M1831.62 1319H1098V1363H1831.62V1319Z" fill="#F4F4F4"/>
<path id="vulling_2015" d="M1238.78 1319H1098V1363H1238.78V1319Z" fill="#D9DADB"/>
<text id="beroepsbevolking_2015_ouder_dan_55_jaar" fill="#919494" xml:space="preserve" style="white-space: pre" font-family="Roboto" font-size="25" letter-spacing="0em"><tspan x="1258.61" y="1347.12">1.658.000</tspan></text>
<text id="2015" fill="#3E3F41" xml:space="preserve" style="white-space: pre" font-family="Roboto" font-size="24" letter-spacing="0em"><tspan x="1755" y="1349.2">2015</tspan></text>
</g>
<g id="beroepsbevolking_55plus_2019">
<path id="vlak_2019" d="M1832.8 1225H1098V1295H1832.8V1225Z" fill="#F4F4F4"/>
<path id="vulling_2019" d="M1249.84 1225H1098V1295H1249.84V1225Z" fill="#919494"/>
<text id="beroepsbevolking_2019_ouder_dan_55_jaar" fill="#919494" xml:space="preserve" style="white-space: pre" font-family="Roboto" font-size="32" letter-spacing="0em"><tspan x="1270.5" y="1267.29">1.920.000</tspan></text>
<text id="beroepsbevolking_2019_ouder_dan_55_jaar_percentage" fill="#919494" xml:space="preserve" style="white-space: pre" font-family="Roboto" font-size="32" letter-spacing="0em"><tspan x="1423" y="1267.29">(21%)</tspan></text>
<text id="2019" fill="#3E3F41" xml:space="preserve" style="white-space: pre" font-family="Roboto" font-size="24" letter-spacing="0em"><tspan x="1755" y="1268.2">2019</tspan></text>
</g>
<text id="55+" fill="#414143" xml:space="preserve" style="white-space: pre" font-family="Roboto" font-size="24" letter-spacing="0em"><tspan x="1097.72" y="1206.84">55+</tspan></text>
</g>
<g id="beroepsbevolking_nietwesters">
<g id="beroepsbevolking_nietwesters_2019">
<path id="vlak_2019_2" d="M1829.88 1015H1098V1085H1829.88V1015Z" fill="#F4F4F4"/>
<path id="vulling_2019_2" d="M1171.64 1015H1098V1085H1171.64V1015Z" fill="#074953"/>
<text id="beroepsbevolking_2019_niet_westerse_migratieachtergrond" fill="#074953" xml:space="preserve" style="white-space: pre" font-family="Roboto" font-size="32" letter-spacing="0em"><tspan x="1192.34" y="1057.38">954.000</tspan></text>
<text id="beroepsbevolking_2019_niet_westerse_migratieachtergrond_percentage" fill="#074953" xml:space="preserve" style="white-space: pre" font-family="Roboto" font-size="32" letter-spacing="0em"><tspan x="1322" y="1057.38">(10%)</tspan></text>
<text id="2019_2" fill="#3E3F41" xml:space="preserve" style="white-space: pre" font-family="Roboto" font-size="24" letter-spacing="0em"><tspan x="1757" y="1058.2">2019</tspan></text>
</g>
<g id="beroepsbevolking_nietwesters_2015">
<path id="vlak_2015_2" d="M1831.62 1109H1098V1153H1831.62V1109Z" fill="#F4F4F4"/>
<path id="vulling_2015_2" d="M1170.82 1109H1098V1153H1170.82V1109Z" fill="#D9DADB"/>
<text id="2015_2" fill="#3E3F41" xml:space="preserve" style="white-space: pre" font-family="Roboto" font-size="24" letter-spacing="0em"><tspan x="1757" y="1139.2">2015</tspan></text>
<text id="beroepsbevolking_2015_niet_westerse_migratieachtergrond" fill="#919494" xml:space="preserve" style="white-space: pre" font-family="Roboto" font-size="25" letter-spacing="0em"><tspan x="1192.34" y="1140.12">864.000</tspan></text>
</g>
<text id="niet-westerse migratieachtergrond" fill="#414143" xml:space="preserve" style="white-space: pre" font-family="Roboto" font-size="24" letter-spacing="0em"><tspan x="1099.03" y="994.515">niet-westerse migratieachtergrond</tspan></text>
</g>
<g id="beroepsbevolking_westers">
<g id="beroepsbevolking_westers_2015">
<path id="vlak_2015_3" d="M1831.62 886H1098V930H1831.62V886Z" fill="#F4F4F4"/>
<path id="vulling_2015_3" d="M1179.51 886H1098V930H1179.51V886Z" fill="#D9DADB"/>
<text id="beroepsbevolking_2015_westerse_migratieachtergrond" fill="#919494" xml:space="preserve" style="white-space: pre" font-family="Roboto" font-size="25" letter-spacing="0em"><tspan x="1199.33" y="917.121">946.000</tspan></text>
<text id="2015_3" fill="#3E3F41" xml:space="preserve" style="white-space: pre" font-family="Roboto" font-size="24" letter-spacing="0em"><tspan x="1756" y="916.203">2015</tspan></text>
</g>
<g id="beroepsbevolking_westers_2019">
<path id="vlak_2019_3" d="M1832.83 792H1098.07V862H1832.83V792Z" fill="#F4F4F4"/>
<path id="vulling_2019_3" d="M1186.46 792H1098V862H1186.46V792Z" fill="#258999"/>
<text id="beroepsbevolking_2019_westerse_migratieachtergrond" fill="#258999" xml:space="preserve" style="white-space: pre" font-family="Roboto" font-size="32" letter-spacing="0em"><tspan x="1210.48" y="833.977">1.109.000</tspan></text>
<text id="beroepsbevolking_2019_westerse_migratieachtergrond_percentage" fill="#258999" xml:space="preserve" style="white-space: pre" font-family="Roboto" font-size="32" letter-spacing="0em"><tspan x="1362" y="833.977">(12%)</tspan></text>
<text id="2019_3" fill="#3E3F41" xml:space="preserve" style="white-space: pre" font-family="Roboto" font-size="24" letter-spacing="0em"><tspan x="1756" y="835.203">2019</tspan></text>
</g>
<text id="westerse migratieachtergrond" fill="#414143" xml:space="preserve" style="white-space: pre" font-family="Roboto" font-size="24" letter-spacing="0em"><tspan x="1097.72" y="771.515">westerse migratieachtergrond</tspan></text>
</g>
<g id="beroepsbevolking_vrouwen">
<g id="beroepsbevolking_vrouwen_2015">
<path id="vlak_2015_4" d="M1831.62 666H1098V709H1831.62V666Z" fill="#F4F4F4"/>
<path id="vulling_2015_4" d="M1437.2 666H1098V709H1437.2V666Z" fill="#D9DADB"/>
<text id="beroepsbevolking_2015_vrouwen" fill="#919494" xml:space="preserve" style="white-space: pre" font-family="Roboto" font-size="25" letter-spacing="0em"><tspan x="1457.16" y="698.121">4.129.000</tspan></text>
<text id="2015_4" fill="#3E3F41" xml:space="preserve" style="white-space: pre" font-family="Roboto" font-size="24" letter-spacing="0em"><tspan x="1756" y="696.203">2015</tspan></text>
</g>
<g id="beroepsbevolking_vrouwen_2019">
<path id="vlak_2019_4" d="M1834.38 572H1098V642H1834.38V572Z" fill="#F4F4F4"/>
<path id="vulling_2019_4" d="M1444.08 572H1098V642H1444.08V572Z" fill="#A8D0D6"/>
<text id="beroepsbevolking_2019_vrouwen" fill="#A8D0D6" xml:space="preserve" style="white-space: pre" font-family="Roboto" font-size="32" letter-spacing="0em"><tspan x="1451" y="615.291">4.336.000</tspan></text>
<text id="beroepsbevolking_2019_vrouwen_percentage" fill="#A8D0D6" xml:space="preserve" style="white-space: pre" font-family="Roboto" font-size="32" letter-spacing="0em"><tspan x="1607" y="615.291">(47%)</tspan></text>
<text id="2019_4" fill="#3E3F41" xml:space="preserve" style="white-space: pre" font-family="Roboto" font-size="24" letter-spacing="0em"><tspan x="1755" y="615.203">2019</tspan></text>
</g>
<text id="vrouwen" fill="#414143" xml:space="preserve" style="white-space: pre" font-family="Roboto" font-size="24" letter-spacing="0em"><tspan x="1097.96" y="553.125">vrouwen</tspan></text>
</g>
<g id="omvang_beroepsbevolking">
<g id="beroepsbevolking">
<g id="gebouwen">
<path id="gebouw" d="M1782.77 394.12V371.854H1775.96V396.15L1761.51 400.451V389.12L1723.79 400.449V389.12L1684.96 400.449V469.99H1799.58V389.12L1782.77 394.12ZM1696.04 406.099H1703.51V418.551H1696.04V406.099ZM1696.04 420.484H1703.51V432.927H1696.04V420.484ZM1710.33 468.729H1696.69V444.367H1710.33V468.729ZM1713.27 432.927H1705.8V420.484H1713.27V432.927ZM1713.27 418.551H1705.8V406.099H1713.27V418.551ZM1741.11 432.927H1733.64V420.484H1741.11V432.927ZM1741.11 418.551H1733.64V406.099H1741.11V418.551ZM1750.88 432.927H1743.41V420.484H1750.88V432.927ZM1750.88 418.551H1743.41V406.099H1750.88V418.551ZM1771.26 406.099H1778.73V418.551H1771.26V406.099ZM1771.26 420.484H1778.73V432.927H1771.26V420.484ZM1783.39 468.729H1769.75V444.367H1783.39V468.729ZM1788.49 432.927H1781.02V420.484H1788.49V432.927ZM1788.49 418.551H1781.02V406.099H1788.49V418.551Z" fill="#D9DADB"/>
<path id="gebouw_2" d="M1675.3 349.326H1588.48V470.958H1675.3V349.326Z" fill="#D9DADB"/>
<g id="ramen">
<path d="M1635.58 358.257H1628.44V370.147H1635.58V358.257Z" fill="white"/>
<path d="M1635.28 378.731H1628.15V390.617H1635.28V378.731Z" fill="white"/>
<path d="M1635.28 399.001H1628.15V410.896H1635.28V399.001Z" fill="white"/>
<path d="M1638.38 439.681H1625.05V469.03H1638.38V439.681Z" fill="white"/>
<path d="M1651.05 358.257H1643.92V370.147H1651.05V358.257Z" fill="white"/>
<path d="M1650.76 378.731H1643.62V390.617H1650.76V378.731Z" fill="white"/>
<path d="M1650.76 399.001H1643.62V410.896H1650.76V399.001Z" fill="white"/>
<path d="M1650.76 439.686H1643.62V451.575H1650.76V439.686Z" fill="white"/>
<path d="M1666.53 358.257H1659.4V370.147H1666.53V358.257Z" fill="white"/>
<path d="M1666.23 378.731H1659.1V390.617H1666.23V378.731Z" fill="white"/>
<path d="M1666.23 399.001H1659.1V410.896H1666.23V399.001Z" fill="white"/>
<path d="M1666.23 439.686H1659.1V451.575H1666.23V439.686Z" fill="white"/>
<path d="M1604.39 358.257H1597.26V370.147H1604.39V358.257Z" fill="white"/>
<path d="M1604.09 378.731H1596.96V390.617H1604.09V378.731Z" fill="white"/>
<path d="M1604.09 399.001H1596.96V410.896H1604.09V399.001Z" fill="white"/>
<path d="M1604.09 439.686H1596.96V451.575H1604.09V439.686Z" fill="white"/>
<path d="M1619.87 358.257H1612.73V370.147H1619.87V358.257Z" fill="white"/>
<path d="M1619.57 378.731H1612.44V390.617H1619.57V378.731Z" fill="white"/>
<path d="M1619.57 399.001H1612.44V410.896H1619.57V399.001Z" fill="white"/>
<path d="M1635.28 418.917H1628.15V430.8H1635.28V418.917Z" fill="white"/>
<path d="M1650.76 418.917H1643.62V430.8H1650.76V418.917Z" fill="white"/>
<path d="M1666.23 418.917H1659.1V430.8H1666.23V418.917Z" fill="white"/>
<path d="M1604.09 418.917H1596.96V430.8H1604.09V418.917Z" fill="white"/>
<path d="M1619.57 418.917H1612.44V430.8H1619.57V418.917Z" fill="white"/>
<path d="M1619.57 439.686H1612.44V451.575H1619.57V439.686Z" fill="white"/>
</g>
</g>
<g id="beroepsbevolking_2">
<path fill-rule="evenodd" clip-rule="evenodd" d="M1505.01 460.94C1505.09 462.311 1505.75 462.325 1506.79 462.927C1508.31 463.804 1509.58 464.829 1511.19 465.554C1511.56 465.425 1511.52 465.135 1511.9 464.914C1512.64 465.058 1512.61 465.613 1513.39 465.625C1513.95 465.632 1514.52 464.878 1515.02 465.197C1515.54 465.528 1515.39 468.907 1515.45 469.669C1515.51 470.426 1515.57 471.224 1515.66 471.94C1515.75 472.618 1516.11 473.383 1516.09 473.927C1516.04 475.431 1514.15 476.776 1514.1 477.973C1514.05 479.157 1515.49 480.633 1515.8 481.521C1515.41 483.12 1514.41 484.009 1514.31 486.063C1514.29 486.541 1514.3 487.069 1514.52 487.342C1514.97 487.878 1516.61 487.925 1517.72 487.91C1519.09 487.891 1520.99 487.794 1521.2 486.844C1521.38 485.996 1520.74 485.226 1520.91 484.287C1520.97 483.984 1521.29 483.66 1521.34 483.366C1521.44 482.751 1521.19 482.099 1521.06 481.451C1521.57 480.587 1522.66 480.01 1522.9 478.966C1523.23 477.536 1522.23 476.063 1522.33 474.354C1522.46 472.111 1522.98 469.645 1523.26 467.113C1524.04 459.842 1523.92 451.081 1524.75 444.115C1524.86 451.951 1524.71 459.912 1525.95 466.971C1526.42 469.64 1527.16 472.051 1527.66 474.849C1527.9 476.25 1527.9 477.76 1528.36 478.893C1528.83 480.016 1529.89 480.774 1530.64 481.731C1530.53 482.581 1530.41 484.036 1530.92 484.5C1531.04 485.61 1529.9 486.468 1530.49 487.41C1530.91 488.067 1532.59 487.959 1533.62 487.979C1534.71 488 1536.29 488.059 1536.88 487.625C1537.6 487.101 1537.4 484.854 1537.17 484.075C1537.05 483.66 1536.81 483.173 1536.6 482.728C1536.42 482.348 1536.04 481.85 1536.03 481.45C1536.02 481.132 1536.32 480.643 1536.46 480.101C1536.58 479.624 1536.62 479.084 1536.74 478.681C1536.98 477.912 1537.5 476.444 1537.24 475.133C1537.06 474.21 1536.13 473.608 1535.96 472.932C1536.1 472.339 1536.84 471.968 1536.96 471.373C1537.32 469.43 1535.63 467.304 1535.53 465.623C1535.5 464.952 1535.77 464.151 1535.89 463.42C1536.52 459.662 1535.96 455.273 1535.53 451.567C1535.36 450.057 1534.94 448.563 1534.9 447.167C1534.84 445.588 1535.3 444.142 1535.25 442.697C1536.1 442.723 1537.29 442.668 1537.81 442.339C1538.29 442.089 1538.37 441.443 1538.87 441.206C1539.59 439.379 1539.65 437.316 1539.58 434.675C1540.03 434.131 1540.63 433.736 1541.07 433.184C1541.52 427.011 1541.5 420.066 1541.21 413.525C1541.07 410.182 1541.13 406.421 1540.72 402.735C1540.51 400.875 1540.03 399.163 1539.79 397.551C1539.64 396.521 1539.96 394.822 1539.37 394.072C1539.07 393.697 1538.12 393.466 1537.24 393.152C1536.42 392.855 1535.64 392.542 1535.11 392.301C1533.89 391.741 1532.11 391.063 1530.99 390.453C1529.8 389.809 1529.35 388.96 1528.44 387.898C1528.69 386.733 1528.74 385.36 1528.86 384.063C1529.17 383.976 1529.33 384.165 1529.64 383.923C1530.29 383.419 1530.3 381.682 1530.35 380.514C1530.41 380.152 1529.94 380.309 1529.78 380.158C1529.88 378.533 1529.96 376.993 1529.22 375.83C1528.44 374.616 1526.51 373.529 1525.1 373.347C1524.83 373.309 1524.47 373.313 1524.18 373.347C1522.04 373.591 1519.88 375.423 1519.56 377.745C1519.46 378.507 1519.63 379.158 1519.56 379.946C1519.41 380.001 1518.97 379.889 1518.85 380.158C1519.07 381.455 1519.11 382.929 1519.78 383.779C1519.9 384.062 1520.37 383.802 1520.41 383.851C1520.48 385.323 1520.79 386.548 1520.91 387.967C1519.93 388.823 1519.38 389.799 1518.28 390.382C1517.71 390.689 1516.88 390.854 1516.16 391.234C1514.69 392.001 1513.9 392.465 1512.11 393.151C1511.39 393.427 1510.34 393.666 1509.98 394.003C1509.33 394.609 1509.59 395.946 1509.55 397.125C1509.53 397.958 1509.24 398.809 1509.13 399.68C1509.02 400.544 1509.04 401.407 1508.99 402.305C1508.9 403.695 1508.63 405.152 1508.49 406.566C1508.28 408.564 1508.6 410.576 1508.56 412.669C1508.54 413.595 1508.36 414.489 1508.35 415.436C1508.28 421.232 1507.87 427.443 1508.28 433.113C1508.59 433.505 1509 433.808 1509.34 434.177C1509.61 436.071 1508.4 439.002 1509.77 440.282C1509.06 441.545 1508.49 442.936 1508.13 444.54C1507.49 444.493 1507.24 444.063 1506.5 444.114C1505.89 445.224 1505.88 446.779 1505.79 448.302C1505.6 451.452 1505.23 455.005 1505.08 458.098C1505.05 458.866 1504.97 460.127 1505.01 460.94Z" fill="#414143"/>
<path d="M1554.43 406.539C1556.01 400.039 1556.91 396.575 1557.12 396.155C1557.96 394.372 1558.65 393.112 1559.17 392.375C1560.75 391.539 1562.17 391.016 1563.44 390.806C1564.7 390.597 1565.65 389.966 1566.28 388.917C1566.91 388.287 1567.59 388.077 1568.33 388.287C1569.91 387.866 1570.76 387.605 1570.86 387.498C1571.28 386.872 1571.6 386.453 1571.81 386.239C1571.91 385.506 1572.02 384.512 1572.12 383.252C1571.83 382.73 1571.51 382.228 1571.16 381.756C1570.82 381.285 1570.59 380.84 1570.5 380.419C1570.2 378.954 1570.05 378.268 1570.05 378.371C1570.05 377.218 1570.05 376.85 1570.05 377.269C1569.95 377.063 1569.95 376.065 1570.05 374.282C1570.69 372.817 1571.23 371.819 1571.65 371.291C1572.83 369.928 1574.06 369.35 1575.34 369.56C1577.58 369.877 1579.24 370.297 1580.3 370.82C1581.8 371.664 1582.71 372.662 1583.03 373.82C1583.13 374.136 1583.1 375.448 1582.94 377.762C1582.83 379.339 1582.78 380.235 1582.78 380.445C1582.78 380.655 1582.67 381.388 1582.46 382.647C1582.35 383.384 1581.92 384.229 1581.16 385.171C1580.73 385.698 1580.25 386.538 1579.71 387.695L1580.02 388.325C1581.5 389.17 1582.55 389.799 1583.18 390.219C1585.61 391.479 1587.45 392.375 1588.71 392.897C1590.4 394.371 1591.56 396.317 1592.19 398.735C1593.45 402.626 1594.45 405.463 1595.19 407.25C1595.51 409.041 1595.77 410.353 1595.98 411.192L1596.45 414.188C1596.87 414.715 1597.03 415.084 1596.93 415.294C1596.42 417.188 1596.12 418.658 1596.02 419.707C1594.91 421.811 1594.23 423.255 1593.98 424.044C1593.73 424.832 1593.05 425.806 1591.94 426.963L1590.58 428.857L1589.67 430.587C1589.36 432.062 1589.31 433.219 1589.52 434.058C1589.52 434.898 1589.52 436.53 1589.52 438.948C1589.52 443.679 1589.41 446.52 1589.2 447.463L1587.77 454.872C1587.77 459.5 1587.71 461.604 1587.61 461.18C1588.3 462.551 1588.93 463.652 1589.52 464.492C1589.52 465.019 1589.4 465.889 1589.15 467.097C1588.9 468.305 1588.77 469.068 1588.77 469.381C1588.77 469.698 1588.7 471.249 1588.54 474.035C1588.39 476.82 1588.31 478.423 1588.31 478.843C1588.31 479.58 1588.22 480.472 1588.01 481.521L1586.8 482.309C1586.6 483.681 1586.5 484.52 1586.5 484.833C1586.5 485.047 1586.93 485.677 1587.77 486.727C1589.45 488.723 1590.87 490.301 1592.03 491.458C1592.14 492.092 1592.19 492.825 1592.19 493.665C1591 493.981 1590.02 494.243 1589.27 494.453C1587.97 494.56 1586.67 494.453 1585.37 494.136C1584.51 493.93 1583.86 493.138 1583.42 491.766C1582.67 491.029 1582.02 490.558 1581.48 490.348C1580.28 489.927 1579.37 489.662 1578.72 489.555C1578.4 489.345 1578.34 488.819 1578.55 487.978C1578.66 486.714 1578.66 485.711 1578.55 484.974C1578.66 484.553 1578.66 484.082 1578.55 483.551C1578.55 482.921 1578.55 482.502 1578.55 482.287V477.865C1578.55 477.552 1578.55 476.922 1578.55 475.971C1578.55 475.024 1578.55 474.338 1578.55 473.918C1578.55 470.232 1578.82 467.755 1579.35 466.492C1579.59 464.808 1579.66 463.651 1579.55 463.016C1579.66 462.069 1579.61 460.544 1579.39 458.436C1579.29 458.016 1579.16 457.463 1579 456.778C1578.84 456.092 1578.76 455.539 1578.76 455.12C1578.76 454.7 1578.61 453.252 1578.29 450.775C1577.97 448.302 1577.81 446.854 1577.81 446.429L1577.34 441.06C1576.6 442.739 1576.08 443.995 1575.76 444.831C1575.13 447.244 1574.6 449.236 1574.18 450.805C1573.44 454.16 1572.81 457.096 1572.28 459.606C1571.65 461.179 1571.65 462.542 1572.28 463.695C1572.71 464.325 1572.71 465.37 1572.28 466.835C1572.08 469.458 1571.92 471.712 1571.81 473.598C1571.71 474.12 1571.71 474.802 1571.81 475.637C1572.03 476.584 1572.13 477.372 1572.13 477.998C1572.13 479.991 1572.18 481.093 1572.29 481.298C1572.82 481.821 1572.98 482.554 1572.76 483.497C1572.44 484.654 1572.16 485.464 1571.89 485.935C1571.63 486.407 1571.5 486.904 1571.5 487.427L1571.97 488.841L1571.81 490.885C1570.65 491.412 1569.76 491.673 1569.12 491.673C1567.97 491.463 1567.34 491.514 1567.23 491.827C1567.02 492.565 1566.62 493.271 1566.05 493.953C1565.47 494.634 1564.18 495.131 1562.17 495.444C1560.59 495.551 1559.22 494.973 1558.07 493.713C1558.07 493.293 1558.12 492.929 1558.23 492.612C1558.54 491.772 1558.86 491.039 1559.17 490.409C1559.81 489.676 1560.39 489.128 1560.91 488.76C1561.44 488.391 1562.07 487.894 1562.81 487.264C1563.23 486.947 1563.39 486.527 1563.28 486.004C1563.18 484.745 1563.18 483.592 1563.28 482.542C1563.39 481.6 1563.73 481.154 1564.31 481.205C1564.89 481.257 1565.18 480.862 1565.18 480.023C1564.65 478.978 1564.18 478.399 1563.75 478.296C1563.23 476.616 1562.91 475.357 1562.81 474.516C1562.6 472.841 1562.44 471.688 1562.34 471.054C1562.13 468.329 1562.13 466.336 1562.34 465.076C1562.97 463.923 1563.39 463.294 1563.6 463.186C1563.92 461.721 1564.13 460.513 1564.23 459.57C1564.12 459.78 1563.96 458.31 1563.75 455.165V447.297C1563.75 446.876 1563.75 445.437 1563.75 442.969C1563.75 440.505 1563.75 439.117 1563.75 438.8C1563.75 438.379 1563.75 437.806 1563.75 437.068C1563.44 436.336 1563.28 435.757 1563.28 435.337C1563.28 433.764 1563.36 432.586 1563.51 431.798C1563.67 431.01 1563.75 430.302 1563.75 429.673L1563.13 429.514C1562.73 429.514 1562.11 429.098 1561.3 428.259C1559.06 425.953 1557.63 424.432 1557.02 423.695C1555.89 422.435 1555.03 421.021 1554.42 419.443C1554.01 418.188 1553.8 415.827 1553.8 412.365C1553.8 410.581 1554.01 408.639 1554.43 406.539ZM1587.92 415.628C1588.24 416.155 1588.34 416.734 1588.24 417.368C1588.13 418.002 1588.24 418.632 1588.55 419.262C1588.87 418.739 1589.13 418.315 1589.34 417.998C1589.66 417.158 1589.71 416.734 1589.5 416.734C1589.02 416.734 1588.72 416.447 1588.6 415.865C1588.48 415.287 1588.42 414.575 1588.42 413.731C1588.42 413.525 1588.42 413.209 1588.42 412.784C1588.64 412.467 1588.64 412.206 1588.42 411.996C1588.1 411.576 1587.88 411.049 1587.77 410.414C1587.56 411.786 1587.45 412.625 1587.45 412.943C1587.45 414.206 1587.61 415.101 1587.92 415.628Z" fill="#414143"/>
<path d="M1735.68 408.541C1735.58 407.156 1735.31 405.813 1734.96 404.477C1734.65 403.311 1734.19 402.208 1733.63 401.143C1733.26 400.424 1732.92 399.683 1732.54 398.969C1732.34 398.609 1732.13 398.243 1731.8 397.985C1731.15 397.489 1730.83 396.807 1730.61 396.052C1730.44 395.483 1730.25 394.921 1730.07 394.356C1730.03 394.252 1729.69 393.138 1729.7 392.684C1729.72 391.965 1729.89 391.279 1730.15 390.616C1730.55 389.6 1731.06 388.626 1731.28 387.548C1731.51 387.396 1732.15 387.139 1732.3 387.013C1732.48 386.859 1732.4 386.677 1732.23 386.556C1731.92 386.322 1732.03 385.591 1732 385.226C1731.93 384.308 1731.87 383.392 1731.57 382.497C1731.37 381.903 1731.14 381.323 1730.8 380.819C1730.26 380.02 1729.85 379.098 1729.04 378.528C1728.06 377.84 1727.13 377.448 1725.76 377.239C1725.06 377.133 1724.08 377.203 1723.51 377.349C1722.85 377.519 1722.36 377.874 1721.78 378.409C1721.06 379.219 1720.54 380.136 1720 381.046C1719.72 381.507 1719.59 382.018 1719.44 382.525C1719.31 382.993 1719.09 383.443 1719.14 383.953C1719.15 384.124 1719.02 384.231 1718.88 384.316C1718.37 384.64 1717.95 385.083 1717.52 385.505C1717.15 385.865 1717.2 386.138 1717.65 386.374C1718.05 386.592 1718.46 386.794 1718.93 386.865C1718.99 386.874 1719.29 386.944 1719.62 387.024C1719.63 387.027 1719.63 387.031 1719.63 387.034C1719.71 387.328 1719.54 387.593 1719.39 387.83C1719.04 388.37 1718.67 388.898 1718.31 389.429C1717.97 389.921 1718.01 390.358 1718.46 390.717C1718.7 390.905 1718.75 391.118 1718.63 391.36C1718.45 391.71 1718.49 392.027 1718.69 392.343C1718.83 392.551 1718.86 392.747 1718.72 392.987C1718.56 393.253 1718.59 393.604 1718.82 393.77C1719.24 394.07 1719.25 394.451 1719.25 394.892C1719.25 395.63 1719.42 396.195 1720.43 396.081C1721.02 396.014 1721.61 396.143 1722.19 396.262C1722.41 396.307 1722.69 396.374 1722.65 396.689C1722.55 397.421 1722.4 398.158 1721.79 398.65C1720.61 399.593 1719.65 400.684 1719.15 402.135C1719.08 402.339 1718.98 402.396 1718.78 402.262C1718.58 402.133 1718.42 402.206 1718.3 402.417C1718.19 402.611 1718.11 402.802 1718.07 403.026C1717.93 403.854 1717.71 404.672 1717.44 405.458C1717.08 406.541 1716.76 407.64 1716.34 408.71C1715.7 410.353 1715.23 412.056 1714.79 413.767C1714.62 414.467 1714.49 415.176 1714.34 415.883C1714.24 416.404 1714.15 416.457 1713.65 416.379C1712.6 416.219 1711.56 416.064 1710.52 415.887C1710.23 415.838 1709.96 415.822 1709.68 415.929C1709.47 416.011 1709.27 415.971 1709.1 415.832C1708.75 415.559 1708.39 415.309 1708.08 414.997C1707.77 414.678 1707.47 414.58 1707.02 414.637C1706.49 414.703 1705.95 414.79 1705.49 414.264C1705.17 413.881 1704.62 413.993 1704.27 414.391C1704.16 414.52 1704.01 414.593 1703.88 414.687C1703.5 414.945 1703.08 414.932 1702.66 415.015C1701.48 415.253 1700.28 415.455 1699.08 415.519C1698.56 415.546 1698.05 415.497 1697.55 415.679C1697.33 415.758 1697.09 415.776 1696.86 415.725C1696.51 415.649 1696.19 415.7 1695.89 415.877C1695.72 415.975 1695.54 416.014 1695.38 415.889C1695.13 415.692 1694.82 415.51 1694.74 415.187C1694.57 414.537 1694.23 413.935 1694.16 413.264C1694.04 412.107 1693.75 410.981 1693.53 409.843C1693.2 408.148 1692.84 406.458 1692.51 404.763C1692.36 403.999 1692.13 403.272 1691.84 402.548C1691.52 401.739 1691.07 400.971 1691 400.074C1690.97 399.687 1690.92 399.305 1690.81 398.932C1690.59 398.178 1690.32 397.432 1690.41 396.623C1690.42 396.539 1690.38 396.447 1690.35 396.361C1690.21 395.878 1689.99 395.427 1689.76 394.979C1689.48 394.416 1689.75 393.774 1690.31 393.773C1690.95 393.771 1691.56 393.582 1692.19 393.508C1692.76 393.441 1693.06 393.137 1693.05 392.554C1693.03 391.885 1693.17 391.248 1693.29 390.603C1693.38 390.104 1693.72 389.698 1693.82 389.199C1693.84 389.085 1693.98 389.047 1694.09 389.002C1694.66 388.768 1694.86 388.428 1694.63 387.88C1694.35 387.228 1694.22 386.517 1693.82 385.919C1693.69 385.723 1693.67 385.519 1693.72 385.291C1693.81 384.856 1693.83 384.406 1693.69 383.987C1693.47 383.308 1693.57 382.603 1693.47 381.917C1693.45 381.815 1693.51 381.687 1693.56 381.589C1694.1 380.665 1693.7 379.428 1693.08 378.715C1692.61 378.182 1691.92 377.966 1691.35 377.59C1690.11 376.784 1688.74 376.516 1687.33 376.347C1687.19 376.33 1687.02 376.303 1686.91 376.36C1686.27 376.678 1685.55 376.636 1684.9 376.91C1684.42 377.113 1683.98 377.326 1683.77 377.829C1683.44 378.579 1682.92 379.193 1682.36 379.752C1681.44 380.669 1681.14 381.803 1680.96 383.022C1680.84 383.864 1681.01 384.696 1680.98 385.533C1680.95 386.101 1681.15 386.611 1681.39 387.123C1681.73 387.843 1682.1 388.56 1682.14 389.384C1682.15 389.656 1682.24 389.92 1682.39 390.147C1682.65 390.527 1682.66 391.343 1682.38 391.698C1682.19 391.943 1682.07 392.224 1682.08 392.519C1682.11 393.534 1681.52 394.285 1681.04 395.083C1680.89 395.319 1680.63 395.434 1680.47 395.656C1679.93 396.373 1679.5 397.153 1679.11 397.946C1678.65 398.877 1678.29 399.859 1677.86 400.807C1677.52 401.552 1677.35 402.346 1677.15 403.13C1676.94 403.988 1676.73 404.844 1676.69 405.743C1676.66 406.723 1676.69 407.708 1676.61 408.682C1676.45 410.545 1676.63 412.396 1676.76 414.245C1676.82 415.272 1676.92 416.297 1676.96 417.328C1677.03 419.218 1676.68 421.086 1676.72 422.97C1676.74 424.033 1676.62 425.084 1676.52 426.135C1676.34 428.123 1675.99 430.091 1675.83 432.086C1675.7 433.809 1675.69 435.536 1675.56 437.259C1675.47 438.479 1675.59 439.707 1675.42 440.931C1675.34 441.508 1675.23 442.109 1675.37 442.702C1675.45 443.03 1675.6 443.097 1675.86 442.887C1676.16 442.65 1676.26 442.819 1676.29 443.075C1676.33 443.473 1676.58 443.579 1676.91 443.627C1677.43 443.7 1677.46 443.762 1677.49 444.296C1677.58 446.011 1677.5 447.726 1677.49 449.44C1677.47 451.744 1677.57 454.047 1677.13 456.342C1676.89 457.637 1676.8 458.979 1676.74 460.3C1676.65 462.27 1676.53 464.24 1676.48 466.212C1676.46 467.362 1676.61 468.504 1676.64 469.651C1676.67 471.293 1676.4 472.916 1676.27 474.545C1676.13 476.138 1676.05 477.737 1675.98 479.327C1675.86 482.096 1675.96 484.875 1675.77 487.643C1675.7 488.635 1675.77 489.63 1675.65 490.618C1675.62 490.832 1675.7 491.028 1675.89 491.104C1676.2 491.23 1676.26 491.457 1676.25 491.751C1676.24 491.995 1676.27 492.24 1676.29 492.485C1676.33 493.152 1676.43 493.354 1677.09 493.437C1678.18 493.574 1679.26 493.76 1680.37 493.67C1680.54 493.656 1680.72 493.598 1680.9 493.634C1682.14 493.877 1683.39 494.037 1684.65 494.183C1685.51 494.283 1686.37 494.319 1687.23 494.318C1687.66 494.279 1688.1 494.236 1688.54 494.186C1689.39 494.005 1690.24 493.798 1691.08 493.551C1691.23 493.478 1691.38 493.413 1691.54 493.35C1692.59 492.94 1692.45 492.995 1692.45 492.054C1692.45 492.002 1692.45 491.951 1692.45 491.899C1692.49 491.105 1691.93 490.946 1691.17 490.753C1690.8 490.659 1690.99 490.451 1690.92 490.065C1690.86 489.692 1690.98 489.343 1691.31 489.161C1691.68 488.956 1691.74 488.655 1691.75 488.289C1691.75 487.927 1691.57 487.663 1691.41 487.357C1690.54 486.889 1688.11 486.396 1687.99 486.242C1687.98 486.238 1687.98 486.234 1687.98 486.231C1687.97 486.222 1687.95 486.2 1687.95 486.2C1687.94 486.193 1687.93 486.184 1687.93 486.176C1687.87 486.124 1687.53 485.984 1687.44 486.009C1687.28 486.052 1687.15 485.937 1687.02 485.843C1686.34 485.344 1685.86 484.639 1685.25 484.059C1684.9 483.721 1684.93 483.58 1685.3 483.25C1685.58 483.007 1685.87 482.787 1685.94 482.363C1686.05 481.535 1686.19 480.709 1686.37 479.891C1686.65 478.566 1686.84 477.226 1687.09 475.897C1687.38 474.379 1687.68 472.863 1687.99 471.348C1688.19 470.35 1688.45 469.362 1688.62 468.359C1688.76 467.481 1689.01 466.626 1689.17 465.752C1689.29 465.068 1689.48 464.398 1689.64 463.719C1689.87 462.703 1690.09 461.684 1690.32 460.668C1690.61 459.399 1690.94 458.138 1691.18 456.861C1691.69 454.242 1692.28 451.639 1692.57 448.98C1692.71 447.65 1692.95 446.329 1693.15 445.005C1693.19 444.712 1693.25 444.421 1693.31 444.13C1693.35 443.908 1693.49 443.79 1693.72 443.807C1694.51 443.866 1695.28 443.662 1696.07 443.627C1696.62 443.602 1697.06 443.202 1697.14 442.677C1697.19 442.344 1697.17 442.009 1697.13 441.673C1697.01 440.6 1696.86 439.528 1696.79 438.451C1696.74 437.64 1696.65 436.833 1696.56 436.027C1696.43 434.849 1696.29 433.674 1696.21 432.49C1696.16 431.738 1696.25 430.996 1696.23 430.25C1696.14 427.979 1696.16 425.708 1696.15 423.436C1696.15 423.053 1696.27 422.864 1696.67 422.772C1697.54 422.574 1698.4 422.358 1699.23 422.017C1699.6 421.862 1699.97 421.847 1700.36 421.914C1701.5 422.11 1702.64 422.027 1703.78 421.9C1704.04 421.871 1704.27 421.875 1704.42 422.129C1704.6 422.415 1704.9 422.494 1705.2 422.483C1705.86 422.458 1706.51 422.243 1707.07 421.951C1707.48 421.744 1707.88 421.573 1708.3 421.441C1708.88 421.263 1708.97 421.319 1709.01 421.936C1709.03 422.348 1709 422.763 1709.03 423.175C1709.05 423.627 1709.31 423.821 1709.75 423.766C1709.91 423.745 1710.08 423.744 1710.25 423.732C1711.64 423.63 1712.98 424.015 1714.35 424.16C1715.06 424.235 1715.16 424.388 1715.22 425.122C1715.28 425.762 1715.36 426.4 1715.42 427.041C1715.47 427.521 1715.36 427.881 1715.03 428.232C1714.48 428.824 1713.8 429.285 1713.36 429.991C1713 430.56 1712.74 431.14 1712.86 431.791C1712.97 432.401 1713.01 432.927 1712.53 433.414C1712.2 433.75 1711.97 434.19 1711.5 434.378C1711.06 434.558 1710.89 434.907 1710.88 435.354C1710.86 436.065 1710.91 436.772 1711.06 437.469C1711.2 438.135 1711.38 438.796 1711.48 439.469C1711.66 440.721 1711.94 441.948 1712.26 443.169C1712.29 443.294 1712.31 443.432 1712.48 443.447C1712.71 443.467 1712.72 443.643 1712.73 443.813C1712.79 444.675 1712.86 445.537 1712.88 446.4C1712.92 447.999 1712.83 449.601 1712.97 451.198C1713.05 452.073 1713 452.954 1713.08 453.827C1713.2 455.177 1713.29 456.527 1713.28 457.882C1713.27 458.952 1713.17 460.026 1713.23 461.091C1713.32 462.61 1713.36 464.134 1713.39 465.649C1713.51 470.316 1713.41 474.987 1713.51 479.656C1713.54 481.061 1713.38 482.463 1713.5 483.872C1713.61 485.251 1713.31 486.62 1713.33 488.003C1713.34 488.509 1713.33 489.037 1713.19 489.541C1713.1 489.898 1712.78 490.019 1712.57 489.744C1712.38 489.491 1712.32 489.644 1712.21 489.775C1712.06 489.965 1711.96 490.193 1711.75 490.344C1710.72 491.089 1709.56 491.503 1708.32 491.712C1708.18 491.735 1708.03 491.754 1707.9 491.728C1707.39 491.63 1706.89 491.727 1706.41 491.848C1705.51 492.072 1705.12 493.135 1705.64 493.89C1705.81 494.144 1706.08 494.275 1706.34 494.41C1706.75 494.62 1707.21 494.635 1707.65 494.741C1708.47 494.943 1709.31 495.091 1710.15 495.228C1711.9 495.514 1713.67 495.469 1715.43 495.53C1716.98 495.584 1718.51 495.825 1720.04 495.975C1720.76 496.046 1721.46 495.913 1722.16 495.88C1722.34 495.872 1722.47 495.778 1722.5 495.572C1722.59 494.94 1722.75 494.322 1722.66 493.666C1722.6 493.177 1722.79 493.059 1723.22 493.286C1723.47 493.421 1723.71 493.45 1723.99 493.408C1724.4 493.349 1724.8 493.394 1725.16 493.598C1725.42 493.747 1725.7 493.845 1725.99 493.899C1726.4 493.975 1726.79 494.102 1727.18 494.259C1727.88 494.549 1728.61 494.781 1729.38 494.777C1729.49 494.776 1729.6 494.791 1729.69 494.835C1730.25 495.123 1730.88 495.149 1731.49 495.264C1732.34 495.426 1733.2 495.459 1734.06 495.3C1734.51 495.217 1734.89 494.88 1734.89 494.501C1734.89 493.996 1734.96 493.497 1734.97 492.995C1735.01 491.801 1734.67 490.675 1734.3 489.56C1734.22 489.307 1734.17 489.059 1734.21 488.802C1734.34 488 1734.48 487.199 1734.66 486.407C1734.76 485.981 1734.93 485.544 1734.86 485.112C1734.6 483.407 1734.63 481.686 1734.61 479.976C1734.58 477.098 1734.51 474.22 1734.5 471.342C1734.5 470.504 1734.49 469.663 1734.41 468.829C1734.35 468.119 1734.36 467.411 1734.34 466.702C1734.3 464.935 1734.05 463.182 1734.05 461.414C1734.05 460.33 1734.04 459.238 1733.93 458.168C1733.76 456.44 1733.43 454.726 1733.13 453.012C1732.93 451.882 1732.64 450.767 1732.73 449.605C1732.74 449.453 1732.71 449.297 1732.69 449.144C1732.59 448.314 1732.41 447.49 1732.56 446.643C1732.61 446.355 1732.58 446.052 1732.53 445.756C1732.47 445.436 1732.46 445.11 1732.54 444.793C1732.76 443.853 1732.95 442.906 1733.24 441.982C1733.55 440.961 1733.9 439.94 1734.03 438.878C1734.13 438.042 1734.24 437.206 1734.47 436.409C1734.96 434.787 1734.88 433.152 1734.78 431.501C1734.74 430.763 1734.48 430.048 1734.52 429.317C1734.57 428.26 1734.32 427.302 1733.79 426.404C1733.56 426.011 1733.56 425.611 1733.64 425.173C1733.81 424.236 1734.05 423.311 1734.14 422.357C1734.19 421.781 1734.28 421.202 1734.42 420.642C1734.84 418.997 1735.3 417.366 1735.49 415.666C1735.66 414.178 1735.72 412.686 1735.82 411.194C1735.87 410.312 1735.75 409.428 1735.68 408.541ZM1724.69 489.508C1724.38 489.707 1723.59 489.969 1723.2 489.968C1722.84 489.87 1722.35 489.827 1721.87 489.785C1721.59 489.761 1721.36 489.547 1721.31 489.222C1721.24 488.817 1721.26 488.439 1721.47 488.065C1721.7 487.663 1721.78 487.207 1721.71 486.753C1721.62 486.116 1721.66 485.471 1721.52 484.833C1721.42 484.363 1721.49 483.861 1721.54 483.37C1721.75 481.361 1722 479.357 1722.09 477.336C1722.13 476.466 1722.31 475.598 1722.47 474.737C1722.72 473.347 1723.02 471.964 1723.3 470.578C1723.33 470.452 1723.35 470.324 1723.38 470.2C1723.41 470.105 1723.44 469.973 1723.57 469.995C1723.68 470.013 1723.65 470.138 1723.66 470.223C1723.86 471.91 1724.09 473.594 1724.25 475.284C1724.41 476.821 1724.61 478.352 1724.69 479.899C1724.74 481.092 1724.92 482.279 1725.03 483.471C1725.08 484.035 1725.06 484.608 1725.14 485.167C1725.26 486.009 1725.24 486.865 1725.44 487.697C1725.67 488.689 1725.56 488.954 1724.69 489.508Z" fill="#414143"/>
<path d="M1819.11 379.191C1820.25 380.648 1820.82 382.339 1820.82 384.266C1820.82 384.893 1820.69 385.386 1820.42 385.745C1821.54 386.955 1822.35 388.545 1822.84 390.517L1822.97 390.651C1823.06 390.964 1823.09 391.503 1823.04 392.264C1823.76 393.474 1824.12 394.191 1824.12 394.414C1824.12 394.593 1824.07 394.728 1823.98 394.818V395.422L1824.25 395.758C1825.06 396.43 1825.93 396.766 1826.87 396.766C1827.99 396.766 1828.87 397.527 1829.49 399.051C1831.33 405.279 1832.52 410.006 1833.06 413.233C1833.1 413.636 1833.32 414.398 1833.73 415.518C1834.04 416.46 1834.2 417.221 1834.2 417.804C1834.2 420.09 1833.55 421.231 1832.25 421.231C1830.46 421.231 1828.15 420.335 1825.33 418.543L1824.72 419.148C1825.75 420.448 1826.4 421.365 1826.67 421.904C1827.57 424.816 1828.28 427.392 1828.82 429.633C1829.31 430.305 1829.54 430.865 1829.49 431.313C1829.13 431.582 1828.84 431.761 1828.62 431.851C1828.84 432.387 1829.02 432.791 1829.16 433.06C1829.16 433.239 1829.07 433.486 1828.89 433.799C1828.71 434.113 1828.62 434.359 1828.62 434.539C1828.62 436.018 1828.28 438.168 1827.61 440.991C1826.94 443.949 1826.56 446.121 1826.47 447.511C1826.47 447.869 1826.38 448.417 1826.2 449.158C1826.02 449.898 1825.93 450.446 1825.93 450.804C1825.93 452.507 1825.8 453.493 1825.53 453.761V455.643C1825.53 456.136 1825.6 456.809 1825.73 457.66C1825.86 458.511 1825.93 459.139 1825.93 459.542C1825.93 461.603 1825.78 463.418 1825.46 464.986L1825.8 464.918L1826.2 465.053C1825.53 469.04 1824.34 472.693 1822.64 476.008C1822.73 476.277 1822.35 477.196 1821.5 478.764C1821.32 480.287 1821.21 481.094 1821.16 481.184C1821.12 481.273 1820.91 481.508 1820.56 481.889C1820.2 482.269 1820.02 482.617 1820.02 482.93C1820.02 483.513 1820.15 484.005 1820.42 484.409C1819.97 485.082 1819.75 485.619 1819.75 486.022C1819.75 486.336 1820.07 487.208 1820.72 488.643C1821.37 490.078 1821.7 491.152 1821.7 491.869C1821.7 492.497 1820.51 492.811 1818.14 492.811C1816.03 492.811 1814.98 491.914 1814.98 490.122C1814.98 489.629 1815.08 488.856 1815.28 487.804C1815.48 486.751 1815.58 486.046 1815.58 485.687V484.141C1815.18 484.5 1814.89 484.835 1814.71 485.149C1814.93 485.507 1815.05 485.843 1815.05 486.157C1815.05 486.426 1814.93 486.83 1814.71 487.367C1814.48 487.906 1814.37 488.331 1814.37 488.644C1814.37 487.972 1814.4 488.689 1814.44 490.794L1814.04 491.063C1814.04 492.049 1813.48 492.542 1812.36 492.542C1809.44 492.542 1808.03 492.026 1808.12 490.996V490.794C1808.21 490.749 1808.28 490.683 1808.32 490.592C1809.44 488.083 1810.09 486.022 1810.27 484.409C1810.59 483.962 1810.74 483.625 1810.74 483.401C1810.74 483.266 1810.59 482.953 1810.27 482.459C1810.45 482.011 1810.61 481.676 1810.74 481.451C1810.74 481.138 1810.63 480.644 1810.41 479.973C1810.18 479.3 1810.07 478.784 1810.07 478.426C1810.07 478.248 1810.15 477.957 1810.31 477.553C1810.46 477.15 1810.54 476.836 1810.54 476.611C1810.54 476.343 1810.45 475.928 1810.27 475.368C1810.09 474.808 1810 474.392 1810 474.123L1810.14 464.85L1810.54 464.648L1810.74 464.379L1810.81 463.908C1810.77 463.64 1810.79 463.337 1810.88 463.001C1810.97 462.665 1811.01 462.407 1811.01 462.228C1811.01 461.915 1810.95 461.579 1810.81 461.22C1811.04 460.189 1811.15 459.786 1811.15 460.01V459.674L1811.35 459.137C1811.44 459.047 1811.5 458.913 1811.55 458.733L1811.48 458.128C1811.71 458.039 1811.86 457.815 1811.95 457.456C1811.5 455.663 1811.28 454.544 1811.28 454.095C1810.34 452.795 1809.58 449.883 1809 445.357C1808.28 439.981 1807.79 436.866 1807.52 436.016L1806.71 435.814C1806.53 435.59 1806.44 432.611 1806.44 426.875C1806.44 424.187 1806.78 422.417 1807.45 421.565C1807.23 421.072 1807.25 420.334 1807.52 419.347C1807.92 418.137 1808.12 417.353 1808.12 416.995C1808.12 416.771 1808.08 416.368 1807.99 415.786C1806.51 417.309 1805.46 418.071 1804.83 418.071C1804.07 418.071 1803.35 417.466 1802.68 416.257C1802.05 415.226 1801.74 414.307 1801.74 413.5C1801.74 412.872 1802.01 411.91 1802.54 410.61C1803.17 409.132 1803.53 408.101 1803.62 407.518C1803.93 405.86 1804.2 403.956 1804.43 401.806C1804.56 400.283 1804.69 398.737 1804.83 397.168C1805.19 395.645 1806.17 394.592 1807.78 394.009C1808.99 394.009 1809.85 393.852 1810.34 393.538C1811.15 392.06 1811.77 391.029 1812.22 390.447C1810.92 388.296 1810.27 387.064 1810.27 386.751L1810.34 386.079L1810.2 385.81C1810.03 385.72 1809.91 385.653 1809.87 385.608C1809.91 385.429 1809.91 385.317 1809.87 385.272C1809.47 384.51 1809.26 383.368 1809.26 381.845C1809.26 380.142 1810.41 378.664 1812.69 377.409C1813.41 377.454 1813.9 377.387 1814.17 377.207H1814.64C1816.48 377.074 1817.97 377.734 1819.11 379.191Z" fill="#414143"/>
</g>
</g>
<text id="Omvang Beroepsbevolking NL" fill="#414042" xml:space="preserve" style="white-space: pre" font-family="Roboto" font-size="31" font-weight="500" letter-spacing="0em"><tspan x="1105.59" y="333.293">Omvang Beroepsbevolking NL</tspan></text>
</g>
<g id="werknemers_55plus" onClick="ververs('leeftijd')" style="cursor: pointer;">>
<g id="ontwikkeling_55plus">
<g id="ontwkkeling_55plus">
<path d="M898.496 1244.8C896.95 1244.63 895.654 1244.59 894.404 1244.32C893.155 1244.06 892.247 1243.24 892.196 1241.89C892.139 1240.38 893.006 1239.35 894.447 1239.14C898.434 1238.56 902.458 1238.59 906.464 1238.88C908.144 1239 908.866 1240.34 908.946 1241.88C909.112 1245.06 909.244 1248.24 909.216 1251.43C909.201 1253.15 908.699 1254.89 906.454 1254.78C904.468 1254.68 904.135 1253.12 904.014 1251.47C903.948 1250.57 904.29 1249.58 903.511 1248.76C902.225 1249.01 901.601 1250.11 900.792 1250.91C887.535 1264.06 874.301 1277.23 861.064 1290.4C857.064 1294.38 856.455 1294.39 852.531 1290.47C850.189 1288.14 847.801 1285.84 845.536 1283.43C843.406 1281.17 841.539 1281.04 839.263 1283.36C829.334 1293.48 819.312 1303.51 809.323 1313.57C808.823 1314.07 808.33 1314.58 807.814 1315.07C806.394 1316.4 804.776 1317.24 803.177 1315.57C801.676 1314.01 802.619 1312.53 803.882 1311.26C815.818 1299.3 827.757 1287.34 839.698 1275.39C841.557 1273.52 843.325 1273.58 845.204 1275.48C848.277 1278.58 851.46 1281.57 854.584 1284.63C856.133 1286.14 857.516 1286.19 859.135 1284.58C872.105 1271.65 885.123 1258.77 898.117 1245.86C898.26 1245.72 898.273 1245.44 898.496 1244.8Z" fill="#919494"/>
<path d="M850.599 1239.38H864.647V1246.93H850.599V1260.98H843.043V1246.93H828.995V1239.38H843.043V1225.33H850.599V1239.38Z" fill="#919494"/>
</g>
<text id="percentage_ontwikkeling_55plus" fill="#919494" xml:space="preserve" style="white-space: pre" font-family="Roboto" font-size="39" letter-spacing="0em"><tspan x="829.022" y="1332.93">38%</tspan></text>
</g>
<g id="werknemers_55plus_2015">
<path id="vlak 2014 3" d="M789 1319H54V1363H789V1319Z" fill="#F4F4F4"/>
<path id="vulling 2014 3" d="M164.063 1319H54V1363H164.063V1319Z" fill="#D9DADB"/>
<text id="2015_5" fill="#3E3F41" xml:space="preserve" style="white-space: pre" font-family="Roboto" font-size="24" letter-spacing="0em"><tspan x="712" y="1349.2">2015</tspan></text>
<text id="werknemers_2015_ouder_dan_55_jaar" fill="#919494" xml:space="preserve" style="white-space: pre" font-family="Roboto" font-size="25" letter-spacing="0em"><tspan x="178.268" y="1347.12">17.810</tspan></text>
</g>
<g id="werknemers_55plus_2019">
<path id="vlak 2019 3" d="M789 1225H54V1295H789V1225Z" fill="#F4F4F4"/>
<path id="vulling 2119" d="M186.105 1225H54V1295H186.105V1225Z" fill="#919494"/>
<text id="2019_5" fill="#3E3F41" xml:space="preserve" style="white-space: pre" font-family="Roboto" font-size="24" letter-spacing="0em"><tspan x="712" y="1268.2">2019</tspan></text>
<text id="werknemers_2019_ouder_dan_55_jaar" fill="#919494" xml:space="preserve" style="white-space: pre" font-family="Roboto" font-size="39" letter-spacing="0em"><tspan x="202.022" y="1268.93">24.560</tspan></text>
<text id="werknemers_2019_ouder_dan_55_jaar_percentage" fill="#919494" xml:space="preserve" style="white-space: pre" font-family="Roboto" font-size="39" letter-spacing="0em"><tspan x="338" y="1269.33">(18%)</tspan></text>
</g>
<text id="55+_2" fill="#414143" xml:space="preserve" style="white-space: pre" font-family="Roboto" font-size="24" letter-spacing="0em"><tspan x="53.7515" y="1206.84">55+</tspan></text>
</g>
<g id="werknemers_nietwesters" onClick="ververs('afkomst')" style="cursor: pointer;">
<g id="ontwikkeling_nietwesters">
<g id="omtwikkeling_nietwesters">
<path d="M898.496 1036.8C896.95 1036.63 895.654 1036.59 894.404 1036.32C893.155 1036.06 892.247 1035.24 892.196 1033.89C892.139 1032.38 893.006 1031.35 894.447 1031.14C898.434 1030.56 902.458 1030.59 906.464 1030.88C908.144 1031 908.866 1032.34 908.946 1033.88C909.112 1037.06 909.244 1040.24 909.216 1043.43C909.201 1045.15 908.699 1046.89 906.454 1046.78C904.468 1046.68 904.135 1045.12 904.014 1043.47C903.948 1042.57 904.29 1041.58 903.511 1040.76C902.225 1041.01 901.601 1042.11 900.792 1042.91C887.535 1056.06 874.301 1069.23 861.064 1082.4C857.064 1086.38 856.455 1086.39 852.531 1082.47C850.189 1080.14 847.801 1077.84 845.536 1075.43C843.406 1073.17 841.539 1073.04 839.263 1075.36C829.334 1085.48 819.312 1095.51 809.323 1105.57C808.823 1106.07 808.33 1106.58 807.814 1107.07C806.394 1108.4 804.776 1109.24 803.177 1107.57C801.676 1106.01 802.619 1104.52 803.882 1103.26C815.818 1091.3 827.757 1079.34 839.698 1067.38C841.557 1065.52 843.325 1065.58 845.204 1067.48C848.277 1070.58 851.46 1073.57 854.584 1076.63C856.133 1078.14 857.516 1078.19 859.135 1076.58C872.105 1063.65 885.123 1050.77 898.117 1037.86C898.26 1037.72 898.273 1037.44 898.496 1036.8Z" fill="#074953"/>
<path d="M850.599 1031.38H864.647V1038.93H850.599V1052.98H843.043V1038.93H828.995V1031.38H843.043V1017.33H850.599V1031.38Z" fill="#074953"/>
</g>
<text id="percentage_ontwikkeling_nietwesters" fill="#074953" xml:space="preserve" style="white-space: pre" font-family="Roboto" font-size="39" letter-spacing="0em"><tspan x="829.022" y="1124.93">43%</tspan></text>
</g>
<g id="werknemers_nietwesters_2015">
<path id="vlak_2015_5" d="M789 1109H54V1153H789V1109Z" fill="#F4F4F4"/>
<path id="vulling_2015_5" d="M98.01 1109H54V1153H98.01V1109Z" fill="#D9DADB"/>
<text id="2015_6" fill="#3E3F41" xml:space="preserve" style="white-space: pre" font-family="Roboto" font-size="24" letter-spacing="0em"><tspan x="712" y="1139.2">2015</tspan></text>
<text id="werknemers_2015_niet_westerse_migratieachtergrond" fill="#919494" xml:space="preserve" style="white-space: pre" font-family="Roboto" font-size="25" letter-spacing="0em"><tspan x="115.268" y="1140.12">6.680</tspan></text>
</g>
<g id="werknemers_nietwesters_2019">
<path id="vlak_2019_5" d="M789 1015H54V1085H789V1015Z" fill="#F4F4F4"/>
<path id="vulling_2019_5" d="M105.358 1015H54V1085H105.358V1015Z" fill="#074953"/>
<text id="2019_6" fill="#3E3F41" xml:space="preserve" style="white-space: pre" font-family="Roboto" font-size="24" letter-spacing="0em"><tspan x="712" y="1061.2">2019</tspan></text>
<text id="werknemers_2019_niet_westerse_migratieachtergrond" fill="#074953" xml:space="preserve" style="white-space: pre" font-family="Roboto" font-size="39" letter-spacing="0em"><tspan x="122.022" y="1061.93">9.580</tspan></text>
<text id="werknemers_2019_niet_westerse_migratieachtergrond_percentage" fill="#074953" xml:space="preserve" style="white-space: pre" font-family="Roboto" font-size="39" letter-spacing="0em"><tspan x="237" y="1063.33">(7%)</tspan></text>
</g>
<text id="niet-westerse migratieachtergrond_2" fill="#414143" xml:space="preserve" style="white-space: pre" font-family="Roboto" font-size="24" letter-spacing="0em"><tspan x="53.7534" y="994.515">niet-westerse migratieachtergrond</tspan></text>
</g>
<g id="werknemers-westers" onClick="ververs('afkomst')" style="cursor: pointer;">
<g id="ontwikkeling_westers">
<g id="ontwikkeling_westers_2">
<path d="M898.496 813.802C896.95 813.631 895.654 813.586 894.404 813.322C893.155 813.059 892.247 812.237 892.196 810.887C892.139 809.383 893.006 808.355 894.447 808.143C898.434 807.557 902.458 807.592 906.464 807.883C908.144 808.005 908.866 809.341 908.946 810.876C909.112 814.056 909.244 817.244 909.216 820.427C909.201 822.153 908.699 823.89 906.454 823.776C904.468 823.676 904.135 822.123 904.014 820.472C903.948 819.575 904.29 818.576 903.511 817.762C902.225 818.012 901.601 819.111 900.792 819.913C887.535 833.059 874.301 846.229 861.064 859.396C857.064 863.376 856.455 863.389 852.531 859.473C850.189 857.136 847.801 854.842 845.536 852.432C843.406 850.166 841.539 850.042 839.263 852.362C829.334 862.482 819.312 872.509 809.323 882.57C808.823 883.073 808.33 883.583 807.814 884.068C806.394 885.404 804.776 886.239 803.177 884.572C801.676 883.008 802.619 881.525 803.882 880.26C815.818 868.299 827.757 856.341 839.698 844.385C841.557 842.524 843.325 842.58 845.204 844.477C848.277 847.58 851.46 850.573 854.584 853.627C856.133 855.141 857.516 855.193 859.135 853.578C872.105 840.648 885.123 827.767 898.117 814.861C898.26 814.72 898.273 814.444 898.496 813.802Z" fill="#074953"/>
<path d="M850.599 808.379H864.647V815.93H850.599V829.983H843.043V815.93H828.995V808.379H843.043V794.326H850.599V808.379Z" fill="#074953"/>
</g>
<text id="percentage_ontwikkeling_westers" fill="#074953" xml:space="preserve" style="white-space: pre" font-family="Roboto" font-size="39" letter-spacing="0em"><tspan x="829.022" y="901.933">16%</tspan></text>
</g>
<g id="werknemers_westers_2015">
<path id="vlak_2015_6" d="M789 886H54V930H789V886Z" fill="#F4F4F4"/>
<path id="vulling_2015_6" d="M98.01 886H54V930H98.01V886Z" fill="#D9DADB"/>
<text id="werknemers_2015_westerse_migratieachtergrond" fill="#919494" xml:space="preserve" style="white-space: pre" font-family="Roboto" font-size="25" letter-spacing="0em"><tspan x="115.268" y="917.121">6.890</tspan></text>
<text id="2015_7" fill="#3E3F41" xml:space="preserve" style="white-space: pre" font-family="Roboto" font-size="24" letter-spacing="0em"><tspan x="712" y="916.203">2015</tspan></text>
</g>
<g id="werknemers_westers_2019">
<path id="vlak_2019_6" d="M789 792H54V862H789V792Z" fill="#F4F4F4"/>
<path id="vulling_2019_6" d="M98.01 792H54V862H98.01V792Z" fill="#258999"/>
<text id="werknemers_2019_westerse_migratieachtergrond" fill="#258999" xml:space="preserve" style="white-space: pre" font-family="Roboto" font-size="39" letter-spacing="0em"><tspan x="122.022" y="838.933">7.970</tspan></text>
<text id="percentage_werknemers_westers_2019" fill="#258999" xml:space="preserve" style="white-space: pre" font-family="Roboto" font-size="39" letter-spacing="0em"><tspan x="232" y="838.933">(6%)</tspan></text>
<text id="2019_7" fill="#3E3F41" xml:space="preserve" style="white-space: pre" font-family="Roboto" font-size="24" letter-spacing="0em"><tspan x="712" y="837.203">2019</tspan></text>
</g>
<text id="westerse migratieachtergrond_2" fill="#414143" xml:space="preserve" style="white-space: pre" font-family="Roboto" font-size="24" letter-spacing="0em"><tspan x="53.7534" y="771.515">westerse migratieachtergrond</tspan></text>
</g>
<g id="werknemers_vrouwen" onClick="ververs('geslacht')" style=" cursor: pointer;">
<g id="ontwikkeling_vrouwen">
<g id="ontwikkeling_vrouwen_2">
<path d="M898.496 604.802C896.95 604.631 895.654 604.586 894.404 604.322C893.155 604.059 892.247 603.237 892.196 601.887C892.139 600.383 893.006 599.355 894.447 599.143C898.434 598.557 902.458 598.592 906.464 598.883C908.144 599.005 908.866 600.341 908.946 601.876C909.112 605.056 909.244 608.244 909.216 611.427C909.201 613.153 908.699 614.89 906.454 614.776C904.468 614.676 904.135 613.123 904.014 611.472C903.948 610.575 904.29 609.576 903.511 608.762C902.225 609.011 901.601 610.111 900.792 610.913C887.535 624.06 874.301 637.229 861.064 650.396C857.064 654.376 856.455 654.389 852.531 650.473C850.189 648.136 847.801 645.842 845.536 643.432C843.406 641.166 841.539 641.042 839.263 643.362C829.334 653.482 819.312 663.509 809.323 673.57C808.823 674.073 808.33 674.583 807.814 675.068C806.394 676.404 804.776 677.239 803.177 675.572C801.676 674.008 802.619 672.525 803.882 671.26C815.818 659.299 827.757 647.341 839.698 635.385C841.557 633.524 843.325 633.58 845.204 635.477C848.277 638.58 851.46 641.573 854.584 644.627C856.133 646.141 857.516 646.193 859.135 644.578C872.105 631.648 885.123 618.767 898.117 605.861C898.26 605.72 898.273 605.444 898.496 604.802Z" fill="#2E8C9D"/>
<path d="M850.599 599.379H864.647V606.93H850.599V620.983H843.043V606.93H828.995V599.379H843.043V585.326H850.599V599.379Z" fill="#2E8C9D"/>
</g>
<text id="percentage_ontwikkeling_vrouwen" fill="#258999" xml:space="preserve" style="white-space: pre" font-family="Roboto" font-size="39" letter-spacing="0em"><tspan x="829.022" y="692.933">19%</tspan></text>
</g>
<g id="werknemers_vrouwen_2015">
<path id="vlak_2015_7" d="M789 666H54V710H789V666Z" fill="#F4F4F4"/>
<path id="vulling_2015_7" d="M127.4 666H54V710H127.4V666Z" fill="#D9DADB"/>
<text id="werknemers_2015_vrouwen" fill="#919494" xml:space="preserve" style="white-space: pre" font-family="Roboto" font-size="25" letter-spacing="0em"><tspan x="146.268" y="698.121">12.060</tspan></text>
<text id="2015_8" fill="#3E3F41" xml:space="preserve" style="white-space: pre" font-family="Roboto" font-size="24" letter-spacing="0em"><tspan x="712" y="695.203">2015</tspan></text>
</g>
<g id="werknemers_vrouwen_2019">
<path id="vlak_2019_7" d="M789 572H54V642H789V572Z" fill="#F4F4F4"/>
<text id="2019_8" fill="#3E3F41" xml:space="preserve" style="white-space: pre" font-family="Roboto" font-size="24" letter-spacing="0em"><tspan x="712" y="618.203">2019</tspan></text>
</g>
<text id="vrouwen_2" fill="#414143" xml:space="preserve" style="white-space: pre" font-family="Roboto" font-size="24" letter-spacing="0em"><tspan x="53.7524" y="553.124">vrouwen</tspan></text>
</g>
<g id="aantal_werknemers">
<g id="werknemers">
<g id="gebouwtje">
<path d="M820.05 416.548C819.645 415.848 818.749 415.611 818.049 416.016L807.842 421.901C807.645 422.015 807.489 422.17 807.368 422.347L800.021 409.676L809.976 403.938C810.675 403.532 810.913 402.636 810.507 401.936C810.102 401.236 809.205 400.999 808.507 401.404L798.552 407.142L794.132 399.521C793.591 398.588 792.397 398.272 791.464 398.812C790.532 399.353 790.214 400.547 790.755 401.479L810.488 435.511C810.927 436.267 811.799 436.62 812.609 436.435C812.796 436.392 812.982 436.321 813.156 436.219C814.088 435.679 814.405 434.484 813.865 433.552L808.689 424.625C808.758 424.619 808.83 424.61 808.899 424.595C809.04 424.563 809.178 424.51 809.308 424.433L819.517 418.547C820.217 418.144 820.455 417.248 820.05 416.548Z" fill="#D9DADB"/>
<path d="M808.94 434.082L791.63 404.797C782.52 410.182 775.692 417.806 778.156 426.781C776.557 427.976 775.654 429.295 776.061 429.984L779.368 435.579C779.787 436.286 781.453 436.102 783.33 435.22C790.064 441.316 800.023 439.353 808.94 434.082Z" fill="#D9DADB"/>
<path d="M740.854 454.522C739.066 454.523 737.547 454.025 736.315 453.031C733.09 450.426 733.153 445.61 733.216 440.952C733.223 440.33 733.231 439.709 733.231 439.099L739.201 439.096C739.201 439.734 739.193 440.382 739.184 441.031C739.152 443.49 739.098 447.606 740.067 448.388C740.278 448.559 740.96 448.66 742.184 448.38C744.272 447.902 744.703 446.749 745.307 442.422C745.65 439.969 746.039 437.189 747.481 434.693C748.912 432.212 750.725 430.705 752.867 430.208C756.399 429.394 759.522 431.494 762.279 433.349C763.619 434.25 765.004 435.181 765.954 435.415C767.971 435.908 769.764 434.715 772.521 432.726C773.483 432.032 774.478 431.313 775.561 430.659L778.649 435.766C777.774 436.295 776.918 436.912 776.013 437.565C772.882 439.826 769.333 442.385 764.536 441.212C762.553 440.726 760.721 439.494 758.947 438.302C757.372 437.242 755.214 435.794 754.213 436.024C753.767 436.127 753.197 436.73 752.649 437.678C751.789 439.168 751.511 441.15 751.218 443.249C750.659 447.252 749.893 452.738 743.515 454.199C742.571 454.413 741.683 454.521 740.854 454.522Z" fill="#D9DADB"/>
<path d="M599.384 339.732C598.972 339.732 598.638 340.066 598.638 340.479V341.123L594.489 341.125C589.551 341.128 585.537 345.146 585.539 350.084L585.541 353.62H584.899C584.487 353.62 584.153 353.954 584.154 354.366C584.154 354.778 584.489 355.113 584.9 355.113L592.155 355.109C592.567 355.109 592.9 354.774 592.9 354.362C592.9 353.95 592.566 353.617 592.154 353.617H591.511L591.509 350.081C591.508 348.435 592.845 347.096 594.492 347.095L598.641 347.093V347.735C598.641 348.147 598.976 348.482 599.388 348.482C599.8 348.482 600.134 348.147 600.134 347.735L600.13 340.48C600.13 340.065 599.796 339.732 599.384 339.732Z" fill="#D9DADB"/>
<path d="M592.202 429.669H591.555L591.515 358.162H592.158C592.57 358.162 592.903 357.827 592.903 357.415C592.903 357.003 592.569 356.67 592.157 356.67L584.902 356.674C584.49 356.674 584.156 357.008 584.157 357.42C584.158 357.832 584.492 358.167 584.903 358.167H585.545L585.585 429.674H584.947C584.535 429.674 584.201 430.008 584.201 430.421C584.201 430.833 584.536 431.167 584.948 431.167L592.204 431.163C592.615 431.163 592.95 430.828 592.949 430.416C592.948 430.002 592.613 429.669 592.202 429.669Z" fill="#D9DADB"/>
<path d="M592.2 432.723L584.945 432.727C584.533 432.727 584.199 433.06 584.2 433.473C584.2 433.885 584.535 434.219 584.946 434.219H585.588L585.59 438.319C585.591 439.965 584.254 441.304 582.608 441.305L578.387 441.307V440.718C578.387 440.305 578.053 439.972 577.64 439.972C577.229 439.972 576.894 440.306 576.894 440.719L576.898 447.973C576.898 448.385 577.233 448.719 577.645 448.719C578.057 448.719 578.391 448.384 578.391 447.972V447.276L582.612 447.274C587.549 447.271 591.564 443.252 591.561 438.315L591.559 434.215H592.202C592.614 434.215 592.947 433.88 592.947 433.468C592.945 433.055 592.611 432.723 592.2 432.723Z" fill="#D9DADB"/>
<path d="M574.587 439.973C574.175 439.973 573.841 440.307 573.841 440.72V441.337L571.619 441.338L571.615 434.048L550.473 434.06L550.477 441.35L547.361 441.352L547.364 447.321L550.48 447.319L550.486 458.048C550.487 459.252 552.179 460.227 554.263 460.226L567.854 460.218C569.938 460.217 571.629 459.24 571.628 458.035L571.622 447.306L573.844 447.305V447.973C573.844 448.385 574.179 448.719 574.591 448.719C575.003 448.719 575.337 448.384 575.336 447.972L575.332 440.718C575.332 440.306 574.998 439.973 574.587 439.973Z" fill="#D9DADB"/>
<path d="M567.276 420.532V420.98L562.031 420.983L562.03 419.471C562.03 418.921 561.583 418.476 561.035 418.477C560.485 418.477 560.04 418.922 560.04 419.472L560.041 420.984L555.481 420.987V420.539L545.126 420.545L545.127 422.932L555.482 422.926V422.479L560.042 422.476L560.043 424.945L553.742 424.949C552.917 424.949 552.25 425.617 552.251 426.442C552.251 427.266 552.919 427.934 553.744 427.933L560.045 427.929L560.046 429.273L549.559 429.279C548.597 429.28 547.818 430.059 547.819 431.021C547.819 431.982 548.599 432.762 549.561 432.761L572.319 432.748C573.281 432.747 574.06 431.967 574.059 431.006C574.058 430.044 573.279 429.265 572.317 429.266L562.036 429.272L562.035 427.928L568.335 427.924C569.159 427.924 569.826 427.255 569.826 426.431C569.826 425.606 569.157 424.939 568.334 424.94L562.034 424.944L562.033 422.475L567.278 422.472V422.919L577.631 422.913L577.63 420.526L567.276 420.532Z" fill="#D9DADB"/>
<path d="M593.953 349.829L594.016 460.296L741.749 460.212L741.687 349.745L593.953 349.829ZM651.529 373.364L661.724 373.358L661.734 390.346L651.539 390.352L651.529 373.364ZM629.417 373.377L639.61 373.371L639.62 390.359L629.427 390.365L629.417 373.377ZM608.143 373.389L618.338 373.383L618.348 390.371L608.153 390.377L608.143 373.389ZM661.773 457.43L608.191 457.46L608.163 407.739L661.745 407.709L661.773 457.43ZM673.642 373.352L683.836 373.346L683.846 390.334L673.652 390.34L673.642 373.352ZM684.031 424.684L673.837 424.69L673.827 407.702L684.021 407.696L684.031 424.684ZM696.087 373.339L706.282 373.333L706.292 390.321L696.097 390.327L696.087 373.339ZM706.477 424.671L696.283 424.677L696.273 407.689L706.467 407.683L706.477 424.671ZM718.201 373.326L728.395 373.32L728.405 390.308L718.211 390.314L718.201 373.326ZM728.59 424.659L718.397 424.665L718.387 407.677L728.58 407.671L728.59 424.659Z" fill="#D9DADB"/>
<path d="M739.016 311.359C739.007 295.648 726.224 282.874 710.519 282.883C694.816 282.892 682.047 295.68 682.055 311.392C682.063 325.916 693.002 337.922 707.069 339.637L707.07 341.061L603.185 341.12V340.476C603.185 340.063 602.85 339.73 602.438 339.73C602.026 339.73 601.692 340.064 601.692 340.477L601.696 347.732C601.696 348.144 602.031 348.479 602.443 348.479C602.854 348.479 603.189 348.144 603.189 347.732V347.09L707.074 347.031L707.077 351.738L714.041 351.734L714.034 339.634C728.099 337.901 739.024 325.883 739.016 311.359ZM733.021 310.368L715.662 310.378C715.576 309.925 715.428 309.498 715.233 309.097L729.02 302.14C729.02 302.14 728.561 300.49 725.63 297.099C722.902 293.943 719.716 292.778 719.716 292.778L712.875 306.701C712.455 306.49 712.003 306.332 711.527 306.24L711.517 288.876C723.141 289.379 732.506 298.739 733.021 310.368ZM709.528 288.878L709.538 306.241C709.089 306.327 708.661 306.475 708.262 306.67L701.305 292.886C701.305 292.886 699.654 293.344 696.264 296.273C693.108 299.004 691.944 302.188 691.944 302.188L705.871 309.03C705.66 309.452 705.501 309.904 705.41 310.383L688.052 310.393C688.552 298.764 697.907 289.393 709.528 288.878ZM688.052 312.383L705.41 312.373C705.497 312.82 705.643 313.244 705.837 313.642L692.052 320.598C692.052 320.598 692.509 322.25 695.441 325.64C698.17 328.797 701.355 329.96 701.355 329.96L708.194 316.037C708.615 316.249 709.067 316.407 709.544 316.498L709.554 333.861C697.932 333.359 688.566 324.005 688.052 312.383ZM711.543 333.861L711.533 316.5C711.983 316.413 712.409 316.266 712.81 316.071L719.766 329.854C719.766 329.854 721.416 329.397 724.805 326.465C727.963 323.737 729.127 320.552 729.127 320.552L715.202 313.711C715.414 313.293 715.57 312.842 715.662 312.368L733.021 312.358C732.52 323.98 723.165 333.345 711.543 333.861Z" fill="#D9DADB"/>
</g>
<g id="werknemers_2">
<path d="M523.866 480.449C523.871 480.224 523.949 480.04 524.147 479.953C524.147 479.953 524.592 478.556 524.965 478.317C525.521 477.977 527.164 478.142 527.185 478.124C527.305 477.99 530.016 477.637 531.616 476.041C531.57 475.264 530.78 474.501 531.374 474.041C531.606 473.857 533.132 468.567 533.026 467.946C532.902 467.247 533.587 466.079 533.863 465.51C534.077 465.083 534.219 464.843 534.4 464.642C533.665 463.971 534.165 463.074 534.363 462.123C534.738 460.331 533.818 444.475 534.034 442.66C534.227 441.029 537.559 428.577 538.044 427.39C538.543 426.15 539.714 422.402 540.174 421.963C540.179 421.896 540.182 421.831 540.179 421.766C540.163 421.329 539.973 420.85 539.883 420.396C539.675 419.344 539.25 416.9 539.175 416.597C537.703 410.617 537.949 403.955 538.734 399.805C538.919 398.831 539.743 397.765 539.919 396.798C540.021 396.246 540.079 395.728 540.179 395.242C540.476 393.8 541.389 392.742 541.883 391.426C542.042 391.003 542.207 390.542 542.365 390.093C542.529 389.623 542.791 389.129 542.846 388.722C542.88 388.474 542.796 388.21 542.846 387.981C542.891 387.776 543.041 387.525 543.142 387.314C543.257 387.077 543.454 386.84 543.475 386.647C543.5 386.421 543.373 386.088 543.327 385.795C543.227 385.152 543.195 384.572 543.327 383.98C542.658 383.518 541.743 383.24 541.03 382.795C540.657 382.561 540.302 382.047 539.956 382.017C539.745 381.998 539.599 382.01 539.382 382.01C538.694 382.011 538.069 381.598 538.086 380.899C538.094 380.558 538.265 380.634 538.253 380.238C538.238 379.785 537.856 379.72 537.698 379.349C537.628 379.217 537.848 379.056 537.846 378.868C537.613 378.733 537.356 378.823 537.253 378.572C537.115 378.235 537.398 377.632 537.179 377.312C536.76 377.171 536.45 377.483 536.104 377.349C535.384 377.07 536.09 375.747 536.253 375.349C536.362 375.082 536.518 374.704 536.661 374.348C536.795 374.013 537.082 373.544 537.031 373.274C536.999 373.103 536.964 373.064 536.889 372.903C536.841 372.803 536.75 372.678 536.778 372.533C536.85 372.162 536.984 372.154 537.105 371.829C537.241 371.464 537.124 370.986 537.142 370.607C537.161 370.209 537.184 369.789 537.327 369.495L538.809 367.087C540.687 364.824 545.627 365.595 547.07 366.42C547.349 366.58 548.379 367.469 548.589 367.68C549.555 368.646 550.09 370.157 550.367 371.755C550.597 373.082 550.596 374.49 550.219 375.645C550.103 376 549.842 376.355 549.811 376.719C549.787 377.001 549.929 377.876 549.996 378.053C550.103 378.335 550.354 378.502 550.552 378.757C550.72 378.975 550.96 379.399 551.144 379.46C551.358 379.531 551.603 379.481 551.811 379.498C552.037 379.515 552.12 379.526 552.478 379.535C552.913 379.847 553.066 380.369 553.293 380.869C553.48 381.28 553.788 381.999 554.108 382.239C554.31 382.391 554.595 382.478 554.812 382.61C556.469 383.623 557.449 384.895 558.443 386.611C559.223 387.957 559.944 389.517 560.48 391.13C560.671 391.706 560.882 392.278 560.925 392.872C561.034 394.394 560.741 395.113 560.66 396.428C560.59 397.562 560.565 398.774 560.524 399.948C560.483 401.125 560.385 402.276 560.302 403.356C560.216 404.472 560.106 405.537 559.783 406.431C559.45 407.351 558.659 408.276 558.665 409.284C558.672 410.411 559.174 411.501 559.295 412.692C559.422 413.952 559.469 415.318 559.406 416.656C559.323 418.404 559.259 420.224 559.143 421.945C559.211 421.942 559.226 422.394 559.22 422.657C559.202 423.417 559.088 424.17 559.067 424.93C559.045 424.952 559.022 424.983 558.999 425.022L558.998 425.065C558.96 425.506 558.818 425.843 558.647 426.141C558.104 428.519 557.51 433.536 557.133 434.32C557.669 436.002 558.149 440.112 557.758 440.479C557.963 441.78 558.613 443.324 558.714 444.781C558.804 446.009 558.665 461.501 559.088 462.677C559.727 464.437 560.552 467.416 560.447 467.977C560.434 468.043 560.676 468.31 560.596 468.376C560.689 468.756 560.604 468.835 560.48 469.424C560.459 469.505 560.448 469.575 560.437 469.641C560.437 469.641 560.796 470.479 560.652 470.763C560.652 470.763 560.564 471.578 560.632 471.857C560.685 472.078 560.706 476.852 560.489 477.071C560.52 477.196 560.382 478.045 560.473 478.049C560.586 479.044 560.964 479.857 560.09 480.577C559.268 481.257 558.239 481.484 557.246 481.704C556.452 481.878 556.023 482.176 555.469 481.457C555.382 481.342 555.305 481.231 555.226 481.11C554.407 481.435 553.727 482.049 552.92 482.39C551.544 482.962 550.008 482.924 548.563 483.175C547.574 483.347 543.39 481.676 543.39 481.676C543.328 481.395 543.205 480.915 543.294 480.646C543.274 480.421 543.33 480.23 543.517 480.121L543.615 480.082C543.548 479.498 543.803 478.682 544.145 478.403C544.66 478.002 546.311 477.981 546.329 477.961C546.426 477.824 548.764 477.238 550.218 475.712C549.875 475.083 549.647 470.619 549.467 469.588C549.078 467.372 548.796 465.179 548.547 462.941C548.377 461.401 548.237 444.883 547.587 443.307C547.428 443.27 547.276 443.229 547.127 443.206C547.045 443.629 546.967 444.038 546.856 444.36C546.32 445.964 545.978 461.672 545.484 463.29C544.839 465.423 544.849 467.561 543.756 469.588C543.143 470.733 543.407 472.093 542.373 473.49C542.493 473.973 542.364 474.29 542.146 474.948C542.116 475.025 541.982 475.992 541.807 476.258C541.807 476.258 541.629 477.058 541.665 477.342C541.692 477.567 541.729 477.714 541.729 478.031C541.745 478.381 541.375 479.492 541.375 479.492C541.247 479.455 541.134 479.796 541.224 479.81C541.224 480.812 541.509 481.663 540.559 482.278C539.666 482.862 538.617 482.972 537.606 483.078C536.798 483.161 536.338 483.409 535.869 482.632C535.795 482.508 535.731 482.388 535.667 482.26C534.816 482.49 534.072 483.024 533.231 483.272C531.799 483.685 530.278 483.474 528.814 483.562C527.812 483.621 523.826 482.238 523.836 481.498L523.842 481.489C523.815 481.199 523.746 480.707 523.866 480.449Z" fill="#484545"/>
<path d="M497.186 480.598L497.181 480.605C497.209 481.191 500.425 482.095 501.214 482C502.367 481.862 503.579 481.956 504.692 481.561C505.344 481.325 505.908 480.868 506.569 480.646C506.626 480.744 506.682 480.836 506.746 480.931C507.154 481.522 507.506 481.304 508.141 481.201C508.936 481.07 509.759 480.933 510.438 480.429C511.159 479.897 510.893 479.239 510.846 478.446C510.774 478.44 510.847 478.165 510.95 478.188C510.95 478.188 511.19 477.292 511.16 477.016C511.145 476.765 511.109 476.65 511.076 476.474C511.033 476.25 511.137 475.61 511.137 475.61C511.262 475.391 511.322 474.62 511.342 474.558C511.483 474.028 511.25 471.589 511.197 470.793C511.313 470.843 511.326 465.659 511.316 465.606C511.63 463.877 511.843 462.66 511.003 460.969C510.614 460.192 511.128 459.454 511.128 458.764C511.128 457.673 511.404 456.256 511.404 454.965C511.404 453.736 511.554 452.76 511.894 451.919C512.345 450.804 512.683 452.157 512.683 452.723C512.683 453.436 513.097 455.818 513.473 456.269C513.811 456.682 514.701 461.822 514.701 462.372C514.701 463.111 515.014 466.257 515.429 466.559C515.566 466.659 515.917 468.44 515.892 468.603C515.803 469.33 515.605 469.897 515.541 470.674C515.555 471.391 515.316 473.491 515.316 474.256C515.316 474.881 515.992 475.207 515.641 476.186C515.49 476.636 515.115 477.188 514.977 477.602C514.463 477.703 513.737 480.548 513.737 481.212C513.737 482.467 519.528 482.367 520.443 481.827C521.083 481.437 521.019 480.674 521.408 480.448C522.749 479.697 521.935 478.051 522.138 476.725C522.164 476.557 522.449 475.702 522.573 475.623C522.58 475.619 522.585 475.611 522.591 475.606C522.596 475.604 522.601 475.598 522.605 475.595C522.624 475.581 522.642 475.564 522.659 475.544C522.67 475.533 522.68 475.514 522.691 475.498C522.702 475.484 522.713 475.469 522.723 475.45C522.738 475.423 522.752 475.39 522.767 475.355C522.771 475.342 522.778 475.331 522.783 475.315C522.801 475.267 522.818 475.208 522.836 475.138C522.836 475.138 522.837 475.135 522.838 475.133C522.91 474.836 522.97 474.376 523.025 473.63C523.013 472.614 523.552 472.69 523.552 472.051C523.552 470.158 523.439 464.631 523.151 463.904C522.8 462.988 522.612 462.25 522.612 461.171C522.612 459.643 523.201 458.501 523.201 456.859C523.201 456.562 523.134 455.721 523.121 455.598C523.101 455.424 522.435 452.715 522.403 452.634C522.342 452.475 521.532 450.865 521.409 450.681C520.431 449.251 522.224 446.118 520.869 444.313C520.878 444.225 520.952 443.857 521.064 443.34C521.075 443.293 521.083 443.252 521.094 443.206C521.104 443.157 521.116 443.106 521.126 443.056C521.546 441.17 522.356 437.801 522.661 437.245C523.062 436.506 522.561 435.164 523.113 434.601C524.216 433.446 525.443 432.908 524.454 430.928C523.978 429.975 522.811 431.041 522.611 431.554C522.595 431.598 522.573 431.625 522.552 431.649C522.542 431.658 522.532 431.666 522.52 431.672C522.502 431.683 522.483 431.691 522.463 431.692C522.452 431.695 522.438 431.695 522.426 431.694C522.404 431.692 522.382 431.688 522.358 431.68C522.346 431.676 522.333 431.672 522.32 431.665C522.296 431.654 522.271 431.639 522.245 431.623C522.231 431.613 522.217 431.604 522.202 431.592C522.182 431.578 522.162 431.562 522.143 431.545C522.12 431.527 522.099 431.507 522.077 431.487C522.072 431.482 522.07 431.479 522.066 431.475C521.962 431.376 521.869 431.264 521.811 431.191C521.61 430.954 521.196 431.605 521.009 431.052C520.959 430.927 520.847 428.146 520.733 427.569C520.557 426.679 521.204 426.19 521.43 426.114C521.48 426.09 521.794 425.876 521.882 425.864C521.58 425.864 525.315 423.645 526.142 422.417C527.76 419.985 528.987 417.943 529.501 414.609C529.814 412.629 530.415 412.667 529.589 410.522C529.125 409.319 528.524 408.179 528.159 407.075C527.296 405.346 527.324 403.693 525.884 402.565C525.332 402.126 525.19 399.73 524.438 398.815C524.073 398.378 523.075 396.792 522.683 396.485C522.41 396.27 521.115 394.631 520.102 393.821C519.538 393.369 518.106 392.564 517.737 392.411C517.433 392.285 515.319 391.847 515.357 391.909C514.642 390.832 512.084 389.415 513.651 387.648C513.852 387.435 514.667 385.117 514.729 384.779C514.905 383.877 514.441 382.974 514.729 381.958C515.193 381.156 514.403 379.113 514.165 378.475C514.103 378.275 513.651 377.885 514.165 378.075C514.717 378.261 513.915 377.398 513.84 377.31C513.588 377.008 513.05 377.084 512.737 376.809C512.687 376.269 511.558 376.683 512.235 376.081C512.349 375.982 511.683 376.006 511.671 375.931C511.658 375.805 512.209 375.692 511.846 375.692C511.52 375.692 512.009 375.479 512.097 375.467C512.447 375.417 512.159 375.23 512.009 375.23C511.946 375.23 512.348 375.016 511.971 375.016C511.258 375.016 510.768 375.555 510.417 374.841C510.354 374.716 510.104 374.465 510.029 374.753C509.966 375.029 509.792 374.941 509.679 374.79C509.578 374.68 509.378 374.992 509.34 374.992C508.826 374.992 508.914 374.817 508.55 374.74C508.5 374.728 508.324 375.066 508.324 375.154C508.286 375.442 508.124 374.992 508.112 374.953C508.06 374.852 508.035 374.69 508.023 374.566C507.979 374.024 507.616 374.944 507.502 375.219L507.508 375.218L507.471 375.292C507.475 375.284 507.487 375.258 507.502 375.219C507.361 375.293 506.996 375.379 506.996 375.379C507.083 374.74 506.444 375.843 506.444 375.329C506.444 375.291 505.88 375.279 505.779 375.643C505.679 376.031 505.403 376.382 505.353 376.782C505.34 376.869 505.24 376.042 505.202 375.955C505.19 375.918 505.202 375.567 505.153 375.705C505.052 375.955 504.99 376.181 504.99 376.471C504.99 376.621 505.014 377.11 504.927 376.759C504.852 376.433 504.789 376.283 504.789 376.797C504.789 376.847 504.301 376.472 504.075 376.433C503.686 376.369 504.075 376.507 504.263 376.583C504.327 376.622 503.211 376.472 503.811 376.847L504.626 377.347C504.626 377.385 503.585 377.599 504.036 377.599C504.274 377.599 504.663 377.799 504.149 377.799C503.986 377.799 503.71 377.837 503.559 377.887C503.284 377.989 503.622 378.051 503.71 378.1C503.886 378.226 504.211 378.452 503.772 378.452C503.497 378.452 503.296 378.526 503.108 378.588C502.857 378.74 502.82 379.83 502.82 380.194C502.82 380.558 503.222 380.833 502.896 381.235C502.833 381.323 502.52 382.037 502.67 381.925C503.134 381.573 502.87 382.15 503.046 382.024C503.359 381.774 503.396 382.588 503.434 382.79C503.508 383.154 503.835 383.466 503.835 383.806C503.835 384.231 504.173 384.481 504.173 384.783C504.173 385.373 504.374 385.81 504.374 386.312C504.374 386.939 504.475 387.44 504.962 387.603C505.038 387.767 505.064 388.568 505.064 388.682C505.064 389.596 506.855 390.334 506.279 391.288C506.216 391.377 505.678 391.476 505.465 391.614C505.403 391.651 504.772 391.896 504.326 392.304C503.849 392.767 501.248 394.947 500.577 395.901C500.1 396.579 499.487 397.242 499.331 397.519C499.08 397.959 497.331 405.734 497.331 406.586C497.496 406.823 497.118 407.343 497.118 407.669C497.118 407.996 497.331 408.27 497.432 408.622C497.796 409.813 497.469 411.242 497.532 412.394C497.532 413.071 498.153 418.114 498.04 418.514C497.915 418.991 498.481 419.836 498.469 419.836C498.206 420.977 500.202 424.401 500.202 424.918C500.202 425.206 500.602 425.631 500.74 425.893C500.853 426.105 501.588 426.511 501.566 426.569C501.534 426.644 501.342 427.213 501.342 427.462C501.342 430.57 500.74 433.716 500.74 437.025C500.477 437.025 500.377 440.786 500.377 441.35C500.377 441.675 500.74 441.726 500.74 442.013V442.778C500.991 443.955 500.991 445.346 500.991 446.701C500.991 448.054 501.531 454.196 501.531 455.035C501.531 455.75 501.631 456.366 501.631 456.94C501.631 458.144 502.358 459.447 502.483 459.698C502.458 459.774 503.247 461.653 503.247 462.318C503.247 462.993 502.884 463.521 502.821 464.073C502.696 465.112 502.809 465.613 502.646 466.693C502.47 467.832 502.547 470.32 502.684 470.592C502.724 470.579 502.915 474.25 502.786 474.365C502.337 474.757 502.999 475.322 503.072 475.934C501.883 477.271 499.756 477.679 499.668 477.791C499.652 477.806 498.346 477.753 497.922 478.049C497.639 478.256 497.353 479.381 497.353 479.381C497.201 479.459 497.148 479.609 497.155 479.787C497.071 479.989 497.148 480.374 497.186 480.598ZM520.467 414.266C520.931 413.651 520.467 408.813 520.906 408.664C520.906 408.664 521.1 408.953 521.327 409.116C521.426 409.184 521.513 409.266 521.594 409.356C521.596 409.359 521.597 409.361 521.6 409.364C521.944 409.762 522.154 410.348 522.461 410.875C522.487 410.919 522.515 410.961 522.541 411.006C522.582 411.071 522.624 411.136 522.67 411.198C522.715 411.259 522.766 411.316 522.817 411.373C522.855 411.416 522.891 411.462 522.932 411.503C523.03 411.597 523.136 411.685 523.257 411.761C523.607 411.975 524.146 413.879 524.109 414.305C523.971 415.809 523.119 417.834 522.542 418.887C522.401 419.131 522.175 419.431 521.898 419.704C521.895 419.706 521.892 419.71 521.892 419.71C521.813 419.786 521.434 420.455 521.319 420.455C521.243 420.455 520.166 421.114 520.103 421.013C520.003 420.824 520.115 414.705 520.467 414.266Z" fill="#484545"/>
<path d="M437.939 376.512C437.938 376.503 437.938 376.5 437.938 376.5C437.938 376.5 437.936 376.472 437.935 376.465L437.939 376.512Z" fill="#484545"/>
<path d="M410.637 477.785C411.171 477.11 411.041 476.431 411.041 476.431C411.041 476.431 414.368 456.17 414.453 453.965C414.537 451.768 415.762 449.997 415.762 448.308C415.762 447.317 416.277 442.327 416.704 438.357C416.321 436.768 415.888 435.109 415.685 434.739C415.299 434.028 415.781 432.737 415.251 432.195C414.19 431.084 413.009 430.566 413.96 428.66C414.418 427.743 415.541 428.769 415.734 429.262C415.749 429.305 415.77 429.33 415.791 429.353C415.8 429.362 415.81 429.369 415.821 429.375C415.838 429.386 415.856 429.393 415.876 429.395C415.887 429.398 415.9 429.398 415.912 429.396C415.933 429.395 415.955 429.39 415.978 429.383C415.99 429.379 416.002 429.375 416.015 429.368C416.038 429.357 416.062 429.344 416.087 429.328C416.1 429.319 416.114 429.31 416.128 429.298C416.147 429.285 416.166 429.269 416.184 429.253C416.206 429.236 416.227 429.216 416.248 429.197C416.252 429.193 416.255 429.19 416.259 429.186C416.359 429.091 416.448 428.983 416.505 428.913C416.688 428.697 417.056 429.248 417.247 428.85L417.317 423.614C417.317 423.614 415.025 422.776 413.96 420.235C412.898 417.694 412.327 417.613 411.102 416.177C409.872 414.737 409.708 412.876 409.708 409.243C409.708 405.602 411.592 400.701 411.834 398.93C412.077 397.15 413.706 393.256 414.607 392.198C415.505 391.137 422.171 389.202 422.171 389.202C422.171 389.202 422.726 387.809 423.314 387.534C423.907 387.263 424.09 386.88 424.866 386.163C425.646 385.445 427.041 385.642 427.041 385.642C427.041 385.642 427.032 385.354 426.976 385.131C426.968 385.092 426.963 385.062 426.949 385.032C426.923 384.963 426.886 384.907 426.835 384.886C426.633 384.8 425.855 383.107 425.528 382.221C425.201 381.336 424.997 379.388 425.159 377.277C425.322 375.166 427.158 372.789 431.392 371.963C435.624 371.142 438.075 374.607 438.075 374.607C438.075 374.607 437.798 374.642 438.176 374.942C438.554 375.252 438.687 375.939 438.616 375.789C438.553 375.665 438.227 375.398 438.137 375.333C438.189 375.372 438.287 375.483 438.442 375.81C438.668 376.274 438.116 377.392 438.18 377.074C438.24 376.76 437.911 376.317 437.911 376.317C437.911 376.317 437.913 376.33 437.92 376.364C437.924 376.373 437.924 376.39 437.926 376.402C437.93 376.427 437.934 376.456 437.937 376.491C437.951 376.645 437.962 376.94 437.911 377.499C437.832 378.427 437.973 378.01 438.158 378.745C438.343 379.48 438.42 379.863 438.116 380.387C437.806 380.92 437.486 381.346 437.647 381.591C437.806 381.849 438.075 382.016 438.181 382.653C438.284 383.289 437.669 383.096 437.566 383.349C437.463 383.598 437.566 384.088 437.544 384.428C437.527 384.764 437.054 384.871 437.277 384.953C437.503 385.039 437.503 385.228 437.381 385.357C437.258 385.482 436.953 386.497 436.993 387.408C436.998 387.575 436.972 387.713 436.931 387.825C436.923 387.847 436.916 387.872 436.91 387.885C436.865 387.988 436.809 388.07 436.74 388.126C436.736 388.134 436.732 388.138 436.727 388.143C436.719 388.152 436.717 388.152 436.71 388.156C436.583 388.255 436.448 388.306 436.357 388.324H436.356C436.341 388.328 436.345 388.324 436.33 388.328C436.287 388.332 436.259 388.337 436.259 388.337C436.259 388.337 436.662 388.883 436.953 389.261C437.239 389.643 438.323 391.123 438.323 391.123C438.323 391.123 438.372 391.011 439.354 391.479C440.335 391.943 442.791 393.422 443.527 393.929C444.262 394.432 446.022 398.916 446.349 400.734C446.675 402.552 447.247 403.902 448.107 405.467C448.967 407.032 448.924 407.621 448.885 408.338C448.842 409.06 449.007 410.281 449.007 411.721C449.007 413.161 448.27 414.386 448.27 414.386C448.27 414.386 448.476 415.272 448.637 416.329C448.802 417.386 448.351 419.037 447.861 419.669C447.371 420.301 447.861 420.219 447.982 421.105C448.106 421.995 448.352 422.245 447.737 422.579C447.124 422.923 446.718 423.895 446.185 424.527C445.652 425.159 444.958 425.202 444.427 425.374C443.896 425.546 443.486 426.011 442.995 427.106C442.501 428.202 443.365 433.49 443.034 433.825C442.709 434.165 442.03 434.01 442.03 434.01C442.03 434.01 442.191 438.747 441.946 440.777C441.701 442.806 439.476 474.192 439.476 474.192C439.476 474.192 440.499 475.632 441.441 476.685C442.38 477.743 442.666 479.351 442.462 480.025C441.87 481.981 438.025 481.594 436.692 480.872C435.919 480.447 435.671 479.351 435.222 478.5C434.775 477.657 433.75 477.403 433.012 476.771C432.277 476.135 432.455 474.514 432.455 474.514L430.983 472.399C430.983 472.399 430.68 455.624 430.68 450.547C430.68 445.479 429.534 437.87 429.534 437.87C428.036 438.915 425.988 449.653 424.354 458.535C422.717 467.408 418.94 476.561 418.94 476.561L417.59 476.982C417.59 476.982 417.549 478.207 417.51 478.8C417.471 479.389 416.53 479.767 416.405 480.064C416.283 480.36 416.283 481.715 416.078 482.433C415.872 483.151 415.218 483.447 413.873 483.783C412.523 484.127 409.982 483.954 409.695 483.404C409.411 482.858 409.248 481.758 409.207 480.825C409.162 479.901 410.105 478.465 410.637 477.785Z" fill="#484545"/>
<path d="M486.464 407.594C486.058 406.477 485.832 405.716 485.787 405.314C485.245 402.093 484.05 397.376 482.2 391.159C481.569 389.638 480.689 388.879 479.561 388.879C478.613 388.879 477.733 388.543 476.921 387.873L476.65 387.537V386.934C476.741 386.845 476.786 386.71 476.786 386.531C476.786 386.308 476.425 385.592 475.703 384.385C475.747 383.625 475.726 383.088 475.635 382.775L475.5 382.641C475.003 380.673 474.19 379.086 473.062 377.878C473.334 377.52 473.468 377.028 473.468 376.402C473.468 374.479 472.894 372.791 471.742 371.337C470.593 369.883 469.092 369.224 467.241 369.358H466.767C466.497 369.537 466 369.604 465.278 369.559C462.976 370.812 461.827 372.287 461.827 373.987C461.827 375.508 462.03 376.648 462.436 377.408C462.482 377.452 462.482 377.565 462.436 377.743C462.482 377.788 462.594 377.855 462.775 377.944L462.911 378.213L462.843 378.884C462.843 379.197 463.498 380.426 464.806 382.574C464.354 383.155 463.723 384.184 462.911 385.659C462.414 385.972 461.556 386.129 460.337 386.129C458.713 386.71 457.722 387.762 457.36 389.282C457.225 390.848 457.089 392.391 456.955 393.911C456.728 396.058 456.458 397.958 456.142 399.613C456.052 400.195 455.69 401.224 455.058 402.699C454.517 403.997 454.247 404.957 454.247 405.584C454.247 406.389 454.563 407.306 455.194 408.335C455.871 409.542 456.593 410.146 457.36 410.146C457.991 410.146 459.052 409.386 460.54 407.865C460.631 408.446 460.676 408.849 460.676 409.072C460.676 409.43 460.473 410.212 460.067 411.42C459.797 412.404 459.774 413.141 459.999 413.633C459.321 414.483 458.984 416.25 458.984 418.933C458.984 424.658 459.074 427.631 459.254 427.855L460.067 428.057C460.336 428.906 460.833 432.015 461.555 437.381C462.143 441.899 462.91 444.805 463.857 446.102C463.857 446.508 464.044 447.47 464.416 448.979C464.57 449.144 464.633 449.385 464.479 449.637C464.473 449.646 464.47 449.657 464.465 449.666C464.447 449.711 464.426 449.75 464.405 449.789C464.274 450.041 464.181 450.311 464.113 450.591L464.129 450.731C464.102 450.834 464.066 450.918 464.025 450.992C463.998 451.135 463.972 451.277 463.947 451.416C463.822 452.102 463.704 452.777 463.666 453.476C463.622 454.29 463.613 455.115 463.443 455.917C463.412 456.065 463.365 456.207 463.318 456.348L463.315 456.365L463.311 456.371C463.145 456.867 462.909 457.336 462.692 457.813L462.57 466.091C462.57 466.36 462.661 466.774 462.841 467.333C463.022 467.892 463.113 468.306 463.113 468.574C463.113 468.798 463.032 469.112 462.875 469.514C462.717 469.916 462.639 470.207 462.639 470.385C462.639 470.742 462.752 471.258 462.977 471.929C463.203 472.599 463.316 473.092 463.316 473.404C463.181 473.628 463.023 473.963 462.842 474.41C463.159 474.903 463.316 475.215 463.316 475.35C463.316 475.574 463.158 475.909 462.842 476.356C462.662 477.966 462.007 480.023 460.88 482.527C460.834 482.617 460.768 482.684 460.677 482.728V482.929C460.588 483.958 462.008 484.473 464.941 484.473C466.069 484.473 466.633 483.981 466.633 482.996L467.039 482.728C467.012 481.464 466.993 480.711 466.982 480.45C467.007 480.152 467.113 479.775 467.309 479.307C467.535 478.771 467.648 478.368 467.648 478.099C467.648 477.786 467.535 477.451 467.309 477.093C467.491 476.779 467.784 476.445 468.189 476.087V477.63C468.189 477.988 468.087 478.692 467.885 479.743C467.682 480.794 467.581 481.565 467.581 482.057C467.581 483.845 468.642 484.741 470.761 484.741C473.153 484.741 474.349 484.427 474.349 483.801C474.349 483.086 474.021 482.013 473.368 480.581C472.714 479.149 472.387 478.278 472.387 477.965C472.387 477.562 472.612 477.026 473.063 476.355C472.793 475.953 472.658 475.461 472.658 474.879C472.658 474.566 472.838 474.219 473.199 473.84C473.56 473.459 473.763 473.225 473.808 473.136C473.852 473.046 473.966 472.241 474.147 470.721C475.004 469.156 475.387 468.238 475.297 467.97C477.012 464.661 478.207 461.015 478.885 457.036L478.479 456.901L478.14 456.969C478.456 455.404 478.614 453.592 478.614 451.535C478.614 451.133 478.546 450.505 478.412 449.656C478.276 448.807 478.208 448.135 478.208 447.643V445.764C478.48 445.496 478.615 444.512 478.615 442.813C478.615 442.456 478.705 441.908 478.886 441.17C479.066 440.431 479.156 439.884 479.156 439.526C479.246 438.139 479.63 435.971 480.307 433.019C480.984 430.201 481.322 428.055 481.322 426.579C481.322 426.4 481.412 426.154 481.592 425.841C481.773 425.528 481.863 425.283 481.863 425.104C481.728 424.835 481.546 424.433 481.322 423.897C481.546 423.807 481.84 423.628 482.202 423.36C482.247 422.913 482.021 422.353 481.525 421.683C480.984 419.447 480.262 416.875 479.36 413.969C479.088 413.432 478.434 412.516 477.397 411.218L478.005 410.614C480.848 412.404 483.171 413.297 484.976 413.297C486.285 413.297 486.939 412.158 486.939 409.876C486.937 409.294 486.78 408.535 486.464 407.594Z" fill="#484545"/>
</g>
</g>
<g id="Aantal werknemers aangesloten bij MnService">
<text fill="#414042" xml:space="preserve" style="white-space: pre" font-family="Roboto" font-size="31" font-weight="500" letter-spacing="0em"><tspan x="61.3818" y="333.293">Aantal werknemers&#10;</tspan></text>
<text fill="#414143" xml:space="preserve" style="white-space: pre" font-family="Roboto" font-size="24" font-weight="500" letter-spacing="0em"><tspan x="61.3818" y="361.293">aangesloten bij MnService</tspan></text>
</g>
</g>
<g id="header">
<path id="achtergrond header" d="M1888 0H0V209H1888V0Z" fill="white"/>
<path id="lijn" d="M1564 164.325L0 164.325" stroke="#919494" stroke-miterlimit="10"/>
<g id="windmolen-donker">
<path d="M143.991 67.5002L143.844 67.2432L143.644 66.9526L143.419 66.6871L143.177 66.4452L142.917 66.2327L142.641 66.0512L142.595 66.0235L142.304 65.8715L142.004 65.7556L141.698 65.6749L141.636 65.664L141.326 65.6203L141.129 65.6187L137.527 66.3797L137.371 66.3612L137.207 66.3528L137.044 66.3545L136.903 66.3704L136.797 66.3956L136.386 66.5267L134.09 67.2969L132.964 67.6758L130.758 68.4133L127.56 69.4876L127.458 69.5414L127.064 69.8236L126.796 70.1949L126.685 70.6182L126.674 70.7232L126.681 72.4964L126.898 74.2495L127.323 75.9799L127.531 76.394L127.868 76.7686L128.293 77.0668L128.369 77.1147L128.8 77.2844L128.877 77.307L128.987 77.3255L132.982 77.8471L133.111 77.8606L133.246 77.8648L133.379 77.8623L133.495 77.853L133.581 77.8362L133.617 77.8261L133.541 82.3285L133.527 83.0601C133.527 83.0601 133.272 95.3667 133.291 98.2285C133.304 100.168 133.305 102.111 133.227 104.05C133.193 104.899 133.252 105.867 133.119 106.767L131.782 184.694H139.776L139.103 82.1697L140.034 76.0773L140.387 75.9807L141.406 75.7035L141.829 75.5414L141.936 75.4977L142.372 75.1903L142.723 74.7913L142.944 74.3394L142.988 74.2486L143.466 72.3486L143.55 71.7405L143.595 71.6968L143.803 71.4683L143.985 71.2113L144.139 70.9324L144.161 70.8837L144.285 70.5863L144.335 70.42L143.991 67.5002Z" fill="#919494"/>
<path d="M143.385 67.0626C143.385 67.0626 143.95 68.7569 144.486 69.1424C147.093 71.024 147.766 73.7867 148.44 76.6964C150.165 84.1445 152.088 91.5464 153.886 98.9786C154.555 101.749 155.135 104.543 155.66 107.344C155.817 108.181 155.648 109.08 155.627 109.951C155.468 109.984 155.308 110.017 155.149 110.05C154.691 109.146 154.108 108.283 153.795 107.331C149.64 94.7115 145.177 80.9769 141.051 68.3469L143.385 67.0626Z" fill="#919494"/>
<path d="M142.042 70.168C143.372 70.168 144.45 69.0876 144.45 67.7547C144.45 66.4219 143.372 65.3415 142.042 65.3415C140.712 65.3415 139.634 66.4219 139.634 67.7547C139.634 69.0876 140.712 70.168 142.042 70.168Z" fill="#919494"/>
<path d="M141.81 69.2508C141.81 69.2508 140.111 68.7115 139.484 68.9181C136.431 69.9244 133.806 68.8434 131.062 67.6775C124.037 64.6922 116.932 61.8967 109.879 58.9794C107.25 57.8925 104.653 56.7182 102.085 55.4952C101.317 55.1298 100.691 54.4637 100 53.9345C100.068 53.7858 100.135 53.6371 100.203 53.4885C101.201 53.6497 102.241 53.6842 103.193 53.9908C115.821 58.0496 129.529 62.5149 142.148 66.6023L141.81 69.2508Z" fill="#919494"/>
<path d="M140.747 66.9769C140.747 66.9769 141.885 65.6027 141.931 64.9433C142.153 61.7304 144.141 59.7018 146.253 57.5943C151.66 52.1991 156.923 46.6586 162.278 41.2113C164.274 39.181 166.338 37.2138 168.437 35.2902C169.065 34.7148 169.916 34.3856 170.665 33.9437C170.776 34.0622 170.889 34.1814 171 34.2999C170.474 35.1659 170.051 36.1168 169.409 36.8854C160.897 47.0769 151.603 58.1159 143.067 68.2873L140.747 66.9769Z" fill="#919494"/>
</g>
<g id="windmolen-licht">
<path d="M87.991 52.3028L87.8443 52.0475L87.6439 51.7588L87.4193 51.4951L87.1762 51.2548L86.9164 51.0437L86.6397 50.8634L86.5945 50.8359L86.3036 50.6849L86.0035 50.5697L85.6967 50.4896L85.6355 50.4788L85.3254 50.4354L85.1284 50.4337L81.5265 51.1897L81.3706 51.1713L81.2062 51.163L81.0436 51.1647L80.902 51.1805L80.7964 51.2056L80.3856 51.3357L78.0888 52.1009L76.9631 52.4772L74.7576 53.2098L71.5589 54.277L71.4575 54.3304L71.0635 54.6108L70.7953 54.9796L70.6846 55.4002L70.6729 55.5045L70.6804 57.2659L70.8967 59.0074L71.3217 60.7263L71.5304 61.1377L71.8674 61.5098L72.2924 61.806L72.3678 61.8536L72.7987 62.0222L72.8758 62.0447L72.9864 62.063L76.9807 62.5812L77.1106 62.5946L77.2447 62.5987L77.378 62.5962L77.4937 62.5871L77.58 62.5704L77.6161 62.5603L77.5398 67.0329L77.5264 67.7596C77.5264 67.7596 77.2707 79.9847 77.29 82.8276C77.3034 84.7543 77.3042 86.6843 77.2263 88.6101C77.1919 89.4537 77.2514 90.4158 77.1181 91.3095L75.7811 168.72H83.7755L83.1023 66.8751L84.0336 60.8231L84.3865 60.7271L85.405 60.4518L85.8283 60.2907L85.9356 60.2473L86.3715 59.9419L86.7219 59.5456L86.9432 59.0967L86.9868 59.0065L87.4654 57.1191L87.5492 56.515L87.5945 56.4716L87.8024 56.2446L87.9843 55.9893L88.1385 55.7122L88.1603 55.6639L88.2844 55.3685L88.3347 55.2033L87.991 52.3028Z" fill="#D9DADB"/>
<path d="M87.3849 51.8681C87.3849 51.8681 87.9499 53.5511 88.4855 53.9341C91.0933 55.8032 91.7664 58.5476 92.4395 61.4381C94.1646 68.8369 96.0884 76.1898 97.8848 83.5727C98.5545 86.3247 99.1346 89.1 99.6593 91.8827C99.8161 92.7147 99.6468 93.6075 99.6266 94.4728C99.4674 94.5053 99.3073 94.5378 99.148 94.5704C98.6903 93.6726 98.1069 92.8156 97.7942 91.8702C93.6391 79.3339 89.1763 65.6903 85.0504 53.1439L87.3849 51.8681Z" fill="#D9DADB"/>
<path d="M86.0421 54.9529C87.3721 54.9529 88.4503 53.8796 88.4503 52.5557C88.4503 51.2317 87.3721 50.1584 86.0421 50.1584C84.712 50.1584 83.6338 51.2317 83.6338 52.5557C83.6338 53.8796 84.712 54.9529 86.0421 54.9529Z" fill="#D9DADB"/>
<path d="M85.8107 54.0418C85.8107 54.0418 84.1116 53.5061 83.4846 53.7113C80.4317 54.711 77.8072 53.6371 75.0628 52.4789C68.0375 49.5134 60.9333 46.7364 53.8787 43.8385C51.25 42.7587 48.6531 41.5922 46.0847 40.3773C45.3169 40.0143 44.6907 39.3526 44 38.8269C44.0679 38.6792 44.135 38.5315 44.2029 38.3838C45.2012 38.5441 46.2406 38.5783 47.1929 38.8828C59.821 42.9148 73.5288 47.3505 86.1477 51.4108L85.8107 54.0418Z" fill="#D9DADB"/>
<path d="M84.747 51.783C84.747 51.783 85.8853 50.4179 85.9314 49.7628C86.1527 46.5712 88.141 44.5561 90.2525 42.4625C95.6601 37.103 100.923 31.5992 106.278 26.188C108.274 24.1712 110.338 22.217 112.437 20.3061C113.065 19.7346 113.916 19.4075 114.665 18.9686C114.776 19.0862 114.889 19.2047 115 19.3224C114.474 20.1826 114.051 21.1272 113.409 21.8907C104.897 32.0147 95.6031 42.9807 87.0672 53.0847L84.747 51.783Z" fill="#D9DADB"/>
</g>
<text id="FACTSHEET - DIVERSITEIT" fill="#074953" xml:space="preserve" style="white-space: pre" font-family="Roboto" font-size="40" font-weight="bold" letter-spacing="0em"><tspan x="196" y="101.764">FACTSHEET - DIVERSITEIT</tspan></text>
<text id="Nederland april 2021" fill="#258999" xml:space="preserve" style="white-space: pre" font-family="Roboto" font-size="25" letter-spacing="0em"><tspan x="196" y="143.544">Nederland april 2021</tspan></text>
</g>
</g>
</svg>
