<svg width="1480" height="780" viewBox="0 0 1480 780" fill="none" xmlns="http://www.w3.org/2000/svg">
	<rect width="1480" height="780" fill="#E5E5E5" />
	<g id="Techniekketen">
		<rect width="1480" height="780" fill="white" />
		<g id="achtergrond">
			<path id="horizon lijnrechts" d="M1454 706L870 707" stroke="#A6A8AB" stroke-miterlimit="10" />
			<g id="stad">
				<g id="stad achtergrond">
					<path id="Vector"
						d="M1215.04 685.685C1215.04 685.578 1215.04 685.472 1215.04 685.365C1211.7 685.415 1208.36 685.431 1205.02 685.676C1208.36 685.677 1211.7 685.665 1215.04 685.685Z"
						fill="#D7D8D8" />
					<path id="Vector_2"
						d="M1215.04 682.46C1215.04 682.297 1215.04 682.134 1215.04 681.972H1208.76C1208.76 682.135 1208.76 682.298 1208.76 682.461C1210.86 682.46 1212.95 682.457 1215.04 682.46Z"
						fill="#D7D8D8" />
					<path id="Vector_3"
						d="M1212.88 655.368C1207.9 655.806 1202.88 655.916 1197.89 656.22C1196.13 656.327 1193.95 654.655 1192.7 657.02C1192.87 657.145 1193.09 657.287 1193.31 657.428C1196.16 657.14 1203.41 658.661 1203.26 658.934C1203.15 660.469 1203.2 665.885 1203.19 666.185C1206.97 665.894 1211.24 665.655 1215.26 665.422C1215.35 662.066 1215.71 658.54 1215.04 655.239C1214.33 655.261 1213.61 655.303 1212.88 655.368Z"
						fill="#D7D8D8" />
					<path id="Vector_4"
						d="M1215.09 674.715C1212.94 674.761 1210.79 674.813 1208.64 675.042H1215.08C1215.09 674.933 1215.09 674.824 1215.09 674.715Z"
						fill="#D7D8D8" />
					<path id="Vector_5"
						d="M1215.19 668.53C1215.19 668.364 1215.2 668.199 1215.2 668.034C1212.66 668.225 1210.16 668.371 1207.83 668.53H1215.19Z"
						fill="#D7D8D8" />
					<path id="Vector_6"
						d="M1215.13 671.692C1215.13 671.586 1215.13 671.479 1215.13 671.373C1213.64 671.488 1212.16 671.609 1210.75 671.715C1212.16 671.715 1213.63 671.693 1215.13 671.692Z"
						fill="#D7D8D8" />
					<path id="Vector_7"
						d="M1283.75 703.597C1283.43 701.553 1283.02 696.295 1282.8 694.244C1282.65 692.927 1282.76 691.59 1282.76 690.261C1282.76 687.415 1282.76 684.569 1282.76 681.723C1282.51 681.72 1282.26 681.717 1282 681.713V703.729C1280.87 703.46 1280.32 703.113 1280.26 702.713C1279.92 700.524 1279.51 695.105 1279.46 692.905C1279.24 682.654 1279.14 672.399 1278.97 662.146C1278.96 661.474 1278.85 660.329 1278.44 660.214C1275.48 659.367 1276.24 657.318 1276.08 655.401C1275.9 656.746 1275.74 657.918 1275.67 658.49C1268.99 659.408 1262.9 660.247 1256.62 661.111C1256.82 663.553 1257.01 665.811 1257.19 668.013C1254.93 668.787 1254.19 668.19 1254.19 666.491C1254.16 660.565 1254.02 654.64 1253.98 648.713C1253.94 642.899 1253.97 637.084 1253.97 631.474C1246.32 627.444 1238.26 630.544 1230.47 630.241C1230.66 637.132 1230.84 643.969 1231.02 650.787C1231.4 650.775 1231.77 650.767 1232.14 650.778C1231.92 644.98 1231.7 639.184 1231.54 633.385C1231.52 632.708 1232.71 631.568 1233.56 631.396C1236.03 630.896 1238.61 630.79 1241.14 630.506C1245.43 630.025 1245.75 630.154 1245.74 633.759C1245.73 639.614 1245.7 645.47 1245.67 651.326C1245.83 651.324 1245.99 651.323 1246.16 651.32C1246.14 644.56 1246.2 637.764 1246.2 630.836C1252.96 631.333 1253.33 631.488 1253.3 635.994C1253.21 650.068 1252.92 664.139 1252.78 678.212C1252.71 684.399 1252.74 690.582 1252.76 696.751C1252.81 696.836 1252.85 696.928 1252.87 697.023C1252.87 697.023 1252.86 697.023 1252.86 697.024C1252.86 697.42 1252.85 697.815 1252.86 698.211C1252.84 698.719 1252.84 699.228 1252.84 699.731C1252.84 700.486 1252.84 701.242 1252.84 701.999C1252.84 703.373 1252.85 704.748 1252.83 706.123C1252.83 706.132 1252.83 706.14 1252.83 706.149C1256.89 706.249 1284.09 706.005 1284.44 705.888C1284.38 705.382 1284.33 704.134 1284.27 703.628C1284.1 703.615 1283.93 703.601 1283.75 703.597Z"
						fill="#D7D8D8" />
					<path id="Vector_8"
						d="M1185.04 603.069C1185.03 619.363 1185.91 635.632 1186.42 651.909C1186.47 653.543 1186.49 655.177 1186.51 656.813C1186.7 656.711 1186.86 656.68 1187.09 656.662C1187.11 656.661 1187.12 656.661 1187.14 656.661C1187.15 656.661 1187.16 656.666 1187.18 656.667C1187.01 650.825 1186.83 644.984 1186.63 639.143C1186.21 627.115 1185.58 615.092 1185.04 603.069Z"
						fill="#D7D8D8" />
					<path id="Vector_9"
						d="M1223.25 657.832C1222.98 657.699 1222.64 657.598 1222.22 657.513C1222.64 657.598 1222.98 657.699 1223.25 657.832Z"
						fill="#D7D8D8" />
					<path id="Vector_10"
						d="M1209.32 689.09C1207.34 689.112 1205.35 689.125 1203.36 689.129C1203.36 689.229 1203.36 689.328 1203.36 689.428C1203.58 689.425 1203.8 689.418 1204.02 689.416C1207.69 689.379 1211.37 689.402 1215.04 689.431C1215.04 689.27 1215.04 689.11 1215.04 688.949C1213.13 689.027 1211.23 689.069 1209.32 689.09Z"
						fill="#D7D8D8" />
					<path id="Vector_11"
						d="M1215.04 689.43C1211.37 689.402 1207.69 689.378 1204.02 689.416C1203.8 689.418 1203.58 689.425 1203.36 689.428C1203.37 692.384 1203.36 705.524 1203.36 705.524C1205.26 705.565 1207.91 705.604 1209.81 705.645C1210.28 705.655 1210.75 705.665 1211.22 705.675C1212.52 705.703 1213.82 705.728 1215.12 705.754C1215.13 703.874 1215.04 691.709 1215.04 691.061C1215.04 690.518 1215.04 689.974 1215.04 689.43Z"
						fill="#D7D8D8" />
					<path id="Vector_12"
						d="M1192.93 694.27C1192.93 694.376 1192.93 694.479 1192.94 694.582C1192.95 694.69 1192.97 694.799 1192.99 694.91C1192.97 694.799 1192.95 694.691 1192.94 694.582C1192.93 694.479 1192.93 694.376 1192.93 694.27Z"
						fill="#D7D8D8" />
					<path id="Vector_13"
						d="M1122.5 668.928C1122.25 668.903 1122 668.886 1121.74 668.878C1121.66 668.875 1121.58 668.871 1121.5 668.868C1121.54 676.503 1121.59 684.139 1121.66 691.775C1121.68 693.93 1121.91 696.085 1122.04 698.24C1122.34 698.236 1122.63 698.233 1122.92 698.229V669.021C1122.85 669.012 1122.79 669.001 1122.72 668.978C1122.65 668.955 1122.58 668.941 1122.5 668.928Z"
						fill="#D7D8D8" />
					<path id="Vector_14"
						d="M1093.41 692.841C1093.53 692.849 1093.65 692.855 1093.77 692.862V678.091C1093.63 679.35 1093.52 680.612 1093.45 681.872C1093.26 685.522 1093.41 689.184 1093.41 692.841Z"
						fill="#D7D8D8" />
					<path id="Vector_15"
						d="M1093.77 678.091C1093.8 677.744 1093.83 677.397 1093.88 677.05C1093.84 676.779 1093.8 676.514 1093.77 676.24V678.091Z"
						fill="#D7D8D8" />
					<path id="Vector_16"
						d="M1052.5 684.378C1052.5 684.691 1052.5 685.004 1052.49 685.317C1052.52 685.357 1052.53 685.403 1052.55 685.445C1052.72 684.443 1052.87 683.439 1052.99 682.433C1053.1 681.565 1053.2 680.695 1053.28 679.824C1053.1 680.557 1052.91 681.285 1052.69 682.009C1052.66 682.8 1052.59 683.59 1052.5 684.378Z"
						fill="#D7D8D8" />
					<path id="Vector_17"
						d="M1074.99 699.546C1074.92 698.605 1074.84 697.65 1074.78 696.695C1074.33 689.468 1073.64 682.243 1073.53 675.012C1073.48 672.149 1076.59 670.381 1078.51 668.26C1078.77 668.347 1079.03 668.434 1079.29 668.521C1079.94 678.044 1080.59 687.566 1081.25 697.088C1081.56 697.096 1081.87 697.105 1082.18 697.113C1082.28 696.327 1082.53 695.533 1082.47 694.756C1081.8 685.928 1081.14 677.099 1080.31 668.28C1080.2 667.1 1079.59 665.602 1078.57 664.891C1074.24 661.886 1072.18 658.214 1072.65 653.544C1072.69 653.117 1072.54 652.678 1072.48 652.243C1072.35 652.25 1072.22 652.258 1072.09 652.265V658.701C1070.33 656.941 1068.7 655.323 1067.06 653.686C1066.82 657.918 1066.85 701.061 1066.82 702.545C1068.11 702.693 1069.04 702.8 1069.41 702.806C1075.47 700.66 1084.05 700.246 1090.07 702.061C1089.94 702.444 1089.82 702.821 1089.71 703.157C1091.95 703.198 1094.19 703.235 1096.42 703.277C1096.99 702.843 1097.54 702.375 1098.2 702.125C1099.25 701.731 1100.45 701.631 1101.59 701.403L1101.44 701.021C1092.67 700.531 1083.9 700.043 1074.99 699.546Z"
						fill="#D7D8D8" />
					<path id="Vector_18"
						d="M1183.74 594.14C1180.81 592.895 1177.9 591.615 1175.54 590.589C1168.17 591.969 1161.2 593.275 1154.94 594.448C1155.42 629.93 1155.91 665.175 1156.4 700.42C1156.67 700.437 1156.93 700.454 1157.2 700.471C1157.28 699.747 1157.43 699.024 1157.44 698.3C1157.49 688.042 1157.65 677.783 1157.54 667.526C1157.43 657.351 1157.03 647.179 1156.79 637.005C1156.49 624.7 1156.29 612.394 1155.94 600.09C1155.81 595.499 1155.61 595.364 1160.91 594.261C1165.17 593.374 1169.54 592.872 1174.32 592.127C1175.65 628.99 1173.49 665.272 1177.42 701.438C1174.06 665.027 1176.8 628.576 1175.81 592.039C1179.08 594.041 1185.18 593.06 1184.45 598.479C1185.5 594.856 1185.49 594.881 1183.74 594.14Z"
						fill="#D7D8D8" />
					<path id="Vector_19"
						d="M1152.4 629.365C1151.18 626.303 1149.1 623.992 1146.46 621.745C1144.51 620.085 1143.23 617.882 1141.59 615.955C1141.04 615.3 1140.3 614.749 1139.33 613.856C1139.28 617.943 1135.89 620.087 1134.2 622.937C1132.99 624.253 1131.78 625.567 1130.57 626.883C1130.89 627.149 1131.28 627.325 1131.68 627.45C1131.28 627.327 1130.89 627.149 1130.57 626.883C1129.53 627.739 1127.67 628.559 1127.61 629.457C1127.46 631.947 1128.06 634.47 1128.36 636.98C1128.85 635.829 1128.91 634.709 1128.84 633.594C1128.61 629.291 1129.73 628.385 1135.66 628.587C1135.66 631.193 1135.7 633.823 1135.64 636.452C1135.62 637.301 1135.41 638.155 1135.19 638.989C1134.82 640.431 1133.97 641.871 1134.02 643.292C1134.19 647.537 1135.1 651.852 1129.9 655.551C1129.22 651.639 1128.59 648.043 1127.88 643.961V655.091C1124.04 653.514 1120.58 653.266 1116.71 653.85C1109.95 654.868 1103.04 655.178 1095.37 655.857V639.428C1090.89 640.206 1090.3 638.323 1090.34 635.904C1090.36 634.932 1090.21 633.959 1090.2 632.986C1090.07 624.042 1090 615.097 1089.76 606.154C1089.74 605.261 1088.9 603.826 1088.07 603.609C1085.6 602.96 1085.07 601.509 1085.04 599.769C1084.92 594.548 1084.91 589.326 1084.83 584.105C1084.82 583.632 1084.62 583.16 1084.52 582.688L1083.7 582.759V602.328C1077.79 600.661 1080.98 605.286 1078.67 606.497C1077.22 606.382 1075.44 606.22 1073.65 606.106C1071.59 605.974 1070.03 606.324 1070.16 608.492C1070.27 610.325 1070.18 612.164 1070.26 614C1070.69 624.968 1071.15 635.935 1071.61 646.902C1071.65 647.842 1071.75 648.782 1071.82 649.722C1072.13 646.385 1072.06 643.12 1072.14 639.855C1072.26 635.011 1072.72 630.165 1072.6 625.327C1072.49 620.469 1071.83 615.62 1071.45 610.765C1071.26 608.357 1072.81 607.241 1075.55 607.562C1079.01 607.968 1082.42 608.643 1085.86 609.184C1086.44 609.275 1087.03 609.277 1087.62 609.32C1087.68 609.092 1087.74 608.863 1087.81 608.635C1086.26 608.175 1084.72 607.698 1083.16 607.259C1080.72 606.57 1081.51 605.232 1081.98 603.922C1087.88 603.584 1088.65 604.054 1088.75 608.667C1088.98 618.921 1089.07 629.177 1089.33 639.43C1089.34 640.023 1090.34 641.092 1090.89 641.1C1093.25 641.13 1093.77 642.255 1093.77 643.841C1093.78 647.866 1093.78 651.891 1093.78 656.673C1091.52 656.673 1088.56 656.879 1085.67 656.616C1082.75 656.35 1082.25 657.361 1082.32 659.461C1082.52 665.48 1082.49 671.504 1082.61 677.527C1082.66 679.833 1082.87 682.137 1083 684.442C1083.68 683.459 1083.56 682.51 1083.54 681.56C1083.37 674.398 1083.2 667.235 1083.09 660.072C1083.07 658.88 1082.91 657.471 1085.26 657.5C1089.29 657.547 1093.33 657.513 1097.86 657.513V670.116C1096.66 670.787 1094.86 671.255 1094.71 671.961C1094.36 673.644 1094.09 675.343 1093.88 677.049C1094.67 682.912 1095.5 688.231 1095.99 693.567C1096.19 695.755 1097.26 696.865 1100.19 697.701C1099.97 696.069 1099.67 694.832 1099.66 693.593C1099.58 681.734 1099.54 669.875 1099.58 658.015C1099.59 657.487 1100.5 656.555 1101.08 656.496C1106.86 655.923 1112.66 655.564 1118.43 654.992C1120.74 654.763 1121.45 655.406 1121.46 657.264C1121.46 660.265 1121.48 663.266 1121.49 666.267C1121.72 666.277 1121.95 666.281 1122.17 666.292C1122.42 666.305 1122.67 666.338 1122.92 666.373V655.262C1125.56 655.701 1127.65 655.929 1129.65 656.411C1132.09 656.999 1133.47 658.208 1133.53 660.609C1133.58 662.469 1133.65 664.328 1133.71 666.188C1133.92 666.147 1134.15 666.133 1134.37 666.134C1135.03 666.137 1135.7 666.181 1136.36 666.226C1136.24 657.644 1136.41 649.022 1137.4 640.401C1138.23 640.475 1138.78 640.525 1139.16 640.558C1138.93 637.32 1138.71 634.255 1138.49 631.19C1138.8 631.14 1139.1 631.09 1139.41 631.04C1141.07 632.906 1142.73 634.773 1144.59 636.856C1146.18 633.3 1147.61 630.132 1149.03 626.964C1149.31 626.966 1149.59 626.968 1149.86 626.971C1150.43 628.436 1151.45 629.89 1151.5 631.367C1151.68 637.109 1151.55 642.858 1151.55 648.605C1151.55 656.669 1151.55 664.734 1151.55 672.799C1152.05 666.525 1151.98 660.253 1152.07 653.981C1152.17 647.256 1152.33 640.528 1152.69 633.81C1152.77 632.285 1153.04 630.99 1152.4 629.365ZM1144.31 634.042C1140.26 631.918 1138.2 628.797 1138.27 625.367C1138.2 628.797 1140.26 631.917 1144.31 634.042ZM1143.16 619.77C1144.29 620.881 1145.41 621.983 1146.48 623.115C1145.41 621.984 1144.29 620.881 1143.16 619.77ZM1147.8 627.544C1147.5 628.18 1147.18 628.81 1146.85 629.436C1147.18 628.809 1147.5 628.18 1147.8 627.544C1148.04 627.028 1148.26 626.329 1148.27 625.734C1148.26 626.328 1148.04 627.028 1147.8 627.544Z"
						fill="#D7D8D8" />
					<path id="Vector_20"
						d="M1028.81 701.996C1028.78 701.874 1028.76 701.744 1028.78 701.601C1028.85 701.068 1028.87 700.536 1028.88 700.002C1027.5 699.457 1026.5 698.521 1026.37 697.279C1025.71 690.931 1025.14 684.577 1024.57 678.222C1023.9 670.635 1023.32 663.042 1022.52 655.465C1022.44 654.71 1021.23 653.774 1020.27 653.399C1017.32 652.238 1014.23 651.308 1010.91 650.195C1008.82 651.552 1006.45 653.096 1004.02 654.668C1002.84 653.366 1001.91 652.342 1000.78 651.098C1000.57 651.33 1000.38 651.544 1000.18 651.762C1000.17 651.75 1000.16 651.739 1000.15 651.728C999.789 652.144 999.457 652.525 999.135 652.892C998.801 653.276 998.478 653.646 998.169 654C997.966 654.232 997.766 654.461 997.567 654.69C997.569 654.688 997.57 654.686 997.572 654.685C997.571 654.687 997.569 654.689 997.567 654.69C997.234 655.036 996.899 655.381 996.558 655.734C994.852 657.097 993.509 658.402 994.591 660.725C994.97 661.537 993.614 662.888 993.11 664.012C992.925 664.425 992.917 664.89 992.829 665.332C992.971 665.359 993.113 665.387 993.256 665.415C993.346 665.363 993.442 665.321 993.545 665.293C993.658 665.277 993.772 665.261 993.885 665.246C993.932 665.246 993.975 665.259 994.02 665.264C994.444 664.087 995.085 662.912 995.099 661.731C995.14 658.376 995.851 657.691 1000.5 657.675V662.999C1002.96 663.012 1003.48 663.911 1003.56 665.158C1003.66 665.154 1003.76 665.159 1003.85 665.175V663.168C1000.67 661.975 1000.27 660.944 1002 657.775C1006.76 658.219 1006.79 658.218 1006.92 662.005C1006.96 663.01 1006.96 664.014 1006.95 665.02C1006.95 665.02 1006.96 665.021 1006.96 665.021C1007.32 661.73 1008.56 658.312 1004.72 655.392C1006.72 653.97 1008.48 652.71 1010.25 651.45L1011.3 651.761C1011.56 656.116 1011.85 661.112 1012.11 665.454C1013.08 665.571 1015.5 665.341 1015.83 665.472C1016.72 665.237 1015.81 700.977 1016.12 702.447C1016.13 702.494 1016.13 702.543 1016.13 702.592C1017.05 702.603 1022.84 702.565 1028.99 702.522C1028.97 702.478 1028.95 702.441 1028.94 702.394C1028.87 702.272 1028.83 702.14 1028.81 701.996Z"
						fill="#D7D8D8" />
					<path id="Vector_21"
						d="M1030.23 646.468V651.541C1028.95 651.673 1027.83 651.788 1026.54 651.922C1027.03 666.84 1026.49 681.624 1029.32 696.26C1029.5 694.141 1028.84 692.064 1028.75 689.97C1028.25 678.382 1027.85 666.791 1027.52 655.2C1027.5 654.414 1028.33 653.611 1028.76 652.816C1029.55 653.343 1030.34 653.87 1030.57 654.023C1031.23 653.667 1032.12 652.78 1032.88 652.851C1037.23 653.259 1036.9 651.157 1036.37 648.77C1036.21 648.035 1036.35 647.254 1036.35 646.513C1041.42 646.271 1041.58 646.355 1041.83 650.066C1041.86 650.476 1041.88 650.888 1041.9 651.298C1042.19 651.211 1042.51 651.219 1042.8 651.325C1042.67 649.579 1042.54 647.825 1042.4 646.082C1038.25 645.064 1034.23 644.163 1030.23 646.468Z"
						fill="#D7D8D8" />
					<path id="Vector_22"
						d="M1308.53 658.952C1308.12 658.069 1307.71 657.186 1307.3 656.304C1306.33 656.841 1305.43 657.529 1304.36 657.874C1303.21 658.249 1301.91 658.43 1300.67 658.464C1299.34 658.5 1298.01 658.176 1296.68 658.171C1294.02 658.161 1291.36 658.362 1288.71 658.251C1287.96 658.22 1286.55 657.292 1286.63 656.988C1287.59 653.287 1283.8 650.842 1283.17 647.591C1283.08 647.154 1282.5 646.782 1281.96 646.155C1281.39 646.846 1281.01 647.32 1280.62 647.794C1280.34 648.07 1280.06 648.346 1279.78 648.622C1278.53 649.975 1277.28 651.33 1275.75 652.991C1277.92 652.843 1279.57 652.73 1281.5 652.599V676.582C1281.82 676.584 1282.14 676.586 1282.46 676.588V652.572C1284.09 653.183 1285.01 653.526 1286.09 653.928C1285.62 655.572 1287.24 657.913 1283.43 658.334C1283.94 659.173 1284.35 659.858 1284.61 660.299C1288.84 658.899 1293.04 659.033 1297.23 659.304C1297.61 659.328 1298.24 660.077 1298.2 660.449C1298.1 661.327 1297.96 662.202 1297.8 663.076C1298.26 663.092 1298.72 663.106 1299.18 663.123C1299.18 662.372 1299.41 661.317 1299.83 659.79C1299.41 661.317 1299.18 662.372 1299.18 663.123C1301 663.191 1302.83 663.26 1304.65 663.306C1304.77 663.309 1304.89 663.314 1305.01 663.317C1305.32 663.325 1305.63 663.33 1305.94 663.335C1307.04 661.037 1304.59 658.818 1306.25 656.936C1306.62 656.939 1306.99 656.942 1307.36 656.944C1307.59 657.855 1307.82 658.767 1308.05 659.678C1308.23 659.629 1308.4 659.579 1308.58 659.53C1308.56 659.338 1308.54 659.145 1308.53 658.952ZM1278.48 652C1278.6 651.668 1278.73 651.355 1278.84 651.056C1278.73 651.355 1278.61 651.668 1278.48 652Z"
						fill="#D7D8D8" />
					<path id="Vector_23"
						d="M1158.87 695.73C1159.01 695.73 1159.15 695.729 1159.29 695.729C1159.29 669.269 1159.29 642.808 1159.29 616.346C1159.15 616.346 1159.01 616.347 1158.87 616.347C1158.87 642.809 1158.87 669.269 1158.87 695.73Z"
						fill="#D7D8D8" />
					<path id="Vector_24"
						d="M1102.08 654.373C1102.26 653.717 1102.44 653.06 1102.68 652.174C1107.3 651.775 1112.22 649.905 1117.16 652.375C1117.57 652.58 1118.34 652.434 1118.86 652.267C1119.01 652.22 1119.01 651.245 1118.82 651.181C1117.08 650.561 1115.31 649.717 1113.48 649.589C1111.53 649.451 1109.52 650.037 1107.53 650.271C1104.25 650.656 1100.97 651.01 1097.7 651.378C1097.66 651.637 1097.62 651.896 1097.58 652.155C1098.64 652.469 1099.76 652.698 1100.75 653.129C1101.3 653.37 1101.64 653.948 1102.08 654.373Z"
						fill="#D7D8D8" />
					<path id="Vector_25"
						d="M1165.55 633.36C1165.42 627.924 1165.12 622.492 1164.84 617.059C1164.84 629.611 1164.84 642.163 1164.84 654.715C1165.58 647.594 1165.71 640.475 1165.55 633.36Z"
						fill="#D7D8D8" />
					<path id="Vector_26"
						d="M1164.59 612.082C1164.67 613.741 1164.76 615.4 1164.84 617.059C1164.84 615.399 1164.84 613.74 1164.84 612.08C1164.76 612.081 1164.68 612.081 1164.59 612.082Z"
						fill="#D7D8D8" />
					<path id="Vector_27"
						d="M1162.37 700.706C1162.47 700.717 1162.58 700.728 1162.68 700.739C1162.68 689.229 1162.68 677.719 1162.68 666.209C1162.58 666.211 1162.47 666.213 1162.37 666.215C1162.37 677.712 1162.37 689.21 1162.37 700.706Z"
						fill="#D7D8D8" />
					<path id="Vector_28"
						d="M1161.32 597.894C1161.32 602.369 1161.39 606.846 1161.31 611.321C1161.2 617.4 1160.98 623.478 1160.81 629.556C1160.81 629.557 1160.81 629.558 1160.81 629.558C1160.81 634.387 1160.81 639.214 1160.81 644.039C1160.81 639.208 1160.81 634.379 1160.81 629.55C1161.12 628.29 1161.63 627.035 1161.68 625.768C1161.92 620.309 1162.06 614.845 1162.16 609.383C1162.23 605.555 1162.17 601.725 1162.17 597.896C1161.89 597.895 1161.6 597.895 1161.32 597.894Z"
						fill="#D7D8D8" />
					<path id="Vector_29"
						d="M1152.12 700.91C1152.38 700.902 1152.64 700.894 1152.9 700.884C1152.9 693.396 1152.9 685.907 1152.9 678.419C1152.64 678.42 1152.38 678.422 1152.12 678.423C1152.12 685.919 1152.12 693.414 1152.12 700.91Z"
						fill="#D7D8D8" />
					<path id="Vector_30"
						d="M1236.05 646.542C1236.05 648.22 1235.5 649.966 1236.11 651.092C1237.03 651.186 1237.95 651.272 1238.86 651.301C1240.23 651.346 1241.6 651.351 1242.98 651.345C1243.71 650.077 1244.07 648.025 1243.83 645.8C1241.24 646.048 1238.64 646.295 1236.05 646.542Z"
						fill="#D7D8D8" />
					<path id="Vector_31"
						d="M1172.06 701.303C1172.18 701.296 1172.3 701.288 1172.43 701.281C1172.43 691.569 1172.43 681.857 1172.43 672.144C1172.3 672.118 1172.18 672.093 1172.06 672.066C1172.06 681.813 1172.06 691.558 1172.06 701.303Z"
						fill="#D7D8D8" />
					<path id="Vector_32"
						d="M1171.12 594.806C1171 594.802 1170.87 594.797 1170.74 594.793C1170.74 602.289 1170.74 609.785 1170.74 617.281C1170.87 617.286 1171 617.292 1171.12 617.297C1171.12 609.8 1171.12 602.303 1171.12 594.806Z"
						fill="#D7D8D8" />
					<path id="Vector_33"
						d="M1235.73 632.29C1235.87 633.6 1235.89 634.633 1236.13 635.628C1236.22 635.993 1236.81 636.275 1237.19 636.593C1237.18 636.594 1237.18 636.595 1237.18 636.595C1237.17 636.594 1237.2 636.605 1237.2 636.605C1237.2 636.601 1237.2 636.597 1237.2 636.593C1238.12 636.498 1239.06 636.406 1239.99 636.308C1244.61 635.823 1244.75 635.651 1243.59 631.472C1240.97 631.743 1238.32 632.021 1235.73 632.29Z"
						fill="#D7D8D8" />
					<path id="Vector_34"
						d="M1171.01 642.844C1171.01 642.84 1171.01 642.836 1171.01 642.832C1171.01 642.832 1171.01 642.833 1171.01 642.833L1171.01 642.844Z"
						fill="#D7D8D8" />
					<path id="Vector_35"
						d="M1171.01 620.622C1171.01 628.024 1171.01 635.428 1171.01 642.831C1171.32 642.132 1171.91 641.427 1171.89 640.735C1171.69 634.027 1171.4 627.32 1171.13 620.615C1171.09 620.617 1171.05 620.62 1171.01 620.622Z"
						fill="#D7D8D8" />
					<path id="Vector_36"
						d="M1167.16 616.894C1167.3 616.895 1167.45 616.896 1167.59 616.897C1167.59 609.911 1167.59 602.924 1167.59 595.938C1167.45 595.936 1167.3 595.933 1167.16 595.931C1167.16 602.918 1167.16 609.907 1167.16 616.894Z"
						fill="#D7D8D8" />
					<path id="Vector_37"
						d="M1243.5 638.101C1241.13 638.326 1238.98 638.53 1236.9 638.729C1236.9 640.744 1236.9 642.458 1236.9 644.156C1242.75 644.342 1243.85 643.355 1243.5 638.101ZM1237.66 643.326C1237.14 639.086 1237.78 638.556 1242.51 639.281C1242.54 643.091 1241.73 643.767 1237.66 643.326Z"
						fill="#D7D8D8" />
					<path id="Vector_38"
						d="M1171.01 665.998C1171.01 658.277 1171.01 650.555 1171.01 642.833C1171.01 642.833 1171.01 642.844 1171.01 642.85C1171.01 650.57 1171.01 658.285 1171.01 665.998Z"
						fill="#D7D8D8" />
					<path id="Vector_39"
						d="M1168.37 635.17C1168.28 635.175 1168.18 635.179 1168.08 635.184C1168.08 640.081 1168.08 644.977 1168.08 649.874C1168.18 649.873 1168.28 649.871 1168.37 649.87C1168.37 644.97 1168.37 640.07 1168.37 635.17Z"
						fill="#D7D8D8" />
					<path id="Vector_40"
						d="M1168.36 669.053C1168.48 669.053 1168.61 669.053 1168.73 669.053C1168.73 664.792 1168.73 660.531 1168.73 656.27C1168.61 656.27 1168.48 656.27 1168.36 656.27C1168.36 660.531 1168.36 664.792 1168.36 669.053Z"
						fill="#D7D8D8" />
					<path id="Vector_41"
						d="M1165.41 687.314C1165.57 684.626 1165.81 680.529 1166.06 676.431C1165.84 676.428 1165.63 676.426 1165.41 676.422C1165.41 680.525 1165.41 684.629 1165.41 687.314Z"
						fill="#D7D8D8" />
					<path id="Vector_42"
						d="M1158.42 609.378C1158.57 609.414 1158.72 609.449 1158.87 609.485C1158.87 605.614 1158.87 601.744 1158.87 597.873C1158.72 597.877 1158.57 597.882 1158.42 597.887C1158.42 601.717 1158.42 605.548 1158.42 609.378Z"
						fill="#D7D8D8" />
					<path id="Vector_43"
						d="M1168.95 700.484C1169.05 700.483 1169.14 700.482 1169.24 700.481C1169.24 696.4 1169.24 692.317 1169.24 688.235C1169.14 688.235 1169.05 688.235 1168.95 688.235C1168.95 692.318 1168.95 696.402 1168.95 700.484Z"
						fill="#D7D8D8" />
					<path id="Vector_44"
						d="M1091.07 684.498C1091.07 688.155 1091.07 691.812 1091.07 695.47C1091.16 695.464 1091.26 695.459 1091.35 695.453C1091.35 691.783 1091.35 688.114 1091.35 684.444C1091.26 684.462 1091.16 684.481 1091.07 684.498Z"
						fill="#D7D8D8" />
				</g>
				<path id="stad gebouw1"
					d="M985.867 665.07V705.882H1014.59V665.07H985.867ZM999.088 668.067H1001.45V672.056H999.088V668.067ZM998.991 674.937H1001.35V678.925H998.991V674.937ZM998.991 681.738H1001.35V685.727H998.991V681.738ZM998.991 688.418H1001.35V692.408H998.991V688.418ZM991.033 699.378H988.672V695.389H991.033V699.378ZM991.033 692.407H988.672V688.417H991.033V692.407ZM991.033 685.727H988.672V681.738H991.033V685.727ZM991.033 678.925H988.672V674.937H991.033V678.925ZM991.131 672.056H988.77V668.067H991.131V672.056ZM996.153 699.378H993.792V695.389H996.153V699.378ZM996.153 692.407H993.792V688.417H996.153V692.407ZM996.153 685.727H993.792V681.738H996.153V685.727ZM996.153 678.925H993.792V674.937H996.153V678.925ZM996.251 672.056H993.89V668.067H996.251V672.056ZM1002.38 705.235H997.966V695.387H1002.38V705.235ZM1006.47 699.378H1004.11V695.389H1006.47V699.378ZM1006.47 692.407H1004.11V688.417H1006.47V692.407ZM1006.47 685.727H1004.11V681.738H1006.47V685.727ZM1006.47 678.925H1004.11V674.937H1006.47V678.925ZM1006.57 672.056H1004.21V668.067H1006.57V672.056ZM1011.59 699.378H1009.23V695.389H1011.59V699.378ZM1011.59 692.407H1009.23V688.417H1011.59V692.407ZM1011.59 685.727H1009.23V681.738H1011.59V685.727ZM1011.59 678.925H1009.23V674.937H1011.59V678.925ZM1011.69 672.056H1009.33V668.067H1011.69V672.056Z"
					fill="#D0D1D0" />
				<path id="stad gebouw3"
					d="M1115.96 666.179V705.582H1143.69V666.179H1115.96ZM1128.72 669.072H1131V672.924H1128.72V669.072ZM1128.63 675.704H1130.91V679.555H1128.63V675.704ZM1128.63 682.271H1130.91V686.122H1128.63V682.271ZM1128.63 688.721H1130.91V692.573H1128.63V688.721ZM1120.95 699.303H1118.67V695.452H1120.95V699.303ZM1120.95 692.572H1118.67V688.72H1120.95V692.572ZM1120.95 686.123H1118.67V682.272H1120.95V686.123ZM1120.95 679.555H1118.67V675.704H1120.95V679.555ZM1121.04 672.924H1118.76V669.072H1121.04V672.924ZM1125.89 699.303H1123.61V695.452H1125.89V699.303ZM1125.89 692.572H1123.61V688.72H1125.89V692.572ZM1125.89 686.123H1123.61V682.272H1125.89V686.123ZM1125.89 679.555H1123.61V675.704H1125.89V679.555ZM1125.99 672.924H1123.71V669.072H1125.99V672.924ZM1131.9 704.957H1127.64V695.45H1131.9V704.957ZM1135.85 699.303H1133.57V695.452H1135.85V699.303ZM1135.85 692.572H1133.57V688.72H1135.85V692.572ZM1135.85 686.123H1133.57V682.272H1135.85V686.123ZM1135.85 679.555H1133.57V675.704H1135.85V679.555ZM1135.95 672.924H1133.67V669.072H1135.95V672.924ZM1140.8 699.303H1138.52V695.452H1140.8V699.303ZM1140.8 692.572H1138.52V688.72H1140.8V692.572ZM1140.8 686.123H1138.52V682.272H1140.8V686.123ZM1140.8 679.555H1138.52V675.704H1140.8V679.555ZM1140.89 672.924H1138.61V669.072H1140.89V672.924Z"
					fill="#D0D1D0" />
				<path id="stad gebouw4"
					d="M1186.01 657.149V705.757H1203.67V657.149H1186.01ZM1198.81 662.914H1201.09V666.777H1198.81V662.914ZM1198.81 669.141H1201.09V673.004H1198.81V669.141ZM1198.71 675.794H1201V679.655H1198.71V675.794ZM1198.71 682.378H1201V686.241H1198.71V682.378ZM1198.71 688.847H1201V692.709H1198.71V688.847ZM1191.01 699.46H1188.72V695.597H1191.01V699.46ZM1191.01 692.71H1188.72V688.848H1191.01V692.71ZM1191.01 686.242H1188.72V682.379H1191.01V686.242ZM1191.01 679.654H1188.72V675.793H1191.01V679.654ZM1191.1 673.004H1188.82V669.141H1191.1V673.004ZM1191.1 666.777H1188.82V662.914H1191.1V666.777ZM1195.97 699.46H1193.68V695.597H1195.97V699.46ZM1195.97 692.71H1193.68V688.848H1195.97V692.71ZM1195.97 686.242H1193.68V682.379H1195.97V686.242ZM1195.97 679.654H1193.68V675.793H1195.97V679.654ZM1196.06 673.004H1193.78V669.141H1196.06V673.004ZM1196.06 666.777H1193.78V662.914H1196.06V666.777ZM1201.99 705.13H1197.72V695.595H1201.99V705.13Z"
					fill="#A6A8A7" />
				<path id="stad gebouw5"
					d="M1214.83 650.951V705.888H1253.49V650.951H1214.83ZM1232.62 654.985H1235.8V660.355H1232.62V654.985ZM1232.49 664.232H1235.67V669.601H1232.49V664.232ZM1232.49 673.386H1235.67V678.756H1232.49V673.386ZM1232.49 682.38H1235.67V687.749H1232.49V682.38ZM1221.78 697.134H1218.6V691.764H1221.78V697.134ZM1221.78 687.749H1218.6V682.38H1221.78V687.749ZM1221.78 678.757H1218.6V673.387H1221.78V678.757ZM1221.78 669.6H1218.6V664.231H1221.78V669.6ZM1221.91 660.355H1218.73V654.985H1221.91V660.355ZM1228.67 697.134H1225.49V691.764H1228.67V697.134ZM1228.67 687.749H1225.49V682.38H1228.67V687.749ZM1228.67 678.757H1225.49V673.387H1228.67V678.757ZM1228.67 669.6H1225.49V664.231H1228.67V669.6ZM1228.8 660.355H1225.63V654.985H1228.8V660.355ZM1237.05 705.017H1231.11V691.761H1237.05V705.017ZM1242.56 697.134H1239.38V691.764H1242.56V697.134ZM1242.56 687.749H1239.38V682.38H1242.56V687.749ZM1242.56 678.757H1239.38V673.387H1242.56V678.757ZM1242.56 669.6H1239.38V664.231H1242.56V669.6ZM1242.69 660.355H1239.51V654.985H1242.69V660.355ZM1249.45 697.134H1246.28V691.764H1249.45V697.134ZM1249.45 687.749H1246.28V682.38H1249.45V687.749ZM1249.45 678.757H1246.28V673.387H1249.45V678.757ZM1249.45 669.6H1246.28V664.231H1249.45V669.6ZM1249.59 660.355H1246.41V654.985H1249.59V660.355Z"
					fill="#D0D1D0" />
				<path id="stad gebouw2"
					d="M1028.59 650.623V705.559H1067.26V650.623H1028.59ZM1046.38 654.656H1049.56V660.026H1046.38V654.656ZM1046.25 663.904H1049.43V669.272H1046.25V663.904ZM1046.25 673.058H1049.43V678.431H1046.25V673.058ZM1046.25 682.054H1049.43V687.421H1046.25V682.054ZM1035.54 696.805H1032.36V691.435H1035.54V696.805ZM1035.54 687.421H1032.36V682.054H1035.54V687.421ZM1035.54 678.431H1032.36V673.058H1035.54V678.431ZM1035.54 669.272H1032.36V663.904H1035.54V669.272ZM1035.67 660.027H1032.5V654.657H1035.67V660.027ZM1042.43 696.805H1039.26V691.435H1042.43V696.805ZM1042.43 687.421H1039.26V682.054H1042.43V687.421ZM1042.43 678.431H1039.26V673.058H1042.43V678.431ZM1042.43 669.272H1039.26V663.904H1042.43V669.272ZM1042.57 660.027H1039.39V654.657H1042.57V660.027ZM1050.81 704.688H1044.87V691.432H1050.81V704.688ZM1056.32 696.805H1053.14V691.435H1056.32V696.805ZM1056.32 687.421H1053.14V682.054H1056.32V687.421ZM1056.32 678.431H1053.14V673.058H1056.32V678.431ZM1056.32 669.272H1053.14V663.904H1056.32V669.272ZM1056.45 660.027H1053.28V654.657H1056.45V660.027ZM1063.21 696.805H1060.04V691.435H1063.21V696.805ZM1063.21 687.421H1060.04V682.054H1063.21V687.421ZM1063.21 678.431H1060.04V673.058H1063.21V678.431ZM1063.21 669.272H1060.04V663.904H1063.21V669.272ZM1063.35 660.027H1060.17V654.657H1063.35V660.027Z"
					fill="#A6A8A7" />
			</g>
			<path id="horizon lijnlinks" d="M612 706H35" stroke="#A6A8AB" stroke-miterlimit="10" />
			<g id="windmolen donker">
				<path id="windmolen"
					d="M139.324 583.693L139.149 583.383L138.911 583.032L138.642 582.712L138.352 582.42L138.042 582.164L137.712 581.945L137.658 581.912L137.312 581.729L136.954 581.589L136.589 581.492L136.516 581.479L136.145 581.426L135.911 581.424L131.619 582.341L131.433 582.319L131.238 582.309L131.044 582.311L130.875 582.33L130.749 582.361L130.26 582.519L128.882 582.987L127.523 583.447L126.182 583.904L124.86 584.352L123.554 584.794L122.267 585.231L120.996 585.663L119.742 586.089L119.622 586.154L119.152 586.494L118.833 586.942L118.701 587.452L118.687 587.579L118.696 589.717L118.953 591.83L119.459 593.916L119.708 594.415L120.109 594.867L120.615 595.227L120.705 595.284L121.219 595.489L121.31 595.516L121.442 595.539L123.835 595.856L126.201 596.168L126.355 596.184L126.515 596.189L126.674 596.186L126.811 596.175L126.914 596.154L126.957 596.142L126.866 601.57L126.85 602.452C126.85 602.452 126.546 617.291 126.569 620.742C126.585 623.081 126.586 625.423 126.493 627.761C126.452 628.785 126.523 629.953 126.364 631.037L124.771 725H134.296L133.494 601.379L134.603 594.033L135.024 593.916L136.237 593.582L136.742 593.386L136.869 593.334L137.389 592.963L137.806 592.482L138.07 591.937L138.122 591.828L138.692 589.537L138.792 588.803L138.847 588.751L139.095 588.475L139.311 588.165L139.496 587.829L139.521 587.77L139.669 587.412L139.729 587.211L139.324 583.693Z"
					fill="#828487" />
				<path id="wieken"
					d="M171.505 543.66C171.371 543.518 171.238 543.374 171.105 543.231C170.212 543.764 169.198 544.162 168.451 544.855C165.95 547.174 163.492 549.546 161.113 551.994C154.732 558.562 148.462 565.243 142.02 571.748C139.503 574.29 137.134 576.735 136.871 580.61C136.861 580.752 136.802 580.927 136.724 581.11C136.373 581.144 136.024 581.24 135.691 581.413C135.433 581.547 135.216 581.725 135.018 581.918C120.57 577.179 105.065 572.07 90.7169 567.404C89.5823 567.036 88.3449 566.993 87.1555 566.799C87.0746 566.978 86.9947 567.157 86.9138 567.336C87.7367 567.973 88.4818 568.777 89.3976 569.218C92.4586 570.693 95.5517 572.108 98.6836 573.419C107.088 576.937 115.553 580.309 123.922 583.907C127.191 585.313 130.319 586.616 133.956 585.403C134.089 585.359 134.27 585.351 134.466 585.354C134.896 586.182 135.666 586.707 136.513 586.857C141.235 601.491 146.284 617.21 151.006 631.721C151.38 632.869 152.074 633.909 152.619 634.999C152.809 634.959 153 634.92 153.189 634.88C153.213 633.83 153.415 632.746 153.228 631.736C152.603 628.359 151.912 624.99 151.114 621.65C148.974 612.688 146.681 603.763 144.625 594.782C143.822 591.274 143.021 587.942 139.914 585.674C139.8 585.59 139.685 585.444 139.571 585.278C139.918 584.558 139.964 583.706 139.653 582.921C149.427 571.137 159.939 558.497 169.609 546.778C170.373 545.851 170.879 544.705 171.505 543.66Z"
					fill="#828487" />
			</g>
			<g id="windmolen licht">
				<path id="windmolen_2"
					d="M72.4105 565.462L72.2357 565.152L71.997 564.801L71.7283 564.481L71.4387 564.19L71.1281 563.933L70.7985 563.714L70.7446 563.681L70.3981 563.498L70.0405 563.358L69.675 563.261L69.6021 563.248L69.2316 563.195L68.9969 563.193L64.7054 564.111L64.5196 564.088L64.3239 564.078L64.1301 564.08L63.9614 564.099L63.8355 564.13L63.3461 564.288L61.9679 564.756L60.6097 565.216L59.2684 565.673L57.9461 566.121L56.6398 566.563L55.3534 567L54.0821 567.432L52.8287 567.858L52.7079 567.923L52.2385 568.263L51.9189 568.711L51.787 569.221L51.7731 569.348L51.782 571.486L52.0397 573.599L52.5451 575.685L52.7937 576.185L53.1952 576.636L53.7016 576.996L53.7915 577.053L54.3048 577.258L54.3967 577.285L54.5285 577.308L56.9214 577.625L59.2874 577.937L59.4412 577.953L59.601 577.958L59.7598 577.955L59.8976 577.944L60.0005 577.924L60.0434 577.911L59.9525 583.339L59.9365 584.221C59.9365 584.221 59.6319 599.06 59.6549 602.511C59.6709 604.85 59.6719 607.192 59.579 609.53C59.5381 610.554 59.609 611.722 59.4502 612.806L57.8572 706.769H67.3819L66.58 583.148L67.6896 575.802L68.11 575.685L69.3234 575.351L69.8278 575.155L69.9556 575.103L70.475 574.732L70.8924 574.251L71.1561 573.706L71.208 573.597L71.7783 571.306L71.8782 570.572L71.9331 570.52L72.1808 570.244L72.3975 569.934L72.5822 569.598L72.6072 569.539L72.755 569.181L72.8149 568.98L72.4105 565.462Z"
					fill="#D9DADB" />
				<path id="wieken_2"
					d="M104.591 525.429C104.457 525.287 104.324 525.143 104.192 525C103.299 525.533 102.284 525.931 101.537 526.624C99.0362 528.943 96.5783 531.315 94.1994 533.763C87.8186 540.331 81.5487 547.012 75.106 553.517C72.5892 556.059 70.2203 558.504 69.9576 562.379C69.9476 562.521 69.8877 562.696 69.8098 562.879C69.4593 562.913 69.1097 563.009 68.7772 563.182C68.5195 563.316 68.3018 563.494 68.104 563.687C53.6566 558.948 38.1516 553.839 23.8031 549.173C22.6686 548.805 21.4312 548.762 20.2417 548.568C20.1608 548.747 20.0809 548.926 20 549.105C20.8229 549.742 21.568 550.546 22.4838 550.987C25.5449 552.462 28.6379 553.877 31.7698 555.188C40.174 558.706 48.6391 562.078 57.0083 565.676C60.2771 567.082 63.4051 568.385 67.0424 567.172C67.1752 567.128 67.356 567.12 67.5517 567.123C67.9822 567.951 68.7522 568.476 69.5991 568.626C74.321 583.26 79.3705 598.979 84.0924 613.49C84.4659 614.638 85.16 615.678 85.7053 616.768C85.8951 616.728 86.0858 616.689 86.2756 616.649C86.2996 615.599 86.5013 614.515 86.3146 613.505C85.6894 610.128 84.9983 606.759 84.2003 603.419C82.06 594.457 79.767 585.532 77.7116 576.551C76.9087 573.043 76.1077 569.711 73.0007 567.443C72.8859 567.359 72.771 567.213 72.6572 567.047C73.0047 566.327 73.0506 565.475 72.7391 564.69C82.5135 552.906 93.0249 540.266 102.695 528.547C103.459 527.62 103.965 526.474 104.591 525.429Z"
					fill="#D9DADB" />
			</g>
		</g>
		<g id="diagram">
			<path id="radar 1"
				d="M839.342 91.2202L853.371 77.5483C855.723 75.2697 858.02 72.9911 860.415 70.7114C861.636 69.6031 863.305 68.7249 865.07 68.8769C866.811 68.9989 868.334 69.9012 869.72 70.6874C875.416 73.8553 881.216 76.8361 887.04 79.773C888.499 80.5182 889.946 81.2144 891.42 81.9946C892.147 82.4127 892.858 82.9198 893.417 83.605C893.974 84.2922 894.316 85.1585 894.402 86.0237C894.506 86.89 894.413 87.7442 894.262 88.5654L893.833 90.9711L893.023 95.7925C891.981 102.228 891.056 108.689 889.942 115.128L889.516 117.542C889.367 118.35 889.244 119.105 889.264 119.874C889.256 121.412 889.965 122.784 891.153 123.783C892.314 124.773 893.778 125.634 895.086 126.59C896.427 127.524 897.759 128.473 899.078 129.438C904.365 133.287 909.485 137.368 914.421 141.664C916.891 143.81 919.312 146.016 921.678 148.275C922.767 149.337 924.103 149.921 925.539 149.702C926.966 149.53 928.433 148.751 929.957 148.156L948.026 140.662L952.543 138.788C953.304 138.466 954.152 138.118 955.064 137.957C955.972 137.777 957.005 137.805 957.948 138.134C959.864 138.795 961.022 140.39 962.047 141.563L965.232 145.267L977.996 160.111C978.564 160.797 979.11 161.56 979.475 162.487C979.841 163.404 979.997 164.491 979.824 165.487C979.67 166.486 979.295 167.377 978.859 168.168L977.564 170.323L972.492 178.693L967.42 187.062L964.884 191.247C964.068 192.546 963.531 193.802 963.624 195.022C963.693 196.26 964.321 197.452 965.256 198.754C966.182 200.111 967.096 201.476 967.99 202.853C969.78 205.607 971.508 208.402 973.173 211.233C976.505 216.894 979.589 222.699 982.449 228.611L983.511 230.832C983.852 231.559 984.163 232.15 984.545 232.668C985.309 233.668 986.123 234.09 987.467 234.172L997.126 234.053L1006.9 233.997L1011.77 233.917L1014.2 233.848C1014.58 233.835 1015.04 233.82 1015.53 233.828C1016.01 233.844 1016.51 233.874 1017.03 233.969C1018.05 234.13 1019.23 234.571 1020.16 235.37C1021.09 236.162 1021.68 237.152 1022.09 238.06C1022.28 238.512 1022.45 238.982 1022.58 239.404L1022.96 240.567L1023.7 242.891C1024.71 245.988 1025.73 249.074 1026.78 252.148C1027.83 255.222 1028.91 258.281 1030.03 261.322C1030.32 262.111 1030.59 262.761 1030.9 263.719C1031.19 264.635 1031.41 265.629 1031.43 266.726C1031.46 267.816 1031.24 269.013 1030.74 270.054C1030.26 271.103 1029.56 271.959 1028.85 272.652C1028.14 273.346 1027.36 273.917 1026.65 274.415L1024.67 275.802C1023.36 276.737 1022.05 277.689 1020.75 278.653L1012.93 284.521L1008.98 287.454L1007.98 288.179L1007.48 288.541L1007.07 288.854C1006.54 289.268 1006.09 289.702 1005.76 290.14C1005.12 291.013 1004.91 291.914 1005 293.176C1005.05 293.794 1005.2 294.424 1005.38 295.288L1005.88 297.709C1007.19 304.172 1008.2 310.693 1008.95 317.241C1009.68 323.793 1010.15 330.372 1010.36 336.958C1010.38 337.425 1010.38 337.63 1010.42 337.873C1010.45 338.108 1010.51 338.291 1010.57 338.424C1010.69 338.693 1010.83 338.847 1011.25 339.133C1011.67 339.405 1012.3 339.681 1013.06 339.994L1015.31 340.939L1024.33 344.721L1033.34 348.503L1037.85 350.394L1040.1 351.339L1041.33 351.86C1041.78 352.067 1042.24 352.303 1042.7 352.587C1043.62 353.159 1044.61 353.994 1045.29 355.134C1045.96 356.27 1046.26 357.544 1046.31 358.619C1046.38 359.685 1046.25 360.759 1046.17 361.49L1045.92 363.912C1045.6 367.142 1045.3 370.371 1045.04 373.605C1044.77 376.839 1044.54 380.074 1044.35 383.312L1044.2 385.771C1044.14 386.738 1043.99 387.778 1043.59 388.882C1043.2 389.973 1042.47 391.133 1041.5 391.94C1040.54 392.758 1039.48 393.248 1038.52 393.579C1038.04 393.744 1037.56 393.876 1037.1 393.983L1035.88 394.26L1033.51 394.8L1028.78 395.925L1019.28 398.257C1016.11 399.038 1012.93 399.815 1009.73 400.554L1008.53 400.83C1008.13 400.924 1007.83 400.994 1007.51 401.09C1006.89 401.272 1006.39 401.498 1006.05 401.742C1005.71 401.98 1005.5 402.251 1005.27 402.674C1005.06 403.094 1004.88 403.675 1004.75 404.327C1003.52 410.804 1001.96 417.233 1000.13 423.57C998.302 429.91 996.193 436.166 993.829 442.32L993.385 443.473C993.25 443.83 993.148 444.11 993.058 444.418C992.88 445.019 992.805 445.562 992.834 446.028C992.859 446.926 993.34 447.777 994.275 448.747L1001.09 455.74L1007.92 462.742L1011.32 466.251L1013.03 468.006L1013.95 468.97C1014.28 469.335 1014.6 469.703 1014.9 470.131C1015.49 470.962 1016.03 471.954 1016.32 473.081C1016.61 474.205 1016.62 475.416 1016.42 476.484C1016.23 477.56 1015.86 478.51 1015.45 479.37C1015.25 479.805 1015.01 480.211 1014.79 480.602L1014.19 481.656C1012.57 484.467 1011 487.299 1009.47 490.155C1007.93 493.01 1006.44 495.889 1005 498.788L1003.93 500.968C1003.56 501.724 1003.08 502.633 1002.45 503.444C1001.82 504.267 1000.96 505.073 999.898 505.613C998.844 506.167 997.681 506.379 996.648 506.408C995.61 506.44 994.643 506.307 993.763 506.145L991.372 505.705L986.574 504.867L976.926 503.268C973.701 502.731 970.47 502.176 967.243 501.562C965.704 501.242 964.499 501.185 963.589 501.605C963.129 501.804 962.693 502.133 962.268 502.6C961.839 503.062 961.476 503.614 960.983 504.338C957.287 509.789 953.328 515.058 949.139 520.132C947.045 522.669 944.894 525.159 942.687 527.596C941.582 528.814 940.466 530.021 939.337 531.217L938.487 532.11L937.689 532.96C937.219 533.485 936.823 534.03 936.545 534.582C935.976 535.68 935.93 536.825 936.288 538.149C936.465 538.813 936.73 539.439 937.065 540.233L938.006 542.506C939.246 545.539 940.444 548.583 941.636 551.62C942.828 554.657 944.018 557.686 945.247 560.693L946.179 562.941C946.474 563.645 946.868 564.547 947.081 565.489C947.311 566.432 947.37 567.536 947.116 568.607C946.863 569.683 946.285 570.621 945.654 571.363C945.042 572.104 944.251 572.715 943.663 573.214L941.795 574.784L938.058 577.923L930.584 584.2L926.846 587.34L924.976 588.91C924.367 589.419 923.642 590.075 922.813 590.539C921.984 591.023 920.985 591.392 919.929 591.464C918.872 591.542 917.849 591.297 916.969 590.947C916.091 590.602 915.288 590.107 914.601 589.664L912.548 588.352C907.057 584.871 901.453 581.534 895.9 578.078L893.82 576.776C893.138 576.352 892.407 575.861 891.806 575.53C890.532 574.828 889.245 574.589 887.982 575.021C887.346 575.224 886.72 575.559 886.102 575.984L884.06 577.358C882.693 578.264 881.317 579.157 879.93 580.031C874.38 583.528 868.667 586.759 862.836 589.748C859.926 591.241 856.962 592.68 854.016 594.051C852.646 594.695 851.528 595.575 851.048 596.814C850.802 597.434 850.673 598.132 850.647 598.872C850.627 599.595 850.648 600.48 850.645 601.276L850.546 620.854L850.577 625.737L850.605 628.212C850.592 629.091 850.481 630.026 850.101 630.944C849.729 631.865 849.006 632.681 848.199 633.189C847.402 633.721 846.526 634.016 845.731 634.264L841.053 635.706C834.818 637.626 828.625 639.577 822.562 641.939C820.97 642.532 819.148 642.986 817.272 642.564C815.389 642.155 813.908 640.871 812.829 639.56C811.725 638.2 810.896 636.849 809.935 635.53L807.08 631.572L801.253 623.712L798.355 619.757L796.927 617.771C796.485 617.155 795.989 616.595 795.431 616.147C794.32 615.237 792.936 614.861 791.451 614.947C790.7 614.981 789.979 615.121 789.177 615.292L786.772 615.795C783.563 616.448 780.337 617.026 777.102 617.531C770.629 618.541 764.113 619.265 757.58 619.718C754.337 619.952 750.987 620.087 747.823 620.214C746.337 620.328 745.088 620.893 744.247 622.019C743.823 622.58 743.474 623.242 743.176 623.95L742.23 626.197L734.651 644.237L732.757 648.747L731.81 651.002C731.49 651.784 731.122 652.601 730.607 653.367C730.102 654.135 729.391 654.863 728.517 655.353C727.645 655.856 726.663 656.062 725.75 656.117C724.838 656.179 723.916 656.072 723.14 655.987L720.713 655.735C714.237 655.089 707.742 654.601 701.24 654.194L698.8 654.047C697.977 654.002 697.036 653.916 696.126 653.629C695.214 653.347 694.269 652.809 693.595 652.032C692.911 651.264 692.491 650.368 692.214 649.505C691.933 648.609 691.779 647.828 691.577 647.04L690.997 644.663L689.836 639.91L685.193 620.896C684.791 619.255 684.518 617.827 683.722 616.812C682.987 615.8 681.755 615.25 680.302 614.952C677.124 614.333 673.884 613.658 670.699 612.913C664.309 611.427 657.974 609.672 651.737 607.601C648.62 606.566 645.526 605.45 642.463 604.251C640.984 603.646 639.665 603.283 638.391 603.412C637.144 603.531 635.976 604.184 634.86 605.15C633.79 606.097 632.609 607.383 631.454 608.507L627.953 611.951L620.898 618.75C618.548 621.01 616.204 623.269 613.893 625.553C613.296 626.123 612.818 626.675 611.986 627.359C611.207 627.99 610.102 628.564 608.874 628.648C607.653 628.723 606.583 628.374 605.722 627.989C604.82 627.566 604.183 627.208 603.438 626.832L586.071 617.876L581.717 615.629C580.899 615.21 580.059 614.7 579.279 613.964C578.495 613.247 577.827 612.214 577.512 611.124C576.869 608.933 577.439 606.913 577.674 605.446L578.494 600.645L581.543 581.311L582.34 576.543C582.425 575.891 582.416 575.317 582.293 574.892C582.178 574.462 581.963 574.112 581.558 573.705C581.157 573.292 580.643 572.952 579.916 572.453L577.891 571.052C576.543 570.113 575.204 569.161 573.874 568.197C568.55 564.342 563.35 560.295 558.358 555.985C557.112 554.907 555.874 553.817 554.655 552.705L552.834 551.029L551.949 550.209C551.718 550 551.485 549.81 551.255 549.66C550.323 549.06 549.565 548.949 548.321 549.259C547.181 549.55 545.542 550.34 544.048 550.918L525.913 558.259L521.422 560.14L516.866 562.096C515.982 562.437 515.025 562.738 513.941 562.871C512.867 563.007 511.638 562.93 510.511 562.541C509.378 562.16 508.418 561.522 507.648 560.85C506.876 560.179 506.24 559.438 505.686 558.749C501.656 553.682 497.459 548.74 493.148 543.892L489.838 540.188C489.212 539.434 488.598 538.559 488.156 537.466C487.709 536.379 487.537 535.043 487.706 533.845C488.043 531.459 489.355 529.735 490.115 528.479L492.685 524.341L502.878 507.623L505.485 503.452L506.126 502.431C506.311 502.138 506.468 501.85 506.619 501.566C506.901 501.001 507.092 500.472 507.16 500.005C507.229 499.535 507.206 499.111 507.081 498.622C506.957 498.137 506.715 497.595 506.386 497.031C506.227 496.743 506.04 496.478 505.833 496.159L505.141 495.133L503.768 493.074C500.143 487.558 496.748 481.867 493.718 475.962C492.96 474.487 492.226 472.997 491.517 471.495L490.474 469.231L489.97 468.118C489.824 467.811 489.682 467.499 489.519 467.225C488.884 466.065 488.169 465.325 487.285 464.902C486.397 464.463 485.129 464.287 483.687 464.307L478.819 464.409L473.897 464.457L464.095 464.456C460.836 464.451 457.586 464.453 454.347 464.495L451.919 464.534L451.287 464.543C451.032 464.539 450.793 464.55 450.525 464.531C450.003 464.506 449.459 464.459 448.868 464.33C447.722 464.113 446.313 463.477 445.359 462.461C444.373 461.461 443.884 460.373 443.509 459.414L437.318 440.754L435.785 436.125L435.018 433.81C434.725 432.957 434.389 431.828 434.346 430.615C434.298 429.388 434.573 427.964 435.216 426.833C435.838 425.685 436.658 424.839 437.445 424.177C437.643 424.009 437.842 423.844 438.04 423.7L438.589 423.294L439.578 422.574L441.557 421.133L457.387 409.604L465.303 403.84C466.521 402.981 466.871 402.482 467.025 401.797C467.093 401.424 467.109 400.919 467.025 400.299C466.981 399.977 466.929 399.693 466.851 399.294L466.612 398.079C465.342 391.601 464.33 385.072 463.586 378.509C463.214 375.228 462.911 371.938 462.676 368.643C462.556 366.995 462.456 365.347 462.375 363.698L462.264 361.222L462.215 359.983C462.197 359.587 462.183 359.352 462.145 359.065C462.076 358.518 461.932 358.126 461.765 357.833C461.598 357.54 461.364 357.302 460.975 357.024C460.769 356.892 460.549 356.753 460.277 356.625C460.006 356.484 459.758 356.388 459.35 356.214L457.096 355.269L448.08 351.487L439.065 347.705L434.557 345.815L432.303 344.869C431.444 344.518 430.433 344.059 429.466 343.34C428.492 342.625 427.521 341.519 426.978 340.253C426.437 338.991 426.289 337.742 426.281 336.669C426.281 336.131 426.311 335.62 426.359 335.127L426.483 333.905L426.725 331.479C427.041 328.247 427.348 325.017 427.606 321.789C427.869 318.561 428.09 315.335 428.261 312.111L428.322 310.902L428.351 310.298L428.406 309.542C428.507 308.519 428.706 307.405 429.208 306.237C429.689 305.073 430.591 303.905 431.633 303.131C432.673 302.338 433.754 301.884 434.734 301.567C435.226 301.412 435.707 301.282 436.172 301.179L437.396 300.909L439.767 300.387L444.51 299.301L454.024 297.049C457.205 296.297 460.398 295.55 463.609 294.845L464.815 294.582L465.322 294.465C465.476 294.433 465.603 294.389 465.738 294.35C466.275 294.191 466.609 293.994 466.812 293.825C467.179 293.546 467.552 292.757 467.821 291.213C469.087 284.736 470.594 278.296 472.395 271.927C474.197 265.559 476.297 259.263 478.737 253.092L479.113 252.092C479.2 251.799 479.301 251.503 479.352 251.23C479.477 250.676 479.515 250.187 479.474 249.758C479.402 248.927 478.988 248.097 478.146 247.099C477.933 246.856 477.712 246.609 477.466 246.362L476.622 245.509L474.889 243.758L471.454 240.236C466.898 235.529 462.428 230.786 457.885 226.158L456.168 224.415C455.475 223.692 454.724 222.853 454.134 221.596C453.847 220.968 453.626 220.237 453.547 219.478C453.462 218.715 453.538 217.966 453.683 217.301C453.969 215.97 454.623 214.902 454.931 214.295L459.483 205.65L464.035 197.006L466.31 192.684L467.448 190.522C467.878 189.69 468.585 188.451 469.82 187.569C471.042 186.625 472.676 186.292 473.828 186.302C475.036 186.29 475.952 186.47 476.799 186.604L481.628 187.41L491.286 189.023L500.944 190.635L505.773 191.441L508.181 191.843C508.802 191.953 509.338 191.974 509.701 191.926C510.058 191.865 510.255 191.786 510.557 191.561C510.854 191.333 511.221 190.919 511.58 190.396C512.485 189.073 513.444 187.678 514.399 186.342C516.321 183.647 518.305 180.999 520.348 178.4C524.432 173.197 528.776 168.207 533.308 163.403C533.769 162.912 534.134 162.447 534.373 162.025C534.618 161.599 534.699 161.272 534.733 160.898C534.769 160.53 534.693 160.04 534.521 159.458C534.353 158.879 534.084 158.25 533.752 157.449C532.496 154.416 531.275 151.376 530.067 148.339C527.651 142.264 525.288 136.198 522.795 130.213L522.318 129.059C522.136 128.614 521.968 128.144 521.821 127.646C521.532 126.654 521.327 125.495 521.443 124.226C521.538 122.955 522.066 121.682 522.725 120.717C523.389 119.738 524.155 119.005 524.907 118.382C527.5 116.295 529.97 114.287 532.478 112.197C534.974 110.123 537.455 108.029 539.915 105.909L543.593 102.715L544.508 101.912C544.865 101.603 545.261 101.279 545.684 100.978C546.528 100.377 547.596 99.8156 548.847 99.5585C550.1 99.2794 551.439 99.4445 552.515 99.7876C553.607 100.131 554.498 100.641 555.29 101.137L559.446 103.721L567.758 108.889L576.069 114.058L580.225 116.641L582.243 117.893C582.842 118.251 583.425 118.536 583.955 118.704C585 119.017 585.83 118.926 586.989 118.362C587.269 118.216 587.554 118.06 587.842 117.873L588.845 117.222L590.921 115.881C593.701 114.109 596.519 112.398 599.375 110.754C605.088 107.47 610.945 104.442 616.916 101.672L619.145 100.651C619.762 100.369 620.291 100.042 620.682 99.6885C621.074 99.3314 621.321 98.9563 621.506 98.4622C621.683 97.9661 621.783 97.3489 621.806 96.6617L621.851 86.953L621.932 67.3745L621.942 64.9268L621.949 63.6784C621.948 63.2233 621.978 62.7432 622.037 62.2501C622.159 61.2718 622.494 60.1094 623.271 59.1482C624.05 58.1949 625.059 57.6358 625.965 57.2867C626.433 57.1036 626.883 56.9726 627.246 56.8525L628.41 56.4794L630.735 55.7332L635.386 54.2398L644.69 51.253L649.342 49.7595L651.668 49.0133L652.831 48.6402C653.273 48.4992 653.744 48.3622 654.244 48.2841C655.229 48.1091 656.404 48.1631 657.441 48.6112C658.481 49.0534 659.263 49.7716 659.882 50.4818C660.511 51.231 660.939 51.8991 661.421 52.5523L662.846 54.5409L668.548 62.4941L679.951 78.3956C680.788 79.5859 681.791 80.2601 683.071 80.2521C683.393 80.2491 683.728 80.2191 684.071 80.1561L685.273 79.933L687.69 79.4929C690.917 78.9207 694.152 78.4106 697.398 77.9605C703.888 77.0632 710.411 76.419 716.947 76.0199C718.58 75.9169 720.216 75.8369 721.851 75.7678L726.697 75.5938C727.382 75.5378 727.937 75.3097 728.375 74.8826C728.814 74.4455 729.152 73.7983 729.463 73.0701L731.396 68.5778L739.133 50.6068L741.062 46.1105C741.71 44.6581 742.252 42.9666 743.527 41.6433C744.165 40.9911 744.997 40.491 745.877 40.2429C746.76 39.9988 747.652 39.9688 748.508 40.0228L753.396 40.54C759.876 41.2092 766.376 41.7243 772.881 42.1694C774.459 42.3025 776.249 42.2394 777.85 43.1567C778.642 43.6008 779.281 44.308 779.697 45.0872C780.127 45.8635 780.351 46.7067 780.533 47.5199L782.706 57.0626L787.08 76.1409C787.416 77.7054 787.877 79.2768 788.998 80.3171C789.547 80.8353 790.235 81.1964 790.969 81.4494C791.702 81.7045 792.491 81.8265 793.301 81.9876C796.51 82.6018 799.705 83.2959 802.881 84.0662C809.232 85.6066 815.508 87.4511 821.689 89.5677C824.778 90.619 827.85 91.7683 830.885 92.9267C832.393 93.4528 833.985 93.8689 835.536 93.6849C837.113 93.5118 838.431 92.5746 839.342 91.2202ZM839.78 91.5893C839.33 92.2435 838.729 92.9046 838.015 93.3788C837.302 93.8619 836.465 94.161 835.617 94.265C833.905 94.4701 832.243 94.026 830.691 93.4918C827.626 92.3335 824.584 91.2052 821.492 90.1639C815.322 88.0713 809.061 86.2518 802.726 84.7364C799.558 83.9781 796.373 83.2969 793.173 82.6938C791.611 82.4207 789.804 82.0836 788.501 80.8523C787.185 79.6289 786.699 77.8794 786.351 76.3L781.884 57.2406L779.635 47.714C779.311 46.1775 778.679 44.6891 777.376 43.9909C776.089 43.2497 774.46 43.2797 772.824 43.1687C766.307 42.7746 759.792 42.3105 753.289 41.6913L748.441 41.2162C747.673 41.1731 746.913 41.2132 746.221 41.4112C745.531 41.6163 744.926 41.9864 744.423 42.5015C743.407 43.5628 742.902 45.0692 742.254 46.5857L740.371 51.1049L732.869 69.194L730.994 73.7183C730.672 74.4835 730.286 75.3397 729.577 76.0739C728.863 76.8151 727.812 77.2292 726.877 77.3043L721.946 77.5503C720.322 77.6404 718.7 77.7424 717.08 77.8664C710.597 78.3496 704.133 79.0758 697.71 80.052C694.499 80.5412 691.296 81.0903 688.105 81.7005L685.715 82.1686L684.514 82.4077C684.055 82.4977 683.576 82.5527 683.083 82.5607C682.098 82.5697 681.023 82.3227 680.144 81.7795C679.256 81.2494 678.582 80.5262 678.037 79.791L666.414 64.0316L660.604 56.1533L659.152 54.1838C658.659 53.5296 658.182 52.8344 657.752 52.3423C656.802 51.287 655.968 50.9129 654.74 51.1469C654.435 51.198 654.121 51.294 653.788 51.404L652.626 51.7951L650.304 52.5783L645.66 54.1448L636.371 57.2777L627.211 60.3835C625.95 60.9297 625.607 61.3828 625.43 62.6662C625.399 62.9833 625.378 63.3184 625.386 63.6795L625.397 64.8778L625.423 67.3245L625.629 86.895L625.727 96.7607C625.707 97.702 625.595 98.7223 625.241 99.7706C624.89 100.815 624.224 101.851 623.414 102.597C622.605 103.353 621.72 103.878 620.864 104.288L618.659 105.338C612.834 108.146 607.131 111.201 601.579 114.502C598.805 116.154 596.068 117.87 593.373 119.645L591.359 120.989L590.319 121.684C589.926 121.947 589.501 122.193 589.059 122.425C588.17 122.884 587.132 123.269 585.987 123.41C584.848 123.558 583.65 123.428 582.624 123.114C581.592 122.8 580.704 122.354 579.899 121.888L577.744 120.583L573.56 118.045L565.193 112.968L556.827 107.892L552.643 105.353C552.053 104.99 551.501 104.705 551.029 104.57C550.554 104.44 550.216 104.405 549.87 104.492C549.523 104.571 549.099 104.756 548.623 105.108C548.383 105.284 548.15 105.478 547.892 105.705L546.977 106.525L543.301 109.789C540.84 111.954 538.361 114.099 535.859 116.219C533.368 118.324 530.791 120.448 528.313 122.469C527.812 122.885 527.406 123.312 527.16 123.688C526.917 124.074 526.798 124.358 526.776 124.721C526.747 125.081 526.803 125.561 526.975 126.129C527.062 126.413 527.169 126.711 527.298 127.02L527.763 128.124C530.33 134.167 532.744 140.246 535.192 146.281C536.416 149.298 537.647 152.305 538.908 155.292C539.488 156.718 540.472 158.695 540.344 161.231C540.278 162.484 539.873 163.758 539.308 164.748C538.751 165.752 538.082 166.564 537.434 167.265C533.044 171.985 528.848 176.878 524.881 181.947C522.901 184.482 520.979 187.063 519.12 189.687C518.182 191.007 517.297 192.303 516.365 193.676C515.799 194.491 515.119 195.355 514.131 196.137C513.151 196.926 511.802 197.507 510.541 197.675C509.285 197.846 508.175 197.738 507.191 197.573L504.772 197.177L499.946 196.387L490.293 194.805L480.64 193.224L475.814 192.434C475.054 192.307 474.354 192.204 473.926 192.221C473.46 192.241 473.414 192.288 473.335 192.348C473.287 192.372 473.211 192.46 473.11 192.59C473.062 192.675 473.005 192.725 472.952 192.839L472.741 193.226L471.606 195.398L469.335 199.743L464.793 208.432L460.251 217.121C459.808 217.956 459.626 218.318 459.576 218.597C459.531 218.87 459.539 218.837 459.625 219.075C459.723 219.303 460.04 219.731 460.481 220.174L462.203 221.912C466.815 226.583 471.311 231.323 475.845 235.979L479.253 239.454L480.967 241.174L481.847 242.057C482.177 242.388 482.504 242.746 482.826 243.119C483.466 243.877 484.094 244.74 484.605 245.766C485.116 246.786 485.48 247.98 485.588 249.174C485.817 251.563 485.097 253.766 484.446 255.344C482.086 261.307 480.049 267.407 478.294 273.593C476.541 279.781 475.07 286.057 473.829 292.387C473.755 292.747 473.659 293.268 473.527 293.76C473.402 294.255 473.236 294.778 473.017 295.316C472.601 296.379 471.838 297.582 470.794 298.466C468.657 300.265 466.27 300.468 464.927 300.812C461.765 301.505 458.604 302.242 455.436 302.99L445.902 305.241L441.105 306.337L438.697 306.868L437.531 307.124C437.199 307.197 436.893 307.282 436.607 307.371C436.038 307.551 435.605 307.77 435.347 307.97C435.086 308.175 434.948 308.334 434.8 308.676C434.654 309.009 434.536 309.514 434.48 310.113L434.445 310.578L434.415 311.195L434.353 312.43C434.178 315.722 433.951 319.006 433.683 322.281C433.416 325.557 433.113 328.824 432.78 332.084L432.527 334.527L432.4 335.741C432.369 336.06 432.351 336.363 432.349 336.641C432.349 337.195 432.436 337.593 432.534 337.836C432.645 338.068 432.768 338.243 433.097 338.504C433.443 338.762 433.918 339.006 434.565 339.273L436.82 340.228L441.33 342.139L450.351 345.963L459.372 349.786L461.626 350.741C461.966 350.889 462.478 351.094 462.931 351.329C463.395 351.555 463.873 351.839 464.347 352.158C465.29 352.811 466.25 353.747 466.886 354.878C467.531 356.001 467.861 357.203 467.995 358.272C468.067 358.793 468.096 359.373 468.111 359.791L468.154 360.999L468.254 363.412C468.327 365.022 468.419 366.629 468.53 368.237C468.747 371.451 469.032 374.662 469.384 377.865C470.085 384.271 471.05 390.651 472.266 396.984C472.505 398.414 473.135 400.48 472.649 402.952C472.401 404.181 471.793 405.441 471.013 406.365C470.628 406.83 470.215 407.251 469.798 407.596C469.398 407.949 468.905 408.288 468.617 408.501L460.689 414.231L444.832 425.69L442.849 427.122L441.858 427.839L441.422 428.159C441.289 428.254 441.175 428.35 441.061 428.445C440.598 428.825 440.288 429.195 440.133 429.487C439.965 429.78 439.929 430.019 439.921 430.415C439.941 430.838 440.048 431.297 440.28 431.986L441.043 434.319L442.57 438.987L448.635 457.508C448.843 458.062 449.078 458.483 449.256 458.64C449.427 458.814 449.568 458.903 450.012 459.008C450.218 459.057 450.489 459.084 450.781 459.099C450.919 459.113 451.089 459.103 451.241 459.108L451.832 459.102L454.297 459.071C457.581 459.04 460.857 459.05 464.123 459.068L473.892 459.105L478.756 459.076L483.674 458.991C485.476 458.989 487.551 459.145 489.614 460.141C490.632 460.633 491.573 461.338 492.328 462.135C493.097 462.932 493.665 463.804 494.143 464.662C494.391 465.094 494.588 465.524 494.79 465.955L495.291 467.073L496.288 469.256C496.966 470.707 497.669 472.147 498.396 473.575C501.303 479.294 504.581 484.838 508.102 490.239L509.435 492.257L510.108 493.262C510.346 493.627 510.622 494.033 510.858 494.46C511.342 495.307 511.789 496.261 512.066 497.359C512.347 498.449 512.413 499.687 512.219 500.827C512.032 501.975 511.627 502.987 511.176 503.875C510.945 504.312 510.705 504.736 510.453 505.132L509.784 506.179L507.178 510.291L496.883 526.932L494.262 531.091L493.6 532.129C493.396 532.457 493.23 532.719 493.081 533.006C492.785 533.564 492.588 534.087 492.534 534.503C492.486 534.923 492.513 535.257 492.675 535.685C492.842 536.108 493.154 536.602 493.566 537.101L496.756 540.713C501.084 545.644 505.305 550.68 509.364 555.853C510.263 557.013 511.196 557.887 512.023 558.15C512.439 558.293 512.876 558.339 513.418 558.278C513.955 558.218 514.572 558.044 515.209 557.801L519.656 555.922L524.204 554.052L542.403 546.823L544.663 545.911L545.874 545.432C546.32 545.274 546.774 545.121 547.269 545.003C548.24 544.757 549.367 544.622 550.531 544.794C551.699 544.944 552.803 545.444 553.69 546.044C554.14 546.345 554.537 546.676 554.908 547.017L555.812 547.866L557.582 549.516C558.766 550.61 559.969 551.684 561.183 552.749C566.035 557.008 571.097 561.039 576.305 564.887C577.607 565.85 578.917 566.802 580.237 567.741L582.222 569.144C582.83 569.576 583.693 570.135 584.426 570.903C585.171 571.646 585.869 572.72 586.15 573.878C586.452 575.033 586.399 576.126 586.268 577.083L585.406 581.962L582.166 601.268L581.29 606.106L581.061 607.315C580.989 607.717 580.929 608.024 580.899 608.364C580.833 609.022 580.847 609.63 580.993 610.104C581.135 610.581 581.364 610.977 581.777 611.369C582.18 611.76 582.735 612.128 583.364 612.455L587.685 614.739L605.021 623.899C605.727 624.266 606.517 624.703 607.09 624.976C607.706 625.264 608.249 625.396 608.665 625.375C609.074 625.346 609.501 625.175 609.993 624.793C610.432 624.452 611.061 623.797 611.643 623.242C613.996 620.964 616.372 618.717 618.747 616.478L625.844 609.756L629.35 606.366C630.544 605.228 631.569 604.099 632.947 602.89C634.284 601.74 636.078 600.673 638.115 600.499C640.118 600.303 642.022 600.937 643.537 601.568C646.539 602.775 649.577 603.898 652.641 604.945C658.771 607.04 665.01 608.826 671.316 610.351C674.478 611.117 677.621 611.801 680.841 612.457C681.714 612.646 682.608 612.92 683.472 613.378C684.337 613.823 685.146 614.502 685.739 615.308C686.958 616.93 687.229 618.845 687.604 620.342L692.085 639.399L693.205 644.163L693.765 646.545C693.959 647.339 694.125 648.16 694.329 648.823C694.756 650.235 695.518 651.162 696.797 651.559C697.446 651.766 698.14 651.848 698.943 651.898L701.388 652.061C707.906 652.502 714.423 653.023 720.93 653.704L723.368 653.968C724.21 654.065 724.917 654.145 725.637 654.102C727.077 654.046 728.182 653.438 728.968 652.244C729.368 651.657 729.683 650.982 729.983 650.258L730.943 648.005L732.86 643.501L740.53 625.484L741.494 623.226C741.835 622.434 742.244 621.638 742.807 620.898C743.378 620.168 744.125 619.497 744.998 619.091C745.864 618.673 746.789 618.467 747.676 618.395C751.03 618.262 754.2 618.142 757.466 617.913C763.95 617.474 770.416 616.767 776.839 615.774C780.049 615.279 783.25 614.711 786.434 614.069L788.82 613.574C789.612 613.406 790.497 613.231 791.378 613.195C793.143 613.073 795.12 613.597 796.536 614.788C797.251 615.364 797.842 616.042 798.349 616.75L799.774 618.74L802.655 622.683L808.486 630.547L811.365 634.52C812.325 635.836 813.224 637.265 814.183 638.435C815.162 639.615 816.322 640.557 817.667 640.842C819.011 641.154 820.513 640.822 821.947 640.279C828.042 637.888 834.301 635.902 840.529 633.968L845.201 632.517C846.71 632.077 847.96 631.419 848.421 630.228C848.667 629.635 848.77 628.923 848.776 628.175L848.743 625.757L848.701 620.854C848.685 614.318 848.763 607.793 848.709 601.282C848.707 600.447 848.68 599.702 848.697 598.793C848.724 597.904 848.871 596.971 849.223 596.072C849.571 595.171 850.172 594.349 850.874 593.718C851.581 593.088 852.365 592.619 853.153 592.235C856.113 590.833 859.011 589.404 861.896 587.9C867.657 584.901 873.293 581.664 878.761 578.169C880.129 577.295 881.483 576.403 882.83 575.499L884.84 574.128C885.561 573.624 886.379 573.162 887.296 572.863C888.207 572.552 889.238 572.449 890.217 572.587C891.199 572.718 892.094 573.075 892.899 573.495C893.729 573.946 894.353 574.37 895.062 574.797L897.144 576.069C902.706 579.45 908.35 582.729 913.918 586.176L916.003 587.476C916.689 587.909 917.29 588.262 917.935 588.509C919.216 589.019 920.319 588.927 921.475 588.233C922.07 587.888 922.56 587.438 923.193 586.895L925.054 585.298L928.777 582.103L936.224 575.711L939.947 572.515L941.81 570.917L942.681 570.166C942.938 569.926 943.181 569.682 943.389 569.433C944.236 568.416 944.452 567.468 944.139 566.179C943.981 565.529 943.719 564.928 943.374 564.134L942.409 561.872C941.137 558.852 939.908 555.821 938.683 552.798C937.459 549.774 936.236 546.757 934.974 543.765L934.019 541.527C933.715 540.823 933.324 539.949 933.072 539.037C932.813 538.122 932.655 537.115 932.711 536.072C932.757 535.029 933.058 533.983 933.504 533.078C933.95 532.167 934.524 531.383 935.131 530.687L935.997 529.743L936.825 528.855C937.924 527.667 939.009 526.465 940.084 525.256C942.231 522.833 944.322 520.362 946.356 517.848C950.422 512.816 954.258 507.601 957.83 502.214C958.668 500.93 959.902 499.018 962.003 498.09C964.105 497.112 966.341 497.409 967.959 497.718C971.147 498.29 974.353 498.807 977.569 499.31L987.246 500.812L992.097 501.608L994.523 502.029C995.246 502.155 995.907 502.225 996.5 502.2C997.704 502.14 998.342 501.78 999.081 500.844C999.446 500.362 999.735 499.818 1000.07 499.107L1001.14 496.886C1002.57 493.93 1004.05 490.996 1005.58 488.087C1007.1 485.177 1008.67 482.292 1010.27 479.427L1010.88 478.354C1011.05 478.028 1011.22 477.728 1011.36 477.419C1011.64 476.809 1011.85 476.215 1011.94 475.685C1012.11 474.63 1011.89 473.831 1011.16 472.827C1011 472.583 1010.78 472.341 1010.56 472.098L1009.78 471.306L1008.06 469.566L1004.61 466.087L997.733 459.113L990.847 452.129C990.165 451.439 989.495 450.631 988.959 449.64C988.415 448.66 988.056 447.468 988 446.305C987.928 445.138 988.112 444.047 988.388 443.084C988.521 442.608 988.697 442.121 988.85 441.713L989.278 440.581C991.559 434.54 993.589 428.408 995.343 422.199C997.102 415.989 998.566 409.71 999.774 403.368C999.958 402.421 1000.22 401.414 1000.75 400.378C1001.26 399.351 1002.09 398.304 1003.09 397.613C1005.1 396.197 1007.15 395.974 1008.59 395.595C1011.75 394.862 1014.9 394.088 1018.06 393.306L1027.58 390.957L1032.36 389.817L1034.76 389.266L1035.93 388.999C1036.26 388.922 1036.57 388.833 1036.86 388.735C1037.44 388.539 1037.87 388.296 1038.16 388.055C1038.44 387.814 1038.61 387.545 1038.78 387.112C1038.94 386.682 1039.05 386.092 1039.09 385.435L1039.23 383.008C1039.42 379.732 1039.65 376.459 1039.91 373.189C1040.18 369.919 1040.47 366.652 1040.81 363.39L1041.07 360.945C1041.17 360.057 1041.23 359.501 1041.19 358.936C1041.08 357.828 1040.92 357.569 1040.01 356.927C1039.77 356.785 1039.51 356.644 1039.22 356.509L1038.2 356.072L1035.94 355.116L1031.43 353.204L1022.41 349.379L1013.39 345.553L1011.13 344.597C1010.39 344.28 1009.5 343.926 1008.55 343.322C1007.6 342.727 1006.54 341.681 1006.03 340.428C1005.75 339.817 1005.6 339.203 1005.52 338.632C1005.42 338.069 1005.42 337.455 1005.4 337.108C1005.23 330.649 1004.79 324.199 1004.1 317.78C1003.42 311.358 1002.48 304.964 1001.26 298.624L1000.79 296.25C1000.64 295.516 1000.42 294.551 1000.35 293.541C1000.27 292.537 1000.32 291.442 1000.61 290.351C1000.89 289.262 1001.41 288.204 1002.07 287.351C1002.73 286.49 1003.49 285.801 1004.24 285.214L1004.81 284.793L1005.31 284.442L1006.29 283.738L1010.23 280.871L1018.11 275.055C1019.44 274.089 1020.78 273.132 1022.13 272.188L1024.17 270.784C1024.8 270.353 1025.34 269.95 1025.81 269.509C1026.74 268.604 1027.11 267.841 1027.11 266.782C1027.1 266.247 1026.99 265.63 1026.8 264.986C1026.62 264.391 1026.29 263.52 1026.03 262.773C1024.93 259.678 1023.88 256.571 1022.86 253.456C1021.85 250.341 1020.86 247.219 1019.9 244.093L1019.18 241.748L1018.82 240.576C1018.71 240.22 1018.6 239.921 1018.48 239.621C1018.23 239.041 1017.95 238.604 1017.63 238.331C1017.32 238.062 1016.93 237.875 1016.35 237.77C1016.07 237.712 1015.75 237.687 1015.42 237.671C1015.09 237.661 1014.74 237.665 1014.3 237.674L1011.84 237.71L1006.92 237.723L997.128 237.644L987.216 237.619C986.247 237.55 985.184 237.32 984.199 236.793C983.204 236.283 982.403 235.476 981.814 234.671C981.233 233.869 980.809 232.995 980.467 232.242L979.449 230.034C976.707 224.16 973.741 218.391 970.531 212.76C968.927 209.945 967.261 207.165 965.532 204.425C964.669 203.054 963.788 201.695 962.893 200.345C961.965 199.007 960.922 197.22 960.843 195.155C960.727 193.069 961.668 191.208 962.587 189.79L965.178 185.638L970.361 177.333L975.543 169.029C976.415 167.599 977.342 166.37 977.52 165.123C977.752 163.915 977.204 162.708 976.248 161.554L963.685 146.547L960.538 142.788C959.994 142.153 959.526 141.534 959.01 141.034C958.489 140.532 957.93 140.116 957.328 139.908C956.133 139.449 954.704 139.838 953.266 140.455L948.718 142.271L930.53 149.537L928.245 150.446C927.453 150.752 926.615 151.019 925.708 151.12C924.809 151.234 923.828 151.125 922.964 150.771C922.097 150.416 921.356 149.867 920.73 149.254C918.407 146.976 916.033 144.755 913.604 142.59C908.746 138.262 903.671 134.178 898.442 130.302C897.136 129.331 895.817 128.378 894.488 127.437L892.49 126.035C891.834 125.575 891.122 125.106 890.485 124.528C889.845 123.958 889.262 123.27 888.873 122.46C888.469 121.656 888.31 120.751 888.299 119.886C888.281 119.021 888.432 118.157 888.584 117.364L889.027 114.962C890.187 108.549 891.16 102.097 892.253 95.6594L893.101 90.8351L893.549 88.4264C893.696 87.6472 893.776 86.859 893.687 86.1017C893.611 85.3425 893.33 84.6353 892.86 84.0492C892.386 83.465 891.751 83.0009 891.069 82.6078C889.663 81.8595 888.169 81.1353 886.725 80.3941C880.905 77.4433 875.102 74.4455 869.401 71.2586C867.977 70.4423 866.585 69.6351 865.025 69.5191C863.478 69.3851 862.01 70.1343 860.835 71.1876C858.5 73.4012 856.157 75.7108 853.819 77.9685L839.78 91.5893Z"
				fill="#E6E7E8" />
			<g id="radar lijnen">
				<path id="lijn maken"
					d="M1103.47 310.679C1101.88 310.682 1100.57 311.831 1100.3 313.341L1019.13 313.482L1019.13 314.628L1100.3 314.487C1100.58 315.995 1101.89 317.142 1103.48 317.139C1105.26 317.136 1106.7 315.687 1106.7 313.904C1106.7 312.119 1105.25 310.675 1103.47 310.679Z"
					fill="#919494" />
				<path id="lijn handel"
					d="M1103.76 93.7709C1102.18 93.7749 1100.87 94.9252 1100.6 96.4356L940.786 96.7937H940.587L908.106 122.552L908.817 123.449L940.987 97.9381L1100.6 97.58C1100.87 99.0884 1102.19 100.234 1103.78 100.23C1105.56 100.226 1107 98.7763 1107 96.9928C1107 95.2103 1105.55 93.7669 1103.76 93.7709Z"
					fill="#919494" />
				<path id="lijn dienstverlening"
					d="M1103.57 437.169C1101.98 437.169 1100.67 438.316 1100.4 439.826H1024.13V440.971H1100.4C1100.67 442.481 1101.98 443.629 1103.57 443.629C1105.35 443.629 1106.8 442.183 1106.8 440.399C1106.8 438.616 1105.35 437.169 1103.57 437.169Z"
					fill="#919494" />
				<path id="lijn installatie"
					d="M743.606 734.501V679.983H742.542V734.501C741.139 734.734 740.073 735.863 740.073 737.225C740.073 738.757 741.417 740 743.074 740C744.731 740 746.075 738.757 746.075 737.225C746.075 735.863 745.007 734.734 743.606 734.501Z"
					fill="#919494" />
				<path id="lijn reparatie"
					d="M556.878 572.48L556.169 571.774L515.2 612.889H369.591C369.354 611.571 368.207 610.569 366.821 610.569C365.263 610.569 364 611.832 364 613.39C364 614.947 365.263 616.21 366.821 616.21C368.207 616.21 369.354 615.208 369.591 613.89H515.616L556.878 572.48Z"
					fill="#919494" />
				<path id="lijn energie"
					d="M482.755 485.537L482.261 484.667L453.567 500.982H369.591C369.354 499.664 368.207 498.661 366.821 498.661C365.263 498.661 364 499.925 364 501.482C364 503.04 365.263 504.303 366.821 504.303C368.207 504.303 369.354 503.301 369.591 501.982H453.833L482.755 485.537Z"
					fill="#919494" />
				<path id="lijn telecom"
					d="M452.002 395.577L369.59 395.561C369.354 394.243 368.207 393.241 366.821 393.241C365.263 393.241 364 394.503 364 396.061C364 397.618 365.262 398.881 366.82 398.881C368.206 398.881 369.353 397.879 369.59 396.561L452.002 396.577V395.577Z"
					fill="#919494" />
				<path id="lijn advies"
					d="M461.02 269.542H369.591C369.354 268.224 368.207 267.222 366.821 267.222C365.263 267.222 364 268.485 364 270.042C364 271.6 365.263 272.863 366.821 272.863C368.207 272.863 369.354 271.861 369.591 270.542H461.02V269.542Z"
					fill="#919494" />
			</g>
			<g id="diagram_2">
				<g id="bedrijven">
					<path id="bedrijven advies"
						d="M773.134 102.498C760.08 100.474 747.769 99.4701 735.354 99.4701C725.253 99.4701 715.086 100.135 704.394 101.458C702.36 101.71 700.333 101.986 698.313 102.285C696.329 102.579 694.353 102.898 692.384 103.237C692.35 103.243 692.315 103.248 692.28 103.254C562.43 126.141 471.784 246.747 487.412 379.03L734.009 348.528L733.961 348.409H734.411L773.134 102.498Z"
						fill="#D3E7EA" />
					<path id="bedrijven telecom"
						d="M726.988 350.84L502.875 378.562L487.57 380.455C489.146 393.182 490.976 402.839 494.033 414.008C494.71 416.452 495.443 418.969 496.249 421.614L726.988 350.84Z"
						fill="#D3E7EA" />
					<path id="bedrijven energie"
						d="M496.697 423.068C496.7 423.079 496.704 423.089 496.707 423.099C503.172 443.982 511.061 461.753 521.712 478.975C521.782 479.088 521.856 479.2 521.926 479.312C522.828 480.765 523.745 482.216 524.687 483.662C524.773 483.794 524.865 483.926 524.951 484.058C525.885 485.485 526.832 486.91 527.806 488.334C528.004 488.624 528.213 488.912 528.412 489.201C529.285 490.467 530.164 491.733 531.072 493C531.689 493.861 532.333 494.724 532.965 495.587C533.476 496.284 533.974 496.979 534.496 497.677C535.664 499.239 536.859 500.803 538.082 502.373L731.339 351.096L496.697 423.068Z"
						fill="#D3E7EA" />
					<path id="bedrijven reparatie"
						d="M539.009 503.498C542.719 508.238 546.522 512.79 550.421 517.161C577.745 547.67 609.547 568.95 649.213 583.457L733.483 351.267L539.009 503.498Z"
						fill="#D3E7EA" />
					<path id="bedrijven dienstverlening"
						d="M942.35 488.714C969.86 447.845 984.446 399.788 984.555 349.693L736.115 349.913L829.368 580.155C875.767 561.209 914.826 529.6 942.35 488.714Z"
						fill="#D3E7EA" />
					<path id="bedrijven timaken"
						d="M968.159 260.155L738.885 348.404L984.555 348.187C984.454 316.329 979.535 289.914 968.159 260.155Z"
						fill="#D3E7EA" />
					<path id="bedrijven tihandel"
						d="M775.697 332.701L967.645 258.818C934.763 174.041 864.545 117.223 774.803 102.763L736.313 347.206L736.548 347.022L736.232 347.892L775.697 332.701Z"
						fill="#D3E7EA" />
				</g>
				<g id="werknemers">
					<path id="werknemers advies"
						d="M755.915 211.82C742.636 209.754 730.734 209.566 717.37 211.219C641.286 220.629 587.126 289.61 595.831 365.623L734.005 348.532L733.957 348.413H734.407L755.915 211.82Z"
						fill="#2E8C9D" />
					<path id="werknemers handel"
						d="M736.544 347.025L736.228 347.895L775.693 332.705L860.218 300.17C842.388 254.54 804.884 224.108 756.683 216.151L736.009 347.443L736.544 347.025Z"
						fill="#2E8C9D" />
					<path id="werknemers maken"
						d="M835.081 311.525L739.257 348.408L842.158 348.317C842.017 335.099 839.88 323.992 835.081 311.525Z"
						fill="#2E8C9D" />
					<path id="werknemers diensverlening"
						d="M838.472 349.753L736.081 349.844L774.506 444.717C813.521 428.873 838.45 391.858 838.472 349.753Z"
						fill="#2E8C9D" />
					<path id="werknemers reparatie"
						d="M654.435 413.117C666.524 428.384 680.977 438.873 699.232 445.632L733.494 351.231L654.435 413.117Z"
						fill="#2E8C9D" />
					<path id="werknemers energie"
						d="M651.947 413.245L731.536 350.945L634.922 380.579C638.817 393.048 643.961 402.92 651.947 413.245Z"
						fill="#2E8C9D" />
					<path id="werknemers telecom"
						d="M635.571 362.151C636.282 368.055 637.161 372.315 638.82 377.887L669.697 368.416L726.984 350.844L635.571 362.151Z"
						fill="#2E8C9D" />
				</g>
				<path id="witteoutlines"
					d="M985.982 348.19H985.976C985.875 316.15 980.926 289.575 969.486 259.646L969.492 259.644L969.235 258.976L968.978 258.308L968.973 258.31C935.873 172.959 865.152 115.789 774.766 101.315L774.767 101.31L773.353 101.087L773.352 101.092C749.541 97.4019 728.184 97.0758 704.214 100.041C637.686 108.27 578.345 141.916 537.12 194.781C496.043 247.458 477.862 312.934 485.873 379.225L485.864 379.226L486.04 380.647H486.043C487.985 396.114 490.336 407.125 494.879 422.037L494.876 422.038L495.086 422.723L495.295 423.407L495.302 423.405C504.765 454.016 517.267 477.983 536.957 503.259L536.951 503.263L537.392 503.826L537.833 504.389L537.838 504.386C568.003 542.738 603.467 568.384 649.392 585.054L649.561 585.115C649.411 584.564 649.282 584.008 649.172 583.448C603.852 566.867 568.8 541.441 538.962 503.506L550.759 494.271L725.355 357.602C726.7 361.777 730.611 364.8 735.232 364.8C740.965 364.8 745.61 360.153 745.61 354.421C745.61 352.772 745.216 351.221 744.532 349.837L984.55 349.625C984.455 399.747 969.868 447.831 942.345 488.719C915.546 528.529 877.801 559.528 833.003 578.622C833.485 578.892 833.887 579.245 834.204 579.664C878.978 560.441 916.705 529.37 943.533 489.518C971.216 448.392 985.883 400.033 985.977 349.624H985.984L985.982 348.19ZM774.544 102.724C864.409 117.117 934.728 173.964 967.642 258.822L775.694 332.705L741.242 345.967C739.878 344.996 738.273 344.348 736.532 344.131L774.544 102.724ZM538.249 195.661C579.238 143.098 638.241 109.643 704.389 101.462C715.081 100.14 725.248 99.4745 735.349 99.4745C747.764 99.4745 760.075 100.479 773.129 102.502L735.093 344.048C731.197 344.1 727.818 346.294 726.088 349.512L487.285 379.05C479.322 313.138 497.408 248.036 538.249 195.661ZM487.461 380.471L502.871 378.565L725.43 351.036C725.393 351.143 725.349 351.247 725.314 351.356L496.244 421.618C491.727 406.787 489.393 395.853 487.461 380.471ZM538.08 502.378C518.502 477.246 506.075 453.423 496.665 422.985L724.968 352.96C724.9 353.438 724.853 353.923 724.853 354.42C724.853 354.981 724.91 355.527 724.996 356.063L538.08 502.378ZM743.68 348.404C743.326 347.908 742.934 347.442 742.5 347.016L968.155 260.159C979.531 289.918 984.45 316.333 984.55 348.191L743.68 348.404Z"
					fill="white" />
			</g>
			<g id="afbeeldingen">
				<path id="gebouwtje"
					d="M849.105 424.92V468.402H907.251V424.92H849.105ZM871.76 434.196H875.773V440.883H871.76V434.196ZM863.057 434.196H867.069V440.883H863.057V434.196ZM854.684 434.196H858.697V440.883H854.684V434.196ZM875.774 467.29H854.685V447.718H875.774V467.29ZM880.464 434.196H884.476V440.883H880.464V434.196ZM884.542 454.405H880.53V447.718H884.542V454.405ZM889.298 434.196H893.31V440.883H889.298V434.196ZM893.375 454.405H889.364V447.718H893.375V454.405ZM898.002 434.196H902.014V440.883H898.002V434.196ZM902.079 454.405H898.067V447.718H902.079V454.405Z"
					fill="#414143" />
				<path id="werknemer"
					d="M688.219 256.701C688.655 256.148 688.55 255.593 688.55 255.593C688.55 255.593 691.272 239.019 691.341 237.214C691.409 235.418 692.412 233.968 692.412 232.587C692.412 231.776 692.833 227.694 693.183 224.447C692.87 223.146 692.515 221.789 692.35 221.487C692.034 220.905 692.429 219.849 691.995 219.405C691.127 218.496 690.161 218.073 690.939 216.513C691.313 215.763 692.232 216.602 692.39 217.006C692.402 217.041 692.419 217.062 692.437 217.081C692.445 217.088 692.453 217.094 692.462 217.099C692.476 217.108 692.491 217.114 692.507 217.115C692.516 217.117 692.527 217.117 692.537 217.116C692.554 217.115 692.572 217.111 692.591 217.105C692.6 217.101 692.611 217.098 692.621 217.093C692.64 217.084 692.659 217.073 692.68 217.06C692.691 217.052 692.702 217.045 692.714 217.036C692.729 217.025 692.745 217.012 692.76 216.999C692.778 216.985 692.795 216.969 692.812 216.953C692.816 216.949 692.817 216.947 692.821 216.944C692.903 216.866 692.976 216.778 693.022 216.72C693.172 216.543 693.473 216.994 693.629 216.669L693.686 212.386C693.686 212.386 691.812 211.7 690.94 209.622C690.072 207.544 689.604 207.477 688.601 206.302C687.595 205.124 687.461 203.602 687.461 200.63C687.461 197.651 689.001 193.642 689.2 192.193C689.398 190.737 690.732 187.551 691.469 186.686C692.204 185.818 697.656 184.235 697.656 184.235C697.656 184.235 698.11 183.096 698.591 182.871C699.076 182.649 699.226 182.336 699.86 181.75C700.499 181.162 701.64 181.323 701.64 181.323C701.64 181.323 701.633 181.088 701.587 180.905C701.58 180.873 701.576 180.849 701.565 180.824C701.544 180.768 701.514 180.722 701.472 180.704C701.307 180.634 700.671 179.249 700.403 178.525C700.136 177.8 699.968 176.207 700.101 174.481C700.234 172.754 701.736 170.808 705.2 170.133C708.661 169.462 710.666 172.296 710.666 172.296C710.666 172.296 710.44 172.324 710.749 172.57C711.058 172.823 711.167 173.385 711.109 173.262C711.058 173.16 710.791 172.942 710.717 172.889C710.759 172.921 710.84 173.012 710.967 173.279C711.152 173.659 710.7 174.574 710.753 174.313C710.802 174.056 710.533 173.694 710.533 173.694C710.533 173.694 710.534 173.705 710.54 173.733C710.543 173.74 710.543 173.754 710.545 173.764C710.548 173.784 710.551 173.808 710.554 173.836C710.565 173.962 710.575 174.203 710.533 174.662C710.468 175.421 710.584 175.08 710.735 175.681C710.886 176.282 710.95 176.595 710.7 177.024C710.447 177.46 710.184 177.808 710.316 178.01C710.446 178.221 710.666 178.358 710.752 178.879C710.836 179.399 710.334 179.241 710.249 179.449C710.165 179.653 710.249 180.054 710.231 180.331C710.217 180.605 709.829 180.693 710.012 180.76C710.198 180.83 710.198 180.985 710.098 181.09C709.997 181.192 709.747 182.023 709.78 182.768C709.784 182.905 709.763 183.018 709.729 183.109C709.722 183.127 709.717 183.148 709.712 183.158C709.675 183.242 709.629 183.309 709.573 183.355C709.57 183.362 709.566 183.365 709.562 183.369C709.555 183.376 709.554 183.376 709.548 183.38C709.444 183.461 709.333 183.503 709.259 183.517H709.258C709.246 183.521 709.249 183.517 709.237 183.521C709.202 183.525 709.179 183.528 709.179 183.528C709.179 183.528 709.509 183.974 709.746 184.284C709.98 184.597 710.867 185.808 710.867 185.808C710.867 185.808 710.907 185.716 711.71 186.099C712.512 186.479 714.521 187.688 715.122 188.103C715.724 188.515 717.164 192.182 717.431 193.67C717.698 195.157 718.165 196.262 718.869 197.542C719.572 198.822 719.537 199.303 719.505 199.891C719.47 200.482 719.605 201.48 719.605 202.658C719.605 203.837 719.002 204.839 719.002 204.839C719.002 204.839 719.171 205.563 719.302 206.428C719.437 207.294 719.068 208.644 718.667 209.161C718.266 209.678 718.667 209.611 718.766 210.336C718.868 211.064 719.068 211.268 718.565 211.542C718.064 211.823 717.732 212.618 717.296 213.135C716.86 213.653 716.293 213.688 715.858 213.828C715.424 213.969 715.088 214.349 714.686 215.245C714.282 216.141 714.988 220.467 714.718 220.741C714.452 221.02 713.897 220.893 713.897 220.893C713.897 220.893 714.029 224.768 713.828 226.428C713.628 228.088 711.808 253.764 711.808 253.764C711.808 253.764 712.645 254.942 713.415 255.803C714.183 256.669 714.417 257.984 714.25 258.536C713.766 260.136 710.621 259.819 709.53 259.228C708.898 258.88 708.695 257.984 708.328 257.288C707.962 256.598 707.124 256.39 706.521 255.873C705.92 255.353 706.066 254.028 706.066 254.028L704.861 252.297C704.861 252.297 704.613 238.574 704.613 234.421C704.613 230.275 703.676 224.05 703.676 224.05C702.451 224.905 700.776 233.69 699.439 240.955C698.1 248.214 695.011 255.701 695.011 255.701L693.906 256.046C693.906 256.046 693.873 257.049 693.841 257.534C693.809 258.015 693.04 258.325 692.937 258.568C692.837 258.81 692.837 259.918 692.67 260.506C692.501 261.093 691.967 261.336 690.867 261.61C689.762 261.891 687.684 261.75 687.449 261.3C687.217 260.854 687.083 259.953 687.05 259.19C687.013 258.432 687.784 257.257 688.219 256.701Z"
					fill="#414143" />
			</g>
			<path id="bedrijven installatie"
				d="M735.334 347.006L624.855 650.478C705.298 679.768 782.679 677.75 861.484 644.305L735.334 347.006Z"
				fill="#D5E8EB" stroke="#2E8C9D" stroke-width="2" stroke-miterlimit="10" />
			<path id="werknemers installatie"
				d="M735.368 348.374L683.3 491.512C721.343 505.591 757.883 504.771 795.039 489.002L735.368 348.374Z"
				fill="#2E8C9D" />
			<path id="middenpunt"
				d="M735.233 377.374C747.91 377.374 758.186 367.097 758.186 354.42C758.186 341.743 747.91 331.465 735.233 331.465C722.557 331.465 712.281 341.743 712.281 354.42C712.281 367.097 722.557 377.374 735.233 377.374Z"
				fill="white" />
		</g>
		<g id="teksten">
			<text id="Techniekketen_2" fill="#414042" xml:space="preserve" font-family="Roboto"
				font-size="31" font-weight="500">
				<tspan x="35" y="59.5957">Techniekketen</tspan>
			</text>
			<text id="bedrijven_2" fill="#414143" xml:space="preserve" font-family="Roboto"
				font-size="19">
				<tspan x="701.481" y="647.962">bedrijven</tspan>
			</text>
			<text id="8.693" fill="#074953" xml:space="preserve" font-family="Roboto"
				font-size="31" font-weight="bold">
				<tspan x="700.35" y="626.497">8.693</tspan>
			</text>
			<text id="130.243" fill="#2E8C9D" xml:space="preserve" font-family="Roboto"
				font-size="31" font-weight="bold">
				<tspan x="679.789" y="554.884">130.243</tspan>
			</text>
			<text id="werknemers_2" fill="#414143" xml:space="preserve" font-family="Roboto"
				font-size="19">
				<tspan x="687.832" y="574.962">werknemers</tspan>
			</text>
			<g id="13.632 / 25.950">
				<text fill="#96C5CE" xml:space="preserve" font-family="Roboto" font-size="25"
					letter-spacing="0em">
					<tspan x="1117" y="509.768">13.632 </tspan>
					<tspan x="1210.29" y="509.768"> </tspan>
				</text>
				<text fill="#9E9FA0" xml:space="preserve" font-family="Roboto" font-size="25"
					letter-spacing="0em">
					<tspan x="1199.98" y="509.768">/</tspan>
				</text>
				<text fill="#2E8C9D" xml:space="preserve" font-family="Roboto" font-size="25"
					letter-spacing="0em">
					<tspan x="1216.49" y="509.768">25.950</tspan>
				</text>
			</g>
			<text id="TI technische dienstverlening en R&#38;D" fill="#414143" xml:space="preserve"
				font-family="Roboto" font-size="26">
				<tspan x="1117" y="451.104">TI technische &#10;</tspan>
				<tspan x="1117" y="481.104">dienstverlening en R&#38;D</tspan>
			</text>
			<g id="1.975 / 36.221">
				<text fill="#96C5CE" xml:space="preserve" font-family="Roboto" font-size="25"
					letter-spacing="0em">
					<tspan x="1117" y="355.941">1.975 </tspan>
					<tspan x="1196.25" y="355.941"> </tspan>
				</text>
				<text fill="#9E9FA0" xml:space="preserve" font-family="Roboto" font-size="25"
					letter-spacing="0em">
					<tspan x="1185.95" y="355.941">/</tspan>
				</text>
				<text fill="#2E8C9D" xml:space="preserve" font-family="Roboto" font-size="25"
					letter-spacing="0em">
					<tspan x="1202.45" y="355.941">36.221</tspan>
				</text>
			</g>
			<text id="TI maken" fill="#414143" xml:space="preserve" font-family="Roboto"
				font-size="26">
				<tspan x="1117" y="326.536">TI maken</tspan>
			</text>
			<g id="12.087 / 87.124">
				<text fill="#96C5CE" xml:space="preserve" font-family="Roboto" font-size="25"
					letter-spacing="0em">
					<tspan x="1117" y="138.084">12.087 </tspan>
					<tspan x="1210.29" y="138.084"> </tspan>
				</text>
				<text fill="#9E9FA0" xml:space="preserve" font-family="Roboto" font-size="25"
					letter-spacing="0em">
					<tspan x="1199.98" y="138.084">/</tspan>
				</text>
				<text fill="#2E8C9D" xml:space="preserve" font-family="Roboto" font-size="25"
					letter-spacing="0em">
					<tspan x="1216.49" y="138.084">87.124</tspan>
				</text>
			</g>
			<text id="TI handel" fill="#414143" xml:space="preserve" font-family="Roboto"
				font-size="26">
				<tspan x="1117" y="109.176">TI handel</tspan>
			</text>
			<g id="6.036 / 29.365">
				<text fill="#96C5CE" xml:space="preserve" font-family="Roboto" font-size="25"
					letter-spacing="0em">
					<tspan x="192" y="651.28">6.036 </tspan>
					<tspan x="271.248" y="651.28"> </tspan>
				</text>
				<text fill="#9E9FA0" xml:space="preserve" font-family="Roboto" font-size="25"
					letter-spacing="0em">
					<tspan x="260.945" y="651.28">/</tspan>
				</text>
				<text fill="#2E8C9D" xml:space="preserve" font-family="Roboto" font-size="25"
					letter-spacing="0em">
					<tspan x="277.449" y="651.28">29.365</tspan>
				</text>
			</g>
			<text id="TI reparatie" fill="#414143" xml:space="preserve" font-family="Roboto"
				font-size="26">
				<tspan x="217" y="623.447">TI reparatie</tspan>
			</text>
			<g id="1.894 / 33.976">
				<text fill="#96C5CE" xml:space="preserve" font-family="Roboto" font-size="25"
					letter-spacing="0em">
					<tspan x="186" y="539.1">1.894 </tspan>
					<tspan x="265.248" y="539.1"> </tspan>
				</text>
				<text fill="#9E9FA0" xml:space="preserve" font-family="Roboto" font-size="25"
					letter-spacing="0em">
					<tspan x="254.945" y="539.1">/</tspan>
				</text>
				<text fill="#2E8C9D" xml:space="preserve" font-family="Roboto" font-size="25"
					letter-spacing="0em">
					<tspan x="271.449" y="539.1">33.976</tspan>
				</text>
			</g>
			<text id="TI energie" fill="#414143" xml:space="preserve" font-family="Roboto"
				font-size="26">
				<tspan x="234" y="510.192">TI energie</tspan>
			</text>
			<g id="843 / 28.564">
				<text fill="#96C5CE" xml:space="preserve" font-family="Roboto" font-size="25"
					letter-spacing="0em">
					<tspan x="201" y="433.265">843 </tspan>
				</text>
				<text fill="#9E9FA0" xml:space="preserve" font-family="Roboto" font-size="25"
					letter-spacing="0em">
					<tspan x="249.315" y="433.265">/ </tspan>
				</text>
				<text fill="#2E8C9D" xml:space="preserve" font-family="Roboto" font-size="25"
					letter-spacing="0em">
					<tspan x="265.819" y="433.265">28.564</tspan>
				</text>
			</g>
			<text id="TI telecom" fill="#414143" xml:space="preserve" font-family="Roboto"
				font-size="26">
				<tspan x="226" y="404.127">TI telecom</tspan>
			</text>
			<g id="24.891 / 90.415">
				<text fill="#96C5CE" xml:space="preserve" font-family="Roboto" font-size="25"
					letter-spacing="0em">
					<tspan x="172" y="309.639">24.891 </tspan>
					<tspan x="265.286" y="309.639"> </tspan>
					<tspan x="354.471" y="309.639"> </tspan>
				</text>
				<text fill="#9E9FA0" xml:space="preserve" font-family="Roboto" font-size="25"
					letter-spacing="0em">
					<tspan x="254.983" y="309.639">/</tspan>
				</text>
				<text fill="#2E8C9D" xml:space="preserve" font-family="Roboto" font-size="25"
					letter-spacing="0em">
					<tspan x="271.487" y="309.639">90.415 </tspan>
				</text>
			</g>
			<text id="TI advies/ontwerp" fill="#414143" xml:space="preserve" style="white-space: pre"
				font-family="Roboto" font-size="26">
				<tspan x="139" y="280.731">TI advies/ontwerp</tspan>
			</text>
			<text id="totaal: 460.000" fill="#2E8C9D" xml:space="preserve" font-family="Roboto"
				font-size="24">
				<tspan x="217" y="124.203">totaal: 460.000 </tspan>
			</text>
			<text id="Werknemers" fill="#2E8C9D" xml:space="preserve" font-family="Roboto"
				font-size="26" font-weight="bold">
				<tspan x="217" y="94.8867">Werknemers</tspan>
			</text>
			<text id="totaal: 70.000" fill="#96C5CE" xml:space="preserve" font-family="Roboto"
				font-size="24">
				<tspan x="35" y="124.203">totaal: 70.000 </tspan>
			</text>
			<text id="Bedrijven" fill="#96C5CE" xml:space="preserve" font-family="Roboto"
				font-size="26" font-weight="bold">
				<tspan x="35" y="94.8867">Bedrijven </tspan>
			</text>
		</g>
	</g>
</svg>