<svg width="1480" height="780" viewBox="0 0 1480 780" fill="none" xmlns="http://www.w3.org/2000/svg">
  <path fill="#E5E5E5" d="M0 0h1480v780H0z"/>
  <g id="Techniekketen">
    <path fill="#fff" d="M0 0h1480v780H0z"/>
    <g id="achtergrond">
      <path id="horizon lijnrechts" d="M1454 706l-584 1" stroke="#A6A8AB" stroke-miterlimit="10"/>
      <g id="stad">
        <g id="stad achtergrond" fill="#D7D8D8">
          <path id="Vector" d="M1215.04 685.685v-.32c-3.34.05-6.68.066-10.02.311 3.34.001 6.68-.011 10.02.009z"/>
          <path id="Vector_2" d="M1215.04 682.46v-.488h-6.28v.489c2.1-.001 4.19-.004 6.28-.001z"/>
          <path id="Vector_3" d="M1212.88 655.368c-4.98.438-10 .548-14.99.852-1.76.107-3.94-1.565-5.19.8.17.125.39.267.61.408 2.85-.288 10.1 1.233 9.95 1.506-.11 1.535-.06 6.951-.07 7.251 3.78-.291 8.05-.53 12.07-.763.09-3.356.45-6.882-.22-10.183-.71.022-1.43.064-2.16.129z"/>
          <path id="Vector_4" d="M1215.09 674.715c-2.15.046-4.3.098-6.45.327h6.44c.01-.109.01-.218.01-.327z"/>
          <path id="Vector_5" d="M1215.19 668.53c0-.166.01-.331.01-.496-2.54.191-5.04.337-7.37.496h7.36z"/>
          <path id="Vector_6" d="M1215.13 671.692v-.319c-1.49.115-2.97.236-4.38.342 1.41 0 2.88-.022 4.38-.023z"/>
          <path id="Vector_7" d="M1283.75 703.597c-.32-2.044-.73-7.302-.95-9.353-.15-1.317-.04-2.654-.04-3.983v-8.538l-.76-.01v22.016c-1.13-.269-1.68-.616-1.74-1.016-.34-2.189-.75-7.608-.8-9.808-.22-10.251-.32-20.506-.49-30.759-.01-.672-.12-1.817-.53-1.932-2.96-.847-2.2-2.896-2.36-4.813-.18 1.345-.34 2.517-.41 3.089-6.68.918-12.77 1.757-19.05 2.621.2 2.442.39 4.7.57 6.902-2.26.774-3 .177-3-1.522-.03-5.926-.17-11.851-.21-17.778-.04-5.814-.01-11.629-.01-17.239-7.65-4.03-15.71-.93-23.5-1.233.19 6.891.37 13.728.55 20.546.38-.012.75-.02 1.12-.009-.22-5.798-.44-11.594-.6-17.393-.02-.677 1.17-1.817 2.02-1.989 2.47-.5 5.05-.606 7.58-.89 4.29-.481 4.61-.352 4.6 3.253-.01 5.855-.04 11.711-.07 17.567l.49-.006c-.02-6.76.04-13.556.04-20.484 6.76.497 7.13.652 7.1 5.158-.09 14.074-.38 28.145-.52 42.218-.07 6.187-.04 12.37-.02 18.539.05.085.09.177.11.272l-.01.001c0 .396-.01.791 0 1.187-.02.508-.02 1.017-.02 1.52v2.268c0 1.374.01 2.749-.01 4.124v.026c4.06.1 31.26-.144 31.61-.261-.06-.506-.11-1.754-.17-2.26-.17-.013-.34-.027-.52-.031z"/>
          <path id="Vector_8" d="M1185.04 603.069c-.01 16.294.87 32.563 1.38 48.84.05 1.634.07 3.268.09 4.904.19-.102.35-.133.58-.151l.05-.001c.01 0 .02.005.04.006-.17-5.842-.35-11.683-.55-17.524-.42-12.028-1.05-24.051-1.59-36.074z"/>
          <path id="Vector_9" d="M1223.25 657.832c-.27-.133-.61-.234-1.03-.319.42.085.76.186 1.03.319z"/>
          <path id="Vector_10" d="M1209.32 689.09c-1.98.022-3.97.035-5.96.039v.299c.22-.003.44-.01.66-.012 3.67-.037 7.35-.014 11.02.015v-.482c-1.91.078-3.81.12-5.72.141z"/>
          <path id="Vector_11" d="M1215.04 689.43c-3.67-.028-7.35-.052-11.02-.014-.22.002-.44.009-.66.012.01 2.956 0 16.096 0 16.096 1.9.041 4.55.08 6.45.121l1.41.03c1.3.028 2.6.053 3.9.079.01-1.88-.08-14.045-.08-14.693v-1.631z"/>
          <path id="Vector_12" d="M1192.93 694.27c0 .106 0 .209.01.312.01.108.03.217.05.328-.02-.111-.04-.219-.05-.328-.01-.103-.01-.206-.01-.312z"/>
          <path id="Vector_13" d="M1122.5 668.928c-.25-.025-.5-.042-.76-.05l-.24-.01c.04 7.635.09 15.271.16 22.907.02 2.155.25 4.31.38 6.465l.88-.011v-29.208c-.07-.009-.13-.02-.2-.043a1.42 1.42 0 00-.22-.05z"/>
          <path id="Vector_14" d="M1093.41 692.841l.36.021v-14.771a68.739 68.739 0 00-.32 3.781c-.19 3.65-.04 7.312-.04 10.969z"/>
          <path id="Vector_15" d="M1093.77 678.091c.03-.347.06-.694.11-1.041-.04-.271-.08-.536-.11-.81v1.851z"/>
          <path id="Vector_16" d="M1052.5 684.378c0 .313 0 .626-.01.939.03.04.04.086.06.128.17-1.002.32-2.006.44-3.012.11-.868.21-1.738.29-2.609a41.69 41.69 0 01-.59 2.185c-.03.791-.1 1.581-.19 2.369z"/>
          <path id="Vector_17" d="M1074.99 699.546c-.07-.941-.15-1.896-.21-2.851-.45-7.227-1.14-14.452-1.25-21.683-.05-2.863 3.06-4.631 4.98-6.752l.78.261c.65 9.523 1.3 19.045 1.96 28.567l.93.025c.1-.786.35-1.58.29-2.357-.67-8.828-1.33-17.657-2.16-26.476-.11-1.18-.72-2.678-1.74-3.389-4.33-3.005-6.39-6.677-5.92-11.347.04-.427-.11-.866-.17-1.301l-.39.022v6.436c-1.76-1.76-3.39-3.378-5.03-5.015-.24 4.232-.21 47.375-.24 48.859 1.29.148 2.22.255 2.59.261 6.06-2.146 14.64-2.56 20.66-.745-.13.383-.25.76-.36 1.096 2.24.041 4.48.078 6.71.12.57-.434 1.12-.902 1.78-1.152 1.05-.394 2.25-.494 3.39-.722l-.15-.382-26.45-1.475z"/>
          <path id="Vector_18" d="M1183.74 594.14c-2.93-1.245-5.84-2.525-8.2-3.551l-20.6 3.859c.48 35.482.97 70.727 1.46 105.972l.8.051c.08-.724.23-1.447.24-2.171.05-10.258.21-20.517.1-30.774-.11-10.175-.51-20.347-.75-30.521-.3-12.305-.5-24.611-.85-36.915-.13-4.591-.33-4.726 4.97-5.829 4.26-.887 8.63-1.389 13.41-2.134 1.33 36.863-.83 73.145 3.1 109.311-3.36-36.411-.62-72.862-1.61-109.399 3.27 2.002 9.37 1.021 8.64 6.44 1.05-3.623 1.04-3.598-.71-4.339z"/>
          <path id="Vector_19" d="M1152.4 629.365c-1.22-3.062-3.3-5.373-5.94-7.62-1.95-1.66-3.23-3.863-4.87-5.79-.55-.655-1.29-1.206-2.26-2.099-.05 4.087-3.44 6.231-5.13 9.081l-3.63 3.946c.32.266.71.442 1.11.567-.4-.123-.79-.301-1.11-.567-1.04.856-2.9 1.676-2.96 2.574-.15 2.49.45 5.013.75 7.523.49-1.151.55-2.271.48-3.386-.23-4.303.89-5.209 6.82-5.007 0 2.606.04 5.236-.02 7.865-.02.849-.23 1.703-.45 2.537-.37 1.442-1.22 2.882-1.17 4.303.17 4.245 1.08 8.56-4.12 12.259-.68-3.912-1.31-7.508-2.02-11.59v11.13c-3.84-1.577-7.3-1.825-11.17-1.241-6.76 1.018-13.67 1.328-21.34 2.007v-16.429c-4.48.778-5.07-1.105-5.03-3.524.02-.972-.13-1.945-.14-2.918-.13-8.944-.2-17.889-.44-26.832-.02-.893-.86-2.328-1.69-2.545-2.47-.649-3-2.1-3.03-3.84-.12-5.221-.13-10.443-.21-15.664-.01-.473-.21-.945-.31-1.417l-.82.071v19.569c-5.91-1.667-2.72 2.958-5.03 4.169-1.45-.115-3.23-.277-5.02-.391-2.06-.132-3.62.218-3.49 2.386.11 1.833.02 3.672.1 5.508.43 10.968.89 21.935 1.35 32.902.04.94.14 1.88.21 2.82.31-3.337.24-6.602.32-9.867.12-4.844.58-9.69.46-14.528-.11-4.858-.77-9.707-1.15-14.562-.19-2.408 1.36-3.524 4.1-3.203 3.46.406 6.87 1.081 10.31 1.622.58.091 1.17.093 1.76.136.06-.228.12-.457.19-.685-1.55-.46-3.09-.937-4.65-1.376-2.44-.689-1.65-2.027-1.18-3.337 5.9-.338 6.67.132 6.77 4.745.23 10.254.32 20.51.58 30.763.01.593 1.01 1.662 1.56 1.67 2.36.03 2.88 1.155 2.88 2.741.01 4.025.01 8.05.01 12.832-2.26 0-5.22.206-8.11-.057-2.92-.266-3.42.745-3.35 2.845.2 6.019.17 12.043.29 18.066.05 2.306.26 4.61.39 6.915.68-.983.56-1.932.54-2.882-.17-7.162-.34-14.325-.45-21.488-.02-1.192-.18-2.601 2.17-2.572 4.03.047 8.07.013 12.6.013v12.603c-1.2.671-3 1.139-3.15 1.845a62.467 62.467 0 00-.83 5.088c.79 5.863 1.62 11.182 2.11 16.518.2 2.188 1.27 3.298 4.2 4.134-.22-1.632-.52-2.869-.53-4.108-.08-11.859-.12-23.718-.08-35.578.01-.528.92-1.46 1.5-1.519 5.78-.573 11.58-.932 17.35-1.504 2.31-.229 3.02.414 3.03 2.272 0 3.001.02 6.002.03 9.003.23.01.46.014.68.025.25.013.5.046.75.081v-11.111c2.64.439 4.73.667 6.73 1.149 2.44.588 3.82 1.797 3.88 4.198.05 1.86.12 3.719.18 5.579.21-.041.44-.055.66-.054.66.003 1.33.047 1.99.092-.12-8.582.05-17.204 1.04-25.825l1.76.157c-.23-3.238-.45-6.303-.67-9.368l.92-.15c1.66 1.866 3.32 3.733 5.18 5.816 1.59-3.556 3.02-6.724 4.44-9.892l.83.007c.57 1.465 1.59 2.919 1.64 4.396.18 5.742.05 11.491.05 17.238v24.194c.5-6.274.43-12.546.52-18.818.1-6.725.26-13.453.62-20.171.08-1.525.35-2.82-.29-4.445zm-8.09 4.677c-4.05-2.124-6.11-5.245-6.04-8.675-.07 3.43 1.99 6.55 6.04 8.675zm-1.15-14.272c1.13 1.111 2.25 2.213 3.32 3.345-1.07-1.131-2.19-2.234-3.32-3.345zm4.64 7.774c.24-.516.46-1.215.47-1.81-.01.594-.23 1.294-.47 1.81z"/>
          <path id="Vector_20" d="M1028.81 701.996c-.03-.122-.05-.252-.03-.395.07-.533.09-1.065.1-1.599-1.38-.545-2.38-1.481-2.51-2.723-.66-6.348-1.23-12.702-1.8-19.057-.67-7.587-1.25-15.18-2.05-22.757-.08-.755-1.29-1.691-2.25-2.066-2.95-1.161-6.04-2.091-9.36-3.204-2.09 1.357-4.46 2.901-6.89 4.473a3964.52 3964.52 0 00-3.24-3.57c-.21.232-.4.446-.6.664l-.03-.034c-.361.416-.693.797-1.015 1.164l-.966 1.108-.602.69.005-.005a.012.012 0 01-.005.005c-.333.346-.668.691-1.009 1.044-1.706 1.363-3.049 2.668-1.967 4.991.379.812-.977 2.163-1.481 3.287-.185.413-.193.878-.281 1.32l.427.083c.09-.052.186-.094.289-.122l.34-.047c.047 0 .09.013.135.018.424-1.177 1.065-2.352 1.079-3.533.041-3.355.752-4.04 5.401-4.056v5.324c2.46.013 2.98.912 3.06 2.159.1-.004.2.001.29.017v-2.007c-3.18-1.193-3.58-2.224-1.85-5.393 4.76.444 4.79.443 4.92 4.23.04 1.005.04 2.009.03 3.015l.01.001c.36-3.291 1.6-6.709-2.24-9.629 2-1.422 3.76-2.682 5.53-3.942l1.05.311c.26 4.355.55 9.351.81 13.693.97.117 3.39-.113 3.72.018.89-.235-.02 35.505.29 36.975.01.047.01.096.01.145.92.011 6.71-.027 12.86-.07-.02-.044-.04-.081-.05-.128a1.085 1.085 0 01-.13-.398z"/>
          <path id="Vector_21" d="M1030.23 646.468v5.073l-3.69.381c.49 14.918-.05 29.702 2.78 44.338.18-2.119-.48-4.196-.57-6.29-.5-11.588-.9-23.179-1.23-34.77-.02-.786.81-1.589 1.24-2.384l1.81 1.207c.66-.356 1.55-1.243 2.31-1.172 4.35.408 4.02-1.694 3.49-4.081-.16-.735-.02-1.516-.02-2.257 5.07-.242 5.23-.158 5.48 3.553.03.41.05.822.07 1.232.29-.087.61-.079.9.027-.13-1.746-.26-3.5-.4-5.243-4.15-1.018-8.17-1.919-12.17.386z"/>
          <path id="Vector_22" d="M1308.53 658.952l-1.23-2.648c-.97.537-1.87 1.225-2.94 1.57-1.15.375-2.45.556-3.69.59-1.33.036-2.66-.288-3.99-.293-2.66-.01-5.32.191-7.97.08-.75-.031-2.16-.959-2.08-1.263.96-3.701-2.83-6.146-3.46-9.397-.09-.437-.67-.809-1.21-1.436-.57.691-.95 1.165-1.34 1.639l-.84.828c-1.25 1.353-2.5 2.708-4.03 4.369l5.75-.392v23.983l.96.006v-24.016c1.63.611 2.55.954 3.63 1.356-.47 1.644 1.15 3.985-2.66 4.406.51.839.92 1.524 1.18 1.965 4.23-1.4 8.43-1.266 12.62-.995.38.024 1.01.773.97 1.145-.1.878-.24 1.753-.4 2.627.46.016.92.03 1.38.047 0-.751.23-1.806.65-3.333-.42 1.527-.65 2.582-.65 3.333 1.82.068 3.65.137 5.47.183l.36.011c.31.008.62.013.93.018 1.1-2.298-1.35-4.517.31-6.399l1.11.008.69 2.734c.18-.049.35-.099.53-.148-.02-.192-.04-.385-.05-.578zM1278.48 652c.12-.332.25-.645.36-.944-.11.299-.23.612-.36.944z"/>
          <path id="Vector_23" d="M1158.87 695.73l.42-.001v-79.383l-.42.001v79.383z"/>
          <path id="Vector_24" d="M1102.08 654.373c.18-.656.36-1.313.6-2.199 4.62-.399 9.54-2.269 14.48.201.41.205 1.18.059 1.7-.108.15-.047.15-1.022-.04-1.086-1.74-.62-3.51-1.464-5.34-1.592-1.95-.138-3.96.448-5.95.682-3.28.385-6.56.739-9.83 1.107l-.12.777c1.06.314 2.18.543 3.17.974.55.241.89.819 1.33 1.244z"/>
          <path id="Vector_25" d="M1165.55 633.36c-.13-5.436-.43-10.868-.71-16.301v37.656c.74-7.121.87-14.24.71-21.355z"/>
          <path id="Vector_26" d="M1164.59 612.082c.08 1.659.17 3.318.25 4.977v-4.979l-.25.002z"/>
          <path id="Vector_27" d="M1162.37 700.706l.31.033v-34.53l-.31.006v34.491z"/>
          <path id="Vector_28" d="M1161.32 597.894c0 4.475.07 8.952-.01 13.427-.11 6.079-.33 12.157-.5 18.235V629.55c.31-1.26.82-2.515.87-3.782.24-5.459.38-10.923.48-16.385.07-3.828.01-7.658.01-11.487l-.85-.002z"/>
          <path id="Vector_29" d="M1152.12 700.91c.26-.008.52-.016.78-.026v-22.465l-.78.004v22.487z"/>
          <path id="Vector_30" d="M1236.05 646.542c0 1.678-.55 3.424.06 4.55.92.094 1.84.18 2.75.209 1.37.045 2.74.05 4.12.044.73-1.268 1.09-3.32.85-5.545l-7.78.742z"/>
          <path id="Vector_31" d="M1172.06 701.303l.37-.022v-29.137c-.13-.026-.25-.051-.37-.078v29.237z"/>
          <path id="Vector_32" d="M1171.12 594.806l-.38-.013v22.488l.38.016v-22.491z"/>
          <path id="Vector_33" d="M1235.73 632.29c.14 1.31.16 2.343.4 3.338.09.365.68.647 1.06.965l-.01.002c-.01-.001.02.01.02.01v-.012c.92-.095 1.86-.187 2.79-.285 4.62-.485 4.76-.657 3.6-4.836-2.62.271-5.27.549-7.86.818z"/>
          <path id="Vector_34" d="M1171.01 642.844v-.012.012z"/>
          <path id="Vector_35" d="M1171.01 620.622v22.209c.31-.699.9-1.404.88-2.096-.2-6.708-.49-13.415-.76-20.12l-.12.007z"/>
          <path id="Vector_36" d="M1167.16 616.894l.43.003v-20.959l-.43-.007v20.963z"/>
          <path id="Vector_37" d="M1243.5 638.101c-2.37.225-4.52.429-6.6.628v5.427c5.85.186 6.95-.801 6.6-6.055zm-5.84 5.225c-.52-4.24.12-4.77 4.85-4.045.03 3.81-.78 4.486-4.85 4.045z"/>
          <path id="Vector_38" d="M1171.01 665.998v-23.165 23.165z"/>
          <path id="Vector_39" d="M1168.37 635.17l-.29.014v14.69l.29-.004v-14.7z"/>
          <path id="Vector_40" d="M1168.36 669.053h.37V656.27h-.37v12.783z"/>
          <path id="Vector_41" d="M1165.41 687.314c.16-2.688.4-6.785.65-10.883l-.65-.009v10.892z"/>
          <path id="Vector_42" d="M1158.42 609.378l.45.107v-11.612l-.45.014v11.491z"/>
          <path id="Vector_43" d="M1168.95 700.484l.29-.003v-12.246h-.29v12.249z"/>
          <path id="Vector_44" d="M1091.07 684.498v10.972l.28-.017v-11.009l-.28.054z"/>
        </g>
        <path id="stad gebouw1" d="M985.867 665.07v40.812h28.723V665.07h-28.723zm13.221 2.997h2.362v3.989h-2.362v-3.989zm-.097 6.87h2.359v3.988h-2.359v-3.988zm0 6.801h2.359v3.989h-2.359v-3.989zm0 6.68h2.359v3.99h-2.359v-3.99zm-7.958 10.96h-2.361v-3.989h2.361v3.989zm0-6.971h-2.361v-3.99h2.361v3.99zm0-6.68h-2.361v-3.989h2.361v3.989zm0-6.802h-2.361v-3.988h2.361v3.988zm.098-6.869h-2.361v-3.989h2.361v3.989zm5.022 27.322h-2.361v-3.989h2.361v3.989zm0-6.971h-2.361v-3.99h2.361v3.99zm0-6.68h-2.361v-3.989h2.361v3.989zm0-6.802h-2.361v-3.988h2.361v3.988zm.098-6.869h-2.361v-3.989h2.361v3.989zm6.129 33.179h-4.414v-9.848h4.414v9.848zm4.09-5.857h-2.36v-3.989h2.36v3.989zm0-6.971h-2.36v-3.99h2.36v3.99zm0-6.68h-2.36v-3.989h2.36v3.989zm0-6.802h-2.36v-3.988h2.36v3.988zm.1-6.869h-2.36v-3.989h2.36v3.989zm5.02 27.322h-2.36v-3.989h2.36v3.989zm0-6.971h-2.36v-3.99h2.36v3.99zm0-6.68h-2.36v-3.989h2.36v3.989zm0-6.802h-2.36v-3.988h2.36v3.988zm.1-6.869h-2.36v-3.989h2.36v3.989z" fill="#D0D1D0"/>
        <path id="stad gebouw3" d="M1115.96 666.179v39.403h27.73v-39.403h-27.73zm12.76 2.893h2.28v3.852h-2.28v-3.852zm-.09 6.632h2.28v3.851h-2.28v-3.851zm0 6.567h2.28v3.851h-2.28v-3.851zm0 6.45h2.28v3.852h-2.28v-3.852zm-7.68 10.582h-2.28v-3.851h2.28v3.851zm0-6.731h-2.28v-3.852h2.28v3.852zm0-6.449h-2.28v-3.851h2.28v3.851zm0-6.568h-2.28v-3.851h2.28v3.851zm.09-6.631h-2.28v-3.852h2.28v3.852zm4.85 26.379h-2.28v-3.851h2.28v3.851zm0-6.731h-2.28v-3.852h2.28v3.852zm0-6.449h-2.28v-3.851h2.28v3.851zm0-6.568h-2.28v-3.851h2.28v3.851zm.1-6.631h-2.28v-3.852h2.28v3.852zm5.91 32.033h-4.26v-9.507h4.26v9.507zm3.95-5.654h-2.28v-3.851h2.28v3.851zm0-6.731h-2.28v-3.852h2.28v3.852zm0-6.449h-2.28v-3.851h2.28v3.851zm0-6.568h-2.28v-3.851h2.28v3.851zm.1-6.631h-2.28v-3.852h2.28v3.852zm4.85 26.379h-2.28v-3.851h2.28v3.851zm0-6.731h-2.28v-3.852h2.28v3.852zm0-6.449h-2.28v-3.851h2.28v3.851zm0-6.568h-2.28v-3.851h2.28v3.851zm.09-6.631h-2.28v-3.852h2.28v3.852z" fill="#D0D1D0"/>
        <path id="stad gebouw4" d="M1186.01 657.149v48.608h17.66v-48.608h-17.66zm12.8 5.765h2.28v3.863h-2.28v-3.863zm0 6.227h2.28v3.863h-2.28v-3.863zm-.1 6.653h2.29v3.861h-2.29v-3.861zm0 6.584h2.29v3.863h-2.29v-3.863zm0 6.469h2.29v3.862h-2.29v-3.862zm-7.7 10.613h-2.29v-3.863h2.29v3.863zm0-6.75h-2.29v-3.862h2.29v3.862zm0-6.468h-2.29v-3.863h2.29v3.863zm0-6.588h-2.29v-3.861h2.29v3.861zm.09-6.65h-2.28v-3.863h2.28v3.863zm0-6.227h-2.28v-3.863h2.28v3.863zm4.87 32.683h-2.29v-3.863h2.29v3.863zm0-6.75h-2.29v-3.862h2.29v3.862zm0-6.468h-2.29v-3.863h2.29v3.863zm0-6.588h-2.29v-3.861h2.29v3.861zm.09-6.65h-2.28v-3.863h2.28v3.863zm0-6.227h-2.28v-3.863h2.28v3.863zm5.93 38.353h-4.27v-9.535h4.27v9.535z" fill="#A6A8A7"/>
        <path id="stad gebouw5" d="M1214.83 650.951v54.937h38.66v-54.937h-38.66zm17.79 4.034h3.18v5.37h-3.18v-5.37zm-.13 9.247h3.18v5.369h-3.18v-5.369zm0 9.154h3.18v5.37h-3.18v-5.37zm0 8.994h3.18v5.369h-3.18v-5.369zm-10.71 14.754h-3.18v-5.37h3.18v5.37zm0-9.385h-3.18v-5.369h3.18v5.369zm0-8.992h-3.18v-5.37h3.18v5.37zm0-9.157h-3.18v-5.369h3.18v5.369zm.13-9.245h-3.18v-5.37h3.18v5.37zm6.76 36.779h-3.18v-5.37h3.18v5.37zm0-9.385h-3.18v-5.369h3.18v5.369zm0-8.992h-3.18v-5.37h3.18v5.37zm0-9.157h-3.18v-5.369h3.18v5.369zm.13-9.245h-3.17v-5.37h3.17v5.37zm8.25 44.662h-5.94v-13.256h5.94v13.256zm5.51-7.883h-3.18v-5.37h3.18v5.37zm0-9.385h-3.18v-5.369h3.18v5.369zm0-8.992h-3.18v-5.37h3.18v5.37zm0-9.157h-3.18v-5.369h3.18v5.369zm.13-9.245h-3.18v-5.37h3.18v5.37zm6.76 36.779h-3.17v-5.37h3.17v5.37zm0-9.385h-3.17v-5.369h3.17v5.369zm0-8.992h-3.17v-5.37h3.17v5.37zm0-9.157h-3.17v-5.369h3.17v5.369zm.14-9.245h-3.18v-5.37h3.18v5.37z" fill="#D0D1D0"/>
        <path id="stad gebouw2" d="M1028.59 650.623v54.936h38.67v-54.936h-38.67zm17.79 4.033h3.18v5.37h-3.18v-5.37zm-.13 9.248h3.18v5.368h-3.18v-5.368zm0 9.154h3.18v5.373h-3.18v-5.373zm0 8.996h3.18v5.367h-3.18v-5.367zm-10.71 14.751h-3.18v-5.37h3.18v5.37zm0-9.384h-3.18v-5.367h3.18v5.367zm0-8.99h-3.18v-5.373h3.18v5.373zm0-9.159h-3.18v-5.368h3.18v5.368zm.13-9.245h-3.17v-5.37h3.17v5.37zm6.76 36.778h-3.17v-5.37h3.17v5.37zm0-9.384h-3.17v-5.367h3.17v5.367zm0-8.99h-3.17v-5.373h3.17v5.373zm0-9.159h-3.17v-5.368h3.17v5.368zm.14-9.245h-3.18v-5.37h3.18v5.37zm8.24 44.661h-5.94v-13.256h5.94v13.256zm5.51-7.883h-3.18v-5.37h3.18v5.37zm0-9.384h-3.18v-5.367h3.18v5.367zm0-8.99h-3.18v-5.373h3.18v5.373zm0-9.159h-3.18v-5.368h3.18v5.368zm.13-9.245h-3.17v-5.37h3.17v5.37zm6.76 36.778h-3.17v-5.37h3.17v5.37zm0-9.384h-3.17v-5.367h3.17v5.367zm0-8.99h-3.17v-5.373h3.17v5.373zm0-9.159h-3.17v-5.368h3.17v5.368zm.14-9.245h-3.18v-5.37h3.18v5.37z" fill="#A6A8A7"/>
      </g>
      <path id="horizon lijnlinks" d="M612 706H35" stroke="#A6A8AB" stroke-miterlimit="10"/>
      <g id="windmolen donker" fill="#828487">
        <path id="windmolen" d="M139.324 583.693l-.175-.31-.238-.351-.269-.32-.29-.292-.31-.256-.33-.219-.054-.033-.346-.183-.358-.14-.365-.097-.073-.013-.371-.053-.234-.002-4.292.917-.186-.022-.195-.01-.194.002-.169.019-.126.031-.489.158-1.378.468-1.359.46-1.341.457-1.322.448-1.306.442-1.287.437-1.271.432-1.254.426-.12.065-.47.34-.319.448-.132.51-.014.127.009 2.138.257 2.113.506 2.086.249.499.401.452.506.36.09.057.514.205.091.027.132.023 2.393.317 2.366.312.154.016.16.005.159-.003.137-.011.103-.021.043-.012-.091 5.428-.016.882s-.304 14.839-.281 18.29c.016 2.339.017 4.681-.076 7.019-.041 1.024.03 2.192-.129 3.276L124.771 725h9.525l-.802-123.621 1.109-7.346.421-.117 1.213-.334.505-.196.127-.052.52-.371.417-.481.264-.545.052-.109.57-2.291.1-.734.055-.052.248-.276.216-.31.185-.336.025-.059.148-.358.06-.201-.405-3.518z"/>
        <path id="wieken" d="M171.505 543.66c-.134-.142-.267-.286-.4-.429-.893.533-1.907.931-2.654 1.624a196.824 196.824 0 00-7.338 7.139c-6.381 6.568-12.651 13.249-19.093 19.754-2.517 2.542-4.886 4.987-5.149 8.862-.01.142-.069.317-.147.5-.351.034-.7.13-1.033.303a2.851 2.851 0 00-.673.505c-14.448-4.739-29.953-9.848-44.301-14.514-1.135-.368-2.372-.411-3.561-.605l-.242.537c.823.637 1.568 1.441 2.484 1.882a193.86 193.86 0 009.286 4.201c8.404 3.518 16.869 6.89 25.238 10.488 3.269 1.406 6.397 2.709 10.034 1.496.133-.044.314-.052.51-.049.43.828 1.2 1.353 2.047 1.503 4.722 14.634 9.771 30.353 14.493 44.864.374 1.148 1.068 2.188 1.613 3.278l.57-.119c.024-1.05.226-2.134.039-3.144a200.127 200.127 0 00-2.114-10.086c-2.14-8.962-4.433-17.887-6.489-26.868-.803-3.508-1.604-6.84-4.711-9.108-.114-.084-.229-.23-.343-.396.347-.72.393-1.572.082-2.357 9.774-11.784 20.286-24.424 29.956-36.143.764-.927 1.27-2.073 1.896-3.118z"/>
      </g>
      <g id="windmolen licht" fill="#D9DADB">
        <path id="windmolen_2" d="M72.41 565.462l-.174-.31-.239-.351-.269-.32-.29-.291-.31-.257-.33-.219-.053-.033-.347-.183-.358-.14-.365-.097-.073-.013-.37-.053-.235-.002-4.292.918-.185-.023-.196-.01-.194.002-.169.019-.125.031-.49.158-1.378.468-1.358.46-1.342.457-1.322.448-1.306.442-1.287.437-1.27.432-1.254.426-.121.065-.47.34-.32.448-.131.51-.014.127.009 2.138.258 2.113.505 2.086.249.5.401.451.507.36.09.057.513.205.092.027.132.023 2.392.317 2.366.312.154.016.16.005.159-.003.138-.011.102-.02.043-.013-.09 5.428-.017.882s-.304 14.839-.281 18.29c.016 2.339.017 4.681-.076 7.019-.04 1.024.03 2.192-.129 3.276l-1.593 93.963h9.525l-.802-123.621 1.11-7.346.42-.117 1.213-.334.505-.196.128-.052.519-.371.417-.481.264-.545.052-.109.57-2.291.1-.734.055-.052.248-.276.216-.31.185-.336.025-.059.148-.358.06-.201-.404-3.518z"/>
        <path id="wieken_2" d="M104.591 525.429a53.327 53.327 0 01-.399-.429c-.893.533-1.908.931-2.655 1.624a196.89 196.89 0 00-7.338 7.139c-6.38 6.568-12.65 13.249-19.093 19.754-2.517 2.542-4.886 4.987-5.148 8.862-.01.142-.07.317-.148.5-.35.034-.7.13-1.033.303a2.855 2.855 0 00-.673.505c-14.447-4.739-29.952-9.848-44.3-14.514-1.135-.368-2.373-.411-3.562-.605l-.242.537c.823.637 1.568 1.441 2.484 1.882a193.905 193.905 0 009.286 4.201c8.404 3.518 16.87 6.89 25.238 10.488 3.27 1.406 6.397 2.709 10.034 1.496.133-.044.314-.052.51-.049a2.86 2.86 0 002.047 1.503c4.722 14.634 9.772 30.353 14.493 44.864.374 1.148 1.068 2.188 1.613 3.278l.57-.119c.025-1.05.226-2.134.04-3.144a200.351 200.351 0 00-2.115-10.086c-2.14-8.962-4.433-17.887-6.488-26.868-.803-3.508-1.604-6.84-4.711-9.108-.115-.084-.23-.23-.344-.396.348-.72.394-1.572.082-2.357 9.774-11.784 20.286-24.424 29.956-36.143.764-.927 1.27-2.073 1.896-3.118z"/>
      </g>
    </g>
    <g id="diagram">
      <path id="radar 1" d="M839.342 91.22l14.029-13.672c2.352-2.278 4.649-4.557 7.044-6.837 1.221-1.108 2.89-1.986 4.655-1.834 1.741.122 3.264 1.024 4.65 1.81 5.696 3.168 11.496 6.15 17.32 9.086 1.459.745 2.906 1.441 4.38 2.222.727.418 1.438.925 1.997 1.61a4.61 4.61 0 01.985 2.419c.104.866.011 1.72-.14 2.541l-.429 2.406-.81 4.822c-1.042 6.435-1.967 12.896-3.081 19.335l-.426 2.414c-.149.808-.272 1.563-.252 2.332-.008 1.538.701 2.91 1.889 3.909 1.161.99 2.625 1.851 3.933 2.807 1.341.934 2.673 1.883 3.992 2.848a225.847 225.847 0 0115.343 12.226 209.202 209.202 0 017.257 6.611c1.089 1.062 2.425 1.646 3.861 1.427 1.427-.172 2.894-.951 4.418-1.546l18.069-7.494 4.517-1.874c.761-.322 1.609-.67 2.521-.831.908-.18 1.941-.152 2.884.177 1.916.661 3.074 2.256 4.099 3.429l3.185 3.704 12.764 14.844c.568.686 1.114 1.449 1.479 2.376.366.917.522 2.004.349 3-.154.999-.529 1.89-.965 2.681l-1.295 2.155-5.072 8.37-5.072 8.369-2.536 4.185c-.816 1.299-1.353 2.555-1.26 3.775.069 1.238.697 2.43 1.632 3.732a214.544 214.544 0 017.917 12.479 242.055 242.055 0 019.276 17.378l1.062 2.221c.341.727.652 1.318 1.034 1.836.764 1 1.578 1.422 2.922 1.504l9.659-.119 9.774-.056 4.87-.08 2.43-.069c.38-.013.84-.028 1.33-.02.48.016.98.046 1.5.141 1.02.161 2.2.602 3.13 1.401.93.792 1.52 1.782 1.93 2.69.19.452.36.922.49 1.344l.38 1.163.74 2.324c1.01 3.097 2.03 6.183 3.08 9.257a410.07 410.07 0 003.25 9.174c.29.789.56 1.439.87 2.397.29.916.51 1.91.53 3.007.03 1.09-.19 2.287-.69 3.328-.48 1.049-1.18 1.905-1.89 2.598-.71.694-1.49 1.265-2.2 1.763l-1.98 1.387c-1.31.935-2.62 1.887-3.92 2.851l-7.82 5.868-3.95 2.933-1 .725-.5.362-.41.313c-.53.414-.98.848-1.31 1.286-.64.873-.85 1.774-.76 3.036.05.618.2 1.248.38 2.112l.5 2.421a230.167 230.167 0 013.07 19.532c.73 6.552 1.2 13.131 1.41 19.717.02.467.02.672.06.915.03.235.09.418.15.551.12.269.26.423.68.709.42.272 1.05.548 1.81.861l2.25.945 9.02 3.782 9.01 3.782 4.51 1.891 2.25.945 1.23.521c.45.207.91.443 1.37.727.92.572 1.91 1.407 2.59 2.547.67 1.136.97 2.41 1.02 3.485.07 1.066-.06 2.14-.14 2.871l-.25 2.422c-.32 3.23-.62 6.459-.88 9.693-.27 3.234-.5 6.469-.69 9.707l-.15 2.459c-.06.967-.21 2.007-.61 3.111-.39 1.091-1.12 2.251-2.09 3.058-.96.818-2.02 1.308-2.98 1.639-.48.165-.96.297-1.42.404l-1.22.277-2.37.54-4.73 1.125-9.5 2.332c-3.17.781-6.35 1.558-9.55 2.297l-1.2.276c-.4.094-.7.164-1.02.26-.62.182-1.12.408-1.46.652-.34.238-.55.509-.78.932-.21.42-.39 1.001-.52 1.653a212.005 212.005 0 01-4.62 19.243 229.994 229.994 0 01-6.301 18.75l-.444 1.153c-.135.357-.237.637-.327.945-.178.601-.253 1.144-.224 1.61.025.898.506 1.749 1.441 2.719l6.815 6.993 6.83 7.002 3.4 3.509 1.71 1.755.92.964c.33.365.65.733.95 1.161.59.831 1.13 1.823 1.42 2.95.29 1.124.3 2.335.1 3.403-.19 1.076-.56 2.026-.97 2.886-.2.435-.44.841-.66 1.232l-.6 1.054a313.4 313.4 0 00-4.72 8.499 288.952 288.952 0 00-4.47 8.633l-1.07 2.18c-.37.756-.85 1.665-1.48 2.476-.63.823-1.49 1.629-2.552 2.169-1.054.554-2.217.766-3.25.795-1.038.032-2.005-.101-2.885-.263l-2.391-.44-4.798-.838-9.648-1.599a426.902 426.902 0 01-9.683-1.706c-1.539-.32-2.744-.377-3.654.043-.46.199-.896.528-1.321.995-.429.462-.792 1.014-1.285 1.738a209.447 209.447 0 01-11.844 15.794 215.071 215.071 0 01-6.452 7.464 249.148 249.148 0 01-3.35 3.621l-.85.893-.798.85c-.47.525-.866 1.07-1.144 1.622-.569 1.098-.615 2.243-.257 3.567.177.664.442 1.29.777 2.084l.941 2.273a696.304 696.304 0 013.63 9.114 699.053 699.053 0 003.611 9.073l.932 2.248c.295.704.689 1.606.902 2.548.23.943.289 2.047.035 3.118-.253 1.076-.831 2.014-1.462 2.756-.612.741-1.403 1.352-1.991 1.851l-1.868 1.57-3.737 3.139-7.474 6.277-3.738 3.14-1.87 1.57c-.609.509-1.334 1.165-2.163 1.629-.829.484-1.828.853-2.884.925-1.057.078-2.08-.167-2.96-.517-.878-.345-1.681-.84-2.368-1.283l-2.053-1.312c-5.491-3.481-11.095-6.818-16.648-10.274l-2.08-1.302c-.682-.424-1.413-.915-2.014-1.246-1.274-.702-2.561-.941-3.824-.509-.636.203-1.262.538-1.88.963l-2.042 1.374a213.816 213.816 0 01-4.13 2.673 222.116 222.116 0 01-17.094 9.717 255.96 255.96 0 01-8.82 4.303c-1.37.644-2.488 1.524-2.968 2.763-.246.62-.375 1.318-.401 2.058-.02.723.001 1.608-.002 2.404l-.099 19.578.031 4.883.028 2.475c-.013.879-.124 1.814-.504 2.732-.372.921-1.095 1.737-1.902 2.245-.797.532-1.673.827-2.468 1.075l-4.678 1.442c-6.235 1.92-12.428 3.871-18.491 6.233-1.592.593-3.414 1.047-5.29.625-1.883-.409-3.364-1.693-4.443-3.004-1.104-1.36-1.933-2.711-2.894-4.03l-2.855-3.958-5.827-7.86-2.898-3.955-1.428-1.986c-.442-.616-.938-1.176-1.496-1.624-1.111-.91-2.495-1.286-3.98-1.2-.751.034-1.472.174-2.274.345l-2.405.503a214.144 214.144 0 01-9.67 1.736 229.713 229.713 0 01-19.522 2.187c-3.243.234-6.593.369-9.757.496-1.486.114-2.735.679-3.576 1.805-.424.561-.773 1.223-1.071 1.931l-.946 2.247-7.579 18.04-1.894 4.51-.947 2.255c-.32.782-.688 1.599-1.203 2.365-.505.768-1.216 1.496-2.09 1.986-.872.503-1.854.709-2.767.764-.912.062-1.834-.045-2.61-.13l-2.427-.252c-6.476-.646-12.971-1.134-19.473-1.541l-2.44-.147c-.823-.045-1.764-.131-2.674-.418-.912-.282-1.857-.82-2.531-1.597-.684-.768-1.104-1.664-1.381-2.527-.281-.896-.435-1.677-.637-2.465l-.58-2.377-1.161-4.753-4.643-19.014c-.402-1.641-.675-3.069-1.471-4.084-.735-1.012-1.967-1.562-3.42-1.86a263.777 263.777 0 01-9.603-2.039c-6.39-1.486-12.725-3.241-18.962-5.312a187.816 187.816 0 01-9.274-3.35c-1.479-.605-2.798-.968-4.072-.839-1.247.119-2.415.772-3.531 1.738-1.07.947-2.251 2.233-3.406 3.357l-3.501 3.444-7.055 6.799a716.051 716.051 0 00-7.005 6.803c-.597.57-1.075 1.122-1.907 1.806-.779.631-1.884 1.205-3.112 1.289-1.221.075-2.291-.274-3.152-.659-.902-.423-1.539-.781-2.284-1.157l-17.367-8.956-4.354-2.247c-.818-.419-1.658-.929-2.438-1.665a6.375 6.375 0 01-1.767-2.84c-.643-2.191-.073-4.211.162-5.678l.82-4.801 3.049-19.334.797-4.768c.085-.652.076-1.226-.047-1.651-.115-.43-.33-.78-.735-1.187-.401-.413-.915-.753-1.642-1.252l-2.025-1.401a262.81 262.81 0 01-4.017-2.855c-5.324-3.855-10.524-7.902-15.516-12.212a188.154 188.154 0 01-3.703-3.28l-1.821-1.676-.885-.82a5.72 5.72 0 00-.694-.549c-.932-.6-1.69-.711-2.934-.401-1.14.291-2.779 1.081-4.273 1.659l-18.135 7.341-4.491 1.881-4.556 1.956c-.884.341-1.841.642-2.925.775-1.074.136-2.303.059-3.43-.33-1.133-.381-2.093-1.019-2.863-1.691-.772-.671-1.408-1.412-1.962-2.101-4.03-5.067-8.227-10.009-12.538-14.857l-3.31-3.704c-.626-.754-1.24-1.629-1.682-2.722a7.218 7.218 0 01-.45-3.621c.337-2.386 1.649-4.11 2.409-5.366l2.57-4.138 10.193-16.718 2.607-4.171.641-1.021c.185-.293.342-.581.493-.865.282-.565.473-1.094.541-1.561.069-.47.046-.894-.079-1.383-.124-.485-.366-1.027-.695-1.591-.159-.288-.346-.553-.553-.872l-.692-1.026-1.373-2.059c-3.625-5.516-7.02-11.207-10.05-17.112a147.917 147.917 0 01-2.201-4.467l-1.043-2.264-.504-1.113c-.146-.307-.288-.619-.451-.893-.635-1.16-1.35-1.9-2.234-2.323-.888-.439-2.156-.615-3.598-.595l-4.868.102-4.922.048-9.802-.001a672.804 672.804 0 00-9.748.039l-2.428.039-.632.009c-.255-.004-.494.007-.762-.012a9.787 9.787 0 01-1.657-.201c-1.146-.217-2.555-.853-3.509-1.869-.986-1-1.475-2.088-1.85-3.047l-6.191-18.66-1.533-4.629-.767-2.315c-.293-.853-.629-1.982-.672-3.195-.048-1.227.227-2.651.87-3.782.622-1.148 1.442-1.994 2.229-2.656.198-.168.397-.333.595-.477l.549-.406.989-.72 1.979-1.441 15.83-11.529 7.916-5.764c1.218-.859 1.568-1.358 1.722-2.043.068-.373.084-.878 0-1.498a16.97 16.97 0 00-.174-1.005l-.239-1.215a245.429 245.429 0 01-3.026-19.57 237.647 237.647 0 01-1.211-14.811l-.111-2.476-.049-1.239a9.938 9.938 0 00-.07-.918c-.069-.547-.213-.939-.38-1.232-.167-.293-.401-.531-.79-.809a5.939 5.939 0 00-.698-.399c-.271-.141-.519-.237-.927-.411l-2.254-.945-9.016-3.782-9.015-3.782-4.508-1.89-2.254-.946c-.859-.351-1.87-.81-2.837-1.529-.974-.715-1.945-1.821-2.488-3.087-.541-1.262-.689-2.511-.697-3.584 0-.538.03-1.049.078-1.542l.124-1.222.242-2.426c.316-3.232.623-6.462.881-9.69.263-3.228.484-6.454.655-9.678l.061-1.209.029-.604.055-.756c.101-1.023.3-2.137.802-3.305a7.715 7.715 0 012.425-3.106c1.04-.793 2.121-1.247 3.101-1.564a17.13 17.13 0 011.438-.388l1.224-.27 2.371-.522 4.743-1.086 9.514-2.252a613.845 613.845 0 019.585-2.204l1.206-.263.507-.117c.154-.032.281-.076.416-.115.537-.159.871-.356 1.074-.525.367-.279.74-1.068 1.009-2.612 1.266-6.477 2.773-12.917 4.574-19.286 1.802-6.368 3.902-12.664 6.342-18.835l.376-1c.087-.293.188-.589.239-.862.125-.554.163-1.043.122-1.472-.072-.831-.486-1.661-1.328-2.659-.213-.243-.434-.49-.68-.737l-.844-.853-1.733-1.751-3.435-3.522c-4.556-4.707-9.026-9.45-13.569-14.078l-1.717-1.743c-.693-.723-1.444-1.562-2.034-2.819a6.88 6.88 0 01-.587-2.118 6.768 6.768 0 01.136-2.177c.286-1.331.94-2.399 1.248-3.006l4.552-8.645 4.552-8.644 2.275-4.322 1.138-2.162c.43-.832 1.137-2.071 2.372-2.953 1.222-.944 2.856-1.277 4.008-1.267 1.208-.012 2.124.168 2.971.302l4.829.806 9.658 1.613 9.658 1.612 4.829.806 2.408.402c.621.11 1.157.131 1.52.083.357-.061.554-.14.856-.365.297-.228.664-.642 1.023-1.165a241.67 241.67 0 012.819-4.054 212.61 212.61 0 015.949-7.942c4.084-5.203 8.428-10.193 12.96-14.997.461-.491.826-.956 1.065-1.378.245-.426.326-.753.36-1.127.036-.368-.04-.858-.212-1.44-.168-.579-.437-1.208-.769-2.009a699.84 699.84 0 01-3.685-9.11c-2.416-6.075-4.779-12.141-7.272-18.126l-.477-1.154c-.182-.445-.35-.915-.497-1.413-.289-.992-.494-2.151-.378-3.42.095-1.271.623-2.544 1.282-3.509.664-.979 1.43-1.712 2.182-2.335a567.885 567.885 0 007.571-6.185 541.654 541.654 0 007.437-6.288l3.678-3.194.915-.803a15.89 15.89 0 011.176-.934c.844-.601 1.912-1.162 3.163-1.42 1.253-.279 2.592-.114 3.668.23 1.092.343 1.983.853 2.775 1.349l4.156 2.584 8.312 5.168 8.311 5.169 4.156 2.583 2.018 1.252c.599.358 1.182.643 1.712.811 1.045.313 1.875.222 3.034-.342.28-.146.565-.302.853-.489l1.003-.651 2.076-1.341a218.934 218.934 0 018.454-5.127 226.265 226.265 0 0117.541-9.082l2.229-1.021c.617-.282 1.146-.609 1.537-.962.392-.358.639-.733.824-1.227.177-.496.277-1.113.3-1.8l.045-9.709.081-19.579.01-2.447.007-1.249c-.001-.455.029-.935.088-1.428.122-.978.457-2.14 1.234-3.102.779-.953 1.788-1.512 2.694-1.861.468-.183.918-.314 1.281-.434l1.164-.374 2.325-.746 4.651-1.493 9.304-2.987 4.652-1.493 2.326-.747 1.163-.373a9.426 9.426 0 011.413-.356c.985-.175 2.16-.12 3.197.327 1.04.442 1.822 1.16 2.441 1.87.629.75 1.057 1.418 1.539 2.071l1.425 1.989 5.702 7.953 11.403 15.902c.837 1.19 1.84 1.864 3.12 1.856a5.837 5.837 0 001-.096l1.202-.223 2.417-.44a260.588 260.588 0 019.708-1.532 257.222 257.222 0 0124.453-2.193l4.846-.174c.685-.056 1.24-.284 1.678-.711.439-.438.777-1.085 1.088-1.813l1.933-4.492 7.737-17.971 1.929-4.496c.648-1.453 1.19-3.144 2.465-4.468a5.384 5.384 0 012.35-1.4c.883-.244 1.775-.274 2.631-.22l4.888.517c6.48.67 12.98 1.184 19.485 1.63 1.578.133 3.368.07 4.969.987.792.444 1.431 1.151 1.847 1.93.43.776.654 1.62.836 2.433l2.173 9.543 4.374 19.078c.336 1.564.797 3.136 1.918 4.176.549.518 1.237.88 1.971 1.132.733.255 1.522.377 2.332.539a200.8 200.8 0 019.58 2.078 213.183 213.183 0 0118.808 5.502c3.089 1.051 6.161 2.2 9.196 3.359 1.508.526 3.1.942 4.651.758 1.577-.173 2.895-1.11 3.806-2.465zm.438.37c-.45.653-1.051 1.315-1.765 1.789a5.49 5.49 0 01-2.398.886c-1.712.205-3.374-.239-4.926-.773-3.065-1.159-6.107-2.287-9.199-3.328a212.012 212.012 0 00-18.766-5.428 200.778 200.778 0 00-9.553-2.042c-1.562-.273-3.369-.61-4.672-1.842-1.316-1.223-1.802-2.973-2.15-4.552l-4.467-19.06-2.249-9.526c-.324-1.536-.956-3.025-2.259-3.723-1.287-.741-2.916-.711-4.552-.822-6.517-.394-13.032-.858-19.535-1.478l-4.848-.475c-.768-.043-1.528-.003-2.22.195a4.139 4.139 0 00-1.798 1.09c-1.016 1.062-1.521 2.568-2.169 4.085l-1.883 4.519-7.502 18.089-1.875 4.524c-.322.766-.708 1.622-1.417 2.356-.714.741-1.765 1.155-2.7 1.23l-4.931.246a255.134 255.134 0 00-24.236 2.502 258.16 258.16 0 00-9.605 1.649l-2.39.468-1.201.239c-.459.09-.938.145-1.431.153-.985.009-2.06-.238-2.939-.782-.888-.53-1.562-1.253-2.107-1.988l-11.623-15.76-5.81-7.878-1.452-1.97c-.493-.653-.97-1.349-1.4-1.84-.95-1.056-1.784-1.43-3.012-1.196a6.542 6.542 0 00-.952.257l-1.162.391-2.322.783-4.644 1.567-9.289 3.133-9.16 3.105c-1.261.547-1.604 1-1.781 2.283a8.39 8.39 0 00-.044 1.014l.011 1.198.026 2.447.206 19.57.098 9.866c-.02.941-.132 1.961-.486 3.01a6.999 6.999 0 01-1.827 2.826c-.809.756-1.694 1.281-2.55 1.691l-2.205 1.05a222.354 222.354 0 00-17.08 9.164 213.9 213.9 0 00-8.206 5.143l-2.014 1.344-1.04.695a13.82 13.82 0 01-1.26.741c-.889.459-1.927.844-3.072.985a8.167 8.167 0 01-3.363-.296c-1.032-.314-1.92-.76-2.725-1.226l-2.155-1.305-4.184-2.538-8.367-5.077-8.366-5.076-4.184-2.539c-.59-.363-1.142-.648-1.614-.783-.475-.13-.813-.165-1.159-.078-.347.079-.771.264-1.247.616-.24.176-.473.37-.731.597l-.915.82-3.676 3.264a529.834 529.834 0 01-7.442 6.43 567.405 567.405 0 01-7.546 6.25c-.501.416-.907.843-1.153 1.219-.243.386-.362.67-.384 1.033-.029.36.027.84.199 1.408.087.284.194.582.323.891l.465 1.104c2.567 6.043 4.981 12.122 7.429 18.157a693.85 693.85 0 003.716 9.011c.58 1.426 1.564 3.403 1.436 5.939a8.203 8.203 0 01-1.036 3.517c-.557 1.004-1.226 1.816-1.874 2.517a226.947 226.947 0 00-12.553 14.682 206.629 206.629 0 00-5.761 7.74 223.47 223.47 0 00-2.755 3.989c-.566.815-1.246 1.679-2.234 2.461a7.589 7.589 0 01-3.59 1.538c-1.256.171-2.366.063-3.35-.102l-2.419-.396-4.826-.79-9.653-1.582-9.653-1.581-4.826-.79c-.76-.127-1.46-.23-1.888-.213-.466.02-.512.067-.591.127-.048.024-.124.112-.225.242-.048.085-.105.135-.158.249l-.211.387-1.135 2.172-2.271 4.345-4.542 8.689-4.542 8.689c-.443.835-.625 1.197-.675 1.476-.045.273-.037.24.049.478.098.228.415.656.856 1.099l1.722 1.738c4.612 4.671 9.108 9.411 13.642 14.067l3.408 3.475 1.714 1.72.88.883c.33.331.657.689.979 1.062.64.758 1.268 1.621 1.779 2.647a9.711 9.711 0 01.983 3.408c.229 2.389-.491 4.592-1.142 6.17-2.36 5.963-4.397 12.063-6.152 18.249-1.753 6.188-3.224 12.464-4.465 18.794-.074.36-.17.881-.302 1.373a11.773 11.773 0 01-.51 1.556c-.416 1.063-1.179 2.266-2.223 3.15-2.137 1.799-4.524 2.002-5.867 2.346a604.77 604.77 0 00-9.491 2.178l-9.534 2.251-4.797 1.096-2.408.531-1.166.256c-.332.073-.638.158-.924.247-.569.18-1.002.399-1.26.599a1.566 1.566 0 00-.547.706c-.146.333-.264.838-.32 1.437l-.035.465-.03.617-.062 1.235a345.954 345.954 0 01-.67 9.851c-.267 3.276-.57 6.543-.903 9.803l-.253 2.443-.127 1.214c-.031.319-.049.622-.051.9 0 .554.087.952.185 1.195.111.232.234.407.563.668.346.258.821.502 1.468.769l2.255.955 4.51 1.911 9.021 3.824 9.021 3.823 2.254.955c.34.148.852.353 1.305.588.464.226.942.51 1.416.829.943.653 1.903 1.589 2.539 2.72.645 1.123.975 2.325 1.109 3.394.072.521.101 1.101.116 1.519l.043 1.208.1 2.413a229.955 229.955 0 001.13 14.453 239.681 239.681 0 002.882 19.119c.239 1.43.869 3.496.383 5.968-.248 1.229-.856 2.489-1.636 3.413a9.327 9.327 0 01-1.215 1.231c-.4.353-.893.692-1.181.905l-7.928 5.73-15.857 11.459-1.983 1.432-.991.717-.436.32c-.133.095-.247.191-.361.286-.463.38-.773.75-.928 1.042-.168.293-.204.532-.212.928.02.423.127.882.359 1.571l.763 2.333 1.527 4.668 6.065 18.521c.208.554.443.975.621 1.132.171.174.312.263.756.368.206.049.477.076.769.091.138.014.308.004.46.009l.591-.006 2.465-.031c3.284-.031 6.56-.021 9.826-.003l9.769.037 4.864-.029 4.918-.085c1.802-.002 3.877.154 5.94 1.15a9.49 9.49 0 012.714 1.994c.769.797 1.337 1.669 1.815 2.527.248.432.445.862.647 1.293l.501 1.118.997 2.183a142.262 142.262 0 002.108 4.319c2.907 5.719 6.185 11.263 9.706 16.664l1.333 2.018.673 1.005c.238.365.514.771.75 1.198.484.847.931 1.801 1.208 2.899a8.515 8.515 0 01.153 3.468c-.187 1.148-.592 2.16-1.043 3.048-.231.437-.471.861-.723 1.257l-.669 1.047-2.606 4.112-10.295 16.641-2.621 4.159-.662 1.038c-.204.328-.37.59-.519.877-.296.558-.493 1.081-.547 1.497-.048.42-.021.754.141 1.182.167.423.479.917.891 1.416l3.19 3.612c4.328 4.931 8.549 9.967 12.608 15.14.899 1.16 1.832 2.034 2.659 2.297.416.143.853.189 1.395.128.537-.06 1.154-.234 1.791-.477l4.447-1.879 4.548-1.87 18.199-7.229 2.26-.912 1.211-.479c.446-.158.9-.311 1.395-.429.971-.246 2.098-.381 3.262-.209 1.168.15 2.272.65 3.159 1.25.45.301.847.632 1.218.973l.904.849 1.77 1.65a187.57 187.57 0 003.601 3.233c4.852 4.259 9.914 8.29 15.122 12.138 1.302.963 2.612 1.915 3.932 2.854l1.985 1.403c.608.432 1.471.991 2.204 1.759.745.743 1.443 1.817 1.724 2.975.302 1.155.249 2.248.118 3.205l-.862 4.879-3.24 19.306-.876 4.838-.229 1.209c-.072.402-.132.709-.162 1.049-.066.658-.052 1.266.094 1.74.142.477.371.873.784 1.265.403.391.958.759 1.587 1.086l4.321 2.284 17.336 9.16c.706.367 1.496.804 2.069 1.077.616.288 1.159.42 1.575.399.409-.029.836-.2 1.328-.582.439-.341 1.068-.996 1.65-1.551a738.755 738.755 0 017.104-6.764l7.097-6.722 3.506-3.39c1.194-1.138 2.219-2.267 3.597-3.476 1.337-1.15 3.131-2.217 5.168-2.391 2.003-.196 3.907.438 5.422 1.069 3.002 1.207 6.04 2.33 9.104 3.377 6.13 2.095 12.369 3.881 18.675 5.406 3.162.766 6.305 1.45 9.525 2.106.873.189 1.767.463 2.631.921a6.633 6.633 0 012.267 1.93c1.219 1.622 1.49 3.537 1.865 5.034l4.481 19.057 1.12 4.764.56 2.382c.194.794.36 1.615.564 2.278.427 1.412 1.189 2.339 2.468 2.736.649.207 1.343.289 2.146.339l2.445.163c6.518.441 13.035.962 19.542 1.643l2.438.264c.842.097 1.549.177 2.269.134 1.44-.056 2.545-.664 3.331-1.858.4-.587.715-1.262 1.015-1.986l.96-2.253 1.917-4.504 7.67-18.017.964-2.258c.341-.792.75-1.588 1.313-2.328.571-.73 1.318-1.401 2.191-1.807.866-.418 1.791-.624 2.678-.696 3.354-.133 6.524-.253 9.79-.482a227.304 227.304 0 0019.373-2.139 212.09 212.09 0 009.595-1.705l2.386-.495c.792-.168 1.677-.343 2.558-.379 1.765-.122 3.742.402 5.158 1.593.715.576 1.306 1.254 1.813 1.962l1.425 1.99 2.881 3.943 5.831 7.864 2.879 3.973c.96 1.316 1.859 2.745 2.818 3.915.979 1.18 2.139 2.122 3.484 2.407 1.344.312 2.846-.02 4.28-.563 6.095-2.391 12.354-4.377 18.582-6.311l4.672-1.451c1.509-.44 2.759-1.098 3.22-2.289.246-.593.349-1.305.355-2.053l-.033-2.418-.042-4.903c-.016-6.536.062-13.061.008-19.572-.002-.835-.029-1.58-.012-2.489.027-.889.174-1.822.526-2.721.348-.901.949-1.723 1.651-2.354.707-.63 1.491-1.099 2.279-1.483a254.586 254.586 0 008.743-4.335 219.489 219.489 0 0016.865-9.731 215.705 215.705 0 004.069-2.67l2.01-1.371c.721-.504 1.539-.966 2.456-1.265a6.413 6.413 0 012.921-.276c.982.131 1.877.488 2.682.908.83.451 1.454.875 2.163 1.302l2.082 1.272c5.562 3.381 11.206 6.66 16.774 10.107l2.085 1.3c.686.433 1.287.786 1.932 1.033 1.281.51 2.384.418 3.54-.276.595-.345 1.085-.795 1.718-1.338l1.861-1.597 3.723-3.195 7.447-6.392 3.723-3.196 1.863-1.598.871-.751c.257-.24.5-.484.708-.733.847-1.017 1.063-1.965.75-3.254-.158-.65-.42-1.251-.765-2.045l-.965-2.262a718.873 718.873 0 01-3.726-9.074 671.877 671.877 0 00-3.709-9.033l-.955-2.238c-.304-.704-.695-1.578-.947-2.49-.259-.915-.417-1.922-.361-2.965.046-1.043.347-2.089.793-2.994.446-.911 1.02-1.695 1.627-2.391l.866-.944.828-.888a216.553 216.553 0 009.531-11.007 206.195 206.195 0 0011.474-15.634c.838-1.284 2.072-3.196 4.173-4.124 2.102-.978 4.338-.681 5.956-.372 3.188.572 6.394 1.089 9.61 1.592l9.677 1.502 4.851.796 2.426.421c.723.126 1.384.196 1.977.171 1.204-.06 1.842-.42 2.581-1.356.365-.482.654-1.026.989-1.737l1.07-2.221a293.17 293.17 0 014.44-8.799c1.52-2.91 3.09-5.795 4.69-8.66l.61-1.073c.17-.326.34-.626.48-.935.28-.61.49-1.204.58-1.734.17-1.055-.05-1.854-.78-2.858-.16-.244-.38-.486-.6-.729l-.78-.792-1.72-1.74-3.45-3.479-6.877-6.974-6.886-6.984c-.682-.69-1.352-1.498-1.888-2.489a7.822 7.822 0 01-.959-3.335c-.072-1.167.112-2.258.388-3.221.133-.476.309-.963.462-1.371l.428-1.132a225.91 225.91 0 006.065-18.382 220.279 220.279 0 004.431-18.831c.184-.947.446-1.954.976-2.99.51-1.027 1.34-2.074 2.34-2.765 2.01-1.416 4.06-1.639 5.5-2.018a664.32 664.32 0 009.47-2.289l9.52-2.349 4.78-1.14 2.4-.551 1.17-.267c.33-.077.64-.166.93-.264.58-.196 1.01-.439 1.3-.68.28-.241.45-.51.62-.943.16-.43.27-1.02.31-1.677l.14-2.427c.19-3.276.42-6.549.68-9.819.27-3.27.56-6.537.9-9.799l.26-2.445c.1-.888.16-1.444.12-2.009-.11-1.108-.27-1.367-1.18-2.009a9 9 0 00-.79-.418l-1.02-.437-2.26-.956-4.51-1.912-9.02-3.825-9.02-3.826-2.26-.956c-.74-.317-1.63-.671-2.58-1.275-.95-.595-2.01-1.641-2.52-2.894a6.428 6.428 0 01-.51-1.796c-.1-.563-.1-1.177-.12-1.524-.17-6.459-.61-12.909-1.3-19.328a228.973 228.973 0 00-2.84-19.156l-.47-2.374c-.15-.734-.37-1.699-.44-2.709-.08-1.004-.03-2.099.26-3.19.28-1.089.8-2.147 1.46-3 .66-.861 1.42-1.55 2.17-2.137l.57-.421.5-.351.98-.704 3.94-2.867 7.88-5.816a275.26 275.26 0 014.02-2.867l2.04-1.404c.63-.431 1.17-.834 1.64-1.275.93-.905 1.3-1.668 1.3-2.727-.01-.535-.12-1.152-.31-1.796-.18-.595-.51-1.466-.77-2.213-1.1-3.095-2.15-6.202-3.17-9.317-1.01-3.115-2-6.237-2.96-9.363l-.72-2.345-.36-1.172c-.11-.356-.22-.655-.34-.955-.25-.58-.53-1.017-.85-1.29-.31-.269-.7-.456-1.28-.561-.28-.058-.6-.083-.93-.099-.33-.01-.68-.006-1.12.003l-2.46.036-4.92.013-9.792-.079-9.912-.025c-.969-.069-2.032-.299-3.017-.826-.995-.51-1.796-1.317-2.385-2.122-.581-.802-1.005-1.676-1.347-2.429l-1.018-2.208a238.991 238.991 0 00-8.918-17.274 216.03 216.03 0 00-7.638-12.415c-.928-1.338-1.971-3.125-2.05-5.19-.116-2.086.825-3.947 1.744-5.365l2.591-4.152 5.183-8.305 5.182-8.304c.872-1.43 1.799-2.659 1.977-3.906.232-1.208-.316-2.415-1.272-3.569l-12.563-15.007-3.147-3.759c-.544-.635-1.012-1.254-1.528-1.754-.521-.502-1.08-.918-1.682-1.126-1.195-.459-2.624-.07-4.062.547l-4.548 1.816-18.188 7.266-2.285.909c-.792.306-1.63.573-2.537.674a5.53 5.53 0 01-2.744-.349c-.867-.355-1.608-.904-2.234-1.517a204.822 204.822 0 00-7.126-6.664c-4.858-4.328-9.933-8.412-15.162-12.288a210.322 210.322 0 00-3.954-2.865l-1.998-1.402c-.656-.46-1.368-.929-2.005-1.507-.64-.57-1.223-1.258-1.612-2.068-.404-.804-.563-1.709-.574-2.574-.018-.865.133-1.729.285-2.522l.443-2.402c1.16-6.413 2.133-12.865 3.226-19.303l.848-4.824.448-2.409c.147-.779.227-1.567.138-2.324a3.875 3.875 0 00-.827-2.053c-.474-.584-1.109-1.048-1.791-1.441-1.406-.749-2.9-1.473-4.344-2.214-5.82-2.95-11.623-5.949-17.324-9.135-1.424-.817-2.816-1.624-4.376-1.74-1.547-.134-3.015.615-4.19 1.669-2.335 2.213-4.678 4.523-7.016 6.78L839.78 91.59z" fill="#E6E7E8"/>
      <g id="radar lijnen" fill="#919494">
        <path id="lijn maken" d="M1103.47 310.679a3.227 3.227 0 00-3.17 2.662l-81.17.141v1.146l81.17-.141a3.233 3.233 0 003.18 2.652 3.23 3.23 0 00-.01-6.46z"/>
        <path id="lijn handel" d="M1103.76 93.77a3.227 3.227 0 00-3.16 2.666l-159.814.358h-.199l-32.481 25.758.711.897 32.17-25.51 159.613-.359a3.222 3.222 0 003.18 2.65 3.233 3.233 0 003.22-3.237 3.226 3.226 0 00-3.24-3.222z"/>
        <path id="lijn dienstverlening" d="M1103.57 437.169a3.22 3.22 0 00-3.17 2.657h-76.27v1.145h76.27a3.22 3.22 0 003.17 2.658c1.78 0 3.23-1.446 3.23-3.23 0-1.783-1.45-3.23-3.23-3.23z"/>
        <path id="lijn installatie" d="M743.606 734.501v-54.518h-1.064v54.518c-1.403.233-2.469 1.362-2.469 2.724 0 1.532 1.344 2.775 3.001 2.775 1.657 0 3.001-1.243 3.001-2.775 0-1.362-1.068-2.491-2.469-2.724z"/>
        <path id="lijn reparatie" d="M556.878 572.48l-.709-.706-40.969 41.115H369.591a2.817 2.817 0 00-5.591.501 2.817 2.817 0 005.591.5h146.025l41.262-41.41z"/>
        <path id="lijn energie" d="M482.755 485.537l-.494-.87-28.694 16.315h-83.976a2.818 2.818 0 00-5.591.5 2.817 2.817 0 005.591.5h84.242l28.922-16.445z"/>
        <path id="lijn telecom" d="M452.002 395.577l-82.412-.016a2.815 2.815 0 00-2.769-2.32 2.82 2.82 0 10-.001 5.64 2.817 2.817 0 002.77-2.32l82.412.016v-1z"/>
        <path id="lijn advies" d="M461.02 269.542h-91.429a2.817 2.817 0 00-5.591.5 2.817 2.817 0 005.591.5h91.429v-1z"/>
      </g>
      <g id="diagram_2">
        <g id="bedrijven" fill="#D3E7EA">
          <path id="bedrijven advies" d="M773.134 102.498c-13.054-2.024-25.365-3.028-37.78-3.028-10.101 0-20.268.665-30.96 1.988a256.792 256.792 0 00-12.01 1.779l-.104.017C562.43 126.141 471.784 246.747 487.412 379.03l246.597-30.502-.048-.119h.45l38.723-245.911z"/>
          <path id="bedrijven telecom" d="M726.988 350.84l-224.113 27.722-15.305 1.893c1.576 12.727 3.406 22.384 6.463 33.553a309.22 309.22 0 002.216 7.606l230.739-70.774z"/>
          <path id="bedrijven energie" d="M496.697 423.068l.01.031c6.465 20.883 14.354 38.654 25.005 55.876.07.113.144.225.214.337a235.823 235.823 0 002.761 4.35c.086.132.178.264.264.396a252.256 252.256 0 002.855 4.276c.198.29.407.578.606.867a255.165 255.165 0 002.66 3.799c.617.861 1.261 1.724 1.893 2.587.511.697 1.009 1.392 1.531 2.09a299.488 299.488 0 003.586 4.696l193.257-151.277-234.642 71.972z"/>
          <path id="bedrijven reparatie" d="M539.009 503.498c3.71 4.74 7.513 9.292 11.412 13.663 27.324 30.509 59.126 51.789 98.792 66.296l84.27-232.19-194.474 152.231z"/>
          <path id="bedrijven dienstverlening" d="M942.35 488.714c27.51-40.869 42.096-88.926 42.205-139.021l-248.44.22 93.253 230.242c46.399-18.946 85.458-50.555 112.982-91.441z"/>
          <path id="bedrijven timaken" d="M968.159 260.155l-229.274 88.249 245.67-.217c-.101-31.858-5.02-58.273-16.396-88.032z"/>
          <path id="bedrijven tihandel" d="M775.697 332.701l191.948-73.883c-32.882-84.777-103.1-141.595-192.842-156.055l-38.49 244.443.235-.184-.316.87 39.465-15.191z"/>
        </g>
        <g id="werknemers" fill="#2E8C9D">
          <path id="werknemers advies" d="M755.915 211.82c-13.279-2.066-25.181-2.254-38.545-.601-76.084 9.41-130.244 78.391-121.539 154.404l138.174-17.091-.048-.119h.45l21.508-136.593z"/>
          <path id="werknemers handel" d="M736.544 347.025l-.316.87 39.465-15.19 84.525-32.535c-17.83-45.63-55.334-76.062-103.535-84.019l-20.674 131.292.535-.418z"/>
          <path id="werknemers maken" d="M835.081 311.525l-95.824 36.883 102.901-.091c-.141-13.218-2.278-24.325-7.077-36.792z"/>
          <path id="werknemers diensverlening" d="M838.472 349.753l-102.391.091 38.425 94.873c39.015-15.844 63.944-52.859 63.966-94.964z"/>
          <path id="werknemers reparatie" d="M654.435 413.117c12.089 15.267 26.542 25.756 44.797 32.515l34.262-94.401-79.059 61.886z"/>
          <path id="werknemers energie" d="M651.947 413.245l79.589-62.3-96.614 29.634c3.895 12.469 9.039 22.341 17.025 32.666z"/>
          <path id="werknemers telecom" d="M635.571 362.151c.711 5.904 1.59 10.164 3.249 15.736l30.877-9.471 57.287-17.572-91.413 11.307z"/>
        </g>
        <path id="witteoutlines" d="M985.982 348.19h-.006c-.101-32.04-5.05-58.615-16.49-88.544l.006-.002-.257-.668-.257-.668-.005.002c-33.1-85.351-103.821-142.521-194.207-156.995l.001-.005-1.414-.223-.001.005c-23.811-3.69-45.168-4.016-69.138-1.051-66.528 8.229-125.869 41.875-167.094 94.74-41.077 52.677-59.258 118.153-51.247 184.444l-.009.001.176 1.421h.003c1.942 15.467 4.293 26.478 8.836 41.39l-.003.001.21.685.209.684.007-.002c9.463 30.611 21.965 54.578 41.655 79.854l-.006.004.441.563.441.563.005-.003c30.165 38.352 65.629 63.998 111.554 80.668l.169.061a23.831 23.831 0 01-.389-1.667c-45.32-16.581-80.372-42.007-110.21-79.942l11.797-9.235 174.596-136.669c1.345 4.175 5.256 7.198 9.877 7.198 5.733 0 10.378-4.647 10.378-10.379 0-1.649-.394-3.2-1.078-4.584l240.018-.212c-.095 50.122-14.682 98.206-42.205 139.094-26.799 39.81-64.544 70.809-109.342 89.903.482.27.884.623 1.201 1.042 44.774-19.223 82.501-50.294 109.329-90.146 27.683-41.126 42.35-89.485 42.444-139.894h.007l-.002-1.434zM774.544 102.724c89.865 14.393 160.184 71.24 193.098 156.098l-191.948 73.883-34.452 13.262a10.304 10.304 0 00-4.71-1.836l38.012-241.407zm-236.295 92.937c40.989-52.563 99.992-86.018 166.14-94.199 10.692-1.322 20.859-1.987 30.96-1.987 12.415 0 24.726 1.004 37.78 3.027l-38.036 241.546a10.371 10.371 0 00-9.005 5.464L487.285 379.05c-7.963-65.912 10.123-131.014 50.964-183.389zm-50.788 184.81l15.41-1.906 222.559-27.529c-.037.107-.081.211-.116.32l-229.07 70.262c-4.517-14.831-6.851-25.765-8.783-41.147zm50.619 121.907c-19.578-25.132-32.005-48.955-41.415-79.393l228.303-70.025c-.068.478-.115.963-.115 1.46 0 .561.057 1.107.143 1.643L538.08 502.378zm205.6-153.974a10.428 10.428 0 00-1.18-1.388l225.655-86.857c11.376 29.759 16.295 56.174 16.395 88.032l-240.87.213z" fill="#fff"/>
      </g>
      <g id="afbeeldingen" fill="#414143">
        <path id="gebouwtje" d="M849.105 424.92v43.482h58.146V424.92h-58.146zm22.655 9.276h4.013v6.687h-4.013v-6.687zm-8.703 0h4.012v6.687h-4.012v-6.687zm-8.373 0h4.013v6.687h-4.013v-6.687zm21.09 33.094h-21.089v-19.572h21.089v19.572zm4.69-33.094h4.012v6.687h-4.012v-6.687zm4.078 20.209h-4.012v-6.687h4.012v6.687zm4.756-20.209h4.012v6.687h-4.012v-6.687zm4.077 20.209h-4.011v-6.687h4.011v6.687zm4.627-20.209h4.012v6.687h-4.012v-6.687zm4.077 20.209h-4.012v-6.687h4.012v6.687z"/>
        <path id="werknemer" d="M688.219 256.701c.436-.553.331-1.108.331-1.108s2.722-16.574 2.791-18.379c.068-1.796 1.071-3.246 1.071-4.627 0-.811.421-4.893.771-8.14-.313-1.301-.668-2.658-.833-2.96-.316-.582.079-1.638-.355-2.082-.868-.909-1.834-1.332-1.056-2.892.374-.75 1.293.089 1.451.493a.193.193 0 00.047.075.144.144 0 00.025.018.094.094 0 00.045.016.1.1 0 00.03.001.225.225 0 00.054-.011l.03-.012a.605.605 0 00.059-.033l.034-.024a.746.746 0 00.046-.037c.018-.014.035-.03.052-.046l.009-.009c.082-.078.155-.166.201-.224.15-.177.451.274.607-.051l.057-4.283s-1.874-.686-2.746-2.764c-.868-2.078-1.336-2.145-2.339-3.32-1.006-1.178-1.14-2.7-1.14-5.672 0-2.979 1.54-6.988 1.739-8.437.198-1.456 1.532-4.642 2.269-5.507.735-.868 6.187-2.451 6.187-2.451s.454-1.139.935-1.364c.485-.222.635-.535 1.269-1.121.639-.588 1.78-.427 1.78-.427s-.007-.235-.053-.418c-.007-.032-.011-.056-.022-.081-.021-.056-.051-.102-.093-.12-.165-.07-.801-1.455-1.069-2.179-.267-.725-.435-2.318-.302-4.044.133-1.727 1.635-3.673 5.099-4.348 3.461-.671 5.466 2.163 5.466 2.163s-.226.028.083.274c.309.253.418.815.36.692-.051-.102-.318-.32-.392-.373.042.032.123.123.25.39.185.38-.267 1.295-.214 1.034.049-.257-.22-.619-.22-.619l.007.039c.003.007.003.021.005.031l.009.072c.011.126.021.367-.021.826-.065.759.051.418.202 1.019.151.601.215.914-.035 1.343-.253.436-.516.784-.384.986.13.211.35.348.436.869.084.52-.418.362-.503.57-.084.204 0 .605-.018.882-.014.274-.402.362-.219.429.186.07.186.225.086.33-.101.102-.351.933-.318 1.678a.895.895 0 01-.051.341c-.007.018-.012.039-.017.049a.523.523 0 01-.139.197c-.003.007-.007.01-.011.014-.007.007-.008.007-.014.011a.712.712 0 01-.289.137h-.001c-.012.004-.009 0-.021.004a4.067 4.067 0 00-.058.007s.33.446.567.756c.234.313 1.121 1.524 1.121 1.524s.04-.092.843.291c.802.38 2.811 1.589 3.412 2.004.602.412 2.042 4.079 2.309 5.567.267 1.487.734 2.592 1.438 3.872.703 1.28.668 1.761.636 2.349-.035.591.1 1.589.1 2.767 0 1.179-.603 2.181-.603 2.181s.169.724.3 1.589c.135.866-.234 2.216-.635 2.733-.401.517 0 .45.099 1.175.102.728.302.932-.201 1.206-.501.281-.833 1.076-1.269 1.593-.436.518-1.003.553-1.438.693-.434.141-.77.521-1.172 1.417-.404.896.302 5.222.032 5.496-.266.279-.821.152-.821.152s.132 3.875-.069 5.535c-.2 1.66-2.02 27.336-2.02 27.336s.837 1.178 1.607 2.039c.768.866 1.002 2.181.835 2.733-.484 1.6-3.629 1.283-4.72.692-.632-.348-.835-1.244-1.202-1.94-.366-.69-1.204-.898-1.807-1.415-.601-.52-.455-1.845-.455-1.845l-1.205-1.731s-.248-13.723-.248-17.876c0-4.146-.937-10.371-.937-10.371-1.225.855-2.9 9.64-4.237 16.905-1.339 7.259-4.428 14.746-4.428 14.746l-1.105.345s-.033 1.003-.065 1.488c-.032.481-.801.791-.904 1.034-.1.242-.1 1.35-.267 1.938-.169.587-.703.83-1.803 1.104-1.105.281-3.183.14-3.418-.31-.232-.446-.366-1.347-.399-2.11-.037-.758.734-1.933 1.169-2.489z"/>
      </g>
      <path id="bedrijven installatie" d="M735.334 347.006L624.855 650.478c80.443 29.29 157.824 27.272 236.629-6.173l-126.15-297.299z" fill="#D5E8EB" stroke="#2E8C9D" stroke-width="2" stroke-miterlimit="10"/>
      <path id="werknemers installatie" d="M735.368 348.374L683.3 491.512c38.043 14.079 74.583 13.259 111.739-2.51l-59.671-140.628z" fill="#2E8C9D"/>
      <path id="middenpunt" d="M735.233 377.374c12.677 0 22.953-10.277 22.953-22.954 0-12.677-10.276-22.955-22.953-22.955-12.676 0-22.952 10.278-22.952 22.955 0 12.677 10.276 22.954 22.952 22.954z" fill="#fff"/>
    </g>
    <g id="teksten" font-family="Roboto">
      <text id="Techniekketen_2" fill="#414042" xml:space="preserve" font-size="31" font-weight="500">
        <tspan x="35" y="59.596">Techniekketen</tspan>
      </text>
      <text id="bedrijven_2" fill="#414143" xml:space="preserve" font-size="19">
        <tspan x="701.481" y="647.962">bedrijven</tspan>
      </text>
      <text id="8.693" fill="#074953" xml:space="preserve" font-size="31" font-weight="bold">
        <tspan x="700.35" y="626.497">8.693</tspan>
      </text>
      <text id="130.243" fill="#2E8C9D" xml:space="preserve" font-size="31" font-weight="bold">
        <tspan x="679.789" y="554.884">130.243</tspan>
      </text>
      <text id="werknemers_2" fill="#414143" xml:space="preserve" font-size="19">
        <tspan x="687.832" y="574.962">werknemers</tspan>
      </text>
      <g id="13.632 / 25.950" font-size="25" letter-spacing="0em">
        <text fill="#96C5CE">
          <tspan x="1117" y="509.768">13.632 </tspan> <tspan x="1210.29" y="509.768"> </tspan>
        </text>
        <text fill="#9E9FA0">
          <tspan x="1199.98" y="509.768">/</tspan>
        </text>
        <text fill="#2E8C9D">
          <tspan x="1216.49" y="509.768">25.950</tspan>
        </text>
      </g>
      <text id="TI technische dienstverlening en R&amp;D" fill="#414143" xml:space="preserve" font-size="26">
        <tspan x="1117" y="451.104">TI technische </tspan> <tspan x="1117" y="481.104">dienstverlening en R&amp;D</tspan>
      </text>
      <g id="1.975 / 36.221" font-size="25" letter-spacing="0em">
        <text fill="#96C5CE">
          <tspan x="1117" y="355.941">1.975 </tspan> <tspan x="1196.25" y="355.941"> </tspan>
        </text>
        <text fill="#9E9FA0">
          <tspan x="1185.95" y="355.941">/</tspan>
        </text>
        <text fill="#2E8C9D">
          <tspan x="1202.45" y="355.941">36.221</tspan>
        </text>
      </g>
      <text id="TI maken" fill="#414143" xml:space="preserve" font-size="26">
        <tspan x="1117" y="326.536">TI maken</tspan>
      </text>
      <g id="12.087 / 87.124" font-size="25" letter-spacing="0em">
        <text fill="#96C5CE">
          <tspan x="1117" y="138.084">12.087 </tspan> <tspan x="1210.29" y="138.084"> </tspan>
        </text>
        <text fill="#9E9FA0">
          <tspan x="1199.98" y="138.084">/</tspan>
        </text>
        <text fill="#2E8C9D">
          <tspan x="1216.49" y="138.084">87.124</tspan>
        </text>
      </g>
      <text id="TI handel" fill="#414143" xml:space="preserve" font-size="26">
        <tspan x="1117" y="109.176">TI handel</tspan>
      </text>
      <g id="6.036 / 29.365" font-size="25" letter-spacing="0em">
        <text fill="#96C5CE">
          <tspan x="192" y="651.28">6.036 </tspan> <tspan x="271.248" y="651.28"> </tspan>
        </text>
        <text fill="#9E9FA0">
          <tspan x="260.945" y="651.28">/</tspan>
        </text>
        <text fill="#2E8C9D">
          <tspan x="277.449" y="651.28">29.365</tspan>
        </text>
      </g>
      <text id="TI reparatie" fill="#414143" xml:space="preserve" font-size="26">
        <tspan x="217" y="623.447">TI reparatie</tspan>
      </text>
      <g id="1.894 / 33.976" font-size="25" letter-spacing="0em">
        <text fill="#96C5CE">
          <tspan x="186" y="539.1">1.894 </tspan> <tspan x="265.248" y="539.1"> </tspan>
        </text>
        <text fill="#9E9FA0">
          <tspan x="254.945" y="539.1">/</tspan>
        </text>
        <text fill="#2E8C9D">
          <tspan x="271.449" y="539.1">33.976</tspan>
        </text>
      </g>
      <text id="TI energie" fill="#414143" xml:space="preserve" font-size="26">
        <tspan x="234" y="510.192">TI energie</tspan>
      </text>
      <g id="843 / 28.564" font-size="25" letter-spacing="0em">
        <text fill="#96C5CE">
          <tspan x="201" y="433.265">843 </tspan>
        </text>
        <text fill="#9E9FA0">
          <tspan x="249.315" y="433.265">/ </tspan>
        </text>
        <text fill="#2E8C9D">
          <tspan x="265.819" y="433.265">28.564</tspan>
        </text>
      </g>
      <text id="TI telecom" fill="#414143" xml:space="preserve" font-size="26">
        <tspan x="226" y="404.127">TI telecom</tspan>
      </text>
      <g id="24.891 / 90.415" font-size="25" letter-spacing="0em">
        <text fill="#96C5CE">
          <tspan x="172" y="309.639">24.891 </tspan> <tspan x="265.286" y="309.639"> </tspan> <tspan x="354.471" y="309.639"> </tspan>
        </text>
        <text fill="#9E9FA0">
          <tspan x="254.983" y="309.639">/</tspan>
        </text>
        <text fill="#2E8C9D">
          <tspan x="271.487" y="309.639">90.415 </tspan>
        </text>
      </g>
      <text id="TI advies/ontwerp" fill="#414143" xml:space="preserve" style="white-space:pre" font-size="26">
        <tspan x="139" y="280.731">TI advies/ontwerp</tspan>
      </text>
      <text id="totaal: 460.000" fill="#2E8C9D" xml:space="preserve" font-size="24">
        <tspan x="217" y="124.203">totaal: 460.000 </tspan>
      </text>
      <text id="Werknemers" fill="#2E8C9D" xml:space="preserve" font-size="26" font-weight="bold">
        <tspan x="217" y="94.887">Werknemers</tspan>
      </text>
      <text id="totaal: 70.000" fill="#96C5CE" xml:space="preserve" font-size="24">
        <tspan x="35" y="124.203">totaal: 70.000 </tspan>
      </text>
      <text id="Bedrijven" fill="#96C5CE" xml:space="preserve" font-size="26" font-weight="bold">
        <tspan x="35" y="94.887">Bedrijven </tspan>
      </text>
    </g>
  </g>
</svg>