<svg width="320" height="280" viewBox="0 0 320 280" fill="none" xmlns="http://www.w3.org/2000/svg">
	<rect width="320" height="280" fill="white" />
	<path fill-rule="evenodd" clip-rule="evenodd"
		d="M193.751 72.2988C209.182 70.4108 221.126 57.4098 220.897 41.4508C220.67 25.6368 208.254 12.3638 192.489 11.1018C174.285 9.64477 159.003 24.0238 159.003 41.9018C159.003 57.6538 170.438 70.4288 185.723 72.2978V74.0938H103.2V70.8888H106.405V48.4568H83.972V70.8898H87.978V74.0948H73.556V73.4038C73.556 72.9608 73.197 72.6028 72.755 72.6028C72.313 72.6028 71.954 72.9608 71.954 73.4038V81.1938C71.954 81.6368 72.313 81.9958 72.755 81.9958C73.197 81.9958 73.556 81.6368 73.556 81.1938V80.5048H185.723V82.9758H64V205.976H227V82.9758H193.737L193.751 72.2988ZM90.381 51.6618H93.586V63.6798H100.797V66.8848H93.586H90.381V51.6618ZM89.58 74.0948V70.8898H101.598V74.0948H89.58ZM188.864 66.4828C176.26 65.9298 166.108 55.7788 165.558 43.1748H184.384C184.478 43.6598 184.636 44.1198 184.846 44.5518L169.891 52.0878C169.891 52.0878 170.386 53.8798 173.563 57.5578C176.521 60.9828 179.974 62.2468 179.974 62.2468L187.4 47.1508C187.857 47.3798 188.346 47.5528 188.864 47.6518V66.4828V66.4828ZM188.864 36.5268C188.377 36.6198 187.913 36.7798 187.48 36.9908L179.944 22.0368C179.944 22.0368 178.153 22.5328 174.474 25.7068C171.05 28.6658 169.785 32.1188 169.785 32.1188L184.885 39.5478C184.656 40.0048 184.483 40.4958 184.384 41.0148H184.121H165.558C166.108 28.4028 176.26 18.2458 188.864 17.6938V36.5268V36.5268ZM191.022 17.6958C203.628 18.2468 213.779 28.4048 214.33 41.0168H195.503C195.41 40.5268 195.249 40.0628 195.039 39.6268L209.996 32.0898C209.996 32.0898 209.499 30.3008 206.323 26.6208C203.366 23.1958 199.912 21.9308 199.912 21.9308L192.484 37.0268C192.028 36.7978 191.539 36.6258 191.022 36.5258V17.6958ZM191.022 47.6538C191.51 47.5598 191.972 47.4008 192.407 47.1888L199.943 62.1408C199.943 62.1408 201.732 61.6458 205.41 58.4678C208.837 55.5108 210.101 52.0568 210.101 52.0568L195.003 44.6298C195.232 44.1758 195.403 43.6878 195.503 43.1738H214.33C213.779 55.7778 203.627 65.9288 191.022 66.4818V47.6538Z"
		fill="#D9DADB" />
	<path fill-rule="evenodd" clip-rule="evenodd"
		d="M52.795 89.2149H60.5786C61.0202 89.2149 61.3778 88.8564 61.3778 88.4142C61.3778 87.9719 61.0192 87.6155 60.5786 87.6155H59.8882V83.7238C59.8882 81.8978 61.3698 80.4162 63.1981 80.4162H67.8926V81.127C67.8926 81.5833 68.2513 81.9547 68.6929 81.9547C69.1344 81.9547 69.4931 81.5843 69.4931 81.127V73.0881C69.4931 72.6308 69.1344 72.2614 68.6929 72.2614C68.2513 72.2614 67.8926 72.6308 67.8926 73.0881V74.0166H63.4139C57.9301 74.0166 53.4853 78.4594 53.4853 83.9384V87.6145H52.796C52.3544 87.6145 51.9958 87.9719 51.9958 88.4132C51.9958 88.8545 52.3534 89.2149 52.795 89.2149Z"
		fill="#D9DADB" />
	<path fill-rule="evenodd" clip-rule="evenodd"
		d="M60.5816 172.404H59.8872V93.2144H60.5766C61.0182 93.2144 61.3758 92.8559 61.3758 92.4137C61.3758 91.9714 61.0172 91.615 60.5766 91.615H52.794C52.3524 91.615 51.9948 91.9724 51.9948 92.4137C51.9948 92.8559 52.3534 93.2144 52.794 93.2144H53.4833V172.404H52.799C52.3574 172.404 51.9988 172.761 51.9988 173.203C51.9988 173.645 52.3574 174.003 52.799 174.003H60.5816C61.0222 174.003 61.3808 173.645 61.3808 173.203C61.3808 172.761 61.0222 172.404 60.5816 172.404Z"
		fill="#D9DADB" />
	<path fill-rule="evenodd" clip-rule="evenodd"
		d="M60.5776 175.603H52.791C52.3494 175.603 51.9908 175.96 51.9908 176.403C51.9908 176.845 52.3494 177.204 52.791 177.204H53.4843V181.895C53.4843 183.722 52.0027 185.203 50.1745 185.203H45.48V184.55C45.48 184.092 45.1213 183.722 44.6797 183.722C44.2381 183.722 43.8795 184.092 43.8795 184.55V192.588C43.8795 193.044 44.2381 193.415 44.6797 193.415C45.1223 193.415 45.48 193.045 45.48 192.588V191.601H49.9597C55.4425 191.601 59.8882 187.16 59.8882 181.68V177.203H60.5786C61.0202 177.203 61.3788 176.844 61.3788 176.402C61.3778 175.96 61.0192 175.603 60.5776 175.603Z"
		fill="#D9DADB" />
	<path fill-rule="evenodd" clip-rule="evenodd"
		d="M41.0175 183.74C40.5759 183.74 40.2163 184.098 40.2163 184.541V185.202H37.8146V177.203H14.6027V185.202H11.4007V191.601H14.6027V203.568C14.6027 204.911 16.4599 206 18.7477 206H33.6705C35.9593 206 37.8156 204.911 37.8156 203.568V191.601H40.2173V192.317C40.2173 192.76 40.5759 193.118 41.0185 193.118C41.4601 193.118 41.8178 192.76 41.8178 192.317V184.541C41.8178 184.098 41.4591 183.74 41.0175 183.74Z"
		fill="#D9DADB" />
	<path fill-rule="evenodd" clip-rule="evenodd"
		d="M20.2053 164.405H25.0078V166.805H18.3711C17.5519 166.805 16.7786 167.362 16.6647 168.172C16.5258 169.159 17.2881 170.005 18.2492 170.005H25.0088V171.604H13.6686C12.6016 171.704 11.7374 172.567 11.7374 173.634C11.7374 174.699 12.6016 175.563 13.6686 175.603H38.9035C39.9705 175.563 40.8347 174.699 40.8347 173.634C40.8347 172.567 39.9705 171.704 38.9035 171.604H27.4095V170.005H34.0452C34.8654 170.005 35.6396 169.446 35.7525 168.635C35.8894 167.647 35.1271 166.805 34.168 166.805H27.4095V164.405H33.8134V165.204H45.0197V162.005H33.8134V162.804H27.4095V161.129C27.4095 160.519 26.871 160.027 26.2086 160.027C25.5453 160.027 25.0078 160.519 25.0078 161.129V162.804H20.2053V162.005H9V165.204H20.2063V164.405H20.2053Z"
		fill="#D9DADB" />
	<path fill-rule="evenodd" clip-rule="evenodd"
		d="M263.4 170.992C262.219 171.701 261.134 172.479 260.085 173.232C257.078 175.389 255.123 176.682 252.925 176.146C251.889 175.892 250.38 174.882 248.92 173.903C245.914 171.889 242.511 169.609 238.66 170.491C236.325 171.029 234.347 172.663 232.785 175.353C231.212 178.059 230.786 181.075 230.411 183.736C229.748 188.429 229.277 190.048 227 190.565V196.977C227.62 196.924 227.777 196.662 228.45 196.51C235.404 194.929 236.242 188.979 236.855 184.636C237.175 182.359 237.48 180.209 238.418 178.593C239.015 177.565 239.637 176.912 240.122 176.8C241.214 176.551 243.567 178.123 245.283 179.274C247.215 180.568 249.213 181.906 251.373 182.434C256.602 183.71 260.472 180.935 263.887 178.484C264.876 177.776 265.808 177.107 266.763 176.534L263.4 170.992Z"
		fill="#D9DADB" />
	<path fill-rule="evenodd" clip-rule="evenodd"
		d="M311.785 155.526C311.342 154.766 310.366 154.509 309.603 154.948L298.472 161.326C298.257 161.449 298.087 161.618 297.955 161.809L289.954 148.059L300.81 141.841C301.572 141.401 301.832 140.429 301.391 139.67C300.95 138.911 299.973 138.654 299.211 139.092L288.355 145.31L283.541 137.04C282.952 136.028 281.651 135.684 280.634 136.27C279.617 136.856 279.269 138.152 279.858 139.163L301.349 176.094C301.827 176.915 302.776 177.297 303.661 177.097C303.865 177.051 304.067 176.973 304.257 176.863C305.274 176.278 305.62 174.982 305.032 173.97L299.395 164.284C299.47 164.277 299.549 164.268 299.624 164.252C299.777 164.217 299.928 164.16 300.07 164.077L311.204 157.698C311.966 157.257 312.227 156.285 311.785 155.526Z"
		fill="#D9DADB" />
	<path fill-rule="evenodd" clip-rule="evenodd"
		d="M266.109 166.601C264.365 167.897 263.38 169.327 263.823 170.075L267.425 176.147C267.881 176.913 269.696 176.715 271.744 175.76C279.081 182.377 289.938 180.254 299.662 174.541L280.81 142.762C270.876 148.597 263.427 156.864 266.109 166.601Z"
		fill="#D9DADB" />
	<path d="M138 109H127V128H138V109Z" fill="white" />
	<path d="M113 109H102V128H113V109Z" fill="white" />
	<path d="M89 109H78V128H89V109Z" fill="white" />
	<path opacity="0.62" d="M138 147H78V202H138V147Z" fill="white" />
	<path d="M162 109H151V128H162V109Z" fill="white" />
	<path d="M162 148H151V166H162V148Z" fill="white" />
	<path d="M186 109H175V128H186V109Z" fill="white" />
	<path d="M186 148H175V166H186V148Z" fill="white" />
	<path d="M211 109H200V128H211V109Z" fill="white" />
	<path d="M211 148H200V166H211V148Z" fill="white" />
	<text fill="#258999" xml:space="preserve" font-family="Roboto" font-size="57" font-weight="500">
		<tspan x="90" y="260">24%</tspan>
	</text>
	<path d="M227 181H64V206H227V181Z" fill="#258999" />
</svg>