
<svg width="1434" height="737" viewBox="0 0 1434 737" fill="none" xmlns="http://www.w3.org/2000/svg">
<path d="M1434 670L850 671" stroke="#A6A8AB" stroke-miterlimit="10"/>
<path d="M1195.04 649.685V649.365C1191.7 649.415 1188.36 649.431 1185.02 649.676C1188.36 649.677 1191.7 649.665 1195.04 649.685Z" fill="#D7D8D8"/>
<path d="M1195.04 646.46V645.972H1188.76V646.461C1190.86 646.46 1192.95 646.457 1195.04 646.46Z" fill="#D7D8D8"/>
<path d="M1192.88 619.368C1187.9 619.806 1182.88 619.916 1177.89 620.22C1176.13 620.327 1173.95 618.655 1172.7 621.02C1172.87 621.145 1173.09 621.287 1173.31 621.428C1176.16 621.14 1183.41 622.661 1183.26 622.934C1183.15 624.469 1183.2 629.885 1183.19 630.185C1186.97 629.894 1191.24 629.655 1195.26 629.422C1195.35 626.066 1195.71 622.54 1195.04 619.239C1194.33 619.261 1193.61 619.303 1192.88 619.368Z" fill="#D7D8D8"/>
<path d="M1195.09 638.715C1192.94 638.761 1190.79 638.813 1188.64 639.042H1195.08C1195.09 638.933 1195.09 638.824 1195.09 638.715Z" fill="#D7D8D8"/>
<path d="M1195.19 632.53C1195.19 632.364 1195.2 632.199 1195.2 632.034C1192.66 632.225 1190.16 632.371 1187.83 632.53H1195.19Z" fill="#D7D8D8"/>
<path d="M1195.13 635.692V635.373C1193.64 635.488 1192.16 635.609 1190.75 635.715C1192.16 635.715 1193.63 635.693 1195.13 635.692Z" fill="#D7D8D8"/>
<path d="M1263.75 667.597C1263.43 665.553 1263.02 660.295 1262.8 658.244C1262.65 656.927 1262.76 655.59 1262.76 654.261V645.723L1262 645.713V667.729C1260.87 667.46 1260.32 667.113 1260.26 666.713C1259.92 664.524 1259.51 659.105 1259.46 656.905C1259.24 646.654 1259.14 636.399 1258.97 626.146C1258.96 625.474 1258.85 624.329 1258.44 624.214C1255.48 623.367 1256.24 621.318 1256.08 619.401C1255.9 620.746 1255.74 621.918 1255.67 622.49C1248.99 623.408 1242.9 624.247 1236.62 625.111C1236.82 627.553 1237.01 629.811 1237.19 632.013C1234.93 632.787 1234.19 632.19 1234.19 630.491C1234.16 624.565 1234.02 618.64 1233.98 612.713C1233.94 606.899 1233.97 601.084 1233.97 595.474C1226.32 591.444 1218.26 594.544 1210.47 594.241C1210.66 601.132 1210.84 607.969 1211.02 614.787C1211.4 614.775 1211.77 614.767 1212.14 614.778C1211.92 608.98 1211.7 603.184 1211.54 597.385C1211.52 596.708 1212.71 595.568 1213.56 595.396C1216.03 594.896 1218.61 594.79 1221.14 594.506C1225.43 594.025 1225.75 594.154 1225.74 597.759C1225.73 603.614 1225.7 609.47 1225.67 615.326L1226.16 615.32C1226.14 608.56 1226.2 601.764 1226.2 594.836C1232.96 595.333 1233.33 595.488 1233.3 599.994C1233.21 614.068 1232.92 628.139 1232.78 642.212C1232.71 648.399 1232.74 654.582 1232.76 660.751C1232.81 660.836 1232.85 660.928 1232.87 661.023L1232.86 661.024C1232.86 661.42 1232.85 661.815 1232.86 662.211C1232.84 662.719 1232.84 663.228 1232.84 663.731V665.999C1232.84 667.373 1232.85 668.748 1232.83 670.123V670.149C1236.89 670.249 1264.09 670.005 1264.44 669.888C1264.38 669.382 1264.33 668.134 1264.27 667.628C1264.1 667.615 1263.93 667.601 1263.75 667.597Z" fill="#D7D8D8"/>
<path d="M1165.04 567.069C1165.03 583.363 1165.91 599.632 1166.42 615.909C1166.47 617.543 1166.49 619.177 1166.51 620.813C1166.7 620.711 1166.86 620.68 1167.09 620.662L1167.14 620.661C1167.15 620.661 1167.16 620.666 1167.18 620.667C1167.01 614.825 1166.83 608.984 1166.63 603.143C1166.21 591.115 1165.58 579.092 1165.04 567.069Z" fill="#D7D8D8"/>
<path d="M1203.25 621.832C1202.98 621.699 1202.64 621.598 1202.22 621.513C1202.64 621.598 1202.98 621.699 1203.25 621.832Z" fill="#D7D8D8"/>
<path d="M1189.32 653.09C1187.34 653.112 1185.35 653.125 1183.36 653.129V653.428C1183.58 653.425 1183.8 653.418 1184.02 653.416C1187.69 653.379 1191.37 653.402 1195.04 653.431V652.949C1193.13 653.027 1191.23 653.069 1189.32 653.09Z" fill="#D7D8D8"/>
<path d="M1195.04 653.43C1191.37 653.402 1187.69 653.378 1184.02 653.416C1183.8 653.418 1183.58 653.425 1183.36 653.428C1183.37 656.384 1183.36 669.524 1183.36 669.524C1185.26 669.565 1187.91 669.604 1189.81 669.645L1191.22 669.675C1192.52 669.703 1193.82 669.728 1195.12 669.754C1195.13 667.874 1195.04 655.709 1195.04 655.061V653.43Z" fill="#D7D8D8"/>
<path d="M1172.93 658.27C1172.93 658.376 1172.93 658.479 1172.94 658.582C1172.95 658.69 1172.97 658.799 1172.99 658.91C1172.97 658.799 1172.95 658.691 1172.94 658.582C1172.93 658.479 1172.93 658.376 1172.93 658.27Z" fill="#D7D8D8"/>
<path d="M1102.5 632.928C1102.25 632.903 1102 632.886 1101.74 632.878L1101.5 632.868C1101.54 640.503 1101.59 648.139 1101.66 655.775C1101.68 657.93 1101.91 660.085 1102.04 662.24L1102.92 662.229V633.021C1102.85 633.012 1102.79 633.001 1102.72 632.978C1102.65 632.956 1102.57 632.939 1102.5 632.928Z" fill="#D7D8D8"/>
<path d="M1073.41 656.841L1073.77 656.862V642.091C1073.63 643.348 1073.52 644.609 1073.45 645.872C1073.26 649.522 1073.41 653.184 1073.41 656.841Z" fill="#D7D8D8"/>
<path d="M1073.77 642.091C1073.8 641.744 1073.83 641.397 1073.88 641.05C1073.84 640.779 1073.8 640.514 1073.77 640.24V642.091Z" fill="#D7D8D8"/>
<path d="M1032.5 648.378C1032.5 648.691 1032.5 649.004 1032.49 649.317C1032.52 649.357 1032.53 649.403 1032.55 649.445C1032.72 648.443 1032.87 647.439 1032.99 646.433C1033.1 645.565 1033.2 644.695 1033.28 643.824C1033.1 644.558 1032.91 645.286 1032.69 646.009C1032.66 646.8 1032.59 647.59 1032.5 648.378Z" fill="#D7D8D8"/>
<path d="M1054.99 663.546C1054.92 662.605 1054.84 661.65 1054.78 660.695C1054.33 653.468 1053.64 646.243 1053.53 639.012C1053.48 636.149 1056.59 634.381 1058.51 632.26L1059.29 632.521C1059.94 642.044 1060.59 651.566 1061.25 661.088L1062.18 661.113C1062.28 660.327 1062.53 659.533 1062.47 658.756C1061.8 649.928 1061.14 641.099 1060.31 632.28C1060.2 631.1 1059.59 629.602 1058.57 628.891C1054.24 625.886 1052.18 622.214 1052.65 617.544C1052.69 617.117 1052.54 616.678 1052.48 616.243L1052.09 616.265V622.701C1050.33 620.941 1048.7 619.323 1047.06 617.686C1046.82 621.918 1046.85 665.061 1046.82 666.545C1048.11 666.693 1049.04 666.8 1049.41 666.806C1055.47 664.66 1064.05 664.246 1070.07 666.061C1069.94 666.444 1069.82 666.821 1069.71 667.157C1071.95 667.198 1074.19 667.235 1076.42 667.277C1076.99 666.843 1077.54 666.375 1078.2 666.125C1079.25 665.731 1080.45 665.631 1081.59 665.403L1081.44 665.021L1054.99 663.546Z" fill="#D7D8D8"/>
<path d="M1163.74 558.14C1160.81 556.895 1157.9 555.615 1155.54 554.589L1134.94 558.448C1135.42 593.93 1135.91 629.175 1136.4 664.42L1137.2 664.471C1137.28 663.747 1137.43 663.024 1137.44 662.3C1137.49 652.042 1137.65 641.783 1137.54 631.526C1137.43 621.351 1137.03 611.179 1136.79 601.005C1136.49 588.7 1136.29 576.394 1135.94 564.09C1135.81 559.499 1135.61 559.364 1140.91 558.261C1145.17 557.374 1149.54 556.872 1154.32 556.127C1155.65 592.99 1153.49 629.272 1157.42 665.438C1154.06 629.027 1156.8 592.576 1155.81 556.039C1159.08 558.041 1165.18 557.06 1164.45 562.479C1165.5 558.856 1165.49 558.881 1163.74 558.14Z" fill="#D7D8D8"/>
<path d="M1132.4 593.365C1131.18 590.303 1129.1 587.992 1126.46 585.745C1124.51 584.085 1123.23 581.882 1121.59 579.955C1121.04 579.3 1120.3 578.749 1119.33 577.856C1119.28 581.943 1115.89 584.087 1114.2 586.937L1110.57 590.883C1110.89 591.149 1111.28 591.325 1111.68 591.45C1111.28 591.327 1110.89 591.149 1110.57 590.883C1109.53 591.739 1107.67 592.559 1107.61 593.457C1107.46 595.947 1108.06 598.47 1108.36 600.98C1108.85 599.829 1108.91 598.709 1108.84 597.594C1108.61 593.291 1109.73 592.385 1115.66 592.587C1115.66 595.193 1115.7 597.823 1115.64 600.452C1115.62 601.301 1115.41 602.155 1115.19 602.989C1114.82 604.431 1113.97 605.871 1114.02 607.292C1114.19 611.537 1115.1 615.852 1109.9 619.551C1109.22 615.639 1108.59 612.043 1107.88 607.961V619.091C1104.04 617.514 1100.58 617.266 1096.71 617.85C1089.95 618.868 1083.04 619.178 1075.37 619.857V603.428C1070.89 604.206 1070.3 602.323 1070.34 599.904C1070.36 598.932 1070.21 597.959 1070.2 596.986C1070.07 588.042 1070 579.097 1069.76 570.154C1069.74 569.261 1068.9 567.826 1068.07 567.609C1065.6 566.96 1065.07 565.509 1065.04 563.769C1064.92 558.548 1064.91 553.326 1064.83 548.105C1064.82 547.632 1064.62 547.16 1064.52 546.688L1063.7 546.759V566.328C1057.79 564.661 1060.98 569.286 1058.67 570.497C1057.22 570.382 1055.44 570.22 1053.65 570.106C1051.59 569.974 1050.03 570.324 1050.16 572.492C1050.27 574.325 1050.18 576.164 1050.26 578C1050.69 588.968 1051.15 599.935 1051.61 610.902C1051.65 611.842 1051.75 612.782 1051.82 613.722C1052.13 610.385 1052.06 607.12 1052.14 603.855C1052.26 599.011 1052.72 594.165 1052.6 589.327C1052.49 584.469 1051.83 579.62 1051.45 574.765C1051.26 572.357 1052.81 571.241 1055.55 571.562C1059.01 571.968 1062.42 572.643 1065.86 573.184C1066.44 573.275 1067.03 573.277 1067.62 573.32C1067.68 573.092 1067.74 572.863 1067.81 572.635C1066.26 572.175 1064.72 571.698 1063.16 571.259C1060.72 570.57 1061.51 569.232 1061.98 567.922C1067.88 567.584 1068.65 568.054 1068.75 572.667C1068.98 582.921 1069.07 593.177 1069.33 603.43C1069.34 604.023 1070.34 605.092 1070.89 605.1C1073.25 605.13 1073.77 606.255 1073.77 607.841C1073.78 611.866 1073.78 615.891 1073.78 620.673C1071.52 620.673 1068.56 620.879 1065.67 620.616C1062.75 620.35 1062.25 621.361 1062.32 623.461C1062.52 629.48 1062.49 635.504 1062.61 641.527C1062.66 643.833 1062.87 646.137 1063 648.442C1063.68 647.459 1063.56 646.51 1063.54 645.56C1063.37 638.398 1063.2 631.235 1063.09 624.072C1063.07 622.88 1062.91 621.471 1065.26 621.5C1069.29 621.547 1073.33 621.513 1077.86 621.513V634.116C1076.66 634.787 1074.86 635.255 1074.71 635.961C1074.36 637.645 1074.09 639.342 1073.88 641.049C1074.67 646.912 1075.5 652.231 1075.99 657.567C1076.19 659.755 1077.26 660.865 1080.19 661.701C1079.97 660.069 1079.67 658.832 1079.66 657.593C1079.58 645.734 1079.54 633.875 1079.58 622.015C1079.59 621.487 1080.5 620.555 1081.08 620.496C1086.86 619.923 1092.66 619.564 1098.43 618.992C1100.74 618.763 1101.45 619.406 1101.46 621.264C1101.46 624.265 1101.48 627.266 1101.49 630.267C1101.72 630.277 1101.95 630.281 1102.17 630.292C1102.42 630.305 1102.67 630.338 1102.92 630.373V619.262C1105.56 619.701 1107.65 619.929 1109.65 620.411C1112.09 620.999 1113.47 622.208 1113.53 624.609C1113.58 626.469 1113.65 628.328 1113.71 630.188C1113.92 630.147 1114.15 630.133 1114.37 630.134C1115.03 630.137 1115.7 630.181 1116.36 630.226C1116.24 621.644 1116.41 613.022 1117.4 604.401L1119.16 604.558C1118.93 601.32 1118.71 598.255 1118.49 595.19L1119.41 595.04C1121.07 596.906 1122.73 598.773 1124.59 600.856C1126.18 597.3 1127.61 594.132 1129.03 590.964L1129.86 590.971C1130.43 592.436 1131.45 593.89 1131.5 595.367C1131.68 601.109 1131.55 606.858 1131.55 612.605V636.799C1132.05 630.525 1131.98 624.253 1132.07 617.981C1132.17 611.256 1132.33 604.528 1132.69 597.81C1132.77 596.285 1133.04 594.99 1132.4 593.365ZM1124.31 598.042C1120.26 595.918 1118.2 592.797 1118.27 589.367C1118.2 592.797 1120.26 595.917 1124.31 598.042ZM1123.16 583.77C1124.29 584.881 1125.41 585.983 1126.48 587.115C1125.41 585.984 1124.29 584.881 1123.16 583.77ZM1127.8 591.544C1128.04 591.028 1128.26 590.329 1128.27 589.734C1128.26 590.328 1128.04 591.028 1127.8 591.544Z" fill="#D7D8D8"/>
<path d="M1008.81 665.996C1008.78 665.874 1008.76 665.744 1008.78 665.601C1008.85 665.068 1008.87 664.536 1008.88 664.002C1007.5 663.457 1006.5 662.521 1006.37 661.279C1005.71 654.931 1005.14 648.577 1004.57 642.222C1003.9 634.635 1003.32 627.042 1002.52 619.465C1002.44 618.71 1001.23 617.774 1000.27 617.399C997.32 616.238 994.23 615.308 990.91 614.195C988.82 615.552 986.45 617.096 984.02 618.668C982.941 617.477 981.861 616.287 980.78 615.098C980.57 615.33 980.38 615.544 980.18 615.762L980.15 615.728C979.789 616.144 979.457 616.525 979.135 616.892L978.169 618L977.567 618.69L977.572 618.685C977.571 618.687 977.569 618.689 977.567 618.69C977.234 619.036 976.899 619.381 976.558 619.734C974.852 621.097 973.509 622.402 974.591 624.725C974.97 625.537 973.614 626.888 973.11 628.012C972.925 628.425 972.917 628.89 972.829 629.332L973.256 629.415C973.346 629.363 973.442 629.321 973.545 629.293L973.885 629.246C973.932 629.246 973.975 629.259 974.02 629.264C974.444 628.087 975.085 626.912 975.099 625.731C975.14 622.376 975.851 621.691 980.5 621.675V626.999C982.96 627.012 983.48 627.911 983.56 629.158C983.66 629.154 983.76 629.159 983.85 629.175V627.168C980.67 625.975 980.27 624.944 982 621.775C986.76 622.219 986.79 622.218 986.92 626.005C986.96 627.01 986.96 628.014 986.95 629.02L986.96 629.021C987.32 625.73 988.56 622.312 984.72 619.392C986.72 617.97 988.48 616.71 990.25 615.45L991.3 615.761C991.56 620.116 991.85 625.112 992.11 629.454C993.08 629.571 995.5 629.341 995.83 629.472C996.72 629.237 995.81 664.977 996.12 666.447C996.13 666.494 996.13 666.543 996.13 666.592C997.05 666.603 1002.84 666.565 1008.99 666.522C1008.97 666.478 1008.95 666.441 1008.94 666.394C1008.87 666.271 1008.83 666.136 1008.81 665.996Z" fill="#D7D8D8"/>
<path d="M1010.23 610.468V615.541L1006.54 615.922C1007.03 630.84 1006.49 645.624 1009.32 660.26C1009.5 658.141 1008.84 656.064 1008.75 653.97C1008.25 642.382 1007.85 630.791 1007.52 619.2C1007.5 618.414 1008.33 617.611 1008.76 616.816L1010.57 618.023C1011.23 617.667 1012.12 616.78 1012.88 616.851C1017.23 617.259 1016.9 615.157 1016.37 612.77C1016.21 612.035 1016.35 611.254 1016.35 610.513C1021.42 610.271 1021.58 610.355 1021.83 614.066C1021.86 614.476 1021.88 614.888 1021.9 615.298C1022.19 615.211 1022.51 615.219 1022.8 615.325C1022.67 613.579 1022.54 611.825 1022.4 610.082C1018.25 609.064 1014.23 608.163 1010.23 610.468Z" fill="#D7D8D8"/>
<path d="M1288.53 622.952L1287.3 620.304C1286.33 620.841 1285.43 621.529 1284.36 621.874C1283.21 622.249 1281.91 622.43 1280.67 622.464C1279.34 622.5 1278.01 622.176 1276.68 622.171C1274.02 622.161 1271.36 622.362 1268.71 622.251C1267.96 622.22 1266.55 621.292 1266.63 620.988C1267.59 617.287 1263.8 614.842 1263.17 611.591C1263.08 611.154 1262.5 610.782 1261.96 610.155C1261.39 610.846 1261.01 611.32 1260.62 611.794L1259.78 612.622C1258.53 613.975 1257.28 615.33 1255.75 616.991L1261.5 616.599V640.582L1262.46 640.588V616.572C1264.09 617.183 1265.01 617.526 1266.09 617.928C1265.62 619.572 1267.24 621.913 1263.43 622.334C1263.94 623.173 1264.35 623.858 1264.61 624.299C1268.84 622.899 1273.04 623.033 1277.23 623.304C1277.61 623.328 1278.24 624.077 1278.2 624.449C1278.1 625.327 1277.96 626.202 1277.8 627.076C1278.26 627.092 1278.72 627.106 1279.18 627.123C1279.18 626.372 1279.41 625.317 1279.83 623.79C1279.41 625.317 1279.18 626.372 1279.18 627.123C1281 627.191 1282.83 627.26 1284.65 627.306L1285.01 627.317C1285.32 627.325 1285.63 627.33 1285.94 627.335C1287.04 625.037 1284.59 622.818 1286.25 620.936L1287.36 620.944L1288.05 623.678C1288.23 623.629 1288.4 623.579 1288.58 623.53C1288.56 623.338 1288.54 623.145 1288.53 622.952ZM1258.48 616C1258.6 615.668 1258.73 615.355 1258.84 615.056C1258.73 615.355 1258.61 615.668 1258.48 616Z" fill="#D7D8D8"/>
<path d="M1138.87 659.73L1139.29 659.729V580.346L1138.87 580.347V659.73Z" fill="#D7D8D8"/>
<path d="M1082.08 618.373C1082.26 617.717 1082.44 617.06 1082.68 616.174C1087.3 615.775 1092.22 613.905 1097.16 616.375C1097.57 616.58 1098.34 616.434 1098.86 616.267C1099.01 616.22 1099.01 615.245 1098.82 615.181C1097.08 614.561 1095.31 613.717 1093.48 613.589C1091.53 613.451 1089.52 614.037 1087.53 614.271C1084.25 614.656 1080.97 615.01 1077.7 615.378L1077.58 616.155C1078.64 616.469 1079.76 616.698 1080.75 617.129C1081.3 617.37 1081.64 617.948 1082.08 618.373Z" fill="#D7D8D8"/>
<path d="M1145.55 597.36C1145.42 591.924 1145.12 586.492 1144.84 581.059V618.715C1145.58 611.594 1145.71 604.475 1145.55 597.36Z" fill="#D7D8D8"/>
<path d="M1144.59 576.082C1144.67 577.741 1144.76 579.4 1144.84 581.059V576.08L1144.59 576.082Z" fill="#D7D8D8"/>
<path d="M1142.37 664.706L1142.68 664.739V630.209L1142.37 630.215V664.706Z" fill="#D7D8D8"/>
<path d="M1141.32 561.894C1141.32 566.369 1141.39 570.846 1141.31 575.321C1141.2 581.4 1140.98 587.478 1140.81 593.556V593.55C1141.12 592.29 1141.63 591.035 1141.68 589.768C1141.92 584.309 1142.06 578.845 1142.16 573.383C1142.23 569.555 1142.17 565.725 1142.17 561.896L1141.32 561.894Z" fill="#D7D8D8"/>
<path d="M1132.12 664.91C1132.38 664.902 1132.64 664.894 1132.9 664.884V642.419L1132.12 642.423V664.91Z" fill="#D7D8D8"/>
<path d="M1216.05 610.542C1216.05 612.22 1215.5 613.966 1216.11 615.092C1217.03 615.186 1217.95 615.272 1218.86 615.301C1220.23 615.346 1221.6 615.351 1222.98 615.345C1223.71 614.077 1224.07 612.025 1223.83 609.8L1216.05 610.542Z" fill="#D7D8D8"/>
<path d="M1152.06 665.303L1152.43 665.281V636.144C1152.3 636.118 1152.18 636.093 1152.06 636.066V665.303Z" fill="#D7D8D8"/>
<path d="M1151.12 558.806L1150.74 558.793V581.281L1151.12 581.297V558.806Z" fill="#D7D8D8"/>
<path d="M1215.73 596.29C1215.87 597.6 1215.89 598.633 1216.13 599.628C1216.22 599.993 1216.81 600.275 1217.19 600.593L1217.18 600.595C1217.17 600.594 1217.2 600.605 1217.2 600.605V600.593C1218.12 600.498 1219.06 600.406 1219.99 600.308C1224.61 599.823 1224.75 599.651 1223.59 595.472C1220.97 595.743 1218.32 596.021 1215.73 596.29Z" fill="#D7D8D8"/>
<path d="M1151.01 584.622V606.831C1151.32 606.132 1151.91 605.427 1151.89 604.735C1151.69 598.027 1151.4 591.32 1151.13 584.615L1151.01 584.622Z" fill="#D7D8D8"/>
<path d="M1147.16 580.894L1147.59 580.897V559.938L1147.16 559.931V580.894Z" fill="#D7D8D8"/>
<path d="M1223.5 602.101C1221.13 602.326 1218.98 602.53 1216.9 602.729V608.156C1222.75 608.342 1223.85 607.355 1223.5 602.101ZM1217.66 607.326C1217.14 603.086 1217.78 602.556 1222.51 603.281C1222.54 607.091 1221.73 607.767 1217.66 607.326Z" fill="#D7D8D8"/>
<path d="M1148.37 599.17L1148.08 599.184V613.874L1148.37 613.87V599.17Z" fill="#D7D8D8"/>
<path d="M1148.36 633.053H1148.73V620.27H1148.36V633.053Z" fill="#D7D8D8"/>
<path d="M1145.41 651.314C1145.57 648.626 1145.81 644.529 1146.06 640.431L1145.41 640.422V651.314Z" fill="#D7D8D8"/>
<path d="M1138.42 573.378L1138.87 573.485V561.873L1138.42 561.887V573.378Z" fill="#D7D8D8"/>
<path d="M1148.95 664.484L1149.24 664.481V652.235H1148.95V664.484Z" fill="#D7D8D8"/>
<path d="M1071.07 648.498V659.47L1071.35 659.453V648.444L1071.07 648.498Z" fill="#D7D8D8"/>
<path d="M965.867 629.07V669.882H994.59V629.07H965.867ZM979.088 632.067H981.45V636.056H979.088V632.067ZM978.991 638.937H981.35V642.925H978.991V638.937ZM978.991 645.738H981.35V649.727H978.991V645.738ZM978.991 652.418H981.35V656.408H978.991V652.418ZM971.033 663.378H968.672V659.389H971.033V663.378ZM971.033 656.407H968.672V652.417H971.033V656.407ZM971.033 649.727H968.672V645.738H971.033V649.727ZM971.033 642.925H968.672V638.937H971.033V642.925ZM971.131 636.056H968.77V632.067H971.131V636.056ZM976.153 663.378H973.792V659.389H976.153V663.378ZM976.153 656.407H973.792V652.417H976.153V656.407ZM976.153 649.727H973.792V645.738H976.153V649.727ZM976.153 642.925H973.792V638.937H976.153V642.925ZM976.251 636.056H973.89V632.067H976.251V636.056ZM982.38 669.235H977.966V659.387H982.38V669.235ZM986.47 663.378H984.11V659.389H986.47V663.378ZM986.47 656.407H984.11V652.417H986.47V656.407ZM986.47 649.727H984.11V645.738H986.47V649.727ZM986.47 642.925H984.11V638.937H986.47V642.925ZM986.57 636.056H984.21V632.067H986.57V636.056ZM991.59 663.378H989.23V659.389H991.59V663.378ZM991.59 656.407H989.23V652.417H991.59V656.407ZM991.59 649.727H989.23V645.738H991.59V649.727ZM991.59 642.925H989.23V638.937H991.59V642.925ZM991.69 636.056H989.33V632.067H991.69V636.056Z" fill="#D0D1D0"/>
<path d="M1095.96 630.179V669.582H1123.69V630.179H1095.96ZM1108.72 633.072H1111V636.924H1108.72V633.072ZM1108.63 639.704H1110.91V643.555H1108.63V639.704ZM1108.63 646.271H1110.91V650.122H1108.63V646.271ZM1108.63 652.721H1110.91V656.573H1108.63V652.721ZM1100.95 663.303H1098.67V659.452H1100.95V663.303ZM1100.95 656.572H1098.67V652.72H1100.95V656.572ZM1100.95 650.123H1098.67V646.272H1100.95V650.123ZM1100.95 643.555H1098.67V639.704H1100.95V643.555ZM1101.04 636.924H1098.76V633.072H1101.04V636.924ZM1105.89 663.303H1103.61V659.452H1105.89V663.303ZM1105.89 656.572H1103.61V652.72H1105.89V656.572ZM1105.89 650.123H1103.61V646.272H1105.89V650.123ZM1105.89 643.555H1103.61V639.704H1105.89V643.555ZM1105.99 636.924H1103.71V633.072H1105.99V636.924ZM1111.9 668.957H1107.64V659.45H1111.9V668.957ZM1115.85 663.303H1113.57V659.452H1115.85V663.303ZM1115.85 656.572H1113.57V652.72H1115.85V656.572ZM1115.85 650.123H1113.57V646.272H1115.85V650.123ZM1115.85 643.555H1113.57V639.704H1115.85V643.555ZM1115.95 636.924H1113.67V633.072H1115.95V636.924ZM1120.8 663.303H1118.52V659.452H1120.8V663.303ZM1120.8 656.572H1118.52V652.72H1120.8V656.572ZM1120.8 650.123H1118.52V646.272H1120.8V650.123ZM1120.8 643.555H1118.52V639.704H1120.8V643.555ZM1120.89 636.924H1118.61V633.072H1120.89V636.924Z" fill="#D0D1D0"/>
<path d="M1166.01 621.149V669.757H1183.67V621.149H1166.01ZM1178.81 626.914H1181.09V630.777H1178.81V626.914ZM1178.81 633.141H1181.09V637.004H1178.81V633.141ZM1178.71 639.794H1181V643.655H1178.71V639.794ZM1178.71 646.378H1181V650.241H1178.71V646.378ZM1178.71 652.847H1181V656.709H1178.71V652.847ZM1171.01 663.46H1168.72V659.597H1171.01V663.46ZM1171.01 656.71H1168.72V652.848H1171.01V656.71ZM1171.01 650.242H1168.72V646.379H1171.01V650.242ZM1171.01 643.654H1168.72V639.793H1171.01V643.654ZM1171.1 637.004H1168.82V633.141H1171.1V637.004ZM1171.1 630.777H1168.82V626.914H1171.1V630.777ZM1175.97 663.46H1173.68V659.597H1175.97V663.46ZM1175.97 656.71H1173.68V652.848H1175.97V656.71ZM1175.97 650.242H1173.68V646.379H1175.97V650.242ZM1175.97 643.654H1173.68V639.793H1175.97V643.654ZM1176.06 637.004H1173.78V633.141H1176.06V637.004ZM1176.06 630.777H1173.78V626.914H1176.06V630.777ZM1181.99 669.13H1177.72V659.595H1181.99V669.13Z" fill="#A6A8A7"/>
<path d="M1194.83 614.951V669.888H1233.49V614.951H1194.83ZM1212.62 618.985H1215.8V624.355H1212.62V618.985ZM1212.49 628.232H1215.67V633.601H1212.49V628.232ZM1212.49 637.386H1215.67V642.756H1212.49V637.386ZM1212.49 646.38H1215.67V651.749H1212.49V646.38ZM1201.78 661.134H1198.6V655.764H1201.78V661.134ZM1201.78 651.749H1198.6V646.38H1201.78V651.749ZM1201.78 642.757H1198.6V637.387H1201.78V642.757ZM1201.78 633.6H1198.6V628.231H1201.78V633.6ZM1201.91 624.355H1198.73V618.985H1201.91V624.355ZM1208.67 661.134H1205.49V655.764H1208.67V661.134ZM1208.67 651.749H1205.49V646.38H1208.67V651.749ZM1208.67 642.757H1205.49V637.387H1208.67V642.757ZM1208.67 633.6H1205.49V628.231H1208.67V633.6ZM1208.8 624.355H1205.63V618.985H1208.8V624.355ZM1217.05 669.017H1211.11V655.761H1217.05V669.017ZM1222.56 661.134H1219.38V655.764H1222.56V661.134ZM1222.56 651.749H1219.38V646.38H1222.56V651.749ZM1222.56 642.757H1219.38V637.387H1222.56V642.757ZM1222.56 633.6H1219.38V628.231H1222.56V633.6ZM1222.69 624.355H1219.51V618.985H1222.69V624.355ZM1229.45 661.134H1226.28V655.764H1229.45V661.134ZM1229.45 651.749H1226.28V646.38H1229.45V651.749ZM1229.45 642.757H1226.28V637.387H1229.45V642.757ZM1229.45 633.6H1226.28V628.231H1229.45V633.6ZM1229.59 624.355H1226.41V618.985H1229.59V624.355Z" fill="#D0D1D0"/>
<path d="M1008.59 614.623V669.559H1047.26V614.623H1008.59ZM1026.38 618.656H1029.56V624.026H1026.38V618.656ZM1026.25 627.904H1029.43V633.272H1026.25V627.904ZM1026.25 637.058H1029.43V642.431H1026.25V637.058ZM1026.25 646.054H1029.43V651.421H1026.25V646.054ZM1015.54 660.805H1012.36V655.435H1015.54V660.805ZM1015.54 651.421H1012.36V646.054H1015.54V651.421ZM1015.54 642.431H1012.36V637.058H1015.54V642.431ZM1015.54 633.272H1012.36V627.904H1015.54V633.272ZM1015.67 624.027H1012.5V618.657H1015.67V624.027ZM1022.43 660.805H1019.26V655.435H1022.43V660.805ZM1022.43 651.421H1019.26V646.054H1022.43V651.421ZM1022.43 642.431H1019.26V637.058H1022.43V642.431ZM1022.43 633.272H1019.26V627.904H1022.43V633.272ZM1022.57 624.027H1019.39V618.657H1022.57V624.027ZM1030.81 668.688H1024.87V655.432H1030.81V668.688ZM1036.32 660.805H1033.14V655.435H1036.32V660.805ZM1036.32 651.421H1033.14V646.054H1036.32V651.421ZM1036.32 642.431H1033.14V637.058H1036.32V642.431ZM1036.32 633.272H1033.14V627.904H1036.32V633.272ZM1036.45 624.027H1033.28V618.657H1036.45V624.027ZM1043.21 660.805H1040.04V655.435H1043.21V660.805ZM1043.21 651.421H1040.04V646.054H1043.21V651.421ZM1043.21 642.431H1040.04V637.058H1043.21V642.431ZM1043.21 633.272H1040.04V627.904H1043.21V633.272ZM1043.35 624.027H1040.17V618.657H1043.35V624.027Z" fill="#A6A8A7"/>
<path d="M592 670H15" stroke="#A6A8AB" stroke-miterlimit="10"/>
<path d="M119.324 547.693L119.149 547.383L118.911 547.032L118.642 546.712L118.352 546.42L118.042 546.164L117.712 545.945L117.658 545.912L117.312 545.729L116.954 545.589L116.589 545.492L116.516 545.479L116.145 545.426L115.911 545.424L111.619 546.341L111.433 546.319L111.238 546.309L111.044 546.311L110.875 546.33L110.749 546.361L110.26 546.519L108.882 546.987L107.523 547.447L106.182 547.904L104.86 548.352L103.554 548.794L102.267 549.231L100.996 549.663L99.742 550.089L99.622 550.154L99.152 550.494L98.833 550.942L98.701 551.452L98.687 551.579L98.696 553.717L98.953 555.83L99.459 557.916L99.708 558.415L100.109 558.867L100.615 559.227L100.705 559.284L101.219 559.489L101.31 559.516L101.442 559.539L103.835 559.856L106.201 560.168L106.355 560.184L106.515 560.189L106.674 560.186L106.811 560.175L106.914 560.154L106.957 560.142L106.866 565.57L106.85 566.452C106.85 566.452 106.546 581.291 106.569 584.742C106.585 587.081 106.586 589.423 106.493 591.761C106.452 592.785 106.523 593.953 106.364 595.037L104.771 689H114.296L113.494 565.379L114.603 558.033L115.024 557.916L116.237 557.582L116.742 557.386L116.869 557.334L117.389 556.963L117.806 556.482L118.07 555.937L118.122 555.828L118.692 553.537L118.792 552.803L118.847 552.751L119.095 552.475L119.311 552.165L119.496 551.829L119.521 551.77L119.669 551.412L119.729 551.211L119.324 547.693Z" fill="#828487"/>
<path d="M151.505 507.66C151.371 507.518 151.238 507.374 151.105 507.231C150.212 507.764 149.198 508.162 148.451 508.855C145.944 511.171 143.497 513.551 141.113 515.994C134.732 522.562 128.462 529.243 122.02 535.748C119.503 538.29 117.134 540.735 116.871 544.61C116.861 544.752 116.802 544.927 116.724 545.11C116.373 545.144 116.024 545.24 115.691 545.413C115.443 545.547 115.216 545.717 115.018 545.918C100.57 541.179 85.065 536.07 70.717 531.404C69.582 531.036 68.345 530.993 67.156 530.799L66.914 531.336C67.737 531.973 68.482 532.777 69.398 533.218C72.456 534.699 75.5524 536.1 78.684 537.419C87.088 540.937 95.553 544.309 103.922 547.907C107.191 549.313 110.319 550.616 113.956 549.403C114.089 549.359 114.27 549.351 114.466 549.354C114.896 550.182 115.666 550.707 116.513 550.857C121.235 565.491 126.284 581.21 131.006 595.721C131.38 596.869 132.074 597.909 132.619 598.999L133.189 598.88C133.213 597.83 133.415 596.746 133.228 595.736C132.61 592.356 131.905 588.993 131.114 585.65C128.974 576.688 126.681 567.763 124.625 558.782C123.822 555.274 123.021 551.942 119.914 549.674C119.8 549.59 119.685 549.444 119.571 549.278C119.918 548.558 119.964 547.706 119.653 546.921C129.427 535.137 139.939 522.497 149.609 510.778C150.373 509.851 150.879 508.705 151.505 507.66Z" fill="#828487"/>
<path d="M52.41 529.462L52.236 529.152L51.997 528.801L51.728 528.481L51.438 528.19L51.128 527.933L50.798 527.714L50.745 527.681L50.398 527.498L50.04 527.358L49.675 527.261L49.602 527.248L49.232 527.195L48.997 527.193L44.705 528.111L44.52 528.088L44.324 528.078L44.13 528.08L43.961 528.099L43.836 528.13L43.346 528.288L41.968 528.756L40.61 529.216L39.268 529.673L37.946 530.121L36.64 530.563L35.353 531L34.083 531.432L32.829 531.858L32.708 531.923L32.238 532.263L31.918 532.711L31.787 533.221L31.773 533.348L31.782 535.486L32.04 537.599L32.545 539.685L32.794 540.185L33.195 540.636L33.702 540.996L33.792 541.053L34.305 541.258L34.397 541.285L34.529 541.308L36.921 541.625L39.287 541.937L39.441 541.953L39.601 541.958L39.76 541.955L39.898 541.944L40 541.924L40.043 541.911L39.953 547.339L39.936 548.221C39.936 548.221 39.632 563.06 39.655 566.511C39.671 568.85 39.672 571.192 39.579 573.53C39.539 574.554 39.609 575.722 39.45 576.806L37.857 670.769H47.382L46.58 547.148L47.69 539.802L48.11 539.685L49.323 539.351L49.828 539.155L49.956 539.103L50.475 538.732L50.892 538.251L51.156 537.706L51.208 537.597L51.778 535.306L51.878 534.572L51.933 534.52L52.181 534.244L52.397 533.934L52.582 533.598L52.607 533.539L52.755 533.181L52.815 532.98L52.411 529.462H52.41Z" fill="#D9DADB"/>
<path d="M84.591 489.429C84.4572 489.287 84.3242 489.144 84.192 489C83.299 489.533 82.284 489.931 81.537 490.624C79.0295 492.94 76.5827 495.32 74.199 497.763C67.819 504.331 61.549 511.012 55.106 517.517C52.589 520.059 50.22 522.504 49.958 526.379C49.948 526.521 49.888 526.696 49.81 526.879C49.46 526.913 49.11 527.009 48.777 527.182C48.529 527.316 48.3022 527.486 48.104 527.687C33.657 522.948 18.152 517.839 3.804 513.173C2.669 512.805 1.431 512.762 0.242001 512.568L0 513.105C0.823 513.742 1.568 514.546 2.484 514.987C5.54199 516.468 8.63839 517.869 11.77 519.188C20.174 522.706 28.64 526.078 37.008 529.676C40.278 531.082 43.405 532.385 47.042 531.172C47.175 531.128 47.356 531.12 47.552 531.123C47.7544 531.514 48.0445 531.853 48.3995 532.114C48.7546 532.375 49.1651 532.55 49.599 532.626C54.321 547.26 59.371 562.979 64.092 577.49C64.466 578.638 65.16 579.678 65.705 580.768L66.275 580.649C66.3 579.599 66.501 578.515 66.315 577.505C65.6966 574.125 64.9914 570.762 64.2 567.419C62.06 558.457 59.767 549.532 57.712 540.551C56.909 537.043 56.108 533.711 53.001 531.443C52.886 531.359 52.771 531.213 52.657 531.047C53.005 530.327 53.051 529.475 52.739 528.69C62.513 516.906 73.025 504.266 82.695 492.547C83.459 491.62 83.965 490.474 84.591 489.429Z" fill="#D9DADB"/>
<text fill="#258999" xml:space="preserve" style="white-space: pre" font-family="Roboto" font-size="25" letter-spacing="0em"><tspan x="1105" y="528.709">1.920</tspan></text>
<text fill="#9E9FA0" xml:space="preserve" style="white-space: pre" font-family="Roboto" font-size="25" letter-spacing="0em"><tspan x="1174.98" y="528.709">/</tspan></text>
<text fill="#7CB8C2" xml:space="preserve" style="white-space: pre" font-family="Roboto" font-size="25" letter-spacing="0em"><tspan x="1191.49" y="528.709">28.300</tspan></text>
<text fill="#414143" xml:space="preserve" style="white-space: pre" font-family="Roboto" font-size="26" letter-spacing="0em"><tspan x="1105" y="466.887">TI technische</tspan><tspan x="1105" y="496.887">dienstverlening en R&#38;D</tspan></text>
<text fill="#258999" xml:space="preserve" style="white-space: pre" font-family="Roboto" font-size="25" letter-spacing="0em"><tspan x="1105" y="374.45">1.060</tspan></text>
<text fill="#9E9FA0" xml:space="preserve" style="white-space: pre" font-family="Roboto" font-size="25" letter-spacing="0em"><tspan x="1173.95" y="374.45">/</tspan></text>
<text fill="#7CB8C2" xml:space="preserve" style="white-space: pre" font-family="Roboto" font-size="25" letter-spacing="0em"><tspan x="1190.45" y="374.45">38.830</tspan></text>
<text fill="#414143" xml:space="preserve" style="white-space: pre" font-family="Roboto" font-size="26" letter-spacing="0em"><tspan x="1105" y="344.887">TI maken</tspan></text>
<text fill="#258999" xml:space="preserve" style="white-space: pre" font-family="Roboto" font-size="25" letter-spacing="0em"><tspan x="1105" y="163.953">6.060</tspan></text>
<text fill="#9E9FA0" xml:space="preserve" style="white-space: pre" font-family="Roboto" font-size="25" letter-spacing="0em"><tspan x="1174" y="163.953">/</tspan></text>
<text fill="#7CB8C2" xml:space="preserve" style="white-space: pre" font-family="Roboto" font-size="25" letter-spacing="0em"><tspan x="1190.51" y="163.953">94.150</tspan></text>
<text fill="#414143" xml:space="preserve" style="white-space: pre" font-family="Roboto" font-size="26" letter-spacing="0em"><tspan x="1105" y="134.887">TI handel</tspan></text>
<text fill="#7CB8C2" xml:space="preserve" style="white-space: pre" font-family="Roboto" font-size="25" letter-spacing="0em"><tspan x="167" y="506.878">34.620</tspan></text>
<text fill="#9E9FA0" xml:space="preserve" style="white-space: pre" font-family="Roboto" font-size="25" letter-spacing="0em"><tspan x="249.945" y="506.878">/</tspan></text>
<text fill="#258999" xml:space="preserve" style="white-space: pre" font-family="Roboto" font-size="25" letter-spacing="0em"><tspan x="266.449" y="506.878">2.060</tspan></text>
<text fill="#414143" xml:space="preserve" style="white-space: pre" font-family="Roboto" font-size="26" letter-spacing="0em"><tspan x="197" y="478.887">TI reparatie</tspan></text>
<text fill="#7CB8C2" xml:space="preserve" style="white-space: pre" font-family="Roboto" font-size="25" letter-spacing="0em"><tspan x="189" y="385.953">35.430  </tspan></text>
<text fill="#9E9FA0" xml:space="preserve" style="white-space: pre" font-family="Roboto" font-size="25" letter-spacing="0em"><tspan x="269.945" y="385.953">/</tspan></text>
<text fill="#258999" xml:space="preserve" style="white-space: pre" font-family="Roboto" font-size="25" letter-spacing="0em"><tspan x="286.449" y="385.953">400</tspan></text>
<text fill="#414143" xml:space="preserve" style="white-space: pre" font-family="Roboto" font-size="26" letter-spacing="0em"><tspan x="214" y="356.887">TI energie</tspan></text>
<text fill="#7CB8C2" xml:space="preserve" style="white-space: pre" font-family="Roboto" font-size="25" letter-spacing="0em"><tspan x="187" y="269.183">27.500</tspan></text>
<text fill="#9E9FA0" xml:space="preserve" style="white-space: pre" font-family="Roboto" font-size="25" letter-spacing="0em"><tspan x="269.315" y="269.183">/ </tspan></text>
<text fill="#258999" xml:space="preserve" style="white-space: pre" font-family="Roboto" font-size="25" letter-spacing="0em"><tspan x="285.819" y="269.183">440</tspan></text>
<text fill="#414143" xml:space="preserve" style="white-space: pre" font-family="Roboto" font-size="26" letter-spacing="0em"><tspan x="206" y="239.887">TI telecom</tspan></text>
<text fill="#7CB8C2" xml:space="preserve" style="white-space: pre" font-family="Roboto" font-size="25" letter-spacing="0em"><tspan x="163" y="142.953">98.850   </tspan></text>
<text fill="#9E9FA0" xml:space="preserve" style="white-space: pre" font-family="Roboto" font-size="25" letter-spacing="0em"><tspan x="245.983" y="142.953">/</tspan></text>
<text fill="#258999" xml:space="preserve" style="white-space: pre" font-family="Roboto" font-size="25" letter-spacing="0em"><tspan x="262.487" y="142.953">8.170</tspan></text>
<text fill="#414143" xml:space="preserve" style="white-space: pre" font-family="Roboto" font-size="26" letter-spacing="0em"><tspan x="119" y="111.887">TI advies/ontwerp</tspan></text>
<text fill="#258999" xml:space="preserve" style="white-space: pre" font-family="Roboto" font-size="24" letter-spacing="0em"><tspan x="197" y="53.5191">totaal: 29.070 </tspan></text>
<text fill="#258999" xml:space="preserve" style="white-space: pre" font-family="Roboto" font-size="26" font-weight="bold" letter-spacing="0em"><tspan x="197" y="23.8867">Bedrijven</tspan></text>
<text fill="#7CB8C2" xml:space="preserve" style="white-space: pre" font-family="Roboto" font-size="24" letter-spacing="0em"><tspan x="15" y="53.5191">totaal: 429.450 </tspan></text>
<text fill="#7CB8C2" xml:space="preserve" style="white-space: pre" font-family="Roboto" font-size="26" font-weight="bold" letter-spacing="0em"><tspan x="15" y="23.8867">Werknemers</tspan></text>
<path d="M852.028 101.179L867.483 89.149C870.072 87.145 872.608 85.136 875.239 83.137C876.575 82.171 878.332 81.483 880.067 81.83C881.784 82.144 883.197 83.21 884.487 84.144C889.796 87.923 895.23 91.526 900.691 95.09C902.059 95.992 903.418 96.844 904.797 97.783C905.474 98.279 906.123 98.862 906.603 99.604C907.081 100.348 907.325 101.247 907.314 102.116C907.32 102.988 907.135 103.827 906.893 104.626L906.2 106.969L904.861 111.67C903.112 117.949 901.477 124.266 899.658 130.54L898.967 132.89C898.729 133.676 898.524 134.413 898.459 135.18C898.281 136.707 898.833 138.148 899.902 139.274C900.946 140.385 902.306 141.404 903.499 142.498C904.728 143.575 905.947 144.664 907.151 145.77C911.978 150.18 916.613 154.803 921.042 159.618C923.258 162.023 925.42 164.483 927.52 166.99C928.484 168.166 929.747 168.894 931.198 168.835C932.635 168.822 934.179 168.211 935.76 167.789L954.544 162.345L959.239 160.984C960.031 160.749 960.912 160.497 961.837 160.437C962.76 160.358 963.782 160.501 964.683 160.932C966.514 161.801 967.488 163.514 968.376 164.793L971.131 168.826L982.169 184.989C982.657 185.733 983.115 186.552 983.376 187.514C983.638 188.466 983.673 189.563 983.391 190.533C983.127 191.509 982.656 192.352 982.135 193.089L980.61 195.087L974.644 202.841L968.678 210.595L965.695 214.472C964.74 215.672 964.067 216.86 964.025 218.083C963.957 219.32 964.449 220.574 965.234 221.972C966.004 223.422 966.76 224.88 967.496 226.348C968.97 229.283 970.376 232.251 971.718 235.248C974.401 241.242 976.824 247.352 979.01 253.542L979.819 255.867C980.078 256.626 980.321 257.248 980.643 257.806C981.292 258.885 982.054 259.394 983.38 259.625L992.991 260.577L1002.71 261.605L1007.56 262.065L1009.98 262.265C1010.36 262.294 1010.82 262.33 1011.3 262.393C1011.78 262.462 1012.27 262.547 1012.78 262.699C1013.78 262.973 1014.9 263.54 1015.74 264.437C1016.57 265.328 1017.05 266.376 1017.35 267.323C1017.49 267.794 1017.61 268.278 1017.7 268.713L1017.94 269.91L1018.42 272.302C1019.08 275.49 1019.75 278.67 1020.45 281.841C1021.15 285.011 1021.89 288.171 1022.67 291.316C1022.87 292.132 1023.06 292.807 1023.27 293.793C1023.45 294.734 1023.56 295.748 1023.46 296.84C1023.37 297.925 1023.01 299.09 1022.41 300.07C1021.81 301.058 1021.02 301.831 1020.24 302.441C1019.45 303.051 1018.62 303.534 1017.86 303.949L1015.74 305.108C1014.33 305.891 1012.92 306.693 1011.52 307.506L1003.11 312.471L998.855 314.947L997.782 315.557L997.245 315.861L996.801 316.121C996.231 316.474 995.739 316.855 995.363 317.255C994.625 318.051 994.314 318.923 994.271 320.187C994.252 320.807 994.325 321.449 994.409 322.328L994.64 324.789C995.223 331.355 995.511 337.946 995.528 344.536C995.529 351.126 995.267 357.715 994.739 364.281C994.707 364.747 994.685 364.951 994.701 365.197C994.708 365.434 994.741 365.622 994.79 365.761C994.875 366.04 995.001 366.209 995.381 366.539C995.775 366.857 996.368 367.2 997.088 367.596L999.222 368.785L1007.76 373.541L1016.3 378.297L1020.56 380.675L1022.7 381.864L1023.86 382.518C1024.29 382.774 1024.72 383.059 1025.15 383.392C1026 384.061 1026.88 385.001 1027.43 386.208C1027.98 387.412 1028.13 388.71 1028.06 389.784C1028.02 390.852 1027.77 391.903 1027.61 392.622L1027.09 395C1026.42 398.173 1025.76 401.349 1025.14 404.533C1024.52 407.716 1023.93 410.906 1023.38 414.101L1022.96 416.528C1022.79 417.482 1022.53 418.5 1022.01 419.551C1021.49 420.591 1020.64 421.664 1019.59 422.358C1018.54 423.064 1017.44 423.434 1016.45 423.657C1015.95 423.767 1015.46 423.846 1014.99 423.901L1013.75 424.042L1011.34 424.317L1006.51 424.909L996.814 426.175C993.576 426.599 990.329 427.019 987.069 427.398L985.846 427.539C985.435 427.588 985.133 427.624 984.804 427.685C984.161 427.796 983.642 427.966 983.284 428.172C982.916 428.371 982.677 428.616 982.406 429.011C982.142 429.403 981.902 429.961 981.706 430.596C979.764 436.895 977.498 443.109 974.981 449.203C972.46 455.299 969.672 461.281 966.641 467.133L966.072 468.23C965.899 468.569 965.766 468.836 965.643 469.133C965.399 469.71 965.265 470.242 965.242 470.707C965.167 471.602 965.551 472.501 966.373 473.569L972.372 481.273L978.379 488.986L981.374 492.85L982.872 494.782L983.685 495.843C983.966 496.242 984.247 496.644 984.494 497.101C984.995 497.992 985.416 499.037 985.579 500.19C985.75 501.339 985.627 502.544 985.309 503.583C984.994 504.631 984.523 505.532 984.018 506.342C983.77 506.752 983.491 507.13 983.233 507.494L982.513 508.473C980.599 511.088 978.718 513.727 976.881 516.395C975.041 519.062 973.244 521.757 971.487 524.478L970.179 526.525C969.727 527.236 969.157 528.086 968.437 528.821C967.717 529.568 966.772 530.275 965.662 530.694C964.553 531.128 963.374 531.209 962.345 531.124C961.31 531.041 960.363 530.802 959.507 530.543L957.181 529.84L952.506 528.476L943.095 525.818C939.951 524.927 936.802 524.018 933.663 523.05C932.17 522.562 930.979 522.371 930.028 522.688C929.549 522.835 929.079 523.113 928.605 523.531C928.127 523.942 927.705 524.45 927.136 525.115C922.859 530.122 918.342 534.918 913.618 539.496C911.255 541.784 908.843 544.02 906.38 546.197C905.147 547.284 903.905 548.361 902.651 549.422L901.708 550.215L900.821 550.971C900.295 551.441 899.841 551.939 899.505 552.457C898.818 553.484 898.645 554.617 898.855 555.972C898.958 556.651 899.152 557.302 899.397 558.129L900.081 560.492C900.977 563.644 901.83 566.8 902.678 569.95C903.526 573.099 904.374 576.241 905.262 579.364L905.939 581.702C906.155 582.434 906.446 583.373 906.554 584.333C906.678 585.296 906.614 586.398 906.244 587.435C905.873 588.476 905.195 589.344 904.486 590.011C903.796 590.68 902.942 591.199 902.302 591.63L900.272 592.982L896.212 595.687L888.09 601.097L884.028 603.802L881.997 605.155C881.335 605.594 880.542 606.165 879.667 606.534C878.789 606.923 877.756 607.179 876.7 607.134C875.641 607.095 874.651 606.737 873.816 606.293C872.982 605.853 872.239 605.272 871.605 604.756L869.71 603.225C864.64 599.158 859.44 595.222 854.306 591.173L852.384 589.65C851.753 589.153 851.081 588.584 850.521 588.189C849.333 587.35 848.081 586.971 846.778 587.26C846.123 587.391 845.464 587.655 844.803 588.009L842.623 589.148C841.164 589.896 839.698 590.631 838.222 591.346C832.32 594.206 826.286 596.783 820.161 599.107C817.104 600.268 813.999 601.369 810.92 602.405C809.488 602.893 808.28 603.643 807.666 604.821C807.353 605.41 807.147 606.09 807.04 606.821C806.94 607.537 806.863 608.419 806.771 609.21L804.504 628.65L803.994 633.505L803.748 635.967C803.638 636.839 803.424 637.756 802.945 638.627C802.473 639.501 801.665 640.231 800.807 640.646C799.956 641.086 799.053 641.282 798.235 641.441L793.428 642.355C787.019 643.572 780.65 644.824 774.364 646.5C772.717 646.913 770.855 647.162 769.038 646.536C767.212 645.921 765.882 644.481 764.955 643.06C764.009 641.587 763.336 640.152 762.526 638.735L760.128 634.487L755.208 626.033L752.766 621.782L751.568 619.65C751.197 618.988 750.766 618.378 750.261 617.871C749.258 616.844 747.924 616.317 746.439 616.237C745.689 616.187 744.957 616.247 744.141 616.328L741.696 616.561C738.434 616.854 735.166 617.071 731.894 617.214C725.351 617.501 718.796 617.498 712.254 617.225C709.006 617.098 705.663 616.861 702.504 616.636C701.015 616.585 699.712 617.007 698.751 618.033C698.267 618.543 697.848 619.163 697.473 619.832L696.284 621.961L686.756 639.046L684.374 643.317L683.183 645.452C682.778 646.193 682.323 646.964 681.725 647.668C681.139 648.376 680.352 649.02 679.429 649.41C678.507 649.814 677.508 649.909 676.594 649.862C675.682 649.822 674.778 649.614 674.015 649.443L671.631 648.925C665.268 647.565 658.869 646.361 652.453 645.236L650.046 644.819C649.233 644.683 648.307 644.493 647.435 644.108C646.56 643.726 645.681 643.087 645.097 642.242C644.502 641.403 644.184 640.465 644.005 639.578C643.825 638.657 643.759 637.864 643.644 637.059L643.331 634.633L642.704 629.781L640.197 610.374C639.98 608.7 639.867 607.25 639.188 606.154C638.57 605.067 637.406 604.384 635.995 603.927C632.906 602.959 629.762 601.93 626.679 600.838C620.494 598.653 614.394 596.208 608.426 593.459C605.443 592.084 602.492 590.634 599.582 589.103C598.179 588.337 596.909 587.831 595.628 587.818C594.377 587.798 593.143 588.318 591.927 589.155C590.758 589.978 589.444 591.124 588.171 592.113L584.311 595.147L576.548 601.12C573.962 603.105 571.384 605.091 568.833 607.103C568.177 607.603 567.64 608.099 566.738 608.686C565.894 609.225 564.733 609.674 563.503 609.621C562.281 609.56 561.257 609.095 560.444 608.617C559.595 608.097 559.001 607.671 558.302 607.215L542.039 596.392L537.962 593.677C537.195 593.17 536.417 592.57 535.723 591.752C535.023 590.953 534.474 589.853 534.281 588.735C533.886 586.487 534.675 584.543 535.071 583.112L536.418 578.432L541.59 559.56L542.909 554.912C543.066 554.273 543.121 553.702 543.045 553.266C542.979 552.826 542.803 552.454 542.447 552.006C542.094 551.551 541.622 551.156 540.954 550.58L539.097 548.963C537.862 547.881 536.637 546.787 535.422 545.681C530.559 541.261 525.84 536.664 521.358 531.829C520.239 530.619 519.13 529.399 518.042 528.159L516.418 526.292L515.63 525.379C515.423 525.145 515.213 524.931 515.002 524.756C514.143 524.057 513.402 523.863 512.132 524.033C510.967 524.196 509.251 524.8 507.703 525.208L488.87 530.493L484.199 531.864L479.456 533.303C478.54 533.544 477.556 533.737 476.464 533.749C475.382 533.766 474.168 533.552 473.091 533.041C472.009 532.537 471.125 531.797 470.434 531.044C469.741 530.292 469.191 529.486 468.716 528.739C465.273 523.258 461.651 517.883 457.904 512.588L455.025 508.541C454.487 507.722 453.974 506.785 453.656 505.65C453.332 504.52 453.31 503.173 453.61 502.003C454.21 499.669 455.704 498.102 456.597 496.938L459.609 493.111L471.589 477.63L474.641 473.774L475.391 472.832C475.607 472.561 475.796 472.292 475.976 472.027C476.319 471.497 476.567 470.992 476.686 470.536C476.807 470.077 476.831 469.652 476.761 469.153C476.691 468.658 476.511 468.092 476.247 467.495C476.121 467.191 475.964 466.907 475.794 466.567L475.22 465.472L474.085 463.274C471.094 457.392 468.35 451.361 465.994 445.159C465.404 443.609 464.839 442.048 464.302 440.477L463.516 438.113L463.138 436.951C463.026 436.63 462.92 436.304 462.79 436.014C462.287 434.792 461.659 433.977 460.827 433.459C459.993 432.925 458.753 432.609 457.318 432.469L452.47 432.031L447.574 431.533L437.833 430.446C434.595 430.08 431.367 429.722 428.143 429.405L425.726 429.175L425.097 429.114C424.844 429.082 424.606 429.066 424.341 429.018C423.825 428.935 423.289 428.828 422.717 428.635C421.603 428.292 420.273 427.504 419.437 426.389C418.568 425.286 418.202 424.151 417.936 423.157L413.852 403.931L412.841 399.162L412.336 396.777C412.139 395.897 411.931 394.738 412.022 393.528C412.11 392.303 412.541 390.919 413.305 389.867C414.05 388.795 414.959 388.045 415.814 387.474C416.029 387.33 416.246 387.188 416.458 387.067L417.048 386.724L418.111 386.118L420.237 384.905L437.243 375.204L445.746 370.354C447.052 369.635 447.455 369.18 447.684 368.515C447.793 368.152 447.865 367.652 447.849 367.027C447.841 366.702 447.821 366.414 447.788 366.009L447.685 364.776C447.141 358.2 446.858 351.599 446.847 344.996C446.841 341.695 446.904 338.393 447.035 335.093C447.098 333.443 447.181 331.794 447.283 330.146L447.447 327.674L447.536 326.439C447.562 326.043 447.574 325.809 447.568 325.518C447.56 324.966 447.46 324.561 447.327 324.251C447.194 323.941 446.987 323.679 446.632 323.359C446.442 323.205 446.238 323.042 445.983 322.885C445.729 322.716 445.493 322.593 445.107 322.374L442.972 321.185L434.433 316.429L425.894 311.673L421.624 309.295L419.489 308.106C418.674 307.662 417.72 307.094 416.838 306.272C415.949 305.454 415.107 304.248 414.708 302.93C414.311 301.615 414.301 300.359 414.412 299.292C414.472 298.757 414.558 298.253 414.66 297.768L414.919 296.569L415.428 294.186C416.101 291.009 416.763 287.834 417.377 284.656C417.996 281.478 418.573 278.297 419.099 275.113L419.293 273.919L419.389 273.322L419.527 272.578C419.741 271.573 420.062 270.487 420.69 269.383C421.297 268.279 422.323 267.219 423.445 266.565C424.566 265.893 425.69 265.561 426.699 265.355C427.205 265.255 427.698 265.18 428.171 265.129L429.417 264.997L431.83 264.74L436.663 264.186L446.366 263.003C449.61 262.608 452.865 262.221 456.135 261.875L457.361 261.747L457.878 261.687C458.035 261.672 458.166 261.642 458.304 261.619C458.855 261.52 459.209 261.362 459.43 261.216C459.826 260.979 460.284 260.236 460.722 258.733C462.698 252.438 464.908 246.205 467.404 240.077C469.901 233.95 472.684 227.927 475.792 222.065L476.276 221.114C476.395 220.832 476.528 220.549 476.609 220.284C476.793 219.747 476.886 219.265 476.892 218.834C476.913 218.001 476.594 217.131 475.868 216.046C475.683 215.781 475.491 215.511 475.274 215.238L474.529 214.297L473 212.365L469.978 208.485C465.973 203.303 462.056 198.096 458.055 192.995L456.542 191.072C455.933 190.278 455.28 189.361 454.833 188.046C454.617 187.39 454.48 186.64 454.485 185.877C454.485 185.109 454.643 184.373 454.862 183.728C455.292 182.438 456.061 181.449 456.434 180.88L461.914 172.796L467.395 164.712L470.135 160.67L471.506 158.649C472.026 157.87 472.866 156.718 474.19 155.978C475.509 155.175 477.17 155.025 478.314 155.162C479.514 155.284 480.405 155.565 481.232 155.791L485.941 157.127L495.359 159.799L504.777 162.471L509.486 163.807L511.835 164.473C512.44 164.651 512.97 164.731 513.337 164.724C513.698 164.703 513.902 164.646 514.227 164.456C514.547 164.262 514.958 163.891 515.373 163.412C516.419 162.198 517.526 160.918 518.624 159.696C520.831 157.232 523.097 154.821 525.416 152.464C530.05 147.747 534.919 143.27 539.954 139C540.467 138.563 540.881 138.141 541.165 137.748C541.456 137.351 541.572 137.036 541.647 136.668C541.723 136.306 541.702 135.812 541.596 135.215C541.493 134.621 541.295 133.966 541.055 133.133C540.142 129.981 539.266 126.825 538.403 123.674C536.675 117.371 535 111.082 533.184 104.859L532.837 103.659C532.706 103.197 532.591 102.711 532.499 102.201C532.322 101.183 532.247 100.009 532.502 98.761C532.737 97.509 533.403 96.302 534.165 95.416C534.934 94.516 535.776 93.873 536.593 93.337C539.4 91.551 542.077 89.83 544.801 88.031C547.511 86.247 550.208 84.441 552.887 82.608L556.896 79.842L557.895 79.145C558.284 78.877 558.713 78.599 559.167 78.347C560.072 77.843 561.195 77.404 562.466 77.287C563.742 77.149 565.053 77.461 566.086 77.921C567.134 78.383 567.962 78.988 568.695 79.569L572.538 82.597L580.224 88.652L587.91 94.707L591.753 97.735L593.619 99.202C594.175 99.625 594.723 99.972 595.23 100.197C596.234 100.624 597.069 100.626 598.282 100.193C598.576 100.079 598.877 99.955 599.184 99.801L600.253 99.266L602.465 98.163C605.423 96.709 608.414 95.323 611.433 94.005C617.474 91.375 623.629 89.016 629.869 86.925L632.196 86.157C632.841 85.945 633.403 85.679 633.83 85.371C634.259 85.06 634.546 84.715 634.784 84.244C635.015 83.77 635.183 83.169 635.281 82.488L636.401 72.847L638.651 53.403L638.932 50.973L639.077 49.733C639.126 49.281 639.209 48.807 639.323 48.323C639.552 47.365 640.014 46.247 640.892 45.378C641.772 44.517 642.837 44.073 643.776 43.827C644.261 43.697 644.723 43.617 645.097 43.538L646.294 43.296L648.687 42.812L653.474 41.844L663.049 39.908L667.837 38.94L670.231 38.456L671.428 38.214C671.883 38.123 672.365 38.039 672.871 38.017C673.869 37.952 675.031 38.136 676.012 38.697C676.997 39.251 677.694 40.052 678.23 40.826C678.772 41.641 679.123 42.351 679.53 43.053L680.726 45.186L685.511 53.719L695.079 70.781C695.779 72.057 696.701 72.837 697.974 72.972C698.295 73.005 698.631 73.012 698.979 72.988L700.197 72.9L702.648 72.73C705.917 72.519 709.19 72.37 712.464 72.283C719.012 72.111 725.565 72.193 732.103 72.52C733.738 72.599 735.371 72.7 737.004 72.812L741.838 73.176C742.525 73.196 743.102 73.031 743.584 72.656C744.069 72.27 744.476 71.665 744.866 70.975L747.284 66.726L756.963 49.727L759.377 45.474C760.182 44.103 760.908 42.483 762.322 41.308C763.028 40.731 763.911 40.326 764.812 40.177C765.715 40.033 766.606 40.101 767.451 40.249L772.251 41.305C778.617 42.688 785.017 43.919 791.432 45.083C792.985 45.39 794.771 45.525 796.26 46.614C796.998 47.143 797.554 47.917 797.882 48.737C798.224 49.556 798.353 50.419 798.443 51.246L799.544 60.968L801.776 80.409C801.937 82.001 802.221 83.613 803.219 84.77C803.707 85.346 804.351 85.781 805.053 86.113C805.753 86.448 806.523 86.656 807.31 86.906C810.431 87.872 813.529 88.916 816.599 90.033C822.739 92.267 828.771 94.795 834.678 97.583C837.631 98.97 840.556 100.452 843.443 101.939C844.883 102.629 846.418 103.219 847.981 103.207C849.559 103.208 850.973 102.423 852.028 101.179ZM852.422 101.594C851.902 102.194 851.232 102.784 850.471 103.176C849.709 103.577 848.844 103.781 847.99 103.791C846.265 103.805 844.664 103.179 843.181 102.477C840.264 100.986 837.366 99.529 834.41 98.151C828.511 95.389 822.49 92.887 816.364 90.679C813.301 89.575 810.211 88.545 807.098 87.592C805.577 87.148 803.818 86.612 802.66 85.245C801.488 83.884 801.2 82.092 801.028 80.484L798.7 61.053L797.521 51.339C797.369 49.776 796.906 48.228 795.688 47.389C794.492 46.51 792.87 46.359 791.256 46.068C784.825 44.955 778.403 43.772 772.008 42.436L767.244 41.427C766.486 41.299 765.726 41.255 765.016 41.375C764.309 41.503 763.666 41.803 763.109 42.26C761.981 43.202 761.312 44.643 760.501 46.077L758.13 50.359L748.672 67.5L746.308 71.788C745.903 72.513 745.426 73.32 744.64 73.971C743.849 74.629 742.758 74.923 741.82 74.894L736.893 74.592C735.27 74.502 733.647 74.423 732.023 74.367C725.528 74.129 719.025 74.135 712.534 74.392C709.288 74.522 706.046 74.713 702.808 74.966L700.381 75.167L699.16 75.272C698.695 75.311 698.213 75.312 697.722 75.266C696.742 75.166 695.701 74.801 694.888 74.165C694.065 73.54 693.475 72.747 693.015 71.956L683.211 55.01L678.311 46.539L677.086 44.421C676.669 43.716 676.273 42.973 675.899 42.437C675.072 41.283 674.284 40.819 673.038 40.916C672.729 40.932 672.406 40.994 672.063 41.066L670.866 41.326L668.472 41.847L663.684 42.889L654.107 44.973L644.662 47.044C643.348 47.447 642.957 47.859 642.639 49.115C642.573 49.426 642.516 49.757 642.483 50.116L642.361 51.308L642.115 53.741L640.152 73.208L639.157 83.021C639.033 83.954 638.809 84.955 638.341 85.957C637.877 86.956 637.099 87.912 636.212 88.563C635.325 89.224 634.388 89.648 633.491 89.96L631.184 90.759C625.085 92.903 619.08 95.306 613.198 97.971C610.258 99.306 607.349 100.707 604.473 102.173L602.323 103.285L601.213 103.861C600.794 104.078 600.344 104.276 599.879 104.458C598.945 104.815 597.87 105.083 596.718 105.097C595.569 105.118 594.394 104.856 593.408 104.43C592.418 104.004 591.585 103.462 590.837 102.909L588.84 101.374L584.964 98.388L577.213 92.417L569.462 86.446L565.586 83.46C565.04 83.034 564.523 82.689 564.07 82.503C563.612 82.321 563.28 82.249 562.927 82.298C562.573 82.339 562.132 82.475 561.619 82.772C561.361 82.92 561.108 83.087 560.826 83.284L559.826 83.998L555.812 86.833C553.127 88.711 550.426 90.568 547.705 92.397C544.998 94.212 542.2 96.038 539.515 97.771C538.971 98.129 538.52 98.508 538.234 98.855C537.95 99.211 537.8 99.481 537.738 99.838C537.67 100.192 537.672 100.675 537.78 101.26C537.835 101.552 537.908 101.86 538.003 102.182L538.343 103.33C540.224 109.619 541.95 115.926 543.714 122.193C544.595 125.327 545.486 128.451 546.408 131.558C546.826 133.039 547.585 135.112 547.177 137.617C546.972 138.855 546.429 140.077 545.757 140.997C545.092 141.933 544.338 142.666 543.616 143.291C538.731 147.493 534.02 151.891 529.517 156.487C527.268 158.787 525.072 161.138 522.935 163.539C521.857 164.747 520.834 165.937 519.755 167.197C519.102 167.945 518.332 168.728 517.263 169.395C516.202 170.071 514.797 170.499 513.524 170.526C512.257 170.557 511.167 170.326 510.207 170.054L507.847 169.393L503.139 168.073L493.723 165.433L484.306 162.793L479.598 161.473C478.857 161.263 478.172 161.084 477.746 161.054C477.281 161.022 477.23 161.063 477.144 161.114C477.094 161.133 477.008 161.212 476.894 161.329C476.837 161.408 476.774 161.452 476.709 161.559L476.456 161.92L475.087 163.953L472.349 168.018L466.873 176.148L461.397 184.278C460.864 185.058 460.643 185.398 460.562 185.669C460.487 185.935 460.499 185.904 460.558 186.15C460.63 186.388 460.898 186.848 461.287 187.337L462.806 189.254C466.871 194.406 470.814 199.614 474.802 204.742L477.804 208.572L479.316 210.472L480.093 211.447C480.384 211.812 480.669 212.204 480.948 212.61C481.5 213.434 482.029 214.362 482.422 215.438C482.817 216.507 483.046 217.735 483.021 218.933C482.984 221.332 482.024 223.44 481.204 224.937C478.198 230.6 475.498 236.434 473.069 242.387C470.641 248.341 468.484 254.413 466.55 260.564C466.436 260.913 466.283 261.42 466.098 261.895C465.919 262.373 465.696 262.875 465.419 263.385C464.888 264.395 463.996 265.506 462.861 266.269C460.539 267.819 458.144 267.757 456.771 267.949C453.553 268.287 450.33 268.669 447.099 269.061L437.376 270.242L432.488 270.8L430.036 271.06L428.85 271.185C428.512 271.221 428.198 271.271 427.904 271.328C427.318 271.444 426.864 271.613 426.586 271.784C426.304 271.959 426.149 272.102 425.964 272.426C425.783 272.741 425.609 273.23 425.487 273.817L425.401 274.275L425.303 274.885L425.105 276.105C424.567 279.356 423.977 282.594 423.347 285.818C422.719 289.043 422.057 292.256 421.364 295.457L420.842 297.857L420.581 299.048C420.515 299.362 420.464 299.661 420.431 299.937C420.37 300.488 420.412 300.893 420.483 301.145C420.567 301.388 420.67 301.576 420.969 301.871C421.283 302.164 421.728 302.46 422.342 302.796L424.477 303.995L428.747 306.394L437.287 311.192L445.827 315.99L447.962 317.189C448.284 317.374 448.77 317.634 449.194 317.918C449.63 318.194 450.074 318.529 450.508 318.899C451.373 319.653 452.223 320.688 452.73 321.882C453.246 323.07 453.441 324.3 453.457 325.377C453.471 325.902 453.435 326.483 453.404 326.9L453.313 328.104L453.145 330.513C453.04 332.12 452.952 333.728 452.885 335.337C452.745 338.555 452.672 341.776 452.666 344.997C452.653 351.44 452.905 357.885 453.413 364.313C453.492 365.761 453.89 367.883 453.132 370.284C452.749 371.478 452.005 372.663 451.128 373.493C450.694 373.912 450.237 374.285 449.784 374.582C449.347 374.889 448.821 375.171 448.511 375.351L439.998 380.165L422.972 389.793L420.844 390.997L419.78 391.599L419.312 391.869C419.169 391.948 419.046 392.032 418.921 392.113C418.419 392.44 418.069 392.773 417.884 393.045C417.684 393.317 417.623 393.551 417.571 393.944C417.544 394.367 417.599 394.835 417.754 395.544L418.254 397.947L419.254 402.754L423.228 421.828C423.373 422.401 423.561 422.846 423.72 423.022C423.871 423.214 424.001 423.318 424.431 423.471C424.63 423.543 424.897 423.6 425.185 423.647C425.321 423.676 425.49 423.685 425.642 423.707L426.23 423.766L428.683 424.009C431.95 424.342 435.203 424.715 438.447 425.094L448.15 426.213L452.987 426.723L457.883 427.184C459.673 427.382 461.718 427.766 463.659 428.984C464.615 429.585 465.472 430.391 466.134 431.266C466.81 432.143 467.278 433.071 467.658 433.978C467.857 434.435 468.004 434.884 468.156 435.335L468.53 436.501L469.279 438.781C469.792 440.297 470.331 441.806 470.896 443.306C473.151 449.31 475.794 455.182 478.694 460.938L479.796 463.091L480.354 464.164C480.549 464.553 480.779 464.987 480.965 465.438C481.352 466.334 481.69 467.33 481.844 468.452C482.003 469.567 481.931 470.803 481.612 471.915C481.299 473.035 480.784 473.995 480.237 474.828C479.959 475.237 479.673 475.632 479.379 475.997L478.599 476.963L475.553 480.759L463.48 496.153L460.415 499.995L459.643 500.952C459.404 501.256 459.21 501.497 459.03 501.766C458.674 502.288 458.42 502.785 458.32 503.193C458.226 503.604 458.216 503.939 458.329 504.382C458.449 504.821 458.703 505.346 459.057 505.888L461.826 509.83C465.58 515.209 469.217 520.68 472.677 526.269C473.441 527.52 474.271 528.492 475.064 528.845C475.462 529.034 475.891 529.127 476.436 529.127C476.976 529.127 477.609 529.022 478.268 528.852L482.896 527.478L487.623 526.124L506.507 520.957L508.855 520.301L510.112 519.96C510.572 519.853 511.04 519.751 511.545 519.688C512.537 519.551 513.672 519.542 514.81 519.842C515.953 520.121 516.995 520.739 517.81 521.433C518.224 521.782 518.582 522.155 518.912 522.535L519.716 523.479L521.291 525.314C522.347 526.533 523.423 527.734 524.512 528.925C528.861 533.694 533.445 538.261 538.194 542.66C539.38 543.761 540.577 544.851 541.785 545.931L543.602 547.545C544.159 548.042 544.954 548.693 545.598 549.536C546.256 550.357 546.831 551.502 546.981 552.683C547.153 553.865 546.979 554.945 546.743 555.882L545.346 560.634L539.987 579.457L538.581 584.167L538.22 585.343C538.104 585.735 538.01 586.033 537.943 586.367C537.805 587.014 537.751 587.619 537.843 588.106C537.932 588.596 538.115 589.015 538.482 589.45C538.838 589.883 539.349 590.31 539.938 590.705L543.978 593.453L560.19 604.474C560.851 604.917 561.587 605.439 562.127 605.773C562.706 606.128 563.231 606.318 563.647 606.344C564.057 606.36 564.5 606.237 565.031 605.913C565.505 605.623 566.202 605.042 566.843 604.555C569.433 602.552 572.043 600.583 574.651 598.622L582.448 592.729L586.307 589.749C587.619 588.751 588.763 587.743 590.267 586.694C591.722 585.7 593.624 584.839 595.667 584.891C597.679 584.918 599.501 585.759 600.936 586.554C603.786 588.085 606.68 589.538 609.609 590.918C615.468 593.678 621.469 596.144 627.566 598.357C630.622 599.469 633.67 600.496 636.797 601.506C637.643 601.79 638.502 602.162 639.31 602.712C640.121 603.25 640.848 604.014 641.348 604.881C642.38 606.627 642.438 608.56 642.644 610.089L644.985 629.519L645.57 634.377L645.863 636.806C645.968 637.616 646.041 638.451 646.172 639.132C646.439 640.583 647.094 641.588 648.321 642.124C648.943 642.402 649.623 642.56 650.416 642.699L652.827 643.132C659.255 644.291 665.674 645.531 672.063 646.929L674.457 647.462C675.283 647.652 675.977 647.809 676.696 647.847C678.133 647.951 679.299 647.469 680.212 646.371C680.674 645.832 681.062 645.196 681.441 644.509L682.643 642.378L685.047 638.115L694.665 621.064L695.872 618.927C696.299 618.178 696.794 617.432 697.435 616.759C698.083 616.098 698.9 615.514 699.812 615.206C700.718 614.886 701.66 614.784 702.55 614.811C705.897 615.051 709.061 615.283 712.331 615.416C718.823 615.698 725.326 615.712 731.817 615.437C735.063 615.3 738.305 615.091 741.541 614.805L743.966 614.578C744.771 614.499 745.67 614.423 746.55 614.485C748.317 614.56 750.224 615.298 751.499 616.639C752.145 617.29 752.657 618.03 753.082 618.789L754.277 620.924L756.702 625.161L761.625 633.621L764.046 637.888C764.855 639.302 765.589 640.821 766.412 642.089C767.254 643.37 768.303 644.435 769.608 644.868C770.908 645.327 772.438 645.163 773.923 644.782C780.243 643.082 786.683 641.802 793.086 640.571L797.889 639.647C799.437 639.376 800.752 638.861 801.342 637.73C801.652 637.168 801.833 636.472 801.922 635.729L802.157 633.323L802.658 628.446C803.366 621.951 804.166 615.477 804.834 609.001C804.925 608.171 804.98 607.427 805.098 606.527C805.223 605.647 805.473 604.736 805.922 603.881C806.368 603.025 807.056 602.275 807.823 601.725C808.595 601.177 809.427 600.798 810.253 600.504C813.349 599.44 816.386 598.34 819.42 597.166C825.477 594.824 831.436 592.232 837.256 589.365C838.711 588.649 840.156 587.912 841.595 587.163L843.744 586.023C844.516 585.604 845.381 585.235 846.325 585.038C847.265 584.83 848.301 584.842 849.258 585.087C850.22 585.326 851.07 585.78 851.823 586.286C852.598 586.826 853.171 587.315 853.827 587.819L855.755 589.314C860.907 593.289 866.153 597.173 871.304 601.215L873.231 602.738C873.865 603.244 874.423 603.661 875.037 603.978C876.254 604.627 877.359 604.658 878.585 604.096C879.214 603.82 879.751 603.427 880.441 602.958L882.467 601.577L886.52 598.815L894.627 593.29L898.681 590.527L900.708 589.145L901.657 588.496C901.939 588.286 902.208 588.071 902.442 587.846C903.396 586.929 903.716 586.011 903.547 584.696C903.462 584.033 903.269 583.406 903.013 582.579L902.305 580.225C901.375 577.083 900.49 573.936 899.608 570.796C898.727 567.656 897.845 564.524 896.924 561.411L896.223 559.082C895.998 558.348 895.708 557.436 895.558 556.502C895.402 555.565 895.356 554.547 895.528 553.517C895.689 552.486 896.105 551.481 896.648 550.631C897.192 549.775 897.849 549.06 898.53 548.436L899.495 547.594L900.416 546.803C901.64 545.744 902.851 544.671 904.053 543.588C906.454 541.419 908.806 539.196 911.105 536.922C915.704 532.374 920.092 527.617 924.238 522.661C925.214 521.478 926.651 519.716 928.841 519.025C931.038 518.286 933.227 518.829 934.8 519.315C937.904 520.237 941.033 521.105 944.173 521.961L953.622 524.526L958.354 525.854L960.719 526.542C961.424 526.748 962.073 526.891 962.665 526.931C963.867 527.005 964.541 526.717 965.379 525.869C965.795 525.431 966.142 524.921 966.558 524.253L967.863 522.164C969.616 519.386 971.41 516.635 973.247 513.914C975.082 511.191 976.959 508.498 978.871 505.829L979.59 504.83C979.798 504.526 980.003 504.246 980.173 503.955C980.525 503.38 980.798 502.813 980.945 502.296C981.232 501.266 981.097 500.448 980.49 499.37C980.35 499.109 980.157 498.844 979.968 498.578L979.283 497.704L977.763 495.785L974.724 491.946L968.662 484.255L962.594 476.553C961.992 475.791 961.417 474.915 960.993 473.871C960.561 472.838 960.337 471.613 960.409 470.451C960.466 469.284 960.771 468.22 961.152 467.293C961.337 466.834 961.566 466.37 961.763 465.983L962.314 464.905C965.25 459.156 967.946 453.287 970.377 447.313C972.813 441.338 974.963 435.262 976.866 429.094C977.153 428.174 977.529 427.203 978.165 426.231C978.787 425.267 979.73 424.32 980.803 423.744C982.957 422.56 985.011 422.564 986.486 422.348C989.705 421.969 992.928 421.55 996.156 421.123L1005.87 419.843L1010.75 419.24L1013.19 418.959L1014.38 418.823C1014.72 418.783 1015.04 418.729 1015.34 418.664C1015.93 418.533 1016.39 418.341 1016.7 418.133C1017.01 417.925 1017.21 417.676 1017.43 417.265C1017.64 416.856 1017.8 416.281 1017.92 415.632L1018.32 413.237C1018.88 410.003 1019.47 406.777 1020.09 403.557C1020.72 400.338 1021.37 397.124 1022.07 393.92L1022.6 391.519C1022.8 390.648 1022.92 390.102 1022.95 389.537C1022.95 388.423 1022.83 388.148 1021.99 387.408C1021.77 387.241 1021.53 387.072 1021.25 386.906L1020.29 386.36L1018.15 385.16L1013.88 382.76L1005.34 377.96L996.799 373.16L994.664 371.96C993.962 371.563 993.12 371.113 992.241 370.407C991.365 369.711 990.419 368.553 990.051 367.252C989.849 366.615 989.764 365.987 989.745 365.411C989.711 364.842 989.777 364.231 989.8 363.885C990.342 357.449 990.623 350.992 990.646 344.537C990.682 338.082 990.46 331.624 989.944 325.19L989.739 322.778C989.677 322.034 989.564 321.05 989.604 320.038C989.639 319.032 989.809 317.95 990.214 316.897C990.613 315.845 991.253 314.854 992.005 314.079C992.755 313.297 993.581 312.695 994.401 312.196L995.011 311.842L995.54 311.548L996.598 310.958L1000.82 308.548L1009.31 303.643C1010.73 302.832 1012.17 302.028 1013.62 301.24L1015.8 300.071C1016.47 299.713 1017.05 299.373 1017.56 298.986C1018.59 298.19 1019.04 297.473 1019.16 296.42C1019.21 295.887 1019.17 295.262 1019.05 294.601C1018.93 293.989 1018.71 293.088 1018.53 292.317C1017.78 289.12 1017.08 285.917 1016.42 282.709C1015.75 279.501 1015.12 276.29 1014.51 273.079L1014.05 270.67L1013.82 269.466C1013.75 269.1 1013.68 268.791 1013.6 268.479C1013.41 267.875 1013.17 267.41 1012.9 267.104C1012.62 266.803 1012.25 266.573 1011.68 266.404C1011.41 266.316 1011.09 266.255 1010.77 266.203C1010.44 266.157 1010.09 266.122 1009.66 266.083L1007.2 265.846L1002.32 265.314L992.592 264.151L982.746 263.029C981.792 262.853 980.761 262.507 979.84 261.873C978.907 261.256 978.201 260.365 977.704 259.501C977.217 258.64 976.892 257.724 976.635 256.938L975.868 254.632C973.794 248.492 971.486 242.431 968.92 236.482C967.637 233.507 966.29 230.561 964.876 227.646C964.17 226.188 963.445 224.74 962.705 223.299C961.93 221.867 961.093 219.976 961.243 217.916C961.359 215.83 962.5 214.086 963.57 212.778L966.605 208.94L972.675 201.264L978.744 193.588C979.769 192.263 980.825 191.146 981.141 189.926C981.505 188.751 981.095 187.492 980.273 186.239L969.452 169.936L966.742 165.853C966.271 165.163 965.875 164.495 965.418 163.941C964.956 163.384 964.447 162.909 963.871 162.636C962.734 162.047 961.272 162.276 959.774 162.73L955.054 164.031L936.176 169.234L933.806 169.884C932.986 170.1 932.123 170.273 931.21 170.273C930.305 170.287 929.342 170.07 928.522 169.623C927.7 169.174 927.024 168.546 926.47 167.869C924.414 165.348 922.301 162.878 920.129 160.457C915.781 155.619 911.191 150.999 906.424 146.569C905.234 145.46 904.029 144.366 902.813 143.284L900.983 141.669C900.381 141.139 899.727 140.594 899.157 139.949C898.584 139.313 898.082 138.565 897.785 137.717C897.472 136.874 897.415 135.957 897.499 135.096C897.577 134.234 897.823 133.393 898.062 132.622L898.769 130.284C900.631 124.041 902.313 117.739 904.112 111.464L905.489 106.765L906.201 104.422C906.434 103.664 906.601 102.89 906.596 102.127C906.605 101.364 906.403 100.631 906.002 99.996C905.596 99.363 905.016 98.831 904.382 98.365C903.067 97.466 901.664 96.58 900.312 95.684C894.855 92.107 889.422 88.486 884.11 84.688C882.786 83.72 881.492 82.763 879.955 82.475C878.433 82.17 876.891 82.752 875.607 83.668C873.042 85.609 870.458 87.644 867.884 89.628L852.422 101.594Z" fill="#E6E7E8"/>
<path d="M720.221 345.339L965.982 299.467C973.861 341.679 971.611 379.244 958.751 420.214L720.221 345.339Z" fill="#E0EEF0" stroke="white" stroke-width="2" stroke-miterlimit="10"/>
<path d="M720.221 345.339L958.751 420.214C949.281 450.382 935.727 475.952 916.075 500.722L720.221 345.339Z" fill="#E0EEF0" stroke="white" stroke-width="2" stroke-miterlimit="10"/>
<path d="M720.221 345.339L765.468 99.462C869.215 118.554 946.626 195.769 965.982 299.467L720.221 345.339Z" fill="#E0EEF0" stroke="white" stroke-width="2" stroke-miterlimit="10"/>
<path d="M720.221 345.339L500.36 226.326C553.075 128.942 656.561 79.42 765.468 99.462L720.221 345.339Z" fill="#E0EEF0" stroke="white" stroke-width="2" stroke-miterlimit="10"/>
<path d="M720.221 345.339L472.915 308.7C477.427 278.242 485.703 253.404 500.361 226.326L720.221 345.339Z" fill="#E0EEF0" stroke="white" stroke-width="2" stroke-miterlimit="10"/>
<path d="M720.221 345.339L481.882 420.82C469.918 383.042 467.107 347.899 472.915 308.7L720.221 345.339Z" fill="#E0EEF0" stroke="white" stroke-width="2" stroke-miterlimit="10"/>
<path d="M720.221 345.339L539.092 517.661C512.349 489.551 493.596 457.808 481.882 420.819L720.221 345.339Z" fill="#E0EEF0" stroke="white" stroke-width="2" stroke-miterlimit="10"/>
<path d="M720.221 345.339L916.075 500.722C830.259 608.889 673.005 627.008 564.838 541.193C554.238 532.783 548.419 527.465 539.093 517.662L720.221 345.339Z" fill="#E0EEF0" stroke="white" stroke-width="2" stroke-miterlimit="10"/>
<path d="M721.956 505.048C772.143 504.992 816.914 481.887 846.286 445.765L720.668 346.104L605.766 455.42C635.016 486.042 676.266 505.099 721.956 505.048Z" fill="#7CB8C2"/>
<path d="M668.263 362.407C670.765 369.792 674.771 376.481 679.934 382.097L716.78 347.042L668.263 362.407Z" fill="#7CB8C2"/>
<path d="M690.704 341.481C690.594 342.532 690.536 343.598 690.537 344.678C690.54 347.567 690.958 350.357 691.719 353.001L716.176 345.256L690.704 341.481Z" fill="#7CB8C2"/>
<path d="M691.599 330.065C690.226 332.901 689.247 335.961 688.719 339.173L715.85 343.193L691.599 330.065Z" fill="#7CB8C2"/>
<path d="M746.402 199.058C737.999 197.584 729.354 196.817 720.527 196.827C664.739 196.89 616.211 227.854 591.098 273.506L719.874 343.214L746.402 199.058Z" fill="#7CB8C2"/>
<path d="M743.135 227.465L721.776 343.531L838.655 321.715C829.31 273.803 791.251 236.179 743.135 227.465Z" fill="#7CB8C2"/>
<path d="M762.859 337.999L724.735 345.115L761.616 356.692C762.772 352.863 763.398 348.804 763.393 344.597C763.39 342.351 763.204 340.148 762.859 337.999Z" fill="#7CB8C2"/>
<path d="M725.456 347.351L763.818 377.786C767.437 373.084 770.3 367.774 772.236 362.035L725.456 347.351Z" fill="#7CB8C2"/>
<path d="M507.563 441.859C508.115 441.161 507.981 440.459 507.981 440.459C507.981 440.459 511.423 419.498 511.51 417.217C511.596 414.945 512.864 413.112 512.864 411.365C512.864 410.339 513.397 405.178 513.839 401.07C513.443 399.426 512.994 397.709 512.785 397.327C512.386 396.591 512.884 395.256 512.336 394.695C511.238 393.545 510.016 393.01 511.001 391.038C511.475 390.089 512.636 391.15 512.836 391.661C512.852 391.705 512.873 391.731 512.895 391.755C512.905 391.764 512.915 391.771 512.926 391.778C512.944 391.789 512.963 391.797 512.983 391.798C512.994 391.801 513.008 391.801 513.02 391.799C513.042 391.798 513.064 391.793 513.088 391.786C513.1 391.782 513.113 391.778 513.126 391.771C513.15 391.76 513.175 391.746 513.201 391.729C513.214 391.719 513.229 391.71 513.244 391.698C513.263 391.685 513.284 391.668 513.302 391.652C513.324 391.634 513.346 391.614 513.368 391.594C513.372 391.59 513.375 391.587 513.379 391.582C513.482 391.483 513.575 391.372 513.633 391.299C513.823 391.075 514.203 391.645 514.401 391.234L514.474 385.817C514.474 385.817 512.103 384.95 511.001 382.321C509.903 379.692 509.311 379.608 508.044 378.122C506.772 376.632 506.602 374.707 506.602 370.949C506.602 367.182 508.551 362.112 508.802 360.28C509.053 358.439 510.739 354.41 511.67 353.315C512.599 352.217 519.495 350.215 519.495 350.215C519.495 350.215 520.069 348.774 520.678 348.489C521.292 348.208 521.481 347.813 522.283 347.07C523.09 346.327 524.533 346.531 524.533 346.531C524.533 346.531 524.524 346.233 524.466 346.002C524.457 345.962 524.453 345.931 524.438 345.9C524.411 345.829 524.373 345.771 524.32 345.749C524.111 345.66 523.306 343.908 522.968 342.992C522.63 342.076 522.419 340.061 522.586 337.878C522.754 335.694 524.654 333.235 529.034 332.381C533.412 331.532 535.947 335.116 535.947 335.116C535.947 335.116 535.661 335.152 536.052 335.463C536.443 335.783 536.581 336.494 536.507 336.339C536.442 336.21 536.105 335.934 536.011 335.868C536.065 335.908 536.167 336.024 536.327 336.362C536.56 336.842 535.989 337.999 536.056 337.669C536.118 337.344 535.778 336.886 535.778 336.886C535.778 336.886 535.78 336.899 535.787 336.935C535.791 336.944 535.791 336.962 535.793 336.975C535.797 337.001 535.801 337.031 535.804 337.067C535.818 337.226 535.83 337.531 535.777 338.11C535.695 339.07 535.842 338.639 536.032 339.4C536.223 340.161 536.303 340.556 535.988 341.099C535.668 341.651 535.337 342.091 535.503 342.344C535.668 342.611 535.946 342.784 536.055 343.443C536.162 344.101 535.526 343.901 535.419 344.163C535.312 344.421 535.419 344.928 535.397 345.279C535.379 345.626 534.89 345.737 535.121 345.822C535.355 345.911 535.355 346.107 535.228 346.24C535.101 346.369 534.785 347.419 534.827 348.362C534.832 348.535 534.806 348.678 534.763 348.793C534.754 348.815 534.747 348.842 534.741 348.855C534.694 348.962 534.636 349.046 534.565 349.104C534.561 349.112 534.556 349.117 534.552 349.121C534.543 349.13 534.542 349.13 534.535 349.134C534.403 349.236 534.264 349.29 534.17 349.308H534.169C534.153 349.312 534.157 349.308 534.142 349.312C534.098 349.316 534.069 349.321 534.069 349.321C534.069 349.321 534.486 349.886 534.787 350.277C535.083 350.673 536.204 352.203 536.204 352.203C536.204 352.203 536.255 352.087 537.271 352.572C538.286 353.052 540.827 354.582 541.588 355.107C542.348 355.628 544.169 360.266 544.508 362.147C544.846 364.028 545.437 365.425 546.327 367.044C547.217 368.663 547.172 369.272 547.132 370.015C547.088 370.762 547.259 372.026 547.259 373.515C547.259 375.005 546.497 376.273 546.497 376.273C546.497 376.273 546.711 377.189 546.877 378.283C547.048 379.377 546.582 381.085 546.074 381.738C545.567 382.392 546.074 382.307 546.199 383.223C546.328 384.144 546.581 384.402 545.945 384.748C545.311 385.104 544.891 386.109 544.339 386.763C543.787 387.417 543.07 387.461 542.52 387.639C541.971 387.817 541.547 388.298 541.039 389.431C540.528 390.565 541.422 396.036 541.079 396.382C540.743 396.734 540.04 396.573 540.04 396.573C540.04 396.573 540.207 401.474 539.953 403.573C539.7 405.672 537.398 438.142 537.398 438.142C537.398 438.142 538.457 439.632 539.431 440.721C540.402 441.815 540.699 443.479 540.487 444.177C539.875 446.2 535.897 445.8 534.518 445.053C533.718 444.613 533.462 443.479 532.997 442.599C532.534 441.727 531.474 441.464 530.711 440.81C529.951 440.152 530.135 438.476 530.135 438.476L528.612 436.288C528.612 436.288 528.298 418.934 528.298 413.681C528.298 408.438 527.112 400.566 527.112 400.566C525.563 401.647 523.444 412.756 521.753 421.944C520.059 431.123 516.152 440.592 516.152 440.592L514.755 441.028C514.755 441.028 514.713 442.295 514.673 442.909C514.633 443.518 513.659 443.909 513.53 444.216C513.404 444.523 513.404 445.924 513.192 446.666C512.978 447.409 512.302 447.715 510.911 448.062C509.515 448.417 506.886 448.239 506.589 447.67C506.295 447.105 506.126 445.967 506.084 445.002C506.038 444.047 507.012 442.562 507.563 441.859Z" fill="#414143"/>
<path d="M720.506 344.701L916.36 500.084C830.544 608.251 673.29 626.371 565.123 540.555C554.523 532.145 548.704 526.827 539.378 517.024L720.506 344.701Z" stroke="#2E8C9D" stroke-width="3" stroke-miterlimit="10"/>
<path d="M721.776 367.592C734.45 367.592 744.724 357.318 744.724 344.644C744.724 331.97 734.45 321.696 721.776 321.696C709.102 321.696 698.828 331.97 698.828 344.644C698.828 357.318 709.102 367.592 721.776 367.592Z" fill="white"/>
<path d="M651.125 236.332V281.964H712.152V236.332H651.125ZM674.903 246.067H679.114V253.085H674.903V246.067ZM665.769 246.067H669.98V253.085H665.769V246.067ZM656.981 246.067H661.192V253.085H656.981V246.067ZM679.116 280.796H656.982V260.257H679.116V280.796ZM684.038 246.067H688.249V253.085H684.038V246.067ZM688.318 267.274H684.107V260.256H688.318V267.274ZM693.31 246.067H697.521V253.085H693.31V246.067ZM697.59 267.274H693.379V260.256H697.59V267.274ZM702.445 246.067H706.656V253.085H702.445V246.067ZM706.724 267.274H702.513V260.256H706.724V267.274Z" fill="#414143"/>
<path d="M462.917 458.36L462.423 457.491L439.25 469.578H355.29C355.053 468.26 353.906 467.258 352.52 467.258C350.963 467.258 349.7 468.521 349.7 470.078C349.7 471.635 350.963 472.898 352.52 472.898C353.906 472.898 355.053 471.896 355.29 470.578H439.515L462.917 458.36Z" fill="#919494"/>
<path d="M1089.01 336.02C1087.42 336.023 1086.11 337.172 1085.84 338.682L1010.35 338.823L1010.35 339.968L1085.84 339.827C1086.12 341.335 1087.43 342.481 1089.02 342.478C1090.8 342.475 1092.24 341.027 1092.24 339.244C1092.24 337.46 1090.79 336.017 1089.01 336.02Z" fill="#919494"/>
<path d="M1089.45 124.843C1087.86 124.847 1086.55 125.997 1086.29 127.507L954.85 127.865H954.651L930.04 141.4L930.751 142.297L955.051 129.009L1086.29 128.651C1086.56 130.159 1087.88 131.304 1089.47 131.3C1091.25 131.296 1092.69 129.847 1092.69 128.064C1092.68 126.282 1091.23 124.839 1089.45 124.843Z" fill="#919494"/>
<path d="M456.89 232.533H355.275C355.038 231.215 353.891 230.213 352.505 230.213C350.948 230.213 349.685 231.476 349.685 233.033C349.685 234.59 350.948 235.853 352.505 235.853C353.891 235.853 355.038 234.851 355.275 233.533H456.89V232.533Z" fill="#919494"/>
<path d="M437.686 348.329L355.29 348.313C355.054 346.995 353.907 345.993 352.521 345.993C350.964 345.993 349.701 347.255 349.701 348.812C349.701 350.369 350.963 351.632 352.52 351.632C353.906 351.632 355.053 350.63 355.29 349.312L437.686 349.328V348.329Z" fill="#919494"/>
<path d="M1073.11 456.806C1071.53 456.806 1070.21 457.953 1069.94 459.462H993.686V460.607H1069.94C1070.21 462.116 1071.53 463.264 1073.11 463.264C1074.9 463.264 1076.34 461.818 1076.34 460.035C1076.34 458.252 1074.9 456.806 1073.11 456.806Z" fill="#919494"/>
<path d="M514.139 143.008L513.431 143.714L456.084 106.077H353.589C353.352 107.395 352.205 108.397 350.819 108.397C349.262 108.397 347.999 107.134 347.999 105.577C347.999 104.02 349.262 102.757 350.819 102.757C352.205 102.757 353.352 103.759 353.589 105.077H456.498L514.139 143.008Z" fill="#919494"/>
<path d="M719.32 640L719.32 730.615C718.002 730.852 717 731.999 717 733.385C717 734.942 718.263 736.205 719.82 736.205C721.377 736.205 722.64 734.942 722.64 733.385C722.64 731.999 721.638 730.852 720.32 730.615L720.32 640L719.32 640Z" fill="#919494"/>
<text fill="#074953" xml:space="preserve" style="white-space: pre" font-family="Roboto" font-size="30" font-weight="bold" letter-spacing="0em"><tspan x="682" y="440.754">8.960</tspan></text>
<text fill="#258999" xml:space="preserve" style="white-space: pre" font-family="Roboto" font-size="30" font-weight="bold" letter-spacing="0em"><tspan x="663" y="543.754">135.260</tspan></text>
<text fill="#414143" xml:space="preserve" style="white-space: pre" font-family="Roboto" font-size="26" letter-spacing="0em"><tspan x="668" y="465.887">bedrijven</tspan></text>
<text fill="#414143" xml:space="preserve" style="white-space: pre" font-family="Roboto" font-size="26" letter-spacing="0em"><tspan x="648" y="568.887">werknemers</tspan></text>
</svg>
