
<svg width="1595" height="736" viewBox="0 0 1595 736" fill="none" xmlns="http://www.w3.org/2000/svg">
<path d="M1515 669.813L931 670.813" stroke="#A6A8AB" stroke-miterlimit="10"/>
<path d="M1276.04 649.504V649.184C1272.7 649.234 1269.36 649.25 1266.02 649.495C1269.36 649.496 1272.7 649.484 1276.04 649.504Z" fill="#D7D8D8"/>
<path d="M1276.04 646.28V645.792H1269.76V646.281C1271.86 646.28 1273.95 646.277 1276.04 646.28Z" fill="#D7D8D8"/>
<path d="M1273.88 619.196C1268.9 619.633 1263.88 619.743 1258.89 620.047C1257.13 620.154 1254.95 618.483 1253.7 620.847C1253.87 620.972 1254.09 621.114 1254.31 621.255C1257.16 620.967 1264.41 622.488 1264.26 622.761C1264.15 624.295 1264.2 629.71 1264.19 630.01C1267.97 629.719 1272.24 629.48 1276.26 629.247C1276.35 625.892 1276.71 622.367 1276.04 619.067C1275.33 619.089 1274.61 619.131 1273.88 619.196V619.196Z" fill="#D7D8D8"/>
<path d="M1276.09 638.537C1273.94 638.583 1271.79 638.635 1269.64 638.864H1276.08C1276.09 638.755 1276.09 638.646 1276.09 638.537Z" fill="#D7D8D8"/>
<path d="M1276.19 632.354C1276.19 632.188 1276.2 632.023 1276.2 631.858C1273.66 632.049 1271.16 632.195 1268.83 632.354H1276.19Z" fill="#D7D8D8"/>
<path d="M1276.13 635.515V635.196C1274.64 635.311 1273.16 635.432 1271.75 635.538C1273.16 635.538 1274.63 635.516 1276.13 635.515Z" fill="#D7D8D8"/>
<path d="M1344.75 667.411C1344.43 665.368 1344.02 660.111 1343.8 658.061C1343.65 656.744 1343.76 655.407 1343.76 654.079V645.543L1343 645.533V667.543C1341.87 667.274 1341.32 666.927 1341.26 666.527C1340.92 664.339 1340.51 658.921 1340.46 656.722C1340.24 646.474 1340.14 636.222 1339.97 625.972C1339.96 625.3 1339.85 624.155 1339.44 624.04C1336.48 623.193 1337.24 621.145 1337.08 619.228C1336.9 620.573 1336.74 621.745 1336.67 622.317C1329.99 623.234 1323.9 624.073 1317.62 624.937C1317.82 627.378 1318.01 629.636 1318.19 631.837C1315.93 632.611 1315.19 632.014 1315.19 630.315C1315.16 624.391 1315.02 618.468 1314.98 612.542C1314.94 606.73 1314.97 600.917 1314.97 595.308C1307.32 591.279 1299.26 594.378 1291.47 594.075C1291.66 600.965 1291.84 607.8 1292.02 614.616C1292.4 614.604 1292.77 614.596 1293.14 614.607C1292.92 608.81 1292.7 603.016 1292.54 597.219C1292.52 596.542 1293.71 595.402 1294.56 595.23C1297.03 594.73 1299.61 594.624 1302.14 594.34C1306.43 593.859 1306.75 593.988 1306.74 597.592C1306.73 603.446 1306.7 609.3 1306.67 615.155L1307.16 615.149C1307.14 608.39 1307.2 601.596 1307.2 594.67C1313.96 595.167 1314.33 595.322 1314.3 599.827C1314.21 613.897 1313.92 627.964 1313.78 642.033C1313.71 648.218 1313.74 654.4 1313.76 660.567C1313.81 660.652 1313.85 660.744 1313.87 660.839L1313.86 660.84C1313.86 661.236 1313.85 661.631 1313.86 662.027C1313.84 662.534 1313.84 663.043 1313.84 663.546V665.813C1313.84 667.187 1313.85 668.562 1313.83 669.936V669.962C1317.89 670.062 1345.09 669.818 1345.44 669.701C1345.38 669.196 1345.33 667.948 1345.27 667.442C1345.1 667.429 1344.93 667.415 1344.75 667.411V667.411Z" fill="#D7D8D8"/>
<path d="M1246.04 566.911C1246.03 583.201 1246.91 599.465 1247.42 615.737C1247.47 617.371 1247.49 619.005 1247.51 620.64C1247.7 620.538 1247.86 620.507 1248.09 620.489L1248.14 620.488C1248.15 620.488 1248.16 620.493 1248.18 620.494C1248.01 614.654 1247.83 608.814 1247.63 602.975C1247.21 590.95 1246.58 578.931 1246.04 566.911V566.911Z" fill="#D7D8D8"/>
<path d="M1284.25 621.659C1283.98 621.526 1283.64 621.425 1283.22 621.34C1283.64 621.425 1283.98 621.526 1284.25 621.659Z" fill="#D7D8D8"/>
<path d="M1270.32 652.908C1268.34 652.93 1266.35 652.943 1264.36 652.947V653.246C1264.58 653.243 1264.8 653.236 1265.02 653.234C1268.69 653.197 1272.37 653.22 1276.04 653.249V652.767C1274.13 652.845 1272.23 652.887 1270.32 652.908Z" fill="#D7D8D8"/>
<path d="M1276.04 653.248C1272.37 653.22 1268.69 653.196 1265.02 653.234C1264.8 653.236 1264.58 653.243 1264.36 653.246C1264.37 656.201 1264.36 669.337 1264.36 669.337C1266.26 669.378 1268.91 669.418 1270.81 669.458L1272.22 669.488C1273.52 669.516 1274.82 669.541 1276.12 669.567C1276.13 667.688 1276.04 655.526 1276.04 654.879V653.248V653.248Z" fill="#D7D8D8"/>
<path d="M1253.93 658.087C1253.93 658.192 1253.93 658.295 1253.94 658.398C1253.95 658.506 1253.97 658.615 1253.99 658.726C1253.97 658.615 1253.95 658.507 1253.94 658.398C1253.93 658.295 1253.93 658.192 1253.93 658.087Z" fill="#D7D8D8"/>
<path d="M1183.5 632.752C1183.25 632.727 1183 632.71 1182.74 632.702L1182.5 632.692C1182.54 640.325 1182.59 647.959 1182.66 655.592C1182.68 657.747 1182.91 659.901 1183.04 662.056L1183.92 662.045V632.845C1183.85 632.836 1183.79 632.825 1183.72 632.802C1183.65 632.779 1183.57 632.762 1183.5 632.752V632.752Z" fill="#D7D8D8"/>
<path d="M1154.41 656.658L1154.77 656.679V641.912C1154.63 643.169 1154.52 644.429 1154.45 645.692C1154.26 649.341 1154.41 653.002 1154.41 656.658Z" fill="#D7D8D8"/>
<path d="M1154.77 641.912C1154.8 641.565 1154.83 641.218 1154.88 640.871C1154.84 640.6 1154.8 640.336 1154.77 640.062V641.912Z" fill="#D7D8D8"/>
<path d="M1113.5 648.197C1113.5 648.51 1113.5 648.823 1113.49 649.136C1113.52 649.176 1113.53 649.222 1113.55 649.264C1113.72 648.262 1113.87 647.259 1113.99 646.253C1114.1 645.385 1114.2 644.515 1114.28 643.645C1114.1 644.378 1113.91 645.106 1113.69 645.829C1113.66 646.62 1113.59 647.41 1113.5 648.197Z" fill="#D7D8D8"/>
<path d="M1135.99 663.361C1135.92 662.42 1135.84 661.466 1135.78 660.511C1135.33 653.286 1134.64 646.063 1134.53 638.834C1134.48 635.972 1137.59 634.204 1139.51 632.084L1140.29 632.345C1140.94 641.865 1141.59 651.384 1142.25 660.904L1143.18 660.929C1143.28 660.143 1143.53 659.349 1143.47 658.572C1142.8 649.747 1142.14 640.92 1141.31 632.104C1141.2 630.924 1140.59 629.427 1139.57 628.716C1135.24 625.712 1133.18 622.041 1133.65 617.372C1133.69 616.945 1133.54 616.506 1133.48 616.071L1133.09 616.093V622.527C1131.33 620.768 1129.7 619.15 1128.06 617.514C1127.82 621.745 1127.85 664.876 1127.82 666.359C1129.11 666.507 1130.04 666.614 1130.41 666.62C1136.47 664.475 1145.05 664.061 1151.07 665.875C1150.94 666.258 1150.82 666.635 1150.71 666.971C1152.95 667.012 1155.19 667.049 1157.42 667.091C1157.99 666.657 1158.54 666.189 1159.2 665.939C1160.25 665.546 1161.45 665.446 1162.59 665.218L1162.44 664.836L1135.99 663.361V663.361Z" fill="#D7D8D8"/>
<path d="M1244.74 557.985C1241.81 556.74 1238.9 555.46 1236.54 554.435L1215.94 558.292C1216.42 593.765 1216.91 629 1217.4 664.235L1218.2 664.286C1218.28 663.562 1218.43 662.839 1218.44 662.116C1218.49 651.86 1218.65 641.604 1218.54 631.35C1218.43 621.178 1218.03 611.009 1217.79 600.838C1217.49 588.536 1217.29 576.233 1216.94 563.933C1216.81 559.343 1216.61 559.208 1221.91 558.105C1226.17 557.219 1230.54 556.717 1235.32 555.972C1236.65 592.825 1234.49 629.097 1238.42 665.253C1235.06 628.852 1237.8 592.411 1236.81 555.884C1240.08 557.886 1246.18 556.905 1245.45 562.322C1246.5 558.7 1246.49 558.725 1244.74 557.985V557.985Z" fill="#D7D8D8"/>
<path d="M1213.4 593.2C1212.18 590.138 1210.1 587.828 1207.46 585.582C1205.51 583.922 1204.23 581.72 1202.59 579.793C1202.04 579.139 1201.3 578.588 1200.33 577.695C1200.28 581.781 1196.89 583.924 1195.2 586.773L1191.57 590.718C1191.89 590.984 1192.28 591.16 1192.68 591.285C1192.28 591.162 1191.89 590.984 1191.57 590.718C1190.53 591.574 1188.67 592.394 1188.61 593.292C1188.46 595.781 1189.06 598.303 1189.36 600.813C1189.85 599.662 1189.91 598.542 1189.84 597.427C1189.61 593.126 1190.73 592.22 1196.66 592.422C1196.66 595.027 1196.7 597.656 1196.64 600.285C1196.62 601.133 1196.41 601.987 1196.19 602.821C1195.82 604.263 1194.97 605.702 1195.02 607.123C1195.19 611.367 1196.1 615.68 1190.9 619.378C1190.22 615.467 1189.59 611.872 1188.88 607.792V618.918C1185.04 617.342 1181.58 617.094 1177.71 617.678C1170.95 618.696 1164.04 619.005 1156.37 619.684V603.26C1151.89 604.038 1151.3 602.155 1151.34 599.737C1151.36 598.765 1151.21 597.792 1151.2 596.82C1151.07 587.878 1151 578.936 1150.76 569.995C1150.74 569.102 1149.9 567.668 1149.07 567.451C1146.6 566.802 1146.07 565.351 1146.04 563.612C1145.92 558.392 1145.91 553.172 1145.83 547.952C1145.82 547.479 1145.62 547.008 1145.52 546.536L1144.7 546.607V566.17C1138.79 564.504 1141.98 569.127 1139.67 570.338C1138.22 570.223 1136.44 570.061 1134.65 569.947C1132.59 569.815 1131.03 570.165 1131.16 572.332C1131.27 574.165 1131.18 576.003 1131.26 577.839C1131.69 588.804 1132.15 599.768 1132.61 610.732C1132.65 611.671 1132.75 612.611 1132.82 613.551C1133.13 610.215 1133.06 606.951 1133.14 603.687C1133.26 598.844 1133.72 593.999 1133.6 589.163C1133.49 584.306 1132.83 579.458 1132.45 574.605C1132.26 572.198 1133.81 571.082 1136.55 571.403C1140.01 571.809 1143.42 572.483 1146.86 573.024C1147.44 573.115 1148.03 573.117 1148.62 573.16C1148.68 572.932 1148.74 572.703 1148.81 572.475C1147.26 572.016 1145.72 571.539 1144.16 571.1C1141.72 570.411 1142.51 569.073 1142.98 567.764C1148.88 567.426 1149.65 567.896 1149.75 572.507C1149.98 582.759 1150.07 593.012 1150.33 603.262C1150.34 603.855 1151.34 604.923 1151.89 604.931C1154.25 604.961 1154.77 606.086 1154.77 607.672C1154.78 611.696 1154.78 615.719 1154.78 620.5C1152.52 620.5 1149.56 620.706 1146.67 620.443C1143.75 620.177 1143.25 621.188 1143.32 623.287C1143.52 629.305 1143.49 635.327 1143.61 641.348C1143.66 643.654 1143.87 645.957 1144 648.261C1144.68 647.279 1144.56 646.33 1144.54 645.38C1144.37 638.22 1144.2 631.059 1144.09 623.898C1144.07 622.706 1143.91 621.298 1146.26 621.327C1150.29 621.374 1154.33 621.34 1158.86 621.34V633.939C1157.66 634.61 1155.86 635.078 1155.71 635.784C1155.36 637.467 1155.09 639.164 1154.88 640.87C1155.67 646.732 1156.5 652.049 1156.99 657.384C1157.19 659.571 1158.26 660.681 1161.19 661.517C1160.97 659.885 1160.67 658.648 1160.66 657.41C1160.58 645.554 1160.54 633.698 1160.58 621.842C1160.59 621.314 1161.5 620.382 1162.08 620.323C1167.86 619.75 1173.66 619.391 1179.43 618.82C1181.74 618.591 1182.45 619.233 1182.46 621.091C1182.46 624.091 1182.48 627.091 1182.49 630.091C1182.72 630.101 1182.95 630.105 1183.17 630.116C1183.42 630.129 1183.67 630.162 1183.92 630.197V619.089C1186.56 619.528 1188.65 619.756 1190.65 620.238C1193.09 620.826 1194.47 622.035 1194.53 624.435C1194.58 626.294 1194.65 628.153 1194.71 630.012C1194.92 629.971 1195.15 629.957 1195.37 629.958C1196.03 629.961 1196.7 630.005 1197.36 630.05C1197.24 621.471 1197.41 612.851 1198.4 604.233L1200.16 604.39C1199.93 601.152 1199.71 598.088 1199.49 595.024L1200.41 594.874C1202.07 596.74 1203.73 598.606 1205.59 600.689C1207.18 597.134 1208.61 593.966 1210.03 590.799L1210.86 590.806C1211.43 592.271 1212.45 593.725 1212.5 595.201C1212.68 600.941 1212.55 606.689 1212.55 612.434V636.622C1213.05 630.349 1212.98 624.079 1213.07 617.809C1213.17 611.086 1213.33 604.36 1213.69 597.643C1213.77 596.119 1214.04 594.824 1213.4 593.2V593.2ZM1205.31 597.875C1201.26 595.752 1199.2 592.632 1199.27 589.203C1199.2 592.632 1201.26 595.751 1205.31 597.875ZM1204.16 583.607C1205.29 584.718 1206.41 585.82 1207.48 586.951C1206.41 585.821 1205.29 584.718 1204.16 583.607ZM1208.8 591.379C1209.04 590.863 1209.26 590.165 1209.27 589.57C1209.26 590.164 1209.04 590.863 1208.8 591.379Z" fill="#D7D8D8"/>
<path d="M1089.81 665.81C1089.78 665.688 1089.76 665.559 1089.78 665.416C1089.85 664.883 1089.87 664.351 1089.88 663.817C1088.5 663.272 1087.5 662.336 1087.37 661.095C1086.71 654.749 1086.14 648.396 1085.57 642.043C1084.9 634.458 1084.32 626.867 1083.52 619.292C1083.44 618.538 1082.23 617.602 1081.27 617.227C1078.32 616.066 1075.23 615.137 1071.91 614.024C1069.82 615.38 1067.45 616.924 1065.02 618.496C1063.94 617.305 1062.86 616.116 1061.78 614.927C1061.57 615.159 1061.38 615.373 1061.18 615.59L1061.15 615.556C1060.79 615.972 1060.46 616.353 1060.13 616.72L1059.17 617.828L1058.57 618.518L1058.57 618.513C1058.57 618.515 1058.57 618.516 1058.57 618.518C1058.23 618.864 1057.9 619.208 1057.56 619.561C1055.85 620.924 1054.51 622.229 1055.59 624.551C1055.97 625.363 1054.61 626.713 1054.11 627.837C1053.92 628.25 1053.92 628.715 1053.83 629.157L1054.26 629.24C1054.35 629.188 1054.44 629.146 1054.54 629.118L1054.88 629.071C1054.93 629.071 1054.97 629.084 1055.02 629.089C1055.44 627.912 1056.08 626.737 1056.1 625.557C1056.14 622.203 1056.85 621.518 1061.5 621.502V626.824C1063.96 626.837 1064.48 627.736 1064.56 628.983C1064.66 628.979 1064.76 628.984 1064.85 629V626.993C1061.67 625.801 1061.27 624.77 1063 621.602C1067.76 622.046 1067.79 622.045 1067.92 625.831C1067.96 626.835 1067.96 627.839 1067.95 628.845L1067.96 628.846C1068.32 625.556 1069.56 622.139 1065.72 619.219C1067.72 617.798 1069.48 616.538 1071.25 615.279L1072.3 615.589C1072.56 619.943 1072.85 624.938 1073.11 629.279C1074.08 629.396 1076.5 629.166 1076.83 629.297C1077.72 629.062 1076.81 664.792 1077.12 666.261C1077.13 666.308 1077.13 666.357 1077.13 666.406C1078.05 666.417 1083.84 666.379 1089.99 666.336C1089.97 666.292 1089.95 666.255 1089.94 666.208C1089.87 666.085 1089.83 665.95 1089.81 665.81V665.81Z" fill="#D7D8D8"/>
<path d="M1091.23 610.298V615.37L1087.54 615.75C1088.03 630.664 1087.49 645.444 1090.32 660.076C1090.5 657.958 1089.84 655.881 1089.75 653.788C1089.25 642.203 1088.85 630.615 1088.52 619.027C1088.5 618.242 1089.33 617.439 1089.76 616.644L1091.57 617.851C1092.23 617.495 1093.12 616.608 1093.88 616.679C1098.23 617.087 1097.9 614.986 1097.37 612.599C1097.21 611.864 1097.35 611.084 1097.35 610.343C1102.42 610.101 1102.58 610.185 1102.83 613.895C1102.86 614.305 1102.88 614.717 1102.9 615.127C1103.19 615.04 1103.51 615.048 1103.8 615.154C1103.67 613.408 1103.54 611.654 1103.4 609.912C1099.25 608.894 1095.23 607.994 1091.23 610.298V610.298Z" fill="#D7D8D8"/>
<path d="M1369.53 622.778L1368.3 620.131C1367.33 620.668 1366.43 621.356 1365.36 621.701C1364.21 622.076 1362.91 622.257 1361.67 622.291C1360.34 622.327 1359.01 622.003 1357.68 621.998C1355.02 621.988 1352.36 622.189 1349.71 622.078C1348.96 622.047 1347.55 621.119 1347.63 620.815C1348.59 617.115 1344.8 614.671 1344.17 611.421C1344.08 610.984 1343.5 610.612 1342.96 609.985C1342.39 610.676 1342.01 611.15 1341.62 611.624L1340.78 612.451C1339.53 613.804 1338.28 615.159 1336.75 616.819L1342.5 616.427V640.404L1343.46 640.41V616.4C1345.09 617.011 1346.01 617.354 1347.09 617.756C1346.62 619.399 1348.24 621.74 1344.43 622.161C1344.94 622.999 1345.35 623.684 1345.61 624.125C1349.84 622.725 1354.04 622.859 1358.23 623.13C1358.61 623.154 1359.24 623.903 1359.2 624.275C1359.1 625.153 1358.96 626.028 1358.8 626.901C1359.26 626.917 1359.72 626.931 1360.18 626.948C1360.18 626.197 1360.41 625.143 1360.83 623.616C1360.41 625.143 1360.18 626.197 1360.18 626.948C1362 627.016 1363.83 627.085 1365.65 627.131L1366.01 627.142C1366.32 627.15 1366.63 627.155 1366.94 627.16C1368.04 624.863 1365.59 622.644 1367.25 620.763L1368.36 620.771L1369.05 623.504C1369.23 623.455 1369.4 623.405 1369.58 623.356C1369.56 623.164 1369.54 622.971 1369.53 622.778V622.778ZM1339.48 615.828C1339.6 615.496 1339.73 615.184 1339.84 614.885C1339.73 615.184 1339.61 615.496 1339.48 615.828Z" fill="#D7D8D8"/>
<path d="M1219.87 659.546L1220.29 659.545V580.184L1219.87 580.185V659.546Z" fill="#D7D8D8"/>
<path d="M1163.08 618.201C1163.26 617.545 1163.44 616.888 1163.68 616.002C1168.3 615.604 1173.22 613.734 1178.16 616.203C1178.57 616.408 1179.34 616.262 1179.86 616.095C1180.01 616.048 1180.01 615.074 1179.82 615.01C1178.08 614.39 1176.31 613.546 1174.48 613.418C1172.53 613.28 1170.52 613.866 1168.53 614.1C1165.25 614.485 1161.97 614.839 1158.7 615.207L1158.58 615.983C1159.64 616.297 1160.76 616.526 1161.75 616.957C1162.3 617.198 1162.64 617.776 1163.08 618.201V618.201Z" fill="#D7D8D8"/>
<path d="M1226.55 597.194C1226.42 591.759 1226.12 586.329 1225.84 580.897V618.543C1226.58 611.424 1226.71 604.307 1226.55 597.194V597.194Z" fill="#D7D8D8"/>
<path d="M1225.59 575.921C1225.67 577.58 1225.76 579.239 1225.84 580.897V575.919L1225.59 575.921V575.921Z" fill="#D7D8D8"/>
<path d="M1223.37 664.521L1223.68 664.554V630.033L1223.37 630.039V664.521Z" fill="#D7D8D8"/>
<path d="M1222.32 561.737C1222.32 566.211 1222.39 570.687 1222.31 575.161C1222.2 581.238 1221.98 587.314 1221.81 593.391V593.385C1222.12 592.125 1222.63 590.87 1222.68 589.604C1222.92 584.146 1223.06 578.684 1223.16 573.223C1223.23 569.396 1223.17 565.567 1223.17 561.739L1222.32 561.737Z" fill="#D7D8D8"/>
<path d="M1213.12 664.725C1213.38 664.717 1213.64 664.709 1213.9 664.699V642.24L1213.12 642.244V664.725Z" fill="#D7D8D8"/>
<path d="M1297.05 610.372C1297.05 612.05 1296.5 613.795 1297.11 614.921C1298.03 615.015 1298.95 615.101 1299.86 615.13C1301.23 615.175 1302.6 615.18 1303.98 615.174C1304.71 613.906 1305.07 611.855 1304.83 609.63L1297.05 610.372V610.372Z" fill="#D7D8D8"/>
<path d="M1233.06 665.118L1233.43 665.096V635.967C1233.3 635.941 1233.18 635.916 1233.06 635.889V665.118Z" fill="#D7D8D8"/>
<path d="M1232.12 558.65L1231.74 558.637V581.119L1232.12 581.135V558.65V558.65Z" fill="#D7D8D8"/>
<path d="M1296.73 596.124C1296.87 597.434 1296.89 598.466 1297.13 599.461C1297.22 599.826 1297.81 600.108 1298.19 600.426L1298.18 600.428C1298.17 600.427 1298.2 600.438 1298.2 600.438V600.426C1299.12 600.331 1300.06 600.239 1300.99 600.141C1305.61 599.656 1305.75 599.484 1304.59 595.306C1301.97 595.577 1299.32 595.855 1296.73 596.124Z" fill="#D7D8D8"/>
<path d="M1232.01 584.459V606.662C1232.32 605.963 1232.91 605.258 1232.89 604.566C1232.69 597.86 1232.4 591.155 1232.13 584.452L1232.01 584.459V584.459Z" fill="#D7D8D8"/>
<path d="M1228.16 580.732L1228.59 580.735V559.782L1228.16 559.775V580.732V580.732Z" fill="#D7D8D8"/>
<path d="M1304.5 601.933C1302.13 602.158 1299.98 602.362 1297.9 602.561V607.987C1303.75 608.172 1304.85 607.186 1304.5 601.933V601.933ZM1298.66 607.157C1298.14 602.918 1298.78 602.388 1303.51 603.113C1303.54 606.922 1302.73 607.598 1298.66 607.157Z" fill="#D7D8D8"/>
<path d="M1229.37 599.003L1229.08 599.017V613.703L1229.37 613.699V599.003Z" fill="#D7D8D8"/>
<path d="M1229.36 632.877H1229.73V620.097H1229.36V632.877Z" fill="#D7D8D8"/>
<path d="M1226.41 651.133C1226.57 648.445 1226.81 644.349 1227.06 640.253L1226.41 640.244V651.133Z" fill="#D7D8D8"/>
<path d="M1219.42 573.218L1219.87 573.325V561.716L1219.42 561.731V573.218Z" fill="#D7D8D8"/>
<path d="M1229.95 664.299L1230.24 664.296V652.053H1229.95V664.299Z" fill="#D7D8D8"/>
<path d="M1152.07 648.317V659.286L1152.35 659.269V648.263L1152.07 648.317V648.317Z" fill="#D7D8D8"/>
<path d="M1046.87 628.895V669.695H1075.59V628.895H1046.87ZM1060.09 631.891H1062.45V635.879H1060.09V631.891ZM1059.99 638.759H1062.35V642.746H1059.99V638.759ZM1059.99 645.558H1062.35V649.546H1059.99V645.558ZM1059.99 652.236H1062.35V656.225H1059.99V652.236ZM1052.03 663.193H1049.67V659.205H1052.03V663.193ZM1052.03 656.224H1049.67V652.235H1052.03V656.224ZM1052.03 649.546H1049.67V645.558H1052.03V649.546ZM1052.03 642.746H1049.67V638.759H1052.03V642.746ZM1052.13 635.879H1049.77V631.891H1052.13V635.879ZM1057.15 663.193H1054.79V659.205H1057.15V663.193ZM1057.15 656.224H1054.79V652.235H1057.15V656.224ZM1057.15 649.546H1054.79V645.558H1057.15V649.546ZM1057.15 642.746H1054.79V638.759H1057.15V642.746ZM1057.25 635.879H1054.89V631.891H1057.25V635.879ZM1063.38 669.049H1058.97V659.203H1063.38V669.049ZM1067.47 663.193H1065.11V659.205H1067.47V663.193ZM1067.47 656.224H1065.11V652.235H1067.47V656.224ZM1067.47 649.546H1065.11V645.558H1067.47V649.546ZM1067.47 642.746H1065.11V638.759H1067.47V642.746ZM1067.57 635.879H1065.21V631.891H1067.57V635.879ZM1072.59 663.193H1070.23V659.205H1072.59V663.193ZM1072.59 656.224H1070.23V652.235H1072.59V656.224ZM1072.59 649.546H1070.23V645.558H1072.59V649.546ZM1072.59 642.746H1070.23V638.759H1072.59V642.746ZM1072.69 635.879H1070.33V631.891H1072.69V635.879Z" fill="#D0D1D0"/>
<path d="M1176.96 630.003V669.395H1204.69V630.003H1176.96ZM1189.72 632.896H1192V636.747H1189.72V632.896ZM1189.63 639.526H1191.91V643.376H1189.63V639.526ZM1189.63 646.091H1191.91V649.941H1189.63V646.091ZM1189.63 652.539H1191.91V656.39H1189.63V652.539ZM1181.95 663.118H1179.67V659.268H1181.95V663.118ZM1181.95 656.389H1179.67V652.538H1181.95V656.389ZM1181.95 649.942H1179.67V646.092H1181.95V649.942ZM1181.95 643.376H1179.67V639.526H1181.95V643.376ZM1182.04 636.747H1179.76V632.896H1182.04V636.747ZM1186.89 663.118H1184.61V659.268H1186.89V663.118ZM1186.89 656.389H1184.61V652.538H1186.89V656.389ZM1186.89 649.942H1184.61V646.092H1186.89V649.942ZM1186.89 643.376H1184.61V639.526H1186.89V643.376ZM1186.99 636.747H1184.71V632.896H1186.99V636.747ZM1192.9 668.771H1188.64V659.266H1192.9V668.771ZM1196.85 663.118H1194.57V659.268H1196.85V663.118ZM1196.85 656.389H1194.57V652.538H1196.85V656.389ZM1196.85 649.942H1194.57V646.092H1196.85V649.942ZM1196.85 643.376H1194.57V639.526H1196.85V643.376ZM1196.95 636.747H1194.67V632.896H1196.95V636.747ZM1201.8 663.118H1199.52V659.268H1201.8V663.118ZM1201.8 656.389H1199.52V652.538H1201.8V656.389ZM1201.8 649.942H1199.52V646.092H1201.8V649.942ZM1201.8 643.376H1199.52V639.526H1201.8V643.376ZM1201.89 636.747H1199.61V632.896H1201.89V636.747Z" fill="#D0D1D0"/>
<path d="M1247.01 620.976V669.57H1264.67V620.976H1247.01ZM1259.81 626.739H1262.09V630.601H1259.81V626.739ZM1259.81 632.965H1262.09V636.827H1259.81V632.965ZM1259.71 639.616H1262V643.476H1259.71V639.616ZM1259.71 646.198H1262V650.06H1259.71V646.198ZM1259.71 652.665H1262V656.526H1259.71V652.665ZM1252.01 663.275H1249.72V659.413H1252.01V663.275ZM1252.01 656.527H1249.72V652.666H1252.01V656.527ZM1252.01 650.061H1249.72V646.199H1252.01V650.061ZM1252.01 643.475H1249.72V639.615H1252.01V643.475ZM1252.1 636.827H1249.82V632.965H1252.1V636.827ZM1252.1 630.601H1249.82V626.739H1252.1V630.601ZM1256.97 663.275H1254.68V659.413H1256.97V663.275ZM1256.97 656.527H1254.68V652.666H1256.97V656.527ZM1256.97 650.061H1254.68V646.199H1256.97V650.061ZM1256.97 643.475H1254.68V639.615H1256.97V643.475ZM1257.06 636.827H1254.78V632.965H1257.06V636.827ZM1257.06 630.601H1254.78V626.739H1257.06V630.601ZM1262.99 668.944H1258.72V659.411H1262.99V668.944Z" fill="#A6A8A7"/>
<path d="M1275.83 614.78V669.701H1314.49V614.78H1275.83ZM1293.62 618.813H1296.8V624.181H1293.62V618.813ZM1293.49 628.057H1296.67V633.424H1293.49V628.057ZM1293.49 637.208H1296.67V642.577H1293.49V637.208ZM1293.49 646.2H1296.67V651.567H1293.49V646.2ZM1282.78 660.95H1279.6V655.581H1282.78V660.95ZM1282.78 651.567H1279.6V646.2H1282.78V651.567ZM1282.78 642.578H1279.6V637.209H1282.78V642.578ZM1282.78 633.423H1279.6V628.056H1282.78V633.423ZM1282.91 624.181H1279.73V618.813H1282.91V624.181ZM1289.67 660.95H1286.49V655.581H1289.67V660.95ZM1289.67 651.567H1286.49V646.2H1289.67V651.567ZM1289.67 642.578H1286.49V637.209H1289.67V642.578ZM1289.67 633.423H1286.49V628.056H1289.67V633.423ZM1289.8 624.181H1286.63V618.813H1289.8V624.181ZM1298.05 668.831H1292.11V655.578H1298.05V668.831ZM1303.56 660.95H1300.38V655.581H1303.56V660.95ZM1303.56 651.567H1300.38V646.2H1303.56V651.567ZM1303.56 642.578H1300.38V637.209H1303.56V642.578ZM1303.56 633.423H1300.38V628.056H1303.56V633.423ZM1303.69 624.181H1300.51V618.813H1303.69V624.181ZM1310.45 660.95H1307.28V655.581H1310.45V660.95ZM1310.45 651.567H1307.28V646.2H1310.45V651.567ZM1310.45 642.578H1307.28V637.209H1310.45V642.578ZM1310.45 633.423H1307.28V628.056H1310.45V633.423ZM1310.59 624.181H1307.41V618.813H1310.59V624.181Z" fill="#D0D1D0"/>
<path d="M1089.59 614.452V669.373H1128.26V614.452H1089.59ZM1107.38 618.484H1110.56V623.852H1107.38V618.484ZM1107.25 627.729H1110.43V633.096H1107.25V627.729ZM1107.25 636.881H1110.43V642.252H1107.25V636.881ZM1107.25 645.874H1110.43V651.24H1107.25V645.874ZM1096.54 660.621H1093.36V655.252H1096.54V660.621ZM1096.54 651.24H1093.36V645.874H1096.54V651.24ZM1096.54 642.252H1093.36V636.881H1096.54V642.252ZM1096.54 633.096H1093.36V627.729H1096.54V633.096ZM1096.67 623.853H1093.5V618.485H1096.67V623.853ZM1103.43 660.621H1100.26V655.252H1103.43V660.621ZM1103.43 651.24H1100.26V645.874H1103.43V651.24ZM1103.43 642.252H1100.26V636.881H1103.43V642.252ZM1103.43 633.096H1100.26V627.729H1103.43V633.096ZM1103.57 623.853H1100.39V618.485H1103.57V623.853ZM1111.81 668.502H1105.87V655.249H1111.81V668.502ZM1117.32 660.621H1114.14V655.252H1117.32V660.621ZM1117.32 651.24H1114.14V645.874H1117.32V651.24ZM1117.32 642.252H1114.14V636.881H1117.32V642.252ZM1117.32 633.096H1114.14V627.729H1117.32V633.096ZM1117.45 623.853H1114.28V618.485H1117.45V623.853ZM1124.21 660.621H1121.04V655.252H1124.21V660.621ZM1124.21 651.24H1121.04V645.874H1124.21V651.24ZM1124.21 642.252H1121.04V636.881H1124.21V642.252ZM1124.21 633.096H1121.04V627.729H1124.21V633.096ZM1124.35 623.853H1121.17V618.485H1124.35V623.853Z" fill="#A6A8A7"/>
<path d="M673 669.813H96" stroke="#A6A8AB" stroke-miterlimit="10"/>
<path d="M200.324 547.54L200.149 547.231L199.911 546.88L199.642 546.56L199.352 546.268L199.042 546.012L198.712 545.793L198.658 545.76L198.312 545.577L197.954 545.437L197.589 545.34L197.516 545.327L197.145 545.274L196.911 545.272L192.619 546.189L192.433 546.167L192.238 546.157L192.044 546.159L191.875 546.178L191.749 546.209L191.26 546.367L189.882 546.835L188.523 547.295L187.182 547.751L185.86 548.199L184.554 548.641L183.267 549.078L181.996 549.51L180.742 549.936L180.622 550.001L180.152 550.341L179.833 550.789L179.701 551.298L179.687 551.425L179.696 553.563L179.953 555.675L180.459 557.761L180.708 558.259L181.109 558.711L181.615 559.071L181.705 559.128L182.219 559.333L182.31 559.36L182.442 559.383L184.835 559.7L187.201 560.012L187.355 560.028L187.515 560.033L187.674 560.03L187.811 560.019L187.914 559.998L187.957 559.986L187.866 565.412L187.85 566.294C187.85 566.294 187.546 581.129 187.569 584.579C187.585 586.917 187.586 589.259 187.493 591.596C187.452 592.62 187.523 593.788 187.364 594.871L185.771 688.808H195.296L194.494 565.222L195.603 557.878L196.024 557.761L197.237 557.427L197.742 557.231L197.869 557.179L198.389 556.808L198.806 556.327L199.07 555.782L199.122 555.673L199.692 553.383L199.792 552.649L199.847 552.597L200.095 552.321L200.311 552.011L200.496 551.675L200.521 551.616L200.669 551.258L200.729 551.057L200.324 547.54V547.54Z" fill="#828487"/>
<path d="M232.505 507.519C232.371 507.377 232.238 507.233 232.105 507.09C231.212 507.623 230.198 508.02 229.451 508.713C226.944 511.028 224.497 513.408 222.113 515.85C215.732 522.416 209.462 529.096 203.02 535.599C200.503 538.14 198.134 540.584 197.871 544.458C197.861 544.6 197.802 544.775 197.724 544.958C197.373 544.992 197.024 545.088 196.691 545.261C196.443 545.395 196.216 545.565 196.018 545.766C181.57 541.028 166.065 535.921 151.717 531.256C150.582 530.888 149.345 530.845 148.156 530.651L147.914 531.188C148.737 531.825 149.482 532.629 150.398 533.069C153.456 534.551 156.552 535.951 159.684 537.269C168.088 540.786 176.553 544.157 184.922 547.754C188.191 549.16 191.319 550.463 194.956 549.25C195.089 549.206 195.27 549.198 195.466 549.201C195.896 550.029 196.666 550.554 197.513 550.704C202.235 565.333 207.284 581.048 212.006 595.555C212.38 596.703 213.074 597.742 213.619 598.832L214.189 598.713C214.213 597.663 214.415 596.58 214.228 595.57C213.61 592.191 212.905 588.829 212.114 585.487C209.974 576.527 207.681 567.605 205.625 558.626C204.822 555.119 204.021 551.788 200.914 549.521C200.8 549.437 200.685 549.291 200.571 549.125C200.918 548.405 200.964 547.553 200.653 546.769C210.427 534.988 220.939 522.351 230.609 510.636C231.373 509.709 231.879 508.563 232.505 507.519V507.519Z" fill="#828487"/>
<path d="M133.41 529.314L133.236 529.005L132.997 528.654L132.728 528.334L132.438 528.043L132.128 527.786L131.798 527.567L131.745 527.534L131.398 527.351L131.04 527.211L130.675 527.114L130.602 527.101L130.232 527.048L129.997 527.046L125.705 527.964L125.52 527.941L125.324 527.931L125.13 527.933L124.961 527.952L124.836 527.983L124.346 528.141L122.968 528.609L121.61 529.069L120.268 529.525L118.946 529.973L117.64 530.415L116.353 530.852L115.083 531.284L113.829 531.71L113.708 531.775L113.238 532.115L112.918 532.563L112.787 533.072L112.773 533.199L112.782 535.337L113.04 537.449L113.545 539.535L113.794 540.034L114.195 540.485L114.702 540.845L114.792 540.902L115.305 541.107L115.397 541.134L115.529 541.157L117.921 541.474L120.287 541.786L120.441 541.802L120.601 541.807L120.76 541.804L120.898 541.793L121 541.773L121.043 541.76L120.953 547.186L120.936 548.068C120.936 548.068 120.632 562.903 120.655 566.353C120.671 568.691 120.672 571.033 120.579 573.37C120.539 574.394 120.609 575.562 120.45 576.645L118.857 670.582H128.382L127.58 546.996L128.69 539.652L129.11 539.535L130.323 539.201L130.828 539.005L130.956 538.953L131.475 538.582L131.892 538.101L132.156 537.556L132.208 537.447L132.778 535.157L132.878 534.423L132.933 534.371L133.181 534.095L133.397 533.785L133.582 533.449L133.607 533.39L133.755 533.032L133.815 532.831L133.411 529.314H133.41Z" fill="#D9DADB"/>
<path d="M165.591 489.293C165.457 489.15 165.324 489.007 165.192 488.864C164.299 489.397 163.284 489.795 162.537 490.487C160.03 492.802 157.583 495.182 155.199 497.624C148.819 504.191 142.549 510.87 136.106 517.373C133.589 519.914 131.22 522.358 130.958 526.232C130.948 526.374 130.888 526.549 130.81 526.732C130.46 526.766 130.11 526.862 129.777 527.035C129.529 527.169 129.302 527.339 129.104 527.54C114.657 522.802 99.152 517.695 84.804 513.03C83.669 512.662 82.431 512.619 81.242 512.425L81 512.962C81.823 513.599 82.568 514.403 83.484 514.844C86.542 516.325 89.6384 517.725 92.77 519.043C101.174 522.56 109.64 525.931 118.008 529.528C121.278 530.934 124.405 532.237 128.042 531.024C128.175 530.98 128.356 530.972 128.552 530.975C128.754 531.366 129.044 531.705 129.4 531.966C129.755 532.227 130.165 532.402 130.599 532.478C135.321 547.108 140.371 562.822 145.092 577.329C145.466 578.477 146.16 579.517 146.705 580.606L147.275 580.487C147.3 579.438 147.501 578.354 147.315 577.344C146.697 573.966 145.991 570.603 145.2 567.261C143.06 558.301 140.767 549.379 138.712 540.4C137.909 536.893 137.108 533.562 134.001 531.295C133.886 531.211 133.771 531.065 133.657 530.899C134.005 530.179 134.051 529.328 133.739 528.543C143.513 516.762 154.025 504.126 163.695 492.41C164.459 491.483 164.965 490.337 165.591 489.293V489.293Z" fill="#D9DADB"/>
<text fill="#258999" xml:space="preserve" style="white-space: pre" font-family="Roboto" font-size="25" letter-spacing="0em"><tspan x="1186" y="528.568">1.920</tspan></text>
<text fill="#9E9FA0" xml:space="preserve" style="white-space: pre" font-family="Roboto" font-size="25" letter-spacing="0em"><tspan x="1255.98" y="528.568">/</tspan></text>
<text fill="#7CB8C2" xml:space="preserve" style="white-space: pre" font-family="Roboto" font-size="25" letter-spacing="0em"><tspan x="1272.49" y="528.568">28.300</tspan></text>
<text fill="#414143" xml:space="preserve" style="white-space: pre" font-family="Roboto" font-size="26" letter-spacing="0em"><tspan x="1186" y="466.763">TI technische</tspan><tspan x="1186" y="496.763">dienstverlening en R&#38;D</tspan></text>
<text fill="#258999" xml:space="preserve" style="white-space: pre" font-family="Roboto" font-size="25" letter-spacing="0em"><tspan x="1186" y="374.352">1.060</tspan></text>
<text fill="#9E9FA0" xml:space="preserve" style="white-space: pre" font-family="Roboto" font-size="25" letter-spacing="0em"><tspan x="1254.95" y="374.352">/</tspan></text>
<text fill="#7CB8C2" xml:space="preserve" style="white-space: pre" font-family="Roboto" font-size="25" letter-spacing="0em"><tspan x="1271.45" y="374.352">38.830</tspan></text>
<text fill="#414143" xml:space="preserve" style="white-space: pre" font-family="Roboto" font-size="26" letter-spacing="0em"><tspan x="1186" y="344.797">TI maken</tspan></text>
<text fill="#258999" xml:space="preserve" style="white-space: pre" font-family="Roboto" font-size="25" letter-spacing="0em"><tspan x="1186" y="163.914">6.060</tspan></text>
<text fill="#9E9FA0" xml:space="preserve" style="white-space: pre" font-family="Roboto" font-size="25" letter-spacing="0em"><tspan x="1255" y="163.914">/</tspan></text>
<text fill="#7CB8C2" xml:space="preserve" style="white-space: pre" font-family="Roboto" font-size="25" letter-spacing="0em"><tspan x="1271.51" y="163.914">94.150</tspan></text>
<text fill="#414143" xml:space="preserve" style="white-space: pre" font-family="Roboto" font-size="26" letter-spacing="0em"><tspan x="1186" y="134.856">TI handel</tspan></text>
<text fill="#7CB8C2" xml:space="preserve" style="white-space: pre" font-family="Roboto" font-size="25" letter-spacing="0em"><tspan x="248" y="506.743">34.620</tspan></text>
<text fill="#9E9FA0" xml:space="preserve" style="white-space: pre" font-family="Roboto" font-size="25" letter-spacing="0em"><tspan x="330.945" y="506.743">/</tspan></text>
<text fill="#258999" xml:space="preserve" style="white-space: pre" font-family="Roboto" font-size="25" letter-spacing="0em"><tspan x="347.449" y="506.743">2.060</tspan></text>
<text fill="#414143" xml:space="preserve" style="white-space: pre" font-family="Roboto" font-size="26" letter-spacing="0em"><tspan x="278" y="478.76">TI reparatie</tspan></text>
<text fill="#7CB8C2" xml:space="preserve" style="white-space: pre" font-family="Roboto" font-size="25" letter-spacing="0em"><tspan x="270" y="385.852">35.430  </tspan></text>
<text fill="#9E9FA0" xml:space="preserve" style="white-space: pre" font-family="Roboto" font-size="25" letter-spacing="0em"><tspan x="350.945" y="385.852">/</tspan></text>
<text fill="#258999" xml:space="preserve" style="white-space: pre" font-family="Roboto" font-size="25" letter-spacing="0em"><tspan x="367.449" y="385.852">400</tspan></text>
<text fill="#414143" xml:space="preserve" style="white-space: pre" font-family="Roboto" font-size="26" letter-spacing="0em"><tspan x="295" y="356.794">TI energie</tspan></text>
<text fill="#7CB8C2" xml:space="preserve" style="white-space: pre" font-family="Roboto" font-size="25" letter-spacing="0em"><tspan x="268" y="269.114">27.500</tspan></text>
<text fill="#9E9FA0" xml:space="preserve" style="white-space: pre" font-family="Roboto" font-size="25" letter-spacing="0em"><tspan x="350.315" y="269.114">/ </tspan></text>
<text fill="#258999" xml:space="preserve" style="white-space: pre" font-family="Roboto" font-size="25" letter-spacing="0em"><tspan x="366.819" y="269.114">440</tspan></text>
<text fill="#414143" xml:space="preserve" style="white-space: pre" font-family="Roboto" font-size="26" letter-spacing="0em"><tspan x="287" y="239.827">TI telecom</tspan></text>
<text fill="#7CB8C2" xml:space="preserve" style="white-space: pre" font-family="Roboto" font-size="25" letter-spacing="0em"><tspan x="244" y="142.92">98.850   </tspan></text>
<text fill="#9E9FA0" xml:space="preserve" style="white-space: pre" font-family="Roboto" font-size="25" letter-spacing="0em"><tspan x="326.983" y="142.92">/</tspan></text>
<text fill="#258999" xml:space="preserve" style="white-space: pre" font-family="Roboto" font-size="25" letter-spacing="0em"><tspan x="343.487" y="142.92">8.170</tspan></text>
<text fill="#414143" xml:space="preserve" style="white-space: pre" font-family="Roboto" font-size="26" letter-spacing="0em"><tspan x="200" y="111.862">TI advies/ontwerp</tspan></text>
<text fill="#258999" xml:space="preserve" style="white-space: pre" font-family="Roboto" font-size="24" letter-spacing="0em"><tspan x="278" y="53.5104">totaal: 29.070 </tspan></text>
<text fill="#258999" xml:space="preserve" style="white-space: pre" font-family="Roboto" font-size="26" font-weight="bold" letter-spacing="0em"><tspan x="278" y="23.8867">Bedrijven</tspan></text>
<text fill="#7CB8C2" xml:space="preserve" style="white-space: pre" font-family="Roboto" font-size="24" letter-spacing="0em"><tspan x="96" y="53.5104">totaal: 429.450 </tspan></text>
<text fill="#7CB8C2" xml:space="preserve" style="white-space: pre" font-family="Roboto" font-size="26" font-weight="bold" letter-spacing="0em"><tspan x="96" y="23.8867">Werknemers</tspan></text>
<path d="M933.028 101.151L948.483 89.1242C951.072 87.1207 953.608 85.1123 956.239 83.1138C957.575 82.1481 959.332 81.4603 961.067 81.8072C962.784 82.1211 964.197 83.1868 965.487 84.1206C970.796 87.8985 976.23 91.5005 981.691 95.0635C983.059 95.9653 984.418 96.817 985.797 97.7558C986.474 98.2516 987.123 98.8345 987.603 99.5763C988.081 100.32 988.325 101.219 988.314 102.088C988.32 102.959 988.135 103.798 987.893 104.597L987.2 106.939L985.861 111.639C984.112 117.916 982.477 124.231 980.658 130.504L979.967 132.853C979.729 133.639 979.524 134.376 979.459 135.142C979.281 136.669 979.833 138.11 980.902 139.235C981.946 140.346 983.306 141.365 984.499 142.458C985.728 143.535 986.947 144.624 988.151 145.729C992.978 150.138 997.613 154.76 1002.04 159.574C1004.26 161.978 1006.42 164.437 1008.52 166.943C1009.48 168.119 1010.75 168.847 1012.2 168.788C1013.63 168.775 1015.18 168.164 1016.76 167.742L1035.54 162.3L1040.24 160.939C1041.03 160.704 1041.91 160.452 1042.84 160.392C1043.76 160.313 1044.78 160.456 1045.68 160.887C1047.51 161.756 1048.49 163.468 1049.38 164.747L1052.13 168.779L1063.17 184.937C1063.66 185.681 1064.12 186.5 1064.38 187.462C1064.64 188.414 1064.67 189.51 1064.39 190.48C1064.13 191.456 1063.66 192.298 1063.14 193.035L1061.61 195.033L1055.64 202.785L1049.68 210.536L1046.7 214.412C1045.74 215.612 1045.07 216.8 1045.03 218.022C1044.96 219.259 1045.45 220.513 1046.23 221.91C1047 223.36 1047.76 224.817 1048.5 226.285C1049.97 229.219 1051.38 232.186 1052.72 235.182C1055.4 241.175 1057.82 247.283 1060.01 253.471L1060.82 255.796C1061.08 256.555 1061.32 257.176 1061.64 257.734C1062.29 258.813 1063.05 259.322 1064.38 259.553L1073.99 260.504L1083.71 261.532L1088.56 261.992L1090.98 262.192C1091.36 262.221 1091.82 262.257 1092.3 262.32C1092.78 262.389 1093.27 262.474 1093.78 262.626C1094.78 262.9 1095.9 263.467 1096.74 264.363C1097.57 265.254 1098.05 266.302 1098.35 267.249C1098.49 267.719 1098.61 268.203 1098.7 268.638L1098.94 269.835L1099.42 272.226C1100.08 275.413 1100.75 278.592 1101.45 281.762C1102.15 284.932 1102.89 288.091 1103.67 291.235C1103.87 292.051 1104.06 292.725 1104.27 293.711C1104.45 294.652 1104.56 295.666 1104.46 296.757C1104.37 297.842 1104.01 299.007 1103.41 299.986C1102.81 300.974 1102.02 301.747 1101.24 302.357C1100.45 302.967 1099.62 303.449 1098.86 303.864L1096.74 305.023C1095.33 305.806 1093.93 306.608 1092.52 307.42L1084.11 312.384L1079.86 314.859L1078.78 315.469L1078.24 315.773L1077.8 316.033C1077.23 316.386 1076.74 316.767 1076.36 317.167C1075.63 317.962 1075.31 318.834 1075.27 320.098C1075.25 320.718 1075.32 321.359 1075.41 322.238L1075.64 324.699C1076.22 331.263 1076.51 337.852 1076.53 344.44C1076.53 351.028 1076.27 357.615 1075.74 364.18C1075.71 364.645 1075.69 364.849 1075.7 365.095C1075.71 365.332 1075.74 365.52 1075.79 365.659C1075.88 365.938 1076 366.107 1076.38 366.437C1076.78 366.755 1077.37 367.098 1078.09 367.494L1080.22 368.682L1088.76 373.437L1097.3 378.192L1101.56 380.569L1103.7 381.758L1104.86 382.411C1105.29 382.667 1105.72 382.952 1106.15 383.285C1107 383.954 1107.88 384.894 1108.43 386.1C1108.98 387.304 1109.13 388.602 1109.06 389.675C1109.02 390.743 1108.77 391.794 1108.61 392.513L1108.09 394.89C1107.42 398.062 1106.76 401.237 1106.14 404.42C1105.52 407.602 1104.93 410.792 1104.38 413.986L1103.96 416.412C1103.79 417.366 1103.53 418.383 1103.01 419.434C1102.49 420.474 1101.64 421.547 1100.59 422.24C1099.54 422.946 1098.44 423.316 1097.45 423.539C1096.95 423.649 1096.46 423.728 1095.99 423.783L1094.75 423.924L1092.34 424.199L1087.51 424.791L1077.81 426.056C1074.58 426.48 1071.33 426.9 1068.07 427.279L1066.85 427.42C1066.44 427.469 1066.13 427.505 1065.8 427.566C1065.16 427.677 1064.64 427.847 1064.28 428.053C1063.92 428.252 1063.68 428.497 1063.41 428.891C1063.14 429.283 1062.9 429.841 1062.71 430.476C1060.76 436.773 1058.5 442.986 1055.98 449.078C1053.46 455.172 1050.67 461.153 1047.64 467.003L1047.07 468.1C1046.9 468.438 1046.77 468.705 1046.64 469.002C1046.4 469.579 1046.27 470.111 1046.24 470.576C1046.17 471.471 1046.55 472.369 1047.37 473.437L1053.37 481.139L1059.38 488.85L1062.37 492.713L1063.87 494.644L1064.68 495.705C1064.97 496.104 1065.25 496.506 1065.49 496.963C1066 497.853 1066.42 498.898 1066.58 500.051C1066.75 501.199 1066.63 502.404 1066.31 503.443C1065.99 504.49 1065.52 505.391 1065.02 506.201C1064.77 506.611 1064.49 506.989 1064.23 507.353L1063.51 508.331C1061.6 510.946 1059.72 513.584 1057.88 516.251C1056.04 518.917 1054.24 521.612 1052.49 524.332L1051.18 526.378C1050.73 527.089 1050.16 527.939 1049.44 528.674C1048.72 529.421 1047.77 530.127 1046.66 530.546C1045.55 530.98 1044.37 531.061 1043.35 530.976C1042.31 530.893 1041.36 530.654 1040.51 530.395L1038.18 529.692L1033.51 528.329L1024.1 525.672C1020.95 524.781 1017.8 523.872 1014.66 522.904C1013.17 522.416 1011.98 522.225 1011.03 522.542C1010.55 522.689 1010.08 522.967 1009.61 523.385C1009.13 523.796 1008.71 524.304 1008.14 524.969C1003.86 529.974 999.342 534.769 994.618 539.346C992.255 541.633 989.843 543.868 987.38 546.045C986.147 547.132 984.905 548.208 983.651 549.269L982.708 550.062L981.821 550.818C981.295 551.287 980.841 551.785 980.505 552.303C979.818 553.33 979.645 554.463 979.855 555.817C979.958 556.496 980.152 557.147 980.397 557.974L981.081 560.336C981.977 563.487 982.83 566.642 983.678 569.791C984.526 572.939 985.374 576.081 986.262 579.203L986.939 581.54C987.155 582.272 987.446 583.211 987.554 584.17C987.678 585.133 987.614 586.235 987.244 587.271C986.873 588.312 986.195 589.18 985.486 589.847C984.796 590.515 983.942 591.034 983.302 591.465L981.272 592.817L977.212 595.521L969.09 600.93L965.028 603.634L962.997 604.987C962.335 605.425 961.542 605.996 960.667 606.365C959.789 606.754 958.756 607.01 957.7 606.965C956.641 606.926 955.651 606.568 954.816 606.124C953.982 605.684 953.239 605.103 952.605 604.588L950.71 603.057C945.64 598.991 940.44 595.056 935.306 591.008L933.384 589.486C932.753 588.989 932.081 588.42 931.521 588.025C930.333 587.186 929.081 586.808 927.778 587.096C927.123 587.227 926.464 587.491 925.803 587.845L923.623 588.984C922.164 589.732 920.698 590.467 919.222 591.181C913.32 594.041 907.286 596.617 901.161 598.94C898.104 600.101 894.999 601.202 891.92 602.237C890.488 602.725 889.28 603.475 888.666 604.653C888.353 605.241 888.147 605.921 888.04 606.652C887.94 607.368 887.863 608.25 887.771 609.04L885.504 628.475L884.994 633.329L884.748 635.79C884.638 636.662 884.424 637.578 883.945 638.449C883.473 639.323 882.665 640.053 881.807 640.468C880.956 640.907 880.053 641.103 879.235 641.262L874.428 642.176C868.019 643.393 861.65 644.644 855.364 646.32C853.717 646.733 851.855 646.982 850.038 646.356C848.212 645.741 846.882 644.302 845.955 642.881C845.009 641.408 844.336 639.974 843.526 638.557L841.128 634.31L836.208 625.859L833.766 621.609L832.568 619.477C832.197 618.816 831.766 618.206 831.261 617.699C830.258 616.672 828.924 616.145 827.439 616.065C826.689 616.015 825.957 616.075 825.141 616.156L822.696 616.389C819.434 616.682 816.166 616.899 812.894 617.042C806.351 617.329 799.796 617.326 793.254 617.053C790.006 616.926 786.663 616.689 783.504 616.464C782.015 616.413 780.712 616.835 779.751 617.861C779.267 618.371 778.848 618.991 778.473 619.659L777.284 621.788L767.756 638.868L765.374 643.138L764.183 645.272C763.778 646.013 763.323 646.784 762.725 647.488C762.139 648.195 761.352 648.839 760.429 649.229C759.507 649.633 758.508 649.728 757.594 649.681C756.682 649.641 755.778 649.433 755.015 649.262L752.631 648.744C746.268 647.385 739.869 646.181 733.453 645.056L731.046 644.639C730.233 644.503 729.307 644.313 728.435 643.929C727.56 643.547 726.681 642.908 726.097 642.063C725.502 641.224 725.184 640.287 725.005 639.4C724.825 638.479 724.759 637.686 724.644 636.882L724.331 634.456L723.704 629.606L721.197 610.204C720.98 608.531 720.867 607.081 720.188 605.985C719.57 604.898 718.406 604.216 716.995 603.759C713.906 602.791 710.762 601.762 707.679 600.671C701.494 598.486 695.394 596.042 689.426 593.294C686.443 591.919 683.492 590.47 680.582 588.939C679.179 588.173 677.909 587.667 676.628 587.654C675.377 587.634 674.143 588.154 672.927 588.991C671.758 589.814 670.444 590.959 669.171 591.948L665.311 594.981L657.548 600.953C654.962 602.937 652.384 604.923 649.833 606.934C649.177 607.434 648.64 607.93 647.738 608.516C646.894 609.055 645.733 609.504 644.503 609.451C643.281 609.39 642.257 608.925 641.444 608.448C640.595 607.928 640.001 607.502 639.302 607.046L623.039 596.226L618.962 593.512C618.195 593.005 617.417 592.405 616.723 591.587C616.023 590.788 615.474 589.689 615.281 588.571C614.886 586.324 615.675 584.38 616.071 582.95L617.418 578.271L622.59 559.404L623.909 554.757C624.066 554.119 624.121 553.548 624.045 553.112C623.979 552.672 623.803 552.3 623.447 551.852C623.094 551.397 622.622 551.003 621.954 550.427L620.097 548.81C618.862 547.728 617.637 546.635 616.422 545.529C611.559 541.11 606.84 536.515 602.358 531.681C601.239 530.471 600.13 529.252 599.042 528.012L597.418 526.145L596.63 525.233C596.423 524.999 596.213 524.785 596.002 524.61C595.143 523.911 594.402 523.717 593.132 523.887C591.967 524.05 590.251 524.654 588.703 525.062L569.87 530.345L565.199 531.716L560.456 533.154C559.54 533.395 558.556 533.588 557.464 533.6C556.382 533.617 555.168 533.403 554.091 532.893C553.009 532.389 552.125 531.649 551.434 530.896C550.741 530.144 550.191 529.339 549.716 528.592C546.273 523.112 542.651 517.739 538.904 512.445L536.025 508.399C535.487 507.581 534.974 506.644 534.656 505.509C534.332 504.379 534.31 503.033 534.61 501.863C535.21 499.53 536.704 497.963 537.597 496.8L540.609 492.974L552.589 477.497L555.641 473.642L556.391 472.7C556.607 472.429 556.796 472.16 556.976 471.896C557.319 471.366 557.567 470.861 557.686 470.405C557.807 469.946 557.831 469.521 557.761 469.022C557.691 468.527 557.511 467.962 557.247 467.365C557.121 467.061 556.964 466.777 556.794 466.437L556.22 465.342L555.085 463.145C552.094 457.265 549.35 451.235 546.994 445.035C546.404 443.485 545.839 441.925 545.302 440.354L544.516 437.991L544.138 436.829C544.026 436.508 543.92 436.182 543.79 435.893C543.287 434.671 542.659 433.856 541.827 433.338C540.993 432.804 539.753 432.488 538.318 432.349L533.47 431.911L528.574 431.413L518.833 430.326C515.595 429.96 512.367 429.602 509.143 429.285L506.726 429.055L506.097 428.994C505.844 428.962 505.606 428.946 505.341 428.899C504.825 428.816 504.289 428.709 503.717 428.516C502.603 428.173 501.273 427.385 500.437 426.27C499.568 425.168 499.202 424.033 498.936 423.039L494.852 403.818L493.841 399.051L493.336 396.666C493.139 395.787 492.931 394.628 493.022 393.418C493.11 392.194 493.541 390.81 494.305 389.758C495.05 388.687 495.959 387.937 496.814 387.366C497.029 387.222 497.246 387.08 497.458 386.959L498.048 386.616L499.111 386.01L501.237 384.798L518.243 375.099L526.746 370.251C528.052 369.532 528.455 369.077 528.684 368.412C528.793 368.049 528.865 367.55 528.849 366.925C528.841 366.6 528.821 366.312 528.788 365.907L528.685 364.674C528.141 358.1 527.858 351.501 527.847 344.9C527.841 341.6 527.904 338.299 528.035 335C528.098 333.35 528.181 331.702 528.283 330.054L528.447 327.583L528.536 326.348C528.562 325.952 528.574 325.718 528.568 325.427C528.56 324.875 528.46 324.471 528.327 324.161C528.194 323.851 527.987 323.589 527.632 323.269C527.442 323.115 527.238 322.952 526.983 322.795C526.729 322.626 526.493 322.503 526.107 322.284L523.972 321.096L515.433 316.341L506.894 311.586L502.624 309.209L500.489 308.02C499.674 307.576 498.72 307.008 497.838 306.187C496.949 305.369 496.107 304.163 495.708 302.846C495.311 301.531 495.301 300.275 495.412 299.209C495.472 298.674 495.558 298.17 495.66 297.685L495.919 296.486L496.428 294.104C497.101 290.928 497.763 287.754 498.377 284.577C498.996 281.4 499.573 278.219 500.099 275.036L500.293 273.843L500.389 273.246L500.527 272.502C500.741 271.497 501.062 270.412 501.69 269.308C502.297 268.204 503.323 267.145 504.445 266.491C505.566 265.819 506.69 265.487 507.699 265.281C508.205 265.181 508.698 265.106 509.171 265.055L510.417 264.923L512.83 264.666L517.663 264.112L527.366 262.93C530.61 262.535 533.865 262.148 537.135 261.802L538.361 261.674L538.878 261.614C539.035 261.599 539.166 261.569 539.304 261.546C539.855 261.447 540.209 261.289 540.43 261.143C540.826 260.906 541.284 260.164 541.722 258.661C543.698 252.368 545.908 246.136 548.404 240.01C550.901 233.885 553.684 227.864 556.792 222.003L557.276 221.052C557.395 220.77 557.528 220.488 557.609 220.223C557.793 219.686 557.886 219.204 557.892 218.773C557.913 217.94 557.594 217.071 556.868 215.986C556.683 215.721 556.491 215.451 556.274 215.178L555.529 214.237L554 212.306L550.978 208.427C546.973 203.246 543.056 198.041 539.055 192.941L537.542 191.019C536.933 190.225 536.28 189.308 535.833 187.994C535.617 187.338 535.48 186.588 535.485 185.825C535.485 185.057 535.643 184.322 535.862 183.677C536.292 182.387 537.061 181.398 537.434 180.83L542.914 172.748L548.395 164.666L551.135 160.625L552.506 158.605C553.026 157.826 553.866 156.674 555.19 155.935C556.509 155.132 558.17 154.982 559.314 155.119C560.514 155.241 561.405 155.522 562.232 155.748L566.941 157.083L576.359 159.754L585.777 162.426L590.486 163.761L592.835 164.427C593.44 164.605 593.97 164.685 594.337 164.678C594.698 164.657 594.902 164.6 595.227 164.41C595.547 164.216 595.958 163.845 596.373 163.366C597.419 162.153 598.526 160.873 599.624 159.652C601.831 157.188 604.097 154.778 606.416 152.422C611.05 147.706 615.919 143.23 620.954 138.961C621.467 138.524 621.881 138.103 622.165 137.71C622.456 137.313 622.572 136.998 622.647 136.63C622.723 136.268 622.702 135.774 622.596 135.177C622.493 134.583 622.295 133.929 622.055 133.096C621.142 129.945 620.266 126.79 619.403 123.64C617.675 117.338 616 111.051 614.184 104.83L613.837 103.63C613.706 103.168 613.591 102.682 613.499 102.173C613.322 101.155 613.247 99.9811 613.502 98.7335C613.737 97.4818 614.403 96.2752 615.165 95.3894C615.934 94.4897 616.776 93.8469 617.593 93.311C620.4 91.5255 623.077 89.805 625.801 88.0065C628.511 86.223 631.208 84.4175 633.887 82.585L637.896 79.8198L638.895 79.123C639.284 78.855 639.713 78.5771 640.167 78.3252C641.072 77.8213 642.195 77.3824 643.466 77.2655C644.742 77.1275 646.053 77.4394 647.086 77.8993C648.134 78.3612 648.962 78.966 649.695 79.5468L653.538 82.574L661.224 88.6273L668.91 94.6806L672.753 97.7078L674.619 99.1744C675.175 99.5972 675.723 99.9441 676.23 100.169C677.234 100.596 678.069 100.598 679.282 100.165C679.576 100.051 679.877 99.9272 680.184 99.7732L681.253 99.2383L683.465 98.1357C686.423 96.6821 689.414 95.2964 692.433 93.9788C698.474 91.3495 704.629 88.9912 710.869 86.9008L713.196 86.133C713.841 85.9211 714.403 85.6551 714.83 85.3472C715.259 85.0363 715.546 84.6914 715.784 84.2205C716.015 83.7467 716.183 83.1458 716.281 82.465L717.401 72.8267L719.651 53.3881L719.932 50.9588L720.077 49.7191C720.126 49.2673 720.209 48.7934 720.323 48.3095C720.552 47.3518 721.014 46.2341 721.892 45.3654C722.772 44.5046 723.837 44.0607 724.776 43.8148C725.261 43.6848 725.723 43.6048 726.097 43.5259L727.294 43.2839L729.687 42.8001L734.474 41.8323L744.049 39.8969L748.837 38.9292L751.231 38.4453L752.428 38.2034C752.883 38.1124 753.365 38.0284 753.871 38.0064C754.869 37.9414 756.031 38.1254 757.012 38.6862C757.997 39.2401 758.694 40.0408 759.23 40.8146C759.772 41.6294 760.123 42.3392 760.53 43.041L761.726 45.1734L766.511 53.704L776.079 70.7613C776.779 72.0369 777.701 72.8167 778.974 72.9517C779.295 72.9847 779.631 72.9917 779.979 72.9677L781.197 72.8797L783.648 72.7097C786.917 72.4988 790.19 72.3498 793.464 72.2629C800.012 72.0909 806.565 72.1729 813.103 72.4998C814.738 72.5788 816.371 72.6797 818.004 72.7917L822.838 73.1556C823.525 73.1756 824.102 73.0107 824.584 72.6358C825.069 72.2499 825.476 71.645 825.866 70.9552L828.284 66.7074L837.963 49.7131L840.377 45.4613C841.182 44.0907 841.908 42.4712 843.322 41.2965C844.028 40.7197 844.911 40.3148 845.812 40.1658C846.715 40.0218 847.606 40.0898 848.451 40.2378L853.251 41.2935C859.617 42.6761 866.017 43.9068 872.432 45.0704C873.985 45.3774 875.771 45.5123 877.26 46.601C877.998 47.1299 878.554 47.9037 878.882 48.7234C879.224 49.5422 879.353 50.405 879.443 51.2317L880.544 60.951L882.776 80.3866C882.937 81.9782 883.221 83.5897 884.219 84.7464C884.707 85.3222 885.351 85.7571 886.053 86.089C886.753 86.4239 887.523 86.6319 888.31 86.8818C891.431 87.8475 894.529 88.8912 897.599 90.0079C903.739 92.2413 909.771 94.7686 915.678 97.5558C918.631 98.9424 921.556 100.424 924.443 101.911C925.883 102.6 927.418 103.19 928.981 103.178C930.559 103.179 931.973 102.394 933.028 101.151ZM933.422 101.566C932.902 102.166 932.232 102.755 931.471 103.147C930.709 103.548 929.844 103.752 928.99 103.762C927.265 103.776 925.664 103.15 924.181 102.448C921.264 100.958 918.366 99.5013 915.41 98.1237C909.511 95.3624 903.49 92.8611 897.364 90.6537C894.301 89.55 891.211 88.5203 888.098 87.5676C886.577 87.1237 884.818 86.5879 883.66 85.2213C882.488 83.8606 882.2 82.0691 882.028 80.4616L879.7 61.036L878.521 51.3247C878.369 49.7621 877.906 48.2146 876.688 47.3758C875.492 46.497 873.87 46.3461 872.256 46.0552C865.825 44.9425 859.403 43.7598 853.008 42.4242L848.244 41.4155C847.486 41.2875 846.726 41.2435 846.016 41.3635C845.309 41.4914 844.666 41.7914 844.109 42.2482C842.981 43.19 842.312 44.6306 841.501 46.0642L839.13 50.345L829.672 67.4812L827.308 71.768C826.903 72.4928 826.426 73.2996 825.64 73.9504C824.849 74.6082 823.758 74.9021 822.82 74.8731L817.893 74.5712C816.27 74.4812 814.647 74.4023 813.023 74.3463C806.528 74.1083 800.025 74.1143 793.534 74.3713C790.288 74.5012 787.046 74.6922 783.808 74.9451L781.381 75.1461L780.16 75.251C779.695 75.29 779.213 75.291 778.722 75.245C777.742 75.1451 776.701 74.7802 775.888 74.1443C775.065 73.5195 774.475 72.7267 774.015 71.936L764.211 54.9947L759.311 46.526L758.086 44.4086C757.669 43.7038 757.273 42.961 756.899 42.4252C756.072 41.2715 755.284 40.8076 754.038 40.9046C753.729 40.9206 753.406 40.9826 753.063 41.0546L751.866 41.3145L749.472 41.8353L744.684 42.8771L735.107 44.9605L725.662 47.0309C724.348 47.4338 723.957 47.8457 723.639 49.1013C723.573 49.4122 723.516 49.7431 723.483 50.102L723.361 51.2937L723.115 53.726L721.152 73.1876L720.157 82.9979C720.033 83.9306 719.809 84.9313 719.341 85.9331C718.877 86.9318 718.099 87.8875 717.212 88.5383C716.325 89.1991 715.388 89.623 714.491 89.9349L712.184 90.7337C706.085 92.8771 700.08 95.2795 694.198 97.9437C691.258 99.2783 688.349 100.679 685.473 102.145L683.323 103.256L682.213 103.832C681.794 104.049 681.344 104.247 680.879 104.429C679.945 104.786 678.87 105.054 677.718 105.068C676.569 105.089 675.394 104.827 674.408 104.401C673.418 103.975 672.585 103.433 671.837 102.88L669.84 101.346L665.964 98.3606L658.213 92.3913L650.462 86.4219L646.586 83.4367C646.04 83.0109 645.523 82.666 645.07 82.48C644.612 82.2981 644.28 82.2261 643.927 82.2751C643.573 82.3161 643.132 82.452 642.619 82.7489C642.361 82.8969 642.108 83.0639 641.826 83.2608L640.826 83.9746L636.812 86.8088C634.127 88.6863 631.426 90.5428 628.705 92.3713C625.998 94.1858 623.2 96.0112 620.515 97.7438C619.971 98.1017 619.52 98.4806 619.234 98.8275C618.95 99.1834 618.8 99.4533 618.738 99.8102C618.67 100.164 618.672 100.647 618.78 101.232C618.835 101.524 618.908 101.832 619.003 102.154L619.343 103.301C621.224 109.588 622.95 115.894 624.714 122.159C625.595 125.292 626.486 128.415 627.408 131.521C627.826 133.002 628.585 135.074 628.177 137.579C627.972 138.816 627.429 140.038 626.757 140.958C626.092 141.893 625.338 142.626 624.616 143.251C619.731 147.452 615.02 151.849 610.517 156.443C608.268 158.743 606.072 161.093 603.935 163.493C602.857 164.701 601.834 165.891 600.755 167.15C600.102 167.898 599.332 168.681 598.263 169.348C597.202 170.024 595.797 170.452 594.524 170.478C593.257 170.509 592.167 170.279 591.207 170.007L588.847 169.346L584.139 168.026L574.723 165.387L565.306 162.748L560.598 161.428C559.857 161.218 559.172 161.039 558.746 161.009C558.281 160.977 558.23 161.018 558.144 161.069C558.094 161.088 558.008 161.167 557.894 161.284C557.837 161.363 557.774 161.407 557.709 161.514L557.456 161.875L556.087 163.907L553.349 167.971L547.873 176.099L542.397 184.227C541.864 185.006 541.643 185.346 541.562 185.617C541.487 185.883 541.499 185.852 541.558 186.098C541.63 186.336 541.898 186.796 542.287 187.285L543.806 189.201C547.871 194.352 551.814 199.558 555.802 204.685L558.804 208.514L560.316 210.413L561.093 211.388C561.384 211.753 561.669 212.145 561.948 212.551C562.5 213.375 563.029 214.302 563.422 215.378C563.817 216.447 564.046 217.674 564.021 218.872C563.984 221.27 563.024 223.378 562.204 224.874C559.198 230.536 556.498 236.368 554.069 242.319C551.641 248.272 549.484 254.342 547.55 260.491C547.436 260.84 547.283 261.347 547.098 261.822C546.919 262.3 546.696 262.802 546.419 263.312C545.888 264.321 544.996 265.432 543.861 266.195C541.539 267.744 539.144 267.682 537.771 267.874C534.553 268.212 531.33 268.594 528.099 268.986L518.376 270.167L513.488 270.725L511.036 270.984L509.85 271.109C509.512 271.145 509.198 271.195 508.904 271.252C508.318 271.368 507.864 271.537 507.586 271.708C507.304 271.883 507.149 272.026 506.964 272.35C506.783 272.665 506.609 273.154 506.487 273.741L506.401 274.199L506.303 274.808L506.105 276.028C505.567 279.278 504.977 282.515 504.347 285.738C503.719 288.962 503.057 292.175 502.364 295.375L501.842 297.774L501.581 298.965C501.515 299.279 501.464 299.578 501.431 299.853C501.37 300.404 501.412 300.809 501.483 301.061C501.567 301.304 501.67 301.492 501.969 301.787C502.283 302.08 502.728 302.376 503.342 302.712L505.477 303.91L509.747 306.309L518.287 311.105L526.827 315.902L528.962 317.101C529.284 317.286 529.77 317.546 530.194 317.829C530.63 318.105 531.074 318.44 531.508 318.81C532.373 319.564 533.223 320.599 533.73 321.792C534.246 322.98 534.441 324.21 534.457 325.286C534.471 325.811 534.435 326.392 534.404 326.809L534.313 328.013L534.145 330.421C534.04 332.027 533.952 333.635 533.885 335.244C533.745 338.461 533.672 341.681 533.666 344.901C533.653 351.342 533.905 357.785 534.413 364.212C534.492 365.659 534.89 367.781 534.132 370.181C533.749 371.375 533.005 372.559 532.128 373.389C531.694 373.808 531.237 374.181 530.784 374.478C530.347 374.785 529.821 375.067 529.511 375.246L520.998 380.059L503.972 389.684L501.844 390.888L500.78 391.49L500.312 391.76C500.169 391.839 500.046 391.923 499.921 392.004C499.419 392.331 499.069 392.664 498.884 392.936C498.684 393.207 498.623 393.441 498.571 393.834C498.544 394.257 498.599 394.725 498.754 395.434L499.254 397.836L500.254 402.642L504.228 421.711C504.373 422.283 504.561 422.728 504.72 422.904C504.871 423.096 505.001 423.2 505.431 423.353C505.63 423.425 505.897 423.482 506.185 423.529C506.321 423.558 506.49 423.567 506.642 423.589L507.23 423.648L509.683 423.891C512.95 424.224 516.203 424.597 519.447 424.976L529.15 426.094L533.987 426.604L538.883 427.065C540.673 427.263 542.718 427.647 544.659 428.865C545.615 429.465 546.472 430.271 547.134 431.146C547.81 432.023 548.278 432.95 548.658 433.857C548.857 434.314 549.004 434.763 549.156 435.214L549.53 436.379L550.279 438.659C550.792 440.174 551.331 441.683 551.896 443.183C554.151 449.185 556.794 455.055 559.694 460.81L560.796 462.962L561.354 464.035C561.549 464.424 561.779 464.857 561.965 465.308C562.352 466.204 562.69 467.2 562.844 468.322C563.003 469.436 562.931 470.672 562.612 471.784C562.299 472.903 561.784 473.863 561.237 474.696C560.959 475.105 560.673 475.5 560.379 475.864L559.599 476.83L556.553 480.625L544.48 496.015L541.415 499.856L540.643 500.812C540.404 501.116 540.21 501.357 540.03 501.626C539.674 502.148 539.42 502.645 539.32 503.053C539.226 503.464 539.216 503.799 539.329 504.241C539.449 504.68 539.703 505.205 540.057 505.747L542.826 509.688C546.58 515.065 550.217 520.535 553.677 526.122C554.441 527.373 555.271 528.345 556.064 528.698C556.462 528.887 556.891 528.98 557.436 528.98C557.976 528.98 558.609 528.875 559.268 528.705L563.896 527.331L568.623 525.977L587.507 520.812L589.855 520.156L591.112 519.815C591.572 519.708 592.04 519.606 592.545 519.543C593.537 519.406 594.672 519.397 595.81 519.697C596.953 519.976 597.995 520.594 598.81 521.288C599.224 521.637 599.582 522.01 599.912 522.389L600.716 523.333L602.291 525.168C603.347 526.386 604.423 527.587 605.512 528.778C609.861 533.545 614.445 538.111 619.194 542.509C620.38 543.61 621.577 544.699 622.785 545.779L624.602 547.393C625.159 547.889 625.954 548.54 626.598 549.383C627.256 550.204 627.831 551.348 627.981 552.529C628.153 553.711 627.979 554.79 627.743 555.727L626.346 560.478L620.987 579.296L619.581 584.004L619.22 585.18C619.104 585.572 619.01 585.87 618.943 586.204C618.805 586.851 618.751 587.455 618.843 587.942C618.932 588.432 619.115 588.851 619.482 589.286C619.838 589.719 620.349 590.146 620.938 590.541L624.978 593.288L641.19 604.306C641.851 604.749 642.587 605.27 643.127 605.604C643.706 605.959 644.231 606.149 644.647 606.175C645.057 606.191 645.5 606.068 646.031 605.744C646.505 605.454 647.202 604.873 647.843 604.387C650.433 602.384 653.043 600.416 655.651 598.455L663.448 592.564L667.307 589.585C668.619 588.587 669.763 587.579 671.267 586.531C672.722 585.537 674.624 584.676 676.667 584.728C678.679 584.755 680.501 585.596 681.936 586.391C684.786 587.921 687.68 589.374 690.609 590.753C696.468 593.513 702.469 595.978 708.566 598.19C711.622 599.302 714.67 600.329 717.797 601.338C718.643 601.622 719.502 601.994 720.31 602.544C721.121 603.082 721.848 603.846 722.348 604.713C723.38 606.458 723.438 608.391 723.644 609.919L725.985 629.344L726.57 634.2L726.863 636.629C726.968 637.438 727.041 638.273 727.172 638.954C727.439 640.405 728.094 641.409 729.321 641.945C729.943 642.223 730.623 642.381 731.416 642.52L733.827 642.953C740.255 644.112 746.674 645.351 753.063 646.749L755.457 647.282C756.283 647.472 756.977 647.629 757.696 647.667C759.133 647.771 760.299 647.289 761.212 646.191C761.674 645.652 762.062 645.016 762.441 644.329L763.643 642.199L766.047 637.937L775.665 620.891L776.872 618.755C777.299 618.006 777.794 617.26 778.435 616.587C779.083 615.926 779.9 615.343 780.812 615.035C781.718 614.715 782.66 614.613 783.55 614.64C786.897 614.88 790.061 615.112 793.331 615.245C799.823 615.527 806.326 615.541 812.817 615.266C816.063 615.129 819.305 614.92 822.541 614.634L824.966 614.407C825.771 614.328 826.67 614.252 827.55 614.314C829.317 614.389 831.224 615.127 832.499 616.467C833.145 617.118 833.657 617.858 834.082 618.617L835.277 620.751L837.702 624.987L842.625 633.445L845.046 637.71C845.855 639.124 846.589 640.643 847.412 641.91C848.254 643.191 849.303 644.256 850.608 644.688C851.908 645.147 853.438 644.983 854.923 644.602C861.243 642.903 867.683 641.623 874.086 640.393L878.889 639.469C880.437 639.198 881.752 638.683 882.342 637.552C882.652 636.991 882.833 636.295 882.922 635.552L883.157 633.147L883.658 628.271C884.366 621.778 885.166 615.306 885.834 608.831C885.925 608.002 885.98 607.258 886.098 606.358C886.223 605.478 886.473 604.568 886.922 603.713C887.368 602.857 888.056 602.107 888.823 601.557C889.595 601.01 890.427 600.631 891.253 600.337C894.349 599.273 897.386 598.173 900.42 597C906.477 594.658 912.436 592.067 918.256 589.201C919.711 588.485 921.156 587.748 922.595 587L924.744 585.86C925.516 585.441 926.381 585.072 927.325 584.875C928.265 584.667 929.301 584.679 930.258 584.924C931.22 585.163 932.07 585.617 932.823 586.123C933.598 586.663 934.171 587.151 934.827 587.655L936.755 589.15C941.907 593.124 947.153 597.007 952.304 601.048L954.231 602.57C954.865 603.076 955.423 603.493 956.037 603.81C957.254 604.459 958.359 604.49 959.585 603.928C960.214 603.652 960.751 603.259 961.441 602.79L963.467 601.409L967.52 598.648L975.627 593.125L979.681 590.363L981.708 588.981L982.657 588.332C982.939 588.122 983.208 587.907 983.442 587.682C984.396 586.766 984.716 585.848 984.547 584.533C984.462 583.87 984.269 583.244 984.013 582.417L983.305 580.063C982.375 576.922 981.49 573.776 980.608 570.637C979.727 567.498 978.845 564.367 977.924 561.255L977.223 558.926C976.998 558.192 976.708 557.281 976.558 556.347C976.402 555.41 976.356 554.393 976.528 553.363C976.689 552.332 977.105 551.327 977.648 550.478C978.192 549.622 978.849 548.907 979.53 548.283L980.495 547.441L981.416 546.651C982.64 545.592 983.851 544.519 985.053 543.437C987.454 541.268 989.806 539.046 992.105 536.772C996.704 532.226 1001.09 527.47 1005.24 522.515C1006.21 521.333 1007.65 519.571 1009.84 518.88C1012.04 518.142 1014.23 518.684 1015.8 519.17C1018.9 520.092 1022.03 520.96 1025.17 521.816L1034.62 524.38L1039.35 525.708L1041.72 526.395C1042.42 526.601 1043.07 526.744 1043.67 526.784C1044.87 526.858 1045.54 526.57 1046.38 525.723C1046.8 525.285 1047.14 524.775 1047.56 524.107L1048.86 522.019C1050.62 519.241 1052.41 516.491 1054.25 513.771C1056.08 511.049 1057.96 508.356 1059.87 505.688L1060.59 504.689C1060.8 504.385 1061 504.106 1061.17 503.815C1061.53 503.24 1061.8 502.673 1061.95 502.156C1062.23 501.126 1062.1 500.309 1061.49 499.231C1061.35 498.97 1061.16 498.705 1060.97 498.439L1060.28 497.565L1058.76 495.647L1055.72 491.809L1049.66 484.12L1043.59 476.42C1042.99 475.658 1042.42 474.783 1041.99 473.739C1041.56 472.706 1041.34 471.482 1041.41 470.32C1041.47 469.153 1041.77 468.09 1042.15 467.163C1042.34 466.704 1042.57 466.24 1042.76 465.853L1043.31 464.776C1046.25 459.028 1048.95 453.161 1051.38 447.188C1053.81 441.215 1055.96 435.141 1057.87 428.974C1058.15 428.055 1058.53 427.084 1059.17 426.112C1059.79 425.149 1060.73 424.202 1061.8 423.626C1063.96 422.442 1066.01 422.446 1067.49 422.23C1070.71 421.851 1073.93 421.433 1077.16 421.006L1086.87 419.726L1091.75 419.123L1094.19 418.842L1095.38 418.706C1095.72 418.666 1096.04 418.612 1096.34 418.547C1096.93 418.416 1097.39 418.224 1097.7 418.017C1098.01 417.809 1098.21 417.56 1098.43 417.149C1098.64 416.74 1098.81 416.165 1098.92 415.516L1099.32 413.122C1099.88 409.889 1100.47 406.664 1101.09 403.445C1101.72 400.226 1102.37 397.013 1103.07 393.81L1103.6 391.41C1103.8 390.539 1103.92 389.993 1103.95 389.428C1103.95 388.315 1103.83 388.04 1102.99 387.3C1102.77 387.133 1102.53 386.964 1102.25 386.798L1101.29 386.252L1099.15 385.053L1094.88 382.653L1086.34 377.855L1077.8 373.056L1075.66 371.856C1074.96 371.459 1074.12 371.01 1073.24 370.304C1072.37 369.608 1071.42 368.45 1071.05 367.15C1070.85 366.513 1070.76 365.885 1070.74 365.309C1070.71 364.74 1070.78 364.13 1070.8 363.784C1071.34 357.349 1071.62 350.894 1071.65 344.441C1071.68 337.988 1071.46 331.532 1070.94 325.099L1070.74 322.688C1070.68 321.944 1070.56 320.961 1070.6 319.949C1070.64 318.943 1070.81 317.861 1071.21 316.809C1071.61 315.757 1072.25 314.766 1073.01 313.992C1073.76 313.21 1074.58 312.608 1075.4 312.109L1076.01 311.755L1076.54 311.461L1077.6 310.871L1081.82 308.462L1090.31 303.558C1091.73 302.748 1093.17 301.944 1094.62 301.156L1096.8 299.987C1097.47 299.63 1098.05 299.29 1098.56 298.903C1099.59 298.107 1100.04 297.39 1100.16 296.337C1100.21 295.805 1100.17 295.18 1100.05 294.519C1099.93 293.907 1099.71 293.006 1099.53 292.236C1098.78 289.039 1098.08 285.837 1097.42 282.63C1096.75 279.423 1096.12 276.213 1095.51 273.003L1095.05 270.595L1094.82 269.391C1094.75 269.025 1094.68 268.716 1094.6 268.404C1094.41 267.8 1094.17 267.336 1093.9 267.03C1093.62 266.729 1093.25 266.499 1092.68 266.33C1092.41 266.242 1092.09 266.181 1091.77 266.129C1091.44 266.083 1091.09 266.048 1090.66 266.009L1088.2 265.772L1083.32 265.24L1073.59 264.077L1063.75 262.956C1062.79 262.78 1061.76 262.434 1060.84 261.8C1059.91 261.183 1059.2 260.292 1058.7 259.429C1058.22 258.568 1057.89 257.652 1057.64 256.866L1056.87 254.561C1054.79 248.423 1052.49 242.363 1049.92 236.416C1048.64 233.442 1047.29 230.497 1045.88 227.583C1045.17 226.125 1044.45 224.677 1043.71 223.237C1042.93 221.805 1042.09 219.915 1042.24 217.855C1042.36 215.77 1043.5 214.026 1044.57 212.719L1047.61 208.882L1053.68 201.208L1059.74 193.534C1060.77 192.209 1061.83 191.093 1062.14 189.873C1062.51 188.698 1062.1 187.44 1061.27 186.187L1050.45 169.889L1047.74 165.807C1047.27 165.117 1046.88 164.449 1046.42 163.895C1045.96 163.338 1045.45 162.864 1044.87 162.591C1043.73 162.002 1042.27 162.231 1040.77 162.685L1036.05 163.985L1017.18 169.187L1014.81 169.837C1013.99 170.053 1013.12 170.226 1012.21 170.226C1011.31 170.24 1010.34 170.023 1009.52 169.576C1008.7 169.127 1008.02 168.499 1007.47 167.822C1005.41 165.302 1003.3 162.833 1001.13 160.412C996.781 155.576 992.191 150.957 987.424 146.528C986.234 145.419 985.029 144.326 983.813 143.244L981.983 141.63C981.381 141.1 980.727 140.555 980.157 139.91C979.584 139.274 979.082 138.526 978.785 137.679C978.472 136.836 978.415 135.919 978.499 135.058C978.577 134.197 978.823 133.356 979.062 132.585L979.769 130.248C981.631 124.006 983.313 117.706 985.112 111.433L986.489 106.735L987.201 104.393C987.434 103.635 987.601 102.861 987.596 102.099C987.605 101.336 987.403 100.603 987.002 99.9681C986.596 99.3353 986.016 98.8035 985.382 98.3376C984.067 97.4389 982.664 96.5531 981.312 95.6573C975.855 92.0813 970.422 88.4613 965.11 84.6644C963.786 83.6967 962.492 82.7399 960.955 82.452C959.433 82.1471 957.891 82.7289 956.607 83.6447C954.042 85.5852 951.458 87.6196 948.884 89.603L933.422 101.566Z" fill="#E6E7E8"/>
<path d="M801.221 345.243L1046.98 299.384C1054.86 341.584 1052.61 379.138 1039.75 420.097L801.221 345.243Z" fill="#E0EEF0" stroke="white" stroke-width="2" stroke-miterlimit="10"/>
<path d="M801.221 345.243L1039.75 420.097C1030.28 450.257 1016.73 475.819 997.075 500.582L801.221 345.243Z" fill="#E0EEF0" stroke="white" stroke-width="2" stroke-miterlimit="10"/>
<path d="M801.221 345.243L846.468 99.4343C950.215 118.521 1027.63 195.714 1046.98 299.384L801.221 345.243Z" fill="#E0EEF0" stroke="white" stroke-width="2" stroke-miterlimit="10"/>
<path d="M801.221 345.243L581.36 226.263C634.075 128.906 737.561 79.3979 846.468 99.4343L801.221 345.243Z" fill="#E0EEF0" stroke="white" stroke-width="2" stroke-miterlimit="10"/>
<path d="M801.221 345.243L553.915 308.614C558.427 278.164 566.703 253.333 581.361 226.263L801.221 345.243Z" fill="#E0EEF0" stroke="white" stroke-width="2" stroke-miterlimit="10"/>
<path d="M801.221 345.243L562.882 420.703C550.918 382.935 548.107 347.802 553.915 308.614L801.221 345.243Z" fill="#E0EEF0" stroke="white" stroke-width="2" stroke-miterlimit="10"/>
<path d="M801.221 345.243L620.092 517.517C593.349 489.415 574.596 457.68 562.882 420.702L801.221 345.243Z" fill="#E0EEF0" stroke="white" stroke-width="2" stroke-miterlimit="10"/>
<path d="M801.221 345.243L997.075 500.582C911.259 608.719 754.005 626.833 645.838 541.042C635.238 532.635 629.419 527.318 620.093 517.518L801.221 345.243Z" fill="#E0EEF0" stroke="white" stroke-width="2" stroke-miterlimit="10"/>
<path d="M802.956 504.907C853.143 504.851 897.914 481.753 927.286 445.641L801.668 346.008L686.766 455.293C716.016 485.907 757.266 504.958 802.956 504.907Z" fill="#7CB8C2"/>
<path d="M749.263 362.306C751.765 369.689 755.771 376.376 760.934 381.991L797.78 346.945L749.263 362.306Z" fill="#7CB8C2"/>
<path d="M771.704 341.386C771.594 342.437 771.536 343.502 771.537 344.582C771.54 347.47 771.958 350.259 772.719 352.903L797.176 345.16L771.704 341.386Z" fill="#7CB8C2"/>
<path d="M772.599 329.973C771.226 332.808 770.247 335.867 769.719 339.078L796.85 343.097L772.599 329.973Z" fill="#7CB8C2"/>
<path d="M827.402 199.003C818.999 197.529 810.354 196.762 801.527 196.772C745.739 196.835 697.211 227.791 672.098 273.43L800.874 343.118L827.402 199.003Z" fill="#7CB8C2"/>
<path d="M824.135 227.402L802.776 343.435L919.655 321.625C910.31 273.727 872.251 236.113 824.135 227.402Z" fill="#7CB8C2"/>
<path d="M843.859 337.905L805.735 345.019L842.616 356.593C843.772 352.765 844.398 348.707 844.393 344.501C844.39 342.256 844.204 340.053 843.859 337.905Z" fill="#7CB8C2"/>
<path d="M806.456 347.254L844.818 377.681C848.437 372.98 851.3 367.672 853.236 361.934L806.456 347.254Z" fill="#7CB8C2"/>
<path d="M588.563 441.736C589.115 441.038 588.981 440.336 588.981 440.336C588.981 440.336 592.423 419.381 592.51 417.101C592.596 414.829 593.864 412.997 593.864 411.25C593.864 410.225 594.397 405.065 594.839 400.958C594.443 399.315 593.994 397.598 593.785 397.216C593.386 396.481 593.884 395.146 593.336 394.585C592.238 393.435 591.016 392.901 592.001 390.929C592.475 389.98 593.636 391.041 593.836 391.552C593.852 391.596 593.873 391.622 593.895 391.646C593.905 391.655 593.915 391.662 593.926 391.669C593.944 391.68 593.963 391.688 593.983 391.689C593.994 391.692 594.008 391.692 594.02 391.69C594.042 391.689 594.064 391.684 594.088 391.677C594.1 391.673 594.113 391.669 594.126 391.662C594.15 391.651 594.175 391.637 594.201 391.62C594.214 391.61 594.229 391.601 594.244 391.589C594.263 391.576 594.284 391.559 594.302 391.543C594.324 391.525 594.346 391.505 594.368 391.485C594.372 391.481 594.375 391.478 594.379 391.473C594.482 391.374 594.575 391.263 594.633 391.19C594.823 390.966 595.203 391.536 595.401 391.125L595.474 385.71C595.474 385.71 593.103 384.843 592.001 382.215C590.903 379.586 590.311 379.502 589.044 378.017C587.772 376.527 587.602 374.603 587.602 370.846C587.602 367.08 589.551 362.011 589.802 360.18C590.053 358.339 591.739 354.311 592.67 353.217C593.599 352.119 600.495 350.117 600.495 350.117C600.495 350.117 601.069 348.677 601.678 348.392C602.292 348.111 602.481 347.716 603.283 346.973C604.09 346.231 605.533 346.435 605.533 346.435C605.533 346.435 605.524 346.137 605.466 345.906C605.457 345.866 605.453 345.835 605.438 345.804C605.411 345.733 605.373 345.675 605.32 345.653C605.111 345.564 604.306 343.812 603.968 342.896C603.63 341.981 603.419 339.966 603.586 337.784C603.754 335.601 605.654 333.142 610.034 332.288C614.412 331.44 616.947 335.023 616.947 335.023C616.947 335.023 616.661 335.059 617.052 335.37C617.443 335.69 617.581 336.4 617.507 336.245C617.442 336.116 617.105 335.84 617.011 335.774C617.065 335.814 617.167 335.93 617.327 336.268C617.56 336.748 616.989 337.905 617.056 337.575C617.118 337.25 616.778 336.792 616.778 336.792C616.778 336.792 616.78 336.805 616.787 336.841C616.791 336.85 616.791 336.868 616.793 336.881C616.797 336.907 616.801 336.937 616.804 336.973C616.818 337.132 616.83 337.437 616.777 338.016C616.695 338.976 616.842 338.545 617.032 339.305C617.223 340.066 617.303 340.461 616.988 341.004C616.668 341.556 616.337 341.996 616.503 342.249C616.668 342.516 616.946 342.689 617.055 343.347C617.162 344.005 616.526 343.805 616.419 344.067C616.312 344.325 616.419 344.832 616.397 345.183C616.379 345.53 615.89 345.641 616.121 345.726C616.355 345.815 616.355 346.011 616.228 346.144C616.101 346.273 615.785 347.322 615.827 348.265C615.832 348.438 615.806 348.581 615.763 348.696C615.754 348.718 615.747 348.745 615.741 348.758C615.694 348.865 615.636 348.949 615.565 349.007C615.561 349.015 615.556 349.02 615.552 349.024C615.543 349.033 615.542 349.033 615.535 349.037C615.403 349.139 615.264 349.193 615.17 349.211H615.169C615.153 349.215 615.157 349.211 615.142 349.215C615.098 349.219 615.069 349.224 615.069 349.224C615.069 349.224 615.486 349.789 615.787 350.179C616.083 350.575 617.204 352.105 617.204 352.105C617.204 352.105 617.255 351.989 618.271 352.474C619.286 352.954 621.827 354.483 622.588 355.008C623.348 355.529 625.169 360.166 625.508 362.046C625.846 363.927 626.437 365.323 627.327 366.942C628.217 368.56 628.172 369.169 628.132 369.912C628.088 370.659 628.259 371.922 628.259 373.411C628.259 374.901 627.497 376.168 627.497 376.168C627.497 376.168 627.711 377.084 627.877 378.178C628.048 379.271 627.582 380.979 627.074 381.632C626.567 382.286 627.074 382.201 627.199 383.116C627.328 384.037 627.581 384.295 626.945 384.641C626.311 384.997 625.891 386.001 625.339 386.655C624.787 387.309 624.07 387.353 623.52 387.531C622.971 387.709 622.547 388.19 622.039 389.323C621.528 390.456 622.422 395.926 622.079 396.272C621.743 396.624 621.04 396.463 621.04 396.463C621.04 396.463 621.207 401.362 620.953 403.461C620.7 405.559 618.398 438.02 618.398 438.02C618.398 438.02 619.457 439.51 620.431 440.598C621.402 441.692 621.699 443.356 621.487 444.053C620.875 446.076 616.897 445.676 615.518 444.929C614.718 444.489 614.462 443.356 613.997 442.476C613.534 441.604 612.474 441.341 611.711 440.687C610.951 440.029 611.135 438.354 611.135 438.354L609.612 436.167C609.612 436.167 609.298 418.817 609.298 413.566C609.298 408.324 608.112 400.454 608.112 400.454C606.563 401.535 604.444 412.641 602.753 421.827C601.059 431.003 597.152 440.469 597.152 440.469L595.755 440.905C595.755 440.905 595.713 442.172 595.673 442.786C595.633 443.394 594.659 443.785 594.53 444.092C594.404 444.399 594.404 445.8 594.192 446.542C593.978 447.284 593.302 447.59 591.911 447.937C590.515 448.292 587.886 448.114 587.589 447.545C587.295 446.981 587.126 445.843 587.084 444.878C587.038 443.923 588.012 442.439 588.563 441.736Z" fill="#414143"/>
<path d="M801.506 344.605L997.36 499.945C911.544 608.082 754.29 626.197 646.123 540.404C635.523 531.997 629.704 526.68 620.378 516.88L801.506 344.605Z" stroke="#2E8C9D" stroke-width="3" stroke-miterlimit="10"/>
<path d="M802.776 367.49C815.45 367.49 825.724 357.218 825.724 344.548C825.724 331.878 815.45 321.606 802.776 321.606C790.102 321.606 779.828 331.878 779.828 344.548C779.828 357.218 790.102 367.49 802.776 367.49Z" fill="white"/>
<path d="M732.125 236.266V281.885H793.152V236.266H732.125ZM755.903 245.998H760.114V253.015H755.903V245.998ZM746.769 245.998H750.98V253.015H746.769V245.998ZM737.981 245.998H742.192V253.015H737.981V245.998ZM760.116 280.718H737.982V260.185H760.116V280.718ZM765.038 245.998H769.249V253.015H765.038V245.998ZM769.318 267.2H765.107V260.184H769.318V267.2ZM774.31 245.998H778.521V253.015H774.31V245.998ZM778.59 267.2H774.379V260.184H778.59V267.2ZM783.445 245.998H787.656V253.015H783.445V245.998ZM787.724 267.2H783.513V260.184H787.724V267.2Z" fill="#414143"/>
<path d="M543.917 458.232L543.423 457.364L520.25 469.447H436.29C436.053 468.13 434.906 467.128 433.52 467.128C431.963 467.128 430.7 468.391 430.7 469.947C430.7 471.504 431.963 472.766 433.52 472.766C434.906 472.766 436.053 471.765 436.29 470.447H520.515L543.917 458.232Z" fill="#919494"/>
<path d="M1170.01 335.926C1168.42 335.929 1167.11 337.078 1166.84 338.588L1091.35 338.729L1091.35 339.873L1166.84 339.732C1167.12 341.24 1168.43 342.386 1170.02 342.383C1171.8 342.38 1173.24 340.932 1173.24 339.149C1173.24 337.366 1171.79 335.923 1170.01 335.926Z" fill="#919494"/>
<path d="M1170.45 124.808C1168.86 124.812 1167.55 125.962 1167.29 127.471L1035.85 127.829H1035.65L1011.04 141.361L1011.75 142.257L1036.05 128.973L1167.29 128.615C1167.56 130.123 1168.88 131.267 1170.47 131.263C1172.25 131.259 1173.69 129.811 1173.69 128.028C1173.68 126.247 1172.23 124.804 1170.45 124.808Z" fill="#919494"/>
<path d="M537.89 232.468H436.275C436.038 231.151 434.891 230.149 433.505 230.149C431.948 230.149 430.685 231.412 430.685 232.968C430.685 234.525 431.948 235.787 433.505 235.787C434.891 235.787 436.038 234.786 436.275 233.468H537.89V232.468Z" fill="#919494"/>
<path d="M518.686 348.232L436.29 348.216C436.054 346.898 434.907 345.897 433.521 345.897C431.964 345.897 430.701 347.158 430.701 348.715C430.701 350.271 431.963 351.534 433.52 351.534C434.906 351.534 436.053 350.532 436.29 349.215L518.686 349.231V348.232Z" fill="#919494"/>
<path d="M1154.11 456.679C1152.53 456.679 1151.21 457.825 1150.94 459.334H1074.69V460.479H1150.94C1151.21 461.987 1152.53 463.135 1154.11 463.135C1155.9 463.135 1157.34 461.689 1157.34 459.907C1157.34 458.124 1155.9 456.679 1154.11 456.679Z" fill="#919494"/>
<path d="M595.139 142.968L594.431 143.674L537.084 106.047H434.589C434.352 107.365 433.205 108.367 431.819 108.367C430.262 108.367 428.999 107.104 428.999 105.548C428.999 103.991 430.262 102.728 431.819 102.728C433.205 102.728 434.352 103.73 434.589 105.048H537.498L595.139 142.968Z" fill="#919494"/>
<path d="M800.32 639.822L800.32 730.411C799.002 730.648 798 731.795 798 733.181C798 734.737 799.263 736 800.82 736C802.377 736 803.64 734.737 803.64 733.181C803.64 731.795 802.638 730.648 801.32 730.411L801.32 639.822L800.32 639.822Z" fill="#919494"/>
<text fill="#074953" xml:space="preserve" style="white-space: pre" font-family="Roboto" font-size="30" font-weight="bold" letter-spacing="0em"><tspan x="763" y="440.639">8.960</tspan></text>
<text fill="#258999" xml:space="preserve" style="white-space: pre" font-family="Roboto" font-size="30" font-weight="bold" letter-spacing="0em"><tspan x="744" y="543.61">135.260</tspan></text>
<text fill="#414143" xml:space="preserve" style="white-space: pre" font-family="Roboto" font-size="26" letter-spacing="0em"><tspan x="749" y="465.764">bedrijven</tspan></text>
<text fill="#414143" xml:space="preserve" style="white-space: pre" font-family="Roboto" font-size="26" letter-spacing="0em"><tspan x="729" y="568.735">werknemers</tspan></text>
</svg>
