<?xml version="1.0" encoding="utf-8"?>
<!-- Generator: Adobe Illustrator 16.2.0, SVG Export Plug-In . SVG Version: 6.00 Build 0)  -->
<!DOCTYPE svg PUBLIC "-//W3C//DTD SVG 1.1//EN" "http://www.w3.org/Graphics/SVG/1.1/DTD/svg11.dtd">
<svg version="1.1" id="logo-otib" xmlns="http://www.w3.org/2000/svg" xmlns:xlink="http://www.w3.org/1999/xlink" x="0px" y="0px"
	 width="40px" height="44px" viewBox="0 0 40 44" enable-background="new 0 0 40 44" xml:space="preserve">
<path id="B" fill="#EF7D00" d="M27.382,35.087h4.003c1.508,0,2.234,0.677,2.234,1.911c0,1.619-1.16,2.002-2.496,2.002h-3.742
	L27.382,35.087L27.382,35.087z M21,44h11.748C36.403,44,40,41.824,40,37.619c0-3.088-1.74-4.587-3.597-5.236
	c1.538-0.854,2.552-2,2.552-4.119c0-2.146-1.16-5.264-6.614-5.264H21V44z M27.382,27.999h3.365c1.305,0,2.175,0.381,2.175,1.442
	c0,1.352-0.841,1.734-2.175,1.734h-3.365V27.999z"/>
<polygon id="I" fill="#EF7D00" points="19,27.997 19,23 1,23 1,27.997 6.876,27.997 6.876,38.886 1.061,38.886 1.061,44 19,44 
	19,38.886 13.253,38.886 13.253,27.997 "/>
<path id="T" d="M27.807,5.382H22V0h18v5.383h-5.808V21h-6.386V5.382z"/>
<path id="O" d="M6.381,10.5c0-4.465,2.496-5.503,4.119-5.503c1.624,0,4.119,1.038,4.119,5.503s-2.496,5.502-4.119,5.502
	C8.876,16.003,6.381,14.965,6.381,10.5z M0,10.5C0,16.62,4.207,21,10.5,21C16.793,21,21,16.62,21,10.5C21,4.379,16.794,0,10.501,0
	C4.207,0,0,4.379,0,10.5z"/>
</svg>
