<svg xmlns:dc="http://purl.org/dc/elements/1.1/" xmlns:cc="http://creativecommons.org/ns#" xmlns:rdf="http://www.w3.org/1999/02/22-rdf-syntax-ns#" xmlns:svg="http://www.w3.org/2000/svg" xmlns="http://www.w3.org/2000/svg" xmlns:xlink="http://www.w3.org/1999/xlink" version="1.1" x="0px" y="0px" width="370px" height="52px" viewBox="0 0 370 52" enable-background="new 0 0 370 52" xml:space="preserve">
<g>
	<path fill="#2E8D9E" d="M244.05 23.975c-4.433-0.681-5.715-3.315-5.715-7.629c0-5.856 3.667-8.354 11.126-8.354 c5.195 0 10.9 1.4 11.1 8.445h-8.62c0-0.636-0.152-1.18-0.581-1.542c-0.427-0.364-1.131-0.635-2.262-0.635 c-2.292 0-2.72 0.771-2.72 1.725c0 0.6 0.4 1.3 2 1.543l7.274 0.954c4.127 0.5 5.7 3.3 5.7 7.5 c0 6.401-3.729 8.855-11.798 8.855c-7.947 0-11.401-2.453-11.646-8.72h8.986c0.092 1 0.4 1.6 0.9 2 c0.55 0.4 1.3 0.5 2.2 0.455c1.956 0 2.537-0.771 2.537-1.907c0-0.727-0.245-1.407-1.039-1.542L244.05 23.975z"/>
	<path fill="#2E8D9E" d="M102.837 26.379c-0.581 2.588-1.865 4.723-3.821 6.176c-1.956 1.454-4.584 2.27-8.1 2.3 c-8.04 0-12.625-4.358-12.625-13.439c0-8.581 4.402-13.395 11.92-13.395c7.397 0 12.8 3.7 12.7 16.074H86.118 c0 1.8 1.3 4.5 4.6 4.496c1.987 0 3.148-0.636 3.974-2.181h8.146V26.379z M95.227 18.343c-0.152-2.679-1.895-4.358-4.524-4.358 c-2.659 0-4.188 1.226-4.584 4.358H95.227z"/>
	<rect x="195.7" y="0.3" fill="#2E8D9E" width="7.6" height="33.6"/>
	<path fill="#2E8D9E" d="M167.881 16.073h-3.545V8.99h3.545V6.356c0-4.541 1.803-6.356 6.754-6.356c1.467 0 3.4 0 5 0.272v5.995 h-2.292c-1.406 0-1.834 0.636-1.834 1.998v0.727h4.126v7.083h-4.126v17.754h-7.642V16.073H167.881z M181.727 0.272h7.642v6.267 h-7.642V0.272z M181.727 8.99h7.642v24.837h-7.642V8.99z"/>
	<path fill="#2E8D9E" d="M152.139 31.194h-0.061c-1.375 2.362-3.483 3.633-6.876 3.633c-4.952 0-9.505-4.042-9.505-13.259 s4.553-13.259 9.505-13.259c3.118 0 5.3 1.1 6.6 3.496h0.061V0.272h7.642v33.555h-7.397v-2.633H152.139z M147.677 15.9 c-2.751 0-4.157 2.452-4.157 5.631c0 3.3 1.2 5.6 4.2 5.629c2.935 0 4.188-2.088 4.188-5.629 c-0.013-3.537-1.315-5.631-4.214-5.631"/>
	<path fill="#2E8D9E" d="M108.493 8.99h7.397v3.087h0.062c0.794-1.588 3.239-3.769 6.906-3.769c4.219 0 7.4 2.8 7.4 9.67v15.802 h-7.641v-12.85c0-3.134-1.131-4.496-2.934-4.496c-2.018 0-3.545 1.771-3.545 5.902V33.78h-7.642V8.99H108.493z"/>
	<path fill="#2E8D9E" d="M233.352 26.379c-0.581 2.588-1.865 4.723-3.82 6.176c-1.956 1.454-4.585 2.27-8.099 2.3 c-8.04 0-12.624-4.358-12.624-13.439c0-8.581 4.401-13.395 11.921-13.395c7.396 0 12.8 3.7 12.7 16.074h-16.811 c0 1.8 1.3 4.5 4.6 4.496c1.987 0 3.148-0.636 3.974-2.181h8.161V26.379z M225.74 18.343c-0.152-2.679-1.895-4.358-4.523-4.358 c-2.659 0-4.188 1.226-4.584 4.358H225.74z"/>
	<path fill="#2E8D9E" d="M57.265 8.99h7.397v4.768h0.061c1.987-3.859 4.492-5.449 7.122-5.449c0.825 0 1.7 0.1 2.5 0.299v10.144 c-1.345-0.499-2.476-0.907-3.821-0.907c-2.721 0-5.625 1.317-5.625 6.674v9.309h-7.642V8.99H57.265z"/>
	<polygon fill="#2E8D9E" points="38.5,9.6 30.6,9.6 30.6,1.4 55.1,1.4 55.1,9.6 47.1,9.6 47.1,33.8 38.5,33.8"/>
	<path fill="#2E8D9E" d="M3.075 25.291c-0.631 0-1.244-0.166-1.839-0.5C0.412 24.3 0 23.7 0 22.838v-0.727 c0-0.877 0.412-1.528 1.236-1.952c0.595-0.333 1.208-0.498 1.839-0.498c0.631 0 1.2 0.2 1.8 0.5 c0.824 0.4 1.2 1.1 1.2 1.994v0.727c0 0.848-0.412 1.499-1.236 1.952C4.318 25.1 3.7 25.3 3.1 25.3"/>
	<path fill="#2E8D9E" d="M13.638 25.291c-0.631 0-1.244-0.166-1.839-0.5c-0.824-0.423-1.236-1.074-1.236-1.952v-0.727 c0-0.877 0.412-1.528 1.236-1.952c0.595-0.333 1.208-0.498 1.839-0.498c0.631 0 1.2 0.2 1.8 0.5 c0.824 0.4 1.2 1.1 1.2 1.994v0.727c0 0.848-0.412 1.499-1.236 1.952c-0.52 0.289-1.102 0.488-1.802 0.5"/>
	<path fill="#2E8D9E" d="M24.2 25.291c-0.631 0-1.244-0.166-1.839-0.5c-0.824-0.423-1.236-1.074-1.236-1.952v-0.727 c0-0.877 0.412-1.528 1.236-1.952c0.595-0.333 1.208-0.498 1.839-0.498c0.63 0 1.2 0.2 1.8 0.5 c0.824 0.4 1.2 1.1 1.2 1.952v0.727c0 0.848-0.412 1.498-1.236 1.952c-0.52 0.331-1.165 0.53-1.764 0.5"/>
	<path fill="#424244" d="M38.238 45.709c0-1.347 0.363-2.402 1.088-3.165c0.725-0.761 1.662-1.142 2.81-1.142 c0.751 0 1.4 0.2 2 0.537c0.603 0.4 1.1 0.9 1.4 1.499c0.316 0.6 0.5 1.4 0.5 2.193c0 0.822-0.167 1.558-0.5 2.2 c-0.333 0.649-0.805 1.142-1.417 1.474c-0.61 0.335-1.27 0.501-1.977 0.498c-0.767 0-1.452-0.184-2.055-0.554 c-0.604-0.369-1.061-0.873-1.371-1.512c-0.322-0.693-0.518-1.292-0.518-1.989 M39.349 45.758c0 1 0.3 1.8 0.8 2.3 c0.5 0.5 1.2 0.8 2 0.845c0.811 0 1.478-0.284 2.002-0.853c0.523-0.567 0.786-1.375 0.786-2.418 c0-0.66-0.112-1.238-0.336-1.729c-0.224-0.493-0.552-0.876-0.982-1.146c-0.431-0.271-0.916-0.407-1.452-0.407 c-0.764 0-1.419 0.261-1.969 0.782c-0.574 0.521-0.8 1.319-0.8 2.6"/>
	<path fill="#424244" d="M50.061 49.661l-2.244-5.879h1.055l1.266 3.521c0.137 0.4 0.3 0.8 0.4 1.2 c0.089-0.31 0.212-0.683 0.372-1.119l1.311-3.587h1.027l-2.233 5.879h-0.954V49.661z"/>
	<path fill="#424244" d="M59.283 47.768l1.033 0.127c-0.163 0.602-0.464 1.068-0.905 1.4c-0.441 0.333-1.004 0.498-1.688 0.5 c-0.863 0-1.545-0.265-2.052-0.795c-0.506-0.529-0.758-1.272-0.758-2.228c0-0.988 0.255-1.757 0.767-2.303 c0.511-0.545 1.172-0.818 1.987-0.818c0.789 0 1.4 0.3 1.9 0.802c0.5 0.5 0.8 1.3 0.8 2.293c0 0.06-0.002 0.147-0.006 0.3 h-4.398c0.037 0.6 0.2 1.1 0.5 1.483c0.33 0.3 0.7 0.5 1.2 0.499c0.366 0 0.679-0.097 0.938-0.289 c0.323-0.255 0.495-0.554 0.695-0.953 M56.001 46.157h3.292c-0.045-0.494-0.17-0.864-0.377-1.112 c-0.319-0.385-0.731-0.576-1.239-0.576c-0.459 0-0.845 0.153-1.158 0.499c-0.313 0.292-0.523 0.69-0.523 1.2"/>
	<path fill="#424244" d="M62.697 49.661v-5.879h0.9v0.893c0.229-0.417 0.441-0.692 0.635-0.825c0.195-0.133 0.408-0.199 0.642-0.199 c0.336 0 0.7 0.1 1 0.321l-0.345 0.924c-0.244-0.144-0.488-0.215-0.733-0.215c-0.218 0-0.414 0.065-0.588 0.2 c-0.174 0.132-0.298 0.313-0.372 0.546c-0.112 0.354-0.167 0.741-0.167 1.162v3.078h-0.972V49.661z"/>
	<path fill="#424244" d="M74.114 48.77l0.144 0.88c-0.281 0.06-0.533 0.089-0.755 0.089c-0.363 0-0.645-0.058-0.844-0.171 c-0.2-0.114-0.341-0.265-0.422-0.451c-0.081-0.188-0.123-0.58-0.123-1.178v-3.383H71.38v-0.774h0.733v-1.456l0.995-0.599v2.055 h1.005v0.774h-1.005v3.438c0 0.3 0 0.5 0.1 0.548c0.035 0.1 0.1 0.1 0.2 0.2c0.08 0 0.2 0.1 0.3 0.1 c0.077 0 0.188-0.066 0.388-0.066"/>
	<path fill="#424244" d="M76.217 49.661v-5.879h0.899v0.893c0.229-0.417 0.441-0.692 0.635-0.825 c0.195-0.133 0.408-0.199 0.642-0.199c0.336 0 0.7 0.1 1 0.321l-0.345 0.924c-0.244-0.144-0.488-0.215-0.733-0.215 c-0.218 0-0.414 0.065-0.588 0.199c-0.174 0.132-0.298 0.313-0.372 0.546c-0.111 0.354-0.167 0.741-0.167 1.162v3.078h-0.971 V49.661z"/>
	<path fill="#424244" d="M85.19 47.768l1.033 0.127c-0.163 0.602-0.464 1.068-0.905 1.4c-0.441 0.333-1.004 0.498-1.688 0.5 c-0.863 0-1.546-0.265-2.052-0.795c-0.506-0.529-0.758-1.272-0.758-2.228c0-0.988 0.255-1.757 0.767-2.303 c0.511-0.545 1.173-0.818 1.988-0.818c0.789 0 1.4 0.3 1.9 0.802c0.5 0.5 0.8 1.3 0.8 2.293c0 0.06-0.002 0.147-0.006 0.3 h-4.398c0.037 0.6 0.2 1.1 0.5 1.483c0.33 0.3 0.7 0.5 1.2 0.499c0.366 0 0.679-0.097 0.938-0.289 c0.323-0.255 0.487-0.554 0.687-0.953 M81.908 46.157h3.293c-0.045-0.494-0.17-0.864-0.377-1.112 c-0.319-0.385-0.731-0.576-1.239-0.576c-0.459 0-0.845 0.153-1.158 0.499c-0.313 0.292-0.531 0.69-0.531 1.2"/>
	<path fill="#424244" d="M88.615 49.661v-5.879h0.9v0.836c0.433-0.645 1.059-0.969 1.877-0.969c0.355 0 0.7 0.1 1 0.2 c0.297 0.1 0.5 0.3 0.7 0.501c0.148 0.2 0.3 0.5 0.3 0.736c0.037 0.2 0.1 0.5 0.1 0.969v3.615h-1v-3.577 c0-0.405-0.039-0.709-0.116-0.91c-0.078-0.201-0.216-0.362-0.414-0.482c-0.198-0.119-0.431-0.18-0.697-0.18 c-0.425 0-0.793 0.135-1.102 0.403c-0.31 0.27-0.464 0.781-0.464 1.533v3.212h-1.084V49.661z"/>
	<path fill="#424244" d="M99.903 49.661v-0.742c-0.374 0.583-0.923 0.875-1.649 0.875c-0.471 0-0.902-0.129-1.296-0.388 c-0.394-0.258-0.7-0.618-0.916-1.083c-0.217-0.462-0.325-0.996-0.325-1.597c0-0.587 0.097-1.119 0.294-1.598 c0.196-0.478 0.491-0.845 0.883-1.1c0.393-0.254 0.831-0.382 1.316-0.382c0.355 0 0.7 0.1 0.9 0.2 c0.278 0.1 0.5 0.3 0.7 0.584v-2.912h0.994v8.117h-0.901V49.661z M96.745 46.728c0 0.8 0.2 1.3 0.5 1.7 c0.318 0.4 0.7 0.6 1.1 0.56c0.437 0 0.809-0.178 1.114-0.534c0.305-0.356 0.458-0.899 0.458-1.631 c0-0.804-0.155-1.394-0.466-1.771c-0.312-0.375-0.695-0.564-1.15-0.564c-0.444 0-0.814 0.181-1.113 0.5 c-0.295 0.335-0.492 0.934-0.492 1.7"/>
	<path fill="#424244" d="M103.141 47.907l0.989-0.155c0.055 0.4 0.2 0.7 0.5 0.908c0.253 0.2 0.6 0.3 1.1 0.3 c0.459 0 0.8-0.094 1.022-0.28c0.222-0.186 0.333-0.404 0.333-0.655c0-0.226-0.098-0.402-0.294-0.531 c-0.137-0.089-0.478-0.202-1.021-0.338c-0.733-0.184-1.241-0.345-1.525-0.479c-0.283-0.135-0.498-0.321-0.644-0.56 c-0.146-0.237-0.22-0.5-0.22-0.788c0-0.262 0.061-0.504 0.181-0.728c0.12-0.223 0.285-0.407 0.492-0.556 c0.155-0.115 0.367-0.212 0.635-0.292c0.269-0.08 0.556-0.119 0.864-0.119c0.463 0 0.9 0.1 1.2 0.199c0.35 0.1 0.6 0.3 0.8 0.5 c0.167 0.2 0.3 0.5 0.3 0.911l-0.978 0.133c-0.044-0.303-0.173-0.539-0.386-0.709c-0.213-0.17-0.513-0.255-0.902-0.255 c-0.459 0-0.787 0.076-0.983 0.229c-0.197 0.151-0.294 0.328-0.294 0.498c0 0.1 0 0.2 0.1 0.349c0.081 0.1 0.2 0.2 0.4 0.3 c0.099 0 0.4 0.1 0.9 0.298c0.707 0.2 1.2 0.3 1.5 0.463c0.279 0.1 0.5 0.3 0.7 0.523c0.158 0.2 0.2 0.5 0.2 0.9 c0 0.333-0.097 0.645-0.292 0.938c-0.194 0.294-0.475 0.521-0.841 0.682c-0.367 0.161-0.781 0.24-1.244 0.2 c-0.767 0-1.351-0.158-1.752-0.477c-0.473-0.271-0.686-0.77-0.886-1.368"/>
	<path fill="#424244" d="M118.699 47.768l1.033 0.127c-0.163 0.602-0.464 1.068-0.905 1.4c-0.441 0.333-1.003 0.498-1.688 0.5 c-0.863 0-1.546-0.265-2.052-0.795c-0.506-0.529-0.758-1.272-0.758-2.228c0-0.988 0.255-1.757 0.767-2.303 c0.511-0.545 1.173-0.818 1.988-0.818c0.789 0 1.4 0.3 1.9 0.802c0.5 0.5 0.8 1.3 0.8 2.293c0 0.06-0.002 0.147-0.005 0.3 h-4.397c0.037 0.6 0.2 1.1 0.5 1.483c0.33 0.3 0.7 0.5 1.2 0.499c0.366 0 0.679-0.097 0.938-0.289 c0.322-0.255 0.575-0.554 0.675-0.953 M115.417 46.157h3.292c-0.045-0.494-0.17-0.864-0.377-1.112 c-0.318-0.385-0.73-0.576-1.238-0.576c-0.459 0-0.845 0.153-1.158 0.499c-0.312 0.292-0.441 0.69-0.541 1.2"/>
	<path fill="#424244" d="M122.124 49.661v-5.879h0.9v0.836c0.433-0.645 1.059-0.969 1.876-0.969c0.355 0 0.7 0.1 1 0.2 c0.298 0.1 0.5 0.3 0.7 0.501c0.148 0.2 0.3 0.5 0.3 0.736c0.037 0.2 0.1 0.5 0.1 0.969v3.615h-1v-3.577 c0-0.405-0.039-0.709-0.116-0.91c-0.078-0.201-0.216-0.362-0.414-0.482c-0.198-0.119-0.431-0.18-0.697-0.18 c-0.426 0-0.793 0.135-1.102 0.403c-0.31 0.27-0.464 0.781-0.464 1.533v3.212h-1.083V49.661z"/>
	<path fill="#424244" d="M141.347 49.661v-5.879h0.9v0.836c0.433-0.645 1.059-0.969 1.877-0.969c0.355 0 0.7 0.1 1 0.2 c0.298 0.1 0.5 0.3 0.7 0.501c0.148 0.2 0.3 0.5 0.3 0.736c0.037 0.2 0.1 0.5 0.1 0.969v3.615h-1v-3.577 c0-0.405-0.039-0.709-0.116-0.91c-0.078-0.201-0.216-0.362-0.414-0.482c-0.198-0.119-0.431-0.18-0.697-0.18 c-0.426 0-0.793 0.135-1.102 0.403c-0.31 0.27-0.464 0.781-0.464 1.533v3.212h-1.084V49.661z"/>
	<path fill="#424244" d="M150.992 48.77l0.145 0.88c-0.281 0.06-0.533 0.089-0.755 0.089c-0.363 0-0.645-0.058-0.845-0.171 c-0.2-0.114-0.34-0.265-0.421-0.451c-0.081-0.188-0.122-0.58-0.122-1.178v-3.383h-0.733v-0.774h0.733v-1.456l0.995-0.599v2.055 h1.005v0.774h-1.005v3.438c0 0.3 0 0.5 0.1 0.548c0.035 0.1 0.1 0.1 0.2 0.194c0.08 0 0.2 0.1 0.3 0.1 c0.076 0 0.205-0.088 0.405-0.088"/>
	<path fill="#424244" d="M154.195 49.661l-1.805-5.879h1.033l0.938 3.393l0.351 1.263c0.014-0.063 0.117-0.466 0.305-1.212 l0.939-3.444h1.027l0.883 3.41l0.294 1.125l0.339-1.136l1.011-3.399h0.972l-1.843 5.879h-1.039l-0.938-3.521l-0.229-1.001 l-1.193 4.522H154.195z"/>
	<path fill="#424244" d="M162.463 41.545h1v1.146h-1V41.545z M162.463 43.782h1v5.879h-1V43.782z"/>
	<polygon fill="#424244" points="166.1,49.6 166.1,41.6 167.1,41.6 167.1,46.2 169.5,43.8 170.8,43.8 168.5,46 171,49.6 169.8,49.6 167.8,46.7 167.1,47.4 167.1,49.6"/>
	<polygon fill="#424244" points="173,49.6 173,41.6 174,41.6 174,46.2 176.3,43.8 177.6,43.8 175.4,46 177.8,49.6 176.6,49.6 174.7,46.7 174,47.4 174,49.6"/>
	<path fill="#424244" d="M183.806 47.768l1.033 0.127c-0.163 0.602-0.464 1.068-0.905 1.4c-0.44 0.333-1.003 0.498-1.688 0.5 c-0.863 0-1.547-0.265-2.052-0.795c-0.504-0.529-0.758-1.272-0.758-2.228c0-0.988 0.255-1.757 0.766-2.303 c0.511-0.545 1.174-0.818 1.988-0.818c0.789 0 1.4 0.3 1.9 0.802c0.5 0.5 0.8 1.3 0.8 2.26c0 0.06-0.002 0.147-0.006 0.3 h-4.398c0.037 0.6 0.2 1.1 0.5 1.483c0.33 0.3 0.7 0.5 1.2 0.516c0.366 0 0.679-0.097 0.938-0.289 c0.259-0.191 0.53-0.538 0.667-0.937 M180.524 46.157h3.293c-0.045-0.494-0.17-0.864-0.377-1.112 c-0.319-0.385-0.731-0.576-1.239-0.576c-0.458 0-0.845 0.153-1.158 0.459c-0.313 0.331-0.452 0.729-0.552 1.2"/>
	<rect x="187.2" y="41.6" fill="#424244" width="1" height="8.1"/>
	<path fill="#424244" d="M190.902 41.545h1v1.146h-1V41.545z M190.902 43.782h1v5.879h-1V43.782z"/>
	<path fill="#424244" d="M194.56 49.661v-5.879h0.899v0.836c0.434-0.645 1.059-0.969 1.877-0.969c0.355 0 0.7 0.1 1 0.2 c0.3 0.1 0.5 0.3 0.7 0.501c0.179 0.2 0.3 0.5 0.3 0.736c0.037 0.2 0.1 0.5 0.1 0.969v3.615h-1v-3.577 c0-0.405-0.039-0.709-0.117-0.91c-0.078-0.201-0.216-0.362-0.414-0.482c-0.198-0.119-0.43-0.18-0.697-0.18 c-0.426 0-0.793 0.135-1.103 0.398c-0.309 0.27-0.464 0.78-0.464 1.533v3.212h-1.081V49.661z"/>
	<path fill="#424244" d="M201.84 50.149l0.972 0.145c0.04 0.3 0.2 0.5 0.3 0.653c0.248 0.2 0.6 0.3 1 0.3 c0.462 0 0.82-0.092 1.072-0.277c0.251-0.186 0.422-0.442 0.511-0.774c0.051-0.203 0.076-0.629 0.071-1.279 c-0.437 0.514-0.981 0.77-1.632 0.77c-0.811 0-1.438-0.291-1.883-0.874c-0.445-0.583-0.667-1.283-0.667-2.099 c0-0.562 0.102-1.078 0.306-1.553c0.204-0.474 0.498-0.841 0.886-1.1c0.387-0.258 0.841-0.386 1.363-0.386 c0.696 0 1.3 0.3 1.7 0.797v-0.709h0.922v5.083c0 0.916-0.094 1.563-0.28 1.946c-0.188 0.382-0.483 0.684-0.889 0.9 c-0.405 0.221-0.905 0.332-1.497 0.299c-0.704 0-1.272-0.158-1.705-0.474c-0.356-0.281-0.6-0.779-0.6-1.377 M202.667 46.6 c0 0.8 0.2 1.3 0.5 1.695c0.307 0.4 0.7 0.5 1.2 0.53c0.459 0 0.844-0.176 1.155-0.528 c0.311-0.352 0.466-0.904 0.466-1.658c0-0.719-0.16-1.261-0.48-1.627c-0.32-0.365-0.707-0.548-1.158-0.548 c-0.444 0-0.822 0.18-1.133 0.499c-0.394 0.38-0.527 0.979-0.527 1.7"/>
	<path fill="#424244" d="M213.523 47.768l1.033 0.127c-0.163 0.602-0.464 1.068-0.905 1.4c-0.441 0.333-1.003 0.498-1.688 0.5 c-0.863 0-1.546-0.265-2.052-0.795c-0.506-0.529-0.758-1.272-0.758-2.228c0-0.988 0.255-1.757 0.767-2.303 c0.511-0.545 1.173-0.818 1.987-0.818c0.789 0 1.4 0.3 1.9 0.802c0.5 0.5 0.8 1.3 0.8 2.26c0 0.06-0.002 0.147-0.005 0.3 h-4.397c0.037 0.6 0.2 1.1 0.6 1.483c0.33 0.3 0.7 0.5 1.2 0.516c0.366 0 0.68-0.097 0.938-0.289 c0.258-0.191 0.428-0.538 0.547-0.937 M210.24 46.157h3.292c-0.044-0.494-0.17-0.864-0.377-1.112 c-0.319-0.385-0.731-0.576-1.239-0.576c-0.458 0-0.845 0.153-1.158 0.459c-0.312 0.331-0.469 0.729-0.568 1.2"/>
	<path fill="#424244" d="M216.948 49.661v-5.879h0.9v0.836c0.433-0.645 1.059-0.969 1.877-0.969c0.355 0 0.7 0.1 1 0.2 c0.3 0.1 0.5 0.3 0.7 0.501c0.179 0.2 0.3 0.5 0.3 0.736c0.037 0.2 0.1 0.5 0.1 0.969v3.615h-1v-3.577 c0-0.405-0.039-0.709-0.117-0.91c-0.079-0.201-0.216-0.362-0.414-0.482c-0.198-0.119-0.43-0.18-0.697-0.18 c-0.426 0-0.793 0.135-1.103 0.403c-0.309 0.27-0.463 0.781-0.463 1.533v3.212h-1.083V49.661z"/>
	<path fill="#424244" d="M228.713 41.545h1v1.146h-1V41.545z M228.713 43.782h1v5.879h-1V43.782z"/>
	<path fill="#424244" d="M232.372 49.661v-5.879h0.899v0.836c0.433-0.645 1.059-0.969 1.877-0.969c0.355 0 0.7 0.1 1 0.2 c0.3 0.1 0.5 0.3 0.7 0.501c0.179 0.2 0.3 0.5 0.3 0.736c0.037 0.2 0.1 0.5 0.1 0.969v3.615h-1v-3.577 c0-0.405-0.039-0.709-0.117-0.91c-0.078-0.201-0.216-0.362-0.414-0.482c-0.198-0.119-0.431-0.18-0.697-0.18 c-0.425 0-0.793 0.135-1.102 0.403c-0.309 0.27-0.464 0.781-0.464 1.533v3.212h-1.082V49.661z"/>
	<path fill="#424244" d="M247.958 49.661v-0.742c-0.374 0.583-0.924 0.875-1.649 0.875c-0.47 0-0.903-0.129-1.297-0.388 c-0.394-0.258-0.7-0.618-0.917-1.083c-0.216-0.462-0.325-0.996-0.325-1.597c0-0.587 0.098-1.119 0.294-1.598 c0.196-0.478 0.491-0.845 0.883-1.1c0.393-0.254 0.831-0.382 1.316-0.382c0.355 0 0.7 0.1 0.9 0.2 c0.277 0.1 0.5 0.3 0.7 0.584v-2.912h0.994v8.117h-0.899V49.661z M244.798 46.728c0 0.8 0.2 1.3 0.5 1.7 c0.319 0.4 0.7 0.6 1.1 0.56c0.437 0 0.808-0.178 1.114-0.534c0.305-0.356 0.458-0.899 0.458-1.631 c0-0.804-0.155-1.394-0.466-1.771c-0.311-0.375-0.694-0.564-1.15-0.564c-0.444 0-0.815 0.181-1.113 0.5 c-0.294 0.378-0.453 0.977-0.453 1.8"/>
	<path fill="#424244" d="M255.632 47.768l1.033 0.127c-0.163 0.602-0.464 1.068-0.905 1.4c-0.441 0.333-1.003 0.498-1.688 0.5 c-0.863 0-1.546-0.265-2.052-0.795c-0.505-0.529-0.758-1.272-0.758-2.228c0-0.988 0.255-1.757 0.767-2.303 c0.511-0.545 1.174-0.818 1.988-0.818c0.789 0 1.4 0.3 1.9 0.802c0.5 0.5 0.8 1.3 0.8 2.293c0 0.06-0.002 0.147-0.005 0.3 h-4.398c0.037 0.6 0.2 1.1 0.6 1.483c0.33 0.3 0.7 0.5 1.2 0.499c0.367 0 0.68-0.097 0.939-0.289 c0.222-0.255 0.435-0.554 0.535-0.953 M252.35 46.157h3.293c-0.044-0.494-0.17-0.864-0.378-1.112 c-0.318-0.385-0.731-0.576-1.238-0.576c-0.459 0-0.845 0.153-1.158 0.499c-0.313 0.292-0.481 0.69-0.481 1.2"/>
	<path fill="#424244" d="M263.359 41.545h0.999v1.146h-0.999V41.545z M263.359 43.782h0.999v5.879h-0.999V43.782z"/>
	<path fill="#424244" d="M267.019 49.661v-5.879h0.899v0.836c0.434-0.645 1.059-0.969 1.877-0.969c0.355 0 0.7 0.1 1 0.2 c0.3 0.1 0.5 0.3 0.7 0.501c0.148 0.2 0.3 0.5 0.3 0.736c0.037 0.2 0.1 0.5 0.1 0.969v3.615h-1v-3.577 c0-0.405-0.039-0.709-0.116-0.91c-0.079-0.201-0.216-0.362-0.414-0.482c-0.198-0.119-0.431-0.18-0.697-0.18 c-0.425 0-0.793 0.135-1.103 0.403c-0.309 0.27-0.463 0.781-0.463 1.533v3.212h-1.083V49.661z"/>
	<path fill="#424244" d="M274.081 47.907l0.989-0.155c0.055 0.4 0.2 0.7 0.5 0.908c0.254 0.2 0.6 0.3 1.1 0.3 c0.459 0 0.8-0.094 1.022-0.28c0.222-0.186 0.333-0.404 0.333-0.655c0-0.226-0.098-0.402-0.294-0.531 c-0.137-0.089-0.478-0.202-1.022-0.338c-0.732-0.184-1.241-0.345-1.524-0.479c-0.283-0.135-0.497-0.321-0.644-0.56 c-0.146-0.237-0.22-0.5-0.22-0.788c0-0.262 0.061-0.504 0.181-0.728c0.12-0.223 0.283-0.407 0.491-0.556 c0.155-0.115 0.367-0.212 0.636-0.292s0.556-0.119 0.864-0.119c0.462 0 0.9 0.1 1.2 0.199c0.35 0.1 0.6 0.3 0.8 0.5 c0.2 0.2 0.3 0.5 0.3 0.911l-0.978 0.133c-0.045-0.303-0.173-0.538-0.386-0.708c-0.214-0.17-0.514-0.256-0.903-0.256 c-0.458 0-0.786 0.076-0.982 0.229c-0.197 0.151-0.295 0.328-0.295 0.532c0 0.1 0 0.2 0.1 0.299c0.081 0.1 0.2 0.2 0.4 0.3 c0.1 0 0.4 0.1 0.9 0.254c0.708 0.2 1.2 0.3 1.5 0.498c0.278 0.1 0.5 0.3 0.7 0.524c0.158 0.2 0.2 0.5 0.2 0.9 c0 0.333-0.097 0.645-0.292 0.897c-0.193 0.294-0.475 0.521-0.841 0.682c-0.366 0.161-0.781 0.24-1.244 0.2 c-0.767 0-1.351-0.157-1.752-0.477c-0.472-0.158-0.733-0.657-0.833-1.255"/>
	<path fill="#424244" d="M283.487 48.77l0.145 0.88c-0.281 0.06-0.533 0.089-0.754 0.089c-0.363 0-0.645-0.058-0.845-0.171 c-0.199-0.114-0.341-0.265-0.422-0.451c-0.081-0.188-0.123-0.58-0.123-1.178v-3.383h-0.732v-0.774h0.732v-1.456l0.995-0.599v2.055 h1.005v0.774h-1.005v3.438c0 0.3 0 0.5 0.1 0.548c0.1 0.1 0.1 0.1 0.2 0.194c0.08 0 0.2 0.1 0.3 0.1 c0.078 0 0.204-0.088 0.404-0.088"/>
	<path fill="#424244" d="M289.451 48.937c-0.37 0.313-0.728 0.536-1.069 0.664c-0.343 0.128-0.71 0.193-1.104 0.2 c-0.646 0-1.146-0.158-1.493-0.474c-0.347-0.316-0.521-0.72-0.521-1.21c0-0.287 0.065-0.551 0.197-0.789 c0.13-0.238 0.303-0.43 0.516-0.573c0.214-0.144 0.453-0.252 0.72-0.326c0.196-0.052 0.492-0.102 0.889-0.15 c0.808-0.096 1.401-0.21 1.782-0.342c0.004-0.137 0.006-0.225 0.006-0.261c0-0.406-0.095-0.691-0.283-0.858 c-0.256-0.226-0.636-0.338-1.139-0.338c-0.47 0-0.817 0.083-1.041 0.246c-0.225 0.164-0.39 0.454-0.497 0.873l-0.978-0.134 c0.089-0.417 0.235-0.754 0.438-1.01c0.203-0.256 0.498-0.454 0.883-0.593c0.386-0.139 0.831-0.208 1.339-0.208 c0.503 0 0.9 0.1 1.2 0.2c0.314 0.1 0.5 0.3 0.7 0.445c0.147 0.2 0.3 0.4 0.3 0.678c0.033 0.2 0.1 0.5 0.1 0.92v1.328 c0 0.9 0 1.5 0.1 1.758c0.042 0.2 0.1 0.5 0.3 0.706h-1.044c-0.205-0.243-0.266-0.442-0.266-0.741 M289.367 46.7 c-0.362 0.146-0.907 0.272-1.633 0.375c-0.411 0.061-0.701 0.126-0.872 0.2c-0.17 0.074-0.302 0.183-0.394 0.3 c-0.093 0.143-0.139 0.3-0.139 0.474c0 0.3 0.1 0.5 0.3 0.664c0.202 0.2 0.5 0.3 0.9 0.299c0.386 0 0.729-0.083 1.028-0.251 c0.299-0.167 0.52-0.398 0.66-0.689c0.108-0.225 0.161-0.558 0.161-0.997V46.71H289.367z"/>
	<rect x="293.1" y="41.6" fill="#424244" width="1" height="8.1"/>
	<rect x="296.7" y="41.6" fill="#424244" width="1" height="8.1"/>
	<path fill="#424244" d="M304.241 48.937c-0.37 0.313-0.727 0.536-1.068 0.664s-0.71 0.193-1.103 0.2 c-0.647 0-1.146-0.158-1.493-0.474c-0.347-0.316-0.522-0.72-0.522-1.21c0-0.287 0.066-0.551 0.197-0.789 c0.131-0.238 0.304-0.43 0.516-0.573c0.214-0.144 0.453-0.252 0.72-0.326c0.197-0.052 0.492-0.102 0.889-0.15 c0.808-0.096 1.4-0.21 1.782-0.342c0.003-0.137 0.005-0.225 0.005-0.261c0-0.406-0.094-0.691-0.283-0.858 c-0.255-0.226-0.635-0.338-1.138-0.338c-0.471 0-0.817 0.083-1.042 0.246c-0.224 0.164-0.39 0.454-0.497 0.873l-0.978-0.134 c0.089-0.417 0.235-0.754 0.439-1.01c0.203-0.256 0.497-0.454 0.883-0.593c0.385-0.139 0.831-0.208 1.338-0.208 c0.504 0 0.9 0.1 1.2 0.2c0.314 0.1 0.5 0.3 0.7 0.445c0.148 0.2 0.3 0.4 0.3 0.678c0.033 0.2 0.1 0.5 0.1 0.92v1.328 c0 0.9 0 1.5 0.1 1.758c0.043 0.2 0.1 0.5 0.3 0.706h-1.044c-0.204-0.243-0.257-0.442-0.257-0.741 M304.158 46.7 c-0.363 0.146-0.906 0.272-1.632 0.375c-0.411 0.061-0.702 0.126-0.872 0.2s-0.302 0.183-0.395 0.3 c-0.092 0.143-0.139 0.3-0.139 0.474c0 0.3 0.1 0.5 0.3 0.664c0.2 0.2 0.5 0.3 0.9 0.3 c0.385 0 0.728-0.084 1.027-0.251s0.52-0.397 0.661-0.689c0.107-0.225 0.161-0.558 0.161-0.997V46.71H304.158z"/>
	<path fill="#424244" d="M310.04 48.77l0.144 0.88c-0.281 0.06-0.533 0.089-0.755 0.089c-0.363 0-0.645-0.058-0.844-0.171 c-0.2-0.114-0.342-0.265-0.423-0.451c-0.081-0.188-0.123-0.58-0.123-1.178v-3.383h-0.731v-0.774h0.731v-1.456l0.995-0.599v2.055 h1.006v0.774h-1.006v3.438c0 0.3 0 0.5 0.1 0.548c0.1 0.1 0.1 0.1 0.2 0.194c0.08 0 0.2 0.1 0.3 0.1 c0.078 0 0.252-0.088 0.452-0.088"/>
	<path fill="#424244" d="M312.158 41.545h1v1.146h-1V41.545z M312.158 43.782h1v5.879h-1V43.782z"/>
	<path fill="#424244" d="M319.854 47.768l1.033 0.127c-0.164 0.602-0.465 1.068-0.905 1.4c-0.44 0.333-1.003 0.498-1.688 0.5 c-0.862 0-1.547-0.265-2.052-0.795c-0.506-0.529-0.758-1.272-0.758-2.228c0-0.988 0.255-1.757 0.766-2.303 c0.512-0.545 1.174-0.818 1.988-0.818c0.789 0 1.4 0.3 1.9 0.802c0.499 0.5 0.8 1.3 0.8 2.3 c0 0.06-0.002 0.147-0.006 0.266h-4.398c0.037 0.6 0.2 1.1 0.6 1.483c0.33 0.3 0.7 0.5 1.2 0.5 c0.366 0 0.68-0.097 0.938-0.289c0.258-0.191 0.43-0.554 0.613-0.953 M316.572 46.157h3.294c-0.045-0.494-0.171-0.864-0.378-1.112 c-0.318-0.385-0.731-0.576-1.238-0.576c-0.459 0-0.846 0.153-1.159 0.459c-0.313 0.331-0.506 0.729-0.506 1.2"/>
	<path fill="#424244" d="M324.201 49.661h-0.927v-8.117h0.999v2.896c0.422-0.528 0.961-0.792 1.615-0.792 c0.363 0 0.7 0.1 1 0.218c0.324 0.1 0.6 0.4 0.8 0.615c0.199 0.2 0.4 0.6 0.5 1 c0.119 0.4 0.2 0.8 0.2 1.195c0 1.007-0.25 1.786-0.748 2.336c-0.5 0.55-1.1 0.824-1.801 0.8 c-0.695 0-1.241-0.289-1.639-0.869V49.661z M324.19 46.654c0 0.7 0.1 1.2 0.3 1.528c0.314 0.5 0.7 0.8 1.3 0.8 c0.437 0 0.813-0.188 1.133-0.567c0.317-0.377 0.478-0.942 0.478-1.692c0-0.767-0.153-1.333-0.458-1.699 c-0.307-0.365-0.675-0.548-1.107-0.548c-0.438 0-0.814 0.189-1.134 0.567c-0.353 0.447-0.518 0.946-0.518 1.6"/>
	<path fill="#424244" d="M330.731 49.661v-5.879h0.899v0.893c0.229-0.417 0.44-0.692 0.636-0.825 c0.194-0.133 0.407-0.199 0.643-0.199c0.336 0 0.7 0.1 1 0.321l-0.345 0.924c-0.244-0.144-0.488-0.215-0.732-0.215 c-0.219 0-0.414 0.065-0.589 0.199c-0.174 0.132-0.298 0.313-0.372 0.546c-0.111 0.354-0.166 0.741-0.166 1.162v3.078h-0.974 V49.661z"/>
	<path fill="#424244" d="M339.516 48.937c-0.369 0.313-0.727 0.536-1.068 0.664c-0.341 0.128-0.71 0.193-1.104 0.2 c-0.646 0-1.146-0.158-1.493-0.474s-0.521-0.72-0.521-1.21c0-0.287 0.064-0.551 0.196-0.789c0.131-0.238 0.304-0.43 0.517-0.573 c0.213-0.144 0.452-0.252 0.719-0.326c0.197-0.052 0.492-0.102 0.89-0.15c0.808-0.096 1.401-0.21 1.782-0.342 c0.004-0.137 0.006-0.225 0.006-0.261c0-0.406-0.096-0.691-0.283-0.858c-0.256-0.226-0.635-0.338-1.139-0.338 c-0.471 0-0.816 0.083-1.041 0.246c-0.225 0.164-0.391 0.454-0.497 0.873l-0.978-0.134c0.088-0.417 0.234-0.754 0.438-1.01 c0.204-0.256 0.498-0.454 0.884-0.593s0.83-0.208 1.339-0.208c0.504 0 0.9 0.1 1.2 0.2c0.312 0.1 0.5 0.3 0.7 0.4 c0.147 0.2 0.3 0.4 0.3 0.678c0.033 0.2 0.1 0.5 0.1 0.92v1.328c0 0.9 0 1.5 0.1 1.758s0.127 0.5 0.3 0.706h-1.045 c-0.203-0.243-0.232-0.442-0.331-0.741 M339.432 46.754c-0.361 0.146-0.906 0.272-1.633 0.375c-0.41 0.061-0.7 0.125-0.871 0.2 c-0.17 0.073-0.303 0.183-0.395 0.299c-0.093 0.143-0.139 0.3-0.139 0.474c0 0.3 0.1 0.5 0.3 0.7 c0.201 0.2 0.5 0.3 0.9 0.299c0.386 0 0.729-0.083 1.027-0.251s0.52-0.398 0.66-0.689c0.107-0.226 0.16-0.559 0.16-0.997V46.71 L339.432 46.754z"/>
	<path fill="#424244" d="M343.13 49.661v-5.879h0.898v0.836c0.434-0.645 1.059-0.969 1.877-0.969c0.355 0 0.7 0.1 1 0.2 c0.301 0.1 0.5 0.3 0.7 0.501s0.252 0.5 0.3 0.736c0.037 0.2 0.1 0.5 0.1 0.969v3.615h-0.998v-3.577 c0-0.405-0.039-0.709-0.117-0.91c-0.078-0.201-0.217-0.362-0.413-0.482c-0.198-0.119-0.431-0.18-0.697-0.18 c-0.426 0-0.794 0.135-1.103 0.403c-0.31 0.27-0.465 0.781-0.465 1.533v3.212h-1.082V49.661z"/>
	<path fill="#424244" d="M354.44 47.508l0.982 0.126c-0.107 0.676-0.383 1.204-0.824 1.587c-0.441 0.382-0.985 0.572-1.631 0.6 c-0.807 0-1.455-0.263-1.946-0.789c-0.49-0.525-0.733-1.279-0.733-2.262c0-0.635 0.104-1.189 0.315-1.666 c0.21-0.477 0.532-0.833 0.963-1.071c0.431-0.238 0.899-0.357 1.407-0.357c0.642 0 1.2 0.2 1.6 0.5 c0.408 0.3 0.7 0.8 0.8 1.376l-0.973 0.148c-0.092-0.395-0.257-0.691-0.492-0.891c-0.234-0.199-0.519-0.3-0.852-0.3 c-0.504 0-0.913 0.181-1.229 0.54c-0.314 0.36-0.472 0.93-0.472 1.708c0 0.8 0.2 1.4 0.5 1.723s0.7 0.5 1.2 0.5 c0.393 0 0.72-0.12 0.982-0.36c0.164-0.267 0.344-0.566 0.443-1.064"/>
	<path fill="#424244" d="M357.417 49.661v-8.117h1v2.913c0.467-0.539 1.054-0.809 1.766-0.809c0.437 0 0.8 0.1 1.1 0.3 c0.322 0.2 0.6 0.4 0.7 0.712s0.208 0.7 0.2 1.317v3.726h-1v-3.726c0-0.497-0.107-0.86-0.324-1.088 c-0.217-0.227-0.522-0.34-0.919-0.34c-0.297 0-0.574 0.076-0.835 0.229c-0.262 0.152-0.447 0.361-0.559 0.6 c-0.112 0.262-0.166 0.624-0.166 1.085v3.217h-0.963V49.661z"/>
	<path fill="#424244" d="M368.916 47.768l1.033 0.127c-0.162 0.602-0.465 1.068-0.904 1.4c-0.441 0.333-1.004 0.498-1.688 0.5 c-0.863 0-1.547-0.265-2.052-0.795c-0.506-0.529-0.76-1.272-0.76-2.228c0-0.988 0.256-1.757 0.768-2.303 c0.511-0.545 1.174-0.818 1.988-0.818c0.789 0 1.4 0.3 1.9 0.802c0.5 0.5 0.8 1.3 0.8 2.3 c0 0.06-0.002 0.147-0.006 0.266h-4.398c0.037 0.6 0.2 1.1 0.6 1.483c0.33 0.3 0.7 0.5 1.2 0.5 c0.365 0 0.68-0.097 0.938-0.289c0.258-0.191 0.43-0.554 0.549-0.953 M365.633 46.157h3.293c-0.043-0.494-0.17-0.864-0.377-1.112 c-0.318-0.385-0.73-0.576-1.237-0.576c-0.459 0-0.847 0.153-1.158 0.459c-0.313 0.331-0.471 0.729-0.471 1.2"/>
	<path fill="#424244" d="M133.513 46.722c0-1.088 0.303-1.894 0.911-2.419c0.507-0.436 1.125-0.653 1.854-0.653 c0.811 0 1.5 0.3 2 0.794c0.513 0.5 0.8 1.3 0.8 2.195c0 0.757-0.114 1.352-0.341 1.8 c-0.229 0.434-0.56 0.771-0.995 1.011c-0.435 0.239-0.91 0.358-1.424 0.358c-0.825 0-1.493-0.264-2.001-0.792 c-0.55-0.562-0.823-1.26-0.823-2.257 M134.54 46.722c0 0.8 0.2 1.3 0.5 1.694c0.33 0.4 0.7 0.6 1.2 0.6 c0.497 0 0.91-0.188 1.238-0.564c0.33-0.376 0.495-0.95 0.495-1.723c0-0.726-0.166-1.276-0.497-1.652 c-0.332-0.374-0.743-0.561-1.236-0.561c-0.5 0-0.914 0.187-1.244 0.598c-0.292 0.283-0.502 0.882-0.502 1.7"/>
</g>
</svg>