<svg width="1150" height="251" viewBox="0 0 1150 251" fill="none" xmlns="http://www.w3.org/2000/svg">
	<path
		d="M839.5 38.21C847.768 38.21 854.47 31.5077 854.47 23.24C854.47 14.9723 847.768 8.27 839.5 8.27C831.232 8.27 824.53 14.9723 824.53 23.24C824.53 31.5077 831.232 38.21 839.5 38.21Z"
		fill="#2F8C9D" />
	<path d="M31.77 207.47H20.08V239.94H15.31V207.47H3.63V203.55H31.77V207.47Z" fill="#0C4852" />
	<path
		d="M48.16 217.05C47.4064 216.926 46.6437 216.865 45.88 216.87C42.8467 216.87 40.79 218.163 39.71 220.75V239.94H35.09V212.94H39.59L39.66 216.06C40.3088 214.931 41.2508 213.999 42.3862 213.361C43.5217 212.724 44.8084 212.406 46.11 212.44C46.7943 212.408 47.4773 212.527 48.11 212.79L48.16 217.05Z"
		fill="#0C4852" />
	<path
		d="M64.14 240.44C62.4691 240.508 60.8027 240.221 59.2512 239.597C57.6996 238.973 56.2983 238.026 55.14 236.82C52.84 234.42 51.69 231.203 51.69 227.17V226.32C51.6451 223.837 52.172 221.377 53.23 219.13C54.1708 217.112 55.661 215.4 57.53 214.19C59.3073 213.01 61.3964 212.386 63.53 212.4C65.071 212.314 66.6112 212.582 68.0326 213.184C69.4539 213.785 70.7187 214.704 71.73 215.87C73.6767 218.19 74.65 221.507 74.65 225.82V227.74H56.37C56.3207 230.107 57.1509 232.409 58.7 234.2C59.4107 235.001 60.2886 235.637 61.2717 236.062C62.2549 236.487 63.3194 236.691 64.39 236.66C65.8384 236.709 67.2728 236.363 68.54 235.66C69.7002 234.981 70.7188 234.084 71.54 233.02L74.37 235.21C72.0767 238.703 68.6667 240.447 64.14 240.44ZM63.56 216.2C62.6796 216.181 61.8052 216.35 60.9949 216.694C60.1845 217.039 59.4568 217.552 58.86 218.2C57.4898 219.804 56.6697 221.805 56.52 223.91H70.06V223.57C70.0611 221.585 69.3916 219.657 68.16 218.1C67.5828 217.461 66.8703 216.959 66.0746 216.631C65.2788 216.302 64.4198 216.155 63.56 216.2V216.2Z"
		fill="#0C4852" />
	<path
		d="M84.92 212.9L85.07 216.29C86.0154 215.046 87.2428 214.045 88.6511 213.369C90.0594 212.692 91.6082 212.36 93.17 212.4C98.89 212.4 101.773 215.623 101.82 222.07V239.94H97.19V222C97.3061 220.444 96.8312 218.901 95.86 217.68C95.3118 217.177 94.6654 216.793 93.9615 216.552C93.2576 216.311 92.5114 216.218 91.77 216.28C90.3426 216.242 88.9405 216.662 87.77 217.48C86.6344 218.289 85.7226 219.373 85.12 220.63V239.9H80.55V212.9H84.92Z"
		fill="#0C4852" />
	<path
		d="M108.17 226.19C108.17 222.037 109.17 218.703 111.17 216.19C112.07 215.052 113.206 214.123 114.501 213.468C115.796 212.813 117.217 212.448 118.667 212.397C120.117 212.347 121.561 212.613 122.898 213.176C124.235 213.74 125.433 214.587 126.41 215.66V201.56H131V239.95H126.75L126.53 237.05C125.595 238.18 124.41 239.076 123.068 239.666C121.726 240.256 120.264 240.525 118.8 240.45C117.309 240.475 115.833 240.138 114.501 239.467C113.168 238.797 112.019 237.813 111.15 236.6C109.15 234.04 108.15 230.68 108.15 226.55L108.17 226.19ZM112.8 226.72C112.654 229.261 113.319 231.782 114.7 233.92C115.29 234.755 116.08 235.429 116.996 235.881C117.913 236.333 118.928 236.549 119.95 236.51C121.291 236.567 122.618 236.222 123.762 235.521C124.906 234.819 125.814 233.791 126.37 232.57V220.14C125.792 218.955 124.882 217.963 123.752 217.285C122.621 216.607 121.318 216.272 120 216.32C118.968 216.28 117.943 216.499 117.017 216.956C116.091 217.414 115.295 218.096 114.7 218.94C113.43 220.69 112.8 223.29 112.8 226.72Z"
		fill="#0C4852" />
	<path
		d="M154.42 232.77C154.446 232.206 154.331 231.644 154.084 231.136C153.838 230.628 153.469 230.189 153.01 229.86C151.504 228.946 149.832 228.337 148.09 228.07C146.165 227.708 144.293 227.103 142.52 226.27C141.305 225.709 140.252 224.849 139.46 223.77C138.785 222.748 138.436 221.545 138.46 220.32C138.456 219.227 138.709 218.149 139.197 217.171C139.685 216.194 140.395 215.344 141.27 214.69C143.322 213.103 145.868 212.292 148.46 212.4C151.149 212.279 153.794 213.119 155.92 214.77C156.832 215.493 157.564 216.417 158.06 217.47C158.556 218.523 158.803 219.676 158.78 220.84H154.13C154.125 220.209 153.978 219.587 153.699 219.021C153.42 218.455 153.017 217.959 152.52 217.57C151.381 216.629 149.936 216.141 148.46 216.2C147.059 216.115 145.669 216.499 144.51 217.29C144.058 217.62 143.691 218.054 143.442 218.555C143.193 219.056 143.069 219.61 143.08 220.17C143.055 220.671 143.165 221.169 143.399 221.613C143.633 222.056 143.982 222.428 144.41 222.69C145.912 223.48 147.528 224.03 149.2 224.32C151.135 224.708 153.015 225.329 154.8 226.17C156.067 226.747 157.165 227.638 157.99 228.76C158.694 229.855 159.043 231.14 158.99 232.44C159.019 233.572 158.769 234.693 158.264 235.706C157.758 236.719 157.012 237.593 156.09 238.25C153.894 239.791 151.25 240.561 148.57 240.44C146.593 240.476 144.631 240.084 142.82 239.29C141.247 238.599 139.894 237.488 138.91 236.08C137.984 234.778 137.487 233.218 137.49 231.62H142.12C142.137 232.335 142.314 233.038 142.64 233.675C142.965 234.312 143.43 234.867 144 235.3C145.331 236.261 146.95 236.741 148.59 236.66C150.068 236.733 151.533 236.364 152.8 235.6C153.296 235.314 153.707 234.901 153.992 234.404C154.277 233.907 154.424 233.343 154.42 232.77V232.77Z"
		fill="#0C4852" />
	<path
		d="M190 240.44C188.329 240.508 186.663 240.221 185.111 239.597C183.56 238.973 182.158 238.026 181 236.82C178.7 234.42 177.55 231.203 177.55 227.17V226.32C177.505 223.837 178.032 221.377 179.09 219.13C180.038 217.116 181.526 215.406 183.39 214.19C185.168 213.011 187.257 212.388 189.39 212.4C190.93 212.314 192.468 212.582 193.888 213.184C195.308 213.785 196.571 214.704 197.58 215.87C199.527 218.19 200.503 221.507 200.51 225.82V227.74H182.22C182.17 230.109 183.004 232.413 184.56 234.2C185.268 235.002 186.144 235.638 187.126 236.063C188.108 236.488 189.171 236.692 190.24 236.66C191.688 236.709 193.123 236.363 194.39 235.66C195.55 234.98 196.568 234.084 197.39 233.02L200.21 235.21C197.923 238.703 194.52 240.447 190 240.44ZM189.43 216.2C188.549 216.179 187.674 216.347 186.864 216.692C186.053 217.037 185.326 217.551 184.73 218.2C183.352 219.801 182.528 221.803 182.38 223.91H195.92V223.57C195.926 221.584 195.256 219.655 194.02 218.1C193.443 217.461 192.73 216.959 191.935 216.631C191.139 216.302 190.28 216.155 189.42 216.2H189.43Z"
		fill="#0C4852" />
	<path
		d="M210.78 212.9L210.93 216.29C211.871 215.049 213.093 214.049 214.496 213.372C215.899 212.696 217.443 212.363 219 212.4C224.72 212.4 227.603 215.623 227.65 222.07V239.94H223.03V222C223.138 220.443 222.66 218.902 221.69 217.68C221.144 217.176 220.5 216.792 219.797 216.551C219.095 216.31 218.35 216.217 217.61 216.28C216.199 216.251 214.816 216.671 213.66 217.48C212.519 218.285 211.603 219.37 211 220.63V239.9H206.4V212.9H210.78Z"
		fill="#0C4852" />
	<path
		d="M247.11 226.17C247.074 223.697 247.611 221.25 248.68 219.02C249.632 217.005 251.142 215.304 253.03 214.12C254.944 212.955 257.15 212.359 259.39 212.4C261.068 212.339 262.739 212.65 264.283 213.31C265.826 213.971 267.205 214.964 268.32 216.22C270.6 218.773 271.737 222.163 271.73 226.39V226.72C271.772 229.164 271.256 231.586 270.22 233.8C269.28 235.811 267.78 237.509 265.9 238.69C263.956 239.874 261.716 240.481 259.44 240.44C257.764 240.498 256.097 240.185 254.556 239.523C253.016 238.86 251.641 237.866 250.53 236.61C248.25 234.07 247.11 230.697 247.11 226.49V226.17ZM251.76 226.72C251.632 229.292 252.368 231.834 253.85 233.94C254.512 234.793 255.36 235.484 256.33 235.959C257.299 236.434 258.365 236.682 259.445 236.682C260.525 236.682 261.591 236.434 262.56 235.959C263.53 235.484 264.378 234.793 265.04 233.94C266.42 232.1 267.11 229.523 267.11 226.21C267.232 223.638 266.489 221.1 265 219C264.347 218.142 263.504 217.446 262.538 216.968C261.572 216.489 260.508 216.24 259.43 216.24C258.352 216.24 257.288 216.489 256.322 216.968C255.356 217.446 254.513 218.142 253.86 219C252.46 220.767 251.76 223.34 251.76 226.72V226.72Z"
		fill="#0C4852" />
	<path
		d="M282.41 212.9L282.56 216.29C283.505 215.046 284.733 214.045 286.141 213.369C287.549 212.692 289.098 212.36 290.66 212.4C296.38 212.4 299.263 215.623 299.31 222.07V239.94H294.68V222C294.796 220.444 294.321 218.901 293.35 217.68C292.802 217.176 292.156 216.791 291.452 216.55C290.748 216.309 290.002 216.217 289.26 216.28C287.85 216.252 286.467 216.672 285.31 217.48C284.174 218.289 283.263 219.373 282.66 220.63V239.9H278V212.9H282.41Z"
		fill="#0C4852" />
	<path
		d="M313.07 206.35V212.9H318.12V216.47H313.07V233.26C313.006 234.128 313.246 234.991 313.75 235.7C314.049 235.997 314.411 236.224 314.809 236.364C315.206 236.505 315.631 236.554 316.05 236.51C316.789 236.488 317.523 236.388 318.24 236.21V239.94C317.085 240.269 315.891 240.437 314.69 240.44C313.821 240.5 312.95 240.362 312.141 240.039C311.333 239.715 310.608 239.213 310.02 238.57C308.882 237.035 308.326 235.147 308.45 233.24V216.47H303.52V212.9H308.45V206.35H313.07Z"
		fill="#0C4852" />
	<path
		d="M348 233.57L353.2 212.9H357.83L349.96 239.9H346.2L339.63 219.41L333.23 239.9H329.48L321.64 212.9H326.23L331.56 233.14L337.86 212.9H341.58L348 233.57Z"
		fill="#0C4852" />
	<path
		d="M363 205.72C362.981 205.022 363.228 204.343 363.69 203.82C363.95 203.557 364.262 203.352 364.607 203.219C364.952 203.087 365.321 203.029 365.69 203.05C366.067 203.025 366.445 203.081 366.798 203.213C367.152 203.346 367.473 203.553 367.74 203.82C368.205 204.342 368.455 205.021 368.44 205.72C368.461 206.081 368.403 206.443 368.27 206.779C368.138 207.116 367.933 207.42 367.672 207.67C367.411 207.92 367.098 208.11 366.756 208.228C366.414 208.345 366.05 208.387 365.69 208.35C365.323 208.372 364.955 208.317 364.61 208.188C364.266 208.059 363.952 207.858 363.69 207.6C363.224 207.087 362.976 206.413 363 205.72V205.72ZM368 239.94H363.38V212.94H368V239.94Z"
		fill="#0C4852" />
	<path
		d="M383.49 227.42L380.59 230.42V239.92H376V201.55H380.63V224.77L383.1 221.77L391.52 212.88H397.14L386.63 224.17L398.37 239.92H392.95L383.49 227.42Z"
		fill="#0C4852" />
	<path
		d="M409.94 227.42L407.04 230.42V239.92H402.42V201.55H407V224.77L409.48 221.77L417.9 212.88H423.52L413 224.19L424.75 239.94H419.32L409.94 227.42Z"
		fill="#0C4852" />
	<path
		d="M440.07 240.44C438.407 240.501 436.751 240.21 435.208 239.586C433.666 238.962 432.273 238.02 431.12 236.82C428.82 234.42 427.67 231.203 427.67 227.17V226.32C427.625 223.837 428.152 221.377 429.21 219.13C430.158 217.116 431.646 215.406 433.51 214.19C435.288 213.011 437.377 212.388 439.51 212.4C441.05 212.314 442.588 212.582 444.008 213.184C445.428 213.785 446.691 214.704 447.7 215.87C449.653 218.19 450.63 221.507 450.63 225.82V227.74H432.3C432.25 230.109 433.084 232.413 434.64 234.2C435.348 235.002 436.224 235.638 437.206 236.063C438.188 236.488 439.251 236.692 440.32 236.66C441.768 236.709 443.203 236.363 444.47 235.66C445.63 234.98 446.648 234.084 447.47 233.02L450.29 235.21C448.01 238.703 444.603 240.447 440.07 240.44ZM439.5 216.2C438.619 216.179 437.744 216.347 436.934 216.692C436.123 217.037 435.396 217.551 434.8 218.2C433.422 219.801 432.598 221.803 432.45 223.91H446V223.57C446.006 221.584 445.336 219.655 444.1 218.1C443.523 217.461 442.81 216.959 442.015 216.631C441.219 216.302 440.36 216.155 439.5 216.2V216.2Z"
		fill="#0C4852" />
	<path d="M461.5 239.94H456.88V201.55H461.5V239.94Z" fill="#0C4852" />
	<path
		d="M469.43 205.72C469.411 205.022 469.658 204.343 470.12 203.82C470.38 203.557 470.693 203.353 471.037 203.22C471.382 203.088 471.751 203.029 472.12 203.05C472.489 203.032 472.857 203.091 473.201 203.224C473.546 203.356 473.859 203.559 474.12 203.82C474.589 204.34 474.84 205.02 474.82 205.72C474.833 206.064 474.777 206.407 474.657 206.73C474.537 207.052 474.354 207.348 474.12 207.6C473.856 207.856 473.542 208.055 473.198 208.184C472.854 208.313 472.487 208.369 472.12 208.35C471.761 208.385 471.399 208.343 471.059 208.224C470.718 208.106 470.407 207.915 470.148 207.665C469.888 207.415 469.686 207.112 469.555 206.776C469.424 206.44 469.368 206.08 469.39 205.72H469.43ZM474.43 239.94H469.81V212.94H474.43V239.94Z"
		fill="#0C4852" />
	<path
		d="M486.71 212.9L486.86 216.29C487.805 215.046 489.033 214.045 490.441 213.369C491.849 212.692 493.398 212.36 494.96 212.4C500.68 212.4 503.563 215.623 503.61 222.07V239.94H499V222C499.116 220.444 498.641 218.901 497.67 217.68C497.122 217.176 496.476 216.791 495.772 216.55C495.068 216.309 494.322 216.217 493.58 216.28C492.17 216.252 490.787 216.672 489.63 217.48C488.494 218.289 487.583 219.373 486.98 220.63V239.9H482.36V212.9H486.71Z"
		fill="#0C4852" />
	<path
		d="M510 226.19C510 221.983 510.973 218.63 512.92 216.13C513.85 214.985 515.02 214.058 516.347 213.414C517.674 212.77 519.126 212.425 520.601 212.403C522.076 212.381 523.538 212.683 524.884 213.287C526.229 213.891 527.426 214.783 528.39 215.9L528.62 212.9H532.84V239.29C532.921 240.809 532.687 242.328 532.152 243.751C531.617 245.174 530.792 246.471 529.73 247.56C528.606 248.59 527.287 249.386 525.852 249.901C524.416 250.416 522.893 250.64 521.37 250.56C519.396 250.554 517.447 250.127 515.65 249.31C513.932 248.588 512.449 247.4 511.37 245.88L513.77 243.11C514.612 244.249 515.709 245.174 516.973 245.811C518.238 246.449 519.634 246.78 521.05 246.78C522.01 246.838 522.971 246.699 523.876 246.372C524.78 246.046 525.609 245.538 526.31 244.88C526.964 244.16 527.467 243.317 527.79 242.4C528.112 241.483 528.249 240.51 528.19 239.54V237.21C527.248 238.276 526.079 239.116 524.769 239.67C523.458 240.224 522.041 240.477 520.62 240.41C519.125 240.441 517.646 240.109 516.308 239.442C514.97 238.775 513.814 237.793 512.94 236.58C510.98 234.06 510 230.597 510 226.19ZM514.65 226.72C514.506 229.25 515.16 231.762 516.52 233.9C517.105 234.742 517.893 235.422 518.81 235.878C519.728 236.335 520.746 236.552 521.77 236.51C523.117 236.558 524.447 236.203 525.591 235.49C526.734 234.778 527.639 233.74 528.19 232.51V220.2C527.618 219.006 526.711 218.004 525.58 217.315C524.45 216.627 523.143 216.281 521.82 216.32C520.793 216.281 519.772 216.501 518.851 216.959C517.931 217.416 517.139 218.098 516.55 218.94C515.28 220.69 514.65 223.29 514.65 226.72Z"
		fill="#0C4852" />
	<path
		d="M551.55 240.44C549.887 240.501 548.231 240.21 546.688 239.586C545.146 238.962 543.753 238.02 542.6 236.82C540.3 234.42 539.15 231.203 539.15 227.17V226.32C539.107 223.838 539.63 221.379 540.68 219.13C541.63 217.115 543.123 215.405 544.99 214.19C546.767 213.01 548.856 212.386 550.99 212.4C552.531 212.314 554.071 212.582 555.493 213.184C556.914 213.785 558.179 214.704 559.19 215.87C561.143 218.19 562.12 221.507 562.12 225.82V227.74H543.77C543.729 230.108 544.562 232.408 546.11 234.2C546.819 235.001 547.695 235.636 548.677 236.061C549.658 236.486 550.721 236.69 551.79 236.66C553.241 236.708 554.679 236.362 555.95 235.66C557.11 234.981 558.129 234.084 558.95 233.02L561.77 235.21C559.49 238.703 556.083 240.447 551.55 240.44ZM551 216.2C550.12 216.181 549.245 216.35 548.435 216.694C547.625 217.039 546.897 217.552 546.3 218.2C544.93 219.806 544.107 221.805 543.95 223.91H557.5V223.57C557.501 221.585 556.832 219.657 555.6 218.1C555.022 217.462 554.309 216.961 553.514 216.633C552.718 216.304 551.86 216.156 551 216.2V216.2Z"
		fill="#0C4852" />
	<path
		d="M572.33 212.9L572.48 216.29C573.423 215.046 574.648 214.044 576.055 213.368C577.462 212.691 579.01 212.359 580.57 212.4C586.29 212.4 589.173 215.623 589.22 222.07V239.94H584.6V222C584.713 220.443 584.235 218.9 583.26 217.68C582.712 217.176 582.066 216.791 581.362 216.55C580.658 216.309 579.912 216.217 579.17 216.28C577.763 216.254 576.384 216.674 575.23 217.48C574.089 218.283 573.176 219.368 572.58 220.63V239.9H568V212.9H572.33Z"
		fill="#0C4852" />
	<path
		d="M609.92 205.72C609.903 205.024 610.145 204.347 610.6 203.82C610.86 203.557 611.173 203.353 611.517 203.22C611.862 203.088 612.231 203.029 612.6 203.05C612.977 203.025 613.355 203.081 613.708 203.213C614.062 203.346 614.383 203.553 614.65 203.82C615.119 204.34 615.37 205.02 615.35 205.72C615.363 206.064 615.307 206.407 615.187 206.73C615.067 207.052 614.884 207.348 614.65 207.6C614.38 207.862 614.058 208.065 613.705 208.194C613.352 208.323 612.975 208.376 612.6 208.35C612.233 208.371 611.865 208.315 611.521 208.186C611.176 208.057 610.863 207.857 610.6 207.6C610.141 207.083 609.898 206.411 609.92 205.72V205.72ZM614.92 239.94H610.29V212.94H614.92V239.94Z"
		fill="#0C4852" />
	<path
		d="M627.2 212.9L627.35 216.29C628.295 215.046 629.523 214.045 630.931 213.369C632.339 212.692 633.888 212.36 635.45 212.4C641.157 212.4 644.04 215.623 644.1 222.07V239.94H639.47V222C639.583 220.443 639.105 218.9 638.13 217.68C637.584 217.176 636.94 216.792 636.237 216.551C635.535 216.31 634.79 216.217 634.05 216.28C632.64 216.252 631.257 216.672 630.1 217.48C628.964 218.289 628.053 219.373 627.45 220.63V239.9H622.83V212.9H627.2Z"
		fill="#0C4852" />
	<path
		d="M663.64 226.19C663.64 222.037 664.64 218.703 666.64 216.19C667.54 215.052 668.676 214.123 669.971 213.468C671.266 212.813 672.687 212.448 674.137 212.397C675.587 212.347 677.031 212.613 678.368 213.176C679.705 213.74 680.903 214.587 681.88 215.66V201.56H686.51V239.95H682.26L682 237C681.065 238.129 679.879 239.024 678.537 239.615C677.195 240.205 675.734 240.474 674.27 240.4C672.777 240.427 671.3 240.09 669.965 239.419C668.631 238.749 667.48 237.764 666.61 236.55C664.61 233.99 663.61 230.63 663.61 226.5L663.64 226.19ZM668.26 226.72C668.119 229.26 668.784 231.78 670.16 233.92C670.751 234.754 671.54 235.428 672.457 235.88C673.374 236.332 674.389 236.549 675.41 236.51C676.751 236.567 678.078 236.222 679.222 235.521C680.366 234.819 681.274 233.791 681.83 232.57V220.14C681.253 218.954 680.344 217.962 679.213 217.283C678.082 216.605 676.778 216.27 675.46 216.32C674.428 216.281 673.403 216.5 672.478 216.958C671.552 217.415 670.755 218.097 670.16 218.94C668.9 220.69 668.26 223.29 668.26 226.72Z"
		fill="#0C4852" />
	<path
		d="M705.37 240.44C703.699 240.508 702.033 240.221 700.481 239.597C698.93 238.973 697.528 238.026 696.37 236.82C694.07 234.42 692.92 231.203 692.92 227.17V226.32C692.877 223.838 693.4 221.379 694.45 219.13C695.398 217.113 696.891 215.402 698.76 214.19C700.537 213.008 702.626 212.385 704.76 212.4C706.301 212.316 707.841 212.584 709.262 213.186C710.683 213.787 711.948 214.705 712.96 215.87C714.913 218.19 715.887 221.507 715.88 225.82V227.74H697.59C697.544 230.109 698.378 232.41 699.93 234.2C700.639 235.001 701.515 235.637 702.496 236.062C703.478 236.487 704.541 236.691 705.61 236.66C707.058 236.709 708.493 236.363 709.76 235.66C710.92 234.98 711.938 234.084 712.76 233.02L715.58 235.21C713.3 238.703 709.897 240.447 705.37 240.44ZM704.79 216.2C703.909 216.179 703.034 216.347 702.224 216.692C701.413 217.037 700.686 217.551 700.09 218.2C698.72 219.806 697.897 221.805 697.74 223.91H711.29V223.57C711.286 221.585 710.617 219.659 709.39 218.1C708.812 217.462 708.099 216.961 707.304 216.633C706.508 216.304 705.65 216.156 704.79 216.2V216.2Z"
		fill="#0C4852" />
	<path
		d="M735 205.72C734.981 205.022 735.228 204.343 735.69 203.82C735.948 203.555 736.261 203.349 736.606 203.217C736.951 203.084 737.321 203.027 737.69 203.05C738.068 203.024 738.448 203.079 738.803 203.212C739.159 203.345 739.481 203.552 739.75 203.82C740.215 204.342 740.465 205.021 740.45 205.72C740.471 206.082 740.413 206.444 740.28 206.782C740.146 207.119 739.941 207.424 739.679 207.674C739.416 207.924 739.102 208.114 738.759 208.231C738.415 208.348 738.051 208.388 737.69 208.35C737.323 208.374 736.954 208.319 736.609 208.19C736.265 208.061 735.951 207.86 735.69 207.6C735.224 207.087 734.976 206.413 735 205.72V205.72ZM740 239.94H735.38V212.94H740V239.94Z"
		fill="#0C4852" />
	<path
		d="M752.26 212.9L752.42 216.29C753.363 215.046 754.588 214.044 755.995 213.368C757.402 212.691 758.95 212.359 760.51 212.4C766.223 212.4 769.107 215.623 769.16 222.07V239.94H764.54V222C764.648 220.443 764.17 218.902 763.2 217.68C762.652 217.177 762.005 216.793 761.302 216.552C760.598 216.311 759.851 216.218 759.11 216.28C757.683 216.243 756.281 216.663 755.11 217.48C753.974 218.289 753.063 219.373 752.46 220.63V239.9H747.84V212.9H752.26Z"
		fill="#0C4852" />
	<path
		d="M792.39 232.77C792.416 232.206 792.301 231.644 792.054 231.136C791.808 230.628 791.439 230.189 790.98 229.86C789.474 228.946 787.802 228.337 786.06 228.07C784.132 227.706 782.257 227.101 780.48 226.27C779.271 225.704 778.222 224.845 777.43 223.77C776.752 222.749 776.403 221.545 776.43 220.32C776.426 219.227 776.679 218.149 777.167 217.171C777.655 216.194 778.365 215.344 779.24 214.69C781.289 213.105 783.832 212.294 786.42 212.4C789.113 212.277 791.761 213.117 793.89 214.77C794.802 215.493 795.534 216.417 796.03 217.47C796.526 218.523 796.773 219.676 796.75 220.84H792.1C792.095 220.209 791.948 219.587 791.669 219.021C791.39 218.455 790.987 217.959 790.49 217.57C789.349 216.627 787.899 216.139 786.42 216.2C785.002 216.106 783.594 216.489 782.42 217.29C781.97 217.621 781.606 218.056 781.359 218.557C781.112 219.058 780.989 219.611 781 220.17C780.975 220.671 781.085 221.169 781.319 221.613C781.553 222.056 781.902 222.428 782.33 222.69C783.828 223.481 785.441 224.031 787.11 224.32C789.048 224.707 790.932 225.328 792.72 226.17C793.987 226.747 795.085 227.638 795.91 228.76C796.614 229.855 796.963 231.14 796.91 232.44C796.939 233.572 796.689 234.693 796.184 235.706C795.678 236.719 794.932 237.593 794.01 238.25C791.81 239.791 789.163 240.561 786.48 240.44C784.506 240.475 782.548 240.083 780.74 239.29C779.167 238.599 777.814 237.488 776.83 236.08C775.904 234.778 775.407 233.218 775.41 231.62H780.04C780.066 232.342 780.256 233.048 780.596 233.686C780.935 234.324 781.415 234.876 782 235.3C783.328 236.261 784.943 236.74 786.58 236.66C788.061 236.734 789.53 236.365 790.8 235.6C791.289 235.308 791.693 234.893 791.972 234.397C792.251 233.9 792.395 233.34 792.39 232.77Z"
		fill="#0C4852" />
	<path
		d="M809.82 206.35V212.9H814.82V216.47H809.82V233.26C809.756 234.128 809.996 234.991 810.5 235.7C810.799 235.997 811.161 236.224 811.559 236.364C811.956 236.505 812.381 236.554 812.8 236.51C813.539 236.488 814.273 236.388 814.99 236.21V239.94C813.839 240.269 812.647 240.437 811.45 240.44C810.579 240.501 809.706 240.365 808.896 240.041C808.085 239.717 807.359 239.214 806.77 238.57C805.632 237.035 805.076 235.147 805.2 233.24V216.47H800.27V212.9H805.2V206.35H809.82Z"
		fill="#0C4852" />
	<path
		d="M837.48 239.94C837.12 239.028 836.901 238.067 836.83 237.09C835.853 238.157 834.663 239.006 833.336 239.584C832.01 240.161 830.577 240.452 829.13 240.44C826.737 240.536 824.396 239.729 822.57 238.18C821.744 237.473 821.085 236.592 820.643 235.599C820.2 234.606 819.984 233.527 820.01 232.44C819.956 231.166 820.221 229.898 820.782 228.752C821.342 227.606 822.18 226.619 823.22 225.88C825.36 224.32 828.36 223.54 832.22 223.54H836.71V221.42C836.746 220.712 836.636 220.003 836.387 219.339C836.137 218.675 835.754 218.069 835.26 217.56C834.68 217.047 834.004 216.656 833.271 216.408C832.537 216.161 831.762 216.063 830.99 216.12C829.507 216.071 828.049 216.51 826.84 217.37C826.338 217.695 825.923 218.139 825.631 218.662C825.34 219.185 825.182 219.771 825.17 220.37H820.52C820.55 218.942 821.057 217.566 821.96 216.46C822.98 215.145 824.319 214.112 825.85 213.46C827.557 212.709 829.405 212.334 831.27 212.36C833.916 212.206 836.524 213.04 838.59 214.7C839.484 215.51 840.192 216.504 840.665 217.615C841.138 218.725 841.365 219.924 841.33 221.13V233.58C841.268 235.6 841.608 237.612 842.33 239.5V239.9L837.48 239.94ZM829.8 236.42C831.253 236.418 832.679 236.028 833.93 235.29C835.147 234.629 836.131 233.609 836.75 232.37V226.82H833.13C827.463 226.82 824.63 228.487 824.63 231.82C824.596 232.46 824.71 233.099 824.961 233.688C825.212 234.277 825.595 234.801 826.08 235.22C827.134 236.057 828.456 236.483 829.8 236.42V236.42Z"
		fill="#0C4852" />
	<path d="M854.16 239.94H849.54V201.55H854.16V239.94Z" fill="#0C4852" />
	<path d="M867.09 239.94H862.47V201.55H867.09V239.94Z" fill="#0C4852" />
	<path
		d="M891.69 239.94C891.335 239.028 891.119 238.067 891.05 237.09C890.072 238.156 888.882 239.005 887.555 239.582C886.229 240.159 884.796 240.451 883.35 240.44C880.957 240.54 878.614 239.733 876.79 238.18C875.962 237.474 875.302 236.593 874.857 235.6C874.413 234.607 874.195 233.528 874.22 232.44C874.166 231.166 874.431 229.898 874.992 228.752C875.552 227.606 876.39 226.619 877.43 225.88C879.57 224.32 882.59 223.54 886.43 223.54H891V221.42C891.036 220.712 890.926 220.003 890.676 219.339C890.427 218.675 890.044 218.069 889.55 217.56C888.97 217.048 888.293 216.657 887.56 216.41C886.827 216.163 886.052 216.064 885.28 216.12C883.797 216.069 882.338 216.508 881.13 217.37C880.626 217.695 880.21 218.138 879.917 218.661C879.624 219.184 879.464 219.771 879.45 220.37H874.81C874.836 218.943 875.34 217.567 876.24 216.46C877.266 215.146 878.607 214.114 880.14 213.46C881.844 212.71 883.689 212.335 885.55 212.36C888.196 212.203 890.806 213.037 892.87 214.7C893.765 215.51 894.475 216.504 894.95 217.614C895.424 218.724 895.653 219.923 895.62 221.13V233.58C895.543 235.597 895.866 237.609 896.57 239.5V239.9L891.69 239.94ZM884 236.42C885.453 236.417 886.878 236.027 888.13 235.29C889.347 234.629 890.331 233.609 890.95 232.37V226.82H887.33C881.657 226.82 878.823 228.487 878.83 231.82C878.796 232.46 878.91 233.099 879.161 233.688C879.412 234.277 879.795 234.801 880.28 235.22C881.334 236.058 882.656 236.484 884 236.42V236.42Z"
		fill="#0C4852" />
	<path
		d="M909.63 206.35V212.9H914.63V216.47H909.63V233.26C909.563 234.126 909.8 234.989 910.3 235.7C910.6 235.997 910.961 236.223 911.359 236.363C911.757 236.503 912.181 236.554 912.6 236.51C913.342 236.489 914.079 236.388 914.8 236.21V239.94C913.645 240.268 912.451 240.436 911.25 240.44C910.381 240.501 909.509 240.365 908.701 240.041C907.892 239.717 907.167 239.214 906.58 238.57C905.439 237.037 904.879 235.148 905 233.24V216.47H900.08V212.9H905V206.35H909.63Z"
		fill="#0C4852" />
	<path
		d="M920.61 205.72C920.591 205.022 920.838 204.343 921.3 203.82C921.56 203.557 921.873 203.353 922.217 203.22C922.562 203.088 922.931 203.029 923.3 203.05C923.669 203.032 924.037 203.091 924.381 203.224C924.726 203.356 925.039 203.559 925.3 203.82C925.765 204.342 926.015 205.021 926 205.72C926.021 206.081 925.963 206.443 925.83 206.779C925.698 207.116 925.493 207.42 925.232 207.67C924.971 207.92 924.658 208.11 924.316 208.228C923.974 208.345 923.61 208.387 923.25 208.35C922.891 208.385 922.529 208.343 922.189 208.224C921.848 208.106 921.537 207.915 921.278 207.665C921.018 207.415 920.816 207.112 920.685 206.776C920.554 206.44 920.498 206.08 920.52 205.72H920.61ZM925.61 239.94H921V212.94H925.62L925.61 239.94Z"
		fill="#0C4852" />
	<path
		d="M944.74 240.44C943.069 240.507 941.403 240.219 939.852 239.595C938.301 238.971 936.899 238.025 935.74 236.82C933.453 234.42 932.307 231.203 932.3 227.17V226.32C932.257 223.838 932.78 221.379 933.83 219.13C934.774 217.114 936.264 215.403 938.13 214.19C939.907 213.01 941.996 212.386 944.13 212.4C945.671 212.314 947.211 212.582 948.633 213.184C950.054 213.785 951.319 214.704 952.33 215.87C954.29 218.19 955.267 221.507 955.26 225.82V227.74H937C936.951 230.107 937.781 232.409 939.33 234.2C940.041 235.001 940.919 235.636 941.902 236.061C942.885 236.486 943.949 236.691 945.02 236.66C946.468 236.709 947.903 236.363 949.17 235.66C950.33 234.981 951.349 234.084 952.17 233.02L955 235.21C952.687 238.703 949.267 240.447 944.74 240.44ZM944.16 216.2C943.28 216.181 942.405 216.35 941.595 216.694C940.785 217.039 940.057 217.552 939.46 218.2C938.094 219.807 937.274 221.807 937.12 223.91H950.66V223.57C950.665 221.586 949.999 219.658 948.77 218.1C948.19 217.462 947.476 216.961 946.678 216.632C945.881 216.304 945.021 216.156 944.16 216.2V216.2Z"
		fill="#0C4852" />
	<path
		d="M984.05 226.72C984.05 230.85 983.05 234.17 981.2 236.72C980.329 237.924 979.176 238.896 977.842 239.551C976.509 240.207 975.035 240.525 973.55 240.48C972.035 240.557 970.524 240.268 969.145 239.636C967.766 239.004 966.56 238.048 965.63 236.85L965.4 239.98H961.16V201.55H965.78V215.87C966.703 214.725 967.883 213.814 969.225 213.211C970.566 212.608 972.031 212.33 973.5 212.4C974.994 212.341 976.48 212.649 977.828 213.298C979.176 213.946 980.344 214.915 981.23 216.12C983.11 218.61 984.05 222 984.05 226.32V226.72ZM979.42 226.19C979.42 223.037 978.813 220.607 977.6 218.9C977.018 218.058 976.23 217.378 975.311 216.927C974.392 216.475 973.372 216.266 972.35 216.32C970.95 216.264 969.567 216.643 968.391 217.403C967.215 218.164 966.303 219.27 965.78 220.57V232.26C966.331 233.55 967.256 234.645 968.437 235.403C969.617 236.161 970.998 236.546 972.4 236.51C973.408 236.551 974.411 236.337 975.314 235.888C976.218 235.439 976.994 234.769 977.57 233.94C978.803 232.22 979.42 229.637 979.42 226.19Z"
		fill="#0C4852" />
	<path
		d="M1003.45 217.05C1002.7 216.926 1001.94 216.866 1001.18 216.87C998.18 216.87 996.09 218.16 995 220.75V239.94H990.38V212.94H994.88L995 216C995.645 214.87 996.585 213.937 997.719 213.3C998.854 212.662 1000.14 212.344 1001.44 212.38C1002.14 212.339 1002.84 212.459 1003.49 212.73L1003.45 217.05Z"
		fill="#0C4852" />
	<path
		d="M1023.91 239.94C1023.55 239.03 1023.33 238.068 1023.26 237.09C1022.28 238.156 1021.09 239.005 1019.77 239.582C1018.44 240.159 1017.01 240.451 1015.56 240.44C1013.17 240.538 1010.83 239.731 1009 238.18C1008.17 237.473 1007.52 236.592 1007.07 235.599C1006.63 234.606 1006.41 233.527 1006.44 232.44C1006.39 231.166 1006.65 229.898 1007.21 228.752C1007.77 227.606 1008.61 226.619 1009.65 225.88C1011.79 224.32 1014.79 223.54 1018.65 223.54H1023.16V221.42C1023.19 220.711 1023.08 220.002 1022.83 219.338C1022.58 218.674 1022.19 218.069 1021.7 217.56C1021.12 217.047 1020.44 216.656 1019.71 216.408C1018.98 216.161 1018.2 216.063 1017.43 216.12C1015.95 216.071 1014.49 216.51 1013.28 217.37C1012.78 217.697 1012.37 218.141 1012.07 218.664C1011.78 219.187 1011.62 219.772 1011.61 220.37H1007C1007.03 218.944 1007.53 217.569 1008.43 216.46C1009.46 215.146 1010.8 214.114 1012.33 213.46C1014.03 212.712 1015.88 212.337 1017.74 212.36C1020.39 212.204 1023 213.038 1025.07 214.7C1025.96 215.513 1026.67 216.507 1027.14 217.616C1027.62 218.726 1027.85 219.924 1027.82 221.13V233.58C1027.75 235.6 1028.09 237.614 1028.82 239.5V239.9L1023.91 239.94ZM1016.24 236.42C1017.69 236.418 1019.11 236.028 1020.36 235.29C1021.58 234.626 1022.56 233.608 1023.19 232.37V226.82H1019.56C1013.89 226.82 1011.06 228.487 1011.06 231.82C1011.03 232.459 1011.14 233.097 1011.4 233.686C1011.65 234.275 1012.03 234.799 1012.51 235.22C1013.57 236.059 1014.89 236.485 1016.24 236.42V236.42Z"
		fill="#0C4852" />
	<path
		d="M1039.94 212.9L1040.09 216.29C1041.04 215.046 1042.26 214.045 1043.67 213.369C1045.08 212.692 1046.63 212.36 1048.19 212.4C1053.9 212.4 1056.79 215.623 1056.84 222.07V239.94H1052.21V222C1052.32 220.443 1051.84 218.9 1050.87 217.68C1050.32 217.176 1049.68 216.792 1048.98 216.551C1048.27 216.31 1047.53 216.217 1046.79 216.28C1045.36 216.242 1043.96 216.662 1042.79 217.48C1041.65 218.286 1040.74 219.371 1040.14 220.63V239.9H1035.51V212.9H1039.94Z"
		fill="#0C4852" />
	<path
		d="M1075.17 236.66C1076.74 236.691 1078.27 236.163 1079.49 235.17C1080.07 234.718 1080.54 234.151 1080.88 233.505C1081.23 232.86 1081.43 232.15 1081.49 231.42H1085.87C1085.76 233.016 1085.21 234.55 1084.26 235.84C1083.25 237.267 1081.9 238.419 1080.33 239.19C1078.72 240.015 1076.93 240.443 1075.12 240.44C1073.47 240.514 1071.83 240.221 1070.31 239.583C1068.79 238.945 1067.43 237.977 1066.33 236.75C1064.16 234.3 1063.07 230.93 1063.07 226.67V225.89C1063.03 223.478 1063.52 221.086 1064.52 218.89C1065.41 216.927 1066.86 215.268 1068.68 214.12C1070.61 212.951 1072.83 212.361 1075.09 212.42C1077.87 212.327 1080.57 213.3 1082.65 215.14C1083.64 216.036 1084.44 217.126 1084.99 218.342C1085.55 219.558 1085.84 220.874 1085.87 222.21H1081.49C1081.4 220.569 1080.69 219.025 1079.49 217.9C1078.3 216.78 1076.71 216.176 1075.08 216.22C1074.03 216.169 1072.99 216.372 1072.04 216.813C1071.09 217.253 1070.26 217.918 1069.62 218.75C1068.33 220.437 1067.69 222.883 1067.68 226.09V226.96C1067.68 230.08 1068.33 232.48 1069.61 234.16C1070.26 234.999 1071.11 235.665 1072.08 236.101C1073.05 236.537 1074.11 236.729 1075.17 236.66V236.66Z"
		fill="#0C4852" />
	<path
		d="M1096.25 216.17C1097.2 214.959 1098.41 213.987 1099.8 213.332C1101.19 212.678 1102.71 212.358 1104.25 212.4C1109.96 212.4 1112.85 215.623 1112.9 222.07V239.94H1108.27V222C1108.38 220.443 1107.9 218.9 1106.93 217.68C1106.38 217.176 1105.74 216.792 1105.04 216.551C1104.33 216.31 1103.59 216.217 1102.85 216.28C1101.44 216.252 1100.06 216.672 1098.9 217.48C1097.76 218.289 1096.85 219.373 1096.25 220.63V239.9H1091.63V201.55H1096.25V216.17Z"
		fill="#0C4852" />
	<path
		d="M1131.55 240.44C1129.88 240.508 1128.21 240.221 1126.66 239.597C1125.11 238.973 1123.71 238.026 1122.55 236.82C1120.25 234.42 1119.1 231.203 1119.1 227.17V226.32C1119.06 223.837 1119.58 221.377 1120.64 219.13C1121.59 217.116 1123.08 215.406 1124.94 214.19C1126.72 213.011 1128.81 212.388 1130.94 212.4C1132.48 212.316 1134.02 212.585 1135.44 213.186C1136.86 213.787 1138.12 214.705 1139.13 215.87C1141.08 218.19 1142.05 221.507 1142.06 225.82V227.74H1123.74C1123.69 230.109 1124.52 232.413 1126.08 234.2C1126.79 235.002 1127.66 235.638 1128.65 236.063C1129.63 236.488 1130.69 236.692 1131.76 236.66C1133.21 236.709 1134.64 236.363 1135.91 235.66C1137.07 234.981 1138.09 234.084 1138.91 233.02L1141.74 235.21C1139.48 238.703 1136.08 240.447 1131.55 240.44ZM1131 216.2C1130.12 216.179 1129.24 216.347 1128.43 216.692C1127.62 217.037 1126.9 217.551 1126.3 218.2C1124.92 219.801 1124.1 221.803 1123.95 223.91H1137.49V223.57C1137.5 221.584 1136.83 219.655 1135.59 218.1C1135.01 217.463 1134.3 216.961 1133.51 216.633C1132.72 216.304 1131.86 216.156 1131 216.2V216.2Z"
		fill="#0C4852" />
	<path d="M203.34 168.36V41H160.46V13.1H277.68V41H234.59V168.36H203.34Z" fill="#2F8C9D" />
	<path
		d="M288.88 168.36V55.69H313L320.18 72.89C324.132 67.8487 328.786 63.4001 334 59.68C339.359 55.9726 345.756 54.0609 352.27 54.22C353.82 54.22 355.4 54.3 357.02 54.43C358.558 54.5541 360.079 54.8356 361.56 55.27V87.16C359.45 86.89 357.23 86.64 354.91 86.43C352.59 86.22 350.37 86.11 348.26 86.11C344.519 86.0674 340.789 86.5282 337.17 87.48C333.958 88.3442 330.896 89.693 328.09 91.48C325.154 93.3852 322.487 95.6757 320.16 98.29V168.37L288.88 168.36Z"
		fill="#2F8C9D" />
	<path
		d="M426 169.4C413.46 169.4 403.46 167.76 396 164.48C388.54 161.2 383.14 155.373 379.8 147C376.467 138.6 374.8 126.99 374.8 112.17C374.8 96.93 376.347 85.11 379.44 76.71C382.533 68.31 387.743 62.4367 395.07 59.09C402.403 55.7567 412.33 54.09 424.85 54.09C436.123 54.09 445.123 55.21 451.85 57.45C458.577 59.69 463.47 63.6067 466.53 69.2C469.557 74.7867 471.07 82.69 471.07 92.91C471.07 100.463 469.557 106.443 466.53 110.85C463.419 115.312 458.929 118.629 453.75 120.29C447.492 122.248 440.955 123.163 434.4 123H405.88C406.16 128.73 407.05 133.31 408.52 136.74C409.296 138.477 410.431 140.029 411.852 141.295C413.272 142.56 414.945 143.509 416.76 144.08C420.76 145.547 426.57 146.283 434.19 146.29H467.35V164.54C461.857 165.66 455.837 166.743 449.29 167.79C441.58 168.932 433.793 169.47 426 169.4ZM405.51 104.58H431.28C435.5 104.58 438.597 103.74 440.57 102.06C442.543 100.38 443.543 97.38 443.57 93.06C443.716 89.7023 443.065 86.3578 441.67 83.3C440.41 80.8362 438.262 78.9421 435.66 78C432.194 76.832 428.545 76.3001 424.89 76.43C420.1 76.43 416.31 77.24 413.49 78.84C410.67 80.44 408.63 83.29 407.36 87.34C406.09 91.39 405.46 97.17 405.46 104.58H405.51Z"
		fill="#2F8C9D" />
	<path
		d="M491.64 168.36V55.69H517.41L522.89 67.23C527.749 63.3674 533.137 60.222 538.89 57.89C545.129 55.2051 551.848 53.817 558.64 53.81C567.94 53.81 575.123 55.6267 580.19 59.26C585.2 62.8549 588.92 67.967 590.8 73.84C592.91 80.3797 593.944 87.2188 593.86 94.09V168.36H562.6V98.07C562.711 94.9486 562.023 91.8506 560.6 89.07C559.31 86.7398 557.362 84.841 555 83.61C552.308 82.2906 549.336 81.6454 546.34 81.73C543.457 81.7205 540.585 82.0732 537.79 82.78C535.093 83.4561 532.48 84.4322 530 85.69C527.521 86.959 525.152 88.4342 522.92 90.1V168.36H491.64Z"
		fill="#2F8C9D" />
	<path
		d="M654.48 169.62C645.607 169.62 638.143 167.767 632.09 164.06C626.037 160.353 621.493 154.333 618.46 146C615.44 137.68 613.93 126.737 613.93 113.17C613.93 99.17 615.23 87.8367 617.83 79.17C620.43 70.5033 624.82 64.1467 631 60.1C637.22 56.0333 645.75 54 656.59 54C661.768 54.0026 666.931 54.5354 672 55.59C676.586 56.5018 681.103 57.728 685.52 59.26V8.26H717V168.36H690.59L685.53 157.66C682.891 160.069 679.942 162.114 676.76 163.74C673.3 165.564 669.652 167.005 665.88 168.04C662.169 169.079 658.334 169.611 654.48 169.62V169.62ZM665.48 144.62C669.417 144.674 673.326 143.96 676.99 142.52C679.952 141.358 682.815 139.957 685.55 138.33V81.71C682.73 80.73 679.773 79.75 676.68 78.77C673.465 77.7728 670.116 77.277 666.75 77.3C661.537 77.3 657.347 78.21 654.18 80.03C651.013 81.85 648.72 85.2433 647.3 90.21C645.887 95.17 645.183 102.337 645.19 111.71C645.19 120.377 645.857 127.127 647.19 131.96C648.53 136.78 650.67 140.11 653.63 141.96C656.59 143.81 660.53 144.65 665.46 144.65L665.48 144.62Z"
		fill="#2F8C9D" />
	<path
		d="M746.77 168.36V80.66H730.77V60.73L746.77 55.73V43.52C746.77 34.2867 748.04 27.0133 750.58 21.7C752.874 16.6229 756.977 12.5832 762.09 10.37C767.23 8.12333 773.67 7 781.41 7C786.816 6.99578 792.216 7.32977 797.58 8C801.708 8.44195 805.777 9.32019 809.72 10.62V33C807.46 32.87 804.72 32.72 801.37 32.58C798.02 32.44 795 32.37 792.19 32.37C789.311 32.2334 786.442 32.8105 783.84 34.05C781.796 35.1776 780.224 37.0015 779.41 39.19C778.396 41.9892 777.918 44.954 778 47.93V55.69H838.82V80.69H778V168.39L746.77 168.36ZM823.87 168.36V55.69H855.13V168.36H823.87Z"
		fill="#2F8C9D" />
	<path
		d="M914.69 168.78C906.69 168.78 900.023 167.487 894.69 164.9C889.498 162.397 885.35 158.149 882.97 152.9C880.43 147.513 879.163 140.553 879.17 132.02V8.27H910.42V127.45C910.306 130.83 910.734 134.206 911.69 137.45C912.336 139.631 913.718 141.522 915.6 142.8C917.635 144.017 919.899 144.804 922.25 145.11L930.91 146.37V168.82L914.69 168.78Z"
		fill="#2F8C9D" />
	<path
		d="M993.05 169.4C980.523 169.4 970.523 167.76 963.05 164.48C955.577 161.2 950.193 155.373 946.9 147C943.567 138.6 941.9 126.99 941.9 112.17C941.9 96.93 943.45 85.11 946.55 76.71C949.65 68.31 954.86 62.4367 962.18 59.09C969.513 55.7567 979.44 54.09 991.96 54.09C1003.23 54.09 1012.23 55.21 1018.96 57.45C1025.69 59.69 1030.59 63.6067 1033.64 69.2C1036.66 74.7867 1038.17 82.69 1038.18 92.91C1038.18 100.463 1036.67 106.443 1033.64 110.85C1030.53 115.312 1026.04 118.629 1020.86 120.29C1014.6 122.249 1008.06 123.164 1001.5 123H973C973.287 128.733 974.17 133.313 975.65 136.74C976.423 138.477 977.556 140.03 978.975 141.296C980.394 142.561 982.066 143.51 983.88 144.08C987.88 145.547 993.687 146.283 1001.3 146.29H1034.47V164.54C1028.98 165.66 1022.96 166.743 1016.41 167.79C1008.68 168.936 1000.87 169.474 993.05 169.4ZM972.56 104.58H998.33C1002.55 104.58 1005.65 103.74 1007.62 102.06C1009.59 100.38 1010.59 97.38 1010.62 93.06C1010.77 89.7023 1010.11 86.3578 1008.72 83.3C1007.47 80.8781 1005.36 79.0072 1002.81 78.05C999.332 76.8726 995.67 76.3339 992 76.46C987.22 76.46 983.41 77.27 980.6 78.87C977.79 80.47 975.74 83.32 974.47 87.37C973.2 91.42 972.56 97.17 972.56 104.58V104.58Z"
		fill="#2F8C9D" />
	<path
		d="M1099.92 169.62C1096.4 169.62 1092.6 169.513 1088.52 169.3C1084.44 169.087 1080.35 168.773 1076.26 168.36C1072.18 167.94 1068.38 167.413 1064.86 166.78C1061.85 166.285 1058.88 165.55 1055.99 164.58V146.33H1106.26C1108.71 146.388 1111.16 146.139 1113.55 145.59C1115.24 145.236 1116.75 144.267 1117.77 142.87C1118.79 141.125 1119.26 139.117 1119.14 137.1V133.53C1119.21 132.309 1119 131.089 1118.53 129.962C1118.05 128.835 1117.32 127.832 1116.4 127.03C1114.57 125.49 1111.18 124.72 1106.26 124.72H1088.52C1082.54 124.806 1076.6 123.81 1070.98 121.78C1065.94 119.957 1061.62 116.577 1058.63 112.13C1055.6 107.65 1054.08 101.65 1054.09 94.13V87.58C1054.09 80.4533 1055.5 74.4533 1058.31 69.58C1061.12 64.7067 1065.84 61 1072.47 58.46C1079.08 55.94 1088.16 54.68 1099.71 54.68C1104.38 54.68 1109.34 54.9267 1114.6 55.42C1119.86 55.9133 1124.86 56.5433 1129.6 57.31C1133.43 57.8641 1137.21 58.7405 1140.9 59.93V78.14H1093.37C1089.29 78.14 1086.19 78.81 1084.08 80.14C1081.97 81.47 1080.91 83.96 1080.91 87.59V90.95C1080.91 93.47 1081.4 95.3233 1082.39 96.51C1083.59 97.8231 1085.18 98.7081 1086.93 99.03C1089.46 99.5674 1092.05 99.8123 1094.64 99.76H1112.81C1124.35 99.76 1132.76 102.383 1138.05 107.63C1143.34 112.877 1145.98 120.113 1145.97 129.34V139.4C1145.97 146.96 1144.17 152.94 1140.58 157.34C1136.99 161.74 1131.79 164.887 1125 166.78C1118.14 168.667 1109.78 169.613 1099.92 169.62Z"
		fill="#2F8C9D" />
	<path
		d="M22.32 127.5C30.5877 127.5 37.29 120.798 37.29 112.53C37.29 104.262 30.5877 97.56 22.32 97.56C14.0523 97.56 7.35 104.262 7.35 112.53C7.35 120.798 14.0523 127.5 22.32 127.5Z"
		fill="#2F8C9D" />
	<path
		d="M71.33 127.5C79.5977 127.5 86.3 120.798 86.3 112.53C86.3 104.262 79.5977 97.56 71.33 97.56C63.0623 97.56 56.36 104.262 56.36 112.53C56.36 120.798 63.0623 127.5 71.33 127.5Z"
		fill="#2F8C9D" />
	<path
		d="M120.33 127.5C128.598 127.5 135.3 120.798 135.3 112.53C135.3 104.262 128.598 97.56 120.33 97.56C112.062 97.56 105.36 104.262 105.36 112.53C105.36 120.798 112.062 127.5 120.33 127.5Z"
		fill="#2F8C9D" />
</svg>