<?xml version="1.0" encoding="utf-8"?>
<!-- Generator: Adobe Illustrator 16.2.0, SVG Export Plug-In . SVG Version: 6.00 Build 0)  -->
<!DOCTYPE svg PUBLIC "-//W3C//DTD SVG 1.1//EN" "http://www.w3.org/Graphics/SVG/1.1/DTD/svg11.dtd">
<svg version="1.1" id="Laag_1" xmlns="http://www.w3.org/2000/svg" xmlns:xlink="http://www.w3.org/1999/xlink" x="0px" y="0px"
	 width="64.653px" height="71.644px" viewBox="0 0 64.653 71.644" enable-background="new 0 0 64.653 71.644" xml:space="preserve">
<path d="M10.373,17.639c0-7.499,4.055-9.244,6.695-9.244s6.695,1.745,6.695,9.244c0,7.499-4.055,9.244-6.695,9.244
	S10.373,25.138,10.373,17.639z M0,17.639C0,27.92,6.837,35.277,17.068,35.277c10.23,0,17.067-7.357,17.067-17.639S27.299,0,17.068,0
	C6.837,0,0,7.357,0,17.639z"/>
<path d="M43.24,9.433h-9.43V0.802h29.231v8.631h-9.43v25.043H43.24V9.433z"/>
<path fill="#EF7D00" d="M44.144,57.354h6.507c2.451,0,3.63,1.084,3.63,3.065c0,2.594-1.886,3.207-4.055,3.207h-6.082V57.354z
	 M33.771,71.644h19.095c5.94,0,11.787-3.49,11.787-10.234c0-4.952-2.829-7.356-5.847-8.395c2.499-1.368,4.149-3.207,4.149-6.603
	c0-3.442-1.886-8.442-10.75-8.442H33.771V71.644z M44.144,45.987h5.47c2.121,0,3.536,0.613,3.536,2.312
	c0,2.169-1.367,2.782-3.536,2.782h-5.47V45.987z"/>
<polygon fill-rule="evenodd" clip-rule="evenodd" fill="#EF7D00" points="31.345,45.905 31.345,37.887 2.07,37.887 2.07,45.905 
	11.627,45.905 11.627,63.375 2.168,63.375 2.168,71.581 31.345,71.581 31.345,63.375 21.999,63.375 21.999,45.905 "/>
</svg>
