<svg width="30" height="27" viewBox="0 0 30 27" fill="none" xmlns="http://www.w3.org/2000/svg">
<path d="M4.84903 13.638C4.45303 13.649 4.24308 13.874 4.24308 14.271C4.24308 16.065 4.24101 17.859 4.24601 19.653C4.24601 19.748 4.16901 19.823 4.07401 19.822C3.19801 19.813 2.327 19.922 1.517 18.716C1.121 18.126 0.944982 17.416 0.944982 16.705C0.942982 14.363 0.938977 9.47601 0.939977 8.66501C0.942977 7.33801 1.82101 6.29201 3.12601 6.07901C3.38801 6.03601 6.30605 6.038 7.06205 6.047C7.23305 6.049 7.27506 5.99699 7.27506 5.82999C7.27006 4.12099 7.27199 2.412 7.27298 0.703003C7.27298 0.437003 7.48804 0.221008 7.75504 0.221008C12.135 0.221008 22.11 0.218994 22.715 0.218994C23.053 0.218994 23.195 0.36 23.195 0.694C23.195 2.414 23.196 4.133 23.19 5.853C23.19 5.964 23.279 6.05499 23.391 6.05399C24.194 6.04499 25.865 6.065 26.668 6.043C27.18 6.029 27.668 6.08899 28.121 6.32999C29.019 6.80799 29.5101 7.56001 29.5241 8.57901C29.5421 9.84801 29.5341 15.02 29.5251 16.336C29.5181 17.292 29.704 18.26 28.626 19.172C28.12 19.6 27.46 19.816 26.797 19.822C26.647 19.823 26.4971 19.823 26.3471 19.824C26.2731 19.825 26.212 19.822 26.221 19.712C26.266 19.16 26.2351 14.57 26.2381 14.367C26.2461 13.869 26.025 13.636 25.523 13.631C25.062 13.626 5.22203 13.627 4.84903 13.638ZM22.257 9.48801C22.376 9.48801 22.4081 9.44999 22.4051 9.33899C22.3981 9.04199 22.397 8.745 22.397 8.448C22.397 7.505 22.398 1.73401 22.402 1.19901C22.403 1.06501 22.352 1.017 22.216 1.017C21.564 1.02 9.46404 1.01501 8.22403 1.01001C8.10703 1.01001 8.063 1.03799 8.064 1.16699C8.071 2.28399 8.07305 7.68599 8.06705 9.26999C8.06605 9.43299 8.10509 9.488 8.27909 9.487C10.5981 9.481 19.916 9.48401 22.257 9.48801Z" fill="#3E3F41"/>
<path d="M24.409 14.951C24.41 15.557 24.409 16.434 24.409 17.04C24.409 18.17 24.409 18.658 24.409 19.838C24.409 20.011 24.27 20.152 24.097 20.154C23.683 20.159 23.2699 20.162 22.8559 20.154C22.7489 20.152 22.661 20.237 22.661 20.345C22.665 22.15 22.6629 23.956 22.6629 25.761C22.6629 26.012 22.4599 26.215 22.2089 26.215C18.2789 26.215 14.3489 26.215 10.4189 26.215C9.4649 26.215 8.51099 26.216 7.55599 26.216C7.29599 26.216 7.08492 26.005 7.08492 25.745C7.08392 23.956 7.08492 22.166 7.08492 20.377C7.08492 20.251 6.98301 20.149 6.85701 20.149C6.43501 20.149 6.01192 20.15 5.58992 20.149C5.45392 20.149 5.34395 20.038 5.34395 19.902C5.34295 18.092 5.34395 14.949 5.34395 14.949H24.409V14.951ZM8.41792 17.458C8.06392 17.458 8.0649 17.456 8.0699 17.818C8.0709 17.876 8.069 24.959 8.066 25.524C8.065 25.661 8.10594 25.721 8.25594 25.72C8.87894 25.716 20.651 25.723 22.008 25.725C22.399 25.726 22.398 25.729 22.395 25.347C22.394 25.289 22.396 18.19 22.399 17.625C22.4 17.497 22.3559 17.45 22.2249 17.457C22.0329 17.468 10.6899 17.459 8.41792 17.458Z" fill="#3E3F41"/>
</svg>
