<svg width="1888" height="2343" viewBox="0 0 1888 2343" fill="none" xmlns="http://www.w3.org/2000/svg">
    <style>
        .circle {
            transform-box: fill-box;
            transform-origin: center;
            transform: rotate(-90deg);
        }
        svg {
            background-color: #F4F9FA;
        }
    </style>

    <g id="bedrijfsgrootte_groot">
        <circle class="circle" id="circle_bedrijfsgrootte_midden" cx="1270" cy="245" r="85" fill="#ffffff" />
        <circle class="circle" id="g_na_meer_dan_250_werknemers" stroke="#ffffff" stroke-width="20" stroke-dasharray="534,534" fill="none" cx="1270" cy="245" r="85" />
        <circle class="circle" id="g_meer_dan_250_werknemers" stroke="#92C4CC" stroke-width="20" fill="none" cx="1270" cy="245" r="85" />
        <circle class="circle" id="g_na_van_25_tot_250_werknemers" stroke="#ffffff" stroke-width="20" stroke-dasharray="533,534" fill="none" cx="1270" cy="245" r="85" />
        <circle class="circle" id="g_van_25_tot_250_werknemers" stroke="#D9DADB" stroke-width="20" fill="none" cx="1270" cy="245" r="85" />
        <circle class="circle" id="g_na_minder_dan_25_werknemers" stroke="#ffffff" stroke-width="20" stroke-dasharray="453,534" fill="none" cx="1270" cy="245" r="85" />
        <circle class="circle" id="g_minder_dan_25_werknemers" stroke="#D9DADB" stroke-width="20" fill="none" cx="1270" cy="245" r="85" />
        <text id="aantal_meer_dan_250_werknemers" font-family="Roboto" font-weight="500" font-size="45" fill="#92c4cc" text-anchor="middle" x="1270" y="405">29</text>
        <g id="gebouw_groot">
            <path id="Vector_175" d="M1337.12 263.711C1336.95 263.404 1336.55 263.299 1336.25 263.477L1331.78 266.058C1331.69 266.108 1331.62 266.176 1331.57 266.254L1328.36 260.689L1332.72 258.173C1333.02 257.994 1333.13 257.602 1332.95 257.294C1332.77 256.986 1332.38 256.883 1332.07 257.06L1327.71 259.577L1325.78 256.23C1325.54 255.82 1325.02 255.681 1324.61 255.918C1324.2 256.156 1324.06 256.68 1324.3 257.088L1332.93 272.034C1333.12 272.365 1333.51 272.521 1333.86 272.439C1333.94 272.42 1334.02 272.389 1334.1 272.344C1334.51 272.108 1334.65 271.583 1334.41 271.174L1332.15 267.254C1332.18 267.251 1332.21 267.248 1332.24 267.241C1332.3 267.227 1332.36 267.204 1332.42 267.169L1336.89 264.588C1337.2 264.412 1337.3 264.019 1337.12 263.711Z" fill="#444241"/>
            <path id="Vector_176" d="M1332.25 271.405L1324.68 258.546C1320.69 260.907 1317.7 264.252 1318.78 268.193C1318.08 268.717 1317.68 269.296 1317.86 269.598L1319.31 272.056C1319.49 272.366 1320.22 272.286 1321.04 271.899C1323.99 274.577 1328.35 273.717 1332.25 271.405Z" fill="#444241"/>
            <path id="Vector_177" d="M1302.44 280.362C1301.65 280.362 1300.99 280.143 1300.45 279.706C1299.04 278.562 1299.06 276.448 1299.09 274.403C1299.1 274.13 1299.1 273.857 1299.1 273.59H1301.71C1301.71 273.869 1301.71 274.154 1301.71 274.44C1301.69 275.519 1301.67 277.326 1302.09 277.669C1302.19 277.744 1302.48 277.789 1303.02 277.666C1303.93 277.457 1304.12 276.951 1304.39 275.052C1304.54 273.975 1304.71 272.755 1305.34 271.66C1305.97 270.572 1306.76 269.91 1307.7 269.692C1309.25 269.335 1310.62 270.258 1311.82 271.073C1312.41 271.468 1313.02 271.877 1313.43 271.98C1314.31 272.198 1315.1 271.674 1316.31 270.801C1316.73 270.496 1317.16 270.182 1317.64 269.894L1318.99 272.137C1318.61 272.368 1318.23 272.64 1317.83 272.926C1316.46 273.917 1314.91 275.041 1312.81 274.525C1311.94 274.311 1311.14 273.769 1310.36 273.246C1309.67 272.78 1308.73 272.144 1308.29 272.245C1308.1 272.29 1307.84 272.555 1307.6 272.971C1307.23 273.625 1307.11 274.495 1306.98 275.416C1306.73 277.173 1306.39 279.581 1303.6 280.221C1303.19 280.314 1302.8 280.362 1302.44 280.362Z" fill="#444241"/>
            <path id="Vector_178" d="M1240.52 214.882C1240.34 214.882 1240.19 215.028 1240.19 215.209V215.492H1238.37C1236.21 215.492 1234.45 217.255 1234.45 219.422V220.974H1234.17C1233.99 220.974 1233.84 221.121 1233.84 221.302C1233.84 221.483 1233.99 221.63 1234.17 221.63H1237.35C1237.53 221.63 1237.67 221.482 1237.67 221.302C1237.67 221.121 1237.53 220.974 1237.35 220.974H1237.07V219.422C1237.07 218.7 1237.65 218.112 1238.37 218.112H1240.19V218.394C1240.19 218.575 1240.34 218.722 1240.52 218.722C1240.7 218.722 1240.84 218.574 1240.84 218.394V215.209C1240.84 215.028 1240.7 214.882 1240.52 214.882Z" fill="#444241"/>
            <path id="Vector_179" d="M1237.35 269.415H1237.07V222.78H1237.35C1237.53 222.78 1237.68 222.633 1237.68 222.452C1237.68 222.272 1237.53 222.125 1237.35 222.125H1234.17C1233.99 222.125 1233.85 222.271 1233.85 222.452C1233.85 222.634 1233.99 222.78 1234.17 222.78H1234.45V269.415H1234.17C1233.99 269.415 1233.85 269.561 1233.85 269.743C1233.85 269.923 1233.99 270.07 1234.17 270.07H1237.35C1237.53 270.07 1237.68 269.923 1237.68 269.743C1237.68 269.561 1237.53 269.415 1237.35 269.415Z" fill="#444241"/>
            <path id="Vector_180" d="M1237.35 270.756H1234.17C1233.99 270.756 1233.84 270.902 1233.84 271.084C1233.84 271.265 1233.99 271.411 1234.17 271.411H1234.45V273.211C1234.45 273.934 1233.87 274.521 1233.15 274.521H1231.3V274.262C1231.3 274.081 1231.15 273.935 1230.97 273.935C1230.79 273.935 1230.64 274.081 1230.64 274.262V277.447C1230.64 277.628 1230.79 277.775 1230.97 277.775C1231.15 277.775 1231.3 277.627 1231.3 277.447V277.141H1233.15C1235.31 277.141 1237.07 275.378 1237.07 273.211V271.411H1237.35C1237.53 271.411 1237.67 271.265 1237.67 271.084C1237.67 270.901 1237.53 270.756 1237.35 270.756Z" fill="#444241"/>
            <path id="Vector_181" d="M1229.63 273.933C1229.45 273.933 1229.31 274.08 1229.31 274.261V274.532H1228.33V271.331H1219.08V274.532H1217.71V277.152H1219.08V281.862C1219.08 282.39 1219.82 282.819 1220.73 282.819H1226.68C1227.59 282.819 1228.33 282.39 1228.33 281.862V277.152H1229.31V277.446C1229.31 277.627 1229.45 277.773 1229.63 277.773C1229.81 277.773 1229.96 277.626 1229.96 277.446V274.261C1229.96 274.08 1229.81 273.933 1229.63 273.933Z" fill="#444241"/>
            <path id="Vector_182" d="M1226.44 265.398V265.594H1224.14V264.931C1224.14 264.689 1223.94 264.494 1223.7 264.494C1223.46 264.494 1223.27 264.689 1223.27 264.931V265.594H1221.27V265.398H1216.74V266.446H1221.27V266.25H1223.27V267.334H1220.51C1220.15 267.334 1219.86 267.626 1219.86 267.989C1219.86 268.351 1220.15 268.644 1220.51 268.644H1223.27V269.235H1218.68C1218.26 269.235 1217.92 269.576 1217.92 269.999C1217.92 270.421 1218.26 270.764 1218.68 270.764H1228.64C1229.06 270.764 1229.4 270.421 1229.4 269.999C1229.4 269.577 1229.06 269.235 1228.64 269.235H1224.14V268.644H1226.9C1227.26 268.644 1227.55 268.351 1227.55 267.989C1227.55 267.627 1227.26 267.334 1226.9 267.334H1224.14V266.25H1226.44V266.446H1230.97V265.398H1226.44Z" fill="#444241"/>
            <path id="Vector_183" d="M1238.14 219.206V282.86H1302.83V219.206H1238.14ZM1263.34 244.713H1267.81V252.17H1263.34V244.713ZM1253.66 244.713H1258.12V252.17H1253.66V244.713ZM1244.34 244.713H1248.81V252.17H1244.34V244.713ZM1267.81 281.62H1244.34V259.792H1267.81V281.62ZM1273.03 244.713H1277.49V252.17H1273.03V244.713ZM1277.56 267.25H1273.1V259.792H1277.56V267.25ZM1282.85 244.713H1287.32V252.17H1282.85V244.713ZM1287.39 267.25H1282.93V259.792H1287.39V267.25ZM1292.54 244.713H1297V252.17H1292.54V244.713ZM1263.34 229.58H1267.81V237.038H1263.34V229.58ZM1253.66 229.58H1258.12V237.038H1253.66V229.58ZM1244.34 229.58H1248.81V237.038H1244.34V229.58ZM1273.03 229.58H1277.49V237.038H1273.03V229.58ZM1282.85 229.58H1287.32V237.038H1282.85V229.58ZM1292.54 229.58H1297V237.038H1292.54V229.58ZM1297.07 267.25H1292.61V259.792H1297.07V267.25Z" fill="#444241"/>
            <path id="Vector_184" d="M1301.67 202.461C1301.67 195.564 1296.07 189.953 1289.19 189.953C1282.32 189.953 1276.72 195.564 1276.72 202.461C1276.72 208.837 1281.51 214.11 1287.67 214.867V215.492H1242.18V215.209C1242.18 215.028 1242.03 214.882 1241.85 214.882C1241.67 214.882 1241.53 215.028 1241.53 215.209V218.394C1241.53 218.575 1241.67 218.722 1241.85 218.722C1242.04 218.722 1242.18 218.574 1242.18 218.394V218.112H1287.67V220.179H1290.72V214.868C1296.88 214.11 1301.67 208.837 1301.67 202.461ZM1299.04 202.024H1291.44C1291.4 201.826 1291.34 201.638 1291.25 201.462L1297.29 198.411C1297.29 198.411 1297.09 197.687 1295.81 196.198C1294.61 194.812 1293.22 194.3 1293.22 194.3L1290.22 200.411C1290.04 200.317 1289.84 200.248 1289.63 200.208V192.586C1294.72 192.808 1298.82 196.919 1299.04 202.024ZM1288.76 192.584V200.206C1288.56 200.244 1288.38 200.308 1288.2 200.395L1285.16 194.342C1285.16 194.342 1284.43 194.542 1282.95 195.828C1281.57 197.026 1281.06 198.424 1281.06 198.424L1287.15 201.431C1287.06 201.616 1286.99 201.815 1286.95 202.025H1279.35C1279.57 196.919 1283.67 192.808 1288.76 192.584ZM1279.35 202.898H1286.95C1286.99 203.094 1287.05 203.281 1287.14 203.455L1281.1 206.505C1281.1 206.505 1281.3 207.231 1282.58 208.72C1283.78 210.106 1285.17 210.618 1285.17 210.618L1288.17 204.507C1288.35 204.6 1288.55 204.67 1288.76 204.71V212.331C1283.67 212.109 1279.57 207.999 1279.35 202.898ZM1289.63 212.332V204.711C1289.83 204.673 1290.01 204.608 1290.19 204.522L1293.23 210.575C1293.23 210.575 1293.96 210.374 1295.44 209.089C1296.82 207.892 1297.33 206.493 1297.33 206.493L1291.24 203.487C1291.33 203.304 1291.4 203.106 1291.44 202.898H1299.04C1298.82 207.999 1294.72 212.109 1289.63 212.332Z" fill="#444241"/>
        </g>
    </g>

    <g id="bedrijfsgrootte_midden">
        <circle class="circle" id="circle_bedrijfsgrootte_midden" cx="1030" cy="245" r="85" fill="#ffffff" />
        <circle class="circle" id="m_na_meer_dan_250_werknemers" stroke="#ffffff" stroke-width="20" stroke-dasharray="534,534" fill="none" cx="1030" cy="245" r="85" />
        <circle class="circle" id="m_meer_dan_250_werknemers" stroke="#D9DADB" stroke-width="20" fill="none" cx="1030" cy="245" r="85" />
        <circle class="circle" id="m_na_van_25_tot_250_werknemers" stroke="#ffffff" stroke-width="20" stroke-dasharray="533,534" fill="none" cx="1030" cy="245" r="85" />
        <circle class="circle" id="m_van_25_tot_250_werknemers" stroke="#134A55" stroke-width="20" fill="none" cx="1030" cy="245" r="85" />
        <circle class="circle" id="m_na_minder_dan_25_werknemers" stroke="#ffffff" stroke-width="20" stroke-dasharray="453,534" fill="none" cx="1030" cy="245" r="85" />
        <circle class="circle" id="m_minder_dan_25_werknemers" stroke="#D9DADB" stroke-width="20" fill="none" cx="1030" cy="245" r="85" />
        <text id="aantal_van_25_tot_250_werknemers" font-family="Roboto" font-weight="500" font-size="45" fill="#134A55" text-anchor="middle" x="1030" y="405">1320</text>
        <g id="gebouw_middel">
            <path id="Vector_143" d="M1093.81 264.65C1093.63 264.343 1093.24 264.238 1092.93 264.416L1088.46 266.997C1088.37 267.047 1088.3 267.115 1088.25 267.193L1085.04 261.628L1089.4 259.112C1089.7 258.933 1089.81 258.541 1089.63 258.233C1089.45 257.925 1089.06 257.821 1088.75 257.999L1084.39 260.516L1082.46 257.169C1082.22 256.759 1081.7 256.62 1081.29 256.857C1080.89 257.095 1080.75 257.619 1080.98 258.027L1089.61 272.973C1089.81 273.304 1090.19 273.46 1090.54 273.378C1090.63 273.359 1090.71 273.328 1090.78 273.283C1091.19 273.047 1091.33 272.522 1091.09 272.113L1088.83 268.193C1088.86 268.19 1088.89 268.187 1088.92 268.18C1088.98 268.166 1089.04 268.143 1089.1 268.108L1093.57 265.527C1093.88 265.351 1093.98 264.958 1093.81 264.65Z" fill="#444241"/>
            <path id="Vector_144" d="M1088.94 272.344L1081.37 259.484C1077.38 261.846 1074.38 265.191 1075.46 269.132C1074.76 269.656 1074.36 270.235 1074.54 270.537L1075.99 272.995C1076.17 273.305 1076.9 273.225 1077.72 272.838C1080.67 275.516 1085.03 274.656 1088.94 272.344Z" fill="#444241"/>
            <path id="Vector_145" d="M1059.12 281.301C1058.34 281.301 1057.67 281.082 1057.13 280.645C1055.72 279.501 1055.75 277.387 1055.78 275.342C1055.78 275.069 1055.78 274.796 1055.78 274.529H1058.4C1058.4 274.808 1058.39 275.093 1058.39 275.379C1058.38 276.458 1058.35 278.265 1058.78 278.608C1058.87 278.683 1059.17 278.727 1059.7 278.605C1060.62 278.396 1060.81 277.89 1061.07 275.991C1061.22 274.914 1061.39 273.694 1062.02 272.599C1062.65 271.51 1063.45 270.849 1064.38 270.631C1065.93 270.274 1067.3 271.197 1068.51 272.012C1069.09 272.407 1069.7 272.816 1070.11 272.919C1071 273.137 1071.78 272.613 1072.99 271.74C1073.41 271.435 1073.85 271.121 1074.32 270.833L1075.67 273.076C1075.29 273.307 1074.91 273.579 1074.52 273.865C1073.15 274.856 1071.59 275.98 1069.49 275.464C1068.62 275.25 1067.82 274.708 1067.05 274.185C1066.36 273.719 1065.41 273.083 1064.97 273.184C1064.78 273.229 1064.53 273.494 1064.29 273.909C1063.91 274.564 1063.79 275.434 1063.66 276.355C1063.41 278.112 1063.08 280.52 1060.28 281.16C1059.87 281.253 1059.48 281.301 1059.12 281.301Z" fill="#444241"/>
            <path id="Vector_146" d="M997.2 230.874C997.02 230.874 996.873 231.02 996.873 231.202V231.484H995.056C992.894 231.484 991.135 233.247 991.135 235.414V236.967H990.854C990.674 236.967 990.528 237.113 990.528 237.294C990.528 237.476 990.674 237.622 990.854 237.622H994.031C994.211 237.622 994.357 237.475 994.357 237.294C994.357 237.114 994.211 236.967 994.031 236.967H993.749V235.414C993.749 234.692 994.335 234.105 995.056 234.105H996.873V234.386C996.873 234.568 997.02 234.714 997.2 234.714C997.38 234.714 997.527 234.567 997.527 234.386V231.202C997.526 231.02 997.38 230.874 997.2 230.874Z" fill="#444241"/>
            <path id="Vector_147" d="M994.033 270.354H993.75V238.963H994.032C994.212 238.963 994.358 238.816 994.358 238.635C994.358 238.455 994.212 238.307 994.032 238.307H990.855C990.675 238.307 990.529 238.454 990.529 238.635C990.529 238.817 990.675 238.963 990.855 238.963H991.136V270.354H990.857C990.677 270.354 990.53 270.5 990.53 270.682C990.53 270.862 990.676 271.009 990.857 271.009H994.034C994.214 271.009 994.36 270.862 994.36 270.682C994.359 270.5 994.213 270.354 994.033 270.354Z" fill="#444241"/>
            <path id="Vector_148" d="M994.031 271.695H990.854C990.674 271.695 990.528 271.841 990.528 272.023C990.528 272.204 990.674 272.35 990.854 272.35H991.135V274.15C991.135 274.872 990.549 275.46 989.828 275.46H987.98V275.201C987.98 275.02 987.834 274.873 987.653 274.873C987.473 274.873 987.326 275.02 987.326 275.201V278.386C987.326 278.567 987.473 278.713 987.653 278.713C987.833 278.713 987.98 278.566 987.98 278.386V278.08H989.828C991.99 278.08 993.749 276.316 993.749 274.15V272.35H994.031C994.211 272.35 994.357 272.204 994.357 272.023C994.357 271.84 994.211 271.695 994.031 271.695Z" fill="#444241"/>
            <path id="Vector_149" d="M986.317 274.873C986.137 274.873 985.99 275.019 985.99 275.2V275.471H985.017V272.27H975.759V275.471H974.395V278.091H975.759V282.801C975.759 283.329 976.5 283.758 977.412 283.758H983.363C984.276 283.758 985.016 283.329 985.016 282.801V278.091H985.989V278.385C985.989 278.566 986.136 278.712 986.316 278.712C986.496 278.712 986.642 278.565 986.642 278.385V275.2C986.643 275.019 986.497 274.873 986.317 274.873Z" fill="#444241"/>
            <path id="Vector_150" d="M983.12 266.337V266.533H980.824V265.87C980.824 265.628 980.628 265.433 980.388 265.433C980.147 265.433 979.952 265.628 979.952 265.87V266.533H977.955V266.337H973.421V267.385H977.955V267.189H979.952V268.273H977.193C976.832 268.273 976.54 268.565 976.54 268.928C976.54 269.29 976.832 269.583 977.193 269.583H979.952V270.174H975.36C974.939 270.174 974.598 270.515 974.598 270.938C974.598 271.36 974.939 271.703 975.36 271.703H985.325C985.746 271.703 986.087 271.36 986.087 270.938C986.087 270.516 985.746 270.174 985.325 270.174H980.823V269.583H983.582C983.943 269.583 984.235 269.29 984.235 268.928C984.235 268.566 983.943 268.273 983.582 268.273H980.823V267.189H983.119V267.385H987.653V266.337H983.12Z" fill="#444241"/>
            <path id="Vector_151" d="M994.819 235.305V283.799H1059.51V235.305H994.819ZM1020.03 245.651H1024.49V253.108H1020.03V245.651ZM1010.34 245.651H1014.81V253.108H1010.34V245.651ZM1001.03 245.651H1005.49V253.108H1001.03V245.651ZM1024.49 282.557H1001.03V260.73H1024.49V282.557ZM1029.71 245.651H1034.17V253.108H1029.71V245.651ZM1034.24 268.189H1029.78V260.731H1034.24V268.189ZM1039.54 245.651H1044V253.108H1039.54V245.651ZM1044.07 268.189H1039.61V260.731H1044.07V268.189ZM1049.22 245.651H1053.68V253.108H1049.22V245.651ZM1053.76 268.189H1049.29V260.731H1053.76V268.189Z" fill="#444241"/>
            <path id="Vector_152" d="M1058.35 218.453C1058.35 211.556 1052.75 205.945 1045.88 205.945C1039 205.945 1033.41 211.556 1033.41 218.453C1033.41 224.829 1038.19 230.102 1044.35 230.859V231.484H998.864V231.202C998.864 231.02 998.717 230.874 998.537 230.874C998.357 230.874 998.21 231.02 998.21 231.202V234.386C998.21 234.568 998.357 234.714 998.537 234.714C998.717 234.714 998.864 234.567 998.864 234.386V234.105H1044.35V236.171H1047.4V230.859C1053.56 230.102 1058.35 224.829 1058.35 218.453ZM1055.72 218.016H1048.12C1048.09 217.818 1048.02 217.63 1047.94 217.454L1053.97 214.404C1053.97 214.404 1053.77 213.679 1052.49 212.19C1051.3 210.804 1049.9 210.292 1049.9 210.292L1046.91 216.403C1046.72 216.31 1046.52 216.241 1046.31 216.2V208.579C1051.4 208.8 1055.5 212.912 1055.72 218.016ZM1045.44 208.578V216.199C1045.25 216.238 1045.06 216.302 1044.88 216.388L1041.84 210.335C1041.84 210.335 1041.12 210.536 1039.63 211.821C1038.25 213.019 1037.74 214.417 1037.74 214.417L1043.84 217.424C1043.74 217.609 1043.67 217.808 1043.63 218.018H1036.03C1036.25 212.912 1040.35 208.8 1045.44 208.578ZM1036.03 218.89H1043.63C1043.67 219.086 1043.73 219.273 1043.82 219.447L1037.78 222.498C1037.78 222.498 1037.98 223.223 1039.26 224.712C1040.46 226.098 1041.85 226.61 1041.85 226.61L1044.85 220.499C1045.03 220.593 1045.23 220.662 1045.44 220.702V228.324C1040.35 228.101 1036.25 223.992 1036.03 218.89ZM1046.31 228.325V220.703C1046.51 220.665 1046.7 220.601 1046.87 220.514L1049.91 226.567C1049.91 226.567 1050.64 226.367 1052.12 225.081C1053.5 223.884 1054.02 222.486 1054.02 222.486L1047.92 219.479C1048.01 219.296 1048.08 219.099 1048.12 218.89H1055.72C1055.5 223.992 1051.4 228.101 1046.31 228.325Z" fill="#444241"/>
            </g>
        </g>

    <g id="bedrijfsgrootte_klein">
        <circle class="circle" id="circle_bedrijfsgrootte_klein" cx="785" cy="245" r="85" fill="#ffffff" />
        <circle class="circle" id="k_na_meer_dan_250_werknemers" stroke="#ffffff" stroke-width="20" fill="none" cx="785" cy="245" r="85" />
        <circle class="circle" id="k_meer_dan_250_werknemers" stroke="#D9DADB" stroke-width="20" fill="none" cx="785" cy="245" r="85" />
        <circle class="circle" id="k_na_van_25_tot_250_werknemers" stroke="#ffffff" stroke-width="20" fill="none" cx="785" cy="245" r="85" />
        <circle class="circle" id="k_van_25_tot_250_werknemers" stroke="#D9DADB" stroke-width="20" fill="none" cx="785" cy="245" r="85" />
        <circle class="circle" id="k_na_minder_dan_25_werknemers" stroke="#ffffff" stroke-width="20" fill="none" cx="785" cy="245" r="85" />
        <circle class="circle" id="k_minder_dan_25_werknemers" stroke="#258999" stroke-width="20" fill="none" cx="785" cy="245" r="85" />
        <text id="aantal_minder_dan_25_werknemers" font-family="Roboto" font-weight="500" font-size="45" fill="#51A1AE" text-anchor="middle" x="785" y="405">7610</text>
        <g id="gebouw_klein">
            <path id="Vector_159" d="M847.15 263.184C846.973 262.877 846.58 262.772 846.274 262.95L841.803 265.531C841.717 265.581 841.648 265.649 841.596 265.726L838.382 260.162L842.742 257.646C843.048 257.467 843.153 257.074 842.975 256.767C842.797 256.459 842.405 256.356 842.099 256.533L837.739 259.05L835.806 255.703C835.57 255.293 835.047 255.153 834.638 255.391C834.23 255.628 834.09 256.153 834.327 256.561L842.959 271.506C843.151 271.838 843.533 271.993 843.888 271.912C843.97 271.893 844.051 271.862 844.128 271.818C844.537 271.582 844.675 271.057 844.439 270.648L842.175 266.728C842.205 266.725 842.237 266.722 842.267 266.714C842.329 266.7 842.389 266.677 842.446 266.643L846.918 264.062C847.223 263.885 847.328 263.492 847.15 263.184Z" fill="#444241"/>
            <path id="Vector_160" d="M842.281 270.878L834.708 258.018C830.718 260.38 827.726 263.725 828.803 267.665C828.102 268.19 827.707 268.769 827.885 269.071L829.332 271.529C829.515 271.839 830.245 271.759 831.067 271.372C834.014 274.05 838.375 273.19 842.281 270.878Z" fill="#444241"/>
            <path id="Vector_161" d="M812.462 279.835C811.679 279.835 811.014 279.616 810.475 279.179C809.064 278.035 809.092 275.921 809.121 273.876C809.124 273.603 809.128 273.33 809.128 273.063H811.742C811.742 273.342 811.738 273.627 811.734 273.912C811.719 274.992 811.695 276.798 812.119 277.142C812.212 277.217 812.51 277.261 813.046 277.139C813.96 276.93 814.149 276.424 814.415 274.525C814.566 273.448 814.737 272.228 815.369 271.133C815.996 270.044 816.791 269.383 817.729 269.165C819.276 268.808 820.643 269.731 821.85 270.545C822.436 270.941 823.043 271.35 823.459 271.453C824.342 271.671 825.127 271.147 826.335 270.274C826.757 269.969 827.192 269.655 827.667 269.367L829.018 271.61C828.635 271.841 828.26 272.113 827.863 272.399C826.491 273.39 824.937 274.514 822.837 273.998C821.969 273.784 821.167 273.242 820.391 272.719C819.702 272.253 818.757 271.617 818.318 271.718C818.123 271.763 817.873 272.028 817.633 272.443C817.256 273.098 817.134 273.968 817.005 274.889C816.759 276.646 816.422 279.054 813.629 279.693C813.215 279.787 812.826 279.835 812.462 279.835Z" fill="#444241"/>
            <path id="Vector_162" d="M750.544 244.713C750.364 244.713 750.217 244.859 750.217 245.04V245.323H748.4C746.238 245.323 744.479 247.086 744.479 249.253V250.805H744.198C744.018 250.805 743.872 250.952 743.872 251.133C743.872 251.314 744.018 251.461 744.198 251.461H747.375C747.555 251.461 747.701 251.313 747.701 251.133C747.701 250.953 747.555 250.805 747.375 250.805H747.093V249.253C747.093 248.531 747.679 247.943 748.4 247.943H750.217V248.225C750.217 248.406 750.364 248.553 750.544 248.553C750.724 248.553 750.871 248.405 750.871 248.225V245.04C750.871 244.859 750.725 244.713 750.544 244.713Z" fill="#444241"/>
            <path id="Vector_163" d="M747.377 268.888H747.094V252.795H747.376C747.556 252.795 747.702 252.647 747.702 252.467C747.702 252.287 747.556 252.139 747.376 252.139H744.199C744.019 252.139 743.873 252.286 743.873 252.467C743.873 252.648 744.019 252.795 744.199 252.795H744.48V268.888H744.2C744.02 268.888 743.873 269.034 743.873 269.216C743.873 269.396 744.019 269.543 744.2 269.543H747.377C747.557 269.543 747.703 269.396 747.703 269.216C747.704 269.034 747.557 268.888 747.377 268.888Z" fill="#444241"/>
            <path id="Vector_164" d="M747.375 270.228H744.198C744.018 270.228 743.872 270.374 743.872 270.555C743.872 270.737 744.018 270.883 744.198 270.883H744.479V272.683C744.479 273.405 743.893 273.994 743.172 273.994H741.324V273.735C741.324 273.554 741.178 273.407 740.997 273.407C740.817 273.407 740.67 273.554 740.67 273.735V276.92C740.67 277.101 740.817 277.247 740.997 277.247C741.177 277.247 741.324 277.1 741.324 276.92V276.614H743.172C745.334 276.614 747.093 274.85 747.093 272.684V270.884H747.375C747.555 270.884 747.701 270.738 747.701 270.556C747.702 270.374 747.555 270.228 747.375 270.228Z" fill="#444241"/>
            <path id="Vector_165" d="M739.661 273.406C739.481 273.406 739.334 273.553 739.334 273.734V274.005H738.361V270.804H729.103V274.005H727.739V276.625H729.103V281.335C729.103 281.863 729.844 282.292 730.756 282.292H736.707C737.62 282.292 738.36 281.863 738.36 281.335V276.625H739.333V276.919C739.333 277.1 739.48 277.246 739.66 277.246C739.84 277.246 739.986 277.099 739.986 276.919V273.734C739.988 273.553 739.841 273.406 739.661 273.406Z" fill="#444241"/>
            <path id="Vector_166" d="M736.465 264.871V265.067H734.169V264.404C734.169 264.162 733.973 263.967 733.733 263.967C733.492 263.967 733.297 264.162 733.297 264.404V265.067H731.3V264.871H726.766V265.919H731.3V265.722H733.297V266.807H730.538C730.177 266.807 729.885 267.099 729.885 267.462C729.885 267.824 730.177 268.117 730.538 268.117H733.297V268.708H728.705C728.284 268.708 727.943 269.049 727.943 269.472C727.943 269.894 728.284 270.237 728.705 270.237H738.67C739.091 270.237 739.432 269.894 739.432 269.472C739.432 269.05 739.091 268.708 738.67 268.708H734.168V268.117H736.927C737.288 268.117 737.58 267.824 737.58 267.462C737.58 267.1 737.287 266.807 736.927 266.807H734.168V265.722H736.464V265.919H740.998V264.871H736.465Z" fill="#444241"/>
            <path id="Vector_167" d="M748.164 248.919V282.333H812.853V248.919H748.164ZM777.834 281.091H754.371V259.264H777.834V281.091ZM787.588 266.722H783.124V259.264H787.588V266.722ZM797.417 266.722H792.953V259.264H797.417V266.722ZM807.1 266.722H802.637V259.264H807.1V266.722Z" fill="#444241"/>
            <path id="Vector_168" d="M811.693 232.292C811.693 225.395 806.098 219.784 799.222 219.784C792.346 219.784 786.751 225.395 786.751 232.292C786.751 238.668 791.538 243.941 797.697 244.698V245.323H752.208V245.04C752.208 244.859 752.061 244.713 751.881 244.713C751.701 244.713 751.554 244.859 751.554 245.04V248.225C751.554 248.406 751.701 248.553 751.881 248.553C752.061 248.553 752.208 248.405 752.208 248.225V247.943H797.697V250.01H800.747V244.698C806.906 243.94 811.693 238.667 811.693 232.292ZM809.068 231.855H801.467C801.429 231.657 801.365 231.469 801.28 231.293L807.319 228.243C807.319 228.243 807.118 227.518 805.836 226.029C804.642 224.643 803.248 224.131 803.248 224.131L800.249 230.242C800.065 230.148 799.867 230.079 799.659 230.039V222.417C804.747 222.639 808.846 226.75 809.068 231.855ZM798.787 222.415V230.037C798.59 230.075 798.403 230.139 798.228 230.226L795.185 224.173C795.185 224.173 794.462 224.373 792.977 225.659C791.594 226.857 791.084 228.255 791.084 228.255L797.181 231.262C797.088 231.447 797.019 231.646 796.979 231.856H789.378C789.599 226.75 793.698 222.639 798.787 222.415ZM789.377 232.729H796.978C797.016 232.925 797.08 233.112 797.165 233.286L791.127 236.336C791.127 236.336 791.327 237.062 792.609 238.551C793.803 239.938 795.197 240.449 795.197 240.449L798.195 234.338C798.379 234.431 798.577 234.501 798.786 234.541V242.162C793.698 241.939 789.599 237.83 789.377 232.729ZM799.658 242.162V234.541C799.855 234.503 800.042 234.438 800.217 234.352L803.26 240.405C803.26 240.405 803.982 240.204 805.467 238.919C806.85 237.722 807.361 236.323 807.361 236.323L801.265 233.317C801.358 233.134 801.426 232.936 801.467 232.728H809.068C808.846 237.83 804.747 241.939 799.658 242.162Z" fill="#444241"/>
        </g>
    </g>

    <script>
        var werknemers_bedrijfsgrootte = 8960;
        var minder_dan_25_werknemers = 7610;
        var van_25_tot_250_werknemers = 1320;
        var meer_dan_250_werknemers = 30;

        var element_bedrijfsgrootte_klein = document.getElementById("circle_bedrijfsgrootte_klein");
        var pathLength = element_bedrijfsgrootte_klein.getTotalLength();

        function formatNumber(num) {
            return num.toString().replace(/(\d)(?=(\d{3})+(?!\d))/g, "$1.")
        }

        document.getElementById("aantal_meer_dan_250_werknemers").textContent = formatNumber(meer_dan_250_werknemers);
        document.getElementById("aantal_van_25_tot_250_werknemers").textContent = formatNumber(van_25_tot_250_werknemers);
        document.getElementById("aantal_minder_dan_25_werknemers").textContent = formatNumber(minder_dan_25_werknemers);

        var bedrijfsgroottes = ["g_", "m_", "k_"];

        bedrijfsgroottes.forEach(function(grootte) {

            var element_minder_dan_25_werknemers = document.getElementById( grootte + "minder_dan_25_werknemers");
            var element_van_25_tot_250_werknemers = document.getElementById( grootte + "van_25_tot_250_werknemers");
            var element_meer_dan_250_werknemers = document.getElementById( grootte + "meer_dan_250_werknemers");

            var na_element_minder_dan_25_werknemers = document.getElementById( grootte + "na_minder_dan_25_werknemers");
            var na_element_van_25_tot_250_werknemers = document.getElementById( grootte + "na_van_25_tot_250_werknemers");
            var na_element_meer_dan_250_werknemers = document.getElementById( grootte + "na_meer_dan_250_werknemers");

            // minder dan 25 werknemers
            section_minder_dan_25_werknemers = minder_dan_25_werknemers * pathLength / werknemers_bedrijfsgrootte;
            element_minder_dan_25_werknemers.style.strokeDasharray = section_minder_dan_25_werknemers - 2;
            na_element_minder_dan_25_werknemers.style.strokeDasharray = section_minder_dan_25_werknemers;

            // van 25 tot 250 werknemers
            section_van_25_tot_250_werknemers = van_25_tot_250_werknemers * pathLength / werknemers_bedrijfsgrootte;
            element_van_25_tot_250_werknemers.style.strokeDasharray = section_van_25_tot_250_werknemers + section_minder_dan_25_werknemers - 2;
            na_element_van_25_tot_250_werknemers.style.strokeDasharray = section_van_25_tot_250_werknemers + section_minder_dan_25_werknemers;

            // meer dan 250 werknemers
            section_meer_dan_250_werknemers = meer_dan_250_werknemers * pathLength / werknemers_bedrijfsgrootte;
            element_meer_dan_250_werknemers.style.strokeDasharray = section_meer_dan_250_werknemers + section_van_25_tot_250_werknemers + section_minder_dan_25_werknemers - 2;
            na_element_meer_dan_250_werknemers.style.strokeDasharray = section_meer_dan_250_werknemers + section_van_25_tot_250_werknemers + section_minder_dan_25_werknemers;

        })
    </script>
</svg>
