<svg width="1213" height="699" viewBox="0 0 1213 699" fill="none" xmlns="http://www.w3.org/2000/svg">
	<text fill="#258999" style="white-space:pre" font-family="Roboto" font-size="25">
		<tspan x="946" y="528.568">2.124</tspan>
	</text>
	<text fill="#9E9FA0" style="white-space:pre" font-family="Roboto" font-size="25">
		<tspan x="1015.98" y="528.568">/</tspan>
	</text>
	<text fill="#7CB8C2" style="white-space:pre" font-family="Roboto" font-size="25">
		<tspan x="1032.49" y="528.568">29.485</tspan>
	</text>
	<text fill="#414143" style="white-space:pre" font-family="Roboto" font-size="26">
		<tspan x="946" y="466.763" class="tooltip" title="Architecten, industriële ontwerp en vormgeving, keuring en controle, en technische dienstverlening m.b.t. het winnen van grondstoffen.">TI technische </tspan>
		<tspan x="946" y="496.763" class="tooltip" title="Architecten, industriële ontwerp en vormgeving, keuring en controle, en technische dienstverlening m.b.t. het winnen van grondstoffen.">dienstverlening en R&amp;D</tspan>
	</text>
	<text fill="#258999" style="white-space:pre" font-family="Roboto" font-size="25">
		<tspan x="946" y="374.352">1.310</tspan>
	</text>
	<text fill="#9E9FA0" style="white-space:pre" font-family="Roboto" font-size="25">
		<tspan x="1014.95" y="374.352">/</tspan>
	</text>
	<text fill="#7CB8C2" style="white-space:pre" font-family="Roboto" font-size="25">
		<tspan x="1031.45" y="374.352">39.703</tspan>
	</text>
	<text fill="#414143" style="white-space:pre" font-family="Roboto" font-size="26">
		<tspan x="946" y="344.797" class="tooltip" title="Vervaardigen van technische apparatuur die meestal door de installateur wordt geïnstalleerd of plug&amp;play door de consument.">TI maken</tspan>
	</text>
	<text fill="#258999" style="white-space:pre" font-family="Roboto" font-size="25">
		<tspan x="946" y="163.914">6.393</tspan>
	</text>
	<text fill="#9E9FA0" style="white-space:pre" font-family="Roboto" font-size="25">
		<tspan x="1015" y="163.914">/</tspan>
	</text>
	<text fill="#7CB8C2" style="white-space:pre" font-family="Roboto" font-size="25">
		<tspan x="1031.51" y="163.914">94.458</tspan>
	</text>
	<text fill="#414143" style="white-space:pre" font-family="Roboto" font-size="26">
		<tspan x="946" y="134.856" class="tooltip" title="Groothandel en winkels in technische producten, die leveren aan installatiebedrijven en de consument.">TI handel</tspan>
	</text>
	<text fill="#7CB8C2" style="white-space:pre" font-family="Roboto" font-size="25">
		<tspan x="48" y="493.87">34.793</tspan>
	</text>
	<text fill="#9E9FA0" style="white-space:pre" font-family="Roboto" font-size="25">
		<tspan x="130.945" y="493.87">/</tspan>
	</text>
	<text fill="#258999" style="white-space:pre" font-family="Roboto" font-size="25">
		<tspan x="147.449" y="493.87">2.152</tspan>
	</text>
	<text fill="#414143" style="white-space:pre" font-family="Roboto" font-size="26">
		<tspan x="78" y="465.887" class="tooltip" title="Reparatie en onderhoud van technische producten, machines en apparatuur.">TI reparatie</tspan>
	</text>
	<text fill="#7CB8C2" style="white-space:pre" font-family="Roboto" font-size="25">
		<tspan x="26" y="272.045">100.890</tspan>
	</text>
	<text fill="#9E9FA0" style="white-space:pre" font-family="Roboto" font-size="25">
		<tspan x="126.983" y="271.944">/</tspan>
	</text>
	<text fill="#258999" style="white-space:pre" font-family="Roboto" font-size="25">
		<tspan x="143.487" y="271.944">8.677</tspan>
	</text>
	<text fill="#414143" style="white-space:pre" font-family="Roboto" font-size="26">
		<tspan x="0" y="240.887" class="tooltip" title="Technisch speur en ontwikkelingswerk, ingenieurs en overig technisch ontwerp en advies.">TI advies/ontwerp</tspan>
	</text>
	<text fill="#258999" style="white-space:pre" font-family="Roboto" font-size="24">
		<tspan x="182" y="53.51">totaal: 26.669</tspan>
	</text>
	<text fill="#258999" style="white-space:pre" font-family="Roboto" font-size="26" font-weight="bold">
		<tspan x="182" y="23.887">Bedrijven</tspan>
	</text>
	<text fill="#7CB8C2" style="white-space:pre" font-family="Roboto" font-size="24">
		<tspan x="0" y="53.51">totaal: 435.828</tspan>
	</text>
	<text fill="#7CB8C2" style="white-space:pre" font-family="Roboto" font-size="26" font-weight="bold">
		<tspan x="0" y="23.887">Werknemers</tspan>
	</text>
	<path
		d="M693.028 101.151l15.455-12.027c2.589-2.003 5.125-4.012 7.756-6.01 1.336-.966 3.093-1.654 4.828-1.307 1.717.314 3.13 1.38 4.42 2.314 5.309 3.778 10.743 7.38 16.204 10.943 1.368.901 2.727 1.753 4.106 2.692.677.496 1.326 1.079 1.806 1.82.478.744.722 1.643.711 2.512.006.871-.179 1.71-.421 2.509l-.693 2.342-1.339 4.7c-1.749 6.277-3.384 12.592-5.203 18.865l-.691 2.349c-.238.786-.443 1.523-.508 2.289-.178 1.527.374 2.968 1.443 4.093 1.044 1.111 2.404 2.13 3.597 3.223a213.457 213.457 0 013.652 3.271 225.91 225.91 0 0113.891 13.845 207.769 207.769 0 016.478 7.369c.964 1.176 2.227 1.904 3.678 1.845 1.437-.013 2.981-.624 4.562-1.046l18.784-5.442 4.695-1.361c.792-.235 1.673-.487 2.598-.547.923-.079 1.945.064 2.846.495 1.831.869 2.805 2.581 3.693 3.86l2.755 4.032 11.038 16.158c.488.744.946 1.563 1.207 2.525.262.952.297 2.048.015 3.018-.264.976-.735 1.818-1.256 2.555l-1.525 1.998-5.966 7.752-5.966 7.751-2.983 3.876c-.955 1.2-1.628 2.388-1.67 3.61-.068 1.237.424 2.491 1.209 3.888.77 1.45 1.526 2.907 2.262 4.375a221.699 221.699 0 014.222 8.897 242.141 242.141 0 017.292 18.289l.809 2.325c.259.759.502 1.38.824 1.938.649 1.079 1.411 1.588 2.737 1.819l9.611.951 9.723 1.028 4.845.46 2.42.2c.38.029.842.065 1.324.128.478.069.966.154 1.474.306 1.002.274 2.118.841 2.958 1.737.838.891 1.313 1.939 1.614 2.886.143.47.258.954.346 1.389l.241 1.197.487 2.391a604.132 604.132 0 002.027 9.536c.703 3.17 1.44 6.329 2.22 9.473.198.816.39 1.49.6 2.476.178.941.292 1.955.19 3.046a7.51 7.51 0 01-1.053 3.229c-.6.988-1.386 1.761-2.171 2.371-.783.61-1.615 1.092-2.378 1.507l-2.12 1.159a273.374 273.374 0 00-4.215 2.397l-8.415 4.964-4.253 2.475-1.073.61-.537.304-.444.26c-.57.353-1.062.734-1.438 1.134-.738.795-1.049 1.667-1.092 2.931-.019.62.054 1.261.138 2.14l.231 2.461c.583 6.564.871 13.153.888 19.741a245.798 245.798 0 01-.789 19.74c-.032.465-.054.669-.038.915.007.237.04.425.089.564.085.279.211.448.591.778.394.318.987.661 1.707 1.057l2.134 1.188 8.537 4.755 8.537 4.755 4.268 2.377 2.134 1.189 1.165.653c.426.256.855.541 1.284.874.849.669 1.736 1.609 2.285 2.815.544 1.204.696 2.502.63 3.575-.047 1.068-.295 2.119-.453 2.838l-.516 2.377a543.535 543.535 0 00-1.957 9.53 444.074 444.074 0 00-1.76 9.566l-.417 2.426c-.172.954-.429 1.971-.953 3.022-.512 1.04-1.364 2.113-2.418 2.806-1.046.706-2.144 1.076-3.139 1.299-.5.11-.986.189-1.457.244l-1.24.141-2.414.275-4.833.592-9.691 1.265c-3.238.424-6.485.844-9.745 1.223l-1.223.141c-.411.049-.713.085-1.042.146-.643.111-1.162.281-1.52.487-.368.199-.607.444-.878.838-.264.392-.504.95-.7 1.585-1.942 6.297-4.208 12.51-6.725 18.602a230.74 230.74 0 01-8.34 17.925l-.569 1.097c-.173.339-.306.605-.429.902-.244.577-.378 1.109-.401 1.574-.075.895.309 1.793 1.131 2.861l5.999 7.702 6.007 7.711 2.995 3.863 1.498 1.931.813 1.061c.281.399.562.801.809 1.258.501.89.922 1.935 1.085 3.088a7.87 7.87 0 01-.27 3.392c-.315 1.047-.786 1.948-1.291 2.758-.248.41-.527.788-.785 1.152l-.72.978a338.945 338.945 0 00-5.632 7.92 317.813 317.813 0 00-5.394 8.081l-1.308 2.046c-.452.711-1.022 1.561-1.742 2.296-.72.747-1.665 1.453-2.775 1.872-1.109.434-2.288.515-3.317.43-1.035-.083-1.982-.322-2.838-.581l-2.326-.703-4.675-1.363-9.411-2.657a427.79 427.79 0 01-9.432-2.768c-1.493-.488-2.684-.679-3.635-.362-.479.147-.949.425-1.423.843-.478.411-.9.919-1.469 1.584a209.882 209.882 0 01-13.518 14.377 218.129 218.129 0 01-10.967 9.923l-.943.793-.887.756c-.526.469-.98.967-1.316 1.485-.687 1.027-.86 2.16-.65 3.514.103.679.297 1.33.542 2.157l.684 2.362a700.4 700.4 0 012.597 9.455c.848 3.148 1.696 6.29 2.584 9.412l.677 2.337c.216.732.507 1.671.615 2.63.124.963.06 2.065-.31 3.101-.371 1.041-1.049 1.909-1.758 2.576-.69.669-1.544 1.187-2.184 1.618l-2.03 1.352-4.06 2.704-8.122 5.409-4.062 2.704-2.031 1.353c-.662.438-1.455 1.009-2.33 1.378-.878.389-1.911.645-2.967.6-1.059-.039-2.049-.397-2.884-.841-.834-.44-1.577-1.021-2.211-1.536l-1.895-1.531c-5.07-4.066-10.27-8.001-15.404-12.049l-1.922-1.522c-.631-.497-1.303-1.066-1.863-1.461-1.188-.839-2.44-1.217-3.743-.929-.655.131-1.314.395-1.975.749l-2.18 1.139a212.176 212.176 0 01-4.401 2.197 221.637 221.637 0 01-18.061 7.759 254.563 254.563 0 01-9.241 3.297c-1.432.488-2.64 1.238-3.254 2.416-.313.588-.519 1.268-.626 1.999-.1.716-.177 1.598-.269 2.388l-2.267 19.435-.51 4.854-.246 2.461c-.11.872-.324 1.788-.803 2.659-.472.874-1.28 1.604-2.138 2.019-.851.439-1.754.635-2.572.794l-4.807.914c-6.409 1.217-12.778 2.468-19.064 4.144-1.647.413-3.509.662-5.326.036-1.826-.615-3.156-2.054-4.083-3.475-.946-1.473-1.619-2.907-2.429-4.324l-2.398-4.247-4.92-8.451-2.442-4.25-1.198-2.132c-.371-.661-.802-1.271-1.307-1.778-1.003-1.027-2.337-1.554-3.822-1.634-.75-.05-1.482.01-2.298.091l-2.445.233c-3.262.293-6.53.51-9.802.653-6.543.287-13.098.284-19.64.011-3.248-.127-6.591-.364-9.75-.589-1.489-.051-2.792.371-3.753 1.397-.484.51-.903 1.13-1.278 1.798l-1.189 2.129-9.528 17.08-2.382 4.27-1.191 2.134c-.405.741-.86 1.512-1.458 2.216-.586.707-1.373 1.351-2.296 1.741-.922.404-1.921.499-2.835.452-.912-.04-1.816-.248-2.579-.419l-2.384-.518c-6.363-1.359-12.762-2.563-19.178-3.688l-2.407-.417c-.813-.136-1.739-.326-2.611-.71-.875-.382-1.754-1.021-2.338-1.866-.595-.839-.913-1.776-1.092-2.663-.18-.921-.246-1.714-.361-2.518l-.313-2.426-.627-4.85-2.507-19.402c-.217-1.673-.33-3.123-1.009-4.219-.618-1.087-1.782-1.769-3.193-2.226a270.651 270.651 0 01-9.316-3.088c-6.185-2.185-12.285-4.629-18.253-7.377a188.15 188.15 0 01-8.844-4.355c-1.403-.766-2.673-1.272-3.954-1.285-1.251-.02-2.485.5-3.701 1.337-1.169.823-2.483 1.968-3.756 2.957l-3.86 3.033-7.763 5.972a742.466 742.466 0 00-7.715 5.981c-.656.5-1.193.996-2.095 1.582-.844.539-2.005.988-3.235.935-1.222-.061-2.246-.526-3.059-1.003-.849-.52-1.443-.946-2.142-1.402l-16.263-10.82-4.077-2.714c-.767-.507-1.545-1.107-2.239-1.925a6.37 6.37 0 01-1.442-3.016c-.395-2.247.394-4.191.79-5.621l1.347-4.679 5.172-18.867 1.319-4.647c.157-.638.212-1.209.136-1.645-.066-.44-.242-.812-.598-1.26-.353-.455-.825-.849-1.493-1.425l-1.857-1.617a259.117 259.117 0 01-3.675-3.281c-4.863-4.419-9.582-9.014-14.064-13.848a189.098 189.098 0 01-3.316-3.669l-1.624-1.867-.788-.912a5.837 5.837 0 00-.628-.623c-.859-.699-1.6-.893-2.87-.723-1.165.163-2.881.767-4.429 1.175l-18.833 5.283-4.671 1.371-4.743 1.438c-.916.241-1.9.434-2.992.446-1.082.017-2.296-.197-3.373-.707-1.082-.504-1.966-1.244-2.657-1.997-.693-.752-1.243-1.557-1.718-2.304-3.443-5.48-7.065-10.853-10.812-16.147l-2.879-4.046c-.538-.818-1.051-1.755-1.369-2.89a7.214 7.214 0 01-.046-3.646c.6-2.333 2.094-3.9 2.987-5.063l3.012-3.826 11.98-15.477 3.052-3.855.75-.942c.216-.271.405-.54.585-.804.343-.53.591-1.035.71-1.491a3.35 3.35 0 00.075-1.383c-.07-.495-.25-1.06-.514-1.657-.126-.304-.283-.588-.453-.928l-.574-1.095-1.135-2.197c-2.991-5.88-5.735-11.91-8.091-18.11-.59-1.55-1.155-3.11-1.692-4.681l-.786-2.363-.378-1.162c-.112-.321-.218-.647-.348-.936-.503-1.222-1.131-2.037-1.963-2.555-.834-.534-2.074-.85-3.509-.989l-4.848-.438-4.896-.498-9.741-1.087a670.424 670.424 0 00-9.69-1.041l-2.417-.23-.629-.061c-.253-.032-.491-.047-.756-.096a9.748 9.748 0 01-1.624-.382c-1.114-.343-2.444-1.131-3.28-2.246-.869-1.102-1.235-2.237-1.501-3.231l-4.084-19.221-1.011-4.767-.505-2.384c-.197-.88-.405-2.039-.314-3.249.088-1.224.519-2.608 1.283-3.66.745-1.071 1.654-1.821 2.509-2.392.215-.144.432-.286.644-.407l.59-.343 1.063-.606 2.126-1.212 17.006-9.699 8.503-4.848c1.306-.719 1.709-1.174 1.938-1.839.109-.363.181-.862.165-1.487a17.13 17.13 0 00-.061-1.018l-.103-1.233a244.769 244.769 0 01-.838-19.774 238.589 238.589 0 01.436-14.846l.164-2.471.089-1.235c.026-.396.038-.63.032-.921-.008-.552-.108-.956-.241-1.266-.133-.31-.34-.572-.695-.892a5.986 5.986 0 00-.649-.474c-.254-.169-.49-.292-.876-.511l-2.135-1.188-8.539-4.755-8.539-4.755-4.27-2.377-2.135-1.189c-.815-.444-1.769-1.012-2.651-1.833-.889-.818-1.731-2.024-2.13-3.341-.397-1.315-.407-2.571-.296-3.637.06-.535.146-1.039.248-1.524l.259-1.199.509-2.382c.673-3.176 1.335-6.35 1.949-9.527a338.423 338.423 0 001.722-9.541l.194-1.193.096-.597.138-.744c.214-1.005.535-2.09 1.163-3.194.607-1.104 1.633-2.163 2.755-2.817 1.121-.672 2.245-1.004 3.254-1.21.506-.1.999-.175 1.472-.226l1.246-.132 2.413-.257 4.833-.554 9.703-1.182a624.01 624.01 0 019.769-1.128l1.226-.128.517-.06c.157-.015.288-.045.426-.068.551-.099.905-.257 1.126-.403.396-.237.854-.979 1.292-2.482 1.976-6.293 4.186-12.525 6.682-18.651 2.497-6.125 5.28-12.146 8.388-18.007l.484-.951c.119-.282.252-.564.333-.829.184-.537.277-1.019.283-1.45.021-.833-.298-1.702-1.024-2.787a15.928 15.928 0 00-.594-.808l-.745-.941-1.529-1.931-3.022-3.879c-4.005-5.181-7.922-10.386-11.923-15.486l-1.513-1.922c-.609-.794-1.262-1.711-1.709-3.025a6.88 6.88 0 01-.348-2.169c0-.768.158-1.503.377-2.148.43-1.29 1.199-2.279 1.572-2.847l5.48-8.082 5.481-8.082 2.74-4.041 1.371-2.02c.52-.779 1.36-1.931 2.684-2.67 1.319-.803 2.98-.953 4.124-.816 1.2.122 2.091.403 2.918.629l4.709 1.335 9.418 2.671 9.418 2.672 4.709 1.335 2.349.666c.605.178 1.135.258 1.502.251.361-.021.565-.078.89-.268.32-.194.731-.565 1.146-1.044a210.868 210.868 0 0110.043-10.944c4.634-4.716 9.503-9.192 14.538-13.461.513-.437.927-.858 1.211-1.251.291-.397.407-.712.482-1.08.076-.362.055-.856-.051-1.453-.103-.594-.301-1.248-.541-2.081a671.578 671.578 0 01-2.652-9.456c-1.728-6.302-3.403-12.589-5.219-18.81l-.347-1.2a15.344 15.344 0 01-.338-1.457c-.177-1.018-.252-2.192.003-3.44.235-1.251.901-2.458 1.663-3.344.769-.9 1.611-1.542 2.428-2.078a568.818 568.818 0 008.208-5.305 545.055 545.055 0 008.086-5.421l4.009-2.765.999-.697a15.6 15.6 0 011.272-.798c.905-.504 2.028-.943 3.299-1.06 1.276-.138 2.587.174 3.62.634 1.048.462 1.876 1.067 2.609 1.648l3.843 3.027 7.686 6.053 7.686 6.054 3.843 3.027 1.866 1.466c.556.423 1.104.77 1.611.995 1.004.427 1.839.429 3.052-.004.294-.114.595-.238.902-.392l1.069-.535 2.212-1.102a218.545 218.545 0 018.968-4.157 226.413 226.413 0 0118.436-7.078l2.327-.768c.645-.212 1.207-.478 1.634-.786.429-.31.716-.656.954-1.126.231-.474.399-1.075.497-1.756l1.12-9.638 2.25-19.439.281-2.43.145-1.239c.049-.452.132-.926.246-1.41.229-.957.691-2.075 1.569-2.944.88-.86 1.945-1.304 2.884-1.55.485-.13.947-.21 1.321-.29l1.197-.241 2.393-.484 4.787-.968 9.575-1.935 4.788-.968 2.394-.484 1.197-.242a9.404 9.404 0 011.443-.197c.998-.065 2.16.12 3.141.68.985.554 1.682 1.355 2.218 2.129.542.814.893 1.524 1.3 2.226l1.196 2.132 4.785 8.531 9.568 17.057c.7 1.276 1.622 2.056 2.895 2.19.321.034.657.04 1.005.017l1.218-.088 2.451-.17c3.269-.211 6.542-.36 9.816-.447a257.781 257.781 0 0124.54.529l4.834.364c.687.02 1.264-.145 1.746-.52.485-.386.892-.991 1.282-1.68l2.418-4.249 9.679-16.994 2.414-4.252c.805-1.37 1.531-2.99 2.945-4.164a5.39 5.39 0 012.49-1.131c.903-.144 1.794-.076 2.639.072l4.8 1.056c6.366 1.382 12.766 2.613 19.181 3.776 1.553.307 3.339.442 4.828 1.531.738.529 1.294 1.303 1.622 2.122.342.82.471 1.682.561 2.509l1.101 9.719 2.232 19.436c.161 1.591.445 3.203 1.443 4.36.488.575 1.132 1.01 1.834 1.342.7.335 1.47.543 2.257.793a200.93 200.93 0 019.289 3.126 213.057 213.057 0 0118.079 7.548c2.953 1.386 5.878 2.868 8.765 4.355 1.44.689 2.975 1.279 4.538 1.267 1.578.001 2.992-.784 4.047-2.027zm.394.415c-.52.6-1.19 1.189-1.951 1.581a5.498 5.498 0 01-2.481.615c-1.725.014-3.326-.612-4.809-1.314-2.917-1.49-5.815-2.947-8.771-4.324a212.527 212.527 0 00-18.046-7.47 199.915 199.915 0 00-9.266-3.086c-1.521-.444-3.28-.98-4.438-2.347-1.172-1.36-1.46-3.152-1.632-4.76L639.7 61.037l-1.179-9.711c-.152-1.563-.615-3.11-1.833-3.95-1.196-.878-2.818-1.029-4.432-1.32-6.431-1.112-12.853-2.295-19.248-3.63l-4.764-1.01c-.758-.127-1.518-.172-2.228-.051a4.143 4.143 0 00-1.907.884c-1.128.942-1.797 2.383-2.608 3.816l-2.371 4.281-9.458 17.136-2.364 4.287c-.405.725-.882 1.532-1.668 2.182-.791.658-1.882.952-2.82.923l-4.927-.302a255.863 255.863 0 00-24.359-.2c-3.246.13-6.488.321-9.726.574l-2.427.201-1.221.105c-.465.039-.947.04-1.438-.006-.98-.1-2.021-.465-2.834-1.1-.823-.626-1.413-1.418-1.873-2.209l-9.804-16.941-4.9-8.469-1.225-2.117c-.417-.705-.813-1.448-1.187-1.984-.827-1.153-1.615-1.617-2.861-1.52a6.467 6.467 0 00-.975.15l-1.197.26-2.394.52-4.788 1.042-9.577 2.084-9.445 2.07c-1.314.403-1.705.815-2.023 2.07-.066.311-.123.642-.156 1.001l-.122 1.192-.246 2.432-1.963 19.462-.995 9.81c-.124.933-.348 1.933-.816 2.935a6.992 6.992 0 01-2.129 2.605c-.887.661-1.824 1.085-2.721 1.397l-2.307.799a221.926 221.926 0 00-17.986 7.21 213.9 213.9 0 00-8.725 4.201l-2.15 1.111-1.11.576a14.04 14.04 0 01-1.334.597c-.934.357-2.009.625-3.161.639a8.165 8.165 0 01-3.31-.667c-.99-.426-1.823-.968-2.571-1.521l-1.997-1.534-3.876-2.985-7.751-5.97-7.751-5.97-3.876-2.984c-.546-.426-1.063-.771-1.516-.957-.458-.182-.79-.254-1.143-.205-.354.041-.795.177-1.308.474-.258.148-.511.315-.793.512l-1 .714-4.014 2.834a530.223 530.223 0 01-8.107 5.562 566.88 566.88 0 01-8.19 5.373c-.544.358-.995.737-1.281 1.084-.284.355-.434.625-.496.982-.068.354-.066.837.042 1.422.055.292.128.6.223.922l.34 1.147c1.881 6.287 3.607 12.593 5.371 18.858a674.992 674.992 0 002.694 9.362c.418 1.481 1.177 3.553.769 6.058a8.192 8.192 0 01-1.42 3.379c-.665.935-1.419 1.668-2.141 2.293a226.888 226.888 0 00-14.099 13.192 206.6 206.6 0 00-6.582 7.05 239.33 239.33 0 00-3.18 3.657c-.653.748-1.423 1.531-2.492 2.198a7.58 7.58 0 01-3.739 1.131c-1.267.03-2.357-.2-3.317-.472l-2.36-.661-4.708-1.32-9.416-2.639-9.417-2.639-4.708-1.32c-.741-.21-1.426-.389-1.852-.419-.465-.032-.516.009-.602.06-.05.019-.136.098-.25.215-.057.079-.12.123-.185.23l-.253.361-1.369 2.032-2.738 4.064-5.476 8.128-5.476 8.128c-.533.779-.754 1.119-.835 1.39-.075.266-.063.235-.004.481.072.238.34.698.729 1.187l1.519 1.916c4.065 5.151 8.008 10.357 11.996 15.484l3.002 3.829 1.512 1.899.777.975c.291.365.576.757.855 1.163.552.824 1.081 1.751 1.474 2.827a9.693 9.693 0 01.599 3.494c-.037 2.398-.997 4.506-1.817 6.002-3.006 5.662-5.706 11.494-8.135 17.445-2.428 5.953-4.585 12.023-6.519 18.172-.114.349-.267.856-.452 1.331-.179.478-.402.98-.679 1.49-.531 1.009-1.423 2.12-2.558 2.883-2.322 1.549-4.717 1.487-6.09 1.679-3.218.338-6.441.72-9.672 1.112l-9.723 1.181-4.888.558-2.452.259-1.186.125c-.338.036-.652.086-.946.143-.586.116-1.04.285-1.318.456a1.567 1.567 0 00-.622.642c-.181.315-.355.804-.477 1.391l-.086.458-.098.609-.198 1.22a340.47 340.47 0 01-1.758 9.71 471.056 471.056 0 01-1.983 9.637l-.522 2.399-.261 1.191c-.066.314-.117.613-.15.888-.061.551-.019.956.052 1.208.084.243.187.431.486.726.314.293.759.589 1.373.925l2.135 1.198 4.27 2.399 8.54 4.796 8.54 4.797 2.135 1.199c.322.185.808.445 1.232.728.436.276.88.611 1.314.981.865.754 1.715 1.789 2.222 2.982.516 1.188.711 2.418.727 3.494.014.525-.022 1.106-.053 1.523l-.091 1.204-.168 2.408a232.07 232.07 0 00-.479 14.48c-.013 6.441.239 12.884.747 19.311.079 1.447.477 3.569-.281 5.969-.383 1.194-1.127 2.378-2.004 3.208a9.357 9.357 0 01-1.344 1.089c-.437.307-.963.588-1.273.768l-8.513 4.813-17.026 9.625-2.128 1.204-1.064.602-.468.27c-.143.079-.266.163-.391.244-.502.327-.852.66-1.037.932-.2.271-.261.505-.313.898-.027.423.028.891.183 1.6l.5 2.402 1 4.806 3.974 19.069c.145.572.333 1.017.492 1.193.151.192.281.296.711.449.199.072.466.129.754.176.136.029.305.038.457.06l.588.059 2.453.243c3.267.333 6.52.706 9.764 1.085l9.703 1.118 4.837.51 4.896.461c1.79.198 3.835.582 5.776 1.8a9.481 9.481 0 012.475 2.281c.676.877 1.144 1.804 1.524 2.711.199.457.346.906.498 1.357l.374 1.165.749 2.28a142.448 142.448 0 001.617 4.524c2.255 6.002 4.898 11.872 7.798 17.627l1.102 2.152.558 1.073c.195.389.425.822.611 1.273.387.896.725 1.892.879 3.014a8.501 8.501 0 01-.232 3.462c-.313 1.119-.828 2.079-1.375 2.912-.278.409-.564.804-.858 1.168l-.78.966-3.046 3.795-12.073 15.39-3.065 3.841-.772.956c-.239.304-.433.545-.613.814-.356.522-.61 1.019-.71 1.427-.094.411-.104.746.009 1.188.12.439.374.964.728 1.506l2.769 3.941c3.754 5.377 7.391 10.847 10.851 16.434.764 1.251 1.594 2.223 2.387 2.576.398.189.827.282 1.372.282.54 0 1.173-.105 1.832-.275l4.628-1.374 4.727-1.354 18.884-5.165 2.348-.656 1.257-.341c.46-.107.928-.209 1.433-.272.992-.137 2.127-.146 3.265.154 1.143.279 2.185.897 3 1.591.414.349.772.722 1.102 1.101l.804.944 1.575 1.835a183.165 183.165 0 003.221 3.61c4.349 4.767 8.933 9.333 13.682 13.731a259.165 259.165 0 003.591 3.27l1.817 1.613c.557.497 1.352 1.148 1.996 1.991.658.821 1.233 1.965 1.383 3.146.172 1.182-.002 2.261-.238 3.198l-1.397 4.751-5.359 18.818-1.406 4.708-.361 1.176c-.116.392-.21.69-.277 1.024-.138.647-.192 1.251-.1 1.738.089.49.272.909.639 1.344.356.433.867.86 1.456 1.255l4.04 2.747 16.212 11.018c.661.443 1.397.964 1.937 1.298.579.355 1.104.545 1.52.571.41.016.853-.107 1.384-.431.474-.29 1.171-.871 1.812-1.357 2.59-2.003 5.2-3.971 7.808-5.932l7.797-5.891 3.859-2.979c1.312-.998 2.456-2.006 3.96-3.054 1.455-.994 3.357-1.855 5.4-1.803 2.012.027 3.834.868 5.269 1.663 2.85 1.53 5.744 2.983 8.673 4.362 5.859 2.76 11.86 5.225 17.957 7.437a263.36 263.36 0 009.231 3.148c.846.284 1.705.656 2.513 1.206a6.618 6.618 0 012.038 2.169c1.032 1.745 1.09 3.678 1.296 5.206l2.341 19.425.585 4.856.293 2.429c.105.809.178 1.644.309 2.325.267 1.451.922 2.455 2.149 2.991.622.278 1.302.436 2.095.575l2.411.433c6.428 1.159 12.847 2.398 19.236 3.796l2.394.533c.826.19 1.52.347 2.239.385 1.437.104 2.603-.378 3.516-1.476.462-.539.85-1.175 1.229-1.862l1.202-2.13 2.404-4.262 9.618-17.046 1.207-2.136c.427-.749.922-1.495 1.563-2.168.648-.661 1.465-1.244 2.377-1.552.906-.32 1.848-.422 2.738-.395 3.347.24 6.511.472 9.781.605 6.492.282 12.995.296 19.486.021a211.98 211.98 0 009.724-.632l2.425-.227c.805-.079 1.704-.155 2.584-.093 1.767.075 3.674.813 4.949 2.153.646.651 1.158 1.391 1.583 2.15l1.195 2.134 2.425 4.236 4.923 8.458 2.421 4.265c.809 1.414 1.543 2.933 2.366 4.2.842 1.281 1.891 2.345 3.196 2.778 1.3.459 2.83.295 4.315-.086 6.32-1.699 12.76-2.979 19.163-4.209l4.803-.924c1.548-.271 2.863-.786 3.453-1.917.31-.561.491-1.257.58-2l.235-2.405.501-4.876c.708-6.493 1.508-12.965 2.176-19.44.091-.829.146-1.573.264-2.473.125-.88.375-1.79.824-2.645.446-.856 1.134-1.606 1.901-2.156.772-.547 1.604-.926 2.43-1.22A256.614 256.614 0 00660.42 597a219.765 219.765 0 0017.836-7.799c1.455-.716 2.9-1.453 4.339-2.201l2.149-1.14c.772-.419 1.637-.788 2.581-.985a6.421 6.421 0 012.933.049c.962.239 1.812.693 2.565 1.199.775.54 1.348 1.028 2.004 1.532l1.928 1.495c5.152 3.974 10.398 7.857 15.549 11.898l1.927 1.522c.634.506 1.192.923 1.806 1.24 1.217.649 2.322.68 3.548.118.629-.276 1.166-.669 1.856-1.138l2.026-1.381 4.053-2.761 8.107-5.523 4.054-2.762 2.027-1.382.949-.649c.282-.21.551-.425.785-.65.954-.916 1.274-1.834 1.105-3.149-.085-.663-.278-1.289-.534-2.116l-.708-2.354a702.694 702.694 0 01-2.697-9.426 691.802 691.802 0 00-2.684-9.382l-.701-2.329c-.225-.733-.515-1.645-.665-2.579-.156-.937-.202-1.954-.03-2.984.161-1.031.577-2.036 1.12-2.885.544-.856 1.201-1.571 1.882-2.195l.965-.842.921-.79a214.441 214.441 0 0010.689-9.879 205.338 205.338 0 0013.133-14.257c.976-1.182 2.413-2.944 4.603-3.635 2.197-.738 4.386-.196 5.959.29 3.104.922 6.233 1.79 9.373 2.646l9.449 2.564 4.732 1.328 2.365.687c.705.206 1.354.349 1.946.389 1.202.074 1.876-.214 2.714-1.061.416-.438.763-.948 1.179-1.616l1.305-2.088a316.932 316.932 0 015.384-8.248 343.69 343.69 0 015.624-8.083l.719-.999c.208-.304.413-.583.583-.874.352-.575.625-1.142.772-1.659.287-1.03.152-1.847-.455-2.925-.14-.261-.333-.526-.522-.792l-.685-.874-1.52-1.918-3.039-3.838-6.062-7.689-6.068-7.7c-.602-.762-1.177-1.637-1.601-2.681a7.83 7.83 0 01-.584-3.419c.057-1.167.362-2.23.743-3.157.185-.459.414-.923.611-1.31l.551-1.077a225.823 225.823 0 008.063-17.588 219.817 219.817 0 006.489-18.214c.287-.919.663-1.89 1.299-2.862.622-.963 1.565-1.91 2.638-2.486 2.154-1.184 4.208-1.18 5.683-1.396a681.21 681.21 0 009.67-1.224l9.712-1.28 4.879-.603 2.447-.281 1.19-.136c.339-.04.658-.094.954-.159.594-.131 1.056-.323 1.366-.53.31-.208.506-.457.723-.868.208-.409.378-.984.489-1.633l.408-2.394a445.81 445.81 0 011.769-9.677 438.462 438.462 0 011.976-9.635l.53-2.4c.198-.871.316-1.417.348-1.982.006-1.113-.122-1.388-.959-2.128a7.89 7.89 0 00-.736-.502l-.966-.546-2.135-1.199-4.27-2.4-8.541-4.798-8.541-4.799-2.135-1.2c-.702-.396-1.544-.846-2.423-1.552-.876-.696-1.822-1.854-2.19-3.154a6.831 6.831 0 01-.306-1.841c-.034-.569.032-1.179.055-1.525.542-6.435.823-12.89.846-19.343a226.166 226.166 0 00-.702-19.342l-.205-2.411c-.062-.744-.175-1.727-.135-2.739.035-1.006.205-2.088.61-3.14a8.392 8.392 0 011.791-2.817c.75-.782 1.576-1.384 2.396-1.883l.61-.354.529-.294 1.058-.59 4.224-2.409 8.483-4.904c1.427-.81 2.863-1.614 4.311-2.402l2.183-1.169c.672-.357 1.255-.697 1.763-1.084 1.028-.796 1.479-1.513 1.593-2.566.055-.532.013-1.157-.104-1.818-.117-.612-.346-1.513-.524-2.283a396.842 396.842 0 01-2.112-9.606 599.571 599.571 0 01-1.909-9.627l-.456-2.408-.226-1.204c-.07-.366-.141-.675-.229-.987-.182-.604-.421-1.068-.7-1.374-.279-.301-.648-.531-1.213-.7a6.187 6.187 0 00-.916-.201 22.214 22.214 0 00-1.109-.12l-2.453-.237-4.889-.532-9.723-1.163-9.846-1.121c-.954-.176-1.985-.522-2.906-1.156-.933-.617-1.639-1.508-2.136-2.371-.487-.861-.812-1.777-1.069-2.563l-.767-2.305a238.534 238.534 0 00-6.948-18.145 218.358 218.358 0 00-4.044-8.833 204.557 204.557 0 00-2.171-4.346c-.775-1.432-1.612-3.322-1.462-5.382.116-2.085 1.257-3.829 2.327-5.136l3.035-3.837 6.07-7.674 6.069-7.674c1.025-1.325 2.081-2.441 2.397-3.661.364-1.175-.046-2.433-.868-3.686l-10.821-16.298-2.71-4.082c-.471-.69-.867-1.358-1.324-1.912-.462-.557-.971-1.031-1.547-1.304-1.137-.589-2.599-.36-4.097.094l-4.72 1.3-18.878 5.202-2.37.65c-.82.216-1.683.389-2.596.389a5.534 5.534 0 01-2.688-.65c-.822-.449-1.498-1.077-2.052-1.754a207.93 207.93 0 00-6.341-7.41c-4.348-4.836-8.938-9.455-13.705-13.884a211.956 211.956 0 00-3.611-3.284l-1.83-1.614c-.602-.53-1.256-1.075-1.826-1.72-.573-.636-1.075-1.384-1.372-2.231-.313-.843-.37-1.76-.286-2.621.078-.861.324-1.702.563-2.473l.707-2.337c1.862-6.242 3.544-12.542 5.343-18.815l1.377-4.698.712-2.342c.233-.758.4-1.532.395-2.294a3.88 3.88 0 00-.594-2.13c-.406-.634-.986-1.165-1.62-1.631-1.315-.9-2.718-1.785-4.07-2.68-5.457-3.577-10.89-7.197-16.202-10.994-1.324-.967-2.618-1.924-4.155-2.212-1.522-.305-3.064.277-4.348 1.193-2.565 1.94-5.149 3.975-7.723 5.958l-15.462 11.963z"
		fill="#E6E7E8" />
	<path d="M562 342.2l245.6 46.9c-7 36.6-21 69.2-42.8 99.4L562 342.2z" fill="#D5E8EB" stroke="#fff" stroke-width="4"
		stroke-miterlimit="10" />
	<path d="M562 342.2l231.5-94.4c19 46.5 23.5 91.9 14.1 141.3L562 342.2z" fill="#D5E8EB" stroke="#fff"
		stroke-width="4" stroke-miterlimit="10" />
	<path d="M562 342.2L517.8 96.1C635.5 75 748.4 137 793.5 247.8L562 342.2z" fill="#D5E8EB" stroke="#fff"
		stroke-width="4" stroke-miterlimit="10" />
	<path
		d="M562 342.2l-249.6 13.9c-7.1-127.6 79.7-237.4 205.4-260L562 342.2zM562 342.2L350.4 475.3c-23.4-37.2-35.5-75.3-38-119.2L562 342.2zM562 342.2l202.7 146.3c-80.8 112-237.1 137.2-349 56.5-28.2-20.4-46.8-40.1-65.3-69.6L562 342.2z"
		fill="#D5E8EB" stroke="#fff" stroke-width="4" stroke-miterlimit="10" />
	<path
		d="M406.7 342.2c0 2.2.1 4.4.2 6.6l79.3-4.4 73.6-4.1-27.2-150.9c-71.8 13.8-126 77-125.9 152.8zM562 230.2c-6 0-12 .5-17.7 1.5l19.4 107.7 99.1-40.4c-16.5-40.5-55.4-68.9-100.8-68.8zM604.5 327l-35.4 14.4 37.5 7.2c.3-2.2.5-4.4.5-6.6-.1-5.2-1-10.3-2.6-15zM570.6 345.8l45.8 33c4.5-6.7 7.8-14.3 9.5-22.5l-55.3-10.5zM562.4 497.5c51.1-.1 96.3-24.7 124.6-62.8l-125-90.2-130.3 82c27.8 42.8 75.9 71.1 130.7 71zM496.7 347.8c.9 10 4 19.4 8.8 27.6l49-30.8-57.8 3.2z"
		fill="#77B4BF" />
	<path
		d="M348.563 441.736c.552-.698.418-1.4.418-1.4s3.442-20.955 3.529-23.235c.086-2.272 1.354-4.104 1.354-5.851 0-1.025.533-6.185.975-10.292-.396-1.643-.845-3.36-1.054-3.742-.399-.735.099-2.07-.449-2.631-1.098-1.15-2.32-1.684-1.335-3.656.474-.949 1.635.112 1.835.623.016.044.037.07.059.094.01.009.02.016.031.023a.122.122 0 00.057.02.29.29 0 00.105-.012c.012-.004.025-.008.038-.015a.578.578 0 00.075-.042l.043-.031a.615.615 0 00.058-.046c.022-.018.044-.038.066-.058l.011-.012c.103-.099.196-.21.254-.283.19-.224.57.346.768-.065l.073-5.415s-2.371-.867-3.473-3.495c-1.098-2.629-1.69-2.713-2.957-4.198-1.272-1.49-1.442-3.414-1.442-7.171 0-3.766 1.949-8.835 2.2-10.666.251-1.841 1.937-5.869 2.868-6.963.929-1.098 7.825-3.1 7.825-3.1s.574-1.44 1.183-1.725c.614-.281.803-.676 1.605-1.419.807-.742 2.25-.538 2.25-.538s-.009-.298-.067-.529c-.009-.04-.013-.071-.028-.102-.027-.071-.065-.129-.118-.151-.209-.089-1.014-1.841-1.352-2.757-.338-.915-.549-2.93-.382-5.112.168-2.183 2.068-4.642 6.448-5.496 4.378-.848 6.913 2.735 6.913 2.735s-.286.036.105.347c.391.32.529 1.03.455.875-.065-.129-.402-.405-.496-.471.054.04.156.156.316.494.233.48-.338 1.637-.271 1.307.062-.325-.278-.783-.278-.783l.009.049c.004.009.004.027.006.04.004.026.008.056.011.092.014.159.026.464-.027 1.043-.082.96.065.529.255 1.289.191.761.271 1.156-.044 1.699-.32.552-.651.992-.485 1.245.165.267.443.44.552 1.098.107.658-.529.458-.636.72-.107.258 0 .765-.022 1.116-.018.347-.507.458-.276.543.234.089.234.285.107.418-.127.129-.443 1.178-.401 2.121.005.173-.021.316-.064.431-.009.022-.016.049-.022.062a.654.654 0 01-.176.249c-.004.008-.009.013-.013.017-.009.009-.01.009-.017.013a.912.912 0 01-.365.174h-.001c-.016.004-.012 0-.027.004-.044.004-.073.009-.073.009s.417.565.718.955c.296.396 1.417 1.926 1.417 1.926s.051-.116 1.067.369c1.015.48 3.556 2.009 4.317 2.534.76.521 2.581 5.158 2.92 7.038.338 1.881.929 3.277 1.819 4.896.89 1.618.845 2.227.805 2.97-.044.747.127 2.01.127 3.499 0 1.49-.762 2.757-.762 2.757s.214.916.38 2.01c.171 1.093-.295 2.801-.803 3.454-.507.654 0 .569.125 1.484.129.921.382 1.179-.254 1.525-.634.356-1.054 1.36-1.606 2.014-.552.654-1.269.698-1.819.876-.549.178-.973.659-1.481 1.792-.511 1.133.383 6.603.04 6.949-.336.352-1.039.191-1.039.191s.167 4.899-.087 6.998c-.253 2.098-2.555 34.559-2.555 34.559s1.059 1.49 2.033 2.578c.971 1.094 1.268 2.758 1.056 3.455-.612 2.023-4.59 1.623-5.969.876-.8-.44-1.056-1.573-1.521-2.453-.463-.872-1.523-1.135-2.286-1.789-.76-.658-.576-2.333-.576-2.333l-1.523-2.187s-.314-17.35-.314-22.601c0-5.242-1.186-13.112-1.186-13.112-1.549 1.081-3.668 12.187-5.359 21.372-1.694 9.177-5.601 18.643-5.601 18.643l-1.397.436s-.042 1.267-.082 1.881c-.04.608-1.014.999-1.143 1.306-.126.307-.126 1.708-.338 2.45-.214.742-.89 1.048-2.281 1.395-1.396.355-4.025.177-4.322-.392-.294-.564-.463-1.702-.505-2.667-.046-.955.928-2.439 1.479-3.142zM452 269v45.619h61.027V269H452zm23.778 9.732h4.211v7.016h-4.211v-7.016zm-9.134 0h4.211v7.016h-4.211v-7.016zm-8.788 0h4.211v7.016h-4.211v-7.016zm22.135 34.72h-22.134v-20.534h22.134v20.534zm4.922-34.72h4.211v7.016h-4.211v-7.016zm4.28 21.201h-4.211v-7.016h4.211v7.016zm4.992-21.201h4.211v7.016h-4.211v-7.016zm4.28 21.201h-4.211v-7.016h4.211v7.016zm4.855-21.201h4.211v7.016h-4.211v-7.016zm4.279 21.201h-4.211v-7.016h4.211v7.016z"
		fill="#414143" />
	<path d="M562 342.1l202.7 146.3c-80.8 112-237.1 137.2-349 56.5-28.2-20.4-46.8-40.1-65.3-69.6L562 342.1z"
		stroke="#2E8C9D" stroke-width="4" stroke-miterlimit="10" />
	<path
		d="M562.776 367.49c12.674 0 22.948-10.272 22.948-22.942s-10.274-22.942-22.948-22.942c-12.674 0-22.948 10.272-22.948 22.942s10.274 22.942 22.948 22.942z"
		fill="#fff" />
	<path
		d="M930.007 335.926a3.226 3.226 0 00-3.167 2.662l-75.487.141.002 1.144 75.487-.141a3.226 3.226 0 006.399-.583 3.229 3.229 0 00-3.234-3.223zM930.45 124.808a3.225 3.225 0 00-3.165 2.663l-131.435.358h-.199l-24.611 13.532.711.896 24.3-13.284 131.237-.358a3.223 3.223 0 003.177 2.648 3.227 3.227 0 10-.015-6.455zM296 232.468h-69.725a2.817 2.817 0 00-5.59.5 2.816 2.816 0 005.59.5H296v-1zM283 456.335l-56.71-.016a2.815 2.815 0 00-2.769-2.319 2.82 2.82 0 00-.001 5.637 2.816 2.816 0 002.77-2.319l56.71.016v-.999zM914.113 456.679a3.223 3.223 0 00-3.171 2.655h-76.256v1.145h76.256a3.225 3.225 0 006.4-.572 3.229 3.229 0 00-3.229-3.228zM560.32 633.5v59.09a2.816 2.816 0 00.5 5.588 2.816 2.816 0 00.5-5.588V633.5h-1z"
		fill="#919494" />
	<text fill="#074953" style="white-space:pre" font-family="Roboto" font-size="30" font-weight="bold">
		<tspan x="523" y="440.639">9.060</tspan>
	</text>
	<text fill="#258999" style="white-space:pre" font-family="Roboto" font-size="30" font-weight="bold">
		<tspan x="504" y="543.61">137.250</tspan>
	</text>
	<text fill="#414143" style="white-space:pre" font-family="Roboto" font-size="26">
		<tspan x="509" y="465.764">bedrijven</tspan>
	</text>
	<text fill="#414143" style="white-space:pre" font-family="Roboto" font-size="26">
		<tspan x="489" y="568.735">werknemers</tspan>
	</text>
</svg>