<svg width="275" height="275" viewBox="0 0 275 275" fill="none" xmlns="http://www.w3.org/2000/svg">
<rect width="275" height="275" fill="white"/>
<path fill-rule="evenodd" clip-rule="evenodd" d="M207.304 54.1333V49.9373H213.179V16.3673H179.609V49.9373H184.644V54.1333H44.4912V260.587H232.481V54.1333H207.304ZM188.001 20.5643H193.037V38.1883H203.947V43.2233H193.037H188.001V20.5643ZM156.949 78.4713H168.699V98.6133H156.949V78.4713ZM156.949 118.755H168.699V138.897H156.949V118.755ZM104.916 78.4713H116.666V98.6133H104.916V78.4713ZM104.916 118.755H116.666V138.897H104.916V118.755ZM104.916 159.038H116.666V179.18H104.916V159.038ZM80.5782 78.4713H92.3272V98.6133H80.5782V78.4713ZM80.5782 118.755H92.3272V138.897H80.5782V118.755ZM80.5782 159.038H92.3272V179.18H80.5782V159.038ZM54.5622 78.4713H66.3122V98.6133H54.5622V78.4713ZM54.5622 118.755H66.3122V138.897H54.5622V118.755ZM54.5622 159.038H66.3122V179.18H54.5622V159.038ZM117.505 257.23H54.5622V199.322H117.505V257.23ZM130.933 78.4713H142.682V98.6133H130.933V78.4713ZM143.521 219.464H131.771V199.322H143.521V219.464ZM143.521 179.18H131.771V159.038H143.521V179.18ZM143.521 138.897H131.771V118.755H143.521V138.897ZM156.949 159.038H168.699V179.18H156.949V159.038ZM169.538 219.464H157.789V199.322H169.538V219.464ZM194.715 219.464H182.966V199.322H194.715V219.464ZM194.715 179.18H182.966V159.038H194.715V179.18ZM194.715 138.897H182.966V118.755H194.715V138.897ZM194.715 98.6133H182.966V78.4713H194.715V98.6133ZM204.786 54.1333H188.001V49.9373H204.786V54.1333ZM220.731 219.464H208.981V199.322H220.731V219.464ZM220.731 179.18H208.981V159.038H220.731V179.18ZM220.731 138.897H208.981V118.755H220.731V138.897ZM220.731 98.6133H208.981V78.4713H220.731V98.6133Z" fill="#D9DADB"/>
<path d="M253.011 172.782C252.402 171.204 251.613 169.71 251.136 168.262C250.004 165.994 250.042 163.827 248.152 162.348C247.429 161.772 247.243 158.63 246.256 157.43C245.779 156.856 244.469 154.776 243.955 154.373C243.596 154.091 241.898 151.942 240.57 150.88C239.83 150.288 237.953 149.231 237.469 149.031C237.07 148.865 234.298 148.292 234.347 148.372C233.409 146.96 230.054 145.102 232.11 142.784C232.374 142.505 233.442 139.464 233.524 139.02C233.755 137.836 233.146 136.653 233.524 135.32C234.132 134.269 233.097 131.59 232.785 130.752C232.702 130.49 232.11 129.979 232.785 130.227C233.509 130.471 232.456 129.339 232.358 129.224C232.028 128.828 231.322 128.928 230.912 128.567C230.846 127.859 229.366 128.402 230.254 127.613C230.402 127.483 229.53 127.514 229.515 127.416C229.498 127.25 230.221 127.103 229.745 127.103C229.318 127.103 229.958 126.823 230.073 126.807C230.532 126.741 230.156 126.495 229.958 126.495C229.876 126.495 230.402 126.214 229.908 126.214C228.972 126.214 228.33 126.922 227.87 125.984C227.787 125.821 227.459 125.491 227.36 125.869C227.278 126.23 227.048 126.115 226.901 125.918C226.77 125.772 226.506 126.182 226.456 126.182C225.783 126.182 225.897 125.952 225.421 125.852C225.355 125.837 225.124 126.28 225.124 126.396C225.074 126.773 224.863 126.183 224.847 126.133C224.779 126 224.747 125.788 224.731 125.625C224.673 124.915 224.198 126.121 224.057 126.479L224.008 126.576C224.014 126.565 224.029 126.532 224.049 126.481C223.864 126.578 223.384 126.691 223.384 126.691C223.498 125.852 222.661 127.3 222.661 126.625C222.661 126.576 221.921 126.559 221.789 127.037C221.658 127.546 221.296 128.007 221.23 128.531C221.212 128.645 221.081 127.56 221.031 127.446C221.015 127.398 221.031 126.936 220.967 127.118C220.835 127.446 220.753 127.741 220.753 128.121C220.753 128.318 220.785 128.96 220.67 128.499C220.572 128.071 220.49 127.875 220.49 128.548C220.49 128.614 219.849 128.121 219.553 128.072C219.043 127.988 219.553 128.169 219.799 128.269C219.883 128.319 218.419 128.122 219.207 128.615L220.276 129.271C220.276 129.321 218.911 129.601 219.503 129.601C219.815 129.601 220.326 129.863 219.652 129.863C219.437 129.863 219.075 129.913 218.878 129.978C218.518 130.111 218.961 130.193 219.076 130.258C219.307 130.424 219.734 130.72 219.158 130.72C218.798 130.72 218.533 130.818 218.287 130.899C217.958 131.098 217.909 132.527 217.909 133.004C217.909 133.481 218.436 133.842 218.008 134.369C217.926 134.484 217.515 135.421 217.712 135.274C218.319 134.812 217.974 135.569 218.205 135.404C218.616 135.077 218.665 136.143 218.714 136.408C218.813 136.885 219.241 137.294 219.241 137.74C219.241 138.298 219.684 138.625 219.684 139.021C219.684 139.794 219.948 140.369 219.948 141.027C219.948 141.85 220.08 142.507 220.72 142.72C220.819 142.934 220.852 143.986 220.852 144.135C220.852 145.333 223.201 146.302 222.446 147.552C222.364 147.667 221.658 147.798 221.378 147.98C221.297 148.029 220.477 148.346 219.892 148.877C219.195 149.32 218.363 149.892 217.936 150.272C217.247 150.885 216.467 151.823 215.842 152.601C215.469 152.982 215.157 153.33 214.967 153.6C214.866 153.744 214.757 153.884 214.65 154.025C212.83 155.694 211.757 158.951 211.654 161.287C211.626 161.932 211.657 162.579 211.698 163.223C211.87 165.89 211.817 168.502 212.009 171.142C212.025 171.359 212.042 171.586 211.999 171.795C211.435 174.494 211.529 177.243 211.389 179.972C211.208 183.5 211.136 187.034 210.976 190.563C210.941 191.326 210.707 192.079 210.609 192.841C210.549 193.305 210.487 193.797 210.577 194.245C210.853 195.62 210.471 196.927 210.273 198.256C210.119 199.287 209.71 200.322 210.124 201.361C210.486 202.268 210.908 203.157 211.371 204.017C211.695 204.618 211.71 205.823 211.327 206.385C209.999 208.337 208.697 210.307 207.354 212.249C207.103 212.612 206.722 212.894 206.372 213.178C206.097 213.402 205.631 213.506 205.507 213.779C205.177 214.509 204.476 214.928 204.106 215.561C203.557 216.498 202.708 217.064 201.927 217.709C201.365 218.173 201.029 218.643 200.992 219.391C200.829 222.688 200.1 225.911 199.671 229.172C199.316 231.874 199.261 234.633 199.283 237.364C199.305 240.082 200.462 242.506 201.762 244.844C201.772 244.861 201.782 244.88 201.796 244.892C203.664 246.421 204.973 248.631 207.42 249.459C208.056 249.674 208.658 249.993 209.269 250.28C209.463 250.371 209.676 250.476 209.808 250.635C210.903 251.957 212.283 252.363 213.934 251.987C215.21 251.697 216.395 251.468 217.689 251.411C217.702 251.476 217.716 251.53 217.731 251.558C217.783 251.54 218.033 256.355 217.865 256.506C217.276 257.02 218.144 257.761 218.24 258.564C216.681 260.317 213.892 260.853 213.776 260.999C213.756 261.019 212.042 260.95 211.487 261.338C211.116 261.609 210.741 263.085 210.741 263.085C210.541 263.187 210.472 263.383 210.481 263.616C210.373 263.891 210.475 264.396 210.517 264.7C210.553 265.468 214.772 266.653 215.806 266.53C217.318 266.348 218.909 266.472 220.367 265.955C221.223 265.645 221.962 265.046 222.829 264.754C222.904 264.884 222.978 265.004 223.062 265.128C223.597 265.904 224.058 265.618 224.891 265.482C225.933 265.31 227.011 265.13 227.903 264.469C228.849 263.772 228.5 262.908 228.438 261.869C228.344 261.86 228.439 261.5 228.575 261.531C228.575 261.531 228.889 260.355 228.851 259.994C228.831 259.665 228.784 259.514 228.742 259.283C228.685 258.99 228.822 258.15 228.822 258.15C228.986 257.863 229.065 256.853 229.09 256.77C229.276 256.076 228.97 252.876 228.9 251.833C229.052 251.898 229.07 245.1 229.056 245.031C229.467 242.763 229.747 241.167 228.644 238.948C228.136 237.93 228.81 236.961 228.81 236.056C228.81 234.626 229.171 232.768 229.171 231.074C229.171 229.462 229.368 228.183 229.813 227.08C230.404 225.617 230.848 227.392 230.848 228.133C230.848 229.069 231.391 232.192 231.883 232.784C232.326 233.325 233.493 240.065 233.493 240.788C233.493 241.758 233.904 245.883 234.448 246.278C234.628 246.409 235.089 248.745 235.055 248.958C234.94 249.912 234.679 250.655 234.595 251.675C234.612 252.615 234.3 255.369 234.3 256.373C234.3 257.193 235.187 257.621 234.727 258.904C234.529 259.494 234.037 260.219 233.856 260.76C233.181 260.892 232.229 264.624 232.229 265.494C232.229 267.139 239.823 267.009 241.024 266.301C241.862 265.79 241.779 264.788 242.289 264.492C244.048 263.507 242.979 261.349 243.246 259.61C243.28 259.39 243.654 258.267 243.817 258.165C243.825 258.159 243.833 258.149 243.841 258.143C243.847 258.14 243.853 258.133 243.859 258.128C243.885 258.11 243.908 258.087 243.931 258.06C243.945 258.045 243.959 258.021 243.973 258.001C243.987 257.983 244.001 257.962 244.014 257.938C244.034 257.903 244.052 257.859 244.072 257.813C244.078 257.796 244.087 257.781 244.092 257.761C244.115 257.698 244.138 257.621 244.164 257.521C244.259 257.133 244.337 256.529 244.409 255.55C244.393 254.219 245.1 254.318 245.1 253.479C245.1 250.997 244.952 243.748 244.574 242.794C244.114 241.593 243.867 240.624 243.867 239.211C243.867 237.206 244.639 235.71 244.639 233.556C244.639 233.166 244.55 232.064 244.533 231.903C244.507 231.674 243.633 228.122 243.592 228.016C243.513 227.808 242.45 225.695 242.289 225.454C241.006 223.579 243.358 219.47 241.581 217.103C241.593 216.988 241.691 216.504 241.838 215.827C241.852 215.765 241.863 215.711 241.877 215.65C241.89 215.587 241.905 215.519 241.919 215.453C242.47 212.979 243.532 208.562 243.932 207.832C244.459 206.862 243.801 205.104 244.524 204.364C245.971 202.85 247.581 202.144 246.283 199.547C245.659 198.297 244.128 199.695 243.866 200.368C243.845 200.426 243.816 200.46 243.788 200.492C243.775 200.504 243.761 200.514 243.746 200.522C243.723 200.538 243.699 200.547 243.671 200.549C243.656 200.553 243.639 200.553 243.622 200.551C243.593 200.549 243.564 200.543 243.531 200.532C243.515 200.526 243.499 200.521 243.481 200.513C243.449 200.499 243.417 200.479 243.383 200.457C243.364 200.445 243.346 200.433 243.326 200.418C243.3 200.4 243.274 200.378 243.249 200.356C243.22 200.333 243.191 200.306 243.162 200.281C243.157 200.275 243.153 200.271 243.147 200.264C243.012 200.134 242.889 199.988 242.812 199.892C242.548 199.58 242.006 200.435 241.76 199.709C241.694 199.546 241.548 195.898 241.398 195.14C241.168 193.975 242.016 193.332 242.313 193.233C242.378 193.201 242.789 192.92 242.905 192.904C242.509 192.904 247.407 189.995 248.492 188.383C250.614 185.194 252.224 182.515 252.897 178.143C253.306 175.544 254.095 175.594 253.011 172.782ZM215.677 183.549C215.782 183.566 215.886 183.583 215.991 183.6C215.883 184.139 215.791 184.682 215.663 185.216C215.493 185.926 215.186 186.621 215.132 187.337C215.042 188.523 215.135 189.688 214.769 190.885C214.38 192.155 214.375 193.541 214.196 194.876C214.179 195.001 214.112 195.119 214.068 195.241C214.015 195.23 213.963 195.219 213.91 195.207C213.39 191.15 214.877 187.403 215.677 183.549ZM212.709 206.531C212.004 206.375 211.965 205.882 212.414 204.41C212.961 204.532 213.085 205.428 212.709 206.531ZM213.808 205.894C213.83 205.803 213.778 205.696 213.787 205.599C213.862 204.723 213.543 203.724 214.592 203.141C215.056 203.338 215.333 203.706 215.387 204.249C215.532 205.726 215.708 207.201 215.816 208.681C215.862 209.306 215.767 209.941 215.73 210.701C215.522 210.524 215.446 210.484 215.407 210.422C214.536 209.033 213.357 207.752 213.808 205.894ZM214.699 212.922C214.693 212.792 214.712 212.662 214.729 212.34C214.98 212.63 215.149 212.774 215.255 212.955C216.229 214.625 216.179 216.445 215.992 218.275C215.688 221.253 215.737 224.205 216.559 227.11C216.717 227.668 216.846 228.235 216.989 228.797C216.922 228.813 216.855 228.83 216.788 228.846C216.734 228.727 216.669 228.612 216.627 228.489C215.734 225.885 215.257 223.194 215.066 220.458C214.892 217.95 214.816 215.434 214.699 212.922ZM245.828 177.746C245.647 179.719 244.529 182.374 243.773 183.755C243.588 184.075 243.292 184.469 242.929 184.826C242.925 184.828 242.923 184.832 242.923 184.832C242.818 184.933 242.321 185.81 242.169 185.81C242.07 185.81 240.657 186.674 240.575 186.543C240.443 186.297 240.591 178.272 241.052 177.697C241.659 176.891 241.052 170.546 241.627 170.35C241.627 170.35 241.882 170.729 242.18 170.942C242.31 171.032 242.425 171.139 242.53 171.258C242.532 171.262 242.534 171.265 242.538 171.268C242.989 171.789 243.264 172.557 243.667 173.25C243.701 173.307 243.738 173.362 243.773 173.42C243.827 173.506 243.882 173.591 243.943 173.672C244.001 173.752 244.069 173.827 244.134 173.901C244.184 173.957 244.231 174.018 244.285 174.071C244.414 174.195 244.552 174.31 244.712 174.409C245.17 174.69 245.877 177.187 245.828 177.746Z" fill="#414143"/>
</svg>
