<svg width="170" height="124" viewBox="0 0 170 124" fill="none" xmlns="http://www.w3.org/2000/svg">
<path d="M169.065 82.4725C168.815 82.0405 168.264 81.8944 167.834 82.144L161.557 85.7754C161.436 85.8453 161.34 85.9417 161.266 86.0508L156.748 78.2322L162.87 74.6917C163.299 74.4414 163.446 73.8885 163.196 73.4565C162.947 73.0245 162.396 72.8784 161.967 73.1287L155.845 76.6692L153.127 71.9669C152.795 71.3916 152.06 71.1959 151.486 71.5293C150.913 71.8628 150.717 72.6002 151.05 73.1748L163.185 94.1727C163.456 94.6396 163.991 94.8563 164.489 94.7431C164.604 94.7165 164.719 94.6725 164.826 94.6096C165.399 94.2761 165.594 93.5387 165.262 92.9641L162.079 87.4565C162.121 87.4523 162.165 87.4474 162.208 87.4383C162.294 87.4181 162.379 87.3859 162.459 87.3384L168.737 83.707C169.168 83.4567 169.314 82.9045 169.065 82.4725Z" fill="#919494"/>
<path d="M162.233 93.2912L151.588 75.2223C145.986 78.5447 141.787 83.2491 143.302 88.786C142.319 89.5235 141.764 90.3372 142.014 90.7629L144.048 94.2146C144.306 94.6508 145.33 94.5369 146.484 93.9931C150.625 97.7545 156.749 96.5431 162.233 93.2912Z" fill="#919494"/>
<path d="M120.362 105.902C119.263 105.903 118.329 105.595 117.571 104.982C115.588 103.375 115.627 100.403 115.665 97.5294C115.67 97.1456 115.674 96.7626 115.674 96.3858L119.346 96.3837C119.346 96.7772 119.341 97.1771 119.336 97.5776C119.316 99.0952 119.283 101.635 119.878 102.117C120.009 102.223 120.428 102.285 121.18 102.112C122.464 101.817 122.729 101.106 123.101 98.436C123.312 96.9226 123.551 95.2072 124.438 93.6673C125.318 92.1364 126.433 91.2068 127.75 90.8999C129.922 90.3973 131.843 91.6933 133.538 92.8376C134.362 93.3933 135.214 93.9679 135.798 94.1119C137.039 94.4167 138.141 93.6799 139.836 92.4524C140.428 92.0239 141.04 91.5807 141.706 91.1774L143.605 94.3286C143.067 94.655 142.541 95.036 141.984 95.4386C140.059 96.8332 137.876 98.4129 134.926 97.6888C133.707 97.3889 132.58 96.6284 131.489 95.893C130.521 95.2387 129.194 94.3453 128.578 94.4879C128.303 94.5516 127.953 94.9234 127.616 95.5085C127.088 96.4277 126.917 97.651 126.736 98.9456C126.393 101.416 125.922 104.801 122 105.702C121.419 105.835 120.872 105.902 120.362 105.902Z" fill="#919494"/>
<path d="M33.3652 35.0761C33.1123 35.0761 32.9068 35.2824 32.9068 35.5368V35.9338L30.3555 35.9352C27.3193 35.9366 24.8503 38.4168 24.8517 41.4631L24.8531 43.6447H24.458C24.2051 43.6447 23.9996 43.8509 23.9996 44.1047C23.9996 44.3591 24.2051 44.5653 24.4587 44.5653L28.9203 44.5625C29.1732 44.5625 29.3788 44.3556 29.3788 44.1012C29.3788 43.8467 29.1732 43.6412 28.9203 43.6412H28.5246L28.5232 41.4596C28.5225 40.4439 29.3453 39.6177 30.3576 39.617L32.9089 39.6156V40.0112C32.9089 40.2657 33.1151 40.4719 33.368 40.4719C33.6216 40.4719 33.8264 40.265 33.8264 40.0105L33.8236 35.534C33.8243 35.2817 33.6188 35.0761 33.3652 35.0761Z" fill="#919494"/>
<path d="M28.9484 90.5685H28.5506L28.5256 46.4478H28.9212C29.1741 46.4478 29.3796 46.2409 29.3796 45.9864C29.3796 45.732 29.1741 45.5265 28.9212 45.5265L24.4601 45.5293C24.2072 45.5293 24.0017 45.7355 24.0017 45.9892C24.0017 46.2437 24.2072 46.4499 24.4608 46.4499H24.8558L24.8808 90.5706H24.4886C24.2351 90.5706 24.0303 90.7769 24.0303 91.0313C24.0303 91.285 24.2358 91.4912 24.4893 91.4912L28.9505 91.4885C29.2034 91.4885 29.4089 91.2815 29.4089 91.0278C29.4075 90.7741 29.2013 90.5685 28.9484 90.5685Z" fill="#919494"/>
<path d="M28.9475 92.4524L24.4859 92.4552C24.233 92.4552 24.0275 92.6607 24.0275 92.9151C24.0275 93.1696 24.233 93.3751 24.4866 93.3751H24.8816L24.883 95.9049C24.8837 96.9205 24.0609 97.7468 23.0493 97.7475L20.4535 97.7489V97.3854C20.4535 97.1302 20.2479 96.9247 19.9943 96.9247C19.7414 96.9247 19.5359 97.1309 19.5359 97.3854L19.5387 101.861C19.5387 102.116 19.7449 102.322 19.9978 102.322C20.2514 102.322 20.4562 102.115 20.4562 101.861V101.432L23.0521 101.431C26.0876 101.429 28.5567 98.9491 28.5553 95.9035L28.5539 93.3737H28.9496C29.2025 93.3737 29.408 93.1675 29.408 92.9131C29.4059 92.6572 29.2004 92.4524 28.9475 92.4524Z" fill="#919494"/>
<path d="M18.116 96.9261C17.8624 96.9261 17.6568 97.1323 17.6568 97.3868V97.7671L16.3596 97.7678L16.3568 93.0948L3.12247 93.1025L3.12525 97.7754L1.03239 97.7768L1.03448 101.46L3.29107 101.459L3.29455 108.078C3.29525 108.821 4.33541 109.423 5.61732 109.423L13.9755 109.418C15.2574 109.417 16.2969 108.814 16.2962 108.071L16.2927 101.452L17.6589 101.451V101.863C17.6589 102.118 17.8651 102.324 18.118 102.324C18.3709 102.324 18.5765 102.117 18.5765 101.863L18.5737 97.3875C18.5751 97.1316 18.3696 96.9261 18.116 96.9261Z" fill="#919494"/>
<path d="M13.621 84.9302V85.2071L10.396 85.2092L10.3953 84.2767C10.3953 83.9369 10.1201 83.6629 9.78293 83.6629C9.44504 83.6629 9.17124 83.9376 9.17124 84.2774L9.17194 85.2099L6.36776 85.2113V84.9344L0 84.9379L0.000696691 86.4108L6.36845 86.4073V86.1319L9.17263 86.1305L9.17333 87.6536L5.29833 87.6557C4.79045 87.6557 4.38079 88.0675 4.38149 88.577C4.38149 89.0852 4.79184 89.4976 5.29973 89.4969L9.17472 89.4949L9.17542 90.3246L2.72685 90.3281C2.13536 90.3281 1.65673 90.8097 1.65673 91.4032C1.65673 91.9966 2.13675 92.4769 2.72824 92.4769L16.7234 92.4692C17.3149 92.4692 17.7942 91.9876 17.7935 91.3941C17.7935 90.8006 17.3135 90.3197 16.722 90.3204L10.3995 90.3239L10.3988 89.4941L14.2731 89.492C14.7796 89.492 15.19 89.0796 15.19 88.5707C15.19 88.0612 14.7789 87.6501 14.2724 87.6508L10.3981 87.6529L10.3974 86.1298L13.6224 86.1277V86.4031L19.9895 86.3996L19.9888 84.9268L13.621 84.9302Z" fill="#919494"/>
<path d="M120.826 41.368L103.873 41.3778L103.87 35.0153C112.519 33.9472 119.238 26.532 119.232 17.5706C119.227 7.87655 111.366 -0.00559682 101.709 -4.65562e-06C92.0517 0.00558751 84.1993 7.89613 84.2049 17.5901C84.2097 26.5516 90.9363 33.9591 99.5871 35.0174L99.5878 35.8961L35.7033 35.9324V35.5354C35.7033 35.2809 35.4971 35.0754 35.2442 35.0754C34.9913 35.0754 34.7858 35.2816 34.7858 35.5361L34.7886 40.0126C34.7886 40.267 34.9948 40.4733 35.2477 40.4733C35.5006 40.4733 35.7061 40.2663 35.7061 40.0119V39.6163L99.5906 39.5799L99.5913 41.3806L30.2949 41.4204L30.3332 109.873L120.865 109.821L120.826 41.368ZM102.338 31.4538L102.332 20.7413C102.609 20.6875 102.871 20.5966 103.117 20.4764L107.395 28.9807C107.395 28.9807 108.409 28.6983 110.494 26.8892C112.436 25.206 113.152 23.241 113.152 23.241L104.589 19.0203C104.719 18.7624 104.815 18.4842 104.872 18.192L115.547 18.1857C115.238 25.3569 109.485 31.135 102.338 31.4538ZM115.546 16.9582L104.87 16.9645C104.817 16.6849 104.726 16.4221 104.607 16.1739L113.085 11.8819C113.085 11.8819 112.802 10.8642 111 8.772C109.323 6.82453 107.364 6.10594 107.364 6.10594L103.157 14.6969C102.898 14.5669 102.621 14.469 102.328 14.4124L102.322 3.69921C109.47 4.00818 115.229 9.78348 115.546 16.9582ZM101.099 3.69921L101.105 14.4124C100.829 14.4655 100.566 14.5571 100.321 14.6766L96.0423 6.17164C96.0423 6.17164 95.0273 6.45405 92.9421 8.26171C91.0011 9.94635 90.2856 11.9113 90.2856 11.9113L98.85 16.1327C98.7204 16.3934 98.6222 16.6723 98.5664 16.968L87.8918 16.9743C88.199 9.79886 93.9523 4.01656 101.099 3.69921ZM87.8918 18.2018L98.5664 18.1955C98.6201 18.4709 98.71 18.733 98.8291 18.9791L90.3518 23.2711C90.3518 23.2711 90.6332 24.2909 92.4356 26.3824C94.1139 28.3299 96.0723 29.0478 96.0723 29.0478L100.278 20.4575C100.537 20.5882 100.815 20.6861 101.109 20.742L101.115 31.4552C93.9676 31.1441 88.208 25.3723 87.8918 18.2018ZM71.399 56.0439L71.4046 66.5327L65.1288 66.5362L65.1232 56.0474L71.399 56.0439ZM58.1619 56.0439L58.1674 66.5327L51.8916 66.5362L51.8861 56.0474L58.1619 56.0439ZM44.9247 56.0439L44.9303 66.5327L38.6545 66.5362L38.6489 56.0474L44.9247 56.0439ZM38.6545 107.794L38.6371 77.018L71.399 76.9992L71.4164 107.775L38.6545 107.794ZM79.0626 87.5068L79.057 77.018L85.3328 77.0145L85.3384 87.5033L79.0626 87.5068ZM79.0626 66.5362L79.057 56.0474L85.3328 56.0439L85.3384 66.5327L79.0626 66.5362ZM92.9964 87.5068L92.9908 77.018L99.2666 77.0145L99.2722 87.5033L92.9964 87.5068ZM92.9964 66.5362L92.9908 56.0474L99.2666 56.0439L99.2722 66.5327L92.9964 66.5362ZM106.234 87.5068L106.228 77.018L112.504 77.0145L112.509 87.5033L106.234 87.5068ZM106.234 66.5362L106.228 56.0474L112.504 56.0439L112.509 66.5327L106.234 66.5362Z" fill="#919494"/>
<path d="M127.821 121.9C127.824 121.761 127.872 121.648 127.994 121.594C127.994 121.594 128.268 120.732 128.497 120.584C128.839 120.375 129.849 120.476 129.863 120.465C129.936 120.382 131.604 120.164 132.587 119.18C132.559 118.701 132.073 118.23 132.439 117.946C132.582 117.833 133.52 114.569 133.455 114.186C133.379 113.754 133.8 113.034 133.97 112.683C134.101 112.419 134.188 112.272 134.3 112.147C133.848 111.733 134.156 111.179 134.278 110.592C134.508 109.486 133.942 99.7033 134.075 98.5828C134.195 97.5762 136.244 89.8933 136.542 89.1614C136.849 88.396 137.569 86.0843 137.852 85.8124C137.854 85.7712 137.856 85.7306 137.855 85.6908C137.845 85.421 137.728 85.1253 137.673 84.8457C137.544 84.197 137.283 82.6885 137.237 82.5018C136.331 78.8117 136.483 74.7015 136.966 72.141C137.08 71.5398 137.586 70.8827 137.695 70.2858C137.758 69.9454 137.793 69.6252 137.854 69.3253C138.038 68.4355 138.598 67.7833 138.902 66.971C139 66.7096 139.101 66.4258 139.198 66.1483C139.299 65.8582 139.46 65.5534 139.494 65.3025C139.515 65.1494 139.464 64.9865 139.494 64.8453C139.522 64.7188 139.614 64.5636 139.677 64.4336C139.748 64.2875 139.869 64.1414 139.882 64.0225C139.897 63.8834 139.819 63.6772 139.791 63.4969C139.73 63.0998 139.71 62.7426 139.791 62.3771C139.38 62.0926 138.817 61.9206 138.379 61.6459C138.149 61.5012 137.932 61.1845 137.718 61.1664C137.589 61.1545 137.499 61.1622 137.365 61.1622C136.942 61.1629 136.558 60.9077 136.568 60.4764C136.573 60.266 136.678 60.3128 136.671 60.0682C136.662 59.7886 136.427 59.7487 136.329 59.5202C136.287 59.4384 136.422 59.3398 136.42 59.2231C136.276 59.1399 136.119 59.1951 136.055 59.0399C135.97 58.8316 136.145 58.4604 136.01 58.2626C135.752 58.1759 135.562 58.3682 135.349 58.285C134.907 58.113 135.34 57.2966 135.44 57.0512C135.507 56.887 135.603 56.6528 135.691 56.434C135.773 56.2271 135.95 55.9384 135.919 55.7713C135.899 55.6658 135.878 55.6413 135.832 55.5427C135.803 55.4812 135.746 55.4043 135.764 55.3142C135.808 55.0856 135.89 55.08 135.965 54.8794C136.049 54.6536 135.976 54.3593 135.987 54.1251C135.999 53.8791 136.013 53.6204 136.101 53.4394L137.013 51.9533C138.168 50.5566 141.205 51.0327 142.093 51.5422C142.264 51.6408 142.898 52.1895 143.027 52.3196C143.621 52.9158 143.95 53.8476 144.12 54.8332C144.262 55.6518 144.261 56.5207 144.03 57.233C143.959 57.4518 143.798 57.6706 143.779 57.8956C143.764 58.0697 143.851 58.6093 143.893 58.7184C143.958 58.8924 144.113 58.9952 144.235 59.1532C144.338 59.2874 144.485 59.5495 144.599 59.5873C144.731 59.6306 144.881 59.6005 145.009 59.6103C145.148 59.6208 145.2 59.6278 145.419 59.6327C145.687 59.8256 145.781 60.1472 145.92 60.4555C146.035 60.7092 146.224 61.1524 146.421 61.3006C146.546 61.3942 146.72 61.4481 146.854 61.5291C147.873 62.1541 148.476 62.9391 149.087 63.9981C149.566 64.8285 150.01 65.7911 150.34 66.7865C150.457 67.1416 150.587 67.4946 150.614 67.8609C150.68 68.8004 150.501 69.2435 150.451 70.0551C150.407 70.7548 150.392 71.5021 150.367 72.2269C150.342 72.9532 150.281 73.6634 150.23 74.3296C150.177 75.0181 150.11 75.6752 149.911 76.2267C149.706 76.7943 149.22 77.3647 149.224 77.9869C149.229 78.6817 149.537 79.3549 149.612 80.0895C149.69 80.8668 149.719 81.7099 149.68 82.5354C149.628 83.614 149.589 84.7373 149.518 85.7984C149.56 85.7963 149.569 86.0752 149.566 86.2374C149.555 86.7065 149.484 87.1713 149.472 87.6396C149.458 87.6529 149.444 87.6725 149.43 87.697L149.429 87.7235C149.405 87.9954 149.318 88.2038 149.214 88.3876C148.88 89.8548 148.515 92.9501 148.283 93.4338C148.613 94.4719 148.908 97.0072 148.668 97.2337C148.794 98.0362 149.194 98.9896 149.256 99.8879C149.311 100.646 149.226 110.204 149.486 110.93C149.879 112.017 150.386 113.854 150.321 114.2C150.313 114.241 150.462 114.406 150.412 114.446C150.469 114.681 150.417 114.729 150.341 115.093C150.328 115.143 150.322 115.186 150.315 115.227C150.315 115.227 150.535 115.744 150.447 115.919C150.447 115.919 150.393 116.422 150.435 116.594C150.468 116.73 150.481 119.676 150.347 119.811C150.366 119.888 150.281 120.412 150.337 120.414C150.406 121.028 150.639 121.53 150.101 121.973C149.596 122.393 148.963 122.533 148.353 122.668C147.864 122.775 147.6 122.959 147.26 122.516C147.207 122.445 147.159 122.376 147.111 122.301C146.608 122.502 146.19 122.881 145.693 123.091C144.847 123.444 143.902 123.42 143.013 123.576C142.405 123.682 139.832 122.651 139.832 122.651C139.794 122.477 139.718 122.181 139.773 122.015C139.76 121.876 139.795 121.758 139.91 121.691L139.97 121.667C139.929 121.307 140.086 120.803 140.296 120.631C140.613 120.384 141.628 120.371 141.639 120.359C141.699 120.274 143.137 119.913 144.031 118.971C143.821 118.583 143.68 115.828 143.569 115.192C143.33 113.825 143.157 112.472 143.004 111.091C142.899 110.141 142.813 99.9494 142.413 98.9764C142.315 98.9533 142.222 98.9281 142.13 98.9141C142.08 99.1756 142.031 99.4279 141.963 99.6257C141.634 100.616 141.424 110.307 141.12 111.306C140.723 112.622 140.73 113.941 140.057 115.192C139.68 115.898 139.842 116.737 139.206 117.599C139.28 117.897 139.2 118.093 139.067 118.499C139.048 118.546 138.966 119.142 138.858 119.307C138.858 119.307 138.749 119.801 138.771 119.976C138.788 120.115 138.811 120.206 138.811 120.401C138.821 120.617 138.593 121.303 138.593 121.303C138.514 121.281 138.444 121.49 138.5 121.499C138.5 122.117 138.675 122.642 138.091 123.022C137.542 123.382 136.897 123.45 136.275 123.515C135.778 123.566 135.495 123.72 135.207 123.24C135.161 123.164 135.122 123.09 135.083 123.01C134.56 123.152 134.102 123.481 133.585 123.634C132.704 123.889 131.769 123.759 130.869 123.813C130.252 123.85 127.802 122.997 127.807 122.54L127.811 122.534C127.791 122.362 127.748 122.059 127.821 121.9Z" fill="#3E3F41"/>
<path d="M111.415 121.992L111.411 121.996C111.428 122.357 113.406 122.915 113.892 122.857C114.6 122.772 115.346 122.83 116.031 122.586C116.432 122.441 116.778 122.159 117.185 122.022C117.22 122.082 117.255 122.139 117.294 122.197C117.544 122.562 117.761 122.428 118.151 122.363C118.64 122.282 119.146 122.198 119.563 121.887C120.007 121.558 119.843 121.152 119.814 120.663C119.77 120.66 119.815 120.49 119.878 120.504C119.878 120.504 120.026 119.951 120.008 119.781C119.999 119.625 119.977 119.555 119.956 119.446C119.93 119.308 119.994 118.913 119.994 118.913C120.071 118.778 120.108 118.303 120.12 118.264C120.207 117.937 120.064 116.432 120.031 115.942C120.102 115.972 120.11 112.774 120.104 112.741C120.297 111.674 120.428 110.923 119.911 109.88C119.672 109.4 119.988 108.944 119.988 108.519C119.988 107.846 120.158 106.971 120.158 106.175C120.158 105.417 120.25 104.815 120.459 104.295C120.736 103.607 120.944 104.442 120.944 104.792C120.944 105.231 121.198 106.701 121.429 106.979C121.637 107.234 122.184 110.405 122.184 110.745C122.184 111.202 122.377 113.143 122.632 113.328C122.717 113.389 122.933 114.488 122.917 114.589C122.863 115.037 122.741 115.387 122.701 115.867C122.71 116.309 122.563 117.605 122.563 118.077C122.563 118.463 122.979 118.664 122.763 119.268C122.671 119.545 122.44 119.886 122.355 120.141C122.039 120.204 121.592 121.959 121.592 122.368C121.592 123.143 125.153 123.081 125.716 122.748C126.11 122.507 126.07 122.036 126.309 121.897C127.134 121.433 126.633 120.417 126.759 119.6C126.775 119.496 126.95 118.968 127.026 118.92C127.031 118.917 127.034 118.912 127.038 118.91C127.041 118.908 127.044 118.905 127.047 118.903C127.058 118.894 127.07 118.884 127.08 118.871C127.086 118.864 127.093 118.853 127.1 118.843C127.107 118.835 127.113 118.825 127.12 118.814C127.129 118.797 127.137 118.777 127.146 118.755C127.149 118.747 127.153 118.74 127.156 118.731C127.167 118.701 127.178 118.665 127.188 118.622C127.188 118.622 127.189 118.62 127.189 118.618C127.234 118.435 127.27 118.151 127.304 117.691C127.297 117.064 127.628 117.11 127.628 116.716C127.628 115.548 127.559 112.138 127.382 111.689C127.166 111.125 127.05 110.669 127.05 110.003C127.05 109.06 127.412 108.357 127.412 107.343C127.412 107.16 127.371 106.641 127.363 106.565C127.35 106.457 126.941 104.786 126.922 104.736C126.884 104.638 126.386 103.644 126.311 103.531C125.71 102.649 126.812 100.716 125.979 99.602C125.985 99.5475 126.031 99.3203 126.1 99.0015C126.107 98.9729 126.112 98.947 126.118 98.9183C126.124 98.8883 126.131 98.8568 126.138 98.8254C126.397 97.6615 126.895 95.5833 127.082 95.2401C127.329 94.7836 127.021 93.9567 127.36 93.6086C128.039 92.8963 128.793 92.5642 128.185 91.3424C127.892 90.7545 127.175 91.4123 127.051 91.7282C127.042 91.7555 127.028 91.7716 127.015 91.7869C127.009 91.7925 127.003 91.7974 126.996 91.8016C126.985 91.8086 126.973 91.8135 126.96 91.8142C126.953 91.8163 126.945 91.8163 126.937 91.8149C126.924 91.8142 126.91 91.8114 126.895 91.8065C126.888 91.8037 126.88 91.8016 126.872 91.7974C126.857 91.7904 126.842 91.7813 126.826 91.7716C126.817 91.7653 126.808 91.7597 126.799 91.7527C126.787 91.7443 126.775 91.7338 126.763 91.724C126.749 91.7128 126.736 91.7003 126.723 91.6884C126.72 91.6856 126.718 91.6835 126.716 91.6807C126.652 91.6192 126.594 91.5507 126.559 91.5052C126.436 91.3584 126.181 91.7611 126.066 91.4192C126.035 91.3424 125.966 89.6263 125.896 89.2698C125.788 88.721 126.186 88.4184 126.325 88.3722C126.355 88.3575 126.548 88.2254 126.603 88.2177C126.417 88.2177 128.714 86.8491 129.222 86.0906C130.217 84.5898 130.972 83.3302 131.288 81.273C131.481 80.0511 131.85 80.0749 131.342 78.7516C131.057 78.0093 130.687 77.306 130.463 76.6245C129.932 75.5578 129.95 74.5379 129.064 73.8417C128.724 73.5712 128.638 72.0927 128.175 71.5279C127.951 71.2581 127.337 70.2795 127.096 70.09C126.928 69.9572 126.132 68.9458 125.509 68.446C125.162 68.167 124.282 67.67 124.055 67.5757C123.868 67.4981 122.568 67.2283 122.591 67.266C122.152 66.6019 120.579 65.7275 121.542 64.637C121.665 64.5056 122.167 63.0754 122.205 62.8664C122.313 62.31 122.028 61.7528 122.205 61.1258C122.49 60.6309 122.005 59.3706 121.858 58.9763C121.82 58.8533 121.542 58.6121 121.858 58.7296C122.198 58.8442 121.704 58.3116 121.658 58.2577C121.504 58.0711 121.172 58.1179 120.98 57.9488C120.949 57.6153 120.255 57.8712 120.671 57.4993C120.741 57.4378 120.332 57.4532 120.325 57.407C120.317 57.3294 120.656 57.2595 120.433 57.2595C120.232 57.2595 120.533 57.1281 120.588 57.1204C120.803 57.0897 120.626 56.9736 120.533 56.9736C120.494 56.9736 120.742 56.8415 120.51 56.8415C120.071 56.8415 119.77 57.1743 119.554 56.7332C119.515 56.6563 119.361 56.5011 119.315 56.6786C119.276 56.8485 119.168 56.7947 119.099 56.7017C119.037 56.6332 118.914 56.8261 118.891 56.8261C118.575 56.8261 118.629 56.7178 118.406 56.671C118.375 56.6633 118.266 56.8723 118.266 56.9261C118.243 57.1036 118.144 56.8261 118.136 56.8024C118.104 56.7395 118.089 56.6402 118.082 56.5633C118.054 56.2292 117.831 56.7968 117.761 56.9659L117.765 56.9652L117.742 57.0114C117.744 57.0065 117.751 56.9904 117.76 56.9666C117.674 57.0128 117.449 57.0652 117.449 57.0652C117.503 56.671 117.11 57.3518 117.11 57.0345C117.11 57.0114 116.763 57.0037 116.701 57.2281C116.639 57.4671 116.469 57.6845 116.439 57.9306C116.43 57.9844 116.369 57.4741 116.346 57.4203C116.338 57.3972 116.346 57.1805 116.316 57.2658C116.253 57.4203 116.216 57.5594 116.216 57.7384C116.216 57.8313 116.23 58.1326 116.177 57.9159C116.131 57.7146 116.092 57.6223 116.092 57.939C116.092 57.9697 115.792 57.7384 115.653 57.7146C115.413 57.6755 115.653 57.7607 115.769 57.8069C115.808 57.8306 115.122 57.7384 115.491 57.9697L115.992 58.2787C115.992 58.3018 115.352 58.4339 115.629 58.4339C115.776 58.4339 116.015 58.5569 115.699 58.5569C115.599 58.5569 115.429 58.5807 115.336 58.6114C115.167 58.6743 115.375 58.7128 115.429 58.7429C115.537 58.8204 115.737 58.9596 115.467 58.9596C115.298 58.9596 115.174 59.0057 115.059 59.0434C114.904 59.1371 114.881 59.8096 114.881 60.0339C114.881 60.2583 115.128 60.4282 114.928 60.6763C114.889 60.7309 114.696 61.1713 114.788 61.102C115.073 60.8854 114.911 61.2412 115.02 61.1636C115.213 61.0098 115.235 61.5117 115.259 61.6361C115.305 61.8605 115.505 62.0527 115.505 62.2631C115.505 62.5253 115.713 62.6797 115.713 62.8657C115.713 63.2299 115.836 63.4997 115.836 63.8093C115.836 64.1966 115.898 64.5049 116.198 64.6055C116.244 64.7069 116.26 65.2011 116.26 65.271C116.26 65.8344 117.362 66.2902 117.007 66.8788C116.968 66.9333 116.637 66.9948 116.506 67.0801C116.468 67.1031 116.081 67.2541 115.806 67.5058C115.513 67.7917 113.913 69.1366 113.501 69.7252C113.208 70.1439 112.831 70.5528 112.734 70.7241C112.58 70.996 111.504 75.7927 111.504 76.319C111.605 76.4658 111.373 76.7867 111.373 76.9873C111.373 77.1893 111.504 77.3585 111.566 77.5752C111.79 78.3098 111.589 79.192 111.627 79.9022C111.627 80.3202 112.009 83.4315 111.94 83.6783C111.862 83.9726 112.211 84.4941 112.204 84.4941C112.042 85.198 113.27 87.3111 113.27 87.6292C113.27 87.8067 113.515 88.0688 113.6 88.231C113.67 88.3617 114.122 88.6127 114.108 88.6483C114.089 88.6945 113.97 89.0454 113.97 89.1992C113.97 91.1166 113.6 93.0578 113.6 95.0996C113.439 95.0996 113.378 97.4196 113.378 97.7677C113.378 97.9684 113.6 97.9998 113.6 98.1774V98.6492C113.754 99.3755 113.754 100.234 113.754 101.07C113.754 101.905 114.086 105.694 114.086 106.212C114.086 106.653 114.147 107.033 114.147 107.388C114.147 108.13 114.594 108.935 114.671 109.09C114.656 109.137 115.141 110.296 115.141 110.707C115.141 111.123 114.918 111.449 114.879 111.789C114.802 112.43 114.871 112.74 114.771 113.406C114.663 114.109 114.71 115.644 114.794 115.812C114.818 115.804 114.936 118.069 114.857 118.14C114.581 118.382 114.988 118.731 115.033 119.108C114.301 119.933 112.994 120.185 112.939 120.255C112.93 120.264 112.126 120.231 111.866 120.413C111.692 120.54 111.516 121.235 111.516 121.235C111.422 121.283 111.39 121.376 111.394 121.486C111.344 121.616 111.392 121.853 111.415 121.992ZM125.731 81.0647C126.016 80.6858 125.731 77.7003 126.001 77.608C126.001 77.608 126.12 77.7863 126.259 77.8869C126.321 77.9289 126.374 77.9799 126.423 78.0351C126.424 78.0372 126.425 78.0386 126.427 78.04C126.638 78.2854 126.767 78.6468 126.956 78.9725C126.972 78.9991 126.989 79.0256 127.005 79.0529C127.031 79.0927 127.057 79.1333 127.085 79.171C127.113 79.2088 127.144 79.2437 127.175 79.2794C127.198 79.3059 127.22 79.3339 127.245 79.3598C127.306 79.4178 127.371 79.4723 127.445 79.5191C127.66 79.6512 127.992 80.8263 127.969 81.0891C127.885 82.0174 127.36 83.2666 127.005 83.916C126.918 84.067 126.78 84.2515 126.61 84.42C126.608 84.4214 126.606 84.4235 126.606 84.4235C126.558 84.4703 126.325 84.8827 126.254 84.8827C126.207 84.8827 125.545 85.2895 125.506 85.2273C125.446 85.1106 125.515 81.3352 125.731 81.0647Z" fill="#3E3F41"/>
<path d="M78.8802 120.187C79.2083 119.77 79.1289 119.351 79.1289 119.351C79.1289 119.351 81.1751 106.85 81.2266 105.49C81.2782 104.134 82.0313 103.042 82.0313 102C82.0313 101.388 82.3483 98.3095 82.611 95.8594C82.3755 94.8787 82.1087 93.8553 81.9839 93.6274C81.7464 93.1885 82.0432 92.3923 81.7171 92.0574C81.0643 91.3717 80.3384 91.0522 80.9236 89.8765C81.205 89.311 81.8955 89.9436 82.0146 90.2484C82.0237 90.2749 82.0369 90.2903 82.0494 90.3043C82.055 90.3099 82.0613 90.3141 82.0683 90.3183C82.0787 90.3253 82.0898 90.3295 82.1017 90.3302C82.1087 90.3323 82.1163 90.3323 82.124 90.3309C82.1365 90.3302 82.1505 90.3274 82.1644 90.3232C82.1714 90.3204 82.179 90.3183 82.1874 90.3141C82.2013 90.3071 82.2159 90.2987 82.232 90.2889C82.2403 90.2833 82.2487 90.2777 82.2571 90.2708C82.2689 90.2624 82.2807 90.2533 82.2919 90.2435C82.3051 90.233 82.3184 90.2204 82.3309 90.2092C82.3337 90.2064 82.3351 90.205 82.3379 90.2022C82.3992 90.1435 82.4542 90.0771 82.489 90.0338C82.6019 89.9003 82.8276 90.24 82.9454 89.9946L82.9886 86.7638C82.9886 86.7638 81.5792 86.2465 80.9243 84.6786C80.2715 83.1107 79.9196 83.0604 79.1665 82.1747C78.4099 81.2862 78.3096 80.1377 78.3096 77.8967C78.3096 75.65 79.4682 72.6261 79.6173 71.5335C79.7664 70.4354 80.7682 68.0321 81.3221 67.3799C81.8746 66.725 85.9732 65.531 85.9732 65.531C85.9732 65.531 86.3146 64.6719 86.6762 64.5021C87.0412 64.335 87.1534 64.0987 87.6306 63.6563C88.1106 63.2131 88.9683 63.3347 88.9683 63.3347C88.9683 63.3347 88.9627 63.1572 88.9286 63.0194C88.9237 62.9957 88.9209 62.9768 88.9118 62.9586C88.8958 62.916 88.8735 62.8817 88.8415 62.8685C88.7175 62.8153 88.2388 61.7703 88.0382 61.2244C87.8375 60.6777 87.7114 59.4768 87.8111 58.1738C87.9114 56.8716 89.04 55.4043 91.6443 54.8954C94.2471 54.3893 95.7534 56.5269 95.7534 56.5269C95.7534 56.5269 95.5834 56.5486 95.8154 56.7339C96.0474 56.9247 96.1296 57.349 96.0864 57.256C96.0481 57.1791 95.8474 57.0149 95.7917 56.975C95.8237 56.9988 95.8843 57.068 95.9798 57.2693C96.1184 57.5559 95.7791 58.2451 95.8188 58.0494C95.8558 57.8558 95.6537 57.5825 95.6537 57.5825C95.6537 57.5825 95.6551 57.5902 95.6593 57.6118C95.6621 57.6174 95.6621 57.6279 95.6628 57.6356C95.6649 57.651 95.6677 57.6691 95.6698 57.6901C95.6781 57.7852 95.6851 57.9669 95.6537 58.3122C95.605 58.8847 95.692 58.6275 95.8056 59.0812C95.9192 59.5348 95.9672 59.7711 95.7798 60.0941C95.5896 60.4233 95.3925 60.6854 95.4914 60.8371C95.5896 60.9958 95.7548 61.0992 95.8195 61.4921C95.8829 61.8842 95.5046 61.7654 95.4412 61.922C95.3778 62.0758 95.4412 62.3784 95.428 62.5875C95.4175 62.7944 95.1263 62.8608 95.2643 62.9111C95.4036 62.9642 95.4036 63.081 95.3277 63.16C95.2524 63.2368 95.0643 63.8632 95.0894 64.4252C95.0922 64.5286 95.0769 64.6132 95.0511 64.6824C95.0462 64.6957 95.042 64.7118 95.0379 64.7195C95.01 64.7831 94.9758 64.8334 94.9334 64.8684C94.9313 64.8733 94.9285 64.876 94.9257 64.8788C94.9208 64.8844 94.9194 64.8844 94.9152 64.8865C94.8372 64.9473 94.7536 64.9795 94.6979 64.99H94.6972C94.6881 64.9928 94.6902 64.99 94.6811 64.9928C94.6547 64.9956 94.6379 64.9984 94.6379 64.9984C94.6379 64.9984 94.886 65.3353 95.0643 65.5688C95.2399 65.805 95.9066 66.7173 95.9066 66.7173C95.9066 66.7173 95.9366 66.6481 96.5406 66.9375C97.144 67.2241 98.6544 68.1363 99.1065 68.4494C99.558 68.7598 100.641 71.5265 100.842 72.6485C101.043 73.7704 101.394 74.6036 101.923 75.569C102.452 76.5343 102.426 76.8978 102.402 77.341C102.375 77.7869 102.477 78.5398 102.477 79.4282C102.477 80.3167 102.024 81.073 102.024 81.073C102.024 81.073 102.15 81.6197 102.249 82.2719C102.351 82.924 102.074 83.9425 101.772 84.3326C101.47 84.7226 101.772 84.6723 101.847 85.2182C101.923 85.7677 102.074 85.9214 101.695 86.1277C101.319 86.3402 101.069 86.9399 100.741 87.3293C100.413 87.7193 99.9864 87.7452 99.6597 87.8514C99.333 87.9577 99.0814 88.2443 98.7791 88.9202C98.4753 89.5969 99.0062 92.8592 98.8028 93.0661C98.6028 93.2758 98.1855 93.1801 98.1855 93.1801C98.1855 93.1801 98.2844 96.1027 98.1339 97.3553C97.9835 98.6073 96.6152 117.973 96.6152 117.973C96.6152 117.973 97.2443 118.861 97.8232 119.511C98.4008 120.164 98.577 121.156 98.4509 121.573C98.0873 122.779 95.7227 122.541 94.9027 122.095C94.4275 121.833 94.275 121.156 93.9991 120.631C93.7239 120.111 93.0934 119.955 92.6405 119.565C92.1884 119.172 92.2985 118.172 92.2985 118.172L91.3928 116.867C91.3928 116.867 91.206 106.517 91.206 103.384C91.206 100.257 90.501 95.5623 90.501 95.5623C89.58 96.2068 88.3204 102.833 87.3157 108.312C86.309 113.787 83.9862 119.435 83.9862 119.435L83.1558 119.695C83.1558 119.695 83.1307 120.45 83.107 120.817C83.0833 121.179 82.5044 121.413 82.4277 121.597C82.3525 121.78 82.3525 122.615 82.2264 123.058C82.0996 123.501 81.6976 123.684 80.8706 123.891C80.0409 124.103 78.4782 123.996 78.3012 123.657C78.1264 123.32 78.0261 122.642 78.001 122.066C77.9731 121.492 78.5527 120.605 78.8802 120.187Z" fill="#3E3F41"/>
</svg>
