<?xml version="1.0" encoding="utf-8"?>
<!-- Generator: Adobe Illustrator 24.0.3, SVG Export Plug-In . SVG Version: 6.00 Build 0)  -->
<svg version="1.1" xmlns="http://www.w3.org/2000/svg" xmlns:xlink="http://www.w3.org/1999/xlink" x="0px" y="0px"
	 viewBox="0 0 800 250" style="enable-background:new 0 0 800 250;" xml:space="preserve">
<style type="text/css">
	.st0{fill:#002855;}
	.st1{fill:#003087;}
	.st2{fill:#0072CE;}
	.st3{fill:#6CACE4;}
</style>
<g id="Laag_1">
	<path class="st0" d="M65.31,139.33c0.27,3.87-2.65,7.22-6.51,7.49c-3.87,0.27-7.22-2.65-7.49-6.51c-0.27-3.87,2.65-7.22,6.51-7.49
		C61.68,132.54,65.04,135.46,65.31,139.33L65.31,139.33z M125.21,198.1c1.32-1.52,1.15-3.84-0.39-5.17L76.73,151.1l0.08-20
		l35.06-40.34c1.32-1.52,1.15-3.84-0.39-5.17c-1.54-1.34-3.86-1.18-5.18,0.34l-35.92,41.44c-0.62,0.71-0.93,1.63-0.88,2.57
		l-0.03,23.04c0.05,1,0.51,1.94,1.27,2.6l49.28,42.86C121.57,199.77,123.89,199.62,125.21,198.1"/>
	<path class="st1" d="M140.8,186.48c3.87-0.3,7.25,2.58,7.55,6.45c0.3,3.87-2.58,7.25-6.45,7.55c-3.87,0.3-7.25-2.58-7.55-6.45
		C134.05,190.17,136.93,186.79,140.8,186.48L140.8,186.48z M198.5,126.62c-1.53-1.31-3.85-1.12-5.17,0.43l-41.48,48.02l-20.22-0.02
		l-40.08-34.98c-1.53-1.31-3.85-1.12-5.17,0.43c-1.32,1.55-1.15,3.87,0.38,5.18l41.08,35.84c0.71,0.61,1.64,0.92,2.58,0.86
		l23.36-0.08c1-0.06,1.94-0.53,2.59-1.29l42.5-49.22C200.21,130.24,200.04,127.92,198.5,126.62"/>
	<path class="st2" d="M187.11,112.37c-0.27-3.87,2.65-7.22,6.51-7.5c3.87-0.27,7.22,2.65,7.49,6.51c0.27,3.87-2.65,7.22-6.51,7.49
		C190.74,119.16,187.38,116.24,187.11,112.37L187.11,112.37z M127.21,53.6c-1.32,1.52-1.15,3.84,0.39,5.17l48.04,42.26v19.31
		l-35.37,40.6c-1.32,1.52-1.15,3.84,0.39,5.17c1.54,1.34,3.86,1.18,5.18-0.34l36.19-41.62c0.62-0.71,0.93-1.63,0.88-2.57
		l-0.02-22.43c-0.05-1-0.51-1.94-1.27-2.6l-49.23-43.29C130.85,51.92,128.53,52.08,127.21,53.6"/>
	<path class="st3" d="M112.67,65.15c-3.87,0.27-7.22-2.65-7.49-6.51c-0.27-3.87,2.65-7.22,6.51-7.49c3.87-0.27,7.22,2.65,7.49,6.51
		C119.46,61.53,116.54,64.88,112.67,65.15L112.67,65.15z M54.17,124.78c1.52,1.32,3.84,1.15,5.17-0.39l41.63-47.93l19.97,0.01
		l40.3,35.51c1.52,1.32,3.84,1.15,5.18-0.39c1.34-1.54,1.18-3.86-0.34-5.18l-41.26-36.32c-0.71-0.62-1.63-0.93-2.57-0.88L99.1,69.22
		c-1,0.05-1.94,0.51-2.61,1.27L53.83,119.6C52.5,121.14,52.65,123.46,54.17,124.78"/>
	<path class="st0" d="M396.87,151.29h13.33V96.61h18.38V84.63h-49.99v11.98h18.29V151.29L396.87,151.29z M451,151.74
		c3.42,0,6.42-0.18,9.01-0.54c2.58-0.36,5.46-0.87,8.65-1.53v-7.84h-14.14c-3.24,0-5.71-0.32-7.39-0.95
		c-1.68-0.63-2.85-1.65-3.51-3.06c-0.66-1.41-1.05-3.41-1.17-5.99h12.16c5.1,0,8.99-0.99,11.67-2.97c2.67-1.98,4.01-5.31,4.01-10
		c0-4.38-0.65-7.78-1.94-10.18c-1.29-2.4-3.35-4.08-6.17-5.04c-2.82-0.96-6.7-1.44-11.62-1.44c-5.53,0-9.8,0.72-12.84,2.16
		c-3.03,1.44-5.21,3.95-6.53,7.52c-1.32,3.57-1.98,8.66-1.98,15.27c0,6.43,0.71,11.41,2.12,14.95c1.41,3.54,3.68,6.03,6.8,7.48
		C441.24,151.02,445.54,151.74,451,151.74 M442.26,123.91c0-3.18,0.27-5.65,0.81-7.39c0.54-1.74,1.4-2.96,2.57-3.65
		c1.17-0.69,2.81-1.04,4.91-1.04c2.88,0,4.92,0.53,6.12,1.58c1.2,1.05,1.8,2.9,1.8,5.54c0,1.8-0.41,3.08-1.22,3.83
		c-0.81,0.75-2.15,1.13-4.01,1.13H442.26L442.26,123.91z M497.84,151.83c3.06,0,6.24-0.24,9.55-0.72c3.3-0.48,6.09-1.08,8.38-1.8
		v-7.57h-13.24c-3,0-5.31-0.37-6.94-1.12c-1.62-0.75-2.81-2.16-3.56-4.23c-0.75-2.07-1.13-5.12-1.13-9.14
		c0-4.08,0.37-7.21,1.13-9.37c0.75-2.16,1.94-3.66,3.56-4.5c1.62-0.84,3.87-1.26,6.76-1.26h12.7v-7.66
		c-5.4-1.5-11.02-2.25-16.84-2.25c-4.62,0-8.44,0.75-11.44,2.25c-3,1.5-5.29,4.08-6.85,7.75c-1.56,3.66-2.34,8.71-2.34,15.13
		c0,9.01,1.77,15.34,5.31,19.01C486.43,150,491.41,151.83,497.84,151.83 M523.15,151.29h13.33v-33.6c3.36-2.4,6.7-3.6,10-3.6
		c2.1,0,3.78,0.6,5.04,1.8c1.26,1.2,1.89,2.91,1.89,5.14v30.27h13.33v-31.98c0-11.47-4.95-17.2-14.86-17.2
		c-2.76,0-5.57,0.57-8.42,1.71c-2.85,1.14-5.18,2.49-6.98,4.05V82.65h-13.33V151.29L523.15,151.29z M576.74,151.29h13.33v-33.6
		c3.36-2.4,6.7-3.6,10-3.6c2.16,0,3.86,0.6,5.09,1.8c1.23,1.2,1.85,2.94,1.85,5.23v30.18h13.33V119.4c0-5.28-1.14-9.49-3.42-12.61
		c-2.28-3.12-6.16-4.68-11.62-4.68c-2.64,0-5.34,0.55-8.11,1.67c-2.76,1.11-5.14,2.48-7.12,4.1l-2.34-4.96h-10.99V151.29
		L576.74,151.29z M630.34,151.29h13.33v-48.37h-13.33V151.29L630.34,151.29z M674.29,151.74c3.42,0,6.43-0.18,9.01-0.54
		c2.58-0.36,5.46-0.87,8.65-1.53v-7.84H677.8c-3.24,0-5.7-0.32-7.39-0.95c-1.68-0.63-2.85-1.65-3.51-3.06
		c-0.66-1.41-1.05-3.41-1.17-5.99h12.16c5.1,0,8.99-0.99,11.66-2.97c2.67-1.98,4.01-5.31,4.01-10c0-4.38-0.64-7.78-1.94-10.18
		c-1.29-2.4-3.35-4.08-6.17-5.04c-2.82-0.96-6.7-1.44-11.62-1.44c-5.53,0-9.8,0.72-12.84,2.16c-3.03,1.44-5.21,3.95-6.53,7.52
		c-1.32,3.57-1.98,8.66-1.98,15.27c0,6.43,0.71,11.41,2.12,14.95c1.41,3.54,3.68,6.03,6.8,7.48
		C664.53,151.02,668.83,151.74,674.29,151.74 M665.55,123.91c0-3.18,0.27-5.65,0.81-7.39c0.54-1.74,1.4-2.96,2.57-3.65
		c1.17-0.69,2.81-1.04,4.91-1.04c2.88,0,4.92,0.53,6.13,1.58c1.2,1.05,1.8,2.9,1.8,5.54c0,1.8-0.4,3.08-1.22,3.83
		c-0.81,0.75-2.15,1.13-4.01,1.13H665.55L665.55,123.91z M702.3,151.29h13.33v-19.64h5.49l12.25,19.64h13.51l-15.67-25.58
		l14.23-22.79h-13.51l-10.63,16.76h-5.67V82.56H702.3V151.29L702.3,151.29z M636.86,96.91c-3.54,0.02-6.39-2.83-6.37-6.37
		c0.02-3.54,2.9-6.42,6.43-6.43c3.53-0.02,6.39,2.84,6.37,6.37C643.28,94.01,640.4,96.89,636.86,96.91"/>
	<path class="st3" d="M317.73,91.75c0.5-1.16,0.85-2.1,1.05-2.82c0.2-0.71,0.15-1.26-0.15-1.62c-0.3-0.37-0.86-0.61-1.67-0.72
		c-0.82-0.12-1.94-0.17-3.37-0.17c-1.46,0-2.66,0.03-3.59,0.1c-0.93,0.07-1.67,0.18-2.22,0.35c-0.55,0.17-0.97,0.41-1.25,0.72
		c-0.28,0.32-0.51,0.71-0.67,1.17l-21.21,49.81h-0.1l-2.49-49.11c-0.03-0.67-0.12-1.2-0.25-1.6c-0.13-0.4-0.43-0.71-0.9-0.92
		c-0.47-0.22-1.15-0.36-2.05-0.42c-0.9-0.07-2.11-0.1-3.64-0.1c-1.53,0-2.75,0.03-3.67,0.1c-0.91,0.07-1.66,0.21-2.22,0.42
		c-0.57,0.22-1.01,0.52-1.32,0.9c-0.32,0.38-0.61,0.89-0.87,1.52l-21.81,49.21h-0.1l-1.3-49.26c0-0.6-0.06-1.08-0.17-1.45
		c-0.12-0.37-0.4-0.66-0.85-0.87c-0.45-0.22-1.14-0.37-2.07-0.45c-0.93-0.08-2.08-0.13-3.44-0.13c-1.66,0-2.95,0.04-3.87,0.13
		c-0.92,0.08-1.61,0.28-2.07,0.6c-0.47,0.32-0.74,0.79-0.82,1.42c-0.08,0.63-0.11,1.48-0.07,2.54l3.49,56.8
		c0.03,0.87,0.16,1.55,0.38,2.05c0.22,0.5,0.65,0.87,1.3,1.1c0.65,0.23,1.57,0.38,2.77,0.45c1.2,0.07,2.79,0.1,4.79,0.1
		c1.73,0,3.14-0.03,4.24-0.1c1.1-0.07,1.96-0.22,2.6-0.45c0.63-0.23,1.14-0.59,1.52-1.07c0.38-0.48,0.74-1.12,1.07-1.92l17.92-41.03
		h0.1l2.35,41.37c0.03,0.7,0.17,1.26,0.4,1.7c0.23,0.43,0.66,0.76,1.27,0.97c0.62,0.22,1.48,0.36,2.6,0.42
		c1.11,0.07,2.57,0.1,4.37,0.1c1.7,0,3.1-0.03,4.22-0.1c1.11-0.07,2.04-0.22,2.77-0.45c0.73-0.23,1.31-0.59,1.75-1.07
		c0.43-0.48,0.82-1.12,1.15-1.92L317.73,91.75L317.73,91.75z M335.62,105.17c0.07-0.33,0.03-0.62-0.1-0.87
		c-0.13-0.25-0.42-0.46-0.87-0.65c-0.45-0.18-1.07-0.32-1.85-0.43c-0.78-0.1-1.79-0.15-3.02-0.15c-1.23,0-2.26,0.05-3.07,0.15
		c-0.82,0.1-1.48,0.24-2,0.43c-0.52,0.18-0.9,0.4-1.15,0.65c-0.25,0.25-0.41,0.54-0.47,0.87l-8.83,44.42
		c-0.07,0.33-0.03,0.62,0.1,0.87c0.13,0.25,0.42,0.46,0.87,0.62c0.45,0.17,1.07,0.29,1.85,0.37c0.78,0.08,1.79,0.12,3.02,0.12
		c1.2,0,2.21-0.04,3.04-0.12c0.83-0.08,1.51-0.21,2.02-0.37c0.52-0.17,0.9-0.37,1.15-0.62c0.25-0.25,0.41-0.54,0.48-0.87
		L335.62,105.17L335.62,105.17z M360.7,105.17c0.07-0.33,0.03-0.62-0.1-0.87c-0.13-0.25-0.42-0.46-0.87-0.65
		c-0.45-0.18-1.07-0.32-1.87-0.43c-0.8-0.1-1.8-0.15-2.99-0.15c-1.2,0-2.21,0.05-3.04,0.15c-0.83,0.1-1.51,0.24-2.02,0.43
		c-0.52,0.18-0.9,0.4-1.15,0.65c-0.25,0.25-0.41,0.54-0.47,0.87l-9.28,46.31c-0.27,1.46-0.6,2.68-1,3.64
		c-0.4,0.96-0.86,1.74-1.37,2.32s-1.11,1.01-1.8,1.27c-0.68,0.27-1.42,0.4-2.22,0.4c-0.4,0-0.73-0.02-1-0.05
		c-0.27-0.03-0.49-0.06-0.67-0.08c-0.18-0.02-0.36-0.04-0.52-0.07c-0.17-0.03-0.35-0.05-0.55-0.05c-0.3,0-0.57,0.16-0.82,0.47
		c-0.25,0.32-0.48,0.72-0.67,1.22c-0.2,0.5-0.38,1.05-0.55,1.67c-0.17,0.61-0.3,1.21-0.4,1.8s-0.17,1.12-0.22,1.6
		c-0.05,0.48-0.07,0.84-0.07,1.07c0,0.47,0.03,0.82,0.1,1.05c0.07,0.23,0.18,0.45,0.35,0.65c0.27,0.23,0.96,0.47,2.07,0.72
		c1.12,0.25,2.49,0.37,4.12,0.37c2.63,0,4.92-0.38,6.89-1.15c1.96-0.77,3.65-1.9,5.07-3.39c1.41-1.5,2.58-3.34,3.49-5.51
		c0.91-2.18,1.65-4.68,2.22-7.51L360.7,105.17L360.7,105.17z M331.9,97.19c-3.54,0.02-6.39-2.84-6.37-6.37
		c0.02-3.54,2.9-6.42,6.43-6.43c3.54-0.02,6.39,2.84,6.37,6.37C338.31,94.3,335.43,97.18,331.9,97.19 M356.69,97.19
		c-3.54,0.02-6.39-2.84-6.37-6.37c0.02-3.54,2.9-6.42,6.43-6.43c3.54-0.02,6.39,2.84,6.37,6.37
		C363.1,94.3,360.22,97.18,356.69,97.19"/>
</g>
<g id="Laag_2">
	<g>
		<path class="st0" d="M241.28,196.14c0,0.76-0.14,1.45-0.42,2.04s-0.68,1.1-1.2,1.51c-0.52,0.41-1.14,0.72-1.86,0.93
			c-0.72,0.21-1.51,0.32-2.38,0.32c-0.53,0-1.04-0.04-1.52-0.12c-0.48-0.08-0.91-0.19-1.3-0.32s-0.71-0.26-0.97-0.4
			c-0.27-0.14-0.46-0.26-0.58-0.37c-0.12-0.11-0.21-0.27-0.27-0.47c-0.06-0.2-0.08-0.47-0.08-0.81c0-0.21,0.01-0.39,0.03-0.53
			c0.02-0.14,0.05-0.26,0.08-0.35c0.03-0.09,0.08-0.15,0.14-0.19c0.06-0.04,0.13-0.06,0.21-0.06c0.12,0,0.3,0.08,0.54,0.22
			c0.24,0.15,0.53,0.31,0.88,0.49c0.35,0.18,0.76,0.34,1.24,0.49c0.48,0.15,1.02,0.22,1.65,0.22c0.47,0,0.89-0.05,1.26-0.15
			c0.38-0.1,0.7-0.25,0.98-0.44c0.28-0.19,0.49-0.44,0.64-0.74c0.15-0.3,0.22-0.65,0.22-1.06c0-0.42-0.11-0.78-0.32-1.06
			c-0.22-0.29-0.5-0.54-0.86-0.76c-0.35-0.22-0.75-0.42-1.2-0.59c-0.44-0.17-0.9-0.35-1.37-0.54c-0.47-0.19-0.93-0.4-1.38-0.64
			c-0.45-0.24-0.85-0.53-1.21-0.87c-0.35-0.34-0.64-0.75-0.86-1.23c-0.22-0.48-0.32-1.05-0.32-1.71c0-0.59,0.11-1.15,0.34-1.69
			c0.23-0.54,0.57-1.01,1.02-1.41c0.45-0.4,1.02-0.73,1.7-0.97c0.68-0.24,1.48-0.37,2.38-0.37c0.4,0,0.8,0.03,1.2,0.1
			c0.4,0.07,0.76,0.15,1.08,0.25c0.32,0.1,0.6,0.21,0.82,0.32c0.23,0.12,0.4,0.22,0.52,0.31c0.12,0.09,0.19,0.17,0.23,0.23
			c0.04,0.07,0.07,0.14,0.08,0.22c0.02,0.08,0.03,0.19,0.05,0.31c0.02,0.12,0.03,0.27,0.03,0.45c0,0.19-0.01,0.35-0.03,0.49
			c-0.02,0.14-0.04,0.25-0.08,0.34c-0.04,0.09-0.09,0.15-0.14,0.19c-0.06,0.04-0.12,0.06-0.18,0.06c-0.1,0-0.24-0.06-0.43-0.18
			c-0.19-0.12-0.43-0.25-0.73-0.39c-0.3-0.14-0.65-0.27-1.06-0.39c-0.4-0.12-0.87-0.18-1.39-0.18c-0.47,0-0.88,0.05-1.23,0.16
			c-0.35,0.11-0.65,0.25-0.87,0.45c-0.23,0.19-0.4,0.42-0.52,0.69c-0.12,0.27-0.17,0.55-0.17,0.86c0,0.43,0.11,0.8,0.33,1.09
			c0.22,0.29,0.51,0.55,0.86,0.77c0.35,0.22,0.76,0.42,1.21,0.6c0.45,0.18,0.92,0.36,1.39,0.55c0.47,0.19,0.94,0.4,1.4,0.63
			c0.46,0.23,0.87,0.52,1.22,0.85c0.35,0.33,0.64,0.73,0.86,1.2C241.17,194.94,241.28,195.5,241.28,196.14z"/>
		<path class="st0" d="M256.47,200.23c0,0.13-0.04,0.23-0.13,0.3c-0.09,0.07-0.21,0.12-0.37,0.15c-0.16,0.03-0.38,0.05-0.68,0.05
			c-0.29,0-0.52-0.02-0.69-0.05c-0.17-0.03-0.3-0.08-0.37-0.15c-0.08-0.07-0.12-0.17-0.12-0.3v-1.5c-0.65,0.7-1.38,1.24-2.19,1.63
			c-0.8,0.39-1.65,0.58-2.55,0.58c-0.79,0-1.5-0.1-2.14-0.31c-0.64-0.2-1.18-0.5-1.63-0.89c-0.45-0.39-0.8-0.86-1.05-1.43
			c-0.25-0.56-0.37-1.21-0.37-1.93c0-0.84,0.17-1.57,0.52-2.19c0.34-0.62,0.84-1.14,1.48-1.55c0.64-0.41,1.43-0.72,2.36-0.92
			c0.93-0.2,1.98-0.31,3.14-0.31h2.06v-1.16c0-0.58-0.06-1.09-0.18-1.53c-0.12-0.44-0.32-0.81-0.59-1.11
			c-0.27-0.29-0.62-0.51-1.06-0.66c-0.43-0.15-0.96-0.22-1.6-0.22c-0.68,0-1.28,0.08-1.82,0.24c-0.54,0.16-1.01,0.34-1.41,0.53
			c-0.4,0.19-0.74,0.37-1.01,0.53c-0.27,0.16-0.47,0.24-0.61,0.24c-0.09,0-0.17-0.02-0.23-0.07c-0.07-0.04-0.12-0.11-0.17-0.2
			c-0.05-0.09-0.09-0.2-0.11-0.34c-0.02-0.14-0.03-0.29-0.03-0.46c0-0.28,0.02-0.5,0.06-0.66c0.04-0.16,0.13-0.31,0.28-0.46
			s0.41-0.31,0.77-0.51c0.37-0.19,0.79-0.37,1.26-0.53c0.48-0.16,1-0.29,1.56-0.4c0.57-0.11,1.14-0.16,1.71-0.16
			c1.07,0,1.99,0.12,2.74,0.37c0.75,0.24,1.36,0.6,1.83,1.07c0.47,0.47,0.8,1.05,1.01,1.75c0.21,0.7,0.32,1.51,0.32,2.44V200.23z
			 M253.75,193.4h-2.34c-0.75,0-1.41,0.06-1.96,0.19c-0.55,0.13-1.01,0.32-1.38,0.56c-0.37,0.25-0.63,0.55-0.81,0.9
			c-0.17,0.35-0.26,0.75-0.26,1.2c0,0.78,0.25,1.39,0.74,1.85c0.49,0.46,1.18,0.69,2.07,0.69c0.72,0,1.39-0.18,2-0.55
			c0.62-0.37,1.26-0.92,1.94-1.68V193.4z"/>
		<path class="st0" d="M283.7,200.21c0,0.09-0.02,0.16-0.07,0.22c-0.04,0.06-0.12,0.11-0.22,0.16c-0.1,0.04-0.24,0.08-0.42,0.1
			c-0.18,0.02-0.4,0.03-0.67,0.03c-0.28,0-0.5-0.01-0.68-0.03c-0.18-0.02-0.32-0.06-0.42-0.1c-0.11-0.04-0.18-0.1-0.22-0.16
			c-0.04-0.06-0.07-0.14-0.07-0.22v-9.09c0-0.63-0.06-1.21-0.17-1.73c-0.11-0.52-0.29-0.97-0.53-1.35
			c-0.24-0.38-0.55-0.67-0.93-0.86c-0.38-0.2-0.82-0.3-1.33-0.3c-0.63,0-1.27,0.24-1.9,0.73c-0.64,0.49-1.34,1.2-2.1,2.14v10.45
			c0,0.09-0.02,0.16-0.07,0.22c-0.04,0.06-0.12,0.11-0.22,0.16c-0.11,0.04-0.25,0.08-0.42,0.1c-0.18,0.02-0.4,0.03-0.66,0.03
			c-0.25,0-0.47-0.01-0.66-0.03c-0.18-0.02-0.33-0.06-0.43-0.1c-0.11-0.04-0.18-0.1-0.22-0.16c-0.04-0.06-0.06-0.14-0.06-0.22v-9.09
			c0-0.63-0.06-1.21-0.18-1.73s-0.3-0.97-0.55-1.35c-0.24-0.38-0.55-0.67-0.92-0.86c-0.37-0.2-0.81-0.3-1.32-0.3
			c-0.63,0-1.27,0.24-1.91,0.73c-0.64,0.49-1.34,1.2-2.09,2.14v10.45c0,0.09-0.02,0.16-0.07,0.22c-0.04,0.06-0.12,0.11-0.22,0.16
			c-0.1,0.04-0.24,0.08-0.42,0.1c-0.18,0.02-0.4,0.03-0.68,0.03c-0.27,0-0.49-0.01-0.67-0.03c-0.18-0.02-0.32-0.06-0.42-0.1
			c-0.11-0.04-0.18-0.1-0.22-0.16c-0.04-0.06-0.06-0.14-0.06-0.22v-14.96c0-0.09,0.02-0.16,0.05-0.22c0.03-0.06,0.1-0.12,0.2-0.17
			c0.1-0.05,0.23-0.08,0.38-0.1c0.16-0.02,0.36-0.02,0.61-0.02c0.24,0,0.45,0.01,0.61,0.02c0.16,0.02,0.29,0.05,0.37,0.1
			c0.09,0.05,0.15,0.11,0.19,0.17c0.04,0.06,0.06,0.14,0.06,0.22v1.98c0.84-0.94,1.66-1.63,2.45-2.07c0.79-0.44,1.59-0.66,2.4-0.66
			c0.62,0,1.18,0.07,1.67,0.22c0.49,0.14,0.93,0.35,1.3,0.61c0.38,0.26,0.7,0.57,0.96,0.93c0.27,0.36,0.49,0.76,0.67,1.2
			c0.5-0.54,0.97-1,1.42-1.38c0.45-0.38,0.88-0.68,1.3-0.91c0.42-0.23,0.82-0.4,1.21-0.51c0.39-0.11,0.79-0.16,1.19-0.16
			c0.96,0,1.77,0.17,2.43,0.51c0.65,0.34,1.18,0.79,1.59,1.36c0.4,0.56,0.69,1.23,0.86,1.99c0.17,0.76,0.26,1.56,0.26,2.4V200.21z"
			/>
		<path class="st0" d="M301.47,192.08c0,0.43-0.11,0.74-0.33,0.92c-0.22,0.18-0.46,0.27-0.74,0.27h-9.85c0,0.83,0.08,1.58,0.25,2.24
			c0.17,0.66,0.44,1.24,0.84,1.71c0.39,0.48,0.9,0.84,1.52,1.1c0.62,0.25,1.39,0.38,2.29,0.38c0.71,0,1.35-0.06,1.9-0.17
			c0.56-0.12,1.04-0.25,1.44-0.39c0.41-0.14,0.74-0.27,1-0.39c0.26-0.12,0.46-0.17,0.59-0.17c0.08,0,0.15,0.02,0.21,0.06
			c0.06,0.04,0.11,0.1,0.14,0.17c0.03,0.08,0.06,0.19,0.08,0.32c0.02,0.14,0.03,0.31,0.03,0.51c0,0.14-0.01,0.27-0.02,0.37
			c-0.01,0.11-0.03,0.2-0.04,0.28c-0.02,0.08-0.04,0.16-0.08,0.22c-0.04,0.07-0.09,0.13-0.15,0.19c-0.06,0.06-0.24,0.16-0.54,0.3
			c-0.3,0.14-0.69,0.27-1.16,0.41c-0.48,0.13-1.03,0.25-1.65,0.36c-0.63,0.1-1.29,0.16-2,0.16c-1.23,0-2.31-0.17-3.23-0.52
			c-0.93-0.34-1.7-0.85-2.34-1.53c-0.63-0.68-1.11-1.52-1.43-2.54c-0.32-1.02-0.48-2.2-0.48-3.56c0-1.29,0.17-2.44,0.5-3.47
			c0.33-1.03,0.81-1.9,1.44-2.61c0.63-0.72,1.38-1.26,2.27-1.65c0.89-0.38,1.88-0.57,2.97-0.57c1.17,0,2.17,0.19,3,0.56
			c0.83,0.38,1.5,0.88,2.04,1.52c0.53,0.64,0.92,1.39,1.17,2.24c0.25,0.86,0.37,1.78,0.37,2.75V192.08z M298.71,191.27
			c0.03-1.44-0.29-2.57-0.96-3.39c-0.67-0.82-1.68-1.23-3-1.23c-0.68,0-1.28,0.13-1.79,0.38c-0.51,0.25-0.94,0.59-1.29,1.01
			c-0.35,0.42-0.61,0.91-0.8,1.47c-0.19,0.56-0.3,1.14-0.32,1.75H298.71z"/>
		<path class="st0" d="M318.52,200.21c0,0.09-0.02,0.16-0.07,0.22c-0.04,0.06-0.12,0.11-0.22,0.16c-0.1,0.04-0.24,0.08-0.42,0.1
			c-0.18,0.02-0.4,0.03-0.67,0.03c-0.28,0-0.5-0.01-0.68-0.03c-0.18-0.02-0.32-0.06-0.42-0.1c-0.1-0.04-0.17-0.1-0.22-0.16
			c-0.04-0.06-0.07-0.14-0.07-0.22v-8.76c0-0.85-0.07-1.54-0.2-2.06s-0.33-0.97-0.58-1.35c-0.26-0.38-0.58-0.67-0.99-0.86
			c-0.4-0.2-0.87-0.3-1.4-0.3c-0.69,0-1.37,0.24-2.06,0.73c-0.69,0.49-1.41,1.2-2.16,2.14v10.45c0,0.09-0.02,0.16-0.07,0.22
			c-0.04,0.06-0.12,0.11-0.22,0.16c-0.1,0.04-0.24,0.08-0.42,0.1c-0.18,0.02-0.4,0.03-0.68,0.03c-0.27,0-0.49-0.01-0.67-0.03
			c-0.18-0.02-0.32-0.06-0.42-0.1c-0.11-0.04-0.18-0.1-0.22-0.16c-0.04-0.06-0.06-0.14-0.06-0.22v-14.96c0-0.09,0.02-0.16,0.05-0.22
			c0.03-0.06,0.1-0.12,0.2-0.17c0.1-0.05,0.23-0.08,0.38-0.1c0.16-0.02,0.36-0.02,0.61-0.02c0.24,0,0.45,0.01,0.61,0.02
			c0.16,0.02,0.29,0.05,0.37,0.1c0.09,0.05,0.15,0.11,0.19,0.17c0.04,0.06,0.06,0.14,0.06,0.22v1.98c0.84-0.94,1.68-1.63,2.52-2.07
			c0.84-0.44,1.68-0.66,2.53-0.66c1,0,1.84,0.17,2.52,0.51c0.68,0.34,1.23,0.79,1.65,1.36c0.42,0.56,0.72,1.23,0.91,1.99
			c0.18,0.76,0.27,1.67,0.27,2.73V200.21z"/>
		<path class="st0" d="M352.14,185.22c0,0.08-0.01,0.17-0.03,0.28c-0.02,0.11-0.06,0.25-0.12,0.42l-4.4,14.21
			c-0.03,0.12-0.09,0.22-0.16,0.3c-0.07,0.08-0.17,0.14-0.3,0.18c-0.13,0.04-0.3,0.08-0.52,0.09c-0.22,0.02-0.5,0.02-0.83,0.02
			c-0.34,0-0.63-0.01-0.86-0.03c-0.23-0.02-0.42-0.06-0.56-0.1c-0.14-0.04-0.24-0.1-0.31-0.18c-0.07-0.08-0.12-0.17-0.15-0.28
			l-3.14-10.85l-0.03-0.15l-0.03,0.15l-2.91,10.85c-0.03,0.12-0.09,0.22-0.16,0.3c-0.07,0.08-0.18,0.14-0.32,0.18
			s-0.33,0.08-0.56,0.09c-0.23,0.02-0.51,0.02-0.84,0.02c-0.34,0-0.62-0.01-0.84-0.03c-0.22-0.02-0.39-0.06-0.53-0.1
			c-0.14-0.04-0.24-0.1-0.31-0.18c-0.07-0.08-0.12-0.17-0.15-0.28l-4.37-14.21c-0.06-0.17-0.09-0.31-0.12-0.42
			c-0.02-0.11-0.03-0.21-0.03-0.28c0-0.1,0.02-0.18,0.07-0.24c0.04-0.06,0.12-0.11,0.22-0.15c0.11-0.04,0.25-0.06,0.42-0.07
			c0.18-0.01,0.39-0.02,0.65-0.02c0.31,0,0.56,0.01,0.75,0.02c0.19,0.02,0.33,0.04,0.43,0.08c0.1,0.04,0.17,0.09,0.22,0.17
			c0.04,0.07,0.08,0.16,0.12,0.26l3.61,12.33l0.03,0.15l0.03-0.15l3.31-12.33c0.02-0.1,0.06-0.19,0.11-0.26
			c0.05-0.07,0.12-0.13,0.22-0.17c0.1-0.04,0.24-0.07,0.41-0.08c0.17-0.02,0.4-0.02,0.67-0.02c0.27,0,0.48,0.01,0.66,0.02
			c0.17,0.02,0.31,0.04,0.41,0.08c0.1,0.04,0.17,0.09,0.22,0.16c0.04,0.07,0.08,0.14,0.1,0.23l3.57,12.37l0.03,0.15l0.02-0.15
			l3.56-12.33c0.02-0.1,0.06-0.19,0.11-0.26c0.05-0.07,0.13-0.13,0.23-0.17c0.11-0.04,0.25-0.07,0.43-0.08
			c0.18-0.02,0.42-0.02,0.71-0.02c0.27,0,0.48,0,0.64,0.02c0.16,0.01,0.29,0.04,0.38,0.08c0.09,0.04,0.16,0.09,0.2,0.15
			C352.12,185.04,352.14,185.12,352.14,185.22z"/>
		<path class="st0" d="M368.04,192.08c0,0.43-0.11,0.74-0.33,0.92c-0.22,0.18-0.46,0.27-0.74,0.27h-9.85c0,0.83,0.08,1.58,0.25,2.24
			c0.17,0.66,0.44,1.24,0.84,1.71c0.39,0.48,0.9,0.84,1.52,1.1c0.62,0.25,1.39,0.38,2.29,0.38c0.71,0,1.35-0.06,1.9-0.17
			c0.56-0.12,1.04-0.25,1.44-0.39c0.41-0.14,0.74-0.27,1-0.39c0.26-0.12,0.46-0.17,0.59-0.17c0.08,0,0.15,0.02,0.21,0.06
			c0.06,0.04,0.11,0.1,0.14,0.17c0.03,0.08,0.06,0.19,0.08,0.32c0.02,0.14,0.03,0.31,0.03,0.51c0,0.14-0.01,0.27-0.02,0.37
			c-0.01,0.11-0.03,0.2-0.04,0.28c-0.02,0.08-0.04,0.16-0.08,0.22c-0.04,0.07-0.09,0.13-0.15,0.19c-0.06,0.06-0.24,0.16-0.54,0.3
			c-0.3,0.14-0.69,0.27-1.16,0.41c-0.48,0.13-1.03,0.25-1.65,0.36c-0.63,0.1-1.29,0.16-2,0.16c-1.23,0-2.31-0.17-3.23-0.52
			c-0.93-0.34-1.7-0.85-2.34-1.53s-1.11-1.52-1.43-2.54c-0.32-1.02-0.48-2.2-0.48-3.56c0-1.29,0.17-2.44,0.5-3.47
			c0.33-1.03,0.81-1.9,1.44-2.61c0.63-0.72,1.38-1.26,2.27-1.65c0.89-0.38,1.88-0.57,2.97-0.57c1.17,0,2.17,0.19,3,0.56
			c0.83,0.38,1.5,0.88,2.04,1.52c0.53,0.64,0.92,1.39,1.17,2.24c0.25,0.86,0.37,1.78,0.37,2.75V192.08z M365.28,191.27
			c0.03-1.44-0.29-2.57-0.96-3.39c-0.67-0.82-1.68-1.23-3-1.23c-0.68,0-1.28,0.13-1.79,0.38c-0.51,0.25-0.94,0.59-1.29,1.01
			c-0.35,0.42-0.61,0.91-0.8,1.47c-0.19,0.56-0.3,1.14-0.32,1.75H365.28z"/>
		<path class="st0" d="M380.96,186.23c0,0.24-0.01,0.45-0.02,0.62c-0.01,0.17-0.03,0.3-0.07,0.39c-0.03,0.09-0.07,0.17-0.12,0.22
			c-0.05,0.05-0.12,0.08-0.21,0.08c-0.09,0-0.2-0.02-0.32-0.08c-0.13-0.05-0.27-0.1-0.43-0.15c-0.16-0.05-0.34-0.1-0.54-0.14
			c-0.2-0.04-0.42-0.07-0.65-0.07c-0.28,0-0.55,0.06-0.81,0.17c-0.27,0.11-0.55,0.29-0.84,0.55c-0.29,0.25-0.6,0.59-0.92,1.01
			c-0.32,0.42-0.68,0.94-1.06,1.55v9.84c0,0.09-0.02,0.16-0.07,0.22c-0.04,0.06-0.12,0.11-0.22,0.16c-0.1,0.04-0.24,0.08-0.42,0.1
			c-0.18,0.02-0.4,0.03-0.68,0.03c-0.27,0-0.49-0.01-0.67-0.03c-0.18-0.02-0.32-0.06-0.42-0.1c-0.11-0.04-0.18-0.1-0.22-0.16
			c-0.04-0.06-0.06-0.14-0.06-0.22v-14.96c0-0.09,0.02-0.16,0.05-0.22c0.03-0.06,0.1-0.12,0.2-0.17c0.1-0.05,0.23-0.08,0.38-0.1
			c0.16-0.02,0.36-0.02,0.61-0.02c0.24,0,0.45,0.01,0.61,0.02c0.16,0.02,0.29,0.05,0.37,0.1c0.09,0.05,0.15,0.11,0.19,0.17
			c0.04,0.06,0.06,0.14,0.06,0.22v2.18c0.41-0.6,0.79-1.09,1.16-1.46c0.36-0.38,0.7-0.67,1.02-0.89c0.32-0.22,0.64-0.37,0.96-0.45
			c0.32-0.08,0.63-0.12,0.96-0.12c0.14,0,0.31,0.01,0.49,0.02c0.18,0.02,0.37,0.05,0.57,0.09c0.2,0.04,0.38,0.09,0.54,0.15
			c0.16,0.06,0.27,0.11,0.34,0.17c0.07,0.06,0.11,0.11,0.13,0.16c0.02,0.05,0.04,0.11,0.06,0.19c0.02,0.08,0.03,0.19,0.03,0.34
			C380.96,185.78,380.96,185.98,380.96,186.23z"/>
		<path class="st0" d="M396.37,200.19c0,0.09-0.02,0.17-0.07,0.23c-0.04,0.07-0.12,0.12-0.22,0.17c-0.11,0.04-0.25,0.08-0.44,0.1
			c-0.19,0.02-0.43,0.03-0.72,0.03c-0.3,0-0.55-0.01-0.74-0.02c-0.19-0.02-0.36-0.04-0.49-0.08c-0.13-0.04-0.24-0.09-0.32-0.17
			c-0.08-0.07-0.16-0.16-0.22-0.26l-6.32-8.28v8.29c0,0.09-0.02,0.16-0.07,0.22c-0.04,0.06-0.12,0.11-0.22,0.16
			c-0.1,0.04-0.24,0.08-0.42,0.1c-0.18,0.02-0.4,0.03-0.68,0.03c-0.27,0-0.49-0.01-0.67-0.03c-0.18-0.02-0.32-0.06-0.42-0.1
			c-0.11-0.04-0.18-0.1-0.22-0.16c-0.04-0.06-0.06-0.14-0.06-0.22v-22.21c0-0.09,0.02-0.17,0.06-0.23c0.04-0.07,0.11-0.12,0.22-0.17
			c0.11-0.04,0.25-0.08,0.42-0.1c0.18-0.02,0.4-0.03,0.67-0.03c0.28,0,0.5,0.01,0.68,0.03c0.18,0.02,0.32,0.06,0.42,0.1
			c0.1,0.04,0.17,0.1,0.22,0.17c0.04,0.07,0.07,0.14,0.07,0.23v13.53l5.65-6.22c0.09-0.11,0.18-0.2,0.28-0.27
			c0.1-0.07,0.22-0.13,0.36-0.18c0.14-0.05,0.3-0.08,0.49-0.1c0.19-0.02,0.42-0.02,0.68-0.02c0.28,0,0.51,0.01,0.7,0.02
			c0.19,0.02,0.34,0.04,0.46,0.08c0.12,0.04,0.2,0.09,0.25,0.15c0.05,0.06,0.08,0.14,0.08,0.24c0,0.13-0.04,0.27-0.11,0.4
			c-0.07,0.13-0.19,0.29-0.36,0.47l-5.42,5.42l6.08,7.89c0.14,0.19,0.25,0.34,0.31,0.46C396.33,199.99,396.37,200.09,396.37,200.19z
			"/>
		<path class="st0" d="M411.23,192.08c0,0.43-0.11,0.74-0.32,0.92c-0.22,0.18-0.47,0.27-0.74,0.27h-9.85c0,0.83,0.08,1.58,0.25,2.24
			c0.17,0.66,0.45,1.24,0.84,1.71c0.39,0.48,0.9,0.84,1.52,1.1c0.62,0.25,1.39,0.38,2.29,0.38c0.71,0,1.35-0.06,1.9-0.17
			s1.04-0.25,1.44-0.39c0.41-0.14,0.74-0.27,1-0.39c0.26-0.12,0.46-0.17,0.59-0.17c0.08,0,0.15,0.02,0.21,0.06
			c0.06,0.04,0.11,0.1,0.14,0.17c0.03,0.08,0.06,0.19,0.08,0.32c0.02,0.14,0.03,0.31,0.03,0.51c0,0.14-0.01,0.27-0.02,0.37
			c-0.01,0.11-0.02,0.2-0.04,0.28c-0.02,0.08-0.04,0.16-0.08,0.22c-0.04,0.07-0.09,0.13-0.15,0.19c-0.06,0.06-0.24,0.16-0.54,0.3
			c-0.3,0.14-0.69,0.27-1.16,0.41c-0.48,0.13-1.03,0.25-1.65,0.36c-0.63,0.1-1.29,0.16-2,0.16c-1.23,0-2.31-0.17-3.23-0.52
			c-0.93-0.34-1.7-0.85-2.34-1.53c-0.63-0.68-1.11-1.52-1.43-2.54c-0.32-1.02-0.48-2.2-0.48-3.56c0-1.29,0.17-2.44,0.5-3.47
			s0.81-1.9,1.44-2.61c0.63-0.72,1.38-1.26,2.27-1.65c0.89-0.38,1.88-0.57,2.97-0.57c1.17,0,2.17,0.19,3,0.56
			c0.82,0.38,1.5,0.88,2.04,1.52c0.53,0.64,0.92,1.39,1.17,2.24c0.25,0.86,0.37,1.78,0.37,2.75V192.08z M408.47,191.27
			c0.03-1.44-0.29-2.57-0.96-3.39c-0.67-0.82-1.68-1.23-3-1.23c-0.68,0-1.28,0.13-1.79,0.38c-0.51,0.25-0.94,0.59-1.29,1.01
			c-0.35,0.42-0.61,0.91-0.8,1.47c-0.19,0.56-0.3,1.14-0.32,1.75H408.47z"/>
		<path class="st0" d="M428.29,200.21c0,0.09-0.02,0.16-0.07,0.22c-0.04,0.06-0.12,0.11-0.22,0.16c-0.1,0.04-0.24,0.08-0.42,0.1
			c-0.18,0.02-0.4,0.03-0.66,0.03c-0.28,0-0.5-0.01-0.68-0.03c-0.18-0.02-0.32-0.06-0.42-0.1c-0.1-0.04-0.17-0.1-0.22-0.16
			c-0.04-0.06-0.07-0.14-0.07-0.22v-8.76c0-0.85-0.07-1.54-0.2-2.06c-0.13-0.52-0.33-0.97-0.58-1.35c-0.25-0.38-0.58-0.67-0.99-0.86
			c-0.4-0.2-0.87-0.3-1.4-0.3c-0.69,0-1.37,0.24-2.06,0.73c-0.69,0.49-1.41,1.2-2.16,2.14v10.45c0,0.09-0.02,0.16-0.07,0.22
			c-0.04,0.06-0.12,0.11-0.22,0.16c-0.1,0.04-0.24,0.08-0.41,0.1c-0.18,0.02-0.4,0.03-0.68,0.03c-0.27,0-0.49-0.01-0.66-0.03
			c-0.18-0.02-0.32-0.06-0.42-0.1c-0.1-0.04-0.18-0.1-0.22-0.16c-0.04-0.06-0.06-0.14-0.06-0.22v-14.96c0-0.09,0.02-0.16,0.05-0.22
			c0.03-0.06,0.1-0.12,0.2-0.17c0.1-0.05,0.23-0.08,0.38-0.1c0.16-0.02,0.36-0.02,0.62-0.02c0.24,0,0.45,0.01,0.61,0.02
			c0.16,0.02,0.29,0.05,0.37,0.1c0.09,0.05,0.15,0.11,0.19,0.17c0.04,0.06,0.06,0.14,0.06,0.22v1.98c0.84-0.94,1.68-1.63,2.52-2.07
			c0.84-0.44,1.68-0.66,2.53-0.66c1,0,1.84,0.17,2.52,0.51c0.68,0.34,1.23,0.79,1.65,1.36c0.42,0.56,0.72,1.23,0.91,1.99
			c0.18,0.76,0.27,1.67,0.27,2.73V200.21z"/>
		<path class="st0" d="M452.25,200.23c0,0.13-0.04,0.23-0.13,0.3c-0.09,0.07-0.21,0.12-0.37,0.15c-0.16,0.03-0.38,0.05-0.68,0.05
			c-0.29,0-0.52-0.02-0.69-0.05c-0.17-0.03-0.3-0.08-0.37-0.15c-0.08-0.07-0.12-0.17-0.12-0.3v-1.5c-0.65,0.7-1.38,1.24-2.19,1.63
			c-0.8,0.39-1.65,0.58-2.55,0.58c-0.79,0-1.5-0.1-2.14-0.31c-0.64-0.2-1.18-0.5-1.63-0.89c-0.45-0.39-0.8-0.86-1.05-1.43
			c-0.25-0.56-0.37-1.21-0.37-1.93c0-0.84,0.17-1.57,0.52-2.19c0.34-0.62,0.84-1.14,1.48-1.55c0.64-0.41,1.43-0.72,2.36-0.92
			c0.93-0.2,1.98-0.31,3.14-0.31h2.06v-1.16c0-0.58-0.06-1.09-0.18-1.53c-0.12-0.44-0.32-0.81-0.59-1.11
			c-0.27-0.29-0.62-0.51-1.05-0.66c-0.43-0.15-0.96-0.22-1.6-0.22c-0.68,0-1.28,0.08-1.82,0.24c-0.54,0.16-1.01,0.34-1.41,0.53
			c-0.4,0.19-0.74,0.37-1.01,0.53c-0.27,0.16-0.47,0.24-0.61,0.24c-0.09,0-0.17-0.02-0.23-0.07c-0.07-0.04-0.12-0.11-0.17-0.2
			c-0.05-0.09-0.09-0.2-0.11-0.34c-0.02-0.14-0.03-0.29-0.03-0.46c0-0.28,0.02-0.5,0.06-0.66c0.04-0.16,0.13-0.31,0.28-0.46
			c0.15-0.14,0.41-0.31,0.77-0.51c0.37-0.19,0.79-0.37,1.26-0.53c0.48-0.16,1-0.29,1.56-0.4c0.56-0.11,1.14-0.16,1.71-0.16
			c1.08,0,1.99,0.12,2.74,0.37c0.75,0.24,1.36,0.6,1.83,1.07c0.47,0.47,0.8,1.05,1.01,1.75c0.21,0.7,0.32,1.51,0.32,2.44V200.23z
			 M449.53,193.4h-2.34c-0.75,0-1.41,0.06-1.96,0.19c-0.55,0.13-1.01,0.32-1.38,0.56c-0.37,0.25-0.63,0.55-0.81,0.9
			c-0.17,0.35-0.26,0.75-0.26,1.2c0,0.78,0.25,1.39,0.74,1.85c0.49,0.46,1.18,0.69,2.07,0.69c0.72,0,1.39-0.18,2-0.55
			c0.62-0.37,1.26-0.92,1.94-1.68V193.4z"/>
		<path class="st0" d="M468.56,200.23c0,0.13-0.04,0.23-0.13,0.3c-0.09,0.07-0.21,0.12-0.37,0.15c-0.16,0.03-0.38,0.05-0.68,0.05
			c-0.29,0-0.52-0.02-0.69-0.05c-0.17-0.03-0.3-0.08-0.37-0.15c-0.08-0.07-0.12-0.17-0.12-0.3v-1.5c-0.65,0.7-1.38,1.24-2.19,1.63
			c-0.8,0.39-1.65,0.58-2.55,0.58c-0.79,0-1.5-0.1-2.14-0.31c-0.64-0.2-1.18-0.5-1.63-0.89c-0.45-0.39-0.8-0.86-1.05-1.43
			c-0.25-0.56-0.37-1.21-0.37-1.93c0-0.84,0.17-1.57,0.52-2.19c0.34-0.62,0.84-1.14,1.48-1.55c0.64-0.41,1.43-0.72,2.36-0.92
			c0.93-0.2,1.98-0.31,3.14-0.31h2.06v-1.16c0-0.58-0.06-1.09-0.18-1.53c-0.12-0.44-0.32-0.81-0.59-1.11
			c-0.27-0.29-0.62-0.51-1.05-0.66c-0.43-0.15-0.96-0.22-1.6-0.22c-0.68,0-1.28,0.08-1.82,0.24c-0.54,0.16-1.01,0.34-1.41,0.53
			c-0.4,0.19-0.74,0.37-1.01,0.53c-0.27,0.16-0.47,0.24-0.61,0.24c-0.09,0-0.17-0.02-0.23-0.07c-0.07-0.04-0.12-0.11-0.17-0.2
			c-0.05-0.09-0.09-0.2-0.11-0.34c-0.02-0.14-0.03-0.29-0.03-0.46c0-0.28,0.02-0.5,0.06-0.66c0.04-0.16,0.13-0.31,0.28-0.46
			c0.15-0.14,0.41-0.31,0.77-0.51c0.37-0.19,0.79-0.37,1.26-0.53c0.48-0.16,1-0.29,1.56-0.4c0.56-0.11,1.14-0.16,1.71-0.16
			c1.08,0,1.99,0.12,2.74,0.37c0.75,0.24,1.36,0.6,1.83,1.07c0.47,0.47,0.8,1.05,1.01,1.75c0.21,0.7,0.32,1.51,0.32,2.44V200.23z
			 M465.83,193.4h-2.34c-0.75,0-1.41,0.06-1.96,0.19c-0.55,0.13-1.01,0.32-1.38,0.56c-0.37,0.25-0.63,0.55-0.81,0.9
			c-0.17,0.35-0.26,0.75-0.26,1.2c0,0.78,0.25,1.39,0.74,1.85c0.49,0.46,1.18,0.69,2.07,0.69c0.72,0,1.39-0.18,2-0.55
			c0.62-0.37,1.26-0.92,1.94-1.68V193.4z"/>
		<path class="st0" d="M486.48,200.21c0,0.09-0.02,0.16-0.07,0.22c-0.04,0.06-0.12,0.11-0.22,0.16c-0.1,0.04-0.24,0.08-0.42,0.1
			c-0.18,0.02-0.4,0.03-0.66,0.03c-0.28,0-0.5-0.01-0.68-0.03c-0.18-0.02-0.32-0.06-0.42-0.1c-0.1-0.04-0.17-0.1-0.22-0.16
			c-0.04-0.06-0.07-0.14-0.07-0.22v-8.76c0-0.85-0.07-1.54-0.2-2.06c-0.13-0.52-0.33-0.97-0.58-1.35c-0.25-0.38-0.58-0.67-0.99-0.86
			c-0.4-0.2-0.87-0.3-1.4-0.3c-0.69,0-1.37,0.24-2.06,0.73c-0.69,0.49-1.41,1.2-2.16,2.14v10.45c0,0.09-0.02,0.16-0.07,0.22
			c-0.04,0.06-0.12,0.11-0.22,0.16c-0.1,0.04-0.24,0.08-0.41,0.1c-0.18,0.02-0.4,0.03-0.68,0.03c-0.27,0-0.49-0.01-0.66-0.03
			c-0.18-0.02-0.32-0.06-0.42-0.1c-0.1-0.04-0.18-0.1-0.22-0.16c-0.04-0.06-0.06-0.14-0.06-0.22v-14.96c0-0.09,0.02-0.16,0.05-0.22
			c0.03-0.06,0.1-0.12,0.2-0.17c0.1-0.05,0.23-0.08,0.38-0.1c0.16-0.02,0.36-0.02,0.62-0.02c0.24,0,0.45,0.01,0.61,0.02
			c0.16,0.02,0.29,0.05,0.37,0.1c0.09,0.05,0.15,0.11,0.19,0.17c0.04,0.06,0.06,0.14,0.06,0.22v1.98c0.84-0.94,1.68-1.63,2.52-2.07
			c0.84-0.44,1.68-0.66,2.53-0.66c1,0,1.84,0.17,2.52,0.51c0.68,0.34,1.23,0.79,1.65,1.36c0.42,0.56,0.72,1.23,0.91,1.99
			c0.18,0.76,0.27,1.67,0.27,2.73V200.21z"/>
		<path class="st0" d="M502.23,200.88c0,1.11-0.08,2-0.25,2.68s-0.43,1.26-0.78,1.72c-0.35,0.47-0.81,0.82-1.36,1.06
			c-0.55,0.24-1.22,0.36-2.01,0.36c-0.36,0-0.66-0.02-0.91-0.07c-0.25-0.04-0.44-0.09-0.57-0.15c-0.13-0.06-0.22-0.12-0.27-0.19
			c-0.05-0.07-0.09-0.16-0.11-0.25c-0.02-0.09-0.04-0.19-0.04-0.29s-0.01-0.22-0.01-0.37c0-0.2,0.01-0.37,0.03-0.52
			c0.02-0.14,0.04-0.26,0.08-0.35c0.04-0.09,0.08-0.15,0.13-0.19c0.05-0.04,0.11-0.06,0.19-0.06c0.07,0,0.2,0.01,0.39,0.04
			c0.19,0.03,0.42,0.04,0.67,0.04c0.37,0,0.68-0.06,0.94-0.17c0.26-0.11,0.47-0.29,0.64-0.54c0.17-0.25,0.29-0.57,0.37-0.97
			c0.08-0.4,0.12-1,0.12-1.81v-15.61c0-0.08,0.02-0.15,0.07-0.22c0.04-0.07,0.12-0.12,0.22-0.17c0.11-0.04,0.25-0.08,0.42-0.1
			c0.18-0.02,0.4-0.03,0.67-0.03c0.27,0,0.49,0.01,0.66,0.03c0.18,0.02,0.32,0.06,0.42,0.1c0.1,0.04,0.18,0.1,0.22,0.17
			c0.04,0.07,0.07,0.14,0.07,0.22V200.88z M502.55,180.2c0,0.64-0.12,1.08-0.37,1.31c-0.24,0.23-0.69,0.35-1.35,0.35
			c-0.64,0-1.08-0.11-1.31-0.34c-0.23-0.23-0.35-0.66-0.35-1.29c0-0.64,0.12-1.08,0.36-1.31c0.24-0.23,0.68-0.35,1.34-0.35
			c0.65,0,1.1,0.11,1.33,0.34C502.43,179.14,502.55,179.57,502.55,180.2z"/>
		<path class="st0" d="M521.23,192.57c0,1.22-0.16,2.34-0.48,3.37c-0.32,1.03-0.8,1.91-1.44,2.65c-0.64,0.74-1.43,1.32-2.39,1.74
			c-0.96,0.41-2.07,0.62-3.33,0.62c-1.23,0-2.3-0.18-3.22-0.55c-0.91-0.37-1.68-0.9-2.29-1.6c-0.61-0.7-1.06-1.55-1.36-2.54
			s-0.45-2.13-0.45-3.39c0-1.22,0.16-2.34,0.47-3.37c0.32-1.02,0.79-1.91,1.43-2.65s1.43-1.32,2.39-1.73
			c0.95-0.41,2.07-0.62,3.34-0.62c1.23,0,2.3,0.18,3.22,0.55c0.91,0.37,1.68,0.9,2.29,1.6c0.61,0.7,1.07,1.55,1.37,2.54
			C521.08,190.19,521.23,191.31,521.23,192.57z M518.39,192.75c0-0.81-0.08-1.57-0.23-2.29c-0.15-0.72-0.4-1.35-0.75-1.9
			c-0.35-0.54-0.82-0.97-1.41-1.29c-0.59-0.32-1.33-0.47-2.21-0.47c-0.82,0-1.52,0.14-2.1,0.43c-0.59,0.29-1.07,0.7-1.45,1.22
			s-0.66,1.15-0.85,1.87c-0.18,0.72-0.28,1.51-0.28,2.36c0,0.82,0.08,1.59,0.23,2.31c0.15,0.72,0.4,1.35,0.75,1.89
			c0.35,0.54,0.82,0.96,1.42,1.28c0.59,0.32,1.33,0.47,2.21,0.47c0.8,0,1.5-0.14,2.1-0.43c0.59-0.29,1.08-0.69,1.46-1.21
			c0.38-0.52,0.66-1.14,0.84-1.86C518.3,194.41,518.39,193.61,518.39,192.75z"/>
		<path class="st0" d="M538.08,200.21c0,0.09-0.02,0.16-0.06,0.22c-0.04,0.06-0.11,0.11-0.21,0.16c-0.1,0.04-0.23,0.08-0.39,0.1
			c-0.16,0.02-0.36,0.03-0.59,0.03c-0.26,0-0.46-0.01-0.62-0.03c-0.16-0.02-0.29-0.06-0.38-0.1c-0.09-0.04-0.16-0.1-0.19-0.16
			c-0.03-0.06-0.05-0.14-0.05-0.22v-1.98c-0.85,0.94-1.69,1.63-2.53,2.06c-0.83,0.43-1.67,0.65-2.53,0.65c-1,0-1.84-0.17-2.52-0.5
			c-0.68-0.33-1.23-0.78-1.65-1.36c-0.42-0.57-0.72-1.24-0.91-1.99c-0.18-0.76-0.27-1.68-0.27-2.77v-9.08
			c0-0.09,0.02-0.16,0.06-0.22c0.04-0.06,0.11-0.12,0.22-0.17c0.11-0.05,0.25-0.08,0.43-0.1c0.18-0.02,0.4-0.02,0.66-0.02
			c0.27,0,0.49,0.01,0.67,0.02c0.18,0.02,0.32,0.05,0.42,0.1c0.1,0.05,0.18,0.11,0.22,0.17c0.04,0.06,0.07,0.14,0.07,0.22v8.71
			c0,0.88,0.06,1.58,0.19,2.1c0.13,0.53,0.32,0.97,0.58,1.35c0.26,0.37,0.59,0.66,0.99,0.86c0.4,0.2,0.86,0.31,1.4,0.31
			c0.69,0,1.37-0.24,2.05-0.73c0.68-0.49,1.4-1.2,2.17-2.14v-10.46c0-0.09,0.02-0.16,0.06-0.22c0.04-0.06,0.11-0.12,0.22-0.17
			c0.11-0.05,0.25-0.08,0.42-0.1c0.17-0.02,0.4-0.02,0.67-0.02c0.27,0,0.49,0.01,0.66,0.02c0.18,0.02,0.32,0.05,0.42,0.1
			c0.1,0.05,0.17,0.11,0.22,0.17c0.05,0.06,0.08,0.14,0.08,0.22V200.21z"/>
		<path class="st0" d="M564.08,185.22c0,0.08-0.01,0.17-0.03,0.28c-0.02,0.11-0.06,0.25-0.12,0.42l-4.4,14.21
			c-0.03,0.12-0.09,0.22-0.16,0.3c-0.07,0.08-0.17,0.14-0.3,0.18c-0.13,0.04-0.3,0.08-0.52,0.09c-0.22,0.02-0.5,0.02-0.83,0.02
			c-0.34,0-0.63-0.01-0.86-0.03c-0.23-0.02-0.42-0.06-0.56-0.1c-0.14-0.04-0.24-0.1-0.31-0.18c-0.07-0.08-0.12-0.17-0.15-0.28
			l-3.14-10.85l-0.03-0.15l-0.03,0.15l-2.91,10.85c-0.03,0.12-0.09,0.22-0.16,0.3c-0.07,0.08-0.18,0.14-0.32,0.18
			c-0.14,0.04-0.33,0.08-0.56,0.09c-0.23,0.02-0.51,0.02-0.84,0.02c-0.34,0-0.62-0.01-0.84-0.03c-0.22-0.02-0.39-0.06-0.53-0.1
			c-0.14-0.04-0.24-0.1-0.31-0.18c-0.07-0.08-0.12-0.17-0.15-0.28l-4.37-14.21c-0.06-0.17-0.09-0.31-0.12-0.42
			c-0.02-0.11-0.03-0.21-0.03-0.28c0-0.1,0.02-0.18,0.07-0.24c0.04-0.06,0.12-0.11,0.22-0.15c0.11-0.04,0.25-0.06,0.42-0.07
			c0.18-0.01,0.39-0.02,0.65-0.02c0.31,0,0.56,0.01,0.75,0.02c0.19,0.02,0.33,0.04,0.43,0.08c0.1,0.04,0.17,0.09,0.22,0.17
			c0.04,0.07,0.08,0.16,0.12,0.26l3.61,12.33l0.03,0.15l0.03-0.15l3.31-12.33c0.02-0.1,0.06-0.19,0.11-0.26
			c0.05-0.07,0.12-0.13,0.22-0.17c0.1-0.04,0.24-0.07,0.41-0.08c0.17-0.02,0.4-0.02,0.67-0.02c0.27,0,0.48,0.01,0.66,0.02
			c0.17,0.02,0.31,0.04,0.41,0.08c0.1,0.04,0.17,0.09,0.22,0.16c0.04,0.07,0.08,0.14,0.1,0.23l3.57,12.37l0.03,0.15l0.02-0.15
			l3.56-12.33c0.02-0.1,0.06-0.19,0.11-0.26c0.05-0.07,0.13-0.13,0.23-0.17c0.1-0.04,0.25-0.07,0.43-0.08
			c0.18-0.02,0.42-0.02,0.71-0.02c0.27,0,0.48,0,0.64,0.02c0.16,0.01,0.29,0.04,0.38,0.08c0.09,0.04,0.16,0.09,0.2,0.15
			C564.06,185.04,564.08,185.12,564.08,185.22z"/>
		<path class="st0" d="M589.09,192.57c0,1.22-0.16,2.34-0.48,3.37c-0.32,1.03-0.8,1.91-1.44,2.65c-0.64,0.74-1.44,1.32-2.39,1.74
			c-0.96,0.41-2.07,0.62-3.33,0.62c-1.23,0-2.3-0.18-3.22-0.55c-0.91-0.37-1.68-0.9-2.29-1.6c-0.61-0.7-1.06-1.55-1.36-2.54
			s-0.45-2.13-0.45-3.39c0-1.22,0.16-2.34,0.47-3.37c0.32-1.02,0.79-1.91,1.43-2.65s1.43-1.32,2.39-1.73
			c0.95-0.41,2.07-0.62,3.34-0.62c1.23,0,2.3,0.18,3.22,0.55c0.91,0.37,1.68,0.9,2.29,1.6c0.61,0.7,1.07,1.55,1.37,2.54
			C588.94,190.19,589.09,191.31,589.09,192.57z M586.25,192.75c0-0.81-0.08-1.57-0.23-2.29c-0.15-0.72-0.4-1.35-0.75-1.9
			c-0.35-0.54-0.82-0.97-1.41-1.29c-0.59-0.32-1.33-0.47-2.21-0.47c-0.82,0-1.52,0.14-2.1,0.43c-0.59,0.29-1.07,0.7-1.45,1.22
			s-0.66,1.15-0.85,1.87c-0.18,0.72-0.28,1.51-0.28,2.36c0,0.82,0.08,1.59,0.23,2.31c0.15,0.72,0.4,1.35,0.75,1.89
			c0.35,0.54,0.82,0.96,1.42,1.28c0.59,0.32,1.33,0.47,2.21,0.47c0.8,0,1.5-0.14,2.1-0.43c0.59-0.29,1.08-0.69,1.46-1.21
			c0.38-0.52,0.66-1.14,0.84-1.86C586.16,194.41,586.25,193.61,586.25,192.75z"/>
		<path class="st0" d="M606.01,200.21c0,0.09-0.02,0.16-0.07,0.22c-0.04,0.06-0.12,0.11-0.22,0.16c-0.1,0.04-0.24,0.08-0.42,0.1
			c-0.18,0.02-0.4,0.03-0.66,0.03c-0.28,0-0.5-0.01-0.68-0.03c-0.18-0.02-0.32-0.06-0.42-0.1c-0.1-0.04-0.17-0.1-0.22-0.16
			c-0.04-0.06-0.07-0.14-0.07-0.22v-8.76c0-0.85-0.07-1.54-0.2-2.06c-0.13-0.52-0.33-0.97-0.58-1.35c-0.25-0.38-0.58-0.67-0.99-0.86
			c-0.4-0.2-0.87-0.3-1.4-0.3c-0.69,0-1.37,0.24-2.06,0.73c-0.69,0.49-1.41,1.2-2.16,2.14v10.45c0,0.09-0.02,0.16-0.07,0.22
			c-0.04,0.06-0.12,0.11-0.22,0.16c-0.1,0.04-0.24,0.08-0.41,0.1c-0.18,0.02-0.4,0.03-0.68,0.03c-0.27,0-0.49-0.01-0.66-0.03
			c-0.18-0.02-0.32-0.06-0.42-0.1c-0.1-0.04-0.18-0.1-0.22-0.16c-0.04-0.06-0.06-0.14-0.06-0.22v-14.96c0-0.09,0.02-0.16,0.05-0.22
			c0.03-0.06,0.1-0.12,0.2-0.17c0.1-0.05,0.23-0.08,0.38-0.1c0.16-0.02,0.36-0.02,0.62-0.02c0.24,0,0.45,0.01,0.61,0.02
			c0.16,0.02,0.29,0.05,0.37,0.1c0.09,0.05,0.15,0.11,0.19,0.17c0.04,0.06,0.06,0.14,0.06,0.22v1.98c0.84-0.94,1.68-1.63,2.52-2.07
			c0.84-0.44,1.68-0.66,2.53-0.66c1,0,1.84,0.17,2.52,0.51c0.68,0.34,1.23,0.79,1.65,1.36c0.42,0.56,0.72,1.23,0.91,1.99
			c0.18,0.76,0.27,1.67,0.27,2.73V200.21z"/>
		<path class="st0" d="M618.49,199.11c0,0.32-0.02,0.58-0.07,0.76c-0.04,0.19-0.11,0.33-0.2,0.41c-0.09,0.09-0.22,0.17-0.4,0.25
			c-0.18,0.08-0.38,0.14-0.61,0.19c-0.23,0.05-0.47,0.09-0.72,0.13c-0.25,0.03-0.51,0.05-0.76,0.05c-0.78,0-1.44-0.1-1.99-0.31
			c-0.55-0.21-1.01-0.52-1.36-0.93c-0.36-0.41-0.61-0.94-0.77-1.58c-0.16-0.64-0.24-1.39-0.24-2.25v-8.74h-2.09
			c-0.17,0-0.3-0.09-0.4-0.27c-0.1-0.18-0.15-0.47-0.15-0.86c0-0.21,0.01-0.39,0.04-0.53c0.03-0.14,0.06-0.26,0.11-0.36
			c0.04-0.09,0.1-0.16,0.17-0.2c0.07-0.04,0.15-0.06,0.24-0.06h2.08v-3.56c0-0.08,0.02-0.15,0.06-0.22
			c0.04-0.07,0.11-0.13,0.22-0.17c0.1-0.05,0.25-0.09,0.42-0.11c0.18-0.02,0.4-0.03,0.66-0.03c0.28,0,0.5,0.01,0.68,0.03
			c0.18,0.02,0.32,0.06,0.42,0.11c0.1,0.05,0.17,0.11,0.22,0.17c0.04,0.07,0.07,0.14,0.07,0.22v3.56h3.84
			c0.09,0,0.17,0.02,0.23,0.06c0.07,0.04,0.12,0.1,0.17,0.2c0.05,0.09,0.08,0.21,0.11,0.36c0.02,0.14,0.03,0.32,0.03,0.53
			c0,0.4-0.05,0.69-0.15,0.86c-0.1,0.18-0.23,0.27-0.4,0.27h-3.84v8.34c0,1.03,0.15,1.81,0.46,2.34c0.3,0.53,0.85,0.79,1.64,0.79
			c0.25,0,0.48-0.02,0.68-0.07c0.2-0.05,0.38-0.1,0.53-0.16c0.16-0.06,0.29-0.11,0.4-0.16c0.11-0.05,0.21-0.08,0.3-0.08
			c0.06,0,0.11,0.01,0.16,0.04c0.05,0.03,0.09,0.08,0.12,0.16c0.03,0.08,0.05,0.18,0.08,0.32
			C618.48,198.75,618.49,198.92,618.49,199.11z"/>
		<path class="st0" d="M643.04,185.22c0,0.08-0.01,0.17-0.03,0.28c-0.02,0.11-0.06,0.25-0.12,0.42l-4.4,14.21
			c-0.03,0.12-0.09,0.22-0.16,0.3c-0.07,0.08-0.17,0.14-0.3,0.18c-0.13,0.04-0.3,0.08-0.52,0.09c-0.22,0.02-0.5,0.02-0.83,0.02
			c-0.34,0-0.63-0.01-0.86-0.03c-0.23-0.02-0.42-0.06-0.56-0.1c-0.14-0.04-0.24-0.1-0.31-0.18c-0.07-0.08-0.12-0.17-0.15-0.28
			l-3.14-10.85l-0.03-0.15l-0.03,0.15l-2.91,10.85c-0.03,0.12-0.09,0.22-0.16,0.3c-0.07,0.08-0.18,0.14-0.32,0.18
			c-0.14,0.04-0.33,0.08-0.56,0.09c-0.23,0.02-0.51,0.02-0.84,0.02c-0.34,0-0.62-0.01-0.84-0.03c-0.22-0.02-0.39-0.06-0.53-0.1
			c-0.14-0.04-0.24-0.1-0.31-0.18c-0.07-0.08-0.12-0.17-0.15-0.28l-4.37-14.21c-0.06-0.17-0.09-0.31-0.12-0.42
			c-0.02-0.11-0.03-0.21-0.03-0.28c0-0.1,0.02-0.18,0.07-0.24s0.12-0.11,0.22-0.15c0.11-0.04,0.25-0.06,0.42-0.07
			c0.18-0.01,0.39-0.02,0.65-0.02c0.31,0,0.56,0.01,0.75,0.02c0.19,0.02,0.33,0.04,0.43,0.08c0.1,0.04,0.17,0.09,0.22,0.17
			c0.04,0.07,0.08,0.16,0.12,0.26l3.61,12.33l0.03,0.15l0.03-0.15l3.31-12.33c0.02-0.1,0.06-0.19,0.11-0.26
			c0.05-0.07,0.12-0.13,0.22-0.17c0.1-0.04,0.24-0.07,0.41-0.08c0.17-0.02,0.4-0.02,0.67-0.02c0.27,0,0.48,0.01,0.66,0.02
			c0.17,0.02,0.31,0.04,0.41,0.08c0.1,0.04,0.17,0.09,0.22,0.16c0.04,0.07,0.08,0.14,0.1,0.23l3.57,12.37l0.03,0.15l0.02-0.15
			l3.56-12.33c0.02-0.1,0.06-0.19,0.11-0.26c0.05-0.07,0.13-0.13,0.23-0.17c0.1-0.04,0.25-0.07,0.43-0.08
			c0.18-0.02,0.42-0.02,0.71-0.02c0.27,0,0.48,0,0.64,0.02c0.16,0.01,0.29,0.04,0.38,0.08c0.09,0.04,0.16,0.09,0.2,0.15
			C643.02,185.04,643.04,185.12,643.04,185.22z"/>
		<path class="st0" d="M649.5,180.2c0,0.64-0.12,1.08-0.37,1.31c-0.24,0.23-0.69,0.35-1.35,0.35c-0.64,0-1.08-0.11-1.32-0.34
			c-0.24-0.23-0.36-0.66-0.36-1.29c0-0.64,0.12-1.08,0.37-1.31c0.24-0.23,0.69-0.35,1.35-0.35c0.64,0,1.08,0.11,1.32,0.34
			C649.39,179.14,649.5,179.57,649.5,180.2z M649.19,200.21c0,0.09-0.02,0.16-0.07,0.22c-0.04,0.06-0.12,0.11-0.22,0.16
			c-0.1,0.04-0.24,0.08-0.41,0.1c-0.18,0.02-0.4,0.03-0.68,0.03c-0.27,0-0.49-0.01-0.66-0.03c-0.18-0.02-0.32-0.06-0.42-0.1
			c-0.1-0.04-0.18-0.1-0.22-0.16c-0.04-0.06-0.06-0.14-0.06-0.22v-14.96c0-0.08,0.02-0.15,0.06-0.22c0.04-0.07,0.11-0.12,0.22-0.17
			c0.11-0.04,0.25-0.08,0.42-0.1c0.18-0.02,0.4-0.03,0.66-0.03c0.28,0,0.5,0.01,0.68,0.03c0.18,0.02,0.32,0.06,0.41,0.1
			c0.1,0.04,0.17,0.1,0.22,0.17c0.04,0.07,0.07,0.14,0.07,0.22V200.21z"/>
		<path class="st0" d="M666.54,200.19c0,0.09-0.02,0.17-0.07,0.23c-0.04,0.07-0.12,0.12-0.22,0.17c-0.11,0.04-0.25,0.08-0.44,0.1
			c-0.19,0.02-0.43,0.03-0.72,0.03c-0.3,0-0.55-0.01-0.74-0.02c-0.19-0.02-0.36-0.04-0.49-0.08c-0.13-0.04-0.24-0.09-0.32-0.17
			s-0.16-0.16-0.23-0.26l-6.32-8.28v8.29c0,0.09-0.02,0.16-0.07,0.22c-0.04,0.06-0.12,0.11-0.22,0.16c-0.1,0.04-0.24,0.08-0.41,0.1
			c-0.18,0.02-0.4,0.03-0.68,0.03c-0.27,0-0.49-0.01-0.66-0.03c-0.18-0.02-0.32-0.06-0.42-0.1c-0.1-0.04-0.18-0.1-0.22-0.16
			c-0.04-0.06-0.06-0.14-0.06-0.22v-22.21c0-0.09,0.02-0.17,0.06-0.23c0.04-0.07,0.11-0.12,0.22-0.17c0.11-0.04,0.25-0.08,0.42-0.1
			c0.18-0.02,0.4-0.03,0.66-0.03c0.28,0,0.5,0.01,0.68,0.03c0.18,0.02,0.32,0.06,0.41,0.1c0.1,0.04,0.17,0.1,0.22,0.17
			c0.04,0.07,0.07,0.14,0.07,0.23v13.53l5.65-6.22c0.09-0.11,0.18-0.2,0.28-0.27c0.1-0.07,0.22-0.13,0.36-0.18
			c0.14-0.05,0.3-0.08,0.49-0.1c0.19-0.02,0.41-0.02,0.68-0.02c0.28,0,0.51,0.01,0.7,0.02c0.19,0.02,0.34,0.04,0.46,0.08
			c0.12,0.04,0.2,0.09,0.25,0.15c0.05,0.06,0.07,0.14,0.07,0.24c0,0.13-0.04,0.27-0.11,0.4c-0.07,0.13-0.19,0.29-0.36,0.47
			l-5.42,5.42l6.08,7.89c0.14,0.19,0.25,0.34,0.31,0.46C666.51,199.99,666.54,200.09,666.54,200.19z"/>
		<path class="st0" d="M682.02,200.19c0,0.09-0.02,0.17-0.07,0.23c-0.04,0.07-0.12,0.12-0.22,0.17c-0.11,0.04-0.25,0.08-0.44,0.1
			c-0.19,0.02-0.43,0.03-0.72,0.03c-0.3,0-0.55-0.01-0.74-0.02c-0.19-0.02-0.36-0.04-0.49-0.08c-0.13-0.04-0.24-0.09-0.32-0.17
			c-0.08-0.07-0.16-0.16-0.23-0.26l-6.32-8.28v8.29c0,0.09-0.02,0.16-0.07,0.22c-0.04,0.06-0.12,0.11-0.22,0.16
			c-0.1,0.04-0.24,0.08-0.41,0.1c-0.18,0.02-0.4,0.03-0.68,0.03c-0.27,0-0.49-0.01-0.66-0.03c-0.18-0.02-0.32-0.06-0.42-0.1
			c-0.1-0.04-0.18-0.1-0.22-0.16c-0.04-0.06-0.06-0.14-0.06-0.22v-22.21c0-0.09,0.02-0.17,0.06-0.23c0.04-0.07,0.11-0.12,0.22-0.17
			c0.11-0.04,0.25-0.08,0.42-0.1c0.18-0.02,0.4-0.03,0.66-0.03c0.28,0,0.5,0.01,0.68,0.03c0.18,0.02,0.32,0.06,0.41,0.1
			s0.17,0.1,0.22,0.17c0.04,0.07,0.07,0.14,0.07,0.23v13.53l5.65-6.22c0.09-0.11,0.18-0.2,0.28-0.27s0.22-0.13,0.36-0.18
			c0.14-0.05,0.3-0.08,0.49-0.1c0.19-0.02,0.41-0.02,0.68-0.02c0.28,0,0.51,0.01,0.7,0.02c0.19,0.02,0.34,0.04,0.46,0.08
			c0.12,0.04,0.2,0.09,0.25,0.15c0.05,0.06,0.07,0.14,0.07,0.24c0,0.13-0.04,0.27-0.11,0.4c-0.07,0.13-0.19,0.29-0.36,0.47
			l-5.42,5.42l6.08,7.89c0.14,0.19,0.25,0.34,0.31,0.46C681.98,199.99,682.02,200.09,682.02,200.19z"/>
		<path class="st0" d="M696.88,192.08c0,0.43-0.11,0.74-0.32,0.92c-0.22,0.18-0.47,0.27-0.74,0.27h-9.85c0,0.83,0.08,1.58,0.25,2.24
			c0.17,0.66,0.45,1.24,0.84,1.71c0.39,0.48,0.9,0.84,1.52,1.1c0.62,0.25,1.39,0.38,2.29,0.38c0.71,0,1.35-0.06,1.9-0.17
			c0.56-0.12,1.04-0.25,1.44-0.39c0.41-0.14,0.74-0.27,1-0.39c0.26-0.12,0.46-0.17,0.59-0.17c0.08,0,0.15,0.02,0.21,0.06
			c0.06,0.04,0.11,0.1,0.14,0.17c0.03,0.08,0.06,0.19,0.08,0.32c0.02,0.14,0.03,0.31,0.03,0.51c0,0.14-0.01,0.27-0.02,0.37
			c-0.01,0.11-0.02,0.2-0.04,0.28s-0.04,0.16-0.08,0.22c-0.04,0.07-0.09,0.13-0.15,0.19c-0.06,0.06-0.24,0.16-0.54,0.3
			c-0.3,0.14-0.69,0.27-1.16,0.41c-0.48,0.13-1.03,0.25-1.65,0.36c-0.63,0.1-1.29,0.16-2,0.16c-1.23,0-2.31-0.17-3.23-0.52
			c-0.93-0.34-1.7-0.85-2.34-1.53c-0.63-0.68-1.11-1.52-1.43-2.54c-0.32-1.02-0.48-2.2-0.48-3.56c0-1.29,0.17-2.44,0.5-3.47
			c0.33-1.03,0.81-1.9,1.44-2.61c0.63-0.72,1.38-1.26,2.27-1.65c0.89-0.38,1.88-0.57,2.97-0.57c1.17,0,2.17,0.19,3,0.56
			c0.82,0.38,1.5,0.88,2.04,1.52c0.53,0.64,0.92,1.39,1.17,2.24c0.25,0.86,0.37,1.78,0.37,2.75V192.08z M694.12,191.27
			c0.03-1.44-0.29-2.57-0.96-3.39c-0.67-0.82-1.68-1.23-3-1.23c-0.68,0-1.28,0.13-1.79,0.38c-0.51,0.25-0.94,0.59-1.29,1.01
			c-0.35,0.42-0.61,0.91-0.8,1.47c-0.19,0.56-0.3,1.14-0.32,1.75H694.12z"/>
		<path class="st0" d="M703.8,200.21c0,0.09-0.02,0.16-0.07,0.22c-0.04,0.06-0.12,0.11-0.22,0.16c-0.1,0.04-0.24,0.08-0.41,0.1
			c-0.18,0.02-0.4,0.03-0.68,0.03c-0.27,0-0.49-0.01-0.66-0.03c-0.18-0.02-0.32-0.06-0.42-0.1c-0.1-0.04-0.18-0.1-0.22-0.16
			c-0.04-0.06-0.06-0.14-0.06-0.22v-22.21c0-0.09,0.02-0.17,0.06-0.23c0.04-0.07,0.11-0.12,0.22-0.17c0.11-0.04,0.25-0.08,0.42-0.1
			c0.18-0.02,0.4-0.03,0.66-0.03c0.28,0,0.5,0.01,0.68,0.03c0.18,0.02,0.32,0.06,0.41,0.1s0.17,0.1,0.22,0.17
			c0.04,0.07,0.07,0.14,0.07,0.23V200.21z"/>
		<path class="st0" d="M711.93,180.2c0,0.64-0.12,1.08-0.37,1.31c-0.24,0.23-0.69,0.35-1.35,0.35c-0.64,0-1.08-0.11-1.32-0.34
			c-0.24-0.23-0.36-0.66-0.36-1.29c0-0.64,0.12-1.08,0.37-1.31c0.24-0.23,0.69-0.35,1.35-0.35c0.64,0,1.08,0.11,1.32,0.34
			C711.81,179.14,711.93,179.57,711.93,180.2z M711.61,200.21c0,0.09-0.02,0.16-0.07,0.22c-0.04,0.06-0.12,0.11-0.22,0.16
			c-0.1,0.04-0.24,0.08-0.41,0.1c-0.18,0.02-0.4,0.03-0.68,0.03c-0.27,0-0.49-0.01-0.66-0.03c-0.18-0.02-0.32-0.06-0.42-0.1
			c-0.1-0.04-0.18-0.1-0.22-0.16c-0.04-0.06-0.06-0.14-0.06-0.22v-14.96c0-0.08,0.02-0.15,0.06-0.22c0.04-0.07,0.11-0.12,0.22-0.17
			c0.11-0.04,0.25-0.08,0.42-0.1c0.18-0.02,0.4-0.03,0.66-0.03c0.28,0,0.5,0.01,0.68,0.03c0.18,0.02,0.32,0.06,0.41,0.1
			c0.1,0.04,0.17,0.1,0.22,0.17c0.04,0.07,0.07,0.14,0.07,0.22V200.21z"/>
		<path class="st0" d="M729.56,200.21c0,0.09-0.02,0.16-0.07,0.22c-0.04,0.06-0.12,0.11-0.22,0.16c-0.1,0.04-0.24,0.08-0.42,0.1
			c-0.18,0.02-0.4,0.03-0.66,0.03c-0.28,0-0.5-0.01-0.68-0.03c-0.18-0.02-0.32-0.06-0.42-0.1c-0.1-0.04-0.17-0.1-0.22-0.16
			c-0.04-0.06-0.07-0.14-0.07-0.22v-8.76c0-0.85-0.07-1.54-0.2-2.06c-0.13-0.52-0.33-0.97-0.58-1.35c-0.25-0.38-0.58-0.67-0.99-0.86
			c-0.4-0.2-0.87-0.3-1.4-0.3c-0.69,0-1.37,0.24-2.06,0.73c-0.69,0.49-1.41,1.2-2.16,2.14v10.45c0,0.09-0.02,0.16-0.07,0.22
			c-0.04,0.06-0.12,0.11-0.22,0.16c-0.1,0.04-0.24,0.08-0.41,0.1c-0.18,0.02-0.4,0.03-0.68,0.03c-0.27,0-0.49-0.01-0.66-0.03
			c-0.18-0.02-0.32-0.06-0.42-0.1c-0.1-0.04-0.18-0.1-0.22-0.16c-0.04-0.06-0.06-0.14-0.06-0.22v-14.96c0-0.09,0.02-0.16,0.05-0.22
			c0.03-0.06,0.1-0.12,0.2-0.17c0.1-0.05,0.23-0.08,0.38-0.1c0.16-0.02,0.36-0.02,0.62-0.02c0.24,0,0.45,0.01,0.61,0.02
			c0.16,0.02,0.29,0.05,0.37,0.1c0.09,0.05,0.15,0.11,0.19,0.17c0.04,0.06,0.06,0.14,0.06,0.22v1.98c0.84-0.94,1.68-1.63,2.52-2.07
			c0.84-0.44,1.68-0.66,2.53-0.66c1,0,1.84,0.17,2.52,0.51c0.68,0.34,1.23,0.79,1.65,1.36c0.42,0.56,0.72,1.23,0.91,1.99
			c0.18,0.76,0.27,1.67,0.27,2.73V200.21z"/>
		<path class="st0" d="M747.06,185.93c0,0.39-0.05,0.67-0.16,0.84c-0.11,0.17-0.24,0.26-0.41,0.26h-2.14
			c0.39,0.4,0.66,0.84,0.81,1.32c0.16,0.48,0.23,0.98,0.23,1.5c0,0.86-0.14,1.63-0.42,2.29c-0.28,0.66-0.67,1.23-1.19,1.69
			c-0.52,0.46-1.13,0.81-1.84,1.06c-0.71,0.24-1.5,0.37-2.36,0.37c-0.61,0-1.19-0.08-1.74-0.24c-0.55-0.16-0.97-0.36-1.27-0.61
			c-0.2,0.2-0.36,0.43-0.49,0.68c-0.13,0.25-0.19,0.55-0.19,0.88c0,0.39,0.18,0.71,0.54,0.96c0.36,0.25,0.84,0.39,1.44,0.42
			l3.91,0.17c0.74,0.02,1.42,0.12,2.04,0.31c0.62,0.18,1.16,0.44,1.61,0.78c0.45,0.34,0.81,0.75,1.06,1.25
			c0.25,0.49,0.38,1.07,0.38,1.72c0,0.69-0.14,1.34-0.43,1.96s-0.73,1.17-1.32,1.64c-0.59,0.47-1.35,0.84-2.27,1.11
			c-0.92,0.27-2.01,0.41-3.26,0.41c-1.21,0-2.24-0.1-3.08-0.31s-1.54-0.48-2.09-0.84c-0.54-0.35-0.94-0.78-1.18-1.27
			c-0.24-0.49-0.37-1.03-0.37-1.6c0-0.37,0.04-0.72,0.13-1.06c0.09-0.34,0.22-0.67,0.41-0.98c0.18-0.31,0.41-0.61,0.68-0.89
			c0.27-0.28,0.58-0.56,0.94-0.84c-0.54-0.28-0.95-0.63-1.2-1.05c-0.26-0.42-0.39-0.88-0.39-1.36c0-0.68,0.14-1.28,0.42-1.81
			c0.28-0.53,0.62-1.01,1.03-1.43c-0.34-0.41-0.61-0.87-0.81-1.39c-0.2-0.52-0.3-1.14-0.3-1.87c0-0.85,0.14-1.62,0.43-2.29
			c0.29-0.68,0.69-1.25,1.2-1.71c0.51-0.47,1.12-0.82,1.84-1.07c0.72-0.25,1.49-0.37,2.34-0.37c0.45,0,0.88,0.02,1.27,0.07
			c0.39,0.05,0.76,0.12,1.11,0.21h4.52c0.19,0,0.33,0.09,0.42,0.27C747.02,185.28,747.06,185.56,747.06,185.93z M744.15,201.72
			c0-0.64-0.26-1.14-0.79-1.49c-0.53-0.35-1.24-0.54-2.14-0.56l-3.87-0.13c-0.35,0.28-0.65,0.54-0.87,0.79
			c-0.23,0.25-0.41,0.49-0.54,0.72c-0.13,0.23-0.23,0.45-0.27,0.67c-0.05,0.22-0.08,0.45-0.08,0.68c0,0.72,0.37,1.27,1.1,1.64
			c0.73,0.37,1.75,0.56,3.06,0.56c0.83,0,1.53-0.08,2.09-0.24c0.56-0.16,1.01-0.37,1.36-0.64c0.34-0.27,0.59-0.57,0.74-0.91
			C744.08,202.46,744.15,202.1,744.15,201.72z M742.77,189.87c0-1.02-0.28-1.81-0.84-2.39c-0.56-0.57-1.35-0.86-2.39-0.86
			c-0.53,0-0.99,0.09-1.39,0.27c-0.39,0.18-0.72,0.42-0.98,0.73c-0.26,0.31-0.45,0.67-0.58,1.07c-0.13,0.4-0.19,0.83-0.19,1.27
			c0,0.99,0.28,1.76,0.84,2.33c0.56,0.56,1.34,0.85,2.35,0.85c0.54,0,1.01-0.09,1.41-0.26c0.4-0.17,0.73-0.41,0.99-0.71
			c0.26-0.31,0.45-0.66,0.58-1.06C742.71,190.72,742.77,190.31,742.77,189.87z"/>
	</g>
</g>
</svg>
